<svg xmlns="http://www.w3.org/2000/svg" width="300" height="300" viewBox="0 0 300 300">
<path d="M 145.5 102.0 L 144.0 102.0 L 143.0 102.0 L 143.5 102.0 L 145.5 102.5 L 148.5 102.5 L 150.0 103.5 " stroke="black" fill="none" stroke-width="7.0" stroke-linecap="round" stroke-linejoin="round" />
<path d="M 125.0 127.5 L 123.5 129.5 L 120.5 131.5 L 119.5 132.0 L 121.0 132.0 L 128.0 130.0 L 138.0 126.0 L 151.5 119.5 L 165.0 111.5 L 172.5 106.0 L 174.5 104.5 " stroke="black" fill="none" stroke-width="7.0" stroke-linecap="round" stroke-linejoin="round" />
<path d="M 163.0 117.0 L 162.0 118.5 L 161.5 121.0 L 160.0 127.0 L 157.0 138.0 L 151.0 152.0 L 146.0 164.0 L 131.5 183.5 L 121.0 196.0 L 111.0 202.5 L 108.0 203.0 " stroke="black" fill="none" stroke-width="7.0" stroke-linecap="round" stroke-linejoin="round" />
<path d="M 127.0 145.0 L 127.5 145.0 L 128.5 145.5 L 131.0 148.5 L 137.5 157.0 L 145.5 165.5 L 158.5 178.5 L 169.5 187.0 L 178.0 192.5 L 186.5 196.5 L 193.0 199.5 L 195.0 200.0 " stroke="black" fill="none" stroke-width="7.0" stroke-linecap="round" stroke-linejoin="round" />
</svg>