<svg xmlns="http://www.w3.org/2000/svg" width="300" height="300" viewBox="0 0 300 300">
<path d="M 114.0 139.5 L 114.0 139.5 L 114.0 141.0 L 114.0 145.5 L 114.5 154.5 L 114.5 163.5 L 114.5 167.0 " stroke="black" fill="none" stroke-width="7.0" stroke-linecap="round" stroke-linejoin="round" />
<path d="M 128.5 96.5 L 128.5 100.5 L 128.5 109.5 L 128.5 126.0 L 128.5 147.0 L 127.5 168.5 L 127.0 184.5 L 127.0 193.5 L 127.0 200.0 L 127.0 201.5 " stroke="black" fill="none" stroke-width="7.0" stroke-linecap="round" stroke-linejoin="round" />
<path d="M 138.0 148.5 L 138.5 150.0 L 140.0 156.5 L 142.5 164.5 L 143.5 167.5 " stroke="black" fill="none" stroke-width="7.0" stroke-linecap="round" stroke-linejoin="round" />
<path d="M 159.0 107.0 L 158.0 107.0 L 156.5 107.0 L 157.5 107.0 L 162.0 106.0 L 167.5 104.0 L 172.5 101.5 L 175.0 100.0 " stroke="black" fill="none" stroke-width="7.0" stroke-linecap="round" stroke-linejoin="round" />
<path d="M 156.0 117.5 L 156.0 119.5 L 156.0 128.5 L 156.0 140.0 L 155.5 150.0 L 155.5 156.0 L 155.5 158.0 L 155.5 157.5 " stroke="black" fill="none" stroke-width="7.0" stroke-linecap="round" stroke-linejoin="round" />
<path d="M 158.5 133.0 L 159.0 131.5 L 161.0 130.0 L 165.0 128.5 L 170.0 127.0 L 173.5 125.0 " stroke="black" fill="none" stroke-width="7.0" stroke-linecap="round" stroke-linejoin="round" />
<path d="M 158.5 144.0 L 158.5 144.5 L 158.0 145.5 L 160.0 145.5 L 165.0 143.5 L 170.0 141.0 L 173.0 139.5 " stroke="black" fill="none" stroke-width="7.0" stroke-linecap="round" stroke-linejoin="round" />
<path d="M 148.5 165.5 L 147.0 166.5 L 146.5 167.0 L 147.5 167.0 L 151.5 166.0 L 159.0 162.5 L 169.0 156.5 L 176.0 151.5 L 179.0 150.0 " stroke="black" fill="none" stroke-width="7.0" stroke-linecap="round" stroke-linejoin="round" />
<path d="M 156.5 166.5 L 156.5 170.0 L 156.5 175.5 L 156.0 184.0 L 155.0 193.0 L 153.5 200.5 L 152.0 207.0 L 151.0 210.0 L 150.5 210.0 L 151.5 208.5 L 154.5 205.0 L 159.0 200.0 L 165.5 194.5 L 169.0 191.5 " stroke="black" fill="none" stroke-width="7.0" stroke-linecap="round" stroke-linejoin="round" />
<path d="M 187.0 166.0 L 186.0 165.0 L 185.5 164.5 L 184.0 165.5 L 181.5 169.0 L 178.5 173.5 L 175.0 179.0 L 172.5 182.0 " stroke="black" fill="none" stroke-width="7.0" stroke-linecap="round" stroke-linejoin="round" />
<path d="M 165.0 177.5 L 165.0 177.5 L 165.0 177.5 L 168.0 179.5 L 173.5 183.5 L 183.5 189.5 L 192.5 195.0 L 198.0 199.5 L 201.5 202.0 L 202.5 202.0 " stroke="black" fill="none" stroke-width="7.0" stroke-linecap="round" stroke-linejoin="round" />
</svg>