<svg xmlns="http://www.w3.org/2000/svg" width="300" height="300" viewBox="0 0 300 300">
<path d="M 116.0 139.5 L 116.0 138.5 L 116.0 137.0 L 116.5 138.5 L 117.5 145.0 L 118.0 155.0 L 118.0 165.0 L 118.0 169.0 L 118.0 169.0 " stroke="black" fill="none" stroke-width="7.0" stroke-linecap="round" stroke-linejoin="round" />
<path d="M 127.5 92.0 L 127.5 92.0 L 127.5 91.5 L 127.5 92.5 L 127.5 100.0 L 128.5 117.5 L 129.5 141.0 L 129.5 163.0 L 129.5 183.0 L 129.5 197.0 L 129.5 206.5 L 129.5 211.0 L 129.5 211.5 " stroke="black" fill="none" stroke-width="7.0" stroke-linecap="round" stroke-linejoin="round" />
<path d="M 140.0 140.5 L 140.0 141.5 L 141.0 144.5 L 143.5 150.5 L 146.5 157.5 L 147.5 160.0 " stroke="black" fill="none" stroke-width="7.0" stroke-linecap="round" stroke-linejoin="round" />
<path d="M 166.5 93.5 L 166.5 94.0 L 166.0 95.0 L 167.5 95.5 L 168.5 96.0 " stroke="black" fill="none" stroke-width="7.0" stroke-linecap="round" stroke-linejoin="round" />
<path d="M 151.0 108.5 L 149.5 109.5 L 148.0 110.0 L 148.0 110.5 L 148.5 110.5 L 152.5 110.0 L 159.5 107.5 L 168.5 104.5 L 178.0 101.5 L 185.5 99.5 L 188.5 99.5 L 189.0 99.5 " stroke="black" fill="none" stroke-width="7.0" stroke-linecap="round" stroke-linejoin="round" />
<path d="M 151.0 120.0 L 151.0 121.5 L 151.0 123.5 L 152.5 126.5 L 155.0 130.5 L 157.5 134.0 L 159.0 135.5 L 159.0 135.5 " stroke="black" fill="none" stroke-width="7.0" stroke-linecap="round" stroke-linejoin="round" />
<path d="M 155.5 122.5 L 156.0 122.5 L 156.5 121.5 L 159.0 120.5 L 165.0 119.5 L 172.0 117.0 L 179.5 114.0 L 186.5 112.0 L 190.5 111.5 L 192.0 113.0 L 192.0 116.5 L 191.0 120.5 L 189.0 125.0 L 187.0 129.0 L 185.0 132.0 " stroke="black" fill="none" stroke-width="7.0" stroke-linecap="round" stroke-linejoin="round" />
<path d="M 167.5 122.5 L 167.5 123.0 L 167.0 125.0 L 166.5 127.5 L 166.5 130.0 " stroke="black" fill="none" stroke-width="7.0" stroke-linecap="round" stroke-linejoin="round" />
<path d="M 176.5 117.5 L 176.5 117.5 L 176.5 119.5 L 176.5 121.5 L 176.0 125.0 L 175.5 127.0 " stroke="black" fill="none" stroke-width="7.0" stroke-linecap="round" stroke-linejoin="round" />
<path d="M 165.0 137.0 L 163.0 137.5 L 162.5 137.5 L 164.0 137.0 L 168.0 135.5 L 172.5 133.5 L 177.5 131.5 L 182.5 131.0 " stroke="black" fill="none" stroke-width="7.0" stroke-linecap="round" stroke-linejoin="round" />
<path d="M 172.0 137.0 L 171.5 137.0 L 171.0 136.5 L 171.0 138.5 L 171.0 144.0 L 172.0 151.0 L 172.5 158.0 L 172.5 162.0 L 172.5 163.0 " stroke="black" fill="none" stroke-width="7.0" stroke-linecap="round" stroke-linejoin="round" />
<path d="M 158.0 148.0 L 157.5 148.0 L 156.5 148.0 L 157.0 148.0 L 158.5 148.5 L 161.5 149.0 L 162.5 149.0 " stroke="black" fill="none" stroke-width="7.0" stroke-linecap="round" stroke-linejoin="round" />
<path d="M 159.0 157.0 L 157.5 157.5 L 156.5 158.0 L 156.5 158.5 L 157.5 158.0 L 160.5 156.5 L 165.5 154.5 L 169.0 152.5 " stroke="black" fill="none" stroke-width="7.0" stroke-linecap="round" stroke-linejoin="round" />
<path d="M 185.0 140.0 L 185.0 140.0 L 184.5 140.0 L 184.0 140.5 L 183.5 142.0 L 182.0 144.0 L 180.0 146.5 L 178.5 149.0 L 178.0 150.5 L 178.5 151.0 L 180.5 151.0 L 183.5 151.0 L 186.0 150.5 " stroke="black" fill="none" stroke-width="7.0" stroke-linecap="round" stroke-linejoin="round" />
<path d="M 173.0 159.5 L 172.0 159.5 L 171.0 159.5 L 170.0 160.5 L 168.5 163.0 L 165.0 168.5 L 159.0 176.5 L 152.0 185.5 L 147.0 191.5 L 144.0 195.0 L 143.0 196.0 " stroke="black" fill="none" stroke-width="7.0" stroke-linecap="round" stroke-linejoin="round" />
<path d="M 156.5 177.5 L 157.5 177.0 L 158.5 178.0 L 158.5 182.5 L 158.5 189.0 L 158.0 195.0 L 157.0 198.5 L 157.0 199.5 L 157.0 198.5 L 159.0 195.5 L 163.0 192.0 L 167.5 187.5 L 172.5 183.5 L 173.5 182.5 " stroke="black" fill="none" stroke-width="7.0" stroke-linecap="round" stroke-linejoin="round" />
<path d="M 184.0 170.5 L 184.0 170.5 L 183.5 170.0 L 182.5 170.0 L 181.0 171.0 L 179.0 173.5 L 176.0 176.0 L 173.0 178.0 L 170.5 177.5 L 169.5 176.0 L 169.0 174.5 L 168.5 174.0 L 169.0 174.0 L 170.0 176.0 L 172.5 178.0 L 177.0 181.0 L 184.5 184.0 L 193.0 187.5 L 199.0 191.0 L 204.5 193.0 L 209.0 193.5 L 210.5 193.5 " stroke="black" fill="none" stroke-width="7.0" stroke-linecap="round" stroke-linejoin="round" />
</svg>