<svg xmlns="http://www.w3.org/2000/svg" width="300" height="300" viewBox="0 0 300 300">
<path d="M 128.5 96.5 L 127.5 96.5 L 127.0 96.5 L 128.0 97.5 L 130.5 99.0 L 133.5 99.5 L 134.5 100.0 " stroke="black" fill="none" stroke-width="7.0" stroke-linecap="round" stroke-linejoin="round" />
<path d="M 117.0 121.5 L 115.5 123.0 L 116.0 123.5 L 120.5 123.0 L 126.5 120.0 L 133.0 115.5 L 139.5 111.0 L 144.0 108.5 L 145.0 108.0 L 144.5 110.0 L 142.0 113.5 L 139.5 118.0 L 136.5 123.0 L 132.5 130.0 L 128.5 139.5 L 123.0 150.0 L 116.0 161.0 L 108.5 169.5 L 104.0 175.0 L 101.0 179.0 L 99.5 180.0 L 99.5 180.0 " stroke="black" fill="none" stroke-width="7.0" stroke-linecap="round" stroke-linejoin="round" />
<path d="M 123.5 150.0 L 125.5 150.0 L 127.5 153.5 L 128.0 163.0 L 128.0 174.0 L 128.0 184.0 L 128.0 190.5 L 128.5 194.0 L 128.5 194.5 " stroke="black" fill="none" stroke-width="7.0" stroke-linecap="round" stroke-linejoin="round" />
<path d="M 128.5 148.0 L 129.0 148.5 L 131.0 149.5 L 136.0 156.0 L 142.0 163.5 L 147.0 168.0 L 149.5 169.5 " stroke="black" fill="none" stroke-width="7.0" stroke-linecap="round" stroke-linejoin="round" />
<path d="M 148.5 117.5 L 148.5 118.0 L 148.5 120.0 L 149.5 124.0 L 152.0 130.0 L 154.5 135.0 L 156.0 137.0 L 156.5 136.0 " stroke="black" fill="none" stroke-width="7.0" stroke-linecap="round" stroke-linejoin="round" />
<path d="M 152.0 114.0 L 152.5 111.5 L 155.5 108.5 L 161.0 105.0 L 169.0 101.5 L 176.0 98.0 L 182.5 96.0 L 188.0 95.0 L 190.5 97.5 L 191.0 103.5 L 190.0 111.5 L 187.5 120.5 L 184.5 127.0 L 182.5 130.0 L 181.0 130.5 " stroke="black" fill="none" stroke-width="7.0" stroke-linecap="round" stroke-linejoin="round" />
<path d="M 159.0 120.5 L 157.0 120.5 L 157.5 119.0 L 161.0 118.5 L 167.0 116.5 L 172.5 114.0 L 177.0 111.0 L 177.5 110.5 " stroke="black" fill="none" stroke-width="7.0" stroke-linecap="round" stroke-linejoin="round" />
<path d="M 162.0 86.0 L 162.0 90.5 L 163.0 99.0 L 163.0 111.0 L 163.0 122.0 L 164.0 127.0 L 165.0 128.0 " stroke="black" fill="none" stroke-width="7.0" stroke-linecap="round" stroke-linejoin="round" />
<path d="M 175.0 79.0 L 175.0 81.5 L 175.0 88.0 L 175.0 100.0 L 175.0 111.0 L 174.5 120.0 L 174.0 126.5 L 173.5 127.5 " stroke="black" fill="none" stroke-width="7.0" stroke-linecap="round" stroke-linejoin="round" />
<path d="M 162.5 138.5 L 161.0 138.5 L 160.5 138.5 L 162.5 138.0 L 167.5 137.0 L 172.5 135.0 L 177.5 133.5 L 178.5 133.0 " stroke="black" fill="none" stroke-width="7.0" stroke-linecap="round" stroke-linejoin="round" />
<path d="M 153.5 150.5 L 153.5 150.5 L 152.5 151.0 L 152.0 151.0 L 153.0 150.5 L 157.5 149.0 L 166.0 147.0 L 175.0 144.0 L 180.5 142.5 L 183.5 142.5 " stroke="black" fill="none" stroke-width="7.0" stroke-linecap="round" stroke-linejoin="round" />
<path d="M 152.0 164.5 L 152.0 164.5 L 152.0 164.0 L 152.0 164.0 L 153.5 166.5 L 155.0 169.5 L 157.5 173.0 L 159.0 174.5 L 159.5 174.5 " stroke="black" fill="none" stroke-width="7.0" stroke-linecap="round" stroke-linejoin="round" />
<path d="M 159.0 163.5 L 159.0 163.0 L 160.0 162.5 L 164.0 161.0 L 170.0 159.0 L 175.5 156.0 L 180.0 154.0 L 182.0 154.0 L 182.5 155.5 L 181.0 159.0 L 178.5 163.0 L 175.5 167.0 " stroke="black" fill="none" stroke-width="7.0" stroke-linecap="round" stroke-linejoin="round" />
<path d="M 163.0 175.5 L 162.5 176.0 L 161.5 176.0 L 161.5 176.0 L 164.0 175.0 L 168.0 173.0 L 172.5 170.5 L 176.5 168.0 L 177.0 167.5 " stroke="black" fill="none" stroke-width="7.0" stroke-linecap="round" stroke-linejoin="round" />
<path d="M 163.5 181.0 L 163.0 185.0 L 163.0 189.0 L 163.5 192.5 L 165.0 194.0 L 166.5 194.5 " stroke="black" fill="none" stroke-width="7.0" stroke-linecap="round" stroke-linejoin="round" />
<path d="M 177.0 176.5 L 176.5 177.0 L 176.0 178.5 L 175.0 182.5 L 174.0 187.5 L 172.5 191.5 L 172.0 192.5 " stroke="black" fill="none" stroke-width="7.0" stroke-linecap="round" stroke-linejoin="round" />
<path d="M 141.0 204.0 L 140.5 204.0 L 139.0 204.0 L 140.0 203.0 L 145.5 201.5 L 153.5 199.0 L 166.5 195.5 L 178.5 193.5 L 190.0 193.0 L 197.0 193.0 " stroke="black" fill="none" stroke-width="7.0" stroke-linecap="round" stroke-linejoin="round" />
</svg>