<svg xmlns="http://www.w3.org/2000/svg" width="300" height="300" viewBox="0 0 300 300">
<path d="M 122.0 116.5 L 120.0 117.5 L 119.0 118.0 L 119.5 118.0 L 122.0 117.0 L 126.5 114.5 L 131.0 111.5 L 135.5 109.0 L 139.5 107.0 L 140.0 107.0 " stroke="black" fill="none" stroke-width="7.0" stroke-linecap="round" stroke-linejoin="round" />
<path d="M 129.0 95.5 L 129.0 95.5 L 128.5 97.0 L 128.5 100.0 L 129.0 106.5 L 130.5 116.0 L 130.5 125.0 L 130.5 129.0 " stroke="black" fill="none" stroke-width="7.0" stroke-linecap="round" stroke-linejoin="round" />
<path d="M 112.0 142.0 L 111.0 142.0 L 109.5 142.5 L 109.5 142.5 L 110.5 142.5 L 114.0 142.0 L 120.5 140.5 L 128.0 137.0 L 137.0 132.5 L 144.0 128.5 L 147.5 127.5 L 148.0 127.5 " stroke="black" fill="none" stroke-width="7.0" stroke-linecap="round" stroke-linejoin="round" />
<path d="M 132.0 138.0 L 132.0 139.0 L 132.0 143.0 L 132.0 149.0 L 132.5 158.5 L 133.0 168.5 L 133.5 176.5 L 134.5 181.0 L 135.0 182.5 " stroke="black" fill="none" stroke-width="7.0" stroke-linecap="round" stroke-linejoin="round" />
<path d="M 136.5 164.5 L 138.5 163.0 L 141.5 161.0 L 145.5 158.5 L 148.5 155.5 L 149.5 154.5 " stroke="black" fill="none" stroke-width="7.0" stroke-linecap="round" stroke-linejoin="round" />
<path d="M 113.0 154.5 L 113.0 154.5 L 112.0 154.5 L 112.0 156.5 L 112.5 163.0 L 113.0 171.5 L 111.5 181.0 L 109.5 187.5 L 107.5 190.0 " stroke="black" fill="none" stroke-width="7.0" stroke-linecap="round" stroke-linejoin="round" />
<path d="M 113.5 176.0 L 114.0 176.0 L 116.5 176.5 L 121.0 177.5 L 127.0 180.0 L 134.0 183.0 L 144.5 185.5 L 155.0 187.0 L 165.5 187.5 L 173.5 187.5 L 179.0 187.5 L 182.0 187.5 " stroke="black" fill="none" stroke-width="7.0" stroke-linecap="round" stroke-linejoin="round" />
<path d="M 160.5 114.5 L 159.5 114.5 L 158.5 114.5 L 158.0 114.5 L 160.0 113.0 L 163.5 111.0 L 168.0 109.0 L 172.5 107.5 L 175.5 106.5 L 177.5 107.0 L 178.5 110.0 L 179.0 114.5 L 179.0 120.5 L 177.5 127.0 L 176.0 131.5 L 174.0 134.5 L 172.5 134.5 L 171.0 132.0 " stroke="black" fill="none" stroke-width="7.0" stroke-linecap="round" stroke-linejoin="round" />
<path d="M 166.5 116.5 L 166.5 116.0 L 166.5 116.0 L 166.5 117.0 L 166.0 122.0 L 164.0 130.0 L 161.5 139.5 L 160.0 143.0 " stroke="black" fill="none" stroke-width="7.0" stroke-linecap="round" stroke-linejoin="round" />
<path d="M 156.0 162.5 L 155.5 162.0 L 155.0 161.5 L 155.5 162.0 L 157.0 164.5 L 159.0 168.0 L 162.0 171.0 L 164.0 172.0 L 164.5 172.0 " stroke="black" fill="none" stroke-width="7.0" stroke-linecap="round" stroke-linejoin="round" />
<path d="M 162.0 161.5 L 162.0 161.5 L 161.5 160.5 L 161.5 159.5 L 162.0 159.0 L 165.0 158.0 L 169.5 156.5 L 174.0 153.5 L 178.5 151.0 L 181.5 150.0 L 183.0 150.5 L 183.0 153.0 L 181.0 157.5 L 178.0 162.0 L 175.0 167.0 L 174.0 168.0 " stroke="black" fill="none" stroke-width="7.0" stroke-linecap="round" stroke-linejoin="round" />
<path d="M 170.5 171.0 L 169.5 172.0 L 167.5 174.0 L 167.0 174.5 L 167.0 174.5 L 169.0 173.0 L 171.5 171.5 L 174.5 170.5 L 178.0 170.5 " stroke="black" fill="none" stroke-width="7.0" stroke-linecap="round" stroke-linejoin="round" />
</svg>