<svg xmlns="http://www.w3.org/2000/svg" width="300" height="300" viewBox="0 0 300 300">
<path d="M 128.5 107.0 L 128.0 107.0 L 128.0 107.0 L 128.0 107.5 L 129.5 110.5 L 132.5 116.0 L 136.0 120.0 L 138.0 122.0 " stroke="black" fill="none" stroke-width="7.0" stroke-linecap="round" stroke-linejoin="round" />
<path d="M 133.0 106.5 L 132.5 106.5 L 132.0 106.0 L 132.5 105.0 L 136.0 103.5 L 142.5 101.5 L 150.5 99.0 L 157.5 96.5 L 162.0 95.5 L 165.5 95.0 L 166.0 97.0 L 165.0 100.5 L 162.0 105.5 L 158.0 111.5 L 153.5 116.5 L 149.0 120.5 L 145.5 122.0 L 143.5 122.5 L 143.0 122.5 L 143.5 122.0 L 146.5 120.5 L 151.0 118.5 L 156.0 116.0 " stroke="black" fill="none" stroke-width="7.0" stroke-linecap="round" stroke-linejoin="round" />
<path d="M 129.0 145.5 L 129.0 145.5 L 128.5 145.5 L 128.5 145.5 L 130.5 145.0 L 137.0 142.5 L 147.0 138.5 L 155.5 134.0 L 161.0 132.0 L 164.0 131.5 L 165.0 132.5 L 164.5 136.5 L 163.5 141.5 L 162.0 147.0 L 161.0 152.0 L 160.5 155.0 " stroke="black" fill="none" stroke-width="7.0" stroke-linecap="round" stroke-linejoin="round" />
<path d="M 144.0 144.0 L 143.5 143.5 L 143.0 141.5 L 142.5 141.5 L 142.5 145.0 L 143.0 151.0 L 143.5 157.5 " stroke="black" fill="none" stroke-width="7.0" stroke-linecap="round" stroke-linejoin="round" />
<path d="M 132.5 165.5 L 131.0 165.5 L 129.5 165.5 L 129.0 166.0 L 129.5 166.0 L 133.0 164.5 L 141.0 161.5 L 149.0 157.5 L 156.5 153.5 L 160.5 152.5 " stroke="black" fill="none" stroke-width="7.0" stroke-linecap="round" stroke-linejoin="round" />
<path d="M 128.5 150.0 L 127.5 150.5 L 127.0 151.5 L 127.0 156.0 L 127.5 165.0 L 128.5 175.0 L 129.0 183.5 L 130.0 188.0 L 131.0 190.0 L 133.5 191.0 L 136.0 191.5 L 139.5 191.5 L 144.0 191.5 L 149.0 190.0 L 154.0 188.0 L 159.5 185.5 L 165.5 184.0 L 171.0 182.5 L 175.0 181.5 L 177.0 180.5 L 178.5 179.0 L 179.0 176.5 L 179.5 172.0 L 180.0 164.5 L 179.5 153.5 " stroke="black" fill="none" stroke-width="7.0" stroke-linecap="round" stroke-linejoin="round" />
</svg>