<svg xmlns="http://www.w3.org/2000/svg" width="300" height="300" viewBox="0 0 300 300">
<path d="M 59.5 68.0 L 59.5 68.5 L 59.0 69.0 L 59.0 69.0 L 59.0 69.0 L 59.0 69.5 L 60.0 70.0 L 60.5 72.0 L 62.0 75.0 L 63.5 79.0 L 65.5 83.5 L 68.0 88.5 L 70.5 93.5 L 73.0 98.0 L 75.5 103.0 L 78.0 107.5 L 80.5 112.0 L 82.5 116.5 L 84.0 120.5 L 85.5 123.5 L 87.0 127.5 L 88.5 131.5 L 90.5 135.5 L 92.5 138.5 L 94.5 141.0 L 96.5 144.0 L 98.0 147.0 L 99.5 150.0 L 101.0 152.5 L 101.5 154.0 L 102.0 155.0 L 102.5 156.5 L 103.0 158.0 L 103.0 159.5 L 103.5 160.5 L 103.5 161.5 L 103.5 162.0 L 104.0 162.0 L 104.5 162.0 L 104.5 162.0 L 104.5 162.5 L 104.5 163.0 L 104.5 163.0 L 104.5 163.5 L 104.5 163.5 L 104.0 164.0 L 103.5 164.5 L 102.5 165.5 L 101.0 168.5 L 97.5 174.0 L 93.0 182.5 L 88.5 191.0 L 84.5 200.5 L 82.0 209.5 L 78.5 218.5 L 75.5 227.0 L 72.5 233.5 L 70.0 238.5 L 68.0 242.5 L 66.5 245.5 L 66.0 247.0 L 65.5 247.0 " stroke="black" fill="none" stroke-width="7.0" stroke-linecap="round" stroke-linejoin="round" />
<path d="M 90.0 65.0 L 90.5 65.5 L 91.0 66.5 L 91.0 68.0 L 91.5 69.5 L 92.5 71.0 L 93.5 73.0 L 95.0 75.5 L 96.5 78.5 L 99.0 83.0 L 101.0 87.5 L 103.0 91.5 L 104.5 95.0 L 106.0 99.0 L 107.5 102.5 L 109.0 105.5 L 110.5 108.0 L 113.0 111.5 L 114.5 114.5 L 116.5 118.0 L 118.5 121.0 L 120.0 123.5 L 121.5 126.5 L 123.5 129.0 L 125.0 131.5 L 126.5 134.5 L 127.5 137.5 L 128.5 140.0 L 129.0 142.5 L 130.0 144.5 L 131.5 146.0 L 132.5 147.5 L 133.0 149.0 L 134.0 150.5 L 134.5 152.0 L 135.5 153.0 L 136.0 153.5 L 136.0 154.5 L 136.5 155.0 L 136.5 155.5 L 136.5 156.0 L 136.5 156.5 L 136.5 156.5 L 137.0 157.0 L 137.0 157.5 L 137.0 158.0 L 137.5 158.0 L 137.5 158.5 L 137.5 158.5 L 138.0 159.0 L 138.0 159.5 L 138.0 159.5 L 138.0 159.5 L 138.0 159.5 L 138.0 160.0 L 138.0 160.0 L 138.0 160.5 L 137.5 160.5 L 136.5 161.5 L 136.0 162.5 L 135.0 164.0 L 133.0 167.0 L 131.0 171.5 L 129.0 177.0 L 126.5 182.5 L 124.5 188.0 L 122.0 192.5 L 119.0 198.0 L 116.5 203.5 L 114.0 208.0 L 112.0 212.0 L 110.0 216.5 L 108.5 221.5 L 107.0 227.0 L 105.0 232.5 L 103.0 238.0 L 101.0 243.0 L 99.0 246.5 L 97.0 248.5 L 96.5 249.0 " stroke="black" fill="none" stroke-width="7.0" stroke-linecap="round" stroke-linejoin="round" />
</svg>