<svg xmlns="http://www.w3.org/2000/svg" width="300" height="300" viewBox="0 0 300 300">
<path d="M 204.5 74.0 L 204.5 73.5 L 204.0 73.0 L 203.5 72.5 L 203.5 72.0 L 203.5 71.5 L 203.5 71.5 L 203.5 72.0 L 203.5 73.0 L 203.5 74.5 L 203.0 76.0 L 202.5 78.0 L 201.5 80.5 L 200.5 83.5 L 199.0 86.5 L 198.0 89.0 L 197.0 92.0 L 195.5 95.0 L 194.5 98.0 L 193.0 100.5 L 192.0 103.0 L 190.5 105.0 L 189.5 107.5 L 188.5 110.5 L 186.5 113.5 L 185.0 116.5 L 183.0 119.5 L 181.5 122.0 L 180.0 124.0 L 178.5 126.5 L 177.0 129.0 L 176.0 131.5 L 174.5 134.5 L 174.0 137.0 L 173.0 139.0 L 172.5 140.0 L 172.0 141.0 L 171.0 142.5 L 170.5 144.5 L 169.5 145.5 L 169.0 146.5 L 168.5 147.5 L 168.0 148.0 L 168.0 149.0 L 167.5 150.0 L 167.0 151.0 L 166.5 152.0 L 166.0 153.0 L 165.5 154.0 L 165.0 155.0 L 164.5 156.5 L 164.0 157.5 L 163.5 158.0 L 163.0 158.5 L 163.0 158.5 L 162.5 159.0 L 162.0 159.5 L 162.0 160.0 L 161.5 160.0 L 161.5 160.0 L 161.5 160.0 L 161.5 160.0 L 161.5 160.5 L 161.5 160.5 L 161.5 160.5 L 162.0 161.0 L 162.0 161.5 L 162.5 162.0 L 163.5 163.0 L 164.0 164.5 L 165.0 166.5 L 166.5 169.0 L 168.0 171.5 L 169.5 174.5 L 171.0 178.0 L 172.5 182.0 L 174.0 185.5 L 175.5 188.5 L 177.0 192.0 L 179.0 194.5 L 180.5 198.0 L 182.5 202.0 L 184.0 206.0 L 186.0 210.0 L 187.5 213.5 L 189.5 217.0 L 191.0 220.5 L 192.5 224.5 L 194.0 227.5 L 195.5 230.5 L 197.0 233.5 L 199.0 236.0 L 200.5 239.0 L 202.0 241.5 L 203.5 244.0 L 204.0 245.0 L 204.5 245.0 " stroke="black" fill="none" stroke-width="7.0" stroke-linecap="round" stroke-linejoin="round" />
<path d="M 238.0 72.5 L 238.0 72.5 L 238.0 72.0 L 237.5 72.0 L 237.5 72.0 L 237.0 72.5 L 236.5 74.0 L 236.0 76.0 L 235.0 78.5 L 234.0 82.0 L 232.5 85.5 L 230.5 89.5 L 228.5 93.5 L 226.5 97.0 L 224.5 100.5 L 222.0 103.0 L 220.0 106.5 L 218.0 110.0 L 216.5 114.5 L 215.5 118.0 L 215.0 121.0 L 214.5 123.0 L 213.5 126.0 L 212.5 129.0 L 211.0 131.5 L 209.5 134.5 L 208.0 136.5 L 207.0 138.5 L 206.0 140.5 L 205.0 142.5 L 203.5 144.5 L 202.0 146.5 L 201.0 148.5 L 200.0 149.5 L 199.5 150.5 L 198.5 152.0 L 198.0 153.0 L 197.5 154.5 L 197.0 156.5 L 196.5 157.5 L 196.0 158.5 L 195.5 159.0 L 195.5 159.0 L 195.5 159.5 L 195.5 160.0 L 195.0 160.5 L 195.0 161.0 L 195.0 161.0 L 195.0 161.5 L 195.0 161.5 L 195.0 162.0 L 195.0 162.5 L 195.5 163.5 L 196.0 164.5 L 196.5 166.5 L 198.0 169.0 L 199.5 173.0 L 201.5 177.5 L 204.5 181.5 L 207.0 185.5 L 210.0 189.5 L 212.0 193.5 L 214.0 198.0 L 215.5 202.0 L 217.0 206.5 L 218.5 210.0 L 220.0 213.5 L 221.5 217.0 L 223.5 221.5 L 225.0 225.0 L 226.5 228.0 L 228.5 231.0 L 230.0 233.5 L 231.5 236.0 L 232.5 238.5 L 233.5 241.0 L 234.5 243.5 L 235.5 246.0 L 236.5 248.5 L 237.5 250.5 L 238.0 252.5 L 238.5 254.0 L 238.5 254.0 L 238.5 254.0 " stroke="black" fill="none" stroke-width="7.0" stroke-linecap="round" stroke-linejoin="round" />
</svg>