<svg xmlns="http://www.w3.org/2000/svg" width="300" height="300" viewBox="0 0 300 300">
<path d="M 132.5 113.0 L 131.5 113.5 L 130.5 114.0 L 129.0 114.5 L 129.0 115.0 L 130.5 115.0 L 137.0 113.5 L 147.0 108.5 L 158.0 101.5 L 167.5 97.0 L 170.5 95.0 " stroke="black" fill="none" stroke-width="7.0" stroke-linecap="round" stroke-linejoin="round" />
<path d="M 154.5 106.0 L 153.5 107.0 L 152.0 109.5 L 151.0 114.5 L 149.5 121.5 L 145.5 130.5 L 138.0 142.5 L 128.5 154.0 L 121.5 164.0 L 115.5 169.0 L 114.5 169.5 " stroke="black" fill="none" stroke-width="7.0" stroke-linecap="round" stroke-linejoin="round" />
<path d="M 152.0 111.0 L 152.0 111.0 L 152.5 112.0 L 153.0 118.0 L 153.5 131.5 L 154.0 149.0 L 154.0 166.5 L 154.0 177.5 L 154.0 184.0 L 155.0 185.5 L 155.0 185.5 " stroke="black" fill="none" stroke-width="7.0" stroke-linecap="round" stroke-linejoin="round" />
<path d="M 157.5 131.5 L 157.5 132.0 L 157.5 133.0 L 160.0 135.0 L 168.0 140.0 L 177.5 145.0 L 185.0 148.0 L 188.0 150.0 " stroke="black" fill="none" stroke-width="7.0" stroke-linecap="round" stroke-linejoin="round" />
</svg>