<svg xmlns="http://www.w3.org/2000/svg" width="300" height="300" viewBox="0 0 300 300">
<path d="M 135.5 106.0 L 134.0 106.5 L 133.0 107.0 L 134.5 107.0 L 140.5 106.5 L 148.0 104.5 L 155.0 101.0 L 159.5 99.5 " stroke="black" fill="none" stroke-width="7.0" stroke-linecap="round" stroke-linejoin="round" />
<path d="M 108.0 136.5 L 108.0 137.0 L 107.5 139.0 L 108.0 143.5 L 110.0 153.0 L 112.0 164.5 L 113.0 173.0 L 114.5 176.5 L 115.5 177.0 L 115.5 176.5 " stroke="black" fill="none" stroke-width="7.0" stroke-linecap="round" stroke-linejoin="round" />
<path d="M 115.5 145.5 L 116.5 144.5 L 119.0 142.0 L 123.0 140.0 L 128.5 138.5 L 135.5 135.0 L 146.5 130.0 L 156.5 126.0 L 165.5 124.5 L 171.5 125.0 L 174.5 128.5 L 176.0 136.0 L 177.0 145.0 L 177.5 156.0 L 177.5 167.5 L 176.0 177.5 L 173.5 186.5 L 171.0 191.0 L 167.5 191.5 L 161.5 187.0 L 160.0 185.0 " stroke="black" fill="none" stroke-width="7.0" stroke-linecap="round" stroke-linejoin="round" />
<path d="M 146.0 117.5 L 145.5 115.5 L 145.5 114.0 L 145.5 114.5 L 145.0 119.0 L 143.5 128.0 L 139.5 140.5 L 134.0 153.5 L 129.0 163.0 L 127.0 165.5 " stroke="black" fill="none" stroke-width="7.0" stroke-linecap="round" stroke-linejoin="round" />
<path d="M 142.5 143.5 L 141.5 143.5 L 141.5 144.0 L 145.5 148.5 L 152.0 156.5 L 159.5 163.0 L 165.0 164.5 " stroke="black" fill="none" stroke-width="7.0" stroke-linecap="round" stroke-linejoin="round" />
</svg>