<svg xmlns="http://www.w3.org/2000/svg" width="300" height="300" viewBox="0 0 300 300">
<path d="M 148.5 115.0 L 148.5 115.0 L 148.5 114.0 L 148.5 116.0 L 149.0 124.0 L 150.0 142.0 L 150.0 163.0 L 150.0 178.0 L 150.0 186.5 L 150.0 188.0 L 151.0 186.5 " stroke="black" fill="none" stroke-width="7.0" stroke-linecap="round" stroke-linejoin="round" />
<path d="M 151.0 160.0 L 151.0 160.0 L 151.0 159.0 L 152.0 158.0 L 155.5 157.0 L 163.0 154.5 L 170.5 151.5 L 172.5 150.5 " stroke="black" fill="none" stroke-width="7.0" stroke-linecap="round" stroke-linejoin="round" />
<path d="M 111.0 200.0 L 110.0 200.0 L 108.5 200.5 L 107.5 200.5 L 109.5 200.5 L 116.0 199.5 L 128.0 198.5 L 145.5 195.5 L 163.0 191.0 L 177.5 187.5 L 190.0 186.5 L 197.0 187.0 L 198.0 187.5 " stroke="black" fill="none" stroke-width="7.0" stroke-linecap="round" stroke-linejoin="round" />
</svg>