<svg xmlns="http://www.w3.org/2000/svg" width="300" height="300" viewBox="0 0 300 300">
<path d="M 151.5 95.5 L 151.5 95.5 L 151.0 94.5 L 150.5 94.0 L 150.5 93.5 L 150.5 94.0 L 149.0 98.0 L 145.0 105.5 L 136.0 117.5 L 126.0 128.0 L 117.0 134.5 L 110.0 137.5 L 109.0 138.0 " stroke="black" fill="none" stroke-width="7.0" stroke-linecap="round" stroke-linejoin="round" />
<path d="M 148.0 99.5 L 148.5 100.0 L 149.5 100.5 L 152.0 102.5 L 157.0 106.0 L 164.5 110.5 L 171.5 114.0 L 176.5 116.0 L 180.5 117.5 L 184.0 118.5 L 185.0 119.0 " stroke="black" fill="none" stroke-width="7.0" stroke-linecap="round" stroke-linejoin="round" />
<path d="M 140.0 139.0 L 138.0 139.5 L 137.0 139.5 L 137.5 139.5 L 141.5 139.5 L 147.0 137.5 L 152.0 135.5 L 156.5 133.5 L 158.5 133.0 " stroke="black" fill="none" stroke-width="7.0" stroke-linecap="round" stroke-linejoin="round" />
<path d="M 138.0 158.5 L 138.0 158.5 L 137.0 159.5 L 137.5 159.5 L 141.0 159.5 L 146.0 158.0 L 151.0 155.5 L 156.5 153.5 L 160.0 152.5 L 161.0 153.0 L 160.0 156.5 L 156.5 163.0 L 152.5 169.5 L 148.0 176.0 L 144.0 181.0 " stroke="black" fill="none" stroke-width="7.0" stroke-linecap="round" stroke-linejoin="round" />
<path d="M 130.0 180.5 L 130.0 180.5 L 130.0 180.5 L 131.0 180.5 L 136.0 182.0 L 144.5 184.5 L 152.5 188.5 L 158.0 192.5 L 162.0 195.5 L 164.0 196.5 " stroke="black" fill="none" stroke-width="7.0" stroke-linecap="round" stroke-linejoin="round" />
</svg>