<svg xmlns="http://www.w3.org/2000/svg" width="300" height="300" viewBox="0 0 300 300">
<path d="M 134.0 117.5 L 132.0 118.5 L 131.5 118.5 L 135.0 117.0 L 143.0 112.5 L 151.5 106.5 L 158.0 102.5 L 161.5 101.5 L 161.5 101.5 " stroke="black" fill="none" stroke-width="7.0" stroke-linecap="round" stroke-linejoin="round" />
<path d="M 148.5 117.5 L 148.5 118.5 L 148.0 123.5 L 147.0 134.0 L 144.5 150.0 L 141.0 165.5 L 137.5 176.5 L 135.5 183.0 L 135.0 184.0 L 134.5 184.0 " stroke="black" fill="none" stroke-width="7.0" stroke-linecap="round" stroke-linejoin="round" />
<path d="M 134.0 163.0 L 134.0 162.5 L 134.5 161.5 L 137.0 160.0 L 143.0 157.5 L 151.0 152.5 L 157.5 148.5 L 163.0 146.5 L 166.0 146.5 L 166.5 149.0 L 165.5 155.0 L 162.5 163.0 L 158.5 170.5 L 153.5 178.0 L 149.0 185.0 " stroke="black" fill="none" stroke-width="7.0" stroke-linecap="round" stroke-linejoin="round" />
<path d="M 105.0 194.0 L 103.5 194.0 L 102.5 194.0 L 103.5 194.0 L 108.5 194.0 L 119.0 193.5 L 135.5 190.5 L 154.5 187.0 L 171.5 185.0 L 182.0 185.0 L 190.5 186.0 L 194.5 187.5 L 195.5 189.0 " stroke="black" fill="none" stroke-width="7.0" stroke-linecap="round" stroke-linejoin="round" />
</svg>