<svg xmlns="http://www.w3.org/2000/svg" width="300" height="300" viewBox="0 0 300 300">
<path d="M 131.5 119.5 L 131.5 119.5 L 131.5 119.5 L 131.5 119.0 L 131.5 120.0 L 132.5 126.5 L 133.5 142.0 L 132.0 162.5 L 128.5 176.0 L 122.0 193.5 L 119.0 198.0 " stroke="black" fill="none" stroke-width="7.0" stroke-linecap="round" stroke-linejoin="round" />
<path d="M 112.0 131.0 L 111.5 131.5 L 111.0 132.0 L 111.0 132.0 L 113.0 131.0 L 116.0 129.0 L 120.5 126.5 L 126.5 123.0 L 133.0 119.5 L 141.0 116.0 L 148.5 112.0 L 152.5 109.0 L 156.0 107.5 L 159.5 106.5 L 162.0 106.0 L 163.0 106.0 L 164.0 107.5 L 164.0 110.5 L 163.5 115.0 L 162.0 120.5 L 160.0 126.5 L 158.5 132.0 L 155.5 142.0 L 154.0 147.5 L 153.5 150.0 L 154.0 150.5 L 156.0 150.0 L 159.0 148.5 L 163.5 146.5 L 167.5 144.5 L 170.5 143.5 L 174.0 143.0 L 175.0 144.5 L 176.0 150.0 L 176.5 158.5 L 176.5 167.5 L 176.0 178.5 L 175.0 189.5 L 173.0 198.0 L 171.0 206.0 L 168.5 210.5 L 164.5 211.5 L 160.0 210.0 L 156.0 205.0 " stroke="black" fill="none" stroke-width="7.0" stroke-linecap="round" stroke-linejoin="round" />
</svg>