<svg xmlns="http://www.w3.org/2000/svg" width="300" height="300" viewBox="0 0 300 300">
<path d="M 140.5 106.5 L 140.5 106.5 L 140.0 106.5 L 139.0 108.5 L 135.5 118.5 L 129.0 134.5 L 121.0 150.0 L 112.0 161.5 L 106.5 166.5 L 106.0 167.0 " stroke="black" fill="none" stroke-width="7.0" stroke-linecap="round" stroke-linejoin="round" />
<path d="M 119.5 148.5 L 120.0 148.5 L 121.0 149.5 L 122.0 155.5 L 122.0 168.5 L 121.5 182.5 L 121.5 193.0 L 122.5 201.0 L 123.0 204.0 " stroke="black" fill="none" stroke-width="7.0" stroke-linecap="round" stroke-linejoin="round" />
<path d="M 151.5 145.0 L 150.0 146.0 L 149.0 146.5 L 149.0 146.5 L 152.5 146.5 L 158.5 144.5 L 165.5 141.0 L 171.5 139.0 L 173.0 138.5 " stroke="black" fill="none" stroke-width="7.0" stroke-linecap="round" stroke-linejoin="round" />
<path d="M 132.5 181.0 L 130.5 182.0 L 129.0 182.5 L 129.5 182.0 L 134.0 180.0 L 143.0 176.5 L 155.0 171.5 L 170.0 167.0 L 181.0 165.5 L 190.5 165.0 L 194.5 165.0 " stroke="black" fill="none" stroke-width="7.0" stroke-linecap="round" stroke-linejoin="round" />
</svg>