<svg xmlns="http://www.w3.org/2000/svg" width="300" height="300" viewBox="0 0 300 300">
<path d="M 128.5 101.0 L 128.0 101.0 L 127.5 101.0 L 126.5 101.0 L 126.0 101.0 L 125.5 101.0 L 125.5 101.0 L 127.5 101.0 L 134.0 100.0 L 146.0 97.5 L 158.0 95.0 L 167.0 93.5 L 171.5 93.0 L 172.0 92.5 L 172.0 92.5 " stroke="black" fill="none" stroke-width="7.0" stroke-linecap="round" stroke-linejoin="round" />
<path d="M 124.0 122.0 L 124.0 122.0 L 123.5 121.5 L 124.0 121.5 L 125.0 123.0 L 126.5 125.5 L 128.5 128.5 L 131.0 131.0 L 131.5 131.5 " stroke="black" fill="none" stroke-width="7.0" stroke-linecap="round" stroke-linejoin="round" />
<path d="M 130.5 120.0 L 130.5 120.0 L 130.5 120.0 L 131.0 120.0 L 136.5 118.5 L 145.5 115.5 L 155.0 111.5 L 162.5 109.5 L 167.0 109.0 L 168.5 110.5 L 167.0 114.5 L 164.0 119.0 L 159.0 123.0 L 153.5 127.0 " stroke="black" fill="none" stroke-width="7.0" stroke-linecap="round" stroke-linejoin="round" />
<path d="M 147.0 130.5 L 145.0 131.5 L 141.0 133.0 L 139.0 133.5 L 139.0 133.5 L 141.5 132.5 L 146.5 130.5 L 152.0 128.5 L 157.5 127.5 L 159.0 127.5 " stroke="black" fill="none" stroke-width="7.0" stroke-linecap="round" stroke-linejoin="round" />
<path d="M 128.5 147.5 L 128.0 147.5 L 127.0 147.5 L 126.5 147.5 L 126.5 147.5 L 129.0 147.0 L 136.0 146.0 L 146.5 143.5 L 158.0 139.0 L 167.0 136.5 L 170.5 136.0 L 171.0 139.0 L 170.0 143.5 L 168.5 149.5 L 166.5 155.5 L 164.5 160.5 L 164.5 161.5 " stroke="black" fill="none" stroke-width="7.0" stroke-linecap="round" stroke-linejoin="round" />
<path d="M 117.5 160.5 L 114.5 162.0 L 114.0 162.5 L 115.0 163.0 L 120.0 163.0 L 127.0 161.0 L 136.5 158.5 L 149.5 154.5 L 161.0 151.0 L 171.5 149.0 L 176.5 148.5 L 179.5 148.5 L 180.5 148.5 L 179.5 149.0 " stroke="black" fill="none" stroke-width="7.0" stroke-linecap="round" stroke-linejoin="round" />
<path d="M 130.0 170.0 L 128.0 171.0 L 126.0 171.5 L 125.5 172.0 L 127.0 172.0 L 131.5 170.5 L 139.5 168.0 L 150.5 164.5 L 162.5 161.0 L 171.5 159.0 " stroke="black" fill="none" stroke-width="7.0" stroke-linecap="round" stroke-linejoin="round" />
<path d="M 148.5 72.0 L 148.0 71.5 L 147.0 71.0 L 146.5 71.0 L 146.5 75.5 L 147.5 89.0 L 149.5 112.0 L 149.5 135.5 L 149.0 158.0 L 148.0 174.5 L 147.5 185.5 L 147.0 191.0 L 145.5 193.0 L 142.0 192.0 L 137.0 186.0 L 135.5 183.5 " stroke="black" fill="none" stroke-width="7.0" stroke-linecap="round" stroke-linejoin="round" />
</svg>