<svg xmlns="http://www.w3.org/2000/svg" width="300" height="300" viewBox="0 0 300 300">
<path d="M 136.0 106.5 L 136.0 106.0 L 136.5 104.5 L 136.5 103.5 L 136.5 103.5 L 136.5 105.0 L 135.0 111.0 L 131.0 121.5 L 124.5 136.5 L 115.0 150.0 L 108.0 158.5 L 105.5 161.5 " stroke="black" fill="none" stroke-width="7.0" stroke-linecap="round" stroke-linejoin="round" />
<path d="M 120.0 143.5 L 120.0 144.0 L 121.0 145.0 L 122.0 150.5 L 122.0 162.5 L 121.5 177.0 L 121.0 189.0 L 121.0 195.5 L 122.0 198.5 " stroke="black" fill="none" stroke-width="7.0" stroke-linecap="round" stroke-linejoin="round" />
<path d="M 141.5 151.0 L 140.5 151.5 L 138.5 152.0 L 137.5 152.0 L 137.5 152.5 L 138.0 153.0 L 141.0 153.0 L 146.0 152.0 L 152.5 150.5 L 161.0 148.0 L 171.5 144.0 L 179.0 140.5 L 183.0 139.0 L 184.0 138.5 " stroke="black" fill="none" stroke-width="7.0" stroke-linecap="round" stroke-linejoin="round" />
<path d="M 162.0 107.5 L 162.0 106.5 L 161.0 106.0 L 161.0 107.5 L 161.5 117.0 L 162.5 133.5 L 162.5 152.0 L 161.0 167.5 L 160.5 176.0 L 160.5 179.5 " stroke="black" fill="none" stroke-width="7.0" stroke-linecap="round" stroke-linejoin="round" />
<path d="M 141.0 188.0 L 141.0 188.0 L 140.5 188.0 L 140.5 188.0 L 143.5 187.5 L 148.5 186.0 L 157.0 184.0 L 168.0 181.0 L 176.5 179.5 L 182.5 179.0 L 188.0 180.5 L 189.0 181.0 " stroke="black" fill="none" stroke-width="7.0" stroke-linecap="round" stroke-linejoin="round" />
</svg>