<svg xmlns="http://www.w3.org/2000/svg" width="300" height="300" viewBox="0 0 300 300">
<path d="M 118.5 122.0 L 118.0 121.0 L 117.5 120.0 L 117.5 121.5 L 119.0 128.0 L 120.5 140.0 L 121.0 154.0 L 120.5 166.0 L 119.0 172.5 L 117.5 175.0 " stroke="black" fill="none" stroke-width="7.0" stroke-linecap="round" stroke-linejoin="round" />
<path d="M 114.0 179.0 L 111.5 181.0 L 110.0 183.0 L 109.0 184.0 L 109.0 184.0 L 112.0 181.0 L 118.5 174.5 L 126.0 167.0 L 134.5 157.5 L 141.0 150.0 " stroke="black" fill="none" stroke-width="7.0" stroke-linecap="round" stroke-linejoin="round" />
<path d="M 141.5 126.5 L 140.5 127.5 L 141.5 129.5 L 144.5 132.5 L 147.0 135.0 " stroke="black" fill="none" stroke-width="7.0" stroke-linecap="round" stroke-linejoin="round" />
<path d="M 169.0 105.5 L 169.0 105.5 L 168.5 104.5 L 168.5 104.5 L 168.5 106.5 L 168.5 114.0 L 167.5 127.0 L 162.5 145.0 L 154.5 162.0 L 148.0 174.0 L 142.0 181.5 L 136.5 185.0 " stroke="black" fill="none" stroke-width="7.0" stroke-linecap="round" stroke-linejoin="round" />
<path d="M 163.0 152.0 L 163.5 152.5 L 164.0 153.5 L 167.0 157.5 L 172.0 166.0 L 177.5 174.0 L 183.0 180.5 L 185.5 183.0 " stroke="black" fill="none" stroke-width="7.0" stroke-linecap="round" stroke-linejoin="round" />
</svg>