<svg xmlns="http://www.w3.org/2000/svg" width="300" height="300" viewBox="0 0 300 300">
<path d="M 130.5 102.0 L 130.0 103.0 L 129.5 105.0 L 128.5 111.0 L 125.5 122.0 L 118.5 136.0 L 110.0 150.0 L 104.5 160.0 L 101.0 165.5 L 100.0 166.5 " stroke="black" fill="none" stroke-width="7.0" stroke-linecap="round" stroke-linejoin="round" />
<path d="M 112.0 146.5 L 112.0 146.0 L 113.0 146.0 L 114.5 149.5 L 115.5 161.5 L 115.5 177.5 L 115.5 192.0 L 115.0 202.5 L 115.0 204.5 " stroke="black" fill="none" stroke-width="7.0" stroke-linecap="round" stroke-linejoin="round" />
<path d="M 136.0 152.5 L 136.5 152.5 L 136.5 152.5 L 136.5 154.5 L 137.0 160.5 L 137.5 169.5 L 138.0 179.0 L 138.0 185.0 L 138.0 187.0 L 138.0 187.0 L 139.0 187.0 L 140.0 187.0 L 142.5 186.0 L 146.0 184.5 L 151.0 182.0 L 157.5 180.0 L 166.0 178.5 L 173.0 178.5 L 178.5 179.0 L 182.5 180.0 L 183.0 180.0 " stroke="black" fill="none" stroke-width="7.0" stroke-linecap="round" stroke-linejoin="round" />
<path d="M 184.0 144.5 L 183.5 144.5 L 183.0 145.5 L 183.0 151.5 L 183.5 163.5 L 183.5 175.0 L 183.0 182.0 " stroke="black" fill="none" stroke-width="7.0" stroke-linecap="round" stroke-linejoin="round" />
<path d="M 159.5 104.5 L 159.5 103.5 L 159.0 102.0 L 158.5 102.0 L 158.5 105.5 L 159.0 114.0 L 160.0 130.0 L 160.5 150.5 L 160.5 166.5 L 160.5 175.0 L 160.5 176.0 " stroke="black" fill="none" stroke-width="7.0" stroke-linecap="round" stroke-linejoin="round" />
</svg>