<svg xmlns="http://www.w3.org/2000/svg" width="300" height="300" viewBox="0 0 300 300">
<path d="M 142.0 101.0 L 141.5 101.0 L 141.0 100.5 L 142.0 101.0 L 145.0 104.5 L 148.5 108.0 L 152.0 111.5 " stroke="black" fill="none" stroke-width="7.0" stroke-linecap="round" stroke-linejoin="round" />
<path d="M 125.5 135.0 L 125.5 135.0 L 126.0 135.5 L 130.0 134.5 L 139.0 130.0 L 150.0 124.5 L 157.0 120.5 L 161.5 117.5 L 164.0 116.5 L 164.5 116.5 L 163.0 119.0 L 160.0 122.5 L 157.5 127.0 L 155.0 133.0 L 152.0 140.5 L 149.0 148.5 L 145.0 157.5 L 139.0 166.0 L 132.5 172.5 L 127.0 178.5 L 122.5 182.5 L 118.0 184.0 L 115.5 184.0 L 115.0 184.0 L 116.0 184.0 L 119.0 182.5 L 123.0 180.5 L 127.5 178.0 L 132.5 175.5 L 139.5 173.0 L 148.0 171.0 L 156.5 170.5 L 166.5 170.5 L 174.5 171.0 L 181.5 171.5 L 188.5 171.5 L 194.0 169.5 L 196.0 167.5 " stroke="black" fill="none" stroke-width="7.0" stroke-linecap="round" stroke-linejoin="round" />
</svg>