<svg xmlns="http://www.w3.org/2000/svg" width="300" height="300" viewBox="0 0 300 300">
<path d="M 145.5 97.5 L 145.5 97.5 L 144.5 97.0 L 144.0 96.5 L 145.0 96.5 L 147.0 97.0 L 149.0 98.0 L 151.0 99.5 " stroke="black" fill="none" stroke-width="7.0" stroke-linecap="round" stroke-linejoin="round" />
<path d="M 125.0 119.0 L 123.0 120.0 L 120.5 120.5 L 119.5 120.5 L 122.0 120.5 L 127.5 119.5 L 135.5 117.0 L 147.0 113.0 L 159.0 108.5 L 168.5 106.0 L 171.5 106.0 L 171.5 108.0 " stroke="black" fill="none" stroke-width="7.0" stroke-linecap="round" stroke-linejoin="round" />
<path d="M 127.5 139.5 L 127.5 141.5 L 128.5 144.5 L 130.5 148.0 L 133.5 150.5 L 136.0 152.0 L 137.0 152.0 " stroke="black" fill="none" stroke-width="7.0" stroke-linecap="round" stroke-linejoin="round" />
<path d="M 131.0 142.5 L 131.0 142.5 L 130.5 142.0 L 132.0 140.5 L 137.5 138.0 L 147.0 133.5 L 155.0 129.5 L 161.5 127.5 L 165.0 127.5 L 166.0 130.0 L 164.5 134.5 L 160.5 139.0 L 156.0 143.5 L 150.5 148.0 L 144.5 153.0 L 139.5 156.0 L 137.5 157.5 L 138.0 157.5 L 142.5 155.0 L 148.5 151.0 L 155.0 147.5 L 161.5 145.5 L 164.5 145.0 " stroke="black" fill="none" stroke-width="7.0" stroke-linecap="round" stroke-linejoin="round" />
<path d="M 149.0 155.5 L 149.0 157.0 L 149.0 160.5 L 149.5 167.5 L 150.0 178.0 L 150.0 188.5 L 150.0 195.5 L 148.5 199.5 L 146.5 201.0 L 143.5 201.0 L 139.5 197.0 L 135.5 190.0 L 134.5 188.0 " stroke="black" fill="none" stroke-width="7.0" stroke-linecap="round" stroke-linejoin="round" />
<path d="M 132.0 165.0 L 132.0 165.0 L 132.0 165.0 L 132.0 166.0 L 131.5 169.0 L 130.5 174.0 L 128.5 181.5 L 125.0 188.0 L 120.5 192.0 L 118.0 193.5 " stroke="black" fill="none" stroke-width="7.0" stroke-linecap="round" stroke-linejoin="round" />
<path d="M 162.0 161.5 L 161.5 162.0 L 161.5 163.5 L 166.0 170.0 L 171.5 181.5 L 176.0 192.0 L 177.5 198.0 " stroke="black" fill="none" stroke-width="7.0" stroke-linecap="round" stroke-linejoin="round" />
</svg>