<svg xmlns="http://www.w3.org/2000/svg" width="300" height="300" viewBox="0 0 300 300">
<path d="M 147.0 96.0 L 146.0 96.0 L 145.5 96.0 L 146.0 96.5 L 148.5 98.0 L 150.5 98.0 L 152.5 99.0 " stroke="black" fill="none" stroke-width="7.0" stroke-linecap="round" stroke-linejoin="round" />
<path d="M 130.5 121.5 L 130.0 122.0 L 128.5 123.0 L 128.5 123.5 L 131.5 123.5 L 138.5 120.5 L 148.5 114.5 L 157.5 107.5 L 164.5 102.5 L 166.5 101.5 " stroke="black" fill="none" stroke-width="7.0" stroke-linecap="round" stroke-linejoin="round" />
<path d="M 147.5 115.5 L 146.0 119.5 L 144.5 124.5 L 139.5 133.5 L 132.5 143.5 L 127.0 151.5 L 124.0 156.5 L 123.0 157.5 " stroke="black" fill="none" stroke-width="7.0" stroke-linecap="round" stroke-linejoin="round" />
<path d="M 151.5 125.5 L 153.0 125.5 L 157.5 125.5 L 165.0 125.5 L 171.5 125.0 L 175.5 124.0 L 176.0 124.0 " stroke="black" fill="none" stroke-width="7.0" stroke-linecap="round" stroke-linejoin="round" />
<path d="M 160.0 134.5 L 159.5 135.0 L 157.5 138.0 L 155.5 143.0 L 152.5 151.5 L 148.0 163.5 L 140.5 175.0 L 132.0 185.5 L 126.5 191.0 L 123.0 192.5 L 122.5 192.5 " stroke="black" fill="none" stroke-width="7.0" stroke-linecap="round" stroke-linejoin="round" />
<path d="M 134.5 149.0 L 135.5 149.5 L 138.5 151.5 L 145.0 158.5 L 152.5 166.5 L 160.5 174.0 L 170.0 181.5 L 176.0 187.0 L 183.0 190.0 L 189.5 191.5 " stroke="black" fill="none" stroke-width="7.0" stroke-linecap="round" stroke-linejoin="round" />
</svg>