<svg xmlns="http://www.w3.org/2000/svg" width="300" height="300" viewBox="0 0 300 300">
<path d="M 129.5 111.0 L 129.0 111.5 L 125.5 112.5 L 124.0 112.5 L 123.0 113.0 L 123.0 112.5 L 126.0 111.0 L 131.5 108.5 L 141.5 104.5 L 153.5 99.5 L 164.5 95.0 L 170.0 93.0 L 170.5 92.5 " stroke="black" fill="none" stroke-width="7.0" stroke-linecap="round" stroke-linejoin="round" />
<path d="M 148.5 68.0 L 148.5 68.5 L 148.0 70.0 L 148.0 74.0 L 148.0 83.0 L 148.5 95.5 L 149.5 117.5 L 150.0 149.5 L 150.0 172.0 L 150.0 185.5 L 149.5 192.5 L 148.5 195.5 " stroke="black" fill="none" stroke-width="7.0" stroke-linecap="round" stroke-linejoin="round" />
<path d="M 131.5 127.0 L 131.5 126.5 L 131.5 124.5 L 131.5 123.0 L 130.5 124.0 L 129.0 129.5 L 126.5 138.5 L 122.5 147.5 L 118.5 152.0 L 118.0 152.5 " stroke="black" fill="none" stroke-width="7.0" stroke-linecap="round" stroke-linejoin="round" />
<path d="M 126.0 143.0 L 126.5 143.5 L 128.5 144.0 L 132.0 145.0 L 137.5 145.0 L 141.0 145.0 " stroke="black" fill="none" stroke-width="7.0" stroke-linecap="round" stroke-linejoin="round" />
<path d="M 170.0 116.5 L 170.0 116.0 L 170.0 115.0 L 170.0 115.0 L 170.0 115.5 L 170.5 121.0 L 168.0 129.5 L 162.5 140.5 L 155.0 148.0 L 151.0 151.5 L 150.5 151.5 " stroke="black" fill="none" stroke-width="7.0" stroke-linecap="round" stroke-linejoin="round" />
<path d="M 167.5 139.5 L 168.0 140.0 L 169.5 141.5 L 172.0 143.0 L 175.5 145.0 L 180.5 146.0 L 184.5 147.0 " stroke="black" fill="none" stroke-width="7.0" stroke-linecap="round" stroke-linejoin="round" />
<path d="M 153.0 152.0 L 153.0 151.0 L 153.0 150.0 L 153.0 149.5 L 153.0 149.0 L 152.5 149.0 L 150.5 152.0 L 145.5 158.5 L 137.5 165.5 L 123.5 176.5 L 116.0 180.5 L 113.0 181.5 L 112.5 181.5 " stroke="black" fill="none" stroke-width="7.0" stroke-linecap="round" stroke-linejoin="round" />
<path d="M 148.5 155.5 L 149.0 156.5 L 150.0 158.0 L 154.0 162.0 L 162.0 166.0 L 173.0 170.5 L 181.5 174.0 L 190.0 178.0 L 195.0 181.5 L 196.0 182.5 " stroke="black" fill="none" stroke-width="7.0" stroke-linecap="round" stroke-linejoin="round" />
</svg>