<svg xmlns="http://www.w3.org/2000/svg" width="300" height="300" viewBox="0 0 300 300">
<path d="M 122.0 107.0 L 122.5 105.5 L 123.5 104.0 L 124.0 103.5 L 124.5 106.5 L 124.0 113.5 L 120.5 123.0 L 113.5 137.0 L 105.5 149.5 L 99.5 157.5 L 97.0 160.0 " stroke="black" fill="none" stroke-width="7.0" stroke-linecap="round" stroke-linejoin="round" />
<path d="M 112.0 141.0 L 112.0 140.5 L 112.0 140.5 L 113.0 142.0 L 114.0 149.5 L 114.0 164.0 L 113.0 178.5 L 111.5 189.0 L 111.0 194.5 " stroke="black" fill="none" stroke-width="7.0" stroke-linecap="round" stroke-linejoin="round" />
<path d="M 131.0 132.0 L 131.0 131.5 L 131.0 130.5 L 131.0 130.5 L 132.0 134.0 L 133.5 141.5 L 135.0 153.0 L 135.0 164.0 L 133.5 172.0 L 131.5 176.5 L 130.5 179.0 L 129.5 180.0 L 129.5 180.0 L 129.5 179.5 L 132.0 176.5 L 136.5 172.0 L 143.0 165.5 L 149.5 157.5 L 151.5 154.0 " stroke="black" fill="none" stroke-width="7.0" stroke-linecap="round" stroke-linejoin="round" />
<path d="M 151.0 137.5 L 150.5 137.0 L 150.0 137.0 L 151.0 137.0 L 154.0 137.0 L 157.5 137.0 " stroke="black" fill="none" stroke-width="7.0" stroke-linecap="round" stroke-linejoin="round" />
<path d="M 170.5 115.0 L 170.5 114.5 L 170.5 113.5 L 170.5 113.0 L 170.5 114.0 L 171.0 119.0 L 171.0 128.5 L 169.5 143.5 L 164.0 160.5 L 155.5 175.0 L 149.0 185.0 L 145.5 188.5 " stroke="black" fill="none" stroke-width="7.0" stroke-linecap="round" stroke-linejoin="round" />
<path d="M 167.5 159.5 L 167.5 158.5 L 168.0 158.5 L 170.0 161.0 L 174.5 167.0 L 180.0 174.5 L 186.0 181.5 L 191.0 185.5 L 193.5 187.5 " stroke="black" fill="none" stroke-width="7.0" stroke-linecap="round" stroke-linejoin="round" />
</svg>