<svg xmlns="http://www.w3.org/2000/svg" width="300" height="300" viewBox="0 0 300 300">
<path d="M 139.0 101.0 L 139.0 101.0 L 139.5 100.0 L 139.5 99.0 L 139.5 100.0 L 138.5 105.5 L 134.5 115.5 L 128.5 128.5 L 121.5 141.5 L 114.5 148.5 " stroke="black" fill="none" stroke-width="7.0" stroke-linecap="round" stroke-linejoin="round" />
<path d="M 125.0 140.0 L 126.0 140.0 L 126.5 141.0 L 127.5 146.5 L 127.5 160.0 L 127.0 176.5 L 126.0 191.0 L 126.0 199.5 L 126.5 203.5 " stroke="black" fill="none" stroke-width="7.0" stroke-linecap="round" stroke-linejoin="round" />
<path d="M 159.0 111.5 L 159.0 111.5 L 157.0 112.0 L 156.5 112.0 L 157.5 112.0 L 160.5 113.5 L 164.0 115.5 L 166.0 118.5 L 166.5 120.0 " stroke="black" fill="none" stroke-width="7.0" stroke-linecap="round" stroke-linejoin="round" />
<path d="M 147.0 138.0 L 146.0 138.5 L 144.0 140.5 L 144.0 141.0 L 145.5 141.5 L 149.5 140.0 L 156.0 137.0 L 165.5 132.0 L 172.0 127.5 L 174.5 126.0 L 174.5 126.0 " stroke="black" fill="none" stroke-width="7.0" stroke-linecap="round" stroke-linejoin="round" />
<path d="M 152.0 144.0 L 151.5 145.0 L 150.5 149.0 L 150.5 155.5 L 151.5 164.0 L 152.5 171.0 L 154.0 176.5 L 155.5 179.5 L 156.0 180.0 " stroke="black" fill="none" stroke-width="7.0" stroke-linecap="round" stroke-linejoin="round" />
<path d="M 172.5 144.0 L 172.5 144.0 L 172.5 144.0 L 172.5 145.5 L 171.0 153.5 L 168.5 164.5 L 165.0 173.5 L 163.0 177.5 " stroke="black" fill="none" stroke-width="7.0" stroke-linecap="round" stroke-linejoin="round" />
<path d="M 133.0 190.5 L 132.0 190.5 L 131.5 190.5 L 135.0 189.0 L 143.0 186.5 L 154.5 183.0 L 170.0 180.0 L 183.0 178.5 L 194.5 178.5 L 200.0 179.5 L 202.0 180.5 " stroke="black" fill="none" stroke-width="7.0" stroke-linecap="round" stroke-linejoin="round" />
</svg>