<svg xmlns="http://www.w3.org/2000/svg" width="300" height="300" viewBox="0 0 300 300">
<path d="M 137.0 102.5 L 137.5 102.0 L 138.0 100.5 L 138.0 100.0 L 138.0 100.5 L 138.0 104.5 L 135.0 113.0 L 130.0 125.5 L 122.0 140.5 L 112.0 151.5 L 105.5 159.0 L 103.5 161.5 L 103.0 162.0 " stroke="black" fill="none" stroke-width="7.0" stroke-linecap="round" stroke-linejoin="round" />
<path d="M 125.0 140.5 L 125.0 141.5 L 125.0 143.0 L 125.5 149.0 L 126.5 162.0 L 125.0 190.5 L 124.5 198.0 L 124.5 199.5 " stroke="black" fill="none" stroke-width="7.0" stroke-linecap="round" stroke-linejoin="round" />
<path d="M 163.5 108.0 L 162.0 108.0 L 161.5 108.5 L 161.5 109.5 L 164.5 109.5 L 167.5 109.0 L 169.0 108.5 " stroke="black" fill="none" stroke-width="7.0" stroke-linecap="round" stroke-linejoin="round" />
<path d="M 149.0 131.0 L 147.5 132.0 L 146.5 133.0 L 147.0 133.5 L 149.5 133.5 L 155.0 131.5 L 163.5 127.0 L 172.0 122.0 L 177.5 118.5 L 179.5 117.5 L 179.0 118.0 " stroke="black" fill="none" stroke-width="7.0" stroke-linecap="round" stroke-linejoin="round" />
<path d="M 153.5 148.5 L 152.5 149.5 L 153.5 149.5 L 157.5 148.5 L 164.5 144.5 L 171.5 140.0 L 174.5 138.0 " stroke="black" fill="none" stroke-width="7.0" stroke-linecap="round" stroke-linejoin="round" />
<path d="M 155.0 163.0 L 155.0 163.5 L 154.0 165.0 L 156.0 165.0 L 161.0 162.5 L 167.5 158.5 L 173.0 154.5 L 175.0 153.0 " stroke="black" fill="none" stroke-width="7.0" stroke-linecap="round" stroke-linejoin="round" />
<path d="M 149.0 182.0 L 149.0 182.5 L 149.5 185.0 L 151.0 188.0 L 152.5 191.5 L 155.0 194.5 L 156.0 195.5 " stroke="black" fill="none" stroke-width="7.0" stroke-linecap="round" stroke-linejoin="round" />
<path d="M 154.5 185.0 L 154.5 184.0 L 155.5 182.5 L 159.5 180.5 L 167.5 177.0 L 174.5 173.5 L 179.5 172.5 L 181.5 174.0 L 181.5 178.0 L 178.5 183.0 L 174.5 187.5 L 170.5 191.5 L 166.0 195.5 L 163.0 197.5 L 162.5 198.0 L 164.0 196.5 L 168.5 193.5 L 173.5 190.0 L 178.0 187.5 " stroke="black" fill="none" stroke-width="7.0" stroke-linecap="round" stroke-linejoin="round" />
</svg>