<svg xmlns="http://www.w3.org/2000/svg" width="300" height="300" viewBox="0 0 300 300">
<path d="M 138.5 92.0 L 138.5 92.0 L 138.5 91.5 L 138.5 92.5 L 137.0 97.0 L 132.5 107.0 L 125.0 122.5 L 116.0 135.0 L 110.0 142.0 " stroke="black" fill="none" stroke-width="7.0" stroke-linecap="round" stroke-linejoin="round" />
<path d="M 120.5 130.5 L 120.5 130.5 L 120.5 131.5 L 120.5 136.0 L 121.0 148.0 L 120.5 166.5 L 119.0 183.0 L 118.0 193.5 L 118.0 199.5 L 118.0 201.0 " stroke="black" fill="none" stroke-width="7.0" stroke-linecap="round" stroke-linejoin="round" />
<path d="M 142.5 140.5 L 141.0 141.5 L 139.0 143.0 L 139.0 143.5 L 142.5 143.5 L 148.5 140.0 L 155.0 135.0 L 161.5 129.5 L 166.5 124.5 L 167.5 123.5 " stroke="black" fill="none" stroke-width="7.0" stroke-linecap="round" stroke-linejoin="round" />
<path d="M 149.5 101.5 L 149.0 102.5 L 148.5 104.0 L 149.0 109.0 L 150.5 118.5 L 154.0 131.0 L 158.0 146.0 L 163.0 162.5 L 167.5 177.0 L 171.0 188.0 L 174.0 194.5 L 176.0 199.0 L 178.0 199.5 L 179.0 196.5 L 179.5 189.0 L 179.5 178.5 L 179.0 169.5 " stroke="black" fill="none" stroke-width="7.0" stroke-linecap="round" stroke-linejoin="round" />
<path d="M 177.5 136.5 L 177.0 136.5 L 175.0 137.0 L 173.0 140.0 L 170.5 146.5 L 164.5 158.0 L 153.5 173.0 L 144.5 185.5 L 139.0 191.0 " stroke="black" fill="none" stroke-width="7.0" stroke-linecap="round" stroke-linejoin="round" />
<path d="M 168.0 97.5 L 168.0 98.5 L 168.0 101.0 L 171.0 107.0 L 174.5 117.5 L 179.0 125.0 L 180.0 126.5 " stroke="black" fill="none" stroke-width="7.0" stroke-linecap="round" stroke-linejoin="round" />
</svg>