<svg xmlns="http://www.w3.org/2000/svg" width="300" height="300" viewBox="0 0 300 300">
<path d="M 141.0 105.0 L 141.0 104.5 L 141.0 104.0 L 141.0 103.5 L 140.0 108.0 L 137.0 118.0 L 131.0 132.5 L 122.5 148.5 L 112.0 162.0 L 104.5 170.0 L 102.5 172.0 " stroke="black" fill="none" stroke-width="7.0" stroke-linecap="round" stroke-linejoin="round" />
<path d="M 121.5 149.5 L 122.0 149.5 L 123.5 149.5 L 125.0 153.0 L 126.0 164.5 L 126.5 181.0 L 126.5 195.0 L 126.5 205.5 L 126.5 210.0 " stroke="black" fill="none" stroke-width="7.0" stroke-linecap="round" stroke-linejoin="round" />
<path d="M 165.0 117.0 L 165.5 117.0 L 165.5 116.5 L 165.5 116.5 L 164.5 119.0 L 162.0 125.0 L 157.5 133.0 L 153.0 140.5 L 149.5 146.0 L 148.0 149.0 L 147.5 152.0 L 147.5 157.0 L 148.0 163.0 L 149.0 171.5 L 149.5 181.0 L 150.0 189.0 L 150.5 194.0 L 151.0 195.5 L 151.0 194.0 " stroke="black" fill="none" stroke-width="7.0" stroke-linecap="round" stroke-linejoin="round" />
<path d="M 156.0 149.5 L 157.5 148.0 L 161.5 146.0 L 166.5 145.0 L 172.0 143.5 L 175.5 142.5 L 180.5 142.0 L 184.0 145.0 L 185.5 151.0 L 186.0 157.5 L 185.0 170.0 L 183.5 180.5 L 182.5 187.5 L 181.5 192.5 L 180.5 194.5 L 179.0 195.0 L 178.5 195.0 " stroke="black" fill="none" stroke-width="7.0" stroke-linecap="round" stroke-linejoin="round" />
<path d="M 158.0 170.5 L 157.0 170.5 L 155.5 170.5 L 155.0 170.0 L 157.0 169.5 L 162.5 168.5 L 169.0 167.0 L 175.0 165.0 L 178.0 164.0 L 178.0 164.0 " stroke="black" fill="none" stroke-width="7.0" stroke-linecap="round" stroke-linejoin="round" />
<path d="M 158.0 188.5 L 155.5 191.0 L 155.5 192.5 L 158.5 193.0 L 164.0 192.5 L 171.0 190.5 L 176.0 189.0 " stroke="black" fill="none" stroke-width="7.0" stroke-linecap="round" stroke-linejoin="round" />
</svg>