<svg xmlns="http://www.w3.org/2000/svg" width="300" height="300" viewBox="0 0 300 300">
<path d="M 137.5 104.0 L 138.0 104.0 L 138.0 103.5 L 138.5 103.5 L 138.5 106.5 L 137.0 113.5 L 132.5 125.5 L 126.0 140.0 L 119.0 148.5 L 114.5 152.5 " stroke="black" fill="none" stroke-width="7.0" stroke-linecap="round" stroke-linejoin="round" />
<path d="M 128.0 138.0 L 128.0 138.5 L 128.0 140.0 L 128.5 145.5 L 128.5 159.5 L 128.5 176.0 L 127.5 189.5 L 127.5 194.5 " stroke="black" fill="none" stroke-width="7.0" stroke-linecap="round" stroke-linejoin="round" />
<path d="M 151.0 106.0 L 151.0 106.0 L 151.0 106.0 L 151.0 106.5 L 151.0 108.0 L 151.0 112.0 L 150.0 117.0 L 148.5 122.0 L 146.5 125.0 L 145.5 126.0 L 145.0 126.5 L 145.0 125.5 L 147.0 124.5 L 150.5 122.5 L 155.5 119.0 L 163.5 114.0 L 171.0 109.0 L 174.0 107.0 L 174.5 107.0 " stroke="black" fill="none" stroke-width="7.0" stroke-linecap="round" stroke-linejoin="round" />
<path d="M 159.5 123.0 L 159.0 122.0 L 159.0 121.0 L 159.0 120.0 L 159.0 120.0 L 159.0 122.0 L 160.0 130.0 L 161.0 144.5 L 161.0 165.5 L 160.0 182.5 L 159.5 191.0 L 159.5 194.0 L 160.0 194.0 " stroke="black" fill="none" stroke-width="7.0" stroke-linecap="round" stroke-linejoin="round" />
<path d="M 167.5 141.0 L 166.5 141.5 L 165.5 141.5 L 165.5 142.0 L 167.0 142.0 L 170.0 140.5 L 174.0 138.5 L 177.0 136.5 L 178.0 136.5 " stroke="black" fill="none" stroke-width="7.0" stroke-linecap="round" stroke-linejoin="round" />
<path d="M 164.5 158.5 L 164.0 159.5 L 162.0 161.5 L 163.0 161.5 L 166.5 160.5 L 171.5 157.0 L 177.5 153.0 L 182.0 151.0 " stroke="black" fill="none" stroke-width="7.0" stroke-linecap="round" stroke-linejoin="round" />
</svg>