<svg xmlns="http://www.w3.org/2000/svg" width="300" height="300" viewBox="0 0 300 300">
<path d="M 139.5 109.0 L 139.5 108.5 L 140.0 107.0 L 140.0 106.5 L 140.0 107.5 L 139.5 111.5 L 137.0 118.5 L 131.5 129.0 L 123.5 143.0 L 114.0 152.0 L 109.0 157.0 " stroke="black" fill="none" stroke-width="7.0" stroke-linecap="round" stroke-linejoin="round" />
<path d="M 125.5 144.0 L 125.5 145.0 L 125.5 147.5 L 126.5 155.0 L 127.0 167.0 L 127.0 181.5 L 126.0 194.0 L 125.5 202.5 L 125.5 205.0 " stroke="black" fill="none" stroke-width="7.0" stroke-linecap="round" stroke-linejoin="round" />
<path d="M 158.0 121.0 L 156.0 122.0 L 154.0 122.5 L 154.0 123.0 L 157.5 123.0 L 164.5 121.0 L 170.5 118.0 L 175.5 115.5 L 177.5 114.5 " stroke="black" fill="none" stroke-width="7.0" stroke-linecap="round" stroke-linejoin="round" />
<path d="M 144.5 140.0 L 144.0 141.0 L 144.0 142.0 L 145.5 144.5 L 148.5 148.0 L 151.5 152.5 L 154.0 155.5 L 155.5 157.0 L 155.5 157.5 " stroke="black" fill="none" stroke-width="7.0" stroke-linecap="round" stroke-linejoin="round" />
<path d="M 149.5 145.5 L 149.5 145.5 L 149.5 145.5 L 150.0 144.5 L 153.5 142.5 L 161.5 139.0 L 170.5 135.0 L 176.5 131.0 L 181.0 129.5 L 183.0 129.5 L 183.0 132.5 L 180.5 138.0 L 177.0 143.0 L 172.0 148.0 L 167.0 153.0 L 162.0 156.5 L 158.5 158.0 L 158.5 157.5 L 161.5 155.0 L 166.5 151.5 L 171.5 148.0 L 176.5 144.5 L 177.5 144.0 " stroke="black" fill="none" stroke-width="7.0" stroke-linecap="round" stroke-linejoin="round" />
<path d="M 168.0 100.5 L 167.0 101.0 L 166.0 103.0 L 166.5 109.5 L 167.5 123.0 L 167.5 138.5 L 163.5 154.5 L 156.5 169.5 L 150.5 182.0 L 145.5 190.0 L 139.0 193.0 " stroke="black" fill="none" stroke-width="7.0" stroke-linecap="round" stroke-linejoin="round" />
<path d="M 137.0 168.5 L 137.0 169.0 L 138.5 169.5 L 143.5 172.5 L 151.0 177.0 L 161.5 181.5 L 172.0 186.5 L 179.5 191.0 L 188.5 194.5 L 194.5 197.5 L 197.0 199.5 " stroke="black" fill="none" stroke-width="7.0" stroke-linecap="round" stroke-linejoin="round" />
</svg>