<svg xmlns="http://www.w3.org/2000/svg" width="300" height="300" viewBox="0 0 300 300">
<path d="M 138.5 103.5 L 138.5 103.5 L 138.5 103.0 L 139.0 102.5 L 139.0 102.5 L 138.0 105.5 L 135.0 113.0 L 129.0 125.5 L 120.5 140.5 L 111.5 151.0 L 108.0 155.0 " stroke="black" fill="none" stroke-width="7.0" stroke-linecap="round" stroke-linejoin="round" />
<path d="M 121.5 143.5 L 122.0 144.5 L 122.5 148.0 L 122.5 158.5 L 122.0 170.0 L 121.0 181.0 L 121.0 187.5 L 121.0 189.5 " stroke="black" fill="none" stroke-width="7.0" stroke-linecap="round" stroke-linejoin="round" />
<path d="M 145.5 145.5 L 142.5 147.0 L 140.5 148.5 L 140.5 149.0 L 144.0 148.5 L 150.0 145.5 L 157.0 141.5 L 166.5 136.5 L 174.0 131.0 L 175.5 128.5 L 175.5 128.0 " stroke="black" fill="none" stroke-width="7.0" stroke-linecap="round" stroke-linejoin="round" />
<path d="M 155.5 116.5 L 155.5 117.0 L 155.0 118.0 L 155.0 121.5 L 155.0 129.0 L 154.5 141.0 L 151.5 154.0 L 147.0 167.5 L 141.0 177.5 L 136.0 184.5 L 133.5 186.5 " stroke="black" fill="none" stroke-width="7.0" stroke-linecap="round" stroke-linejoin="round" />
<path d="M 154.5 147.5 L 154.5 148.0 L 156.5 150.0 L 160.5 156.5 L 166.5 166.5 L 173.0 177.0 L 178.0 185.5 L 183.5 189.5 L 188.5 192.0 L 191.0 193.0 L 191.0 193.0 " stroke="black" fill="none" stroke-width="7.0" stroke-linecap="round" stroke-linejoin="round" />
<path d="M 174.5 108.5 L 174.5 108.5 L 174.5 108.0 L 175.0 108.0 L 178.0 113.0 L 183.0 120.5 L 187.5 128.5 " stroke="black" fill="none" stroke-width="7.0" stroke-linecap="round" stroke-linejoin="round" />
</svg>