<svg xmlns="http://www.w3.org/2000/svg" width="300" height="300" viewBox="0 0 300 300">
<path d="M 133.5 94.5 L 133.5 94.0 L 134.0 93.5 L 134.0 94.0 L 133.0 98.5 L 130.5 107.0 L 125.5 121.0 L 116.5 136.0 L 108.5 147.0 L 103.5 153.5 L 102.0 156.0 " stroke="black" fill="none" stroke-width="7.0" stroke-linecap="round" stroke-linejoin="round" />
<path d="M 114.5 140.0 L 115.0 140.0 L 116.5 140.0 L 118.5 141.5 L 121.0 149.5 L 122.0 165.0 L 121.5 181.5 L 120.5 194.0 L 120.0 202.0 " stroke="black" fill="none" stroke-width="7.0" stroke-linecap="round" stroke-linejoin="round" />
<path d="M 158.5 93.0 L 158.0 93.0 L 156.5 93.5 L 156.5 93.5 L 158.0 94.0 L 161.5 94.5 L 164.0 95.0 L 164.5 95.5 " stroke="black" fill="none" stroke-width="7.0" stroke-linecap="round" stroke-linejoin="round" />
<path d="M 147.0 113.0 L 145.5 114.0 L 143.0 115.5 L 142.5 116.0 L 143.5 116.0 L 147.5 115.0 L 154.0 111.5 L 163.5 107.0 L 173.5 102.5 L 179.0 100.5 L 179.5 100.5 " stroke="black" fill="none" stroke-width="7.0" stroke-linecap="round" stroke-linejoin="round" />
<path d="M 149.5 120.5 L 149.5 121.0 L 149.5 122.5 L 150.0 125.5 L 152.0 129.5 L 154.5 132.0 " stroke="black" fill="none" stroke-width="7.0" stroke-linecap="round" stroke-linejoin="round" />
<path d="M 171.5 113.0 L 171.5 113.0 L 171.5 113.0 L 171.5 115.5 L 168.5 121.0 L 162.5 129.5 L 161.0 131.5 " stroke="black" fill="none" stroke-width="7.0" stroke-linecap="round" stroke-linejoin="round" />
<path d="M 129.5 141.5 L 129.5 141.5 L 129.5 142.5 L 129.5 143.5 L 131.0 146.0 L 133.5 149.5 L 136.5 152.5 L 138.0 153.5 " stroke="black" fill="none" stroke-width="7.0" stroke-linecap="round" stroke-linejoin="round" />
<path d="M 136.0 144.0 L 136.5 144.0 L 138.0 143.0 L 143.5 142.0 L 151.0 139.5 L 162.0 135.0 L 172.5 131.0 L 180.0 128.0 L 186.5 127.5 L 189.5 128.0 L 190.0 130.5 L 188.0 135.5 L 184.5 140.5 L 181.0 145.0 " stroke="black" fill="none" stroke-width="7.0" stroke-linecap="round" stroke-linejoin="round" />
<path d="M 155.5 147.0 L 155.5 147.0 L 155.0 146.5 L 155.0 146.5 L 155.5 148.0 L 157.0 150.0 L 159.0 152.0 " stroke="black" fill="none" stroke-width="7.0" stroke-linecap="round" stroke-linejoin="round" />
<path d="M 144.5 168.5 L 143.5 169.0 L 139.5 170.5 L 138.5 171.5 L 138.5 171.5 L 140.5 171.5 L 144.5 170.5 L 150.5 167.5 L 157.0 163.5 L 165.5 159.0 L 173.0 154.5 L 175.0 154.0 " stroke="black" fill="none" stroke-width="7.0" stroke-linecap="round" stroke-linejoin="round" />
<path d="M 158.5 178.5 L 158.5 178.5 L 158.5 179.5 L 159.5 179.5 L 163.5 178.0 L 169.0 175.0 L 174.0 172.5 L 177.5 173.0 L 178.0 178.0 L 176.5 186.0 L 173.5 193.5 L 170.5 200.5 L 167.5 205.5 L 164.5 206.0 L 161.5 203.5 L 159.5 201.0 " stroke="black" fill="none" stroke-width="7.0" stroke-linecap="round" stroke-linejoin="round" />
<path d="M 154.5 169.0 L 154.5 169.0 L 155.0 167.5 L 155.5 167.5 L 154.5 173.0 L 151.5 182.0 L 146.5 195.0 L 140.0 206.5 L 138.5 208.5 " stroke="black" fill="none" stroke-width="7.0" stroke-linecap="round" stroke-linejoin="round" />
</svg>