<svg xmlns="http://www.w3.org/2000/svg" width="300" height="300" viewBox="0 0 300 300">
<path d="M 133.0 95.5 L 133.5 95.0 L 133.5 94.0 L 134.0 93.5 L 134.0 94.0 L 134.0 98.0 L 132.0 105.0 L 127.5 116.0 L 121.0 129.0 L 113.5 139.0 L 108.0 144.0 L 107.5 144.5 " stroke="black" fill="none" stroke-width="7.0" stroke-linecap="round" stroke-linejoin="round" />
<path d="M 121.0 131.5 L 121.0 131.0 L 121.5 130.5 L 122.5 130.5 L 123.5 132.5 L 124.5 138.0 L 125.5 148.5 L 125.5 165.5 L 124.0 182.0 L 123.0 193.5 L 123.0 200.0 L 123.5 203.0 " stroke="black" fill="none" stroke-width="7.0" stroke-linecap="round" stroke-linejoin="round" />
<path d="M 153.0 95.5 L 153.0 95.5 L 153.0 96.0 L 153.0 97.0 L 153.0 100.0 L 153.0 104.5 L 151.5 110.5 L 148.5 115.5 L 146.0 118.0 L 144.5 118.5 L 144.5 118.0 L 146.0 116.5 L 148.0 114.5 L 150.5 112.5 L 154.0 110.0 L 158.5 107.5 L 164.5 104.0 L 169.5 100.5 L 172.0 98.5 " stroke="black" fill="none" stroke-width="7.0" stroke-linecap="round" stroke-linejoin="round" />
<path d="M 148.5 126.5 L 148.0 127.5 L 148.0 128.5 L 148.0 130.5 L 148.0 134.0 L 149.5 139.0 L 150.5 144.0 L 152.0 147.0 L 152.5 147.0 L 152.5 147.0 " stroke="black" fill="none" stroke-width="7.0" stroke-linecap="round" stroke-linejoin="round" />
<path d="M 153.5 129.0 L 153.5 128.5 L 154.0 127.0 L 156.0 125.0 L 160.0 123.0 L 166.5 120.0 L 172.0 117.0 L 175.5 115.5 L 177.5 115.0 L 178.5 116.5 L 179.0 119.0 L 179.0 123.0 L 178.5 128.0 L 177.0 133.0 L 175.5 138.5 L 174.0 142.0 L 172.0 143.5 L 171.0 143.5 " stroke="black" fill="none" stroke-width="7.0" stroke-linecap="round" stroke-linejoin="round" />
<path d="M 159.5 138.0 L 159.0 138.0 L 156.5 138.5 L 155.5 138.5 L 156.0 138.5 L 158.0 137.5 L 162.0 136.5 L 166.0 135.0 L 170.0 133.0 L 172.5 132.0 L 173.0 132.0 " stroke="black" fill="none" stroke-width="7.0" stroke-linecap="round" stroke-linejoin="round" />
<path d="M 157.0 146.5 L 155.0 147.5 L 154.5 149.0 L 156.0 149.5 L 159.5 149.5 L 164.5 148.0 L 169.0 146.5 L 171.0 145.0 " stroke="black" fill="none" stroke-width="7.0" stroke-linecap="round" stroke-linejoin="round" />
<path d="M 141.5 167.0 L 141.0 167.5 L 139.5 168.0 L 138.0 168.5 L 137.5 168.5 L 138.5 168.5 L 142.5 168.0 L 148.5 166.0 L 157.0 162.5 L 168.5 158.0 L 176.5 154.5 L 180.0 153.0 L 180.5 152.5 " stroke="black" fill="none" stroke-width="7.0" stroke-linecap="round" stroke-linejoin="round" />
<path d="M 162.0 162.5 L 160.5 163.5 L 157.5 165.5 L 154.5 169.5 L 151.0 175.0 L 147.0 181.5 L 143.0 187.0 L 138.5 190.5 L 135.5 192.5 L 135.0 193.0 " stroke="black" fill="none" stroke-width="7.0" stroke-linecap="round" stroke-linejoin="round" />
<path d="M 148.5 181.0 L 152.0 177.5 L 159.0 174.0 L 167.0 171.0 L 173.0 169.5 L 178.0 168.5 L 183.0 168.0 L 187.5 168.5 L 189.5 171.0 L 190.0 175.0 L 189.5 180.0 L 187.5 186.5 L 184.0 192.0 L 180.0 198.0 L 176.0 203.0 L 173.0 204.5 L 170.5 203.5 L 169.5 202.0 " stroke="black" fill="none" stroke-width="7.0" stroke-linecap="round" stroke-linejoin="round" />
<path d="M 162.0 179.0 L 161.0 179.5 L 160.0 180.5 L 158.5 184.0 L 155.5 189.0 L 152.5 194.0 L 150.5 197.5 L 150.5 198.0 " stroke="black" fill="none" stroke-width="7.0" stroke-linecap="round" stroke-linejoin="round" />
<path d="M 171.0 176.5 L 171.5 176.0 L 172.5 176.0 L 172.5 179.5 L 169.5 187.5 L 165.0 197.0 L 160.0 206.0 L 159.0 207.0 " stroke="black" fill="none" stroke-width="7.0" stroke-linecap="round" stroke-linejoin="round" />
</svg>