<svg xmlns="http://www.w3.org/2000/svg" width="300" height="300" viewBox="0 0 300 300">
<path d="M 137.5 93.0 L 137.5 93.0 L 137.5 93.0 L 137.5 93.5 L 136.5 98.5 L 133.0 108.0 L 127.0 122.0 L 119.5 134.5 L 112.0 144.0 L 108.0 148.0 " stroke="black" fill="none" stroke-width="7.0" stroke-linecap="round" stroke-linejoin="round" />
<path d="M 123.0 132.0 L 123.0 132.0 L 124.0 132.0 L 124.5 133.5 L 125.0 141.0 L 125.0 155.0 L 125.0 171.0 L 124.5 185.5 L 124.5 195.5 L 124.5 200.5 " stroke="black" fill="none" stroke-width="7.0" stroke-linecap="round" stroke-linejoin="round" />
<path d="M 155.0 99.0 L 155.0 99.0 L 154.0 99.5 L 154.0 99.5 L 156.0 99.5 L 161.0 98.0 L 166.5 96.0 L 170.5 94.0 L 171.5 94.0 " stroke="black" fill="none" stroke-width="7.0" stroke-linecap="round" stroke-linejoin="round" />
<path d="M 142.0 116.0 L 142.0 116.0 L 142.0 117.0 L 143.0 121.5 L 145.0 130.0 L 146.0 140.0 L 147.0 145.5 L 147.5 146.5 L 148.0 146.0 " stroke="black" fill="none" stroke-width="7.0" stroke-linecap="round" stroke-linejoin="round" />
<path d="M 148.0 118.5 L 148.5 117.5 L 149.5 116.5 L 151.5 115.5 L 156.5 113.0 L 163.5 111.0 L 170.0 109.0 L 174.5 108.0 L 177.0 109.0 L 179.0 111.5 L 180.5 115.5 L 181.0 121.0 L 181.0 127.5 L 180.5 135.5 L 180.0 142.0 L 179.0 146.5 L 178.0 148.0 L 176.0 148.5 L 174.0 147.0 L 172.0 144.5 " stroke="black" fill="none" stroke-width="7.0" stroke-linecap="round" stroke-linejoin="round" />
<path d="M 155.5 125.5 L 155.0 125.5 L 153.0 125.5 L 152.0 125.5 L 152.0 125.5 L 155.0 125.5 L 160.5 124.0 L 167.5 122.0 L 172.0 120.5 L 173.0 120.5 " stroke="black" fill="none" stroke-width="7.0" stroke-linecap="round" stroke-linejoin="round" />
<path d="M 157.0 134.5 L 155.5 135.5 L 152.5 137.0 L 152.0 138.0 L 154.0 138.0 L 159.0 136.0 L 166.0 133.0 L 172.5 131.0 " stroke="black" fill="none" stroke-width="7.0" stroke-linecap="round" stroke-linejoin="round" />
<path d="M 159.5 84.0 L 158.5 82.5 L 158.0 81.5 L 158.0 83.0 L 159.5 90.5 L 160.5 105.5 L 160.5 126.0 L 160.5 142.5 L 160.5 149.5 L 161.0 152.0 " stroke="black" fill="none" stroke-width="7.0" stroke-linecap="round" stroke-linejoin="round" />
<path d="M 177.0 81.0 L 177.0 81.0 L 177.0 81.0 L 177.5 82.0 L 180.0 87.0 L 183.5 93.5 " stroke="black" fill="none" stroke-width="7.0" stroke-linecap="round" stroke-linejoin="round" />
<path d="M 141.0 170.5 L 139.0 170.5 L 137.5 171.0 L 137.0 171.0 L 138.5 171.0 L 143.0 170.0 L 149.0 169.0 L 156.5 167.5 L 167.0 165.0 L 176.0 163.0 L 181.0 162.5 L 184.0 162.5 " stroke="black" fill="none" stroke-width="7.0" stroke-linecap="round" stroke-linejoin="round" />
<path d="M 172.0 152.5 L 172.0 153.0 L 171.5 154.5 L 171.5 159.5 L 173.0 168.5 L 173.5 180.0 L 173.5 190.5 L 173.5 198.5 L 173.5 204.0 L 172.0 206.0 L 169.5 206.0 L 166.0 203.5 L 161.5 198.5 L 157.5 193.0 " stroke="black" fill="none" stroke-width="7.0" stroke-linecap="round" stroke-linejoin="round" />
<path d="M 148.0 182.0 L 148.0 182.0 L 147.0 182.0 L 147.5 182.0 L 152.0 182.0 L 160.0 181.0 L 164.5 180.0 " stroke="black" fill="none" stroke-width="7.0" stroke-linecap="round" stroke-linejoin="round" />
</svg>