<svg xmlns="http://www.w3.org/2000/svg" width="300" height="300" viewBox="0 0 300 300">
<path d="M 136.5 92.5 L 136.5 91.5 L 136.5 91.5 L 136.5 93.0 L 136.0 99.0 L 133.0 109.5 L 127.5 125.0 L 119.0 140.0 L 111.0 149.5 L 106.5 155.0 L 106.0 156.5 " stroke="black" fill="none" stroke-width="7.0" stroke-linecap="round" stroke-linejoin="round" />
<path d="M 118.5 142.0 L 119.0 141.5 L 119.5 140.0 L 120.5 140.0 L 122.5 143.0 L 124.0 153.0 L 124.5 168.5 L 123.0 184.5 L 122.0 196.0 L 122.0 202.5 L 122.0 203.0 " stroke="black" fill="none" stroke-width="7.0" stroke-linecap="round" stroke-linejoin="round" />
<path d="M 152.5 98.0 L 152.5 98.0 L 151.5 98.0 L 151.5 98.0 L 154.0 98.0 L 159.0 97.5 L 165.0 95.5 L 167.5 94.5 " stroke="black" fill="none" stroke-width="7.0" stroke-linecap="round" stroke-linejoin="round" />
<path d="M 137.5 118.5 L 137.5 118.5 L 137.5 118.5 L 138.0 118.5 L 139.0 119.5 L 141.0 122.5 L 143.5 126.5 L 145.5 130.0 L 147.0 131.5 L 147.0 131.5 " stroke="black" fill="none" stroke-width="7.0" stroke-linecap="round" stroke-linejoin="round" />
<path d="M 145.0 115.5 L 145.0 114.5 L 145.5 113.5 L 148.0 112.5 L 153.0 110.0 L 161.0 106.5 L 170.0 104.0 L 175.0 102.5 L 177.5 102.5 L 178.5 105.0 L 178.5 109.5 L 176.5 115.0 L 174.5 120.5 L 172.0 125.5 L 170.0 128.5 L 168.5 130.0 L 168.0 130.0 " stroke="black" fill="none" stroke-width="7.0" stroke-linecap="round" stroke-linejoin="round" />
<path d="M 151.0 122.5 L 149.5 122.5 L 148.5 122.5 L 148.5 122.5 L 151.0 121.5 L 156.5 119.5 L 163.5 117.5 L 169.5 116.0 " stroke="black" fill="none" stroke-width="7.0" stroke-linecap="round" stroke-linejoin="round" />
<path d="M 150.0 133.0 L 147.5 134.5 L 146.5 135.0 L 147.5 135.0 L 151.5 132.5 L 157.5 130.0 L 165.5 127.0 L 169.0 125.5 " stroke="black" fill="none" stroke-width="7.0" stroke-linecap="round" stroke-linejoin="round" />
<path d="M 156.5 81.5 L 156.5 82.5 L 156.0 85.5 L 156.5 96.5 L 157.0 111.5 L 156.0 126.5 L 154.5 138.5 L 153.5 145.0 " stroke="black" fill="none" stroke-width="7.0" stroke-linecap="round" stroke-linejoin="round" />
<path d="M 138.0 153.5 L 137.5 153.5 L 135.5 153.5 L 133.5 153.5 L 132.5 153.5 L 132.5 153.5 L 134.0 153.5 L 138.0 153.0 L 145.5 151.0 L 154.5 148.0 L 166.0 145.0 L 174.0 143.0 L 176.5 142.0 " stroke="black" fill="none" stroke-width="7.0" stroke-linecap="round" stroke-linejoin="round" />
<path d="M 177.0 137.0 L 177.0 137.0 L 176.5 137.0 L 176.5 138.0 L 178.5 141.5 L 182.5 147.0 L 184.5 150.0 " stroke="black" fill="none" stroke-width="7.0" stroke-linecap="round" stroke-linejoin="round" />
<path d="M 140.5 171.0 L 140.5 171.0 L 139.5 171.5 L 139.0 171.5 L 138.5 171.5 L 139.5 171.5 L 142.5 171.5 L 148.0 170.5 L 157.0 168.0 L 168.0 164.5 L 176.0 162.0 L 180.5 161.5 L 181.5 161.5 " stroke="black" fill="none" stroke-width="7.0" stroke-linecap="round" stroke-linejoin="round" />
<path d="M 170.0 149.5 L 169.5 148.0 L 169.0 147.0 L 169.0 147.5 L 169.0 151.5 L 169.0 160.0 L 169.5 171.0 L 169.5 184.5 L 169.0 194.5 L 168.5 201.0 L 168.0 205.0 L 166.5 205.5 L 163.5 204.5 L 160.0 201.0 L 156.5 197.0 L 155.5 195.5 " stroke="black" fill="none" stroke-width="7.0" stroke-linecap="round" stroke-linejoin="round" />
<path d="M 145.5 185.5 L 145.5 185.5 L 144.5 185.5 L 145.0 185.0 L 148.0 184.5 L 153.5 184.0 L 155.5 183.5 " stroke="black" fill="none" stroke-width="7.0" stroke-linecap="round" stroke-linejoin="round" />
</svg>