<svg xmlns="http://www.w3.org/2000/svg" width="300" height="300" viewBox="0 0 300 300">
<path d="M 138.5 90.0 L 138.5 89.5 L 138.5 89.0 L 138.0 89.5 L 138.0 93.5 L 136.0 100.5 L 131.5 112.5 L 124.0 127.0 L 114.5 138.5 L 108.5 145.0 " stroke="black" fill="none" stroke-width="7.0" stroke-linecap="round" stroke-linejoin="round" />
<path d="M 123.5 130.5 L 123.5 130.5 L 124.5 130.0 L 125.5 130.5 L 126.5 137.5 L 127.0 150.5 L 127.0 167.5 L 126.5 182.5 L 126.0 193.5 L 126.0 202.0 L 126.0 203.5 " stroke="black" fill="none" stroke-width="7.0" stroke-linecap="round" stroke-linejoin="round" />
<path d="M 159.0 95.5 L 158.5 95.5 L 158.5 95.5 L 158.5 95.5 L 160.5 96.5 L 164.0 97.0 L 165.0 97.0 " stroke="black" fill="none" stroke-width="7.0" stroke-linecap="round" stroke-linejoin="round" />
<path d="M 173.0 85.0 L 173.0 85.0 L 173.0 84.5 L 173.0 84.5 L 173.0 85.0 L 172.5 88.5 L 170.5 94.5 L 167.0 102.0 " stroke="black" fill="none" stroke-width="7.0" stroke-linecap="round" stroke-linejoin="round" />
<path d="M 145.0 117.5 L 145.0 117.5 L 144.5 117.5 L 144.0 117.5 L 145.5 117.5 L 149.0 116.5 L 155.0 113.5 L 164.5 109.0 L 173.0 104.5 L 177.0 103.0 L 178.5 103.0 " stroke="black" fill="none" stroke-width="7.0" stroke-linecap="round" stroke-linejoin="round" />
<path d="M 150.5 130.5 L 149.5 130.5 L 148.5 130.5 L 148.5 130.5 L 151.0 130.5 L 156.5 129.0 L 163.5 126.0 L 171.0 123.5 L 174.5 121.5 L 175.0 121.5 " stroke="black" fill="none" stroke-width="7.0" stroke-linecap="round" stroke-linejoin="round" />
<path d="M 165.5 113.5 L 164.5 114.0 L 164.0 116.0 L 164.0 120.5 L 164.5 127.0 L 164.5 134.0 L 164.0 139.0 " stroke="black" fill="none" stroke-width="7.0" stroke-linecap="round" stroke-linejoin="round" />
<path d="M 140.0 148.0 L 138.5 148.0 L 137.5 148.0 L 139.0 148.0 L 143.5 148.0 L 150.0 146.5 L 160.0 143.5 L 172.5 140.0 L 181.5 137.5 L 187.5 136.5 L 189.0 136.5 " stroke="black" fill="none" stroke-width="7.0" stroke-linecap="round" stroke-linejoin="round" />
<path d="M 158.0 151.0 L 158.0 151.0 L 157.5 151.0 L 156.5 151.0 L 154.5 153.5 L 151.5 158.0 L 148.5 163.0 " stroke="black" fill="none" stroke-width="7.0" stroke-linecap="round" stroke-linejoin="round" />
<path d="M 135.0 182.0 L 133.5 182.5 L 133.0 183.0 L 133.5 183.0 L 137.5 182.0 L 144.5 179.5 L 154.0 174.5 L 166.5 169.0 L 176.5 163.5 L 183.0 160.0 L 186.0 158.5 L 186.5 158.5 " stroke="black" fill="none" stroke-width="7.0" stroke-linecap="round" stroke-linejoin="round" />
<path d="M 155.0 157.0 L 155.0 157.0 L 155.0 157.0 L 154.5 157.5 L 154.5 162.0 L 155.5 171.5 L 156.5 185.0 L 156.5 197.0 L 156.5 205.5 L 156.0 210.5 L 155.5 212.5 L 154.5 213.0 L 153.5 213.0 L 151.5 212.0 L 149.0 209.5 L 146.5 207.5 L 144.0 206.5 L 143.0 206.0 L 142.5 206.0 L 144.0 204.5 L 147.5 201.5 L 152.5 195.5 L 159.5 188.5 L 166.5 182.0 " stroke="black" fill="none" stroke-width="7.0" stroke-linecap="round" stroke-linejoin="round" />
<path d="M 170.5 143.5 L 170.5 143.5 L 170.0 145.0 L 171.0 151.0 L 173.5 163.0 L 177.5 179.0 L 181.5 193.5 L 185.0 203.0 L 188.0 208.5 L 190.0 211.0 L 191.0 210.5 L 191.5 206.0 L 192.0 198.5 L 192.0 191.0 " stroke="black" fill="none" stroke-width="7.0" stroke-linecap="round" stroke-linejoin="round" />
<path d="M 190.5 170.5 L 190.0 170.5 L 189.0 170.5 L 188.0 171.0 L 185.0 175.0 L 179.5 184.5 L 172.0 196.5 L 166.5 205.0 " stroke="black" fill="none" stroke-width="7.0" stroke-linecap="round" stroke-linejoin="round" />
<path d="M 186.0 147.0 L 184.5 147.0 L 185.0 147.5 L 187.5 151.5 L 190.5 158.0 L 192.0 161.5 " stroke="black" fill="none" stroke-width="7.0" stroke-linecap="round" stroke-linejoin="round" />
</svg>