<svg xmlns="http://www.w3.org/2000/svg" width="300" height="300" viewBox="0 0 300 300">
<path d="M 130.0 116.5 L 130.0 116.5 L 130.5 116.5 L 130.5 116.5 L 131.0 119.0 L 131.5 124.5 L 131.5 130.5 L 131.0 139.5 L 130.5 142.5 L 130.0 143.0 L 130.5 142.5 L 132.5 141.5 L 136.5 139.0 L 144.0 136.0 L 151.5 133.0 L 158.0 131.0 L 164.0 130.5 L 168.5 130.5 L 170.5 130.5 " stroke="black" fill="none" stroke-width="7.0" stroke-linecap="round" stroke-linejoin="round" />
<path d="M 172.0 111.5 L 172.0 111.5 L 171.5 113.0 L 171.5 116.5 L 172.0 123.5 L 172.0 131.5 L 172.0 137.5 L 172.0 140.5 " stroke="black" fill="none" stroke-width="7.0" stroke-linecap="round" stroke-linejoin="round" />
<path d="M 151.5 84.5 L 151.0 84.0 L 150.5 83.5 L 150.0 87.0 L 150.0 98.0 L 151.0 117.0 L 151.0 138.0 L 150.0 158.0 L 149.0 172.0 L 148.5 179.0 L 148.5 180.0 " stroke="black" fill="none" stroke-width="7.0" stroke-linecap="round" stroke-linejoin="round" />
<path d="M 120.5 167.5 L 120.5 168.0 L 120.5 170.5 L 121.0 175.5 L 121.5 181.5 L 122.0 186.5 L 121.0 189.5 L 120.0 191.5 L 119.5 192.0 L 120.5 192.0 L 123.0 191.0 L 126.5 189.5 L 132.5 187.0 L 139.0 184.5 L 151.5 181.5 L 159.5 180.0 L 167.5 179.5 L 174.0 179.0 L 177.0 178.0 L 180.0 176.0 " stroke="black" fill="none" stroke-width="7.0" stroke-linecap="round" stroke-linejoin="round" />
<path d="M 183.0 161.5 L 183.0 161.5 L 182.0 162.0 L 182.0 163.5 L 182.0 168.0 L 183.0 176.5 L 183.0 186.5 L 183.0 190.5 " stroke="black" fill="none" stroke-width="7.0" stroke-linecap="round" stroke-linejoin="round" />
</svg>