<svg xmlns="http://www.w3.org/2000/svg" width="300" height="300" viewBox="0 0 300 300">
<path d="M 135.0 93.5 L 136.0 93.0 L 136.5 92.0 L 136.5 92.0 L 136.0 95.5 L 133.5 101.5 L 130.0 111.0 L 124.5 123.5 L 116.0 136.0 L 110.5 142.0 L 106.5 147.0 " stroke="black" fill="none" stroke-width="7.0" stroke-linecap="round" stroke-linejoin="round" />
<path d="M 118.0 134.0 L 118.0 134.0 L 119.0 133.0 L 120.5 133.0 L 122.5 138.0 L 124.0 148.0 L 124.5 159.0 L 124.0 177.0 L 123.5 186.0 L 123.0 195.5 L 123.5 197.5 " stroke="black" fill="none" stroke-width="7.0" stroke-linecap="round" stroke-linejoin="round" />
<path d="M 155.0 92.5 L 154.5 92.5 L 153.5 93.0 L 153.0 93.0 L 154.0 92.0 L 158.0 89.5 L 164.0 86.5 L 169.5 83.5 L 170.5 83.5 " stroke="black" fill="none" stroke-width="7.0" stroke-linecap="round" stroke-linejoin="round" />
<path d="M 162.0 91.0 L 161.0 92.0 L 160.5 93.0 L 159.5 95.5 L 159.0 98.5 L 157.5 101.5 L 156.5 103.5 " stroke="black" fill="none" stroke-width="7.0" stroke-linecap="round" stroke-linejoin="round" />
<path d="M 140.0 114.5 L 140.0 114.5 L 140.0 114.5 L 140.0 115.5 L 141.0 119.0 L 143.0 125.0 L 144.5 132.0 L 145.5 136.5 L 146.0 137.0 L 146.0 135.5 L 146.0 134.5 " stroke="black" fill="none" stroke-width="7.0" stroke-linecap="round" stroke-linejoin="round" />
<path d="M 146.0 116.5 L 146.0 116.0 L 147.0 114.0 L 148.0 111.5 L 150.5 110.0 L 155.0 107.5 L 161.5 105.0 L 168.5 102.0 L 174.0 100.5 L 176.5 100.0 L 178.0 101.5 L 178.5 105.5 L 178.0 112.0 L 176.5 119.5 L 175.0 126.5 L 173.5 132.5 L 173.0 135.0 L 172.5 135.5 " stroke="black" fill="none" stroke-width="7.0" stroke-linecap="round" stroke-linejoin="round" />
<path d="M 153.5 120.0 L 153.0 120.0 L 152.5 120.0 L 153.0 120.5 L 156.5 120.0 L 160.5 119.0 L 165.0 117.0 " stroke="black" fill="none" stroke-width="7.0" stroke-linecap="round" stroke-linejoin="round" />
<path d="M 153.0 128.0 L 153.0 128.0 L 152.5 129.0 L 153.0 129.5 L 156.5 129.5 L 160.5 128.0 L 165.0 127.0 " stroke="black" fill="none" stroke-width="7.0" stroke-linecap="round" stroke-linejoin="round" />
<path d="M 132.5 145.5 L 132.5 145.5 L 133.0 145.5 L 133.5 146.5 L 134.5 148.0 L 136.0 150.5 L 137.0 151.5 " stroke="black" fill="none" stroke-width="7.0" stroke-linecap="round" stroke-linejoin="round" />
<path d="M 138.0 145.5 L 138.5 145.5 L 139.0 145.0 L 142.0 144.5 L 147.0 143.5 L 153.0 141.5 L 162.0 139.5 L 171.0 137.0 L 177.0 135.0 L 182.0 133.0 L 186.0 132.5 L 186.5 133.5 L 185.5 136.5 L 182.0 140.5 L 178.0 144.5 L 175.5 146.5 " stroke="black" fill="none" stroke-width="7.0" stroke-linecap="round" stroke-linejoin="round" />
<path d="M 145.5 153.5 L 145.0 153.5 L 144.5 154.5 L 143.5 157.0 L 142.5 162.0 L 140.5 167.0 L 139.0 171.0 L 138.5 172.5 " stroke="black" fill="none" stroke-width="7.0" stroke-linecap="round" stroke-linejoin="round" />
<path d="M 147.5 162.5 L 148.0 163.0 L 149.5 164.5 L 151.5 165.5 L 154.5 166.5 L 159.0 166.5 L 164.0 165.5 L 167.5 164.5 L 169.0 163.5 L 169.0 163.0 L 168.5 163.0 " stroke="black" fill="none" stroke-width="7.0" stroke-linecap="round" stroke-linejoin="round" />
<path d="M 153.5 151.0 L 153.5 151.0 L 153.5 151.5 L 154.5 152.0 L 156.5 153.0 L 160.0 154.0 " stroke="black" fill="none" stroke-width="7.0" stroke-linecap="round" stroke-linejoin="round" />
<path d="M 169.5 150.5 L 170.0 151.0 L 171.0 151.0 L 173.0 151.5 L 175.0 153.5 L 176.5 155.0 " stroke="black" fill="none" stroke-width="7.0" stroke-linecap="round" stroke-linejoin="round" />
<path d="M 156.0 172.0 L 156.0 171.5 L 155.5 171.0 L 155.0 170.5 L 154.0 172.5 L 152.0 177.5 L 149.5 184.5 L 146.0 190.0 L 145.5 191.0 " stroke="black" fill="none" stroke-width="7.0" stroke-linecap="round" stroke-linejoin="round" />
<path d="M 151.0 183.0 L 152.5 181.5 L 155.0 179.5 L 158.5 177.5 L 162.5 176.0 L 165.5 175.0 L 167.0 175.5 L 167.5 177.5 L 166.5 181.0 L 164.0 185.0 L 160.5 189.5 L 156.5 194.5 L 152.0 199.0 L 147.0 203.5 L 143.0 206.0 " stroke="black" fill="none" stroke-width="7.0" stroke-linecap="round" stroke-linejoin="round" />
<path d="M 140.0 184.0 L 140.0 184.0 L 141.5 184.5 L 147.0 186.5 L 155.5 190.0 L 166.5 193.5 L 174.5 197.5 L 180.0 201.0 L 185.0 203.0 L 187.5 204.0 " stroke="black" fill="none" stroke-width="7.0" stroke-linecap="round" stroke-linejoin="round" />
</svg>