<svg xmlns="http://www.w3.org/2000/svg" width="300" height="300" viewBox="0 0 300 300">
<path d="M 134.0 98.0 L 134.0 98.0 L 135.0 97.5 L 135.0 98.0 L 133.5 101.0 L 131.0 105.0 L 127.5 111.0 L 123.0 117.0 L 120.0 120.5 L 118.5 121.0 L 118.5 121.5 L 120.0 122.0 L 121.0 124.0 L 122.5 128.5 L 123.5 136.5 L 124.5 146.0 L 125.0 153.0 L 126.0 156.5 L 126.5 157.5 L 127.0 157.5 " stroke="black" fill="none" stroke-width="7.0" stroke-linecap="round" stroke-linejoin="round" />
<path d="M 126.0 143.0 L 125.0 143.0 L 124.0 143.0 L 124.0 142.5 L 126.0 141.0 L 130.0 138.0 L 136.5 134.0 L 138.5 133.0 " stroke="black" fill="none" stroke-width="7.0" stroke-linecap="round" stroke-linejoin="round" />
<path d="M 159.0 108.5 L 159.5 108.0 L 160.5 107.0 L 162.0 106.5 L 164.5 106.5 L 167.5 106.0 L 170.5 106.5 L 172.0 109.0 L 173.0 114.0 L 173.0 121.5 L 172.5 130.5 L 172.0 140.0 L 171.5 147.5 L 171.0 151.5 L 170.5 152.5 L 170.0 152.5 L 169.5 152.5 " stroke="black" fill="none" stroke-width="7.0" stroke-linecap="round" stroke-linejoin="round" />
<path d="M 152.0 135.0 L 151.5 135.0 L 150.5 135.0 L 150.5 135.0 L 153.5 135.0 L 159.0 133.5 L 164.0 132.5 L 165.0 132.5 " stroke="black" fill="none" stroke-width="7.0" stroke-linecap="round" stroke-linejoin="round" />
<path d="M 132.5 159.5 L 130.5 160.5 L 129.5 161.0 L 130.5 161.0 L 136.0 160.0 L 144.5 157.0 L 153.5 153.0 L 162.0 150.0 L 167.5 149.0 L 168.0 149.0 " stroke="black" fill="none" stroke-width="7.0" stroke-linecap="round" stroke-linejoin="round" />
<path d="M 147.5 160.0 L 147.5 159.0 L 148.0 158.0 L 148.0 157.5 L 147.5 158.5 L 145.0 163.0 L 141.0 171.0 L 133.5 183.5 L 126.5 194.5 L 120.0 202.0 " stroke="black" fill="none" stroke-width="7.0" stroke-linecap="round" stroke-linejoin="round" />
<path d="M 150.5 159.5 L 150.5 159.5 L 151.0 161.5 L 151.5 164.5 L 152.0 170.0 L 152.5 177.0 L 153.5 183.5 L 154.5 188.0 L 156.0 191.5 L 158.0 193.0 L 161.0 194.0 L 165.0 194.0 L 169.0 193.0 L 172.5 191.5 L 176.5 190.5 L 180.0 189.5 L 184.5 189.0 L 189.0 188.5 L 192.5 187.5 L 195.0 186.5 L 197.0 185.5 L 198.5 184.5 L 200.0 182.5 L 201.0 179.0 L 202.0 174.0 L 202.0 166.0 L 202.0 154.5 L 200.0 140.0 " stroke="black" fill="none" stroke-width="7.0" stroke-linecap="round" stroke-linejoin="round" />
</svg>