<svg xmlns="http://www.w3.org/2000/svg" width="300" height="300" viewBox="0 0 300 300">
<path d="M 113.5 124.0 L 113.5 124.0 L 112.5 124.0 L 112.5 124.5 L 115.0 125.5 L 120.0 126.5 L 125.0 127.5 L 126.0 127.5 " stroke="black" fill="none" stroke-width="7.0" stroke-linecap="round" stroke-linejoin="round" />
<path d="M 113.5 179.0 L 109.5 185.0 L 108.5 187.5 L 108.5 188.0 L 111.5 182.5 L 117.5 171.5 L 125.0 157.5 L 131.5 145.5 " stroke="black" fill="none" stroke-width="7.0" stroke-linecap="round" stroke-linejoin="round" />
<path d="M 151.5 106.5 L 150.5 107.5 L 149.5 108.5 L 149.0 108.5 L 151.0 108.0 L 156.5 105.0 L 164.0 100.5 L 171.0 95.5 L 173.0 94.5 " stroke="black" fill="none" stroke-width="7.0" stroke-linecap="round" stroke-linejoin="round" />
<path d="M 152.0 122.0 L 151.5 122.5 L 150.5 123.0 L 151.0 123.5 L 154.5 122.0 L 160.0 119.0 L 166.5 115.0 L 172.5 110.5 " stroke="black" fill="none" stroke-width="7.0" stroke-linecap="round" stroke-linejoin="round" />
<path d="M 163.5 85.5 L 162.5 86.0 L 161.5 89.0 L 161.5 97.5 L 162.0 109.5 L 162.0 122.0 L 162.0 131.0 L 162.0 133.0 " stroke="black" fill="none" stroke-width="7.0" stroke-linecap="round" stroke-linejoin="round" />
<path d="M 139.5 143.5 L 137.5 144.0 L 136.0 145.0 L 136.0 145.0 L 140.0 144.5 L 147.0 142.0 L 155.5 138.0 L 168.0 132.0 L 177.0 127.5 L 182.0 126.0 L 183.0 126.0 " stroke="black" fill="none" stroke-width="7.0" stroke-linecap="round" stroke-linejoin="round" />
<path d="M 144.5 154.5 L 143.5 154.5 L 143.0 154.5 L 143.0 156.0 L 144.0 162.0 L 145.0 172.5 L 145.0 185.0 L 143.0 193.5 L 140.5 196.5 L 140.0 196.5 " stroke="black" fill="none" stroke-width="7.0" stroke-linecap="round" stroke-linejoin="round" />
<path d="M 151.5 154.5 L 152.0 154.0 L 153.5 153.0 L 156.0 152.0 L 161.5 150.0 L 168.0 146.5 L 172.5 143.5 L 174.5 142.5 L 175.5 143.5 L 175.5 146.5 L 175.5 151.0 L 175.5 156.5 L 176.5 165.0 L 177.5 176.0 L 177.5 188.0 L 177.5 197.5 L 177.0 204.5 L 176.0 208.0 L 175.0 208.5 L 173.5 206.5 L 171.5 202.0 L 170.5 200.0 " stroke="black" fill="none" stroke-width="7.0" stroke-linecap="round" stroke-linejoin="round" />
<path d="M 153.0 167.0 L 153.0 167.5 L 151.5 168.0 L 152.0 168.0 L 155.0 167.5 L 160.0 165.0 L 163.5 163.0 " stroke="black" fill="none" stroke-width="7.0" stroke-linecap="round" stroke-linejoin="round" />
<path d="M 154.5 181.0 L 153.5 182.0 L 152.5 182.0 L 154.0 182.0 L 159.0 179.0 L 165.5 176.0 L 169.5 174.0 " stroke="black" fill="none" stroke-width="7.0" stroke-linecap="round" stroke-linejoin="round" />
</svg>