<svg xmlns="http://www.w3.org/2000/svg" width="300" height="300" viewBox="0 0 300 300">
<path d="M 155.0 85.0 L 156.5 83.0 L 157.5 82.0 L 157.5 81.5 L 156.5 83.5 L 154.0 88.5 L 150.0 96.0 L 145.5 102.0 L 135.5 112.5 L 131.5 115.5 " stroke="black" fill="none" stroke-width="7.0" stroke-linecap="round" stroke-linejoin="round" />
<path d="M 142.0 106.0 L 144.5 104.5 L 150.5 100.5 L 153.5 98.5 L 157.5 98.0 L 162.5 96.5 L 167.0 96.0 L 169.5 95.5 L 170.0 96.5 L 170.0 100.0 L 168.0 103.5 L 162.5 113.0 L 157.5 119.5 L 149.0 132.5 L 141.0 143.5 L 130.5 153.0 L 124.5 159.0 L 112.0 164.5 L 106.5 165.0 L 105.5 165.0 " stroke="black" fill="none" stroke-width="7.0" stroke-linecap="round" stroke-linejoin="round" />
<path d="M 135.0 125.5 L 136.0 125.0 L 138.0 124.5 L 142.5 126.0 L 149.0 129.5 L 158.0 135.5 L 170.0 141.5 L 179.5 145.0 L 189.0 146.5 L 195.0 147.5 L 198.0 148.0 " stroke="black" fill="none" stroke-width="7.0" stroke-linecap="round" stroke-linejoin="round" />
<path d="M 149.0 158.5 L 148.5 158.5 L 147.5 159.0 L 147.0 159.5 L 149.0 160.0 L 153.5 160.5 L 159.0 160.5 L 162.5 161.0 " stroke="black" fill="none" stroke-width="7.0" stroke-linecap="round" stroke-linejoin="round" />
<path d="M 144.0 179.5 L 143.0 180.0 L 142.5 180.0 L 143.0 181.0 L 146.5 182.0 L 152.0 183.0 L 159.0 184.0 L 164.5 185.0 " stroke="black" fill="none" stroke-width="7.0" stroke-linecap="round" stroke-linejoin="round" />
</svg>