<svg xmlns="http://www.w3.org/2000/svg" width="300" height="300" viewBox="0 0 300 300">
<path d="M 131.0 111.0 L 129.5 112.0 L 128.0 113.0 L 127.5 113.5 L 128.0 114.0 L 132.5 113.0 L 141.0 110.0 L 150.5 106.0 L 159.0 102.5 L 164.0 100.5 L 165.5 100.0 " stroke="black" fill="none" stroke-width="7.0" stroke-linecap="round" stroke-linejoin="round" />
<path d="M 150.0 86.5 L 150.0 88.5 L 150.0 101.5 L 150.5 113.5 L 150.5 121.0 " stroke="black" fill="none" stroke-width="7.0" stroke-linecap="round" stroke-linejoin="round" />
<path d="M 123.0 141.0 L 123.0 141.0 L 123.0 141.5 L 123.5 142.5 L 126.0 145.0 L 129.0 148.0 L 132.0 150.5 L 134.0 152.0 L 134.5 152.0 " stroke="black" fill="none" stroke-width="7.0" stroke-linecap="round" stroke-linejoin="round" />
<path d="M 137.5 135.0 L 136.0 135.5 L 135.5 135.5 L 136.0 135.5 L 139.5 135.0 L 145.5 132.5 L 152.5 128.5 L 160.5 124.5 L 167.5 122.0 L 170.5 122.0 L 171.0 123.0 L 170.5 126.5 L 168.5 132.0 L 165.5 139.0 L 162.0 145.0 L 161.0 146.5 " stroke="black" fill="none" stroke-width="7.0" stroke-linecap="round" stroke-linejoin="round" />
<path d="M 141.5 151.0 L 140.0 151.5 L 136.5 153.0 L 135.5 154.0 L 136.0 155.0 L 139.5 155.0 L 145.5 153.5 L 151.5 150.5 L 157.5 146.5 L 162.0 144.5 " stroke="black" fill="none" stroke-width="7.0" stroke-linecap="round" stroke-linejoin="round" />
<path d="M 148.5 155.0 L 148.0 155.0 L 147.0 155.5 L 146.5 156.0 L 145.5 158.5 L 143.5 162.5 L 138.5 171.0 L 132.0 181.5 L 127.0 189.0 L 125.0 192.0 L 124.5 192.0 " stroke="black" fill="none" stroke-width="7.0" stroke-linecap="round" stroke-linejoin="round" />
<path d="M 145.0 162.5 L 146.0 160.0 L 148.0 158.5 L 148.5 161.0 L 149.0 166.0 L 149.5 171.5 L 149.5 178.0 L 150.5 183.5 L 152.0 186.5 L 154.5 187.0 L 158.5 186.0 L 163.5 184.5 L 168.5 183.0 L 172.5 182.0 L 176.0 180.5 L 179.5 179.5 L 182.0 178.0 L 184.0 176.0 L 184.5 173.0 L 185.0 168.0 L 184.0 161.0 L 182.5 153.5 " stroke="black" fill="none" stroke-width="7.0" stroke-linecap="round" stroke-linejoin="round" />
</svg>