<svg xmlns="http://www.w3.org/2000/svg" width="300" height="300" viewBox="0 0 300 300">
<path d="M 150.5 93.0 L 150.5 93.0 L 150.0 92.5 L 149.5 93.5 L 149.5 99.5 L 149.5 112.0 L 149.5 122.5 L 149.5 134.0 L 150.0 136.5 " stroke="black" fill="none" stroke-width="7.0" stroke-linecap="round" stroke-linejoin="round" />
<path d="M 131.5 117.5 L 131.0 118.0 L 130.5 118.5 L 131.5 119.0 L 136.0 119.5 L 143.5 119.5 L 145.5 119.5 " stroke="black" fill="none" stroke-width="7.0" stroke-linecap="round" stroke-linejoin="round" />
<path d="M 165.0 108.5 L 165.0 109.0 L 165.5 110.0 L 165.0 111.5 L 162.5 115.0 L 158.0 120.0 L 155.5 123.0 " stroke="black" fill="none" stroke-width="7.0" stroke-linecap="round" stroke-linejoin="round" />
<path d="M 116.5 148.5 L 115.0 149.0 L 113.0 149.0 L 112.5 149.0 L 114.0 149.0 L 119.5 148.0 L 128.5 145.0 L 142.0 140.0 L 157.0 134.0 L 168.0 130.5 L 172.0 129.5 L 173.0 129.5 L 172.0 131.0 " stroke="black" fill="none" stroke-width="7.0" stroke-linecap="round" stroke-linejoin="round" />
<path d="M 152.5 136.5 L 151.5 136.5 L 150.0 136.5 L 149.0 138.0 L 147.0 141.5 L 143.5 149.0 L 138.0 160.0 L 131.0 169.0 L 126.0 176.0 L 121.5 181.5 L 120.0 183.0 " stroke="black" fill="none" stroke-width="7.0" stroke-linecap="round" stroke-linejoin="round" />
<path d="M 148.5 146.5 L 148.5 146.5 L 149.0 145.5 L 150.0 145.5 L 151.0 147.0 L 151.0 152.0 L 151.0 160.0 L 150.0 167.0 L 150.0 172.5 L 150.5 175.0 L 152.5 176.0 L 155.5 176.5 L 159.5 176.5 L 163.5 177.0 L 167.5 177.0 L 171.0 176.5 L 173.5 176.0 L 176.0 175.5 L 179.0 175.0 L 182.0 174.0 L 184.5 173.5 L 188.0 172.0 L 190.5 171.0 L 192.0 168.5 L 193.0 165.5 L 193.5 160.0 L 193.5 151.0 L 193.0 139.0 L 191.5 126.0 L 191.0 122.5 " stroke="black" fill="none" stroke-width="7.0" stroke-linecap="round" stroke-linejoin="round" />
</svg>