<svg xmlns="http://www.w3.org/2000/svg" width="300" height="300" viewBox="0 0 300 300">
<path d="M 114.5 116.5 L 114.5 116.0 L 114.5 115.5 L 114.5 115.5 L 115.0 118.5 L 116.0 127.5 L 117.0 143.5 L 117.0 160.5 L 117.0 167.5 L 118.5 172.0 L 118.5 172.0 " stroke="black" fill="none" stroke-width="7.0" stroke-linecap="round" stroke-linejoin="round" />
<path d="M 123.0 113.0 L 123.0 112.0 L 123.0 110.5 L 123.5 109.5 L 125.5 108.0 L 128.0 106.5 L 134.0 103.5 L 138.0 102.0 L 140.5 101.5 L 141.5 103.5 L 141.5 107.5 L 142.0 115.0 L 142.0 125.5 L 142.5 139.0 L 142.5 150.0 L 143.0 158.5 L 143.5 162.5 L 143.5 162.5 " stroke="black" fill="none" stroke-width="7.0" stroke-linecap="round" stroke-linejoin="round" />
<path d="M 125.5 136.0 L 124.0 136.5 L 123.5 137.0 L 124.0 137.5 L 126.5 137.5 L 130.0 136.0 L 133.5 134.0 L 136.0 132.5 " stroke="black" fill="none" stroke-width="7.0" stroke-linecap="round" stroke-linejoin="round" />
<path d="M 124.0 149.5 L 123.0 151.0 L 123.0 151.5 L 125.0 151.5 L 128.5 150.5 L 132.0 149.0 L 133.0 148.5 " stroke="black" fill="none" stroke-width="7.0" stroke-linecap="round" stroke-linejoin="round" />
<path d="M 121.0 170.5 L 119.0 172.0 L 119.0 172.0 L 122.0 171.0 L 126.5 168.5 L 131.5 165.5 L 136.0 162.5 L 139.0 161.0 L 139.0 162.0 L 136.0 165.5 L 132.0 170.0 L 128.5 175.0 L 125.0 181.5 L 122.0 188.0 L 118.5 192.5 L 117.0 194.0 L 116.5 194.0 " stroke="black" fill="none" stroke-width="7.0" stroke-linecap="round" stroke-linejoin="round" />
<path d="M 130.0 175.5 L 132.5 175.5 L 137.0 178.0 L 141.5 184.0 L 145.0 188.5 L 147.0 190.5 " stroke="black" fill="none" stroke-width="7.0" stroke-linecap="round" stroke-linejoin="round" />
<path d="M 158.5 127.0 L 158.5 127.0 L 158.5 127.0 L 158.5 127.0 L 158.5 131.5 L 159.0 142.0 L 159.0 152.0 L 159.0 157.0 L 160.0 157.0 L 160.5 156.0 " stroke="black" fill="none" stroke-width="7.0" stroke-linecap="round" stroke-linejoin="round" />
<path d="M 172.0 91.5 L 172.0 91.0 L 172.5 90.5 L 173.5 95.0 L 175.0 105.0 L 176.5 122.0 L 177.5 142.5 L 177.5 160.5 L 177.5 174.5 L 177.5 184.5 L 176.0 189.0 L 174.0 189.5 L 170.5 185.5 L 166.0 178.0 " stroke="black" fill="none" stroke-width="7.0" stroke-linecap="round" stroke-linejoin="round" />
</svg>