<svg xmlns="http://www.w3.org/2000/svg" width="300" height="300" viewBox="0 0 300 300">
<path d="M 125.0 149.0 L 124.5 149.5 L 124.0 149.5 L 124.0 149.5 L 126.0 149.0 L 130.5 146.0 L 140.0 141.0 L 152.5 134.0 L 163.5 129.0 L 170.0 128.0 L 172.5 129.5 L 173.0 134.0 L 173.0 142.0 L 172.0 152.0 L 170.0 164.0 L 167.5 173.5 L 164.0 182.0 L 159.0 186.5 L 155.0 186.5 L 151.0 182.5 L 149.5 178.0 " stroke="black" fill="none" stroke-width="7.0" stroke-linecap="round" stroke-linejoin="round" />
<path d="M 149.0 96.0 L 149.0 95.5 L 149.0 95.0 L 149.0 95.0 L 149.0 95.0 L 149.0 97.0 L 148.5 105.0 L 147.0 123.5 L 143.0 148.5 L 135.5 172.5 L 128.5 190.5 L 126.0 197.5 " stroke="black" fill="none" stroke-width="7.0" stroke-linecap="round" stroke-linejoin="round" />
</svg>