<svg xmlns="http://www.w3.org/2000/svg" width="300" height="300" viewBox="0 0 300 300">
<path d="M 128.0 91.5 L 128.0 91.0 L 127.5 90.5 L 127.0 90.0 L 127.0 90.5 L 127.0 94.5 L 125.5 104.0 L 121.0 120.0 L 113.5 135.5 L 107.5 146.5 L 104.0 152.5 L 101.5 154.5 L 101.0 154.5 " stroke="black" fill="none" stroke-width="7.0" stroke-linecap="round" stroke-linejoin="round" />
<path d="M 127.0 107.5 L 127.0 108.0 L 127.5 108.5 L 128.5 110.0 L 132.0 112.0 L 136.0 112.5 L 140.0 113.0 L 141.5 114.0 L 141.5 114.5 " stroke="black" fill="none" stroke-width="7.0" stroke-linecap="round" stroke-linejoin="round" />
<path d="M 124.0 129.0 L 122.0 130.0 L 122.0 130.5 L 123.0 131.0 L 126.0 130.0 L 129.5 128.5 L 133.0 126.5 L 135.5 126.0 L 135.5 126.0 " stroke="black" fill="none" stroke-width="7.0" stroke-linecap="round" stroke-linejoin="round" />
<path d="M 108.5 154.0 L 108.5 154.5 L 108.0 156.0 L 108.5 158.0 L 110.5 160.5 L 114.0 163.0 L 117.5 164.5 L 120.0 165.5 L 121.0 165.5 " stroke="black" fill="none" stroke-width="7.0" stroke-linecap="round" stroke-linejoin="round" />
<path d="M 116.0 156.0 L 116.0 155.0 L 116.5 154.0 L 118.5 152.5 L 121.5 151.5 L 124.5 151.0 L 126.0 151.5 L 126.0 155.0 L 125.0 159.5 L 123.0 163.5 L 121.5 165.5 L 121.0 166.5 L 121.0 166.5 L 123.5 164.0 L 126.5 161.0 " stroke="black" fill="none" stroke-width="7.0" stroke-linecap="round" stroke-linejoin="round" />
<path d="M 133.5 145.5 L 133.5 146.0 L 134.5 147.5 L 136.0 150.0 L 137.5 153.5 L 139.0 156.0 L 139.5 156.5 L 139.5 156.5 " stroke="black" fill="none" stroke-width="7.0" stroke-linecap="round" stroke-linejoin="round" />
<path d="M 137.5 147.0 L 138.0 146.0 L 138.0 144.5 L 139.5 143.5 L 141.5 142.0 L 143.5 142.0 L 146.0 142.0 L 147.0 143.5 L 147.5 146.5 L 147.0 149.5 L 145.0 153.5 L 144.0 156.5 L 143.5 158.0 L 144.0 158.0 L 146.0 157.0 L 148.5 155.5 " stroke="black" fill="none" stroke-width="7.0" stroke-linecap="round" stroke-linejoin="round" />
<path d="M 120.5 170.0 L 120.5 169.5 L 120.5 168.5 L 120.5 168.0 L 120.5 168.5 L 120.5 172.5 L 119.0 179.5 L 115.5 188.0 L 112.5 195.0 L 110.0 198.5 " stroke="black" fill="none" stroke-width="7.0" stroke-linecap="round" stroke-linejoin="round" />
<path d="M 119.5 188.5 L 120.5 189.5 L 124.5 192.0 L 127.5 194.0 L 130.5 196.0 L 131.5 196.5 " stroke="black" fill="none" stroke-width="7.0" stroke-linecap="round" stroke-linejoin="round" />
<path d="M 143.0 164.0 L 143.0 164.0 L 142.5 164.5 L 142.0 167.5 L 141.0 173.0 L 137.5 187.0 L 135.0 193.0 L 132.0 199.0 " stroke="black" fill="none" stroke-width="7.0" stroke-linecap="round" stroke-linejoin="round" />
<path d="M 141.0 182.5 L 141.0 182.5 L 143.0 183.0 L 145.5 184.0 L 148.0 186.0 L 151.0 188.5 L 152.0 190.0 " stroke="black" fill="none" stroke-width="7.0" stroke-linecap="round" stroke-linejoin="round" />
<path d="M 161.5 131.5 L 161.5 131.5 L 160.5 132.5 L 160.5 135.5 L 160.5 144.0 L 160.5 155.5 L 161.5 164.0 L 162.0 166.0 L 163.0 165.5 " stroke="black" fill="none" stroke-width="7.0" stroke-linecap="round" stroke-linejoin="round" />
<path d="M 173.5 86.0 L 173.5 84.0 L 174.0 82.0 L 175.0 82.5 L 176.0 89.0 L 177.0 100.5 L 178.0 119.5 L 179.0 142.0 L 180.0 164.5 L 181.0 182.5 L 181.0 193.5 L 179.0 201.5 L 176.5 204.0 L 173.0 202.0 L 169.5 193.5 L 167.5 188.0 " stroke="black" fill="none" stroke-width="7.0" stroke-linecap="round" stroke-linejoin="round" />
</svg>