<svg xmlns="http://www.w3.org/2000/svg" width="300" height="300" viewBox="0 0 300 300">
<path d="M 126.5 104.0 L 126.0 104.0 L 125.5 104.0 L 125.5 104.5 L 126.5 104.5 L 128.5 105.0 L 131.0 106.0 L 131.5 106.5 " stroke="black" fill="none" stroke-width="7.0" stroke-linecap="round" stroke-linejoin="round" />
<path d="M 120.0 126.0 L 118.5 128.0 L 117.5 129.0 L 119.0 129.5 L 123.0 128.5 L 128.0 125.0 L 133.0 120.5 L 138.0 116.0 L 141.0 114.0 L 142.0 114.0 L 140.5 116.0 L 138.5 119.5 L 136.0 125.0 L 133.5 131.5 L 130.5 141.0 L 126.0 153.5 L 119.0 167.5 L 111.0 179.5 L 105.5 188.0 L 102.0 192.0 L 101.5 193.5 L 101.5 193.5 " stroke="black" fill="none" stroke-width="7.0" stroke-linecap="round" stroke-linejoin="round" />
<path d="M 121.5 159.5 L 122.5 158.0 L 125.5 156.5 L 127.0 160.0 L 128.0 169.0 L 128.0 181.5 L 127.5 192.5 L 127.0 198.5 L 127.0 199.0 " stroke="black" fill="none" stroke-width="7.0" stroke-linecap="round" stroke-linejoin="round" />
<path d="M 147.0 141.5 L 146.5 140.0 L 146.0 139.5 L 145.0 141.5 L 142.5 145.5 L 139.0 150.5 L 134.0 156.0 L 129.5 160.0 L 127.5 161.0 L 127.5 161.0 L 128.5 161.0 L 131.5 161.5 L 135.0 164.0 L 140.0 167.0 L 146.0 171.5 L 150.5 176.0 L 151.0 177.0 " stroke="black" fill="none" stroke-width="7.0" stroke-linecap="round" stroke-linejoin="round" />
<path d="M 159.0 135.0 L 159.0 135.0 L 158.0 135.0 L 158.0 135.0 L 159.0 134.5 L 162.5 132.5 L 167.5 130.0 L 173.5 127.5 L 179.5 125.0 L 184.0 123.5 L 186.5 124.5 L 187.5 129.5 L 188.5 139.0 L 188.5 151.0 L 188.5 164.0 L 187.5 175.5 L 185.0 185.5 L 181.0 191.5 L 176.5 194.5 L 173.0 194.0 L 170.5 188.5 L 170.0 186.5 " stroke="black" fill="none" stroke-width="7.0" stroke-linecap="round" stroke-linejoin="round" />
<path d="M 170.5 136.0 L 170.0 136.0 L 169.5 135.5 L 169.0 139.5 L 167.0 151.5 L 161.5 169.0 L 154.5 185.5 L 150.5 196.5 " stroke="black" fill="none" stroke-width="7.0" stroke-linecap="round" stroke-linejoin="round" />
</svg>