<svg xmlns="http://www.w3.org/2000/svg" width="300" height="300" viewBox="0 0 300 300">
<path d="M 136.0 109.5 L 136.0 108.5 L 136.0 108.0 L 134.5 110.0 L 132.5 115.5 L 127.5 126.0 L 120.5 138.0 L 112.5 146.5 L 111.5 146.5 " stroke="black" fill="none" stroke-width="7.0" stroke-linecap="round" stroke-linejoin="round" />
<path d="M 153.0 101.0 L 153.0 101.0 L 153.0 101.0 L 153.0 101.5 L 156.0 105.0 L 163.0 112.0 L 170.5 120.0 L 176.0 125.0 L 181.0 128.0 L 185.5 130.5 L 188.5 133.5 L 189.0 134.5 " stroke="black" fill="none" stroke-width="7.0" stroke-linecap="round" stroke-linejoin="round" />
<path d="M 129.5 151.5 L 129.0 151.5 L 128.5 152.0 L 128.5 152.0 L 129.5 151.0 L 134.0 149.5 L 142.0 147.0 L 151.0 143.5 L 159.0 141.0 L 164.0 140.5 L 166.0 140.5 L 167.0 143.0 L 167.5 148.5 L 167.5 157.0 L 167.5 166.5 L 167.0 176.5 L 165.5 185.0 L 163.0 191.5 L 158.5 196.0 L 154.5 196.5 L 150.5 193.5 L 146.5 187.5 " stroke="black" fill="none" stroke-width="7.0" stroke-linecap="round" stroke-linejoin="round" />
<path d="M 143.0 150.5 L 143.0 150.0 L 143.0 148.5 L 143.0 148.0 L 143.0 149.0 L 142.5 155.0 L 139.0 166.5 L 132.5 183.0 L 126.5 195.5 L 124.0 200.0 " stroke="black" fill="none" stroke-width="7.0" stroke-linecap="round" stroke-linejoin="round" />
</svg>