<svg xmlns="http://www.w3.org/2000/svg" width="300" height="300" viewBox="0 0 300 300">
<path d="M 133.0 95.0 L 133.0 94.5 L 133.0 94.5 L 132.0 96.5 L 128.5 101.0 L 122.0 108.5 " stroke="black" fill="none" stroke-width="7.0" stroke-linecap="round" stroke-linejoin="round" />
<path d="M 105.0 130.5 L 105.0 130.5 L 104.0 130.5 L 103.5 131.0 L 103.5 131.0 L 106.0 129.5 L 112.0 126.5 L 122.0 121.5 L 133.0 114.5 L 140.5 108.5 L 144.5 106.0 L 145.0 106.0 " stroke="black" fill="none" stroke-width="7.0" stroke-linecap="round" stroke-linejoin="round" />
<path d="M 108.5 144.0 L 108.5 144.5 L 108.5 145.0 L 110.0 148.0 L 113.0 152.0 L 116.5 156.0 L 120.0 158.0 L 121.5 158.0 " stroke="black" fill="none" stroke-width="7.0" stroke-linecap="round" stroke-linejoin="round" />
<path d="M 115.0 141.0 L 115.5 140.0 L 116.5 138.0 L 119.0 136.0 L 124.0 133.0 L 130.0 129.5 L 136.0 126.0 L 140.5 124.5 L 143.5 124.0 L 144.5 126.0 L 144.5 131.0 L 143.0 138.0 L 141.5 144.5 L 140.0 149.0 L 139.0 151.5 " stroke="black" fill="none" stroke-width="7.0" stroke-linecap="round" stroke-linejoin="round" />
<path d="M 122.0 146.0 L 120.5 146.0 L 120.0 146.0 L 121.0 145.5 L 124.0 145.0 L 128.0 143.0 L 132.0 141.0 L 135.5 140.0 " stroke="black" fill="none" stroke-width="7.0" stroke-linecap="round" stroke-linejoin="round" />
<path d="M 121.0 159.0 L 120.0 160.0 L 119.0 161.0 L 120.5 161.0 L 124.5 160.0 L 129.0 157.0 L 134.0 154.0 L 136.5 152.5 " stroke="black" fill="none" stroke-width="7.0" stroke-linecap="round" stroke-linejoin="round" />
<path d="M 113.5 178.0 L 111.5 179.5 L 111.0 180.0 L 112.0 180.0 L 116.5 179.0 L 123.0 175.5 L 130.0 171.0 L 138.0 166.5 L 144.5 163.5 L 146.0 163.0 " stroke="black" fill="none" stroke-width="7.0" stroke-linecap="round" stroke-linejoin="round" />
<path d="M 128.0 117.5 L 128.0 117.5 L 127.0 117.5 L 126.5 118.5 L 126.5 127.0 L 127.5 142.0 L 128.0 158.0 L 128.0 172.0 L 127.0 181.5 L 126.5 185.5 " stroke="black" fill="none" stroke-width="7.0" stroke-linecap="round" stroke-linejoin="round" />
<path d="M 115.5 198.0 L 114.5 198.5 L 112.5 199.0 L 112.0 199.0 L 112.0 198.5 L 115.0 196.0 L 121.0 193.0 L 128.0 188.0 L 136.5 183.0 L 146.0 178.5 L 147.5 177.0 " stroke="black" fill="none" stroke-width="7.0" stroke-linecap="round" stroke-linejoin="round" />
<path d="M 159.0 142.0 L 158.5 142.5 L 156.5 143.0 L 156.5 143.5 L 159.5 142.0 L 165.5 138.5 L 171.0 135.0 L 176.5 132.0 L 180.5 130.5 L 182.0 132.0 L 182.5 136.5 L 182.5 144.0 L 182.0 153.5 L 180.5 164.5 L 178.0 174.5 L 175.0 181.5 L 173.0 184.5 L 171.0 183.5 L 170.5 180.0 " stroke="black" fill="none" stroke-width="7.0" stroke-linecap="round" stroke-linejoin="round" />
<path d="M 171.5 92.5 L 171.5 92.5 L 171.0 93.0 L 170.5 98.5 L 169.5 114.5 L 166.5 137.0 L 159.5 159.5 L 153.5 178.0 L 150.0 190.0 " stroke="black" fill="none" stroke-width="7.0" stroke-linecap="round" stroke-linejoin="round" />
<path d="M 128.0 107.5 L 128.0 107.5 L 128.0 106.5 L 127.5 106.5 L 127.5 109.0 L 127.5 114.5 L 127.5 116.0 " stroke="black" fill="none" stroke-width="7.0" stroke-linecap="round" stroke-linejoin="round" />
</svg>