<svg xmlns="http://www.w3.org/2000/svg" width="300" height="300" viewBox="0 0 300 300">
<path d="M 118.0 106.5 L 118.0 105.5 L 118.0 104.0 L 118.0 102.0 L 118.5 101.5 L 119.0 101.5 L 119.5 104.5 L 119.5 111.0 L 117.5 119.5 L 114.0 128.5 L 110.5 135.0 L 108.5 138.5 " stroke="black" fill="none" stroke-width="7.0" stroke-linecap="round" stroke-linejoin="round" />
<path d="M 116.5 123.0 L 116.5 123.0 L 116.5 122.5 L 116.5 122.5 L 117.5 122.5 L 120.0 121.5 L 126.0 119.0 L 133.0 114.5 L 139.5 111.0 L 142.5 109.5 L 142.5 110.5 " stroke="black" fill="none" stroke-width="7.0" stroke-linecap="round" stroke-linejoin="round" />
<path d="M 121.0 137.0 L 119.5 138.5 L 119.0 138.5 L 120.0 138.5 L 124.0 136.0 L 129.0 133.0 L 134.5 129.5 L 139.0 127.5 L 139.5 128.0 L 139.5 128.5 " stroke="black" fill="none" stroke-width="7.0" stroke-linecap="round" stroke-linejoin="round" />
<path d="M 108.0 154.5 L 108.0 156.5 L 108.0 159.0 L 110.0 163.0 L 113.0 167.5 L 115.5 170.0 L 118.0 171.0 " stroke="black" fill="none" stroke-width="7.0" stroke-linecap="round" stroke-linejoin="round" />
<path d="M 115.0 159.5 L 115.0 159.0 L 116.5 157.0 L 121.0 154.5 L 128.0 151.0 L 136.5 147.0 L 146.5 144.5 L 151.5 144.5 L 154.0 147.5 L 154.0 152.5 L 152.5 159.0 L 149.0 165.5 L 145.0 170.0 L 141.0 171.5 " stroke="black" fill="none" stroke-width="7.0" stroke-linecap="round" stroke-linejoin="round" />
<path d="M 130.0 94.0 L 130.0 92.0 L 130.0 89.5 L 130.5 93.0 L 131.0 105.0 L 132.0 125.0 L 132.5 152.5 L 131.5 172.5 L 131.0 186.0 L 130.5 193.0 L 130.5 194.0 " stroke="black" fill="none" stroke-width="7.0" stroke-linecap="round" stroke-linejoin="round" />
<path d="M 162.5 121.0 L 162.5 120.5 L 163.5 122.0 L 164.0 130.0 L 164.0 141.0 L 164.5 147.5 L 164.5 149.0 " stroke="black" fill="none" stroke-width="7.0" stroke-linecap="round" stroke-linejoin="round" />
<path d="M 176.5 85.0 L 176.5 84.0 L 176.5 83.0 L 176.5 83.5 L 177.0 89.5 L 178.0 101.5 L 179.5 122.0 L 180.0 145.0 L 180.0 163.0 L 179.0 176.0 L 178.0 185.5 L 176.5 189.5 L 174.5 190.0 L 171.5 188.0 L 170.0 185.5 " stroke="black" fill="none" stroke-width="7.0" stroke-linecap="round" stroke-linejoin="round" />
</svg>