<svg xmlns="http://www.w3.org/2000/svg" width="300" height="300" viewBox="0 0 300 300">
<path d="M 120.5 109.0 L 120.0 109.0 L 118.0 109.0 L 118.5 108.5 L 123.5 106.0 L 128.5 102.5 L 136.0 98.0 L 144.0 94.5 L 144.5 94.5 " stroke="black" fill="none" stroke-width="7.0" stroke-linecap="round" stroke-linejoin="round" />
<path d="M 133.5 104.0 L 132.5 106.0 L 132.0 109.0 L 130.0 116.0 L 127.5 123.5 L 120.5 138.0 L 116.0 143.5 L 111.0 149.0 L 110.0 149.0 L 111.0 147.5 L 115.0 143.0 L 120.5 138.5 L 124.5 135.0 L 131.0 129.0 L 135.0 126.5 L 139.0 125.5 L 145.0 128.5 L 145.5 135.0 L 143.5 144.5 L 140.5 152.5 L 135.0 164.0 L 128.0 177.5 L 123.0 186.5 L 119.0 190.0 L 117.0 191.0 L 116.5 191.0 " stroke="black" fill="none" stroke-width="7.0" stroke-linecap="round" stroke-linejoin="round" />
<path d="M 128.5 145.0 L 128.5 145.0 L 128.5 145.0 L 129.5 145.5 L 131.5 146.5 L 136.5 149.0 L 138.0 149.5 " stroke="black" fill="none" stroke-width="7.0" stroke-linecap="round" stroke-linejoin="round" />
<path d="M 165.5 115.0 L 165.0 114.5 L 164.0 115.5 L 164.0 120.0 L 164.5 136.0 L 165.0 146.5 L 165.5 149.5 L 166.5 150.5 " stroke="black" fill="none" stroke-width="7.0" stroke-linecap="round" stroke-linejoin="round" />
<path d="M 177.5 84.5 L 177.5 82.0 L 177.5 79.5 L 177.5 79.0 L 179.0 82.5 L 180.5 92.5 L 182.0 102.5 L 184.5 122.5 L 187.0 150.5 L 187.5 163.0 L 188.5 175.0 L 188.0 185.0 L 185.0 187.5 L 179.5 187.0 L 174.0 181.0 L 172.5 178.5 " stroke="black" fill="none" stroke-width="7.0" stroke-linecap="round" stroke-linejoin="round" />
</svg>