<svg xmlns="http://www.w3.org/2000/svg" width="300" height="300" viewBox="0 0 300 300">
<path d="M 122.0 155.5 L 119.0 157.0 L 117.5 158.0 L 117.5 158.0 L 121.0 155.5 L 126.5 150.5 L 132.5 145.0 L 139.0 139.0 L 140.0 137.5 " stroke="black" fill="none" stroke-width="7.0" stroke-linecap="round" stroke-linejoin="round" />
<path d="M 129.0 112.5 L 129.0 113.0 L 128.5 115.0 L 128.5 120.5 L 129.0 133.5 L 129.0 152.0 L 128.5 169.0 L 126.5 180.5 L 124.5 187.5 L 123.5 189.5 L 123.5 190.0 L 125.5 188.0 L 129.0 183.0 L 134.0 175.5 L 140.5 167.5 L 147.0 161.5 L 150.0 158.5 " stroke="black" fill="none" stroke-width="7.0" stroke-linecap="round" stroke-linejoin="round" />
<path d="M 158.0 124.5 L 156.0 125.5 L 155.5 126.0 L 154.0 127.0 L 155.5 127.0 L 159.5 126.5 L 165.5 124.0 L 171.5 121.5 L 176.0 119.5 L 179.0 118.5 L 180.0 119.0 L 180.5 122.5 L 181.0 130.0 L 181.5 140.5 L 182.5 153.0 L 182.5 166.0 L 181.5 176.0 L 179.0 185.0 L 175.0 190.0 L 171.5 190.5 L 167.5 186.0 L 162.5 177.0 " stroke="black" fill="none" stroke-width="7.0" stroke-linecap="round" stroke-linejoin="round" />
<path d="M 167.5 127.0 L 167.0 127.5 L 166.0 129.0 L 164.5 136.5 L 160.5 151.5 L 154.0 169.5 L 147.5 187.5 L 141.0 200.5 L 140.0 203.0 " stroke="black" fill="none" stroke-width="7.0" stroke-linecap="round" stroke-linejoin="round" />
</svg>