<svg xmlns="http://www.w3.org/2000/svg" width="300" height="300" viewBox="0 0 300 300">
<path d="M 109.0 113.0 L 109.0 113.0 L 109.0 113.0 L 109.5 114.0 L 112.5 118.5 L 116.5 124.5 L 120.0 128.5 L 121.5 129.5 L 121.5 129.5 " stroke="black" fill="none" stroke-width="7.0" stroke-linecap="round" stroke-linejoin="round" />
<path d="M 113.5 113.5 L 113.0 113.0 L 112.5 111.5 L 114.0 110.0 L 119.5 107.5 L 127.0 104.0 L 134.0 101.0 L 140.0 100.0 L 142.5 100.0 L 142.5 102.5 L 140.0 107.0 L 136.5 113.5 L 132.0 120.0 L 127.5 125.5 L 123.0 129.5 L 121.0 131.0 L 121.0 131.0 L 124.5 129.5 L 129.0 126.0 L 134.0 123.0 L 136.5 122.5 " stroke="black" fill="none" stroke-width="7.0" stroke-linecap="round" stroke-linejoin="round" />
<path d="M 127.0 151.0 L 126.5 151.5 L 125.5 152.0 L 125.5 152.0 L 127.0 150.5 L 131.0 148.0 L 137.0 145.5 L 143.0 144.0 L 146.5 145.0 L 147.0 150.0 L 146.5 158.0 L 144.5 168.0 L 142.5 177.0 L 140.0 184.5 L 137.0 189.0 L 133.5 189.5 L 130.5 186.5 L 128.0 180.0 " stroke="black" fill="none" stroke-width="7.0" stroke-linecap="round" stroke-linejoin="round" />
<path d="M 128.0 129.0 L 128.0 129.0 L 128.0 129.0 L 128.0 130.0 L 127.5 137.5 L 125.5 153.0 L 120.5 170.0 L 113.5 184.0 L 109.0 191.5 " stroke="black" fill="none" stroke-width="7.0" stroke-linecap="round" stroke-linejoin="round" />
<path d="M 161.0 119.5 L 161.0 119.5 L 161.0 119.5 L 160.5 121.5 L 160.5 129.5 L 160.5 142.0 L 161.0 151.0 L 162.0 153.5 L 163.0 153.5 " stroke="black" fill="none" stroke-width="7.0" stroke-linecap="round" stroke-linejoin="round" />
<path d="M 175.0 82.0 L 175.0 81.0 L 175.0 80.0 L 175.5 81.5 L 176.5 89.0 L 177.5 102.5 L 178.5 124.5 L 178.5 146.5 L 178.5 166.5 L 178.5 181.5 L 178.0 190.0 L 176.5 194.0 L 174.0 194.5 L 170.0 191.0 L 166.5 185.5 " stroke="black" fill="none" stroke-width="7.0" stroke-linecap="round" stroke-linejoin="round" />
</svg>