<svg xmlns="http://www.w3.org/2000/svg" width="300" height="300" viewBox="0 0 300 300">
<path d="M 134.5 107.0 L 133.0 107.0 L 131.5 107.5 L 130.5 107.5 L 131.5 107.5 L 137.5 107.5 L 147.0 105.5 L 158.0 101.5 L 167.5 98.0 L 171.0 97.0 L 171.5 97.0 " stroke="black" fill="none" stroke-width="7.0" stroke-linecap="round" stroke-linejoin="round" />
<path d="M 127.0 135.5 L 127.0 136.0 L 127.0 137.5 L 127.5 140.5 L 129.0 145.5 L 131.0 149.0 L 132.5 151.5 L 133.0 151.5 " stroke="black" fill="none" stroke-width="7.0" stroke-linecap="round" stroke-linejoin="round" />
<path d="M 130.5 139.5 L 131.0 138.0 L 132.0 136.5 L 135.0 135.0 L 140.5 133.5 L 145.0 133.5 L 147.0 136.0 L 146.0 140.5 L 142.0 146.0 L 137.0 151.0 L 133.0 154.0 L 132.0 154.5 L 133.0 154.0 L 136.5 151.5 L 141.5 149.0 L 146.0 146.5 " stroke="black" fill="none" stroke-width="7.0" stroke-linecap="round" stroke-linejoin="round" />
<path d="M 163.0 110.0 L 163.0 110.5 L 163.0 112.0 L 164.0 117.5 L 165.5 129.5 L 166.0 145.0 L 165.5 161.0 L 163.5 172.5 L 162.0 180.0 L 159.5 184.0 L 156.5 184.5 L 152.5 182.0 L 148.5 176.5 L 146.0 171.5 " stroke="black" fill="none" stroke-width="7.0" stroke-linecap="round" stroke-linejoin="round" />
</svg>