<svg xmlns="http://www.w3.org/2000/svg" width="300" height="300" viewBox="0 0 300 300">
<path d="M 119.5 111.0 L 118.0 112.0 L 116.5 112.0 L 116.5 112.5 L 119.0 112.5 L 124.0 110.0 L 130.5 106.5 L 138.0 102.0 L 145.5 98.0 L 149.0 95.5 L 149.0 95.5 " stroke="black" fill="none" stroke-width="7.0" stroke-linecap="round" stroke-linejoin="round" />
<path d="M 123.0 119.0 L 122.5 121.5 L 122.0 126.5 L 122.0 137.0 L 122.0 148.0 L 122.5 156.5 L 123.0 160.5 L 123.0 162.0 " stroke="black" fill="none" stroke-width="7.0" stroke-linecap="round" stroke-linejoin="round" />
<path d="M 140.5 107.0 L 141.0 105.5 L 141.5 104.5 L 142.5 107.0 L 143.5 116.5 L 144.5 131.0 L 145.0 151.5 L 145.0 172.0 L 145.0 185.0 L 144.5 193.5 L 144.0 199.0 L 144.0 200.5 " stroke="black" fill="none" stroke-width="7.0" stroke-linecap="round" stroke-linejoin="round" />
<path d="M 128.5 134.0 L 127.5 134.5 L 127.0 134.5 L 127.5 134.5 L 130.0 133.5 L 134.0 131.0 L 139.0 128.5 L 140.5 127.5 " stroke="black" fill="none" stroke-width="7.0" stroke-linecap="round" stroke-linejoin="round" />
<path d="M 127.5 147.5 L 126.5 149.0 L 126.5 149.5 L 129.0 149.0 L 133.0 147.0 L 138.0 144.5 L 142.0 142.5 " stroke="black" fill="none" stroke-width="7.0" stroke-linecap="round" stroke-linejoin="round" />
<path d="M 115.0 174.0 L 114.0 174.5 L 113.0 175.0 L 114.0 175.0 L 118.5 173.5 L 125.5 169.5 L 134.0 164.0 L 144.0 158.5 L 146.0 157.5 " stroke="black" fill="none" stroke-width="7.0" stroke-linecap="round" stroke-linejoin="round" />
<path d="M 160.5 128.5 L 159.5 128.5 L 159.0 128.5 L 160.0 128.5 L 164.0 127.5 L 169.0 125.0 L 173.5 122.0 L 176.5 120.5 L 177.5 120.0 L 177.5 122.5 L 176.0 126.5 L 174.5 132.5 L 172.0 141.0 L 169.0 150.5 L 164.0 161.5 L 157.5 169.5 L 153.5 174.0 L 152.0 175.5 " stroke="black" fill="none" stroke-width="7.0" stroke-linecap="round" stroke-linejoin="round" />
<path d="M 153.0 132.5 L 153.0 134.0 L 155.5 137.5 L 161.5 145.0 L 170.0 155.0 L 176.0 164.5 L 182.0 171.0 L 188.5 176.0 L 192.5 179.5 " stroke="black" fill="none" stroke-width="7.0" stroke-linecap="round" stroke-linejoin="round" />
</svg>