<svg xmlns="http://www.w3.org/2000/svg" width="300" height="300" viewBox="0 0 300 300">
<path d="M 146.5 86.5 L 146.5 85.5 L 147.0 84.5 L 147.0 84.5 L 145.0 87.0 L 141.0 93.0 L 135.5 99.0 L 129.5 104.5 L 126.0 107.0 L 124.5 108.5 L 124.0 109.0 L 124.0 109.5 L 125.0 111.5 L 126.0 116.0 L 127.0 122.5 L 128.5 129.5 L 129.5 136.0 L 131.0 140.0 L 132.0 140.5 L 132.5 138.5 " stroke="black" fill="none" stroke-width="7.0" stroke-linecap="round" stroke-linejoin="round" />
<path d="M 130.5 110.5 L 131.0 110.0 L 132.0 109.0 L 136.5 108.0 L 146.0 105.5 L 156.0 101.5 L 165.0 98.5 L 170.5 98.0 L 172.0 99.5 L 172.5 104.0 L 171.0 112.0 L 169.5 120.5 L 167.0 128.5 L 164.0 134.5 L 162.0 137.5 L 160.5 137.5 " stroke="black" fill="none" stroke-width="7.0" stroke-linecap="round" stroke-linejoin="round" />
<path d="M 139.0 125.0 L 138.5 125.0 L 137.0 125.0 L 137.0 125.0 L 138.0 125.0 L 143.5 124.5 L 150.0 122.5 L 157.0 120.0 L 162.5 118.0 L 163.0 118.0 " stroke="black" fill="none" stroke-width="7.0" stroke-linecap="round" stroke-linejoin="round" />
<path d="M 139.5 139.0 L 137.0 140.0 L 135.5 141.0 L 136.5 141.5 L 142.0 141.0 L 149.0 138.5 L 156.5 134.5 L 160.5 132.5 " stroke="black" fill="none" stroke-width="7.0" stroke-linecap="round" stroke-linejoin="round" />
<path d="M 149.0 105.0 L 149.0 105.0 L 148.0 104.5 L 147.5 105.5 L 147.5 112.5 L 147.5 125.0 L 146.5 138.5 L 143.0 151.0 L 138.0 161.5 " stroke="black" fill="none" stroke-width="7.0" stroke-linecap="round" stroke-linejoin="round" />
<path d="M 107.0 171.0 L 106.5 171.5 L 105.5 171.5 L 105.0 172.0 L 105.0 172.5 L 107.0 173.0 L 113.5 172.5 L 125.0 170.0 L 140.0 166.0 L 155.0 161.5 L 166.5 158.0 L 173.0 157.0 L 175.5 157.0 L 176.0 158.0 " stroke="black" fill="none" stroke-width="7.0" stroke-linecap="round" stroke-linejoin="round" />
<path d="M 157.0 145.0 L 157.0 145.0 L 156.5 144.5 L 157.0 148.5 L 157.5 161.0 L 157.0 178.0 L 155.5 194.5 L 155.0 200.5 " stroke="black" fill="none" stroke-width="7.0" stroke-linecap="round" stroke-linejoin="round" />
</svg>