<svg xmlns="http://www.w3.org/2000/svg" width="300" height="300" viewBox="0 0 300 300">
<path d="M 133.5 126.0 L 131.0 127.0 L 129.5 127.5 L 129.0 127.5 L 131.5 126.5 L 138.0 123.5 L 146.5 120.0 L 155.0 115.0 L 161.5 111.0 L 162.5 110.0 " stroke="black" fill="none" stroke-width="7.0" stroke-linecap="round" stroke-linejoin="round" />
<path d="M 149.0 90.5 L 149.0 90.0 L 148.5 90.5 L 149.0 96.0 L 149.5 107.0 L 149.5 122.0 L 148.5 136.0 L 146.5 145.0 " stroke="black" fill="none" stroke-width="7.0" stroke-linecap="round" stroke-linejoin="round" />
<path d="M 121.5 155.0 L 120.0 156.0 L 118.0 156.5 L 117.5 157.0 L 119.5 157.0 L 124.5 156.0 L 132.5 152.5 L 144.5 147.0 L 157.0 140.0 L 166.5 135.5 L 170.0 135.0 " stroke="black" fill="none" stroke-width="7.0" stroke-linecap="round" stroke-linejoin="round" />
<path d="M 148.5 146.5 L 147.5 146.5 L 146.5 148.0 L 145.5 151.5 L 144.5 158.0 L 142.0 165.0 L 138.0 172.5 L 134.0 179.5 L 130.5 184.5 L 128.0 188.0 L 126.5 189.0 L 126.5 189.0 L 127.0 189.0 L 129.5 187.0 L 133.5 184.5 L 139.5 181.5 L 148.0 177.0 L 155.5 173.5 L 163.0 170.5 L 166.0 169.0 " stroke="black" fill="none" stroke-width="7.0" stroke-linecap="round" stroke-linejoin="round" />
<path d="M 170.0 157.0 L 170.0 157.0 L 170.5 156.5 L 171.0 157.0 L 173.0 163.0 L 175.5 175.0 L 176.5 187.5 L 178.0 195.0 " stroke="black" fill="none" stroke-width="7.0" stroke-linecap="round" stroke-linejoin="round" />
</svg>