<svg xmlns="http://www.w3.org/2000/svg" width="300" height="300" viewBox="0 0 300 300">
<path d="M 131.5 129.5 L 129.5 130.0 L 128.5 130.0 L 128.5 130.0 L 131.5 129.5 L 138.5 127.0 L 148.0 122.0 L 154.5 117.5 L 163.0 110.5 " stroke="black" fill="none" stroke-width="7.0" stroke-linecap="round" stroke-linejoin="round" />
<path d="M 148.5 90.0 L 148.0 90.5 L 147.5 92.0 L 146.5 97.0 L 144.5 107.5 L 140.0 124.5 L 133.0 143.0 L 128.5 155.0 L 119.5 171.5 L 113.0 179.0 L 110.5 181.5 L 110.0 182.0 " stroke="black" fill="none" stroke-width="7.0" stroke-linecap="round" stroke-linejoin="round" />
<path d="M 131.5 152.5 L 133.0 151.5 L 136.0 150.5 L 141.0 148.5 L 147.5 146.5 L 152.5 143.5 L 158.0 141.0 L 162.5 140.0 L 164.0 140.0 L 164.0 142.5 L 161.5 148.0 L 158.5 155.0 L 154.0 165.0 L 149.5 176.0 L 143.5 186.5 L 136.0 194.0 L 129.5 198.0 L 126.5 200.0 L 125.0 200.0 " stroke="black" fill="none" stroke-width="7.0" stroke-linecap="round" stroke-linejoin="round" />
<path d="M 129.0 150.5 L 129.5 151.5 L 130.0 153.5 L 134.0 158.0 L 143.5 166.0 L 153.0 174.0 L 163.5 182.5 L 173.0 189.5 L 180.0 194.5 L 187.0 198.5 L 192.0 201.5 " stroke="black" fill="none" stroke-width="7.0" stroke-linecap="round" stroke-linejoin="round" />
</svg>