<svg xmlns="http://www.w3.org/2000/svg" width="300" height="300" viewBox="0 0 300 300">
<path d="M 161.5 89.5 L 162.0 89.0 L 163.0 87.5 L 164.0 86.5 L 164.5 86.0 L 163.5 87.0 L 160.0 90.5 L 153.0 96.0 L 141.5 104.0 L 129.5 111.0 " stroke="black" fill="none" stroke-width="7.0" stroke-linecap="round" stroke-linejoin="round" />
<path d="M 105.0 152.0 L 104.5 152.0 L 103.5 152.0 L 103.0 152.0 L 102.5 152.0 L 102.5 152.0 L 102.5 151.5 L 104.5 151.5 L 108.0 151.0 L 115.0 150.5 L 126.5 149.0 L 141.0 147.0 L 155.5 146.0 L 170.0 144.5 L 180.5 142.5 L 189.5 141.0 L 193.0 140.0 L 193.5 140.0 " stroke="black" fill="none" stroke-width="7.0" stroke-linecap="round" stroke-linejoin="round" />
<path d="M 151.0 104.5 L 151.0 104.5 L 150.5 104.5 L 150.0 104.5 L 149.5 108.5 L 150.0 122.5 L 151.0 146.5 L 151.0 171.5 L 150.0 192.0 L 149.0 206.0 L 149.0 209.5 " stroke="black" fill="none" stroke-width="7.0" stroke-linecap="round" stroke-linejoin="round" />
</svg>