<svg xmlns="http://www.w3.org/2000/svg" width="300" height="300" viewBox="0 0 300 300">
<path d="M 129.5 113.5 L 129.5 113.0 L 129.5 111.0 L 129.5 110.0 L 129.5 111.0 L 130.5 118.0 L 131.0 132.5 L 129.0 154.5 L 124.5 174.0 L 119.0 188.0 L 115.0 194.0 L 114.0 194.5 " stroke="black" fill="none" stroke-width="7.0" stroke-linecap="round" stroke-linejoin="round" />
<path d="M 108.0 124.5 L 108.0 125.0 L 107.0 125.0 L 106.5 125.0 L 107.0 125.0 L 110.0 123.5 L 116.0 120.0 L 125.5 114.0 L 135.0 106.5 L 144.0 102.0 L 150.5 99.5 L 154.5 98.5 L 157.0 98.0 L 159.0 100.0 L 159.5 103.0 L 158.5 108.5 L 156.0 116.0 L 152.5 124.0 L 150.5 129.5 " stroke="black" fill="none" stroke-width="7.0" stroke-linecap="round" stroke-linejoin="round" />
<path d="M 133.5 148.5 L 132.5 149.0 L 131.0 149.5 L 131.5 149.5 L 134.0 149.0 L 140.0 146.5 L 147.0 143.0 L 153.5 139.0 L 159.5 136.0 L 162.5 135.0 L 163.5 135.5 L 162.5 139.5 L 159.5 145.0 L 155.5 153.0 L 151.0 164.0 L 145.0 175.5 L 138.0 185.5 L 131.5 191.0 L 128.5 192.0 L 127.5 192.5 " stroke="black" fill="none" stroke-width="7.0" stroke-linecap="round" stroke-linejoin="round" />
<path d="M 132.0 149.5 L 132.0 149.5 L 131.5 149.5 L 131.0 151.0 L 135.0 156.0 L 145.0 166.0 L 156.0 179.0 L 167.5 188.5 L 175.0 194.0 L 180.5 199.0 L 185.0 202.5 L 185.5 203.5 " stroke="black" fill="none" stroke-width="7.0" stroke-linecap="round" stroke-linejoin="round" />
</svg>