<svg xmlns="http://www.w3.org/2000/svg" width="300" height="300" viewBox="0 0 300 300">
<path d="M 130.0 104.0 L 130.0 104.5 L 130.0 105.0 L 130.5 107.5 L 132.0 122.0 L 133.0 135.0 L 133.0 142.5 L 133.5 144.0 L 134.0 143.0 " stroke="black" fill="none" stroke-width="7.0" stroke-linecap="round" stroke-linejoin="round" />
<path d="M 137.0 125.5 L 137.0 125.5 L 137.5 125.0 L 140.0 124.0 L 143.5 123.0 L 148.0 121.5 " stroke="black" fill="none" stroke-width="7.0" stroke-linecap="round" stroke-linejoin="round" />
<path d="M 109.5 151.5 L 109.0 151.5 L 107.0 152.5 L 106.5 152.5 L 108.0 152.5 L 113.5 152.5 L 122.5 150.5 L 133.5 146.5 L 145.0 142.5 L 152.0 139.5 L 154.0 139.0 L 154.0 139.0 " stroke="black" fill="none" stroke-width="7.0" stroke-linecap="round" stroke-linejoin="round" />
<path d="M 135.0 147.5 L 134.0 148.0 L 133.5 150.5 L 133.5 156.5 L 135.0 166.5 L 136.0 177.0 L 136.5 188.0 L 136.5 195.0 L 135.5 199.5 L 134.0 201.5 L 132.0 201.5 L 129.5 198.0 L 126.5 192.0 L 123.5 185.0 " stroke="black" fill="none" stroke-width="7.0" stroke-linecap="round" stroke-linejoin="round" />
<path d="M 123.0 158.5 L 123.0 157.5 L 122.5 157.0 L 122.0 158.0 L 121.5 163.0 L 120.0 171.5 L 116.5 182.5 L 113.5 189.5 L 112.0 190.5 " stroke="black" fill="none" stroke-width="7.0" stroke-linecap="round" stroke-linejoin="round" />
<path d="M 143.0 161.5 L 146.0 165.5 L 149.5 171.5 L 152.0 180.0 L 154.5 188.5 L 156.0 191.5 " stroke="black" fill="none" stroke-width="7.0" stroke-linecap="round" stroke-linejoin="round" />
<path d="M 170.0 135.0 L 169.0 136.0 L 169.0 136.0 L 169.0 136.0 L 172.5 134.0 L 176.0 131.0 L 180.5 128.5 L 183.5 127.5 L 184.5 127.5 L 184.0 130.5 L 181.5 137.5 L 177.5 147.0 L 173.5 160.0 L 169.5 173.5 L 166.5 182.5 L 161.5 190.0 L 157.5 192.5 L 157.0 192.5 " stroke="black" fill="none" stroke-width="7.0" stroke-linecap="round" stroke-linejoin="round" />
<path d="M 162.5 138.5 L 162.5 139.0 L 162.5 140.5 L 165.5 146.5 L 171.5 159.0 L 178.0 171.5 L 184.5 183.0 L 190.0 191.0 L 194.0 195.5 L 195.0 197.0 " stroke="black" fill="none" stroke-width="7.0" stroke-linecap="round" stroke-linejoin="round" />
</svg>