<svg xmlns="http://www.w3.org/2000/svg" width="300" height="300" viewBox="0 0 300 300">
<path d="M 138.0 105.5 L 138.5 104.5 L 138.5 103.5 L 139.0 103.0 L 138.5 105.0 L 136.0 111.5 L 131.5 122.0 L 124.5 137.0 L 116.0 150.0 L 111.0 156.0 " stroke="black" fill="none" stroke-width="7.0" stroke-linecap="round" stroke-linejoin="round" />
<path d="M 125.5 140.0 L 125.5 140.5 L 126.0 143.0 L 126.5 151.0 L 126.5 165.0 L 126.0 180.0 L 125.5 192.0 L 125.5 198.0 L 125.5 199.0 " stroke="black" fill="none" stroke-width="7.0" stroke-linecap="round" stroke-linejoin="round" />
<path d="M 155.5 142.5 L 152.5 144.0 L 152.0 144.5 L 153.5 144.5 L 158.5 141.5 L 165.5 136.5 L 172.0 131.5 L 174.5 129.0 " stroke="black" fill="none" stroke-width="7.0" stroke-linecap="round" stroke-linejoin="round" />
<path d="M 152.5 118.5 L 151.5 121.5 L 151.0 127.0 L 151.0 137.5 L 151.0 150.0 L 150.0 163.0 L 150.0 173.0 L 150.0 181.5 L 150.5 187.0 L 151.5 190.5 L 154.5 193.0 L 159.0 193.5 L 165.0 193.0 L 171.5 191.5 L 176.0 190.5 L 181.0 189.5 L 186.0 188.5 L 189.5 187.5 L 192.5 186.5 L 193.5 185.0 L 194.5 182.5 L 195.0 178.5 L 195.0 171.0 L 194.5 160.5 L 193.5 150.0 " stroke="black" fill="none" stroke-width="7.0" stroke-linecap="round" stroke-linejoin="round" />
</svg>