<svg xmlns="http://www.w3.org/2000/svg" width="300" height="300" viewBox="0 0 300 300">
<path d="M 133.0 113.5 L 131.5 114.0 L 130.5 114.0 L 130.0 114.0 L 131.5 113.5 L 139.5 112.5 L 148.5 110.5 L 158.5 107.0 L 166.0 104.0 L 169.5 102.5 L 169.5 102.0 " stroke="black" fill="none" stroke-width="7.0" stroke-linecap="round" stroke-linejoin="round" />
<path d="M 123.0 116.5 L 123.0 116.5 L 121.5 117.0 L 121.0 119.0 L 121.0 123.5 L 122.5 143.5 L 123.0 165.0 L 123.0 182.5 L 122.5 193.5 L 122.5 199.5 L 122.5 199.5 " stroke="black" fill="none" stroke-width="7.0" stroke-linecap="round" stroke-linejoin="round" />
<path d="M 146.5 122.5 L 146.5 122.0 L 145.5 120.5 L 145.5 120.0 L 146.0 121.0 L 148.0 127.5 L 149.5 140.5 L 150.0 160.0 L 148.5 177.5 L 145.5 188.5 L 142.5 195.0 L 140.5 196.5 " stroke="black" fill="none" stroke-width="7.0" stroke-linecap="round" stroke-linejoin="round" />
<path d="M 135.0 143.5 L 134.0 144.0 L 132.0 144.5 L 131.5 145.0 L 132.5 145.0 L 136.5 144.5 L 141.5 142.5 L 146.0 140.0 L 147.0 140.0 " stroke="black" fill="none" stroke-width="7.0" stroke-linecap="round" stroke-linejoin="round" />
<path d="M 131.0 161.0 L 130.5 162.5 L 130.5 163.0 L 133.0 163.0 L 137.0 161.0 L 142.0 158.5 " stroke="black" fill="none" stroke-width="7.0" stroke-linecap="round" stroke-linejoin="round" />
<path d="M 133.0 175.5 L 130.0 178.5 L 129.5 179.0 L 130.5 178.5 L 135.0 175.0 L 142.0 170.0 L 147.5 166.5 " stroke="black" fill="none" stroke-width="7.0" stroke-linecap="round" stroke-linejoin="round" />
<path d="M 164.5 118.0 L 164.5 117.0 L 164.5 116.5 L 165.0 119.5 L 166.0 131.0 L 166.0 151.0 L 165.0 171.5 L 163.5 186.5 L 163.5 194.5 L 164.5 196.5 " stroke="black" fill="none" stroke-width="7.0" stroke-linecap="round" stroke-linejoin="round" />
<path d="M 170.0 142.0 L 170.0 142.0 L 169.5 141.5 L 169.5 141.5 L 170.5 141.0 L 173.0 140.5 L 176.0 139.5 L 178.0 139.0 " stroke="black" fill="none" stroke-width="7.0" stroke-linecap="round" stroke-linejoin="round" />
<path d="M 168.5 155.0 L 167.5 156.0 L 167.0 157.5 L 167.5 157.5 L 170.5 156.5 L 174.5 154.5 L 178.5 152.0 " stroke="black" fill="none" stroke-width="7.0" stroke-linecap="round" stroke-linejoin="round" />
<path d="M 171.0 169.0 L 170.5 169.5 L 169.5 170.5 L 170.0 171.0 L 172.0 171.0 L 176.0 169.5 L 181.5 168.0 " stroke="black" fill="none" stroke-width="7.0" stroke-linecap="round" stroke-linejoin="round" />
<path d="M 124.5 203.5 L 123.5 204.5 L 122.5 205.0 L 123.0 206.0 L 126.0 206.5 L 132.5 206.5 L 144.0 205.0 L 156.5 202.0 L 169.0 199.0 L 177.0 199.0 L 181.5 200.5 L 183.0 201.0 " stroke="black" fill="none" stroke-width="7.0" stroke-linecap="round" stroke-linejoin="round" />
</svg>