<svg xmlns="http://www.w3.org/2000/svg" width="300" height="300" viewBox="0 0 300 300">
<path d="M 161.0 87.5 L 161.5 87.0 L 162.0 86.0 L 162.0 86.0 L 160.5 87.5 L 155.0 92.5 L 147.5 99.5 L 136.5 107.5 L 133.5 109.5 " stroke="black" fill="none" stroke-width="7.0" stroke-linecap="round" stroke-linejoin="round" />
<path d="M 126.0 122.0 L 125.5 122.0 L 125.0 122.0 L 125.0 122.0 L 126.5 122.5 L 129.5 123.5 L 133.5 125.0 L 135.0 125.0 " stroke="black" fill="none" stroke-width="7.0" stroke-linecap="round" stroke-linejoin="round" />
<path d="M 147.0 114.0 L 147.0 114.0 L 147.0 114.0 L 147.0 113.5 L 149.0 114.0 L 151.5 114.0 " stroke="black" fill="none" stroke-width="7.0" stroke-linecap="round" stroke-linejoin="round" />
<path d="M 169.5 102.5 L 169.5 102.5 L 169.5 103.5 L 168.5 106.5 L 165.5 113.5 L 164.5 115.5 " stroke="black" fill="none" stroke-width="7.0" stroke-linecap="round" stroke-linejoin="round" />
<path d="M 112.5 143.0 L 112.5 142.5 L 111.5 142.0 L 112.0 141.5 L 114.0 142.5 L 117.0 146.0 L 119.5 149.5 L 121.0 152.0 L 122.0 152.0 " stroke="black" fill="none" stroke-width="7.0" stroke-linecap="round" stroke-linejoin="round" />
<path d="M 120.0 141.0 L 120.0 141.0 L 119.0 141.0 L 119.5 141.0 L 123.0 140.0 L 129.5 138.5 L 141.0 135.0 L 153.5 130.0 L 165.5 126.5 L 174.0 124.5 L 180.0 123.5 L 185.0 123.5 L 186.5 125.0 L 185.0 128.5 L 181.5 134.0 L 176.5 140.5 " stroke="black" fill="none" stroke-width="7.0" stroke-linecap="round" stroke-linejoin="round" />
<path d="M 142.5 159.0 L 140.5 160.0 L 140.0 160.0 L 142.5 160.0 L 147.0 158.0 L 152.5 155.5 L 158.0 153.0 L 162.0 151.5 L 163.5 151.5 L 163.0 153.5 L 161.0 157.0 L 158.0 162.0 L 154.5 168.0 L 150.5 176.0 L 145.0 186.0 L 136.5 194.5 L 129.5 201.0 L 125.5 203.0 L 125.0 203.0 " stroke="black" fill="none" stroke-width="7.0" stroke-linecap="round" stroke-linejoin="round" />
<path d="M 134.0 164.0 L 134.0 164.0 L 134.5 164.0 L 136.0 164.0 L 140.5 168.0 L 149.0 176.0 L 158.5 184.5 L 168.5 191.0 L 175.5 196.0 L 181.5 201.0 L 188.0 205.0 L 191.0 206.0 " stroke="black" fill="none" stroke-width="7.0" stroke-linecap="round" stroke-linejoin="round" />
</svg>