<svg xmlns="http://www.w3.org/2000/svg" width="300" height="300" viewBox="0 0 300 300">
<path d="M 122.0 116.0 L 121.5 115.5 L 120.5 112.0 L 120.5 110.0 L 121.0 111.0 L 122.0 118.0 L 123.5 131.0 L 124.0 150.0 L 123.0 166.5 L 121.5 183.0 L 121.5 186.0 L 122.0 186.0 L 122.0 184.5 " stroke="black" fill="none" stroke-width="7.0" stroke-linecap="round" stroke-linejoin="round" />
<path d="M 129.0 119.5 L 129.5 117.0 L 130.5 115.0 L 134.0 113.5 L 141.5 111.0 L 150.5 107.0 L 158.0 103.5 L 164.5 102.5 L 168.5 103.5 L 170.0 107.0 L 170.5 112.5 L 171.0 121.0 L 171.5 133.5 L 172.0 146.0 L 172.5 165.5 L 172.5 178.5 L 172.5 189.0 L 171.0 196.5 L 169.0 202.5 L 166.5 204.5 L 162.5 204.5 L 158.0 200.5 L 154.5 192.5 " stroke="black" fill="none" stroke-width="7.0" stroke-linecap="round" stroke-linejoin="round" />
<path d="M 139.5 139.0 L 136.5 140.0 L 134.5 140.0 L 135.5 140.0 L 140.0 138.5 L 146.5 136.0 L 150.5 133.5 L 154.5 132.0 " stroke="black" fill="none" stroke-width="7.0" stroke-linecap="round" stroke-linejoin="round" />
<path d="M 132.0 158.0 L 132.0 159.0 L 132.0 162.0 L 133.0 164.5 L 135.0 167.5 L 137.0 169.5 L 139.5 170.0 L 140.0 170.0 " stroke="black" fill="none" stroke-width="7.0" stroke-linecap="round" stroke-linejoin="round" />
<path d="M 138.0 158.5 L 138.0 158.0 L 138.0 157.5 L 139.5 156.5 L 143.0 154.5 L 148.0 153.0 L 152.5 152.0 L 154.5 154.0 L 154.0 159.0 L 151.0 164.5 L 147.0 169.5 L 144.0 172.0 L 143.5 172.5 L 145.0 170.5 L 149.0 168.0 L 154.0 165.5 " stroke="black" fill="none" stroke-width="7.0" stroke-linecap="round" stroke-linejoin="round" />
</svg>