<svg xmlns="http://www.w3.org/2000/svg" width="300" height="300" viewBox="0 0 300 300">
<path d="M 127.0 101.5 L 126.0 101.5 L 125.0 101.5 L 125.0 102.0 L 125.0 104.0 L 126.5 108.0 L 128.5 114.0 L 130.5 119.5 L 132.0 123.0 L 132.5 124.0 " stroke="black" fill="none" stroke-width="7.0" stroke-linecap="round" stroke-linejoin="round" />
<path d="M 129.5 103.0 L 129.0 101.0 L 129.0 100.0 L 130.0 99.0 L 133.5 98.0 L 139.5 97.0 L 147.0 95.5 L 154.5 94.0 L 161.5 92.5 L 168.0 92.5 L 171.5 93.5 L 172.0 96.0 L 172.0 100.5 L 170.0 106.5 L 166.5 113.0 L 162.0 119.0 L 158.5 122.5 " stroke="black" fill="none" stroke-width="7.0" stroke-linecap="round" stroke-linejoin="round" />
<path d="M 142.5 123.0 L 141.5 123.5 L 136.5 125.0 L 134.0 126.0 L 133.5 127.0 L 136.0 127.0 L 142.0 127.0 L 149.0 125.0 L 156.0 122.5 L 162.5 120.5 L 166.0 120.0 " stroke="black" fill="none" stroke-width="7.0" stroke-linecap="round" stroke-linejoin="round" />
<path d="M 150.5 132.0 L 150.5 131.0 L 150.5 130.0 L 150.0 130.5 L 148.5 134.5 L 145.5 140.0 L 141.5 145.5 L 139.0 148.0 " stroke="black" fill="none" stroke-width="7.0" stroke-linecap="round" stroke-linejoin="round" />
<path d="M 113.0 161.0 L 113.0 161.0 L 113.0 162.0 L 114.0 164.5 L 117.5 170.5 L 122.5 179.0 L 125.5 184.5 L 127.0 187.0 L 128.0 187.5 L 128.5 187.5 " stroke="black" fill="none" stroke-width="7.0" stroke-linecap="round" stroke-linejoin="round" />
<path d="M 126.5 160.5 L 126.5 158.5 L 127.0 157.0 L 129.5 156.0 L 136.0 154.5 L 146.0 152.0 L 155.0 149.0 L 164.0 147.0 L 172.0 146.5 L 176.0 147.0 L 178.0 149.0 L 179.0 153.5 L 178.0 159.0 L 175.0 166.0 L 171.0 173.0 L 166.5 180.0 L 161.5 185.5 L 156.5 188.5 L 154.5 189.0 " stroke="black" fill="none" stroke-width="7.0" stroke-linecap="round" stroke-linejoin="round" />
<path d="M 133.0 189.5 L 132.0 190.0 L 131.5 190.0 L 132.5 190.0 L 137.5 189.0 L 146.0 187.5 L 155.5 185.5 L 164.0 183.5 L 169.5 183.5 L 169.5 184.0 " stroke="black" fill="none" stroke-width="7.0" stroke-linecap="round" stroke-linejoin="round" />
</svg>