<svg xmlns="http://www.w3.org/2000/svg" width="300" height="300" viewBox="0 0 300 300">
<path d="M 124.5 102.5 L 124.5 102.5 L 124.5 102.0 L 124.5 101.5 L 124.5 101.5 L 125.0 102.5 L 126.5 107.0 L 127.5 116.0 L 128.0 131.5 L 127.0 150.0 L 124.0 167.0 L 120.5 179.5 L 117.0 189.0 L 115.0 193.5 " stroke="black" fill="none" stroke-width="7.0" stroke-linecap="round" stroke-linejoin="round" />
<path d="M 131.0 99.5 L 131.0 99.5 L 131.0 99.5 L 130.5 100.0 L 130.5 100.0 L 132.0 100.0 L 137.0 99.0 L 141.0 98.0 L 147.5 96.5 L 154.5 95.0 L 159.5 94.5 L 164.0 93.5 L 168.0 93.0 L 170.5 92.5 L 172.0 92.5 L 172.5 93.0 L 173.0 95.0 L 173.0 97.0 L 173.5 100.5 L 174.0 106.0 L 174.5 114.0 L 175.5 125.0 L 176.0 134.5 L 176.5 148.0 L 176.5 164.0 L 176.5 175.5 L 176.5 184.0 L 175.5 197.0 L 175.0 203.0 L 173.0 208.5 L 171.5 210.0 L 169.0 208.5 L 166.0 203.0 L 165.0 201.0 " stroke="black" fill="none" stroke-width="7.0" stroke-linecap="round" stroke-linejoin="round" />
<path d="M 145.5 123.5 L 143.0 124.5 L 141.5 125.0 L 141.5 125.5 L 143.0 125.5 L 147.0 124.0 L 151.5 122.0 L 155.5 120.0 L 157.5 119.0 " stroke="black" fill="none" stroke-width="7.0" stroke-linecap="round" stroke-linejoin="round" />
<path d="M 150.0 107.5 L 150.0 109.5 L 150.0 113.5 L 151.0 120.0 L 151.5 126.5 L 151.5 132.5 L 150.5 137.5 L 150.5 138.0 " stroke="black" fill="none" stroke-width="7.0" stroke-linecap="round" stroke-linejoin="round" />
<path d="M 139.0 143.0 L 137.0 143.5 L 135.0 144.5 L 134.5 145.5 L 135.5 145.5 L 139.5 145.0 L 145.5 143.0 L 152.0 140.5 L 157.5 137.5 L 161.0 136.0 L 162.0 137.0 L 160.5 139.0 " stroke="black" fill="none" stroke-width="7.0" stroke-linecap="round" stroke-linejoin="round" />
<path d="M 135.5 161.5 L 135.0 162.5 L 135.0 164.5 L 137.5 167.0 L 140.5 170.5 L 143.5 173.5 L 145.5 176.0 L 146.0 177.0 " stroke="black" fill="none" stroke-width="7.0" stroke-linecap="round" stroke-linejoin="round" />
<path d="M 138.5 166.0 L 138.5 165.5 L 138.5 164.5 L 141.0 163.5 L 145.5 162.0 L 151.0 160.5 L 155.5 159.0 L 159.0 159.0 L 160.0 160.0 L 160.0 163.5 L 157.5 167.0 L 154.5 171.0 L 151.0 175.0 L 148.5 178.0 L 147.5 179.0 L 148.0 179.0 L 151.0 177.5 L 154.0 175.0 L 156.5 174.0 " stroke="black" fill="none" stroke-width="7.0" stroke-linecap="round" stroke-linejoin="round" />
</svg>