<svg xmlns="http://www.w3.org/2000/svg" width="300" height="300" viewBox="0 0 300 300">
<path d="M 152.5 90.0 L 152.5 88.5 L 152.5 86.0 L 153.0 84.5 L 153.0 84.5 L 152.5 88.5 L 151.0 95.0 L 148.0 104.0 L 141.5 115.5 L 134.0 125.0 L 130.0 129.0 L 130.0 129.0 " stroke="black" fill="none" stroke-width="7.0" stroke-linecap="round" stroke-linejoin="round" />
<path d="M 145.5 113.5 L 147.0 111.5 L 149.5 109.5 L 152.0 108.5 L 155.0 107.0 L 159.5 105.5 L 163.5 104.5 L 166.5 104.5 L 167.5 106.5 L 167.5 109.5 L 165.5 115.0 L 162.0 122.0 L 157.5 130.5 L 151.5 141.5 L 145.0 154.0 L 136.0 165.5 L 128.0 173.0 L 123.0 177.0 L 119.0 178.5 L 118.0 178.5 " stroke="black" fill="none" stroke-width="7.0" stroke-linecap="round" stroke-linejoin="round" />
<path d="M 137.0 136.0 L 137.5 136.0 L 138.0 136.0 L 140.5 136.5 L 146.0 139.0 L 149.0 140.0 " stroke="black" fill="none" stroke-width="7.0" stroke-linecap="round" stroke-linejoin="round" />
<path d="M 139.0 166.0 L 138.5 165.5 L 138.0 165.0 L 138.5 167.5 L 141.0 174.5 L 143.5 182.0 L 146.0 186.5 L 147.5 187.0 L 148.0 187.0 " stroke="black" fill="none" stroke-width="7.0" stroke-linecap="round" stroke-linejoin="round" />
<path d="M 147.0 161.0 L 147.0 161.0 L 145.5 161.5 L 144.5 161.5 L 145.0 161.0 L 148.0 159.5 L 152.5 156.5 L 159.5 153.0 L 168.0 150.0 L 173.0 149.0 L 175.5 149.5 L 176.5 153.0 L 176.0 159.0 L 175.0 166.0 L 173.0 173.0 L 171.5 180.0 L 170.5 183.5 " stroke="black" fill="none" stroke-width="7.0" stroke-linecap="round" stroke-linejoin="round" />
<path d="M 149.5 185.5 L 148.5 185.5 L 147.0 185.5 L 146.5 185.5 L 147.0 185.5 L 151.0 184.5 L 157.5 182.5 L 167.0 180.5 L 171.0 179.5 " stroke="black" fill="none" stroke-width="7.0" stroke-linecap="round" stroke-linejoin="round" />
</svg>