<svg xmlns="http://www.w3.org/2000/svg" width="300" height="300" viewBox="0 0 300 300">
<path d="M 138.0 103.5 L 137.0 104.0 L 136.0 104.0 L 136.0 104.0 L 138.0 103.5 L 143.0 102.0 L 149.0 99.5 L 156.5 96.5 L 163.5 93.5 L 167.0 92.5 L 168.0 92.5 L 168.0 97.0 L 166.5 103.5 L 164.5 111.5 L 163.0 119.0 L 162.5 123.5 " stroke="black" fill="none" stroke-width="7.0" stroke-linecap="round" stroke-linejoin="round" />
<path d="M 124.5 121.5 L 123.0 122.0 L 121.0 122.0 L 120.5 122.5 L 121.5 123.0 L 125.5 123.0 L 133.0 121.5 L 145.0 118.5 L 157.5 114.5 L 170.0 111.0 L 175.5 108.5 L 176.5 108.0 L 176.0 109.0 " stroke="black" fill="none" stroke-width="7.0" stroke-linecap="round" stroke-linejoin="round" />
<path d="M 125.5 139.0 L 123.5 140.0 L 121.0 141.0 L 120.5 142.0 L 122.0 142.0 L 127.5 140.5 L 136.0 138.0 L 147.0 134.0 L 157.0 130.0 L 164.0 128.5 L 164.5 128.5 " stroke="black" fill="none" stroke-width="7.0" stroke-linecap="round" stroke-linejoin="round" />
<path d="M 146.0 104.5 L 145.5 105.0 L 144.5 108.0 L 144.0 113.0 L 143.0 121.5 L 139.5 132.0 L 133.5 143.5 L 126.5 155.0 L 117.0 165.0 L 108.5 170.5 L 104.5 173.0 " stroke="black" fill="none" stroke-width="7.0" stroke-linecap="round" stroke-linejoin="round" />
<path d="M 126.0 152.5 L 126.0 153.0 L 125.5 154.0 L 126.5 157.5 L 129.5 164.0 L 132.5 171.5 L 134.0 177.0 L 135.5 179.5 L 136.0 179.5 " stroke="black" fill="none" stroke-width="7.0" stroke-linecap="round" stroke-linejoin="round" />
<path d="M 131.5 158.5 L 131.0 159.0 L 130.5 159.5 L 131.5 159.5 L 136.5 158.5 L 145.0 154.5 L 155.0 150.0 L 164.0 146.5 L 169.0 146.0 L 170.0 147.5 L 169.5 152.0 L 167.0 159.0 L 163.5 165.5 L 160.5 170.5 L 159.0 173.0 " stroke="black" fill="none" stroke-width="7.0" stroke-linecap="round" stroke-linejoin="round" />
<path d="M 141.5 179.5 L 138.5 180.5 L 136.0 180.5 L 136.5 180.5 L 140.5 179.0 L 147.0 177.0 L 154.0 174.0 L 162.0 171.0 L 164.5 170.5 " stroke="black" fill="none" stroke-width="7.0" stroke-linecap="round" stroke-linejoin="round" />
</svg>