<svg xmlns="http://www.w3.org/2000/svg" width="300" height="300" viewBox="0 0 300 300">
<path d="M 135.0 101.0 L 135.5 100.5 L 135.5 100.0 L 135.0 101.0 L 133.0 105.0 L 129.5 112.5 L 123.5 122.5 L 121.5 125.0 " stroke="black" fill="none" stroke-width="7.0" stroke-linecap="round" stroke-linejoin="round" />
<path d="M 106.0 157.0 L 105.0 158.5 L 104.5 159.0 L 106.5 159.0 L 111.5 156.0 L 122.0 149.5 L 133.0 141.5 L 143.0 134.0 L 148.5 130.0 " stroke="black" fill="none" stroke-width="7.0" stroke-linecap="round" stroke-linejoin="round" />
<path d="M 132.5 120.5 L 132.0 121.5 L 131.5 125.0 L 131.5 135.5 L 132.5 151.5 L 132.5 171.0 L 132.5 186.5 L 132.0 195.5 L 131.0 200.5 L 129.5 201.5 L 127.5 190.5 " stroke="black" fill="none" stroke-width="7.0" stroke-linecap="round" stroke-linejoin="round" />
<path d="M 127.5 153.5 L 127.5 152.0 L 128.0 149.5 L 128.0 149.5 L 128.0 153.5 L 126.0 160.0 L 123.0 167.5 L 117.5 176.5 L 112.0 183.5 L 108.0 186.5 L 107.5 186.5 " stroke="black" fill="none" stroke-width="7.0" stroke-linecap="round" stroke-linejoin="round" />
<path d="M 128.5 147.5 L 130.5 149.0 L 135.0 154.5 L 141.0 164.5 L 146.5 173.0 L 151.0 178.5 L 153.0 180.5 " stroke="black" fill="none" stroke-width="7.0" stroke-linecap="round" stroke-linejoin="round" />
<path d="M 158.0 141.5 L 158.0 141.5 L 158.0 142.0 L 159.0 147.0 L 161.0 153.0 L 163.5 157.5 L 165.0 158.5 " stroke="black" fill="none" stroke-width="7.0" stroke-linecap="round" stroke-linejoin="round" />
<path d="M 162.5 141.5 L 162.5 141.0 L 163.0 139.5 L 165.0 138.0 L 169.0 136.5 L 173.0 135.0 L 177.5 133.5 L 180.5 133.5 L 181.5 136.5 L 181.0 141.5 L 178.5 147.0 L 174.5 151.5 L 171.0 155.5 L 168.5 158.5 L 167.0 159.0 L 167.0 159.0 L 169.0 157.5 L 172.5 155.0 L 177.0 152.5 L 178.5 152.0 " stroke="black" fill="none" stroke-width="7.0" stroke-linecap="round" stroke-linejoin="round" />
</svg>