<svg xmlns="http://www.w3.org/2000/svg" width="300" height="300" viewBox="0 0 300 300">
<path d="M 149.5 90.0 L 150.0 89.0 L 150.0 87.5 L 150.5 87.0 L 150.5 88.0 L 149.5 91.5 L 147.0 97.0 L 141.0 104.5 L 131.5 114.5 L 123.0 123.5 L 115.0 129.0 L 110.0 131.5 " stroke="black" fill="none" stroke-width="7.0" stroke-linecap="round" stroke-linejoin="round" />
<path d="M 146.5 96.5 L 148.0 96.5 L 150.0 97.5 L 154.0 100.0 L 161.5 102.5 L 170.0 105.0 L 175.5 107.0 L 178.0 109.0 L 178.5 109.5 " stroke="black" fill="none" stroke-width="7.0" stroke-linecap="round" stroke-linejoin="round" />
<path d="M 138.0 129.0 L 137.0 129.5 L 137.0 130.0 L 140.5 130.0 L 146.0 129.0 L 152.5 127.0 L 158.0 125.5 L 160.0 125.0 " stroke="black" fill="none" stroke-width="7.0" stroke-linecap="round" stroke-linejoin="round" />
<path d="M 118.5 157.5 L 118.5 157.5 L 118.0 158.5 L 118.5 159.5 L 121.0 161.5 L 123.5 164.5 L 126.0 167.0 L 127.0 167.5 " stroke="black" fill="none" stroke-width="7.0" stroke-linecap="round" stroke-linejoin="round" />
<path d="M 128.5 155.5 L 128.5 156.0 L 127.0 156.5 L 126.0 156.5 L 126.0 156.5 L 128.5 155.0 L 133.0 152.5 L 138.0 150.0 L 142.5 149.0 L 144.5 149.5 L 144.0 153.5 L 141.0 159.5 L 137.5 165.5 L 134.5 168.5 " stroke="black" fill="none" stroke-width="7.0" stroke-linecap="round" stroke-linejoin="round" />
<path d="M 130.5 171.5 L 129.5 171.5 L 128.5 172.0 L 128.5 172.0 L 129.0 172.0 L 131.0 171.0 L 134.5 169.5 " stroke="black" fill="none" stroke-width="7.0" stroke-linecap="round" stroke-linejoin="round" />
<path d="M 153.5 145.0 L 153.5 145.0 L 152.5 145.0 L 152.5 145.0 L 155.0 144.5 L 161.0 143.5 L 168.0 142.5 L 173.0 142.0 L 176.0 144.0 L 176.5 149.0 L 174.5 156.0 L 172.0 162.0 L 169.0 165.5 L 166.5 166.5 L 163.0 166.5 L 159.0 164.5 L 157.0 162.0 " stroke="black" fill="none" stroke-width="7.0" stroke-linecap="round" stroke-linejoin="round" />
<path d="M 155.0 150.0 L 155.0 149.5 L 155.0 148.5 L 155.0 149.0 L 155.0 153.5 L 155.0 161.5 L 155.0 175.0 L 153.5 191.5 L 152.0 205.5 L 152.0 213.5 L 152.0 216.0 " stroke="black" fill="none" stroke-width="7.0" stroke-linecap="round" stroke-linejoin="round" />
</svg>