<svg xmlns="http://www.w3.org/2000/svg" width="300" height="300" viewBox="0 0 300 300">
<path d="M 137.0 98.0 L 137.0 98.0 L 137.5 97.5 L 137.5 97.5 L 136.5 98.5 L 134.0 102.0 L 130.0 107.0 L 125.0 113.0 L 119.5 117.5 L 114.5 120.5 L 112.0 121.5 L 112.0 121.5 L 112.0 121.5 L 113.0 121.5 L 113.5 121.5 L 113.5 123.0 L 114.0 126.5 L 114.0 134.0 L 113.5 145.5 L 111.0 160.0 L 108.0 173.0 L 104.0 184.5 L 100.0 191.5 L 96.5 193.5 L 95.5 193.5 " stroke="black" fill="none" stroke-width="7.0" stroke-linecap="round" stroke-linejoin="round" />
<path d="M 115.5 127.5 L 113.5 128.0 L 112.0 128.0 L 112.0 128.0 L 114.0 128.0 L 118.0 128.0 L 124.5 126.5 L 130.5 124.0 L 137.0 120.5 L 142.5 118.0 L 145.0 117.5 L 145.5 117.5 L 145.0 120.0 L 143.5 123.0 L 141.5 127.5 L 139.5 132.0 L 138.0 136.0 " stroke="black" fill="none" stroke-width="7.0" stroke-linecap="round" stroke-linejoin="round" />
<path d="M 122.0 146.5 L 120.5 147.5 L 117.0 149.0 L 116.5 149.5 L 117.5 149.5 L 122.5 148.0 L 128.5 145.0 L 135.0 141.5 L 138.5 139.5 " stroke="black" fill="none" stroke-width="7.0" stroke-linecap="round" stroke-linejoin="round" />
<path d="M 112.5 170.5 L 112.0 170.5 L 111.5 170.5 L 112.0 172.0 L 114.5 177.5 L 118.0 184.5 L 120.0 190.0 L 121.5 192.0 L 121.5 192.0 " stroke="black" fill="none" stroke-width="7.0" stroke-linecap="round" stroke-linejoin="round" />
<path d="M 117.0 174.5 L 116.5 174.0 L 116.0 173.5 L 116.5 172.5 L 120.5 171.5 L 126.0 169.5 L 132.5 166.5 L 139.5 164.0 L 143.5 163.5 L 144.5 165.5 L 143.5 169.5 L 140.5 176.0 L 136.5 183.0 L 131.5 189.0 L 127.0 193.0 L 124.5 194.5 L 123.5 195.0 L 124.0 194.0 L 126.5 191.5 L 130.5 188.5 L 136.0 186.0 L 140.5 185.0 " stroke="black" fill="none" stroke-width="7.0" stroke-linecap="round" stroke-linejoin="round" />
<path d="M 160.5 104.5 L 160.5 103.5 L 160.5 102.5 L 160.5 102.5 L 161.0 106.5 L 160.0 114.0 L 158.0 121.0 L 156.0 126.5 L 154.5 128.0 L 154.5 127.5 L 155.5 126.0 L 158.0 124.0 L 161.5 121.0 L 167.0 117.5 L 172.5 112.5 L 177.0 108.0 L 179.0 106.0 " stroke="black" fill="none" stroke-width="7.0" stroke-linecap="round" stroke-linejoin="round" />
<path d="M 174.5 114.5 L 174.5 115.0 L 174.0 117.5 L 173.5 121.0 L 173.0 126.5 L 171.5 137.5 L 168.0 152.0 L 163.5 165.5 L 157.5 177.5 L 152.0 187.5 L 150.0 191.0 " stroke="black" fill="none" stroke-width="7.0" stroke-linecap="round" stroke-linejoin="round" />
<path d="M 153.0 141.0 L 153.5 141.0 L 154.0 141.0 L 155.5 143.0 L 161.0 150.5 L 169.0 163.5 L 176.0 176.5 L 183.0 185.5 L 190.5 191.0 L 195.5 195.5 L 197.5 197.0 " stroke="black" fill="none" stroke-width="7.0" stroke-linecap="round" stroke-linejoin="round" />
</svg>