<svg xmlns="http://www.w3.org/2000/svg" width="300" height="300" viewBox="0 0 300 300">
<path d="M 140.5 91.0 L 139.5 90.5 L 138.5 90.0 L 138.5 90.0 L 140.5 91.5 L 144.5 93.5 L 146.5 94.0 " stroke="black" fill="none" stroke-width="7.0" stroke-linecap="round" stroke-linejoin="round" />
<path d="M 157.0 80.0 L 156.5 79.5 L 156.5 79.5 L 156.0 79.5 L 155.0 81.5 L 153.0 86.5 L 150.0 94.5 L 148.0 99.0 " stroke="black" fill="none" stroke-width="7.0" stroke-linecap="round" stroke-linejoin="round" />
<path d="M 127.0 114.5 L 126.0 114.5 L 125.0 114.5 L 124.5 114.5 L 125.0 114.5 L 128.5 113.0 L 136.0 110.5 L 147.0 106.0 L 158.0 101.0 L 165.5 98.5 L 168.5 98.0 " stroke="black" fill="none" stroke-width="7.0" stroke-linecap="round" stroke-linejoin="round" />
<path d="M 134.0 127.5 L 133.5 127.5 L 132.5 128.0 L 132.0 128.5 L 134.0 128.5 L 140.0 126.5 L 147.0 123.5 L 154.5 120.0 L 160.0 116.5 " stroke="black" fill="none" stroke-width="7.0" stroke-linecap="round" stroke-linejoin="round" />
<path d="M 150.5 110.5 L 150.5 111.0 L 150.0 113.0 L 150.0 118.0 L 150.0 125.5 L 149.5 133.5 L 149.5 137.5 " stroke="black" fill="none" stroke-width="7.0" stroke-linecap="round" stroke-linejoin="round" />
<path d="M 113.0 151.0 L 111.5 151.5 L 110.5 152.0 L 110.5 152.5 L 113.5 152.5 L 120.5 151.0 L 131.0 148.0 L 146.0 143.0 L 160.5 139.0 L 173.0 136.5 L 179.0 135.0 L 181.5 135.0 L 181.5 135.0 " stroke="black" fill="none" stroke-width="7.0" stroke-linecap="round" stroke-linejoin="round" />
<path d="M 117.5 174.0 L 116.0 174.5 L 113.0 175.5 L 111.5 176.5 L 111.0 176.5 L 113.0 176.5 L 118.5 174.5 L 126.0 172.0 L 136.0 168.5 L 149.5 164.0 L 161.0 160.0 L 170.5 157.5 L 174.0 156.5 L 174.5 156.0 L 174.5 156.0 " stroke="black" fill="none" stroke-width="7.0" stroke-linecap="round" stroke-linejoin="round" />
<path d="M 134.5 152.0 L 134.5 152.5 L 133.5 153.5 L 133.5 157.0 L 134.5 164.0 L 136.5 172.0 L 139.5 178.0 L 140.5 179.0 " stroke="black" fill="none" stroke-width="7.0" stroke-linecap="round" stroke-linejoin="round" />
<path d="M 160.5 146.0 L 160.5 144.5 L 160.5 144.0 L 159.5 149.0 L 157.5 159.5 L 155.0 169.5 " stroke="black" fill="none" stroke-width="7.0" stroke-linecap="round" stroke-linejoin="round" />
<path d="M 121.5 196.0 L 120.5 195.5 L 120.5 194.5 L 122.5 194.5 L 125.5 197.5 L 128.5 202.0 L 131.5 205.5 L 133.0 206.5 L 133.0 206.5 " stroke="black" fill="none" stroke-width="7.0" stroke-linecap="round" stroke-linejoin="round" />
<path d="M 136.5 188.0 L 136.0 188.0 L 135.0 188.0 L 134.5 188.0 L 135.5 187.5 L 139.5 186.5 L 146.0 184.0 L 154.0 180.5 L 163.5 176.5 L 169.5 175.5 L 172.0 175.5 L 172.0 178.5 L 171.5 183.5 L 168.5 190.0 L 165.0 196.5 L 164.0 199.5 " stroke="black" fill="none" stroke-width="7.0" stroke-linecap="round" stroke-linejoin="round" />
<path d="M 134.5 210.0 L 132.0 210.5 L 131.5 210.5 L 133.0 209.5 L 139.0 207.5 L 147.5 204.0 L 156.5 200.0 L 165.5 198.0 L 167.5 197.5 " stroke="black" fill="none" stroke-width="7.0" stroke-linecap="round" stroke-linejoin="round" />
</svg>