<svg xmlns="http://www.w3.org/2000/svg" width="300" height="300" viewBox="0 0 300 300">
<path d="M 122.5 95.0 L 122.5 95.0 L 122.0 94.0 L 121.5 94.0 L 121.5 94.0 L 121.5 98.0 L 123.0 107.5 L 124.0 125.0 L 124.0 140.5 L 122.5 165.5 L 121.0 181.0 L 120.5 189.5 L 121.0 194.0 L 122.0 195.5 " stroke="black" fill="none" stroke-width="7.0" stroke-linecap="round" stroke-linejoin="round" />
<path d="M 128.0 98.5 L 127.5 98.0 L 127.0 97.5 L 127.0 97.0 L 129.5 95.5 L 133.5 93.5 L 139.5 91.5 L 144.5 90.0 L 147.5 90.0 L 148.5 92.5 L 148.5 97.5 L 148.5 105.0 L 148.0 111.5 L 147.5 122.0 L 147.0 126.0 L 146.5 127.5 " stroke="black" fill="none" stroke-width="7.0" stroke-linecap="round" stroke-linejoin="round" />
<path d="M 129.5 114.5 L 128.0 115.5 L 126.5 117.0 L 126.5 117.5 L 127.5 117.5 L 130.5 116.5 L 135.0 114.5 L 139.0 113.0 " stroke="black" fill="none" stroke-width="7.0" stroke-linecap="round" stroke-linejoin="round" />
<path d="M 129.0 129.5 L 128.0 131.0 L 127.5 132.5 L 129.0 132.5 L 133.0 131.0 L 140.0 127.5 L 144.0 126.0 " stroke="black" fill="none" stroke-width="7.0" stroke-linecap="round" stroke-linejoin="round" />
<path d="M 164.5 94.5 L 163.5 94.0 L 163.0 94.0 L 163.0 97.5 L 163.0 105.0 L 162.5 116.0 L 162.5 123.5 L 162.5 125.5 L 163.5 125.0 " stroke="black" fill="none" stroke-width="7.0" stroke-linecap="round" stroke-linejoin="round" />
<path d="M 168.0 94.5 L 168.0 94.5 L 168.5 93.0 L 170.0 91.5 L 172.0 90.0 L 175.5 88.0 L 180.5 86.0 L 185.0 85.5 L 187.5 85.5 L 188.5 88.0 L 189.5 93.0 L 190.0 99.5 L 191.0 109.0 L 192.0 124.5 L 192.5 142.0 L 193.0 159.5 L 192.5 174.0 L 191.5 187.0 L 190.0 195.5 L 188.5 201.5 L 186.5 203.0 L 183.0 203.0 L 180.0 200.5 L 178.5 198.5 " stroke="black" fill="none" stroke-width="7.0" stroke-linecap="round" stroke-linejoin="round" />
<path d="M 166.5 113.5 L 166.0 113.5 L 164.5 114.5 L 165.0 115.0 L 168.0 115.0 L 172.0 113.5 L 176.0 111.0 L 179.5 109.0 L 180.5 109.0 " stroke="black" fill="none" stroke-width="7.0" stroke-linecap="round" stroke-linejoin="round" />
<path d="M 166.5 126.0 L 165.5 127.5 L 164.5 128.5 L 166.0 128.5 L 170.0 128.0 L 175.0 126.0 L 179.5 124.5 L 183.5 124.0 " stroke="black" fill="none" stroke-width="7.0" stroke-linecap="round" stroke-linejoin="round" />
<path d="M 139.5 162.0 L 139.0 163.5 L 140.0 166.0 L 143.0 169.0 L 146.0 172.5 L 148.0 174.0 L 148.5 174.0 " stroke="black" fill="none" stroke-width="7.0" stroke-linecap="round" stroke-linejoin="round" />
<path d="M 146.0 161.0 L 146.5 160.5 L 147.0 159.5 L 149.0 158.5 L 153.0 156.5 L 159.5 154.0 L 165.5 152.5 L 168.0 153.0 L 168.5 156.5 L 167.0 161.0 L 163.5 166.0 L 159.0 170.5 " stroke="black" fill="none" stroke-width="7.0" stroke-linecap="round" stroke-linejoin="round" />
<path d="M 153.0 172.5 L 152.5 173.0 L 151.0 174.0 L 150.5 174.5 L 151.5 174.0 L 155.0 172.5 L 160.0 170.5 L 163.0 170.0 " stroke="black" fill="none" stroke-width="7.0" stroke-linecap="round" stroke-linejoin="round" />
</svg>