<svg xmlns="http://www.w3.org/2000/svg" width="300" height="300" viewBox="0 0 300 300">
<path d="M 144.0 90.5 L 142.0 91.0 L 141.5 91.5 L 142.5 91.5 L 146.0 91.5 L 148.5 91.5 L 151.0 91.0 L 151.0 91.0 " stroke="black" fill="none" stroke-width="7.0" stroke-linecap="round" stroke-linejoin="round" />
<path d="M 131.0 109.5 L 130.5 110.5 L 129.0 113.0 L 129.0 114.0 L 131.5 114.0 L 137.0 111.0 L 145.5 106.5 L 153.0 101.5 L 158.5 98.0 L 160.0 97.0 L 159.5 97.5 " stroke="black" fill="none" stroke-width="7.0" stroke-linecap="round" stroke-linejoin="round" />
<path d="M 126.0 115.0 L 125.5 116.0 L 124.5 117.0 L 124.5 120.5 L 124.5 129.0 L 124.5 143.0 L 122.5 160.5 L 118.0 176.5 L 114.5 188.0 L 112.0 194.5 " stroke="black" fill="none" stroke-width="7.0" stroke-linecap="round" stroke-linejoin="round" />
<path d="M 142.5 129.5 L 142.0 130.0 L 140.5 130.5 L 140.0 130.5 L 141.5 130.5 L 145.0 128.0 L 149.5 125.5 L 154.0 123.0 L 159.5 120.5 L 165.0 118.5 L 168.0 118.0 L 169.5 119.5 L 169.5 123.0 L 168.5 128.5 L 167.0 135.5 L 165.5 141.0 L 165.0 143.0 " stroke="black" fill="none" stroke-width="7.0" stroke-linecap="round" stroke-linejoin="round" />
<path d="M 131.5 144.0 L 131.0 144.5 L 129.5 145.0 L 128.5 145.5 L 129.5 145.5 L 134.0 144.5 L 142.0 142.0 L 151.5 139.0 L 162.5 135.0 L 171.5 131.5 L 174.5 130.5 L 175.0 130.0 L 175.0 130.0 L 174.0 131.0 " stroke="black" fill="none" stroke-width="7.0" stroke-linecap="round" stroke-linejoin="round" />
<path d="M 132.0 157.0 L 131.5 157.5 L 129.5 159.0 L 129.5 159.5 L 132.5 159.5 L 139.0 157.5 L 148.0 154.0 L 157.0 149.5 L 165.0 147.0 L 169.5 146.0 L 170.0 146.0 " stroke="black" fill="none" stroke-width="7.0" stroke-linecap="round" stroke-linejoin="round" />
<path d="M 150.5 112.5 L 150.5 112.5 L 149.5 112.5 L 149.5 116.0 L 150.0 126.0 L 151.0 139.0 L 151.0 149.0 L 151.0 153.5 " stroke="black" fill="none" stroke-width="7.0" stroke-linecap="round" stroke-linejoin="round" />
<path d="M 130.5 176.5 L 130.5 177.0 L 130.5 177.5 L 131.0 179.0 L 134.0 182.0 L 137.5 186.0 L 140.5 188.5 L 142.5 189.5 " stroke="black" fill="none" stroke-width="7.0" stroke-linecap="round" stroke-linejoin="round" />
<path d="M 138.5 177.5 L 138.5 177.5 L 138.5 176.5 L 140.0 175.0 L 144.0 173.0 L 150.5 170.0 L 156.5 167.5 L 163.0 165.5 L 167.0 165.5 L 168.0 166.5 L 167.5 169.0 L 165.5 173.5 L 162.0 178.0 L 157.0 182.5 L 155.5 183.5 " stroke="black" fill="none" stroke-width="7.0" stroke-linecap="round" stroke-linejoin="round" />
<path d="M 150.0 185.5 L 148.0 187.0 L 146.0 188.5 L 145.5 189.0 L 146.5 189.0 L 150.0 188.0 L 154.5 186.5 L 160.5 185.0 L 166.5 184.5 L 168.0 184.5 " stroke="black" fill="none" stroke-width="7.0" stroke-linecap="round" stroke-linejoin="round" />
</svg>