<svg xmlns="http://www.w3.org/2000/svg" width="300" height="300" viewBox="0 0 300 300">
<path d="M 108.0 153.5 L 108.0 154.0 L 108.0 156.5 L 110.0 160.5 L 112.5 166.5 L 114.5 171.5 L 116.0 173.0 L 116.0 173.0 " stroke="black" fill="none" stroke-width="7.0" stroke-linecap="round" stroke-linejoin="round" />
<path d="M 113.5 155.0 L 113.5 153.5 L 114.0 152.5 L 117.0 151.0 L 123.0 149.5 L 129.0 147.5 L 133.0 146.5 L 133.5 147.5 L 132.5 152.5 L 128.5 160.0 L 123.5 167.5 L 117.0 173.5 L 113.0 175.5 L 113.0 175.0 L 116.5 173.0 L 123.5 169.5 L 130.5 166.0 " stroke="black" fill="none" stroke-width="7.0" stroke-linecap="round" stroke-linejoin="round" />
<path d="M 147.0 114.0 L 147.0 114.0 L 147.0 114.0 L 147.5 116.5 L 149.5 122.5 L 151.5 131.0 L 153.0 137.5 L 154.0 139.0 L 154.0 139.0 " stroke="black" fill="none" stroke-width="7.0" stroke-linecap="round" stroke-linejoin="round" />
<path d="M 149.5 117.0 L 149.5 116.5 L 149.0 115.0 L 149.5 113.0 L 152.0 110.0 L 158.0 107.5 L 168.0 104.0 L 176.0 101.5 L 181.5 100.5 L 185.5 100.5 L 188.0 104.0 L 189.0 110.5 L 188.5 119.5 L 186.5 128.0 L 184.5 134.0 L 182.5 137.0 L 179.5 137.5 L 178.0 137.0 " stroke="black" fill="none" stroke-width="7.0" stroke-linecap="round" stroke-linejoin="round" />
<path d="M 161.0 125.0 L 158.0 125.0 L 157.0 125.0 L 158.0 125.5 L 162.0 125.5 L 168.5 124.0 L 174.0 122.5 L 178.5 120.5 " stroke="black" fill="none" stroke-width="7.0" stroke-linecap="round" stroke-linejoin="round" />
<path d="M 159.5 139.0 L 156.5 140.5 L 156.5 141.5 L 159.5 142.0 L 165.5 140.5 L 172.0 138.0 L 178.5 136.0 " stroke="black" fill="none" stroke-width="7.0" stroke-linecap="round" stroke-linejoin="round" />
<path d="M 140.0 165.5 L 139.5 165.5 L 139.0 166.5 L 139.0 169.5 L 142.5 177.0 L 146.0 185.5 L 149.0 190.5 L 150.5 192.0 L 151.0 191.5 " stroke="black" fill="none" stroke-width="7.0" stroke-linecap="round" stroke-linejoin="round" />
<path d="M 149.0 167.0 L 149.5 166.5 L 151.0 164.0 L 155.5 161.0 L 164.5 158.0 L 173.5 154.5 L 180.0 152.5 L 186.0 152.5 L 189.5 155.0 L 191.5 160.0 L 191.5 166.5 L 190.5 174.0 L 188.5 182.0 L 186.0 188.0 L 183.0 192.0 L 180.0 193.0 L 179.5 193.0 " stroke="black" fill="none" stroke-width="7.0" stroke-linecap="round" stroke-linejoin="round" />
<path d="M 159.5 179.0 L 157.5 179.0 L 156.5 179.5 L 156.5 179.5 L 160.5 179.0 L 167.0 176.5 L 173.5 173.0 L 179.0 170.5 " stroke="black" fill="none" stroke-width="7.0" stroke-linecap="round" stroke-linejoin="round" />
<path d="M 157.0 194.5 L 156.0 195.0 L 154.0 196.5 L 155.0 197.0 L 159.5 197.0 L 166.5 195.0 L 174.5 192.0 L 178.0 191.0 " stroke="black" fill="none" stroke-width="7.0" stroke-linecap="round" stroke-linejoin="round" />
</svg>