<svg xmlns="http://www.w3.org/2000/svg" width="300" height="300" viewBox="0 0 300 300">
<path d="M 120.0 84.5 L 120.0 84.5 L 120.0 84.5 L 120.0 85.5 L 121.5 89.5 L 123.0 96.5 L 124.5 101.0 L 125.5 102.5 L 125.5 102.5 " stroke="black" fill="none" stroke-width="7.0" stroke-linecap="round" stroke-linejoin="round" />
<path d="M 124.5 87.5 L 124.5 87.5 L 123.5 87.0 L 123.5 86.0 L 125.5 85.0 L 128.5 83.5 L 133.0 82.5 L 138.0 82.0 L 140.5 84.0 L 140.5 88.5 L 137.0 94.5 L 132.0 100.0 L 128.5 102.5 L 127.5 102.5 L 128.0 101.5 L 130.5 100.0 L 134.5 98.0 L 138.5 96.5 " stroke="black" fill="none" stroke-width="7.0" stroke-linecap="round" stroke-linejoin="round" />
<path d="M 155.0 79.5 L 155.0 79.5 L 155.0 79.5 L 155.0 79.5 L 156.0 82.0 L 157.5 87.5 L 159.0 92.5 L 160.0 95.0 L 160.0 95.5 " stroke="black" fill="none" stroke-width="7.0" stroke-linecap="round" stroke-linejoin="round" />
<path d="M 158.5 81.0 L 158.5 81.0 L 157.5 80.5 L 157.5 80.0 L 159.5 79.5 L 164.0 78.0 L 168.5 77.0 L 172.5 77.0 L 173.5 79.5 L 173.0 83.5 L 169.5 87.5 L 166.0 91.5 L 163.0 93.5 L 163.0 93.5 L 164.5 93.0 L 168.0 91.5 L 171.5 90.5 " stroke="black" fill="none" stroke-width="7.0" stroke-linecap="round" stroke-linejoin="round" />
<path d="M 129.5 118.5 L 129.0 118.5 L 128.0 119.0 L 127.5 119.0 L 128.0 119.0 L 132.5 118.5 L 141.0 115.5 L 151.5 110.5 L 160.0 106.0 L 164.5 105.0 L 165.0 105.0 " stroke="black" fill="none" stroke-width="7.0" stroke-linecap="round" stroke-linejoin="round" />
<path d="M 121.0 119.5 L 120.0 119.5 L 118.5 119.5 L 117.5 119.5 L 117.5 121.0 L 118.0 126.5 L 119.0 139.0 L 118.5 156.0 L 116.0 172.5 L 112.5 185.0 L 109.5 193.0 L 107.0 198.0 " stroke="black" fill="none" stroke-width="7.0" stroke-linecap="round" stroke-linejoin="round" />
<path d="M 131.0 133.0 L 128.5 134.0 L 127.0 134.5 L 127.0 135.0 L 130.0 134.0 L 135.0 130.5 L 141.0 127.5 L 146.5 125.0 L 147.0 125.0 " stroke="black" fill="none" stroke-width="7.0" stroke-linecap="round" stroke-linejoin="round" />
<path d="M 138.0 131.0 L 138.0 132.0 L 138.0 133.5 L 138.0 137.0 L 138.0 141.5 L 138.0 145.0 " stroke="black" fill="none" stroke-width="7.0" stroke-linecap="round" stroke-linejoin="round" />
<path d="M 126.0 152.5 L 124.0 153.0 L 123.0 153.5 L 123.0 153.5 L 125.5 153.0 L 130.5 151.0 L 137.0 147.5 L 146.0 143.5 L 151.0 141.5 L 152.0 141.5 " stroke="black" fill="none" stroke-width="7.0" stroke-linecap="round" stroke-linejoin="round" />
<path d="M 131.0 153.5 L 131.0 155.5 L 130.5 158.5 L 130.0 164.0 L 129.5 170.5 L 129.0 176.0 L 129.0 178.0 " stroke="black" fill="none" stroke-width="7.0" stroke-linecap="round" stroke-linejoin="round" />
<path d="M 144.5 149.5 L 145.0 149.0 L 145.5 148.5 L 146.0 150.5 L 146.5 157.5 L 147.0 167.5 L 147.0 180.5 L 146.0 191.5 L 145.5 200.0 L 145.0 204.5 L 145.0 205.0 " stroke="black" fill="none" stroke-width="7.0" stroke-linecap="round" stroke-linejoin="round" />
<path d="M 132.5 161.5 L 132.5 161.5 L 132.0 161.5 L 131.5 161.5 L 132.0 161.0 L 135.0 160.0 L 139.0 158.5 L 140.5 157.5 " stroke="black" fill="none" stroke-width="7.0" stroke-linecap="round" stroke-linejoin="round" />
<path d="M 132.0 169.0 L 132.0 170.0 L 131.5 171.0 L 132.0 171.0 L 135.0 171.0 L 139.5 169.0 L 143.0 167.5 " stroke="black" fill="none" stroke-width="7.0" stroke-linecap="round" stroke-linejoin="round" />
<path d="M 119.5 192.0 L 118.0 192.5 L 117.5 192.0 L 121.0 191.0 L 126.5 188.0 L 134.5 183.0 L 143.0 178.5 " stroke="black" fill="none" stroke-width="7.0" stroke-linecap="round" stroke-linejoin="round" />
<path d="M 163.0 124.5 L 163.0 123.0 L 163.0 122.5 L 163.0 122.5 L 163.5 126.0 L 163.5 131.5 L 161.5 137.0 L 159.5 142.0 L 158.0 144.0 L 158.0 144.0 L 161.5 141.5 L 166.0 138.0 L 170.5 133.5 L 174.0 130.5 L 175.0 129.0 " stroke="black" fill="none" stroke-width="7.0" stroke-linecap="round" stroke-linejoin="round" />
<path d="M 171.5 140.0 L 171.5 140.5 L 170.5 141.0 L 170.0 142.5 L 169.5 147.5 L 169.0 159.0 L 166.5 173.5 L 161.5 185.5 L 156.0 193.0 L 152.5 196.5 " stroke="black" fill="none" stroke-width="7.0" stroke-linecap="round" stroke-linejoin="round" />
<path d="M 153.5 157.5 L 153.5 156.5 L 153.5 155.5 L 154.0 155.5 L 157.5 159.0 L 164.0 167.5 L 172.0 180.0 L 178.0 189.5 L 184.0 195.5 L 190.0 199.5 L 191.0 200.0 " stroke="black" fill="none" stroke-width="7.0" stroke-linecap="round" stroke-linejoin="round" />
</svg>