<svg xmlns="http://www.w3.org/2000/svg" width="300" height="300" viewBox="0 0 300 300">
<path d="M 121.0 113.5 L 120.5 112.5 L 120.0 112.0 L 120.0 113.5 L 120.5 121.0 L 122.5 136.5 L 123.0 157.0 L 122.5 175.5 L 121.5 188.0 L 121.5 192.0 L 121.5 192.5 " stroke="black" fill="none" stroke-width="7.0" stroke-linecap="round" stroke-linejoin="round" />
<path d="M 129.5 115.0 L 129.5 114.0 L 130.0 113.0 L 132.0 112.0 L 137.5 111.5 L 147.0 109.0 L 156.0 106.0 L 165.0 103.5 L 170.5 103.5 L 173.5 104.5 L 175.0 108.0 L 176.0 114.5 L 176.5 124.5 L 176.5 138.5 L 176.5 152.5 L 176.5 167.0 L 176.0 179.5 L 175.0 188.5 L 174.0 193.5 L 172.5 194.0 L 171.5 192.0 " stroke="black" fill="none" stroke-width="7.0" stroke-linecap="round" stroke-linejoin="round" />
<path d="M 138.5 148.5 L 135.5 149.0 L 134.0 149.0 L 135.5 149.0 L 142.0 146.5 L 149.0 143.5 L 156.5 140.0 L 163.0 137.0 L 163.5 136.5 " stroke="black" fill="none" stroke-width="7.0" stroke-linecap="round" stroke-linejoin="round" />
<path d="M 149.5 124.0 L 149.5 125.5 L 149.0 130.0 L 148.0 140.0 L 145.0 153.0 L 139.5 166.5 L 135.0 174.0 L 132.0 178.5 L 131.0 179.0 " stroke="black" fill="none" stroke-width="7.0" stroke-linecap="round" stroke-linejoin="round" />
<path d="M 149.5 147.5 L 150.0 147.5 L 151.5 148.5 L 154.5 152.5 L 158.0 159.5 L 161.5 165.0 L 165.0 169.5 L 165.5 170.0 " stroke="black" fill="none" stroke-width="7.0" stroke-linecap="round" stroke-linejoin="round" />
<path d="M 127.0 199.0 L 126.5 199.5 L 124.5 200.0 L 125.0 200.0 L 128.0 198.5 L 135.0 196.5 L 145.5 194.0 L 158.0 192.0 L 170.0 191.5 L 171.5 191.5 " stroke="black" fill="none" stroke-width="7.0" stroke-linecap="round" stroke-linejoin="round" />
</svg>