<svg xmlns="http://www.w3.org/2000/svg" width="300" height="300" viewBox="0 0 300 300">
<path d="M 120.0 104.0 L 118.5 104.0 L 118.5 104.0 L 119.0 104.5 L 121.5 107.5 L 124.5 113.0 L 127.0 118.0 L 128.5 120.5 L 129.0 120.5 " stroke="black" fill="none" stroke-width="7.0" stroke-linecap="round" stroke-linejoin="round" />
<path d="M 125.5 102.5 L 125.5 101.0 L 126.5 99.0 L 128.5 97.0 L 132.0 95.5 L 136.0 94.5 L 140.0 94.5 L 141.5 97.0 L 141.0 100.5 L 138.5 105.5 L 134.5 111.5 L 130.5 116.5 L 128.0 118.5 L 128.0 118.0 L 130.0 116.0 L 135.0 112.5 L 137.5 111.0 " stroke="black" fill="none" stroke-width="7.0" stroke-linecap="round" stroke-linejoin="round" />
<path d="M 153.0 97.5 L 153.0 96.5 L 153.0 96.0 L 153.0 97.0 L 154.5 101.5 L 156.5 106.5 L 157.5 111.0 L 158.5 113.0 " stroke="black" fill="none" stroke-width="7.0" stroke-linecap="round" stroke-linejoin="round" />
<path d="M 155.5 97.5 L 155.5 96.0 L 156.0 95.0 L 158.0 93.5 L 162.0 92.0 L 167.5 90.5 L 171.5 89.0 L 173.5 89.5 L 174.0 92.5 L 172.5 96.5 L 170.0 101.5 L 166.5 106.0 L 163.0 109.5 L 160.0 112.0 L 160.0 112.0 L 162.5 110.5 L 166.5 108.0 L 170.5 106.0 L 172.0 105.5 " stroke="black" fill="none" stroke-width="7.0" stroke-linecap="round" stroke-linejoin="round" />
<path d="M 133.0 143.0 L 132.5 143.0 L 130.0 144.0 L 129.0 144.0 L 129.0 144.0 L 133.0 141.5 L 140.5 137.5 L 149.5 131.5 L 158.0 126.5 L 162.0 125.5 L 162.5 125.5 " stroke="black" fill="none" stroke-width="7.0" stroke-linecap="round" stroke-linejoin="round" />
<path d="M 148.5 122.5 L 148.0 122.5 L 147.5 122.5 L 147.5 123.0 L 147.0 127.5 L 145.5 137.0 L 141.5 148.0 L 135.5 158.5 L 131.0 164.0 L 129.0 165.0 " stroke="black" fill="none" stroke-width="7.0" stroke-linecap="round" stroke-linejoin="round" />
<path d="M 142.5 145.0 L 144.5 145.0 L 147.5 145.5 L 150.5 148.5 L 155.5 153.5 L 161.0 159.5 L 166.5 163.0 L 169.5 164.0 " stroke="black" fill="none" stroke-width="7.0" stroke-linecap="round" stroke-linejoin="round" />
<path d="M 171.0 117.5 L 171.0 117.0 L 171.0 117.0 L 172.5 120.0 L 175.0 125.5 L 175.5 127.5 " stroke="black" fill="none" stroke-width="7.0" stroke-linecap="round" stroke-linejoin="round" />
<path d="M 116.5 187.5 L 116.0 187.5 L 115.5 187.0 L 115.5 187.0 L 116.5 188.0 L 119.5 190.5 L 123.0 193.0 L 126.5 195.0 " stroke="black" fill="none" stroke-width="7.0" stroke-linecap="round" stroke-linejoin="round" />
<path d="M 124.5 185.0 L 124.5 184.5 L 124.5 183.0 L 126.0 182.0 L 129.5 180.5 L 136.0 178.0 L 142.0 177.0 L 145.0 177.5 L 146.0 181.0 L 144.5 185.5 L 140.5 190.0 L 136.0 194.5 L 132.5 197.5 L 131.0 198.0 L 132.5 196.0 L 136.5 192.0 L 142.5 188.0 L 145.5 186.0 " stroke="black" fill="none" stroke-width="7.0" stroke-linecap="round" stroke-linejoin="round" />
<path d="M 159.5 175.0 L 159.5 177.0 L 160.0 180.0 L 161.0 184.5 L 163.0 188.5 L 164.0 191.5 L 164.5 192.0 " stroke="black" fill="none" stroke-width="7.0" stroke-linecap="round" stroke-linejoin="round" />
<path d="M 162.5 177.0 L 163.5 175.5 L 165.0 174.0 L 167.0 173.5 L 169.5 173.5 L 172.0 174.0 L 174.0 176.0 L 175.0 178.0 L 175.5 181.5 L 175.0 186.0 L 172.5 190.0 L 169.5 193.0 L 167.0 194.5 L 166.0 194.5 L 166.5 193.5 L 169.0 192.0 L 171.5 190.5 L 175.0 189.5 " stroke="black" fill="none" stroke-width="7.0" stroke-linecap="round" stroke-linejoin="round" />
</svg>