<svg xmlns="http://www.w3.org/2000/svg" width="300" height="300" viewBox="0 0 300 300">
<path d="M 113.0 120.0 L 113.0 120.0 L 112.5 120.0 L 112.5 123.0 L 115.5 135.0 L 118.5 153.0 L 119.5 168.5 L 119.5 178.0 L 120.0 181.0 L 120.5 181.0 " stroke="black" fill="none" stroke-width="7.0" stroke-linecap="round" stroke-linejoin="round" />
<path d="M 119.0 127.5 L 120.0 124.5 L 122.0 122.0 L 125.5 121.0 L 130.0 120.5 L 138.5 119.0 L 149.5 116.0 L 157.5 113.0 L 165.0 112.0 L 170.5 113.5 L 173.0 118.0 L 175.0 124.5 L 176.0 136.0 L 176.0 149.5 L 176.0 163.5 L 174.5 174.0 L 173.0 181.5 L 171.0 185.0 L 168.5 185.0 L 167.5 184.5 " stroke="black" fill="none" stroke-width="7.0" stroke-linecap="round" stroke-linejoin="round" />
<path d="M 136.5 129.0 L 135.5 129.0 L 134.5 129.5 L 134.5 134.0 L 134.5 144.0 L 134.5 155.0 L 135.5 162.0 L 136.5 163.5 " stroke="black" fill="none" stroke-width="7.0" stroke-linecap="round" stroke-linejoin="round" />
<path d="M 151.0 124.0 L 151.5 123.5 L 152.0 123.5 L 152.5 128.0 L 153.0 139.5 L 153.0 151.5 L 153.0 160.0 L 152.5 162.0 " stroke="black" fill="none" stroke-width="7.0" stroke-linecap="round" stroke-linejoin="round" />
<path d="M 125.0 185.5 L 124.0 186.0 L 123.0 186.5 L 124.5 187.0 L 129.5 187.0 L 138.0 185.5 L 150.0 183.5 L 159.5 182.5 L 166.5 183.0 L 168.0 184.0 " stroke="black" fill="none" stroke-width="7.0" stroke-linecap="round" stroke-linejoin="round" />
</svg>