<svg xmlns="http://www.w3.org/2000/svg" width="300" height="300" viewBox="0 0 300 300">
<path d="M 130.5 125.5 L 129.5 126.5 L 128.5 127.0 L 128.5 127.5 L 131.0 127.5 L 137.5 125.0 L 147.0 121.0 L 156.0 116.0 L 163.0 111.5 L 166.5 108.5 " stroke="black" fill="none" stroke-width="7.0" stroke-linecap="round" stroke-linejoin="round" />
<path d="M 147.5 90.0 L 147.0 90.0 L 146.0 90.5 L 145.5 92.5 L 145.5 99.0 L 144.5 110.0 L 141.0 125.5 L 134.0 143.0 L 127.5 156.5 L 120.5 167.0 L 113.0 172.5 " stroke="black" fill="none" stroke-width="7.0" stroke-linecap="round" stroke-linejoin="round" />
<path d="M 132.5 150.5 L 132.5 153.0 L 132.5 158.5 L 133.0 167.5 L 133.5 178.5 L 134.5 188.0 L 135.5 193.0 L 135.5 193.5 " stroke="black" fill="none" stroke-width="7.0" stroke-linecap="round" stroke-linejoin="round" />
<path d="M 148.0 156.5 L 147.0 157.0 L 145.5 158.0 L 145.5 158.5 L 146.5 158.5 L 151.0 157.0 L 157.5 153.5 L 165.0 149.5 L 171.0 146.0 L 172.5 145.0 " stroke="black" fill="none" stroke-width="7.0" stroke-linecap="round" stroke-linejoin="round" />
<path d="M 164.5 133.5 L 164.0 134.5 L 163.5 137.0 L 163.5 143.5 L 163.5 153.5 L 164.0 165.0 L 164.0 172.5 L 164.0 173.5 " stroke="black" fill="none" stroke-width="7.0" stroke-linecap="round" stroke-linejoin="round" />
<path d="M 147.5 186.0 L 146.0 186.0 L 144.5 186.0 L 143.5 186.0 L 143.5 186.0 L 147.0 185.5 L 153.5 183.5 L 165.0 180.5 L 176.5 176.5 L 186.5 175.0 L 189.5 174.5 " stroke="black" fill="none" stroke-width="7.0" stroke-linecap="round" stroke-linejoin="round" />
</svg>