<svg xmlns="http://www.w3.org/2000/svg" width="300" height="300" viewBox="0 0 300 300">
<path d="M 109.0 149.0 L 109.0 149.5 L 108.0 150.5 L 107.5 151.0 L 107.5 151.0 L 109.0 150.0 L 113.0 147.5 L 119.5 144.0 L 126.0 139.5 L 130.5 135.5 L 131.0 133.5 " stroke="black" fill="none" stroke-width="7.0" stroke-linecap="round" stroke-linejoin="round" />
<path d="M 115.0 116.5 L 115.0 116.0 L 115.0 116.0 L 115.0 117.5 L 115.0 124.0 L 116.0 138.0 L 116.5 155.5 L 116.5 170.0 L 116.5 175.5 " stroke="black" fill="none" stroke-width="7.0" stroke-linecap="round" stroke-linejoin="round" />
<path d="M 98.0 195.0 L 96.0 195.5 L 95.0 196.0 L 95.0 196.0 L 99.5 193.5 L 106.5 189.0 L 118.0 181.5 L 131.5 171.0 L 137.5 166.0 " stroke="black" fill="none" stroke-width="7.0" stroke-linecap="round" stroke-linejoin="round" />
<path d="M 142.0 154.0 L 140.5 155.0 L 138.5 156.0 L 138.5 156.0 L 141.0 154.0 L 145.5 150.5 L 151.0 146.5 L 158.0 141.0 L 167.5 134.0 L 174.0 128.5 L 176.5 125.0 L 178.0 124.0 L 178.5 124.5 L 178.5 128.0 L 177.5 135.0 L 176.0 142.0 L 175.0 148.5 L 175.0 149.5 " stroke="black" fill="none" stroke-width="7.0" stroke-linecap="round" stroke-linejoin="round" />
<path d="M 160.0 112.0 L 160.0 112.0 L 159.5 113.0 L 159.5 117.5 L 159.5 127.0 L 159.5 141.5 L 159.5 152.0 L 159.5 157.5 " stroke="black" fill="none" stroke-width="7.0" stroke-linecap="round" stroke-linejoin="round" />
<path d="M 144.5 115.5 L 144.0 114.5 L 143.5 114.5 L 143.0 115.0 L 143.0 118.5 L 144.0 125.0 L 144.5 137.0 L 145.0 152.0 L 145.0 166.0 L 145.0 175.5 L 145.5 182.5 L 146.5 186.5 L 148.0 189.0 L 150.0 190.5 L 153.0 191.5 L 157.0 192.0 L 163.0 192.5 L 170.0 192.5 L 176.0 192.5 L 181.0 192.5 L 186.5 192.5 L 191.0 192.5 L 193.0 191.0 L 194.0 188.5 L 194.5 184.0 L 194.0 175.5 L 192.0 162.0 L 191.0 158.5 " stroke="black" fill="none" stroke-width="7.0" stroke-linecap="round" stroke-linejoin="round" />
</svg>