<svg xmlns="http://www.w3.org/2000/svg" width="300" height="300" viewBox="0 0 300 300">
<path d="M 117.0 107.5 L 117.0 107.0 L 116.0 106.0 L 116.0 106.0 L 116.5 111.0 L 118.5 122.5 L 120.5 143.0 L 120.5 166.5 L 120.0 183.5 L 118.5 194.0 L 118.5 199.5 L 118.5 200.0 L 118.5 199.0 " stroke="black" fill="none" stroke-width="7.0" stroke-linecap="round" stroke-linejoin="round" />
<path d="M 129.5 105.0 L 129.5 105.0 L 129.5 104.0 L 130.0 103.0 L 132.0 102.0 L 137.0 101.5 L 145.0 100.5 L 153.0 99.5 L 158.5 99.0 L 164.0 99.0 L 168.0 100.5 L 170.5 103.5 L 172.5 109.0 L 173.5 118.5 L 175.0 131.0 L 176.0 146.5 L 176.5 163.5 L 176.5 177.5 L 177.0 190.0 L 177.0 199.5 L 175.0 205.0 L 172.5 207.0 L 168.0 206.0 L 162.0 200.5 " stroke="black" fill="none" stroke-width="7.0" stroke-linecap="round" stroke-linejoin="round" />
<path d="M 133.0 118.0 L 133.0 118.0 L 133.0 118.0 L 133.0 118.5 L 134.5 120.5 L 137.5 123.5 L 140.5 126.5 L 142.0 127.5 " stroke="black" fill="none" stroke-width="7.0" stroke-linecap="round" stroke-linejoin="round" />
<path d="M 137.0 118.0 L 137.0 117.5 L 137.0 117.5 L 137.0 117.0 L 139.5 116.5 L 143.5 115.5 L 148.0 114.0 L 151.5 113.0 L 152.5 114.0 L 152.0 117.0 L 149.5 120.5 L 146.5 124.0 L 143.5 127.0 L 142.0 128.5 L 142.0 129.0 L 145.0 128.0 L 148.5 125.5 L 151.5 123.5 " stroke="black" fill="none" stroke-width="7.0" stroke-linecap="round" stroke-linejoin="round" />
<path d="M 148.5 129.5 L 148.0 130.0 L 147.5 131.5 L 147.0 134.0 L 145.0 139.5 L 142.5 145.0 " stroke="black" fill="none" stroke-width="7.0" stroke-linecap="round" stroke-linejoin="round" />
<path d="M 129.5 148.0 L 129.5 149.0 L 129.5 151.0 L 130.0 156.5 L 131.0 164.5 L 132.0 172.0 L 132.5 177.5 L 133.5 179.0 L 133.5 178.5 " stroke="black" fill="none" stroke-width="7.0" stroke-linecap="round" stroke-linejoin="round" />
<path d="M 135.0 148.0 L 135.5 147.0 L 137.0 146.0 L 140.0 145.5 L 145.0 144.5 L 150.5 142.5 L 155.5 141.5 L 160.5 141.0 L 163.5 142.0 L 165.5 144.5 L 167.0 149.0 L 167.0 155.0 L 167.5 162.5 L 167.5 169.5 L 166.5 176.5 L 165.0 182.5 L 162.5 185.5 L 160.5 185.5 L 159.0 184.5 " stroke="black" fill="none" stroke-width="7.0" stroke-linecap="round" stroke-linejoin="round" />
<path d="M 139.0 160.5 L 139.0 160.5 L 139.0 160.0 L 139.5 160.0 L 140.5 162.0 L 142.5 165.5 L 144.0 169.0 L 144.5 170.5 " stroke="black" fill="none" stroke-width="7.0" stroke-linecap="round" stroke-linejoin="round" />
<path d="M 143.0 159.5 L 142.5 159.0 L 142.5 158.5 L 144.0 157.0 L 146.5 156.0 L 149.0 155.0 L 151.5 154.5 L 152.5 156.0 L 152.5 159.0 L 151.5 162.5 L 150.0 165.5 L 148.0 167.5 L 147.0 169.5 L 146.0 170.0 L 146.0 170.0 L 148.0 169.5 L 150.5 168.0 L 152.0 167.5 " stroke="black" fill="none" stroke-width="7.0" stroke-linecap="round" stroke-linejoin="round" />
<path d="M 136.0 183.5 L 134.5 184.5 L 133.5 185.0 L 134.0 185.5 L 137.5 185.0 L 143.5 183.5 L 149.5 181.0 L 155.0 179.5 L 157.0 179.0 " stroke="black" fill="none" stroke-width="7.0" stroke-linecap="round" stroke-linejoin="round" />
<path d="M 126.5 203.5 L 125.5 203.5 L 124.5 203.5 L 125.5 203.5 L 130.5 203.0 L 139.0 201.5 L 149.5 200.0 L 158.0 199.5 L 161.5 199.5 " stroke="black" fill="none" stroke-width="7.0" stroke-linecap="round" stroke-linejoin="round" />
</svg>