<svg xmlns="http://www.w3.org/2000/svg" width="300" height="300" viewBox="0 0 300 300">
<path d="M 153.5 95.0 L 154.0 94.5 L 154.5 93.5 L 155.5 92.5 L 156.0 91.5 L 156.0 91.5 L 155.0 93.0 L 152.0 96.0 L 147.5 99.5 L 139.0 105.0 L 134.0 108.0 " stroke="black" fill="none" stroke-width="7.0" stroke-linecap="round" stroke-linejoin="round" />
<path d="M 123.0 126.0 L 123.0 126.0 L 121.5 126.5 L 120.5 127.0 L 120.5 127.0 L 120.5 127.0 L 123.0 127.0 L 127.5 125.5 L 134.5 123.5 L 146.0 119.5 L 157.5 115.0 L 165.5 112.0 L 169.0 111.0 L 169.5 110.5 L 169.0 111.5 " stroke="black" fill="none" stroke-width="7.0" stroke-linecap="round" stroke-linejoin="round" />
<path d="M 127.5 139.0 L 127.5 139.0 L 126.5 139.0 L 126.5 140.0 L 127.5 143.0 L 129.5 148.0 L 131.5 153.5 L 132.5 158.0 L 133.0 160.0 " stroke="black" fill="none" stroke-width="7.0" stroke-linecap="round" stroke-linejoin="round" />
<path d="M 121.5 152.0 L 120.0 152.0 L 118.5 152.0 L 119.0 152.0 L 122.0 152.0 L 128.0 151.0 L 137.0 148.0 L 150.5 143.0 L 161.0 139.0 L 168.0 137.0 L 171.5 135.5 L 172.0 134.5 L 172.0 134.5 " stroke="black" fill="none" stroke-width="7.0" stroke-linecap="round" stroke-linejoin="round" />
<path d="M 163.0 130.5 L 162.0 131.0 L 161.0 132.5 L 161.0 136.5 L 161.0 142.0 L 162.0 148.0 L 162.5 153.0 " stroke="black" fill="none" stroke-width="7.0" stroke-linecap="round" stroke-linejoin="round" />
<path d="M 131.5 173.0 L 131.0 173.5 L 130.0 174.0 L 129.0 174.0 L 128.5 174.0 L 128.5 174.0 L 130.0 173.5 L 135.0 172.5 L 143.5 170.0 L 153.5 167.0 L 164.0 164.0 L 171.0 162.5 L 173.0 162.5 L 173.5 162.5 " stroke="black" fill="none" stroke-width="7.0" stroke-linecap="round" stroke-linejoin="round" />
<path d="M 147.5 109.0 L 147.5 108.0 L 147.5 107.5 L 147.0 107.5 L 147.0 112.5 L 148.0 123.5 L 148.5 141.5 L 148.5 160.5 L 148.0 173.0 L 148.0 181.5 L 148.0 185.0 " stroke="black" fill="none" stroke-width="7.0" stroke-linecap="round" stroke-linejoin="round" />
<path d="M 113.0 195.5 L 113.0 195.5 L 112.0 195.5 L 111.0 195.0 L 111.0 195.0 L 114.0 195.0 L 122.5 194.5 L 134.5 193.0 L 151.0 190.0 L 166.0 187.0 L 176.5 185.0 L 183.5 184.0 L 188.5 184.0 " stroke="black" fill="none" stroke-width="7.0" stroke-linecap="round" stroke-linejoin="round" />
</svg>