<svg xmlns="http://www.w3.org/2000/svg" width="300" height="300" viewBox="0 0 300 300">
<path d="M 115.5 109.0 L 115.5 109.0 L 115.0 108.0 L 115.0 107.5 L 115.5 110.5 L 117.5 119.5 L 119.5 136.5 L 120.0 156.5 L 119.5 169.5 L 119.5 182.0 L 119.5 186.0 L 120.0 186.5 " stroke="black" fill="none" stroke-width="7.0" stroke-linecap="round" stroke-linejoin="round" />
<path d="M 128.0 105.0 L 128.0 105.0 L 128.5 105.0 L 129.0 104.5 L 131.5 104.0 L 137.5 103.5 L 146.0 102.5 L 154.0 101.5 L 162.0 100.0 L 169.0 100.0 L 173.5 100.5 L 176.5 102.5 L 178.5 107.5 L 180.5 115.5 L 182.0 126.0 L 183.0 138.5 L 183.0 151.5 L 183.0 165.0 L 181.5 176.0 L 179.5 186.0 L 177.5 192.0 L 175.0 193.5 L 173.0 193.0 L 170.0 189.0 " stroke="black" fill="none" stroke-width="7.0" stroke-linecap="round" stroke-linejoin="round" />
<path d="M 137.5 124.5 L 137.0 124.5 L 135.5 125.0 L 136.0 125.0 L 140.0 125.0 L 145.5 123.0 L 150.5 120.5 L 153.5 119.0 L 156.0 117.5 L 156.0 117.0 " stroke="black" fill="none" stroke-width="7.0" stroke-linecap="round" stroke-linejoin="round" />
<path d="M 130.0 140.5 L 130.0 142.0 L 130.5 145.0 L 132.0 148.0 L 133.5 150.0 L 134.0 150.5 " stroke="black" fill="none" stroke-width="7.0" stroke-linecap="round" stroke-linejoin="round" />
<path d="M 132.5 140.0 L 133.0 139.5 L 133.5 138.5 L 135.0 138.0 L 138.0 136.5 L 140.5 135.5 L 143.5 135.0 L 144.5 137.0 L 144.0 139.5 L 142.0 144.0 L 139.5 147.0 L 137.5 149.0 L 136.5 150.0 L 136.5 150.0 L 139.0 148.5 L 141.5 146.5 L 143.5 145.0 L 144.5 144.5 " stroke="black" fill="none" stroke-width="7.0" stroke-linecap="round" stroke-linejoin="round" />
<path d="M 132.0 162.0 L 131.0 163.5 L 130.5 164.5 L 132.0 164.0 L 135.0 162.5 L 139.5 159.5 L 143.5 156.5 " stroke="black" fill="none" stroke-width="7.0" stroke-linecap="round" stroke-linejoin="round" />
<path d="M 147.0 107.5 L 146.5 110.0 L 147.5 115.0 L 150.5 125.0 L 155.0 139.0 L 160.5 154.0 L 164.5 163.0 L 168.5 171.5 L 170.5 176.0 L 171.0 177.0 L 171.5 176.0 L 171.0 171.5 L 171.0 170.0 " stroke="black" fill="none" stroke-width="7.0" stroke-linecap="round" stroke-linejoin="round" />
<path d="M 168.5 135.5 L 168.5 135.0 L 168.0 133.0 L 167.5 133.0 L 165.5 136.5 L 161.5 144.0 L 155.0 155.5 L 148.0 168.0 L 140.5 176.5 L 136.5 179.0 " stroke="black" fill="none" stroke-width="7.0" stroke-linecap="round" stroke-linejoin="round" />
<path d="M 163.0 110.0 L 161.5 110.0 L 162.0 111.0 L 165.5 115.0 L 170.0 121.0 L 173.5 127.0 L 175.0 130.0 " stroke="black" fill="none" stroke-width="7.0" stroke-linecap="round" stroke-linejoin="round" />
<path d="M 130.5 190.5 L 130.0 191.0 L 128.0 192.5 L 128.5 192.5 L 132.5 192.0 L 141.0 190.0 L 150.0 187.0 L 158.0 185.5 L 161.5 185.5 " stroke="black" fill="none" stroke-width="7.0" stroke-linecap="round" stroke-linejoin="round" />
</svg>