<svg xmlns="http://www.w3.org/2000/svg" width="300" height="300" viewBox="0 0 300 300">
<path d="M 127.5 108.0 L 126.5 108.5 L 126.0 109.0 L 125.5 109.0 L 126.0 109.0 L 129.0 109.0 L 135.0 107.5 L 145.5 103.5 L 157.0 98.0 L 166.5 94.0 L 171.5 92.5 L 172.5 92.5 L 172.5 93.0 " stroke="black" fill="none" stroke-width="7.0" stroke-linecap="round" stroke-linejoin="round" />
<path d="M 135.0 87.5 L 135.0 86.5 L 135.5 85.0 L 136.0 85.5 L 137.5 93.0 L 138.5 105.5 L 139.0 123.0 L 139.0 137.0 L 139.5 144.5 L 140.5 146.5 " stroke="black" fill="none" stroke-width="7.0" stroke-linecap="round" stroke-linejoin="round" />
<path d="M 162.5 68.5 L 162.5 68.5 L 162.0 68.5 L 162.0 73.0 L 163.5 85.5 L 164.5 103.0 L 164.5 117.5 L 164.5 135.0 L 165.0 142.5 L 166.0 146.5 L 166.0 147.0 " stroke="black" fill="none" stroke-width="7.0" stroke-linecap="round" stroke-linejoin="round" />
<path d="M 146.0 120.5 L 146.0 120.5 L 144.5 121.0 L 144.0 121.0 L 145.5 121.0 L 148.5 119.5 L 151.5 118.0 L 157.0 115.0 " stroke="black" fill="none" stroke-width="7.0" stroke-linecap="round" stroke-linejoin="round" />
<path d="M 145.5 131.0 L 145.0 131.5 L 144.5 132.5 L 144.5 133.5 L 147.0 133.5 L 150.0 133.0 L 153.5 131.0 L 154.5 130.5 " stroke="black" fill="none" stroke-width="7.0" stroke-linecap="round" stroke-linejoin="round" />
<path d="M 120.0 151.5 L 119.0 152.0 L 118.0 152.5 L 117.5 152.5 L 118.5 152.5 L 122.5 152.5 L 128.5 152.0 L 138.0 150.5 L 151.0 147.0 L 165.0 143.0 L 174.5 140.5 L 180.5 140.0 L 183.5 140.5 " stroke="black" fill="none" stroke-width="7.0" stroke-linecap="round" stroke-linejoin="round" />
<path d="M 150.0 149.5 L 150.0 149.5 L 149.0 149.5 L 148.5 149.5 L 147.5 150.0 L 145.0 153.5 L 139.5 160.5 L 131.5 169.0 L 126.0 175.0 L 122.5 177.5 L 122.0 177.5 " stroke="black" fill="none" stroke-width="7.0" stroke-linecap="round" stroke-linejoin="round" />
<path d="M 158.0 145.5 L 158.0 146.0 L 158.5 147.0 L 160.0 148.0 L 164.5 150.5 L 170.0 153.5 L 175.0 156.5 L 180.0 159.5 L 184.0 161.5 L 186.5 162.5 " stroke="black" fill="none" stroke-width="7.0" stroke-linecap="round" stroke-linejoin="round" />
<path d="M 140.5 180.5 L 139.5 180.5 L 137.5 181.0 L 136.5 181.0 L 137.0 180.5 L 141.0 179.0 L 146.5 176.0 L 152.5 172.5 L 158.0 169.5 L 162.0 167.5 " stroke="black" fill="none" stroke-width="7.0" stroke-linecap="round" stroke-linejoin="round" />
<path d="M 151.0 161.5 L 151.0 162.0 L 151.0 164.0 L 151.0 168.0 L 151.0 175.5 L 151.0 183.5 L 151.0 189.5 " stroke="black" fill="none" stroke-width="7.0" stroke-linecap="round" stroke-linejoin="round" />
<path d="M 122.0 203.5 L 121.0 203.5 L 120.0 203.5 L 120.0 203.5 L 123.0 203.5 L 128.5 202.0 L 139.0 199.0 L 153.5 194.5 L 166.0 191.5 L 175.0 190.5 L 181.0 191.0 L 185.0 193.0 " stroke="black" fill="none" stroke-width="7.0" stroke-linecap="round" stroke-linejoin="round" />
</svg>