<svg xmlns="http://www.w3.org/2000/svg" width="300" height="300" viewBox="0 0 300 300">
<path d="M 134.5 101.0 L 134.5 101.5 L 134.0 102.5 L 133.5 107.0 L 131.0 117.5 L 126.5 130.0 L 121.0 141.5 L 116.0 145.5 L 115.0 145.5 " stroke="black" fill="none" stroke-width="7.0" stroke-linecap="round" stroke-linejoin="round" />
<path d="M 127.0 134.0 L 128.0 134.5 L 130.0 136.0 L 133.0 138.0 L 139.0 141.0 L 145.0 143.0 " stroke="black" fill="none" stroke-width="7.0" stroke-linecap="round" stroke-linejoin="round" />
<path d="M 172.5 100.0 L 172.5 100.0 L 172.5 99.0 L 172.5 99.0 L 172.5 100.5 L 172.5 106.5 L 171.0 117.0 L 168.5 126.0 L 162.5 136.5 L 155.5 143.0 L 153.5 143.0 " stroke="black" fill="none" stroke-width="7.0" stroke-linecap="round" stroke-linejoin="round" />
<path d="M 166.0 130.0 L 167.0 130.5 L 169.0 131.0 L 171.5 132.0 L 175.0 134.0 L 179.5 136.5 L 181.5 138.0 L 181.5 139.0 " stroke="black" fill="none" stroke-width="7.0" stroke-linecap="round" stroke-linejoin="round" />
<path d="M 124.0 162.0 L 122.5 162.0 L 121.0 162.5 L 120.5 162.5 L 122.0 162.5 L 126.0 162.0 L 133.5 161.5 L 146.0 160.0 L 160.5 157.0 L 172.5 154.5 L 177.0 154.5 L 179.0 155.0 " stroke="black" fill="none" stroke-width="7.0" stroke-linecap="round" stroke-linejoin="round" />
<path d="M 154.0 91.0 L 154.0 90.5 L 153.0 89.0 L 152.5 89.5 L 152.5 95.5 L 152.5 109.5 L 152.5 131.5 L 151.0 151.5 L 150.5 165.5 L 150.0 173.5 L 150.0 175.0 " stroke="black" fill="none" stroke-width="7.0" stroke-linecap="round" stroke-linejoin="round" />
<path d="M 108.0 186.0 L 107.0 186.0 L 106.0 186.5 L 106.0 187.0 L 108.5 187.0 L 116.5 186.5 L 130.0 185.5 L 144.0 183.5 L 167.0 179.5 L 179.5 178.0 L 187.0 178.0 L 195.0 180.0 L 195.5 181.0 " stroke="black" fill="none" stroke-width="7.0" stroke-linecap="round" stroke-linejoin="round" />
</svg>