<svg xmlns="http://www.w3.org/2000/svg" width="300" height="300" viewBox="0 0 300 300">
<path d="M 150.0 86.5 L 150.0 84.5 L 150.0 82.0 L 150.0 80.5 L 150.0 80.0 L 150.5 84.0 L 151.0 92.5 L 151.5 101.5 L 151.5 110.5 L 151.5 115.5 " stroke="black" fill="none" stroke-width="7.0" stroke-linecap="round" stroke-linejoin="round" />
<path d="M 129.5 105.0 L 128.5 105.0 L 128.0 104.5 L 128.0 104.0 L 131.0 104.0 L 134.0 104.0 " stroke="black" fill="none" stroke-width="7.0" stroke-linecap="round" stroke-linejoin="round" />
<path d="M 168.0 92.0 L 168.0 92.0 L 168.0 92.5 L 167.0 93.5 L 164.0 96.5 L 160.5 100.0 " stroke="black" fill="none" stroke-width="7.0" stroke-linecap="round" stroke-linejoin="round" />
<path d="M 109.0 126.5 L 109.0 126.5 L 109.0 127.0 L 109.0 127.5 L 109.5 129.5 L 111.0 133.5 L 113.0 137.5 L 114.0 139.5 " stroke="black" fill="none" stroke-width="7.0" stroke-linecap="round" stroke-linejoin="round" />
<path d="M 112.0 129.5 L 112.0 129.5 L 111.5 129.5 L 111.5 129.5 L 114.0 129.0 L 120.0 128.0 L 129.0 126.0 L 142.0 122.5 L 155.0 119.0 L 167.0 116.0 L 175.5 113.5 L 181.0 112.5 L 185.0 113.0 L 186.5 116.0 L 185.5 120.0 L 182.5 124.5 L 179.5 128.5 " stroke="black" fill="none" stroke-width="7.0" stroke-linecap="round" stroke-linejoin="round" />
<path d="M 131.0 144.0 L 131.0 144.0 L 130.5 143.5 L 130.5 143.5 L 131.5 144.5 L 133.5 147.0 L 136.5 149.0 L 138.0 150.0 " stroke="black" fill="none" stroke-width="7.0" stroke-linecap="round" stroke-linejoin="round" />
<path d="M 134.0 141.5 L 134.0 141.5 L 134.0 140.0 L 135.0 139.0 L 139.0 137.5 L 146.5 134.5 L 153.5 132.0 L 158.5 130.5 L 162.0 131.0 L 163.0 133.0 L 161.5 137.0 L 157.5 141.0 L 153.5 145.0 L 149.0 148.0 L 146.0 150.0 L 144.0 151.0 L 144.0 151.0 L 145.5 151.0 L 149.0 150.0 L 153.5 148.0 L 154.5 147.5 " stroke="black" fill="none" stroke-width="7.0" stroke-linecap="round" stroke-linejoin="round" />
<path d="M 131.5 175.0 L 130.0 175.5 L 129.0 176.0 L 129.0 176.0 L 132.0 175.0 L 139.0 172.0 L 147.5 168.5 L 156.5 164.5 L 163.5 162.5 L 164.5 162.0 " stroke="black" fill="none" stroke-width="7.0" stroke-linecap="round" stroke-linejoin="round" />
<path d="M 150.0 154.0 L 149.0 154.5 L 149.0 156.0 L 149.0 160.5 L 150.0 168.0 L 150.0 176.5 L 150.0 183.0 " stroke="black" fill="none" stroke-width="7.0" stroke-linecap="round" stroke-linejoin="round" />
<path d="M 113.5 200.5 L 113.0 201.0 L 111.5 201.5 L 111.0 201.5 L 112.0 201.5 L 116.0 200.5 L 122.5 198.5 L 132.0 196.0 L 147.0 192.0 L 160.5 189.0 L 172.5 187.5 L 179.5 187.5 L 185.0 188.0 L 187.5 188.0 " stroke="black" fill="none" stroke-width="7.0" stroke-linecap="round" stroke-linejoin="round" />
</svg>