<svg xmlns="http://www.w3.org/2000/svg" width="300" height="300" viewBox="0 0 300 300">
<path d="M 131.5 95.0 L 131.0 95.0 L 130.0 95.5 L 129.0 96.0 L 129.0 96.0 L 129.5 96.0 L 132.5 96.0 L 139.5 94.5 L 149.0 91.5 L 159.0 87.5 L 167.0 85.0 L 170.5 84.5 L 171.0 84.5 " stroke="black" fill="none" stroke-width="7.0" stroke-linecap="round" stroke-linejoin="round" />
<path d="M 152.5 75.0 L 152.5 75.0 L 152.0 77.5 L 152.0 82.0 L 152.5 91.0 L 152.5 100.0 L 152.5 105.5 " stroke="black" fill="none" stroke-width="7.0" stroke-linecap="round" stroke-linejoin="round" />
<path d="M 140.5 114.5 L 140.0 115.0 L 139.0 115.5 L 139.0 116.0 L 143.0 116.0 L 148.5 114.0 L 154.5 111.5 L 159.5 109.0 L 161.5 108.5 L 161.5 109.0 " stroke="black" fill="none" stroke-width="7.0" stroke-linecap="round" stroke-linejoin="round" />
<path d="M 105.5 137.0 L 105.5 136.5 L 105.5 135.5 L 105.5 135.0 L 106.0 135.0 L 107.5 137.5 L 109.5 141.5 L 111.5 144.5 L 113.0 147.0 L 113.0 147.5 " stroke="black" fill="none" stroke-width="7.0" stroke-linecap="round" stroke-linejoin="round" />
<path d="M 110.0 140.0 L 110.0 140.0 L 109.5 140.0 L 109.5 139.5 L 112.0 138.5 L 118.0 136.5 L 128.0 133.0 L 141.5 129.0 L 154.0 126.0 L 166.5 123.0 L 176.0 120.0 L 183.0 118.0 L 188.0 118.0 L 189.5 119.5 L 188.5 122.0 L 185.0 126.5 L 180.5 131.5 L 177.5 134.5 " stroke="black" fill="none" stroke-width="7.0" stroke-linecap="round" stroke-linejoin="round" />
<path d="M 140.0 147.0 L 139.5 147.5 L 137.0 148.0 L 136.5 148.0 L 138.0 148.0 L 143.5 147.0 L 149.0 145.0 L 153.5 143.0 L 156.5 141.5 " stroke="black" fill="none" stroke-width="7.0" stroke-linecap="round" stroke-linejoin="round" />
<path d="M 128.0 165.0 L 128.0 164.0 L 127.5 163.0 L 127.5 162.5 L 128.0 162.5 L 129.0 162.5 L 131.0 164.0 L 133.0 166.5 L 135.0 169.0 L 137.0 170.5 L 137.0 171.0 " stroke="black" fill="none" stroke-width="7.0" stroke-linecap="round" stroke-linejoin="round" />
<path d="M 133.5 165.0 L 133.5 164.5 L 133.5 164.5 L 133.5 164.0 L 134.0 164.0 L 137.5 163.0 L 143.5 161.5 L 150.5 159.5 L 157.0 156.5 L 162.5 155.0 L 165.5 154.5 L 166.5 155.0 L 166.5 156.5 L 164.5 159.5 L 161.0 163.0 L 158.5 166.0 " stroke="black" fill="none" stroke-width="7.0" stroke-linecap="round" stroke-linejoin="round" />
<path d="M 144.0 175.0 L 142.0 176.0 L 141.5 176.0 L 142.0 176.0 L 145.0 175.0 L 149.0 173.0 L 154.0 171.0 L 158.5 169.5 L 161.0 169.0 " stroke="black" fill="none" stroke-width="7.0" stroke-linecap="round" stroke-linejoin="round" />
<path d="M 142.5 181.0 L 142.5 181.0 L 142.0 182.0 L 141.5 183.5 L 141.5 186.0 L 142.5 189.5 L 144.0 193.5 L 146.0 196.0 " stroke="black" fill="none" stroke-width="7.0" stroke-linecap="round" stroke-linejoin="round" />
<path d="M 156.0 178.0 L 156.5 177.5 L 156.5 177.5 L 156.5 180.0 L 155.5 184.5 L 153.5 190.5 L 152.5 193.5 " stroke="black" fill="none" stroke-width="7.0" stroke-linecap="round" stroke-linejoin="round" />
<path d="M 116.0 202.0 L 114.0 202.0 L 114.0 202.0 L 116.5 202.0 L 123.0 202.0 L 132.5 200.5 L 148.0 198.5 L 163.0 196.5 L 174.5 196.5 L 182.5 197.5 L 190.0 199.5 L 193.0 200.0 " stroke="black" fill="none" stroke-width="7.0" stroke-linecap="round" stroke-linejoin="round" />
</svg>