<svg xmlns="http://www.w3.org/2000/svg" width="300" height="300" viewBox="0 0 300 300">
<path d="M 126.5 97.0 L 126.0 97.0 L 124.5 98.0 L 124.0 98.0 L 125.5 98.0 L 129.0 96.0 L 135.0 93.0 L 141.0 90.0 L 142.5 89.0 " stroke="black" fill="none" stroke-width="7.0" stroke-linecap="round" stroke-linejoin="round" />
<path d="M 135.5 96.5 L 135.0 98.5 L 135.0 102.0 L 135.5 107.0 L 136.0 111.5 " stroke="black" fill="none" stroke-width="7.0" stroke-linecap="round" stroke-linejoin="round" />
<path d="M 124.0 120.0 L 122.0 121.5 L 121.0 122.0 L 122.0 122.0 L 125.5 121.0 L 130.0 118.5 L 135.5 115.0 L 142.5 111.0 L 147.5 109.0 L 148.5 109.0 L 148.5 111.5 L 146.5 115.5 L 144.0 120.0 L 140.5 125.0 L 139.0 127.0 " stroke="black" fill="none" stroke-width="7.0" stroke-linecap="round" stroke-linejoin="round" />
<path d="M 127.0 134.0 L 125.5 135.0 L 125.0 135.0 L 126.5 134.5 L 129.5 132.5 L 134.5 130.0 L 140.0 128.0 L 142.5 127.0 " stroke="black" fill="none" stroke-width="7.0" stroke-linecap="round" stroke-linejoin="round" />
<path d="M 134.0 135.5 L 134.0 139.0 L 134.0 143.5 L 134.0 149.0 L 134.0 150.5 " stroke="black" fill="none" stroke-width="7.0" stroke-linecap="round" stroke-linejoin="round" />
<path d="M 117.0 105.0 L 116.5 106.0 L 116.0 108.0 L 116.5 115.5 L 118.0 128.0 L 119.0 140.0 L 119.0 148.5 L 119.0 153.5 L 118.5 156.0 L 118.5 157.0 L 120.0 157.0 L 123.0 156.0 L 127.5 154.0 L 132.0 151.5 L 138.0 150.5 L 145.0 150.0 " stroke="black" fill="none" stroke-width="7.0" stroke-linecap="round" stroke-linejoin="round" />
<path d="M 164.0 106.0 L 163.0 106.5 L 161.5 107.0 L 162.0 107.0 L 165.5 106.5 L 170.0 104.5 L 174.0 102.5 L 177.0 101.5 L 178.5 102.5 L 177.5 107.0 L 174.0 114.5 L 170.0 123.0 L 165.5 130.5 L 161.0 138.5 L 157.0 143.0 L 154.5 144.0 L 153.5 143.5 " stroke="black" fill="none" stroke-width="7.0" stroke-linecap="round" stroke-linejoin="round" />
<path d="M 155.5 118.5 L 156.0 118.5 L 158.0 120.0 L 163.0 123.5 L 170.5 128.5 L 177.0 133.5 L 183.0 137.5 " stroke="black" fill="none" stroke-width="7.0" stroke-linecap="round" stroke-linejoin="round" />
<path d="M 130.5 171.0 L 130.0 171.5 L 129.0 172.5 L 130.0 172.5 L 135.0 171.5 L 143.0 168.0 L 151.0 164.0 L 157.5 160.5 L 159.5 159.5 " stroke="black" fill="none" stroke-width="7.0" stroke-linecap="round" stroke-linejoin="round" />
<path d="M 149.5 150.5 L 149.0 151.5 L 148.5 155.0 L 148.5 161.5 L 148.5 169.5 L 148.5 178.5 L 148.5 183.5 " stroke="black" fill="none" stroke-width="7.0" stroke-linecap="round" stroke-linejoin="round" />
<path d="M 114.0 194.5 L 113.0 195.0 L 112.5 195.5 L 113.0 195.5 L 117.5 195.5 L 125.5 194.0 L 137.0 191.5 L 151.5 188.5 L 164.0 186.5 L 173.5 185.5 L 180.0 187.5 L 185.5 190.0 " stroke="black" fill="none" stroke-width="7.0" stroke-linecap="round" stroke-linejoin="round" />
</svg>