<svg xmlns="http://www.w3.org/2000/svg" width="300" height="300" viewBox="0 0 300 300">
<path d="M 122.0 98.0 L 122.0 98.0 L 121.5 98.0 L 121.5 98.5 L 122.5 101.0 L 125.0 105.5 L 127.5 110.0 L 129.0 113.5 L 129.5 113.5 " stroke="black" fill="none" stroke-width="7.0" stroke-linecap="round" stroke-linejoin="round" />
<path d="M 126.0 98.0 L 126.0 97.5 L 126.0 96.5 L 126.0 95.5 L 129.0 94.5 L 135.5 93.0 L 146.5 90.0 L 156.5 86.5 L 165.5 85.0 L 171.5 85.0 L 173.0 87.0 L 173.5 91.0 L 172.5 96.0 L 170.5 101.5 L 167.5 106.5 L 164.5 110.5 L 163.5 111.5 " stroke="black" fill="none" stroke-width="7.0" stroke-linecap="round" stroke-linejoin="round" />
<path d="M 138.5 102.5 L 138.0 103.0 L 138.0 104.0 L 140.0 105.5 L 144.5 106.5 " stroke="black" fill="none" stroke-width="7.0" stroke-linecap="round" stroke-linejoin="round" />
<path d="M 159.0 98.5 L 158.5 98.5 L 158.0 98.5 L 157.0 99.5 L 155.0 102.0 L 152.0 106.0 " stroke="black" fill="none" stroke-width="7.0" stroke-linecap="round" stroke-linejoin="round" />
<path d="M 130.0 119.0 L 129.0 119.5 L 128.5 119.5 L 129.5 120.0 L 134.0 120.0 L 141.5 117.5 L 151.0 113.5 L 159.0 110.0 L 163.0 109.5 L 164.0 110.0 " stroke="black" fill="none" stroke-width="7.0" stroke-linecap="round" stroke-linejoin="round" />
<path d="M 130.0 131.0 L 130.0 131.0 L 129.5 131.5 L 129.5 131.5 L 129.5 131.5 L 131.5 131.5 L 137.5 129.5 L 146.5 126.0 L 156.0 122.5 L 164.5 120.0 L 167.0 120.0 " stroke="black" fill="none" stroke-width="7.0" stroke-linecap="round" stroke-linejoin="round" />
<path d="M 150.0 97.0 L 149.5 97.0 L 149.0 97.0 L 148.5 100.5 L 148.0 109.5 L 147.5 121.0 L 147.5 130.0 L 147.5 134.5 " stroke="black" fill="none" stroke-width="7.0" stroke-linecap="round" stroke-linejoin="round" />
<path d="M 123.5 145.5 L 121.5 146.0 L 119.5 146.0 L 119.0 146.0 L 120.0 146.0 L 124.0 145.0 L 131.0 143.5 L 142.5 140.5 L 154.5 137.0 L 165.5 134.5 L 171.0 134.0 L 172.5 134.5 L 172.5 135.0 " stroke="black" fill="none" stroke-width="7.0" stroke-linecap="round" stroke-linejoin="round" />
<path d="M 124.0 153.5 L 124.0 153.5 L 123.0 153.5 L 123.0 153.5 L 123.5 156.0 L 125.5 159.5 L 127.5 163.0 L 129.0 164.0 " stroke="black" fill="none" stroke-width="7.0" stroke-linecap="round" stroke-linejoin="round" />
<path d="M 139.5 149.5 L 139.5 149.5 L 139.5 149.5 L 139.5 150.5 L 140.5 154.5 L 142.0 159.5 L 143.5 162.0 " stroke="black" fill="none" stroke-width="7.0" stroke-linecap="round" stroke-linejoin="round" />
<path d="M 151.0 147.5 L 151.0 148.0 L 151.0 149.0 L 151.5 151.0 L 152.5 154.0 L 154.0 157.5 L 155.0 159.5 " stroke="black" fill="none" stroke-width="7.0" stroke-linecap="round" stroke-linejoin="round" />
<path d="M 167.0 144.5 L 167.0 144.5 L 168.0 145.5 L 169.0 148.0 L 169.5 153.0 L 169.5 157.5 " stroke="black" fill="none" stroke-width="7.0" stroke-linecap="round" stroke-linejoin="round" />
<path d="M 132.0 184.0 L 131.5 184.0 L 130.0 184.5 L 128.5 185.0 L 128.0 185.0 L 128.5 185.0 L 133.0 183.5 L 141.0 180.5 L 150.0 176.5 L 158.5 172.5 L 164.0 171.0 L 165.5 171.0 " stroke="black" fill="none" stroke-width="7.0" stroke-linecap="round" stroke-linejoin="round" />
<path d="M 151.0 167.5 L 150.5 167.5 L 149.5 167.5 L 149.0 169.0 L 149.0 173.5 L 150.0 181.0 L 150.5 188.5 L 150.5 191.5 " stroke="black" fill="none" stroke-width="7.0" stroke-linecap="round" stroke-linejoin="round" />
<path d="M 119.5 202.0 L 119.0 202.0 L 117.5 203.0 L 116.5 203.5 L 116.5 203.5 L 120.0 203.5 L 126.5 201.0 L 137.0 197.5 L 152.0 193.0 L 166.5 190.0 L 175.0 189.0 L 181.0 189.0 " stroke="black" fill="none" stroke-width="7.0" stroke-linecap="round" stroke-linejoin="round" />
</svg>