<svg xmlns="http://www.w3.org/2000/svg" width="300" height="300" viewBox="0 0 300 300">
<path d="M 114.5 138.5 L 112.0 140.0 L 111.0 141.0 L 111.5 141.0 L 115.0 139.0 L 121.0 134.5 L 126.5 129.5 L 130.5 124.0 L 132.0 122.0 " stroke="black" fill="none" stroke-width="7.0" stroke-linecap="round" stroke-linejoin="round" />
<path d="M 121.0 105.0 L 120.5 105.0 L 119.5 105.0 L 119.0 108.0 L 120.5 116.5 L 122.5 129.5 L 123.0 144.5 L 123.0 155.5 L 123.0 164.5 L 122.0 168.0 " stroke="black" fill="none" stroke-width="7.0" stroke-linecap="round" stroke-linejoin="round" />
<path d="M 111.0 182.5 L 110.5 182.5 L 109.5 182.5 L 108.5 182.5 L 108.5 182.5 L 109.5 182.5 L 114.0 179.5 L 122.0 172.5 L 131.5 163.5 L 140.0 155.0 L 144.0 151.0 " stroke="black" fill="none" stroke-width="7.0" stroke-linecap="round" stroke-linejoin="round" />
<path d="M 147.0 100.5 L 147.0 100.0 L 146.5 99.5 L 147.0 100.0 L 148.0 103.5 L 150.0 109.5 L 151.5 116.0 L 153.0 119.5 L 153.0 120.0 " stroke="black" fill="none" stroke-width="7.0" stroke-linecap="round" stroke-linejoin="round" />
<path d="M 150.0 97.0 L 150.0 95.5 L 151.0 94.0 L 154.5 92.0 L 161.5 89.0 L 169.5 85.5 L 174.5 83.5 L 177.5 82.5 L 179.0 84.0 L 179.5 88.0 L 178.5 94.5 L 176.5 101.5 L 175.0 108.0 L 174.0 113.0 L 173.0 115.5 L 173.0 115.5 " stroke="black" fill="none" stroke-width="7.0" stroke-linecap="round" stroke-linejoin="round" />
<path d="M 158.5 105.5 L 156.0 106.0 L 154.5 106.0 L 154.5 106.0 L 156.5 106.0 L 161.0 105.0 L 166.5 103.0 L 171.5 101.0 L 173.5 100.0 " stroke="black" fill="none" stroke-width="7.0" stroke-linecap="round" stroke-linejoin="round" />
<path d="M 154.5 119.5 L 154.0 120.0 L 153.0 121.0 L 154.5 121.5 L 159.0 120.5 L 165.0 118.5 L 171.0 115.5 L 174.0 114.0 L 174.0 114.0 " stroke="black" fill="none" stroke-width="7.0" stroke-linecap="round" stroke-linejoin="round" />
<path d="M 145.0 138.5 L 144.0 139.0 L 143.0 139.5 L 144.0 140.0 L 148.0 140.0 L 154.0 138.0 L 164.0 133.5 L 173.0 128.0 L 177.0 126.0 L 177.5 126.0 " stroke="black" fill="none" stroke-width="7.0" stroke-linecap="round" stroke-linejoin="round" />
<path d="M 159.5 138.0 L 158.0 140.0 L 156.0 143.5 L 153.0 149.0 L 149.5 157.5 L 145.0 165.5 L 141.0 170.0 L 138.5 172.5 L 138.5 172.5 " stroke="black" fill="none" stroke-width="7.0" stroke-linecap="round" stroke-linejoin="round" />
<path d="M 150.5 158.0 L 153.5 154.0 L 159.0 150.0 L 166.5 147.0 L 172.5 144.5 L 177.0 143.0 L 181.0 142.5 L 184.5 144.0 L 187.0 147.0 L 188.5 151.5 L 189.0 158.0 L 189.5 165.0 L 188.0 173.0 L 186.0 182.0 L 183.0 189.5 L 180.0 194.5 L 177.0 197.0 L 174.5 197.0 L 172.0 193.5 L 170.0 190.0 " stroke="black" fill="none" stroke-width="7.0" stroke-linecap="round" stroke-linejoin="round" />
<path d="M 163.5 157.5 L 163.0 158.0 L 162.0 159.0 L 160.0 162.5 L 157.0 168.5 L 152.5 177.5 L 149.5 184.5 L 148.0 187.0 " stroke="black" fill="none" stroke-width="7.0" stroke-linecap="round" stroke-linejoin="round" />
<path d="M 172.5 154.5 L 172.5 156.5 L 172.0 161.5 L 169.5 171.0 L 165.0 184.5 L 160.0 194.5 L 157.5 199.5 " stroke="black" fill="none" stroke-width="7.0" stroke-linecap="round" stroke-linejoin="round" />
</svg>