<svg xmlns="http://www.w3.org/2000/svg" width="300" height="300" viewBox="0 0 300 300">
<path d="M 125.5 110.5 L 125.5 110.0 L 125.5 109.0 L 125.5 109.0 L 125.5 111.5 L 125.5 117.0 L 125.5 125.0 L 123.0 138.0 L 119.5 151.0 L 116.0 159.5 L 113.5 164.5 L 113.0 167.5 L 113.5 169.5 L 115.5 171.0 L 118.5 172.0 L 123.0 174.0 L 127.5 177.0 L 132.0 181.5 L 136.5 185.5 L 140.5 188.5 L 143.5 190.5 L 144.5 190.5 " stroke="black" fill="none" stroke-width="7.0" stroke-linecap="round" stroke-linejoin="round" />
<path d="M 135.0 139.5 L 134.0 139.5 L 133.0 142.0 L 132.0 150.0 L 130.0 163.5 L 125.5 177.0 L 119.0 187.5 L 112.0 193.0 L 107.5 194.0 " stroke="black" fill="none" stroke-width="7.0" stroke-linecap="round" stroke-linejoin="round" />
<path d="M 97.0 162.5 L 93.5 163.0 L 92.5 163.0 L 93.5 163.0 L 99.5 160.0 L 108.5 153.0 L 124.0 142.0 L 139.0 129.5 L 145.5 125.5 " stroke="black" fill="none" stroke-width="7.0" stroke-linecap="round" stroke-linejoin="round" />
<path d="M 161.5 117.0 L 161.0 117.5 L 159.0 118.5 L 158.0 119.0 L 158.0 119.0 L 161.0 119.0 L 165.5 117.0 L 171.0 114.5 L 175.0 112.5 L 177.5 111.5 L 178.0 113.5 L 177.0 117.5 L 174.5 121.0 L 172.0 125.0 L 170.5 128.0 L 169.5 131.0 L 169.5 134.0 L 169.5 137.0 L 170.5 141.5 L 171.5 147.0 L 172.5 153.0 L 173.5 161.0 L 174.0 169.0 L 174.5 177.0 L 174.0 184.0 L 172.5 188.5 L 170.0 190.5 L 167.0 191.0 L 162.5 189.0 L 158.5 183.5 L 156.0 177.5 " stroke="black" fill="none" stroke-width="7.0" stroke-linecap="round" stroke-linejoin="round" />
<path d="M 142.5 163.0 L 140.5 163.0 L 139.5 163.0 L 139.5 163.0 L 145.0 161.5 L 154.5 158.5 L 169.0 153.5 L 184.0 147.0 L 194.0 143.5 L 197.0 142.5 " stroke="black" fill="none" stroke-width="7.0" stroke-linecap="round" stroke-linejoin="round" />
</svg>