<svg xmlns="http://www.w3.org/2000/svg" width="300" height="300" viewBox="0 0 300 300">
<path d="M 144.5 89.0 L 142.5 89.0 L 141.5 89.0 L 142.5 89.0 L 145.0 89.5 L 148.0 91.0 L 150.0 93.0 " stroke="black" fill="none" stroke-width="7.0" stroke-linecap="round" stroke-linejoin="round" />
<path d="M 123.0 113.5 L 120.5 114.0 L 118.0 115.5 L 118.0 115.5 L 121.0 115.0 L 127.0 113.0 L 136.5 110.0 L 150.0 105.5 L 163.0 102.0 L 170.5 100.5 L 172.5 100.0 " stroke="black" fill="none" stroke-width="7.0" stroke-linecap="round" stroke-linejoin="round" />
<path d="M 134.0 122.5 L 134.0 122.5 L 134.0 122.5 L 133.5 123.5 L 132.5 127.5 L 129.5 136.5 L 124.0 148.0 L 117.0 157.5 L 112.5 162.0 L 111.5 162.5 " stroke="black" fill="none" stroke-width="7.0" stroke-linecap="round" stroke-linejoin="round" />
<path d="M 121.0 151.0 L 122.0 151.0 L 123.0 150.5 L 124.0 152.5 L 124.5 161.0 L 124.5 173.0 L 123.5 186.0 L 123.0 194.5 L 123.0 197.5 " stroke="black" fill="none" stroke-width="7.0" stroke-linecap="round" stroke-linejoin="round" />
<path d="M 163.0 117.0 L 163.0 117.5 L 163.0 118.5 L 162.0 121.5 L 159.0 129.0 L 155.0 138.0 L 151.5 144.5 L 150.0 145.5 " stroke="black" fill="none" stroke-width="7.0" stroke-linecap="round" stroke-linejoin="round" />
<path d="M 153.5 140.0 L 156.0 138.0 L 159.5 135.5 L 163.0 133.5 L 166.5 132.5 L 169.5 131.0 L 171.5 130.5 L 173.0 130.5 L 173.5 132.0 L 173.5 136.0 L 172.5 141.0 L 170.5 148.5 L 165.5 160.0 L 158.0 172.5 L 150.0 185.5 L 142.5 194.5 L 135.0 200.0 L 130.0 202.5 L 128.5 203.0 L 128.0 202.5 " stroke="black" fill="none" stroke-width="7.0" stroke-linecap="round" stroke-linejoin="round" />
<path d="M 155.5 149.0 L 155.5 149.0 L 155.5 148.0 L 156.0 147.5 L 159.0 148.5 L 162.0 150.5 L 165.5 153.0 L 167.5 155.0 " stroke="black" fill="none" stroke-width="7.0" stroke-linecap="round" stroke-linejoin="round" />
<path d="M 146.5 161.0 L 146.5 161.5 L 146.0 162.0 L 147.0 163.5 L 151.5 167.5 L 161.5 174.0 L 171.0 180.5 L 173.0 182.5 L 182.0 189.5 L 189.5 194.5 L 195.0 198.0 L 199.0 200.5 L 199.5 200.5 " stroke="black" fill="none" stroke-width="7.0" stroke-linecap="round" stroke-linejoin="round" />
</svg>