<svg xmlns="http://www.w3.org/2000/svg" width="300" height="300" viewBox="0 0 300 300">
<path d="M 135.0 136.0 L 134.0 136.5 L 132.5 137.0 L 132.5 137.0 L 136.5 136.0 L 144.0 133.0 L 152.5 128.5 L 159.5 124.5 L 164.0 123.0 " stroke="black" fill="none" stroke-width="7.0" stroke-linecap="round" stroke-linejoin="round" />
<path d="M 114.5 168.0 L 112.5 169.5 L 110.0 171.0 L 109.5 171.5 L 111.5 172.0 L 117.0 170.0 L 125.5 166.5 L 137.0 161.0 L 152.0 153.0 L 164.5 147.5 L 173.0 145.0 L 177.5 144.0 " stroke="black" fill="none" stroke-width="7.0" stroke-linecap="round" stroke-linejoin="round" />
<path d="M 151.5 101.5 L 151.5 101.5 L 150.5 101.5 L 150.0 103.5 L 150.5 114.0 L 150.5 131.5 L 148.0 150.0 L 141.0 167.0 L 132.0 182.5 L 125.5 193.5 L 118.0 201.5 L 113.0 204.5 " stroke="black" fill="none" stroke-width="7.0" stroke-linecap="round" stroke-linejoin="round" />
<path d="M 148.5 161.5 L 150.5 164.0 L 154.5 167.5 L 162.0 175.0 L 170.0 183.5 L 176.0 190.0 L 182.5 195.5 L 188.5 201.5 " stroke="black" fill="none" stroke-width="7.0" stroke-linecap="round" stroke-linejoin="round" />
</svg>