<svg xmlns="http://www.w3.org/2000/svg" width="300" height="300" viewBox="0 0 300 300">
<path d="M 135.5 110.5 L 135.5 110.5 L 135.0 110.5 L 134.5 111.0 L 133.0 115.0 L 130.5 125.0 L 125.5 139.0 L 119.0 149.5 L 114.0 155.0 L 112.0 156.0 " stroke="black" fill="none" stroke-width="7.0" stroke-linecap="round" stroke-linejoin="round" />
<path d="M 121.5 143.5 L 122.5 142.5 L 126.0 138.0 L 129.0 134.5 L 132.5 132.0 L 136.0 129.5 L 140.0 128.0 L 143.5 127.5 L 145.0 128.5 L 145.0 133.0 L 143.0 140.0 L 140.0 148.5 L 135.0 161.0 L 129.0 174.5 L 123.5 187.5 L 118.5 195.0 L 115.5 197.5 L 115.0 197.5 " stroke="black" fill="none" stroke-width="7.0" stroke-linecap="round" stroke-linejoin="round" />
<path d="M 124.0 154.5 L 124.0 154.0 L 125.0 153.0 L 127.0 154.5 L 130.0 158.5 L 133.0 160.0 " stroke="black" fill="none" stroke-width="7.0" stroke-linecap="round" stroke-linejoin="round" />
<path d="M 160.5 97.0 L 160.5 96.0 L 160.5 95.0 L 160.5 95.0 L 160.5 99.0 L 161.0 110.5 L 162.0 134.5 L 162.5 163.5 L 161.5 184.0 L 161.0 196.0 L 161.0 201.5 L 161.5 202.0 " stroke="black" fill="none" stroke-width="7.0" stroke-linecap="round" stroke-linejoin="round" />
<path d="M 169.0 140.0 L 169.0 140.5 L 169.0 142.0 L 173.0 146.5 L 180.5 153.5 L 188.5 158.5 L 190.0 159.5 " stroke="black" fill="none" stroke-width="7.0" stroke-linecap="round" stroke-linejoin="round" />
</svg>