<svg xmlns="http://www.w3.org/2000/svg" width="300" height="300" viewBox="0 0 300 300">
<path d="M 124.0 151.5 L 121.5 152.0 L 120.0 152.5 L 119.5 153.0 L 123.0 153.0 L 129.5 150.0 L 140.5 145.5 L 152.5 138.5 L 161.5 131.5 L 167.0 126.5 L 167.5 126.0 " stroke="black" fill="none" stroke-width="7.0" stroke-linecap="round" stroke-linejoin="round" />
<path d="M 145.5 100.5 L 144.0 100.0 L 143.0 100.0 L 143.0 101.5 L 143.5 108.5 L 144.5 121.5 L 142.5 138.0 L 135.5 156.0 L 127.5 174.0 L 120.0 188.0 L 111.5 198.0 L 108.0 201.5 " stroke="black" fill="none" stroke-width="7.0" stroke-linecap="round" stroke-linejoin="round" />
<path d="M 138.5 151.0 L 140.0 153.5 L 144.5 159.0 L 151.0 166.5 L 159.0 176.0 L 168.5 186.0 L 174.0 193.5 L 178.0 200.5 L 182.0 205.0 L 183.0 206.0 " stroke="black" fill="none" stroke-width="7.0" stroke-linecap="round" stroke-linejoin="round" />
</svg>