<svg xmlns="http://www.w3.org/2000/svg" width="300" height="300" viewBox="0 0 300 300">
<path d="M 125.5 104.5 L 125.5 104.0 L 125.5 103.0 L 125.0 103.0 L 125.0 104.5 L 124.5 112.5 L 123.0 124.0 L 120.5 138.5 L 117.5 147.0 L 114.0 156.5 L 112.5 161.0 L 112.5 164.0 L 112.5 166.0 L 114.5 168.5 L 117.0 170.5 L 120.5 173.0 L 125.0 176.0 L 130.0 180.0 L 135.5 184.5 L 141.5 189.0 L 146.0 192.5 L 148.0 195.5 " stroke="black" fill="none" stroke-width="7.0" stroke-linecap="round" stroke-linejoin="round" />
<path d="M 136.5 138.0 L 136.5 138.0 L 135.5 137.5 L 134.5 139.0 L 134.0 146.0 L 132.5 159.5 L 129.5 175.0 L 125.0 187.5 L 119.5 193.5 L 113.5 196.0 L 112.0 196.0 " stroke="black" fill="none" stroke-width="7.0" stroke-linecap="round" stroke-linejoin="round" />
<path d="M 90.5 173.0 L 89.5 173.5 L 88.5 173.5 L 89.5 172.5 L 96.0 169.5 L 107.0 161.5 L 125.0 146.5 L 140.5 132.5 L 150.5 123.0 " stroke="black" fill="none" stroke-width="7.0" stroke-linecap="round" stroke-linejoin="round" />
<path d="M 171.0 104.5 L 171.0 103.5 L 171.0 102.5 L 171.0 102.5 L 170.5 106.5 L 169.5 114.0 L 167.5 124.0 L 164.0 135.5 L 159.5 143.0 L 156.0 146.5 L 154.0 147.0 L 153.5 147.0 L 154.0 147.0 L 156.0 146.0 L 159.5 144.0 L 164.5 141.5 L 170.0 139.0 L 175.0 137.0 L 179.5 135.0 L 182.0 133.5 " stroke="black" fill="none" stroke-width="7.0" stroke-linecap="round" stroke-linejoin="round" />
<path d="M 182.5 129.0 L 182.5 128.5 L 182.0 128.0 L 182.0 128.0 L 183.0 129.0 L 186.5 135.0 L 189.5 141.5 L 191.5 145.5 L 192.0 149.5 " stroke="black" fill="none" stroke-width="7.0" stroke-linecap="round" stroke-linejoin="round" />
<path d="M 151.0 165.5 L 151.0 165.0 L 150.5 164.0 L 150.5 163.5 L 151.5 166.0 L 153.0 172.5 L 154.5 180.5 L 156.0 187.5 L 157.0 190.5 L 157.5 190.5 " stroke="black" fill="none" stroke-width="7.0" stroke-linecap="round" stroke-linejoin="round" />
<path d="M 158.0 167.5 L 158.0 167.5 L 157.0 167.5 L 156.5 167.5 L 156.0 167.5 L 158.5 166.5 L 165.0 164.5 L 172.5 161.0 L 179.0 158.5 L 184.5 157.0 L 187.5 157.0 L 188.5 159.0 L 188.5 163.5 L 187.0 169.5 L 184.5 177.0 L 182.0 185.0 L 180.5 188.5 " stroke="black" fill="none" stroke-width="7.0" stroke-linecap="round" stroke-linejoin="round" />
<path d="M 165.5 194.0 L 163.0 195.0 L 160.5 196.0 L 160.0 196.5 L 160.0 196.5 L 163.5 196.0 L 169.0 194.0 L 175.0 191.5 L 181.5 189.5 L 184.5 189.0 " stroke="black" fill="none" stroke-width="7.0" stroke-linecap="round" stroke-linejoin="round" />
</svg>