<svg xmlns="http://www.w3.org/2000/svg" width="300" height="300" viewBox="0 0 300 300">
<path d="M 131.5 102.5 L 130.5 103.0 L 129.5 103.0 L 129.0 103.0 L 131.0 102.0 L 137.5 100.5 L 147.0 97.5 L 157.5 93.0 L 165.5 89.0 L 168.0 87.5 L 168.0 87.5 " stroke="black" fill="none" stroke-width="7.0" stroke-linecap="round" stroke-linejoin="round" />
<path d="M 106.5 147.5 L 105.0 148.5 L 105.0 148.5 L 105.5 148.5 L 109.5 147.5 L 118.0 145.5 L 130.5 140.5 L 148.5 134.0 L 165.5 126.5 L 178.5 121.5 L 188.0 119.5 L 191.5 118.5 " stroke="black" fill="none" stroke-width="7.0" stroke-linecap="round" stroke-linejoin="round" />
<path d="M 154.5 100.0 L 153.0 102.0 L 152.0 105.0 L 152.0 114.0 L 151.0 127.5 L 147.5 144.0 L 138.5 162.0 L 128.5 176.0 L 120.0 185.5 L 110.0 190.0 L 107.0 190.5 " stroke="black" fill="none" stroke-width="7.0" stroke-linecap="round" stroke-linejoin="round" />
<path d="M 149.0 139.5 L 149.5 140.0 L 151.5 141.5 L 157.0 145.0 L 167.0 154.0 L 177.5 166.5 L 188.0 179.0 L 195.0 187.0 L 201.0 191.5 L 202.5 192.5 " stroke="black" fill="none" stroke-width="7.0" stroke-linecap="round" stroke-linejoin="round" />
</svg>