<svg xmlns="http://www.w3.org/2000/svg" width="300" height="300" viewBox="0 0 300 300">
<path d="M 129.0 105.5 L 129.0 105.0 L 129.0 104.5 L 128.5 103.5 L 128.0 103.5 L 128.0 103.5 L 128.0 106.0 L 128.0 113.0 L 127.5 125.5 L 125.5 142.5 L 123.5 157.5 L 120.5 168.5 L 118.5 175.5 L 117.5 180.5 L 117.5 182.5 L 118.0 184.0 L 119.5 184.5 L 122.0 185.5 L 125.0 187.5 L 128.0 190.5 L 132.5 195.0 L 138.0 200.5 L 144.0 205.5 L 148.5 208.5 L 150.5 209.5 L 151.0 209.5 " stroke="black" fill="none" stroke-width="7.0" stroke-linecap="round" stroke-linejoin="round" />
<path d="M 137.5 157.5 L 138.0 157.0 L 138.0 156.0 L 138.0 155.5 L 138.0 156.5 L 138.0 163.0 L 137.0 174.5 L 132.5 190.0 L 127.5 204.0 L 122.0 212.0 L 120.5 213.0 " stroke="black" fill="none" stroke-width="7.0" stroke-linecap="round" stroke-linejoin="round" />
<path d="M 100.5 180.0 L 99.5 180.0 L 98.0 180.5 L 98.5 179.5 L 103.5 177.0 L 112.5 171.0 L 128.0 160.5 L 143.0 148.0 L 152.5 140.5 " stroke="black" fill="none" stroke-width="7.0" stroke-linecap="round" stroke-linejoin="round" />
<path d="M 153.5 165.5 L 153.5 165.5 L 153.5 166.0 L 153.5 167.0 L 154.0 171.0 L 156.0 178.0 L 158.0 183.0 L 159.0 185.5 " stroke="black" fill="none" stroke-width="7.0" stroke-linecap="round" stroke-linejoin="round" />
<path d="M 163.5 163.5 L 162.5 163.5 L 161.0 163.0 L 161.0 162.5 L 164.0 161.0 L 168.5 158.5 L 174.0 155.5 L 179.5 153.0 L 183.0 152.5 L 184.0 156.0 L 183.5 161.5 L 181.0 167.0 L 178.0 172.5 L 176.5 176.0 " stroke="black" fill="none" stroke-width="7.0" stroke-linecap="round" stroke-linejoin="round" />
<path d="M 163.5 186.5 L 161.5 186.5 L 160.5 186.5 L 161.5 185.5 L 165.5 184.0 L 171.0 181.5 L 177.5 178.0 L 181.0 176.5 " stroke="black" fill="none" stroke-width="7.0" stroke-linecap="round" stroke-linejoin="round" />
</svg>