<svg xmlns="http://www.w3.org/2000/svg" width="300" height="300" viewBox="0 0 300 300">
<path d="M 135.0 96.0 L 134.5 96.0 L 133.5 96.0 L 133.5 96.0 L 135.0 96.0 L 141.0 94.5 L 148.5 92.0 L 155.0 89.0 L 160.0 87.0 L 161.5 87.0 " stroke="black" fill="none" stroke-width="7.0" stroke-linecap="round" stroke-linejoin="round" />
<path d="M 134.0 110.0 L 133.5 110.5 L 132.5 112.0 L 133.0 112.5 L 136.5 112.0 L 143.0 110.0 L 150.0 107.0 L 155.5 104.0 L 158.5 103.0 L 159.0 103.5 " stroke="black" fill="none" stroke-width="7.0" stroke-linecap="round" stroke-linejoin="round" />
<path d="M 122.0 131.5 L 120.0 132.5 L 116.5 133.5 L 115.5 134.0 L 115.5 134.0 L 119.5 133.5 L 125.5 131.5 L 133.5 128.0 L 145.5 124.0 L 158.0 120.0 L 169.0 117.0 L 175.5 116.0 " stroke="black" fill="none" stroke-width="7.0" stroke-linecap="round" stroke-linejoin="round" />
<path d="M 149.0 74.5 L 148.5 73.5 L 148.0 71.5 L 148.0 72.0 L 148.0 74.5 L 149.0 83.5 L 149.0 97.0 L 146.5 109.5 L 137.0 132.5 L 128.5 148.5 L 120.5 161.0 L 111.5 168.5 L 107.5 170.5 L 106.5 170.5 " stroke="black" fill="none" stroke-width="7.0" stroke-linecap="round" stroke-linejoin="round" />
<path d="M 151.0 126.0 L 151.0 125.5 L 150.5 125.0 L 150.0 124.5 L 151.5 126.0 L 156.0 131.0 L 164.0 137.0 L 172.5 142.0 L 178.0 145.0 L 182.0 146.5 L 183.0 147.5 " stroke="black" fill="none" stroke-width="7.0" stroke-linecap="round" stroke-linejoin="round" />
<path d="M 138.5 154.5 L 138.0 154.5 L 136.5 155.0 L 135.5 155.0 L 135.0 155.5 L 136.0 156.0 L 140.5 156.0 L 147.0 154.0 L 152.5 151.5 L 157.0 149.5 L 159.5 148.5 L 159.5 148.5 " stroke="black" fill="none" stroke-width="7.0" stroke-linecap="round" stroke-linejoin="round" />
<path d="M 124.0 175.0 L 123.5 175.5 L 122.0 176.0 L 121.0 176.5 L 121.0 176.5 L 123.0 176.5 L 126.5 176.0 L 132.5 174.5 L 142.0 171.5 L 152.5 167.5 L 162.0 164.0 L 168.5 162.5 L 170.0 162.5 " stroke="black" fill="none" stroke-width="7.0" stroke-linecap="round" stroke-linejoin="round" />
<path d="M 149.5 136.0 L 149.5 136.0 L 149.0 136.0 L 148.5 136.0 L 148.5 138.5 L 148.5 148.5 L 149.5 166.0 L 149.0 183.0 L 148.5 194.5 L 148.5 201.5 L 148.5 202.5 " stroke="black" fill="none" stroke-width="7.0" stroke-linecap="round" stroke-linejoin="round" />
</svg>