<svg xmlns="http://www.w3.org/2000/svg" width="300" height="300" viewBox="0 0 300 300">
<path d="M 148.0 93.5 L 148.0 93.5 L 148.0 92.5 L 148.0 92.0 L 148.5 92.0 L 148.5 93.0 L 148.0 97.0 L 147.5 104.5 L 146.0 116.5 L 143.5 129.0 L 139.5 140.5 L 135.5 149.5 L 133.0 156.5 L 131.0 161.5 L 129.5 163.5 L 129.0 164.5 L 129.0 165.0 L 129.0 165.0 L 129.0 165.5 L 130.0 166.5 L 132.5 167.5 L 136.0 169.0 L 141.5 171.5 L 148.0 175.5 L 154.5 181.0 L 162.0 186.0 L 167.5 189.5 L 170.5 191.5 L 171.0 191.5 " stroke="black" fill="none" stroke-width="7.0" stroke-linecap="round" stroke-linejoin="round" />
<path d="M 161.0 135.0 L 161.0 135.0 L 160.5 134.5 L 160.0 134.5 L 160.0 135.0 L 160.0 139.0 L 160.0 146.5 L 157.5 158.0 L 151.0 171.0 L 143.0 183.5 L 133.5 191.5 L 126.5 196.5 " stroke="black" fill="none" stroke-width="7.0" stroke-linecap="round" stroke-linejoin="round" />
<path d="M 102.5 146.0 L 102.5 146.0 L 101.5 146.0 L 101.0 146.0 L 101.0 146.0 L 101.0 145.0 L 102.0 144.5 L 104.5 143.5 L 109.5 142.5 L 119.5 140.5 L 134.0 137.0 L 151.0 132.5 L 165.5 128.5 L 176.5 126.5 L 184.0 125.0 " stroke="black" fill="none" stroke-width="7.0" stroke-linecap="round" stroke-linejoin="round" />
</svg>