<svg xmlns="http://www.w3.org/2000/svg" width="300" height="300" viewBox="0 0 300 300">
<path d="M 127.5 108.5 L 127.5 108.5 L 127.5 108.0 L 127.5 108.0 L 127.5 110.5 L 127.0 118.5 L 126.5 131.0 L 124.5 145.0 L 122.0 156.5 L 118.5 164.5 L 117.0 169.0 L 116.5 172.5 L 118.5 174.5 L 122.0 176.5 L 125.0 178.5 L 130.5 182.0 L 135.0 186.0 L 139.5 190.0 L 143.5 192.5 L 145.0 193.5 " stroke="black" fill="none" stroke-width="7.0" stroke-linecap="round" stroke-linejoin="round" />
<path d="M 138.5 138.5 L 138.0 138.5 L 137.0 140.0 L 136.5 145.5 L 134.5 158.0 L 131.0 172.0 L 126.0 185.5 L 119.0 195.0 L 111.5 199.5 L 110.0 200.0 " stroke="black" fill="none" stroke-width="7.0" stroke-linecap="round" stroke-linejoin="round" />
<path d="M 100.5 161.5 L 100.0 161.5 L 98.0 161.5 L 99.0 161.5 L 102.5 161.5 L 113.0 157.0 L 127.5 147.0 L 142.0 136.5 L 145.0 134.5 " stroke="black" fill="none" stroke-width="7.0" stroke-linecap="round" stroke-linejoin="round" />
<path d="M 154.5 151.0 L 154.0 151.0 L 151.5 152.0 L 151.0 152.0 L 151.5 152.0 L 156.0 150.0 L 163.5 146.0 L 172.5 141.5 L 180.5 137.0 L 183.5 135.5 " stroke="black" fill="none" stroke-width="7.0" stroke-linecap="round" stroke-linejoin="round" />
<path d="M 172.0 115.5 L 171.0 117.0 L 170.5 120.5 L 170.0 130.0 L 169.5 144.5 L 168.5 159.0 L 167.0 170.5 L 166.5 172.5 " stroke="black" fill="none" stroke-width="7.0" stroke-linecap="round" stroke-linejoin="round" />
<path d="M 149.0 184.0 L 149.0 184.0 L 148.5 184.0 L 149.0 184.5 L 151.0 188.0 L 154.5 192.5 L 158.5 196.5 L 159.5 197.5 " stroke="black" fill="none" stroke-width="7.0" stroke-linecap="round" stroke-linejoin="round" />
<path d="M 155.0 183.5 L 155.0 183.0 L 154.5 182.0 L 156.5 180.5 L 161.5 178.5 L 169.0 175.0 L 177.0 171.5 L 183.5 169.5 L 187.0 169.5 L 188.5 172.0 L 188.0 175.5 L 184.0 183.0 L 179.0 189.5 L 174.0 195.0 L 170.5 198.5 L 167.0 201.0 L 165.5 201.0 L 165.0 201.0 L 165.5 200.5 L 169.0 199.0 L 173.0 197.5 L 178.5 195.5 L 183.0 195.0 " stroke="black" fill="none" stroke-width="7.0" stroke-linecap="round" stroke-linejoin="round" />
</svg>