<svg xmlns="http://www.w3.org/2000/svg" width="300" height="300" viewBox="0 0 300 300">
<path d="M 125.5 104.0 L 125.0 103.5 L 124.0 101.5 L 123.5 100.5 L 123.5 101.0 L 125.0 104.5 L 126.5 114.5 L 127.0 130.5 L 125.5 150.5 L 120.5 170.0 L 113.0 183.5 L 108.0 191.5 L 106.5 193.0 " stroke="black" fill="none" stroke-width="7.0" stroke-linecap="round" stroke-linejoin="round" />
<path d="M 131.5 109.0 L 131.5 109.0 L 131.5 108.5 L 132.0 108.0 L 134.0 108.0 L 139.0 107.0 L 147.0 104.5 L 154.0 101.0 L 160.0 98.5 L 165.5 96.5 L 168.5 95.0 L 170.0 93.5 L 170.5 92.5 L 170.5 92.5 L 170.5 94.0 L 171.0 97.0 L 171.0 102.0 L 171.0 111.0 L 172.0 124.5 L 173.0 140.5 L 175.5 156.0 L 178.0 168.5 L 181.5 178.0 L 185.0 185.0 L 188.5 188.5 L 190.5 189.0 L 191.5 187.0 L 192.0 181.0 L 192.0 170.0 " stroke="black" fill="none" stroke-width="7.0" stroke-linecap="round" stroke-linejoin="round" />
<path d="M 143.0 128.0 L 142.5 128.0 L 141.5 128.5 L 142.5 128.5 L 146.5 127.0 L 151.5 123.5 L 157.5 119.5 L 159.0 119.0 " stroke="black" fill="none" stroke-width="7.0" stroke-linecap="round" stroke-linejoin="round" />
<path d="M 154.5 125.0 L 152.5 126.5 L 151.5 128.0 L 150.5 130.5 L 149.0 136.0 L 146.0 143.5 L 140.0 152.5 L 133.5 161.0 L 130.0 163.5 " stroke="black" fill="none" stroke-width="7.0" stroke-linecap="round" stroke-linejoin="round" />
<path d="M 144.0 148.0 L 145.0 147.0 L 149.0 144.5 L 152.0 142.0 L 155.5 140.0 L 158.0 139.5 L 160.0 141.0 L 160.5 144.5 L 159.5 149.5 L 156.5 157.0 L 152.0 165.5 L 146.5 174.0 L 139.0 182.0 L 132.0 187.0 L 129.0 188.0 L 128.5 188.0 " stroke="black" fill="none" stroke-width="7.0" stroke-linecap="round" stroke-linejoin="round" />
<path d="M 136.5 160.5 L 138.0 159.5 L 140.5 159.5 L 144.0 161.0 L 148.0 162.0 L 151.5 162.5 " stroke="black" fill="none" stroke-width="7.0" stroke-linecap="round" stroke-linejoin="round" />
</svg>