<svg xmlns="http://www.w3.org/2000/svg" width="300" height="300" viewBox="0 0 300 300">
<path d="M 139.0 89.5 L 138.5 89.5 L 137.0 90.0 L 137.0 89.5 L 140.5 88.5 L 146.0 86.0 L 153.0 83.0 L 158.0 80.5 " stroke="black" fill="none" stroke-width="7.0" stroke-linecap="round" stroke-linejoin="round" />
<path d="M 152.0 86.5 L 151.5 87.0 L 150.5 87.5 L 150.0 89.5 L 148.5 93.5 L 145.0 100.5 L 140.5 108.0 L 138.5 110.0 " stroke="black" fill="none" stroke-width="7.0" stroke-linecap="round" stroke-linejoin="round" />
<path d="M 126.5 115.0 L 126.5 115.0 L 126.5 114.5 L 126.5 114.5 L 126.5 116.0 L 127.0 120.0 L 128.5 127.0 L 129.5 136.0 L 131.0 142.5 L 131.5 143.5 " stroke="black" fill="none" stroke-width="7.0" stroke-linecap="round" stroke-linejoin="round" />
<path d="M 131.5 115.5 L 131.5 114.5 L 133.0 112.0 L 137.0 110.0 L 143.5 107.5 L 150.5 104.5 L 155.5 102.0 L 160.0 101.0 L 162.5 102.0 L 163.5 106.0 L 163.5 113.0 L 163.5 121.0 L 163.0 129.5 L 162.0 142.5 L 161.5 144.5 L 161.0 144.5 " stroke="black" fill="none" stroke-width="7.0" stroke-linecap="round" stroke-linejoin="round" />
<path d="M 140.0 124.0 L 138.5 124.0 L 138.0 124.0 L 138.5 124.0 L 142.5 123.5 L 147.5 122.0 L 152.0 120.5 L 155.5 119.0 " stroke="black" fill="none" stroke-width="7.0" stroke-linecap="round" stroke-linejoin="round" />
<path d="M 141.5 131.5 L 140.0 133.0 L 140.5 133.5 L 143.0 134.0 L 147.0 133.5 L 150.0 132.0 L 153.0 130.5 " stroke="black" fill="none" stroke-width="7.0" stroke-linecap="round" stroke-linejoin="round" />
<path d="M 134.5 147.0 L 133.5 147.5 L 133.0 148.0 L 133.5 148.5 L 136.5 148.5 L 142.0 148.0 L 148.0 146.5 L 154.5 144.5 " stroke="black" fill="none" stroke-width="7.0" stroke-linecap="round" stroke-linejoin="round" />
<path d="M 147.0 150.0 L 146.5 149.5 L 146.0 149.5 L 145.0 151.0 L 143.0 155.5 L 140.0 162.0 L 136.0 168.0 L 132.5 171.5 L 131.5 172.0 " stroke="black" fill="none" stroke-width="7.0" stroke-linecap="round" stroke-linejoin="round" />
<path d="M 140.5 163.0 L 142.5 162.0 L 147.0 159.5 L 151.0 157.0 L 155.0 155.5 L 158.0 155.0 L 160.0 155.5 L 160.5 158.0 L 159.0 162.0 L 156.0 166.5 L 152.5 172.0 L 148.0 178.5 L 142.5 184.5 L 135.5 189.0 L 129.5 191.5 L 126.0 192.5 L 124.5 192.5 " stroke="black" fill="none" stroke-width="7.0" stroke-linecap="round" stroke-linejoin="round" />
<path d="M 126.0 162.5 L 126.5 162.5 L 127.5 163.5 L 131.0 165.5 L 139.5 168.0 L 149.5 172.0 L 158.5 176.0 L 167.0 180.5 L 174.0 183.5 L 179.5 185.5 L 184.5 186.5 L 186.0 187.0 " stroke="black" fill="none" stroke-width="7.0" stroke-linecap="round" stroke-linejoin="round" />
</svg>