<svg xmlns="http://www.w3.org/2000/svg" width="300" height="300" viewBox="0 0 300 300">
<path d="M 125.5 106.0 L 125.5 106.0 L 125.0 105.5 L 125.0 105.5 L 125.0 106.5 L 125.0 111.0 L 124.0 120.0 L 123.0 133.5 L 120.0 147.0 L 117.5 156.5 L 115.5 162.0 L 115.5 165.0 L 116.0 167.5 L 118.0 170.5 L 121.0 173.0 L 125.0 177.0 L 128.5 181.0 L 132.0 185.0 L 136.0 188.5 L 139.5 192.5 L 142.0 195.0 L 143.0 196.0 " stroke="black" fill="none" stroke-width="7.0" stroke-linecap="round" stroke-linejoin="round" />
<path d="M 138.0 138.5 L 137.0 139.5 L 136.0 142.5 L 135.0 151.5 L 132.5 166.0 L 129.0 180.5 L 124.0 192.0 L 117.0 199.5 L 113.5 201.0 " stroke="black" fill="none" stroke-width="7.0" stroke-linecap="round" stroke-linejoin="round" />
<path d="M 99.0 167.5 L 98.0 167.5 L 96.5 167.5 L 97.0 166.5 L 101.5 164.0 L 109.5 159.0 L 123.5 149.0 L 137.0 136.5 L 145.0 130.0 " stroke="black" fill="none" stroke-width="7.0" stroke-linecap="round" stroke-linejoin="round" />
<path d="M 166.5 114.0 L 165.5 114.0 L 164.5 114.0 L 164.5 114.0 L 165.5 114.0 L 169.0 111.5 L 174.5 107.5 L 181.0 103.5 L 186.5 101.0 L 189.0 100.5 L 189.5 101.5 L 188.0 105.5 L 186.5 112.5 L 185.5 120.0 L 185.0 127.0 L 185.0 131.5 L 185.0 132.5 " stroke="black" fill="none" stroke-width="7.0" stroke-linecap="round" stroke-linejoin="round" />
<path d="M 151.0 133.0 L 149.5 133.0 L 148.5 133.0 L 148.5 133.0 L 149.5 133.0 L 155.0 132.0 L 165.0 129.0 L 178.0 123.5 L 190.5 118.0 L 196.0 115.5 L 197.5 115.0 L 197.5 116.0 " stroke="black" fill="none" stroke-width="7.0" stroke-linecap="round" stroke-linejoin="round" />
<path d="M 158.0 143.0 L 156.0 144.0 L 156.0 144.0 L 161.5 143.5 L 168.5 141.0 L 176.5 137.5 L 183.0 134.0 " stroke="black" fill="none" stroke-width="7.0" stroke-linecap="round" stroke-linejoin="round" />
<path d="M 146.0 161.5 L 145.5 161.5 L 145.5 162.0 L 146.5 164.0 L 148.5 166.5 L 150.5 168.5 L 151.5 169.0 " stroke="black" fill="none" stroke-width="7.0" stroke-linecap="round" stroke-linejoin="round" />
<path d="M 151.0 162.5 L 151.0 162.0 L 151.0 161.0 L 152.5 160.0 L 158.5 158.5 L 169.0 154.5 L 180.0 149.0 L 190.5 145.5 L 196.0 144.5 L 197.5 145.0 L 198.0 147.0 L 196.0 151.0 L 193.5 155.0 L 192.0 158.0 " stroke="black" fill="none" stroke-width="7.0" stroke-linecap="round" stroke-linejoin="round" />
<path d="M 152.0 182.5 L 152.0 182.5 L 152.0 183.5 L 153.0 184.5 L 155.0 186.5 L 158.0 189.0 L 159.5 190.0 " stroke="black" fill="none" stroke-width="7.0" stroke-linecap="round" stroke-linejoin="round" />
<path d="M 158.5 181.5 L 158.5 181.0 L 159.5 180.0 L 163.5 178.0 L 170.5 175.5 L 179.0 171.5 L 187.5 169.0 L 192.5 168.5 L 193.5 170.5 L 193.5 174.0 L 192.0 178.5 L 189.5 182.5 L 186.0 185.5 L 183.0 186.5 " stroke="black" fill="none" stroke-width="7.0" stroke-linecap="round" stroke-linejoin="round" />
<path d="M 172.0 159.5 L 172.0 159.5 L 171.5 160.0 L 171.5 163.5 L 172.0 173.0 L 172.5 187.5 L 172.5 201.5 L 172.5 211.5 L 172.5 214.5 " stroke="black" fill="none" stroke-width="7.0" stroke-linecap="round" stroke-linejoin="round" />
</svg>