<svg xmlns="http://www.w3.org/2000/svg" width="300" height="300" viewBox="0 0 300 300">
<path d="M 149.0 89.0 L 149.0 89.0 L 148.0 89.0 L 148.0 89.0 L 148.5 89.5 L 152.0 91.5 L 155.5 92.5 L 157.0 94.0 " stroke="black" fill="none" stroke-width="7.0" stroke-linecap="round" stroke-linejoin="round" />
<path d="M 113.0 112.0 L 112.5 112.0 L 111.5 112.0 L 111.0 113.0 L 112.5 115.0 L 115.0 118.0 L 117.0 120.0 L 118.0 121.0 " stroke="black" fill="none" stroke-width="7.0" stroke-linecap="round" stroke-linejoin="round" />
<path d="M 116.0 113.5 L 116.0 113.5 L 116.0 113.0 L 119.0 112.5 L 126.0 111.0 L 137.5 108.5 L 150.5 106.0 L 159.5 103.5 L 172.0 100.5 L 176.5 100.0 L 179.5 100.0 L 180.0 102.0 L 178.0 105.5 L 174.5 110.5 L 172.5 113.5 " stroke="black" fill="none" stroke-width="7.0" stroke-linecap="round" stroke-linejoin="round" />
<path d="M 133.0 134.0 L 133.0 133.0 L 133.0 131.5 L 133.0 132.0 L 133.0 137.0 L 133.5 149.0 L 134.0 166.5 L 134.0 182.0 L 134.0 189.0 L 134.5 190.0 " stroke="black" fill="none" stroke-width="7.0" stroke-linecap="round" stroke-linejoin="round" />
<path d="M 137.5 138.0 L 137.5 137.5 L 137.5 137.0 L 139.5 135.5 L 144.0 134.0 L 149.5 132.5 L 155.0 130.5 L 159.5 129.5 L 162.5 129.0 L 164.0 129.0 L 164.5 131.5 L 163.0 135.0 L 160.5 140.0 L 157.0 145.5 L 155.0 148.0 " stroke="black" fill="none" stroke-width="7.0" stroke-linecap="round" stroke-linejoin="round" />
<path d="M 142.5 157.0 L 141.5 157.5 L 138.0 159.5 L 137.0 160.0 L 137.5 160.5 L 141.0 160.0 L 146.0 157.5 L 151.5 154.5 L 156.0 152.0 L 158.5 151.0 L 158.5 152.5 " stroke="black" fill="none" stroke-width="7.0" stroke-linecap="round" stroke-linejoin="round" />
<path d="M 138.5 173.5 L 138.0 174.5 L 137.0 175.0 L 137.5 175.0 L 142.0 174.5 L 147.5 172.0 L 155.0 168.5 L 163.0 165.0 L 168.5 163.5 L 171.5 163.5 L 172.0 164.5 L 172.0 167.0 L 170.5 171.0 L 167.5 176.5 L 164.5 182.0 L 161.0 185.5 " stroke="black" fill="none" stroke-width="7.0" stroke-linecap="round" stroke-linejoin="round" />
<path d="M 147.5 191.0 L 146.5 191.5 L 142.0 193.0 L 139.5 193.0 L 139.0 193.0 L 143.0 191.5 L 149.0 189.0 L 155.0 187.0 L 162.5 185.0 L 168.5 184.5 L 169.5 185.0 " stroke="black" fill="none" stroke-width="7.0" stroke-linecap="round" stroke-linejoin="round" />
</svg>