<svg xmlns="http://www.w3.org/2000/svg" width="300" height="300" viewBox="0 0 300 300">
<path d="M 146.0 79.0 L 144.5 80.0 L 144.5 80.5 L 146.0 82.0 L 149.5 83.5 L 152.0 85.0 L 153.0 86.0 " stroke="black" fill="none" stroke-width="7.0" stroke-linecap="round" stroke-linejoin="round" />
<path d="M 110.0 102.0 L 109.5 102.5 L 108.5 102.5 L 108.5 103.5 L 110.0 106.0 L 112.5 109.0 L 115.0 112.0 L 116.5 113.5 " stroke="black" fill="none" stroke-width="7.0" stroke-linecap="round" stroke-linejoin="round" />
<path d="M 117.5 103.0 L 117.5 102.5 L 119.0 101.5 L 123.5 100.5 L 130.5 99.0 L 142.5 96.5 L 154.5 94.0 L 167.0 91.5 L 176.0 89.0 L 182.5 88.0 L 188.5 87.5 L 191.0 88.5 L 191.5 90.5 L 189.0 94.5 L 183.5 100.5 L 181.5 102.0 " stroke="black" fill="none" stroke-width="7.0" stroke-linecap="round" stroke-linejoin="round" />
<path d="M 144.5 118.5 L 143.5 118.5 L 142.0 119.0 L 141.5 119.0 L 141.0 119.0 L 143.0 119.0 L 146.5 118.0 L 151.0 117.0 L 155.0 116.0 L 159.0 115.5 L 161.5 115.5 L 161.5 117.0 L 159.5 120.0 L 156.5 123.0 L 154.5 126.5 L 153.0 129.5 L 152.0 133.0 L 152.0 137.0 L 152.5 141.0 L 153.5 145.5 L 154.0 151.5 L 155.0 159.0 L 156.0 167.0 L 157.0 175.5 L 157.0 183.5 L 157.0 190.5 L 155.5 195.5 L 153.0 197.5 L 150.0 197.5 L 145.5 194.0 L 138.5 187.5 L 133.0 180.5 L 130.0 175.5 " stroke="black" fill="none" stroke-width="7.0" stroke-linecap="round" stroke-linejoin="round" />
<path d="M 112.0 156.5 L 111.0 156.5 L 109.5 156.5 L 108.5 156.5 L 107.5 156.5 L 107.0 156.5 L 107.0 156.5 L 108.5 156.5 L 115.0 156.5 L 122.5 156.5 L 141.5 154.5 L 159.0 152.5 L 175.0 151.0 L 187.0 150.0 L 196.0 150.0 L 200.0 150.0 L 201.5 151.0 " stroke="black" fill="none" stroke-width="7.0" stroke-linecap="round" stroke-linejoin="round" />
</svg>