<svg xmlns="http://www.w3.org/2000/svg" width="300" height="300" viewBox="0 0 300 300">
<path d="M 145.0 97.5 L 144.5 98.0 L 144.5 98.0 L 145.5 99.0 L 148.0 100.0 L 150.0 100.5 " stroke="black" fill="none" stroke-width="7.0" stroke-linecap="round" stroke-linejoin="round" />
<path d="M 112.0 121.0 L 112.0 121.0 L 111.5 120.5 L 112.0 120.5 L 114.0 121.5 L 116.0 124.5 L 118.0 127.0 L 120.0 130.0 L 120.5 130.5 " stroke="black" fill="none" stroke-width="7.0" stroke-linecap="round" stroke-linejoin="round" />
<path d="M 119.5 122.0 L 119.5 122.0 L 119.5 121.5 L 121.0 121.0 L 124.5 120.5 L 131.0 119.0 L 142.0 116.0 L 154.0 111.0 L 165.5 106.5 L 173.0 105.0 L 177.0 104.0 L 179.5 104.0 L 180.0 106.0 L 177.5 111.0 L 175.0 118.0 L 174.0 119.5 " stroke="black" fill="none" stroke-width="7.0" stroke-linecap="round" stroke-linejoin="round" />
<path d="M 141.0 142.0 L 140.5 142.0 L 138.5 142.5 L 137.5 142.5 L 138.0 142.5 L 142.5 141.5 L 148.5 138.5 L 154.5 134.0 L 159.5 130.5 L 161.0 129.5 " stroke="black" fill="none" stroke-width="7.0" stroke-linecap="round" stroke-linejoin="round" />
<path d="M 150.0 139.0 L 150.5 141.0 L 151.5 146.0 L 152.0 157.0 L 152.0 170.0 L 152.0 180.0 L 152.0 184.0 L 152.5 185.0 L 152.5 185.0 " stroke="black" fill="none" stroke-width="7.0" stroke-linecap="round" stroke-linejoin="round" />
<path d="M 152.0 165.5 L 152.5 164.0 L 155.0 161.5 L 159.0 158.5 L 163.5 155.5 L 166.0 154.5 L 166.0 154.0 " stroke="black" fill="none" stroke-width="7.0" stroke-linecap="round" stroke-linejoin="round" />
<path d="M 126.5 162.5 L 126.5 162.5 L 125.5 164.0 L 125.5 167.0 L 125.0 172.5 L 123.0 180.5 L 119.5 188.0 L 116.0 192.5 L 114.5 193.0 " stroke="black" fill="none" stroke-width="7.0" stroke-linecap="round" stroke-linejoin="round" />
<path d="M 126.0 180.5 L 129.5 181.5 L 136.5 182.5 L 146.5 185.0 L 155.5 187.0 L 165.5 190.0 L 174.0 193.0 L 181.0 195.0 L 188.0 195.5 L 192.0 195.0 " stroke="black" fill="none" stroke-width="7.0" stroke-linecap="round" stroke-linejoin="round" />
</svg>