<svg xmlns="http://www.w3.org/2000/svg" width="300" height="300" viewBox="0 0 300 300">
<path d="M 142.5 93.5 L 141.5 93.0 L 140.0 92.5 L 140.5 92.0 L 143.5 93.0 L 147.5 94.5 L 151.0 96.0 L 151.5 96.5 " stroke="black" fill="none" stroke-width="7.0" stroke-linecap="round" stroke-linejoin="round" />
<path d="M 111.0 114.5 L 110.5 114.5 L 109.5 115.0 L 110.5 116.0 L 113.0 118.5 L 115.5 122.0 L 118.0 124.5 L 118.5 125.0 " stroke="black" fill="none" stroke-width="7.0" stroke-linecap="round" stroke-linejoin="round" />
<path d="M 117.5 115.0 L 117.5 115.0 L 117.0 115.0 L 119.5 114.5 L 125.5 113.5 L 135.5 111.0 L 149.5 107.5 L 161.5 103.5 L 171.0 101.5 L 176.5 100.5 L 179.5 101.5 L 180.5 104.0 L 178.5 108.0 L 175.0 114.0 L 174.0 115.5 " stroke="black" fill="none" stroke-width="7.0" stroke-linecap="round" stroke-linejoin="round" />
<path d="M 131.5 134.0 L 131.5 134.5 L 131.5 135.5 L 133.5 137.5 L 136.5 140.5 L 139.5 143.5 L 141.0 144.5 " stroke="black" fill="none" stroke-width="7.0" stroke-linecap="round" stroke-linejoin="round" />
<path d="M 134.0 134.5 L 134.0 134.5 L 134.0 134.5 L 134.5 134.5 L 139.0 132.5 L 146.5 129.0 L 155.0 126.0 L 162.0 124.0 L 166.5 124.0 L 167.0 126.0 L 166.5 128.0 L 164.0 130.5 L 161.5 134.0 L 158.0 138.5 L 157.0 139.5 " stroke="black" fill="none" stroke-width="7.0" stroke-linecap="round" stroke-linejoin="round" />
<path d="M 144.5 149.5 L 142.5 150.5 L 142.0 150.5 L 144.0 150.0 L 148.5 148.0 L 153.5 145.0 L 158.0 143.0 " stroke="black" fill="none" stroke-width="7.0" stroke-linecap="round" stroke-linejoin="round" />
<path d="M 151.0 147.5 L 151.0 148.0 L 150.5 149.0 L 149.5 153.0 L 148.0 160.5 L 145.5 167.0 " stroke="black" fill="none" stroke-width="7.0" stroke-linecap="round" stroke-linejoin="round" />
<path d="M 116.5 179.0 L 117.0 181.0 L 119.0 185.0 L 122.5 189.5 L 126.0 194.0 L 128.0 197.0 L 129.0 198.0 " stroke="black" fill="none" stroke-width="7.0" stroke-linecap="round" stroke-linejoin="round" />
<path d="M 128.0 185.5 L 128.0 184.5 L 129.5 182.5 L 134.0 180.0 L 143.5 175.0 L 153.5 169.0 L 162.5 164.5 L 168.5 164.0 L 171.0 165.0 L 171.5 168.0 L 171.5 172.0 L 169.5 177.0 L 166.5 183.0 L 160.5 188.0 L 158.5 189.0 " stroke="black" fill="none" stroke-width="7.0" stroke-linecap="round" stroke-linejoin="round" />
<path d="M 146.0 194.0 L 144.0 195.0 L 140.5 196.5 L 139.5 196.5 L 141.0 196.5 L 146.0 194.5 L 152.0 192.0 L 159.0 189.5 L 166.5 188.0 " stroke="black" fill="none" stroke-width="7.0" stroke-linecap="round" stroke-linejoin="round" />
</svg>