<svg xmlns="http://www.w3.org/2000/svg" width="300" height="300" viewBox="0 0 300 300">
<path d="M 145.0 75.5 L 145.0 75.5 L 144.0 75.5 L 144.5 76.0 L 147.0 76.5 L 151.0 77.0 L 154.0 77.0 " stroke="black" fill="none" stroke-width="7.0" stroke-linecap="round" stroke-linejoin="round" />
<path d="M 107.0 99.5 L 107.0 100.0 L 106.0 100.5 L 105.5 101.5 L 106.5 104.5 L 108.5 108.0 L 111.0 111.0 L 113.0 112.5 " stroke="black" fill="none" stroke-width="7.0" stroke-linecap="round" stroke-linejoin="round" />
<path d="M 111.0 102.0 L 111.0 102.5 L 111.0 102.5 L 113.0 102.5 L 119.5 101.0 L 130.5 98.0 L 142.0 95.0 L 159.5 89.5 L 172.5 86.5 L 180.0 85.0 L 186.5 84.5 L 188.5 85.5 L 187.0 89.0 L 181.5 95.5 L 175.5 103.0 " stroke="black" fill="none" stroke-width="7.0" stroke-linecap="round" stroke-linejoin="round" />
<path d="M 133.5 116.5 L 134.0 115.5 L 135.0 113.5 L 135.5 114.0 L 134.5 118.0 L 131.0 126.0 L 125.5 138.0 L 118.5 147.5 L 114.0 152.5 " stroke="black" fill="none" stroke-width="7.0" stroke-linecap="round" stroke-linejoin="round" />
<path d="M 122.0 144.5 L 122.0 145.5 L 122.5 150.5 L 122.5 158.0 L 122.5 173.5 L 122.5 185.0 L 123.0 190.0 " stroke="black" fill="none" stroke-width="7.0" stroke-linecap="round" stroke-linejoin="round" />
<path d="M 149.0 124.0 L 147.5 125.0 L 148.0 125.0 L 151.5 123.0 L 159.0 119.5 L 167.5 115.0 L 169.0 114.5 " stroke="black" fill="none" stroke-width="7.0" stroke-linecap="round" stroke-linejoin="round" />
<path d="M 162.5 121.0 L 161.5 121.5 L 160.0 123.0 L 158.5 125.5 L 156.0 131.0 L 152.0 139.0 L 149.0 143.5 " stroke="black" fill="none" stroke-width="7.0" stroke-linecap="round" stroke-linejoin="round" />
<path d="M 141.0 149.0 L 141.0 150.0 L 141.0 152.0 L 141.5 155.5 L 143.0 161.5 L 144.5 169.5 L 145.0 177.0 L 145.0 182.0 L 145.0 182.5 " stroke="black" fill="none" stroke-width="7.0" stroke-linecap="round" stroke-linejoin="round" />
<path d="M 146.5 151.5 L 147.0 149.5 L 149.0 147.0 L 153.5 144.5 L 161.0 141.5 L 169.5 138.5 L 174.5 136.5 L 176.5 137.0 L 178.0 140.0 L 179.0 146.0 L 179.5 155.0 L 179.0 167.5 L 178.0 179.5 L 177.0 187.0 L 176.0 189.5 L 174.5 189.5 L 173.0 187.0 " stroke="black" fill="none" stroke-width="7.0" stroke-linecap="round" stroke-linejoin="round" />
<path d="M 152.0 166.5 L 151.5 166.5 L 150.0 167.5 L 149.5 167.5 L 150.5 168.0 L 155.0 167.0 L 160.0 165.5 L 168.5 162.0 L 171.5 161.5 " stroke="black" fill="none" stroke-width="7.0" stroke-linecap="round" stroke-linejoin="round" />
<path d="M 150.5 185.0 L 148.5 187.0 L 148.0 188.0 L 149.5 188.0 L 156.0 187.0 L 164.5 185.0 L 168.5 184.0 " stroke="black" fill="none" stroke-width="7.0" stroke-linecap="round" stroke-linejoin="round" />
</svg>