<svg xmlns="http://www.w3.org/2000/svg" width="300" height="300" viewBox="0 0 300 300">
<path d="M 127.0 134.0 L 125.5 135.0 L 123.0 135.5 L 122.0 136.0 L 123.0 136.0 L 127.0 136.0 L 135.0 133.5 L 147.5 129.0 L 161.0 123.0 L 172.5 118.5 L 178.5 115.5 " stroke="black" fill="none" stroke-width="7.0" stroke-linecap="round" stroke-linejoin="round" />
<path d="M 163.5 80.0 L 162.0 79.5 L 161.0 79.5 L 161.0 83.0 L 161.5 94.0 L 163.0 112.0 L 163.5 133.5 L 163.5 153.5 L 163.5 170.0 L 163.0 182.0 L 162.0 189.0 L 160.5 192.5 L 158.5 192.5 L 154.5 189.0 L 151.0 181.5 L 148.0 172.5 " stroke="black" fill="none" stroke-width="7.0" stroke-linecap="round" stroke-linejoin="round" />
<path d="M 129.5 153.0 L 129.5 153.0 L 129.0 153.0 L 133.5 153.0 L 143.0 154.0 L 151.0 155.0 " stroke="black" fill="none" stroke-width="7.0" stroke-linecap="round" stroke-linejoin="round" />
</svg>