<svg xmlns="http://www.w3.org/2000/svg" width="300" height="300" viewBox="0 0 300 300">
<path d="M 144.0 76.0 L 143.5 75.5 L 142.5 75.0 L 143.0 75.0 L 145.0 77.0 L 148.0 79.5 L 150.0 81.5 " stroke="black" fill="none" stroke-width="7.0" stroke-linecap="round" stroke-linejoin="round" />
<path d="M 105.5 93.5 L 105.5 94.0 L 105.0 95.0 L 105.0 97.0 L 105.5 100.5 L 106.5 104.0 L 107.5 106.0 L 108.0 107.0 " stroke="black" fill="none" stroke-width="7.0" stroke-linecap="round" stroke-linejoin="round" />
<path d="M 112.5 96.5 L 112.0 96.0 L 111.0 95.5 L 111.0 95.5 L 110.5 95.0 L 112.0 94.5 L 117.0 94.0 L 125.0 93.0 L 138.5 90.5 L 153.0 87.0 L 167.0 84.5 L 177.0 84.0 L 185.5 84.0 L 191.0 85.5 L 193.5 87.5 L 193.5 90.5 L 191.5 95.0 L 188.0 100.0 L 186.5 101.5 " stroke="black" fill="none" stroke-width="7.0" stroke-linecap="round" stroke-linejoin="round" />
<path d="M 117.5 116.5 L 116.5 117.0 L 115.5 117.5 L 115.5 117.5 L 119.0 116.0 L 124.0 113.0 L 128.0 109.5 L 130.5 108.0 " stroke="black" fill="none" stroke-width="7.0" stroke-linecap="round" stroke-linejoin="round" />
<path d="M 115.5 127.5 L 114.0 129.0 L 114.5 129.5 L 117.5 129.0 L 121.5 127.0 L 126.0 124.0 L 129.5 121.5 " stroke="black" fill="none" stroke-width="7.0" stroke-linecap="round" stroke-linejoin="round" />
<path d="M 126.0 117.0 L 126.0 117.0 L 125.5 118.5 L 125.5 121.0 L 125.5 125.0 L 125.5 130.5 L 125.5 136.5 " stroke="black" fill="none" stroke-width="7.0" stroke-linecap="round" stroke-linejoin="round" />
<path d="M 114.0 145.0 L 112.0 145.5 L 110.5 146.0 L 110.5 146.0 L 113.5 145.5 L 119.5 143.0 L 126.5 139.0 L 134.5 134.0 L 141.0 130.0 " stroke="black" fill="none" stroke-width="7.0" stroke-linecap="round" stroke-linejoin="round" />
<path d="M 151.0 102.0 L 151.0 102.0 L 151.0 102.0 L 150.5 102.5 L 150.5 104.0 L 150.5 106.0 L 150.5 109.0 L 150.5 111.0 L 150.5 112.0 L 150.5 112.0 L 152.5 111.0 L 156.0 108.5 L 160.5 105.5 L 164.5 104.0 L 165.0 104.0 " stroke="black" fill="none" stroke-width="7.0" stroke-linecap="round" stroke-linejoin="round" />
<path d="M 150.5 122.5 L 150.0 123.0 L 149.5 123.5 L 150.5 123.5 L 153.5 122.5 L 158.0 120.5 L 164.0 118.5 L 167.5 117.0 " stroke="black" fill="none" stroke-width="7.0" stroke-linecap="round" stroke-linejoin="round" />
<path d="M 160.5 111.0 L 160.5 112.0 L 160.5 114.0 L 160.5 117.5 L 160.5 123.0 L 160.5 128.5 L 159.5 132.0 " stroke="black" fill="none" stroke-width="7.0" stroke-linecap="round" stroke-linejoin="round" />
<path d="M 145.0 132.0 L 145.0 132.0 L 144.5 132.5 L 144.5 133.5 L 146.0 136.5 L 147.0 139.5 L 147.5 141.5 L 148.0 143.0 L 148.5 143.0 L 149.5 143.0 L 151.0 142.0 L 153.5 140.5 L 158.0 138.5 L 164.0 136.5 L 169.0 135.0 L 172.0 134.0 " stroke="black" fill="none" stroke-width="7.0" stroke-linecap="round" stroke-linejoin="round" />
<path d="M 174.0 124.5 L 174.0 125.0 L 173.5 125.5 L 173.5 128.5 L 173.5 133.5 " stroke="black" fill="none" stroke-width="7.0" stroke-linecap="round" stroke-linejoin="round" />
<path d="M 127.0 152.5 L 127.0 152.0 L 127.0 151.0 L 127.0 151.0 L 127.5 154.5 L 128.0 163.0 L 129.0 173.5 L 129.5 182.5 L 130.0 186.0 L 130.5 186.0 " stroke="black" fill="none" stroke-width="7.0" stroke-linecap="round" stroke-linejoin="round" />
<path d="M 135.0 151.0 L 135.0 151.5 L 135.0 151.5 L 136.5 152.0 L 141.0 152.0 L 147.5 151.0 L 154.0 149.5 L 159.0 149.5 L 163.0 150.0 L 165.5 152.0 L 166.0 155.5 L 166.0 161.5 L 165.5 168.5 L 164.0 175.5 L 163.5 181.5 L 163.0 184.5 L 162.5 185.0 " stroke="black" fill="none" stroke-width="7.0" stroke-linecap="round" stroke-linejoin="round" />
<path d="M 140.0 164.5 L 139.0 164.5 L 137.5 164.5 L 136.5 165.0 L 137.0 165.0 L 140.0 164.5 L 145.0 163.0 L 150.0 161.5 L 153.5 160.5 L 154.0 160.5 " stroke="black" fill="none" stroke-width="7.0" stroke-linecap="round" stroke-linejoin="round" />
<path d="M 140.5 173.0 L 139.5 173.5 L 138.5 174.5 L 139.0 175.0 L 142.5 175.0 L 146.5 173.5 L 150.5 172.0 " stroke="black" fill="none" stroke-width="7.0" stroke-linecap="round" stroke-linejoin="round" />
<path d="M 136.0 187.0 L 135.0 188.0 L 135.0 188.5 L 137.5 189.0 L 143.0 188.5 L 148.5 186.5 L 153.0 184.5 L 156.5 183.5 L 156.5 183.5 L 154.0 186.0 L 150.5 189.5 L 146.5 193.0 L 142.0 197.5 L 135.5 203.0 L 130.0 207.0 L 127.5 209.0 L 127.5 209.0 " stroke="black" fill="none" stroke-width="7.0" stroke-linecap="round" stroke-linejoin="round" />
<path d="M 152.0 191.5 L 153.0 192.0 L 157.0 195.0 L 161.5 200.0 L 165.5 206.0 L 168.5 211.0 L 169.0 212.0 " stroke="black" fill="none" stroke-width="7.0" stroke-linecap="round" stroke-linejoin="round" />
</svg>