<svg xmlns="http://www.w3.org/2000/svg" width="300" height="300" viewBox="0 0 300 300">
<path d="M 148.0 79.5 L 146.0 80.0 L 145.5 80.0 L 146.0 79.5 L 147.5 79.5 L 150.0 79.5 L 151.0 79.5 " stroke="black" fill="none" stroke-width="7.0" stroke-linecap="round" stroke-linejoin="round" />
<path d="M 115.5 97.0 L 115.5 97.0 L 114.5 98.0 L 114.5 99.0 L 115.5 101.5 L 117.5 104.0 L 119.5 106.5 L 120.0 107.0 " stroke="black" fill="none" stroke-width="7.0" stroke-linecap="round" stroke-linejoin="round" />
<path d="M 120.0 100.0 L 120.0 100.0 L 120.0 100.0 L 126.5 98.5 L 136.5 96.0 L 147.0 93.0 L 164.0 87.5 L 173.5 85.0 L 182.5 83.0 L 187.5 82.5 L 189.0 84.0 L 187.0 87.5 L 182.0 94.0 L 179.0 97.5 " stroke="black" fill="none" stroke-width="7.0" stroke-linecap="round" stroke-linejoin="round" />
<path d="M 135.5 118.5 L 134.0 119.0 L 133.0 119.5 L 133.5 119.5 L 137.5 118.5 L 145.0 115.5 L 150.5 112.5 L 159.5 107.5 L 163.0 106.0 L 163.5 106.0 " stroke="black" fill="none" stroke-width="7.0" stroke-linecap="round" stroke-linejoin="round" />
<path d="M 130.0 133.5 L 129.5 133.5 L 128.0 134.5 L 128.5 134.5 L 133.0 133.0 L 141.5 130.0 L 149.0 127.0 L 161.5 122.0 L 168.5 120.5 L 170.5 120.5 L 171.0 120.5 " stroke="black" fill="none" stroke-width="7.0" stroke-linecap="round" stroke-linejoin="round" />
<path d="M 141.0 103.5 L 140.5 105.5 L 140.0 110.0 L 140.0 120.5 L 140.5 134.0 L 140.5 144.0 L 142.0 146.5 L 142.5 146.5 " stroke="black" fill="none" stroke-width="7.0" stroke-linecap="round" stroke-linejoin="round" />
<path d="M 153.0 96.5 L 153.5 96.5 L 153.5 96.5 L 154.0 100.5 L 155.0 112.5 L 155.0 126.5 L 155.0 138.0 L 154.5 142.0 " stroke="black" fill="none" stroke-width="7.0" stroke-linecap="round" stroke-linejoin="round" />
<path d="M 118.5 156.5 L 118.0 157.0 L 116.0 157.5 L 115.0 157.5 L 115.0 158.0 L 120.5 158.0 L 128.0 156.5 L 139.5 152.0 L 154.5 146.5 L 167.5 142.5 L 174.0 141.5 L 175.0 141.5 " stroke="black" fill="none" stroke-width="7.0" stroke-linecap="round" stroke-linejoin="round" />
<path d="M 152.5 149.0 L 151.5 149.0 L 150.5 149.5 L 149.0 151.5 L 146.5 157.5 L 140.0 165.5 L 131.0 173.5 L 125.5 178.5 L 118.5 182.5 L 116.5 183.5 L 116.5 183.5 " stroke="black" fill="none" stroke-width="7.0" stroke-linecap="round" stroke-linejoin="round" />
<path d="M 152.0 156.5 L 153.5 157.0 L 158.0 159.0 L 165.0 163.0 L 172.5 167.0 L 178.0 170.5 L 183.5 174.0 L 186.5 178.5 " stroke="black" fill="none" stroke-width="7.0" stroke-linecap="round" stroke-linejoin="round" />
<path d="M 149.5 177.5 L 149.5 178.0 L 149.0 178.0 L 149.5 179.0 L 153.0 179.5 " stroke="black" fill="none" stroke-width="7.0" stroke-linecap="round" stroke-linejoin="round" />
<path d="M 137.0 191.0 L 137.0 190.5 L 136.5 190.5 L 136.5 190.5 L 138.5 191.5 L 144.5 194.5 L 151.5 198.5 L 156.5 201.0 L 158.0 201.5 " stroke="black" fill="none" stroke-width="7.0" stroke-linecap="round" stroke-linejoin="round" />
</svg>