<svg xmlns="http://www.w3.org/2000/svg" width="300" height="300" viewBox="0 0 300 300">
<path d="M 129.5 112.0 L 129.0 112.0 L 127.5 113.0 L 126.5 113.0 L 125.5 113.5 L 125.0 114.0 L 126.0 114.0 L 132.0 114.0 L 141.5 111.0 L 152.5 106.5 L 164.5 101.5 L 172.0 98.5 L 173.5 97.5 L 173.5 97.0 " stroke="black" fill="none" stroke-width="7.0" stroke-linecap="round" stroke-linejoin="round" />
<path d="M 147.0 78.0 L 147.0 77.5 L 146.5 76.0 L 146.5 75.5 L 146.0 77.0 L 145.0 85.0 L 142.5 99.0 L 136.0 119.5 L 129.5 135.5 L 120.0 155.5 L 111.5 166.5 L 106.0 173.0 " stroke="black" fill="none" stroke-width="7.0" stroke-linecap="round" stroke-linejoin="round" />
<path d="M 130.5 140.5 L 130.5 140.0 L 130.5 140.0 L 130.5 143.0 L 131.0 154.5 L 131.5 171.0 L 131.0 185.5 L 130.5 191.5 L 130.5 192.5 " stroke="black" fill="none" stroke-width="7.0" stroke-linecap="round" stroke-linejoin="round" />
<path d="M 157.0 121.0 L 155.5 122.0 L 154.0 122.0 L 154.0 122.0 L 155.0 122.0 L 158.5 121.5 L 163.5 120.0 L 168.5 118.5 L 172.5 117.0 L 175.0 117.0 L 176.0 118.0 L 175.0 120.5 L 173.5 123.5 L 171.0 126.5 L 169.0 129.5 L 168.0 132.5 L 167.0 135.0 L 167.0 137.5 L 167.0 139.5 L 168.0 142.0 L 169.5 145.5 L 170.5 150.0 L 172.0 156.0 L 172.5 163.0 L 173.0 170.0 L 173.0 177.5 L 173.0 184.0 L 171.5 187.5 L 169.5 190.0 L 166.0 191.0 L 161.5 190.5 L 156.5 187.0 L 152.5 181.5 L 152.0 180.0 " stroke="black" fill="none" stroke-width="7.0" stroke-linecap="round" stroke-linejoin="round" />
<path d="M 142.0 159.5 L 141.0 159.5 L 139.0 160.0 L 138.0 160.5 L 138.5 160.5 L 143.0 160.5 L 150.0 159.0 L 160.0 155.5 L 174.5 150.5 L 188.5 146.5 L 196.0 145.5 L 199.5 145.0 L 200.0 145.0 " stroke="black" fill="none" stroke-width="7.0" stroke-linecap="round" stroke-linejoin="round" />
</svg>