<svg xmlns="http://www.w3.org/2000/svg" width="300" height="300" viewBox="0 0 300 300">
<path d="M 146.0 98.0 L 145.5 97.5 L 145.5 96.5 L 146.5 96.5 L 149.0 97.5 L 152.0 98.5 L 154.5 100.0 L 155.0 100.5 " stroke="black" fill="none" stroke-width="7.0" stroke-linecap="round" stroke-linejoin="round" />
<path d="M 111.5 125.0 L 111.5 125.0 L 111.0 126.0 L 111.0 128.0 L 113.0 130.5 L 115.0 133.5 L 117.5 136.0 " stroke="black" fill="none" stroke-width="7.0" stroke-linecap="round" stroke-linejoin="round" />
<path d="M 118.0 125.5 L 118.0 125.0 L 119.5 124.0 L 123.5 123.0 L 130.0 121.5 L 141.5 119.0 L 153.0 115.0 L 162.5 111.5 L 171.0 109.0 L 175.5 109.0 L 177.5 109.0 L 179.0 110.5 L 179.5 113.5 L 177.5 118.0 L 175.0 124.0 L 173.5 127.0 " stroke="black" fill="none" stroke-width="7.0" stroke-linecap="round" stroke-linejoin="round" />
<path d="M 146.5 132.0 L 146.5 132.0 L 146.5 132.0 L 146.5 132.0 L 146.5 133.0 L 146.5 137.5 L 146.0 146.5 L 144.0 159.0 L 141.5 169.5 L 139.0 176.5 L 136.5 181.5 L 135.5 184.5 L 135.0 186.5 L 135.0 187.5 L 136.0 188.0 L 137.5 188.5 L 140.0 190.0 L 144.5 192.0 L 149.5 195.0 L 154.0 198.5 L 159.5 202.5 L 164.5 206.0 L 167.0 207.5 " stroke="black" fill="none" stroke-width="7.0" stroke-linecap="round" stroke-linejoin="round" />
<path d="M 160.5 155.5 L 160.5 155.5 L 160.0 156.5 L 159.5 160.0 L 157.5 168.0 L 153.5 179.5 L 148.0 190.0 L 139.5 199.0 L 130.5 205.5 " stroke="black" fill="none" stroke-width="7.0" stroke-linecap="round" stroke-linejoin="round" />
<path d="M 110.0 174.5 L 109.5 174.5 L 108.5 174.5 L 108.5 174.5 L 109.0 174.0 L 114.0 172.5 L 123.5 170.5 L 138.0 166.0 L 154.5 160.0 L 169.0 154.5 L 178.5 151.0 L 185.0 150.0 " stroke="black" fill="none" stroke-width="7.0" stroke-linecap="round" stroke-linejoin="round" />
</svg>