<svg xmlns="http://www.w3.org/2000/svg" width="300" height="300" viewBox="0 0 300 300">
<path d="M 139.5 82.0 L 138.5 82.0 L 138.0 82.0 L 140.5 83.0 L 145.5 85.0 L 150.0 86.0 L 152.5 86.5 " stroke="black" fill="none" stroke-width="7.0" stroke-linecap="round" stroke-linejoin="round" />
<path d="M 111.0 102.0 L 110.5 103.0 L 110.0 104.0 L 111.0 107.0 L 113.5 110.5 L 115.5 113.0 L 117.0 114.5 L 117.0 114.5 " stroke="black" fill="none" stroke-width="7.0" stroke-linecap="round" stroke-linejoin="round" />
<path d="M 115.0 102.5 L 115.0 102.5 L 115.0 102.5 L 119.0 102.5 L 126.0 101.0 L 138.0 98.0 L 152.5 94.5 L 166.0 91.0 L 174.0 88.5 L 180.0 88.0 L 183.0 90.0 L 182.5 94.0 L 178.0 99.5 L 172.5 106.0 L 170.0 109.5 " stroke="black" fill="none" stroke-width="7.0" stroke-linecap="round" stroke-linejoin="round" />
<path d="M 131.0 115.5 L 131.0 114.5 L 131.0 114.0 L 131.0 114.0 L 129.5 116.5 L 127.5 121.5 L 124.0 127.0 L 120.0 132.0 L 117.5 134.5 L 117.5 134.5 L 119.0 134.5 L 121.0 135.5 L 122.5 138.5 L 123.5 143.5 L 124.0 150.0 L 124.5 155.0 L 125.0 157.5 " stroke="black" fill="none" stroke-width="7.0" stroke-linecap="round" stroke-linejoin="round" />
<path d="M 124.5 146.5 L 124.0 146.5 L 124.0 146.5 L 125.0 145.0 L 128.5 142.0 L 134.0 137.5 " stroke="black" fill="none" stroke-width="7.0" stroke-linecap="round" stroke-linejoin="round" />
<path d="M 150.0 119.0 L 150.0 118.0 L 150.0 117.0 L 151.5 116.0 L 153.5 115.5 L 156.0 116.0 L 158.5 119.0 L 160.5 124.0 L 161.0 131.5 L 161.0 140.0 L 160.0 145.5 L 159.0 147.5 L 159.0 148.0 " stroke="black" fill="none" stroke-width="7.0" stroke-linecap="round" stroke-linejoin="round" />
<path d="M 149.0 137.0 L 148.0 137.5 L 147.0 138.0 L 147.5 138.5 L 150.0 138.0 L 153.5 137.0 L 154.5 136.5 " stroke="black" fill="none" stroke-width="7.0" stroke-linecap="round" stroke-linejoin="round" />
<path d="M 130.0 157.5 L 129.5 158.5 L 128.5 158.5 L 130.5 158.5 L 136.0 157.0 L 144.5 153.0 L 152.0 148.5 L 155.5 146.0 " stroke="black" fill="none" stroke-width="7.0" stroke-linecap="round" stroke-linejoin="round" />
<path d="M 138.5 156.5 L 136.5 158.5 L 134.0 162.0 L 130.5 168.0 L 125.0 177.0 L 117.5 186.0 L 111.5 190.5 L 109.5 191.5 " stroke="black" fill="none" stroke-width="7.0" stroke-linecap="round" stroke-linejoin="round" />
<path d="M 132.0 172.0 L 131.0 172.5 L 129.5 173.0 L 129.0 173.5 L 129.0 173.5 L 129.0 173.5 L 131.5 173.5 L 136.5 172.5 L 145.0 170.5 L 153.0 167.5 L 161.0 165.0 L 167.5 163.5 L 171.0 163.5 L 173.0 164.5 L 173.5 166.0 L 173.5 169.0 L 174.0 174.0 L 174.0 182.0 L 173.5 190.0 L 171.5 198.5 L 169.0 205.0 L 165.0 207.5 L 160.0 207.0 L 156.0 204.0 " stroke="black" fill="none" stroke-width="7.0" stroke-linecap="round" stroke-linejoin="round" />
<path d="M 121.5 190.0 L 121.0 190.0 L 121.0 190.5 L 120.5 191.5 L 122.0 194.0 L 124.0 197.5 L 126.0 200.5 " stroke="black" fill="none" stroke-width="7.0" stroke-linecap="round" stroke-linejoin="round" />
<path d="M 130.5 186.5 L 131.0 186.5 L 131.5 186.5 L 132.0 187.0 L 134.0 189.0 L 137.0 192.0 L 139.5 193.5 " stroke="black" fill="none" stroke-width="7.0" stroke-linecap="round" stroke-linejoin="round" />
<path d="M 148.0 183.5 L 148.0 184.0 L 148.0 185.5 L 149.0 187.5 L 150.5 189.5 L 152.5 191.0 " stroke="black" fill="none" stroke-width="7.0" stroke-linecap="round" stroke-linejoin="round" />
<path d="M 161.5 179.5 L 162.0 179.5 L 164.0 180.5 L 166.5 183.0 L 169.5 186.0 " stroke="black" fill="none" stroke-width="7.0" stroke-linecap="round" stroke-linejoin="round" />
</svg>