<svg xmlns="http://www.w3.org/2000/svg" width="300" height="300" viewBox="0 0 300 300">
<path d="M 137.5 101.5 L 137.0 102.0 L 135.0 102.5 L 134.0 102.5 L 133.0 102.5 L 134.0 102.5 L 139.0 101.5 L 146.0 99.0 L 152.5 95.0 L 159.0 91.0 L 162.0 90.0 " stroke="black" fill="none" stroke-width="7.0" stroke-linecap="round" stroke-linejoin="round" />
<path d="M 149.5 79.0 L 149.5 79.0 L 148.5 79.0 L 148.5 79.5 L 148.5 83.5 L 149.5 94.0 L 150.0 106.5 L 150.0 117.5 " stroke="black" fill="none" stroke-width="7.0" stroke-linecap="round" stroke-linejoin="round" />
<path d="M 111.0 129.5 L 110.0 129.5 L 109.5 129.5 L 109.5 129.5 L 112.5 129.5 L 119.5 128.0 L 130.0 125.0 L 147.0 119.5 L 161.5 115.5 L 174.5 113.5 L 184.0 112.0 L 190.5 111.0 " stroke="black" fill="none" stroke-width="7.0" stroke-linecap="round" stroke-linejoin="round" />
<path d="M 169.5 102.5 L 169.5 102.5 L 169.0 102.0 L 168.0 102.0 L 166.5 103.0 L 162.5 108.5 L 154.0 120.5 L 141.5 137.0 L 125.0 154.5 L 111.0 167.0 L 106.5 169.5 " stroke="black" fill="none" stroke-width="7.0" stroke-linecap="round" stroke-linejoin="round" />
<path d="M 144.5 139.0 L 143.5 139.0 L 143.0 139.0 L 143.0 139.0 L 144.0 139.0 L 146.5 138.0 L 150.0 137.0 L 154.5 135.0 L 158.5 134.0 L 162.0 133.5 L 163.0 134.5 L 163.0 136.5 L 162.0 139.0 L 159.5 142.5 L 157.5 146.0 L 155.5 149.0 L 154.5 152.0 L 154.0 154.0 L 154.0 156.0 L 154.0 158.5 L 154.5 161.5 L 155.5 165.0 L 156.0 169.0 L 157.5 173.5 L 158.5 180.0 L 159.0 186.5 L 159.0 192.5 L 158.5 198.0 L 156.5 202.5 L 153.0 205.0 L 149.5 205.0 L 145.0 203.0 L 139.5 197.0 L 135.5 188.0 " stroke="black" fill="none" stroke-width="7.0" stroke-linecap="round" stroke-linejoin="round" />
<path d="M 114.5 176.5 L 114.5 176.5 L 114.0 177.0 L 113.5 177.0 L 115.0 177.0 L 120.0 176.0 L 127.5 174.0 L 140.5 171.0 L 155.5 167.0 L 171.0 162.5 L 181.0 160.5 L 189.5 160.0 L 192.5 161.0 " stroke="black" fill="none" stroke-width="7.0" stroke-linecap="round" stroke-linejoin="round" />
</svg>