<svg xmlns="http://www.w3.org/2000/svg" width="300" height="300" viewBox="0 0 300 300">
<path d="M 146.0 83.0 L 145.0 83.0 L 144.0 83.0 L 144.0 83.0 L 146.5 83.5 L 150.5 83.5 L 154.5 84.0 L 156.0 84.0 " stroke="black" fill="none" stroke-width="7.0" stroke-linecap="round" stroke-linejoin="round" />
<path d="M 107.5 103.5 L 107.5 103.5 L 107.0 104.0 L 107.0 104.5 L 107.5 106.5 L 109.5 110.0 L 112.0 112.5 L 114.0 114.0 " stroke="black" fill="none" stroke-width="7.0" stroke-linecap="round" stroke-linejoin="round" />
<path d="M 113.0 105.0 L 113.0 105.0 L 113.0 104.0 L 114.0 103.0 L 119.0 102.5 L 128.5 101.0 L 141.5 98.0 L 155.0 94.0 L 167.5 90.0 L 175.5 87.5 L 180.5 87.0 L 183.0 88.0 L 183.5 91.5 L 181.0 97.0 L 177.0 103.0 " stroke="black" fill="none" stroke-width="7.0" stroke-linecap="round" stroke-linejoin="round" />
<path d="M 131.5 129.0 L 131.0 129.0 L 130.0 130.0 L 129.5 130.0 L 133.0 129.5 L 141.0 127.0 L 151.0 123.0 L 160.5 118.5 L 166.5 117.0 L 167.0 117.5 " stroke="black" fill="none" stroke-width="7.0" stroke-linecap="round" stroke-linejoin="round" />
<path d="M 110.0 157.5 L 107.5 159.5 L 106.5 160.0 L 106.5 161.0 L 109.0 161.0 L 114.0 160.0 L 123.0 157.0 L 135.0 152.0 L 151.5 146.5 L 166.5 143.0 L 175.5 141.0 L 179.5 139.5 L 180.5 139.0 " stroke="black" fill="none" stroke-width="7.0" stroke-linecap="round" stroke-linejoin="round" />
<path d="M 148.0 131.0 L 147.5 131.0 L 146.5 130.5 L 146.0 132.0 L 146.0 138.5 L 147.5 152.0 L 149.0 169.5 L 149.5 184.0 L 149.0 191.0 L 147.5 194.5 L 145.5 194.5 L 141.0 191.0 L 134.5 184.5 L 131.5 180.5 " stroke="black" fill="none" stroke-width="7.0" stroke-linecap="round" stroke-linejoin="round" />
</svg>