<svg xmlns="http://www.w3.org/2000/svg" width="300" height="300" viewBox="0 0 300 300">
<path d="M 153.0 87.0 L 153.0 86.0 L 153.0 83.5 L 153.0 82.0 L 153.0 82.0 L 152.0 86.0 L 150.0 92.5 L 146.5 100.5 L 141.5 107.0 L 137.5 109.5 " stroke="black" fill="none" stroke-width="7.0" stroke-linecap="round" stroke-linejoin="round" />
<path d="M 139.5 92.5 L 139.5 92.5 L 142.0 93.0 L 147.0 95.5 L 152.5 98.0 L 158.5 100.0 L 162.0 101.5 " stroke="black" fill="none" stroke-width="7.0" stroke-linecap="round" stroke-linejoin="round" />
<path d="M 156.0 109.0 L 155.5 109.0 L 154.5 110.0 L 152.5 113.5 L 149.5 118.5 L 146.0 124.0 L 142.0 128.0 L 140.0 128.5 " stroke="black" fill="none" stroke-width="7.0" stroke-linecap="round" stroke-linejoin="round" />
<path d="M 143.0 116.0 L 145.0 116.0 L 148.5 116.5 L 152.5 119.0 L 157.0 121.5 L 160.5 123.0 L 162.0 124.0 " stroke="black" fill="none" stroke-width="7.0" stroke-linecap="round" stroke-linejoin="round" />
<path d="M 129.0 84.0 L 129.0 84.0 L 129.0 83.5 L 129.0 83.5 L 128.5 84.0 L 127.5 86.5 L 126.0 90.5 L 124.0 94.5 L 122.0 97.5 L 121.5 100.0 L 121.5 102.0 L 122.0 105.0 L 122.5 108.5 L 123.0 114.0 L 123.5 121.0 L 124.0 128.0 L 124.0 134.5 L 124.0 137.0 L 124.5 136.5 L 124.5 136.0 " stroke="black" fill="none" stroke-width="7.0" stroke-linecap="round" stroke-linejoin="round" />
<path d="M 126.0 112.0 L 126.0 112.0 L 125.5 111.5 L 125.5 110.5 L 126.5 109.0 L 129.5 106.5 L 132.5 105.0 " stroke="black" fill="none" stroke-width="7.0" stroke-linecap="round" stroke-linejoin="round" />
<path d="M 127.5 121.0 L 127.0 121.5 L 126.0 122.5 L 126.5 123.0 L 129.0 121.5 L 134.0 117.5 L 138.0 115.0 " stroke="black" fill="none" stroke-width="7.0" stroke-linecap="round" stroke-linejoin="round" />
<path d="M 172.0 85.5 L 172.0 85.5 L 172.0 85.0 L 172.5 84.0 L 173.5 83.0 L 175.5 82.0 L 178.0 81.5 L 180.0 81.5 L 181.0 82.5 L 181.0 86.5 L 181.0 93.0 L 181.0 102.5 L 181.5 113.5 L 181.5 122.5 L 181.5 128.0 L 180.5 131.5 L 179.5 133.0 L 178.0 132.5 " stroke="black" fill="none" stroke-width="7.0" stroke-linecap="round" stroke-linejoin="round" />
<path d="M 170.0 106.0 L 169.5 106.5 L 169.0 107.0 L 169.0 107.0 L 171.0 106.5 L 172.5 105.0 " stroke="black" fill="none" stroke-width="7.0" stroke-linecap="round" stroke-linejoin="round" />
<path d="M 170.5 115.5 L 169.5 117.0 L 169.0 117.5 L 170.5 117.5 L 173.5 117.0 L 177.0 115.5 L 179.0 115.0 " stroke="black" fill="none" stroke-width="7.0" stroke-linecap="round" stroke-linejoin="round" />
<path d="M 106.5 143.5 L 106.5 143.5 L 107.0 143.0 L 107.5 143.0 L 108.0 143.5 L 110.0 146.0 L 112.0 149.5 L 114.0 152.5 L 115.0 153.5 " stroke="black" fill="none" stroke-width="7.0" stroke-linecap="round" stroke-linejoin="round" />
<path d="M 116.0 145.5 L 116.0 145.5 L 116.0 145.5 L 115.5 145.5 L 116.5 145.5 L 120.5 145.5 L 127.5 145.0 L 138.0 143.0 L 150.0 140.5 L 160.0 139.0 L 170.0 137.5 L 177.0 136.5 L 183.0 136.0 L 188.0 135.5 L 190.0 135.5 L 190.5 136.5 L 190.0 139.5 L 188.0 144.0 L 184.0 149.5 L 179.5 154.5 " stroke="black" fill="none" stroke-width="7.0" stroke-linecap="round" stroke-linejoin="round" />
<path d="M 138.0 158.5 L 137.0 158.5 L 136.0 158.5 L 136.0 158.5 L 138.5 158.5 L 143.5 157.5 L 148.5 156.5 L 152.5 155.5 L 154.0 156.5 L 154.5 159.0 L 152.5 163.0 L 150.5 166.5 L 149.5 168.5 L 149.0 170.5 L 149.0 172.5 L 149.5 174.5 L 150.5 178.5 L 151.5 183.5 L 152.5 189.0 L 153.5 194.5 L 153.5 198.5 L 152.5 202.0 L 150.0 203.5 L 147.0 204.0 L 142.0 201.5 L 135.5 196.5 L 131.5 192.5 " stroke="black" fill="none" stroke-width="7.0" stroke-linecap="round" stroke-linejoin="round" />
<path d="M 109.0 182.0 L 108.5 182.5 L 108.0 183.0 L 107.5 183.0 L 107.5 183.0 L 108.5 182.5 L 112.5 182.0 L 120.5 181.0 L 132.0 179.0 L 146.0 176.0 L 158.5 173.0 L 170.0 172.0 L 177.0 172.0 L 184.5 173.0 L 186.0 173.5 " stroke="black" fill="none" stroke-width="7.0" stroke-linecap="round" stroke-linejoin="round" />
</svg>