<svg xmlns="http://www.w3.org/2000/svg" width="300" height="300" viewBox="0 0 300 300">
<path d="M 127.5 108.5 L 126.5 108.5 L 125.5 108.5 L 124.5 108.5 L 124.5 108.5 L 125.5 108.5 L 128.5 108.0 L 133.0 106.5 L 139.0 105.5 L 142.5 105.5 L 145.0 107.0 L 145.0 111.0 L 141.5 116.5 L 137.5 122.0 L 134.0 126.0 L 132.0 128.0 L 131.5 129.0 L 131.5 129.5 L 131.5 131.0 L 132.0 132.5 L 133.0 134.5 L 134.0 137.0 L 135.0 140.5 L 136.5 145.5 L 138.0 153.0 L 139.0 162.0 L 139.5 171.5 L 139.5 179.5 L 138.5 187.0 L 136.5 192.0 L 133.5 195.0 L 130.5 195.5 L 127.0 193.0 L 123.5 187.0 L 121.0 178.0 L 120.5 176.0 " stroke="black" fill="none" stroke-width="7.0" stroke-linecap="round" stroke-linejoin="round" />
<path d="M 111.5 167.0 L 108.0 168.0 L 106.5 169.0 L 106.0 169.5 L 107.0 169.5 L 112.0 167.0 L 121.0 161.5 L 131.5 152.5 L 144.5 141.5 L 151.5 134.5 " stroke="black" fill="none" stroke-width="7.0" stroke-linecap="round" stroke-linejoin="round" />
<path d="M 163.5 102.5 L 163.5 102.5 L 163.5 102.5 L 163.5 102.5 L 163.5 102.5 L 163.5 104.5 L 163.5 108.0 L 164.0 118.5 L 164.0 128.5 L 163.0 139.5 L 162.0 149.5 L 161.0 158.5 L 161.0 167.5 L 161.0 174.5 L 161.5 179.5 L 162.0 184.5 L 162.5 188.0 L 163.5 190.5 L 165.0 192.0 L 166.5 193.0 L 168.5 193.0 L 171.0 193.0 L 173.0 193.0 L 175.5 192.5 L 178.5 191.5 L 182.0 190.0 L 185.0 189.0 L 187.5 188.0 L 190.0 187.0 L 191.0 186.5 L 192.5 184.0 L 192.5 180.0 L 192.5 174.0 L 191.0 159.5 L 190.0 152.0 " stroke="black" fill="none" stroke-width="7.0" stroke-linecap="round" stroke-linejoin="round" />
</svg>