<svg xmlns="http://www.w3.org/2000/svg" width="300" height="300" viewBox="0 0 300 300">
<path d="M 146.0 91.0 L 144.5 91.0 L 143.5 90.5 L 143.0 90.0 L 143.5 90.0 L 147.0 90.0 L 150.0 90.0 L 151.5 90.5 " stroke="black" fill="none" stroke-width="7.0" stroke-linecap="round" stroke-linejoin="round" />
<path d="M 112.5 117.0 L 112.5 118.0 L 113.5 120.0 L 115.0 123.0 L 117.0 125.5 L 119.0 127.5 L 120.0 127.5 " stroke="black" fill="none" stroke-width="7.0" stroke-linecap="round" stroke-linejoin="round" />
<path d="M 121.0 118.5 L 121.5 118.0 L 123.0 117.0 L 126.0 115.5 L 132.5 113.5 L 144.5 109.5 L 156.0 105.0 L 166.5 102.0 L 173.5 101.0 L 177.0 100.5 L 178.0 102.0 L 177.0 105.5 L 174.0 111.5 L 171.5 117.0 " stroke="black" fill="none" stroke-width="7.0" stroke-linecap="round" stroke-linejoin="round" />
<path d="M 132.5 143.5 L 132.0 142.5 L 132.0 142.0 L 132.0 144.0 L 132.5 151.5 L 133.0 164.5 L 133.5 177.0 L 134.0 184.5 L 135.0 185.5 L 136.0 184.5 " stroke="black" fill="none" stroke-width="7.0" stroke-linecap="round" stroke-linejoin="round" />
<path d="M 138.5 144.5 L 139.0 143.5 L 140.0 141.0 L 142.5 139.5 L 146.0 138.0 L 151.0 135.5 L 156.0 133.0 L 160.5 132.0 L 164.0 133.5 L 165.0 138.0 L 165.5 145.5 L 165.5 155.5 L 164.5 167.0 L 164.0 177.0 L 164.0 184.0 L 164.0 186.5 L 163.0 187.0 L 162.0 187.0 " stroke="black" fill="none" stroke-width="7.0" stroke-linecap="round" stroke-linejoin="round" />
<path d="M 144.5 160.0 L 143.5 160.5 L 142.0 161.0 L 142.5 161.0 L 145.5 160.5 L 149.5 158.5 L 153.0 156.5 L 154.0 156.5 " stroke="black" fill="none" stroke-width="7.0" stroke-linecap="round" stroke-linejoin="round" />
<path d="M 143.5 170.0 L 142.5 170.5 L 142.5 171.5 L 145.5 171.5 L 149.0 171.0 L 153.0 170.5 L 155.0 170.0 " stroke="black" fill="none" stroke-width="7.0" stroke-linecap="round" stroke-linejoin="round" />
<path d="M 115.5 196.0 L 114.5 196.5 L 113.5 197.5 L 114.5 197.5 L 119.0 197.5 L 126.5 196.5 L 137.0 194.0 L 151.5 191.0 L 165.5 190.0 L 174.5 190.0 L 180.0 191.0 L 184.5 192.0 L 185.5 192.5 " stroke="black" fill="none" stroke-width="7.0" stroke-linecap="round" stroke-linejoin="round" />
</svg>