<svg xmlns="http://www.w3.org/2000/svg" width="300" height="300" viewBox="0 0 300 300">
<path d="M 146.5 86.0 L 146.5 86.0 L 146.0 85.5 L 146.0 86.0 L 147.5 88.5 L 151.0 91.0 L 154.5 92.5 " stroke="black" fill="none" stroke-width="7.0" stroke-linecap="round" stroke-linejoin="round" />
<path d="M 109.0 112.5 L 109.0 112.5 L 109.0 112.5 L 110.0 114.5 L 112.0 119.0 L 114.5 123.5 L 116.5 126.0 L 116.5 126.0 " stroke="black" fill="none" stroke-width="7.0" stroke-linecap="round" stroke-linejoin="round" />
<path d="M 119.0 115.0 L 119.0 115.0 L 120.0 114.5 L 123.0 113.0 L 129.5 111.0 L 140.5 107.5 L 153.0 104.0 L 165.0 101.0 L 174.0 98.5 L 179.5 96.5 L 184.0 96.0 L 185.5 97.0 L 185.0 100.0 L 182.0 104.5 L 177.5 110.5 L 175.5 114.0 " stroke="black" fill="none" stroke-width="7.0" stroke-linecap="round" stroke-linejoin="round" />
<path d="M 127.5 149.0 L 125.5 150.5 L 125.0 151.0 L 125.5 151.0 L 129.0 150.5 L 135.5 148.0 L 145.0 144.5 L 155.0 139.0 L 164.5 133.5 L 170.0 130.0 " stroke="black" fill="none" stroke-width="7.0" stroke-linecap="round" stroke-linejoin="round" />
<path d="M 160.0 114.0 L 160.0 114.0 L 159.0 115.0 L 158.5 118.0 L 158.5 124.5 L 159.5 135.5 L 160.5 149.0 L 160.5 163.5 L 160.0 174.0 L 159.5 183.0 L 158.0 189.5 L 156.0 192.0 L 153.5 193.0 L 150.0 191.0 L 147.0 187.0 L 142.5 180.5 " stroke="black" fill="none" stroke-width="7.0" stroke-linecap="round" stroke-linejoin="round" />
<path d="M 132.5 165.5 L 132.5 165.5 L 132.5 166.0 L 134.0 167.0 L 139.5 167.0 L 147.0 166.0 " stroke="black" fill="none" stroke-width="7.0" stroke-linecap="round" stroke-linejoin="round" />
</svg>