<svg xmlns="http://www.w3.org/2000/svg" width="300" height="300" viewBox="0 0 300 300">
<path d="M 138.5 109.5 L 138.0 109.5 L 137.0 109.0 L 136.5 108.5 L 136.5 108.5 L 137.5 108.0 L 140.5 108.0 L 145.0 107.5 L 150.0 106.5 L 155.5 105.5 L 159.5 105.0 L 161.0 106.0 L 160.5 109.0 L 158.0 113.5 L 155.5 118.5 L 152.5 123.0 L 151.0 127.0 L 150.5 130.0 L 151.0 134.0 L 151.5 138.5 L 152.5 144.0 L 153.5 150.5 L 154.0 159.5 L 154.5 168.0 L 154.5 176.0 L 154.5 184.0 L 153.0 189.5 L 151.5 194.5 L 149.5 197.0 L 147.0 197.5 L 143.0 195.0 L 137.5 190.0 L 132.0 182.5 L 128.5 175.5 " stroke="black" fill="none" stroke-width="7.0" stroke-linecap="round" stroke-linejoin="round" />
<path d="M 112.5 150.5 L 112.0 150.0 L 111.5 150.0 L 111.0 149.5 L 110.5 149.5 L 112.0 149.5 L 115.5 149.5 L 122.5 149.5 L 132.5 148.5 L 147.0 147.5 L 158.5 147.0 L 170.0 146.0 L 178.5 145.0 L 185.5 144.5 L 190.5 144.5 " stroke="black" fill="none" stroke-width="7.0" stroke-linecap="round" stroke-linejoin="round" />
</svg>