<svg xmlns="http://www.w3.org/2000/svg" width="300" height="300" viewBox="0 0 300 300">
<path d="M 140.5 94.0 L 140.0 94.5 L 140.0 94.5 L 140.5 95.0 L 144.0 95.0 L 147.5 95.0 L 149.5 95.5 " stroke="black" fill="none" stroke-width="7.0" stroke-linecap="round" stroke-linejoin="round" />
<path d="M 106.5 117.0 L 106.5 117.5 L 106.0 118.0 L 106.0 119.5 L 107.5 122.5 L 110.0 126.0 L 112.0 129.0 L 113.0 130.0 " stroke="black" fill="none" stroke-width="7.0" stroke-linecap="round" stroke-linejoin="round" />
<path d="M 110.0 120.0 L 110.0 119.5 L 110.5 119.5 L 112.5 118.5 L 120.0 117.0 L 132.0 113.0 L 147.5 108.0 L 160.0 105.0 L 171.5 103.5 L 178.0 103.5 L 182.0 103.5 L 184.5 104.5 L 184.5 107.0 L 181.5 112.0 L 176.5 119.5 " stroke="black" fill="none" stroke-width="7.0" stroke-linecap="round" stroke-linejoin="round" />
<path d="M 120.5 159.0 L 120.0 159.5 L 119.5 160.0 L 121.0 163.5 L 124.0 170.5 L 127.0 181.0 L 129.0 188.5 L 129.5 189.5 " stroke="black" fill="none" stroke-width="7.0" stroke-linecap="round" stroke-linejoin="round" />
<path d="M 128.0 155.5 L 128.0 155.0 L 129.0 153.0 L 132.0 151.5 L 138.5 150.0 L 149.0 148.5 L 160.0 146.5 L 169.5 145.0 L 173.5 144.5 L 175.5 146.5 L 177.0 150.0 L 177.0 156.5 L 176.5 165.0 L 174.0 174.5 L 172.0 183.0 L 170.0 188.0 L 167.5 190.0 L 166.5 190.0 " stroke="black" fill="none" stroke-width="7.0" stroke-linecap="round" stroke-linejoin="round" />
<path d="M 138.0 175.0 L 135.0 175.0 L 132.5 174.5 L 132.0 174.5 L 133.0 174.5 L 139.0 172.5 L 148.0 169.0 L 157.0 165.0 L 165.5 162.0 " stroke="black" fill="none" stroke-width="7.0" stroke-linecap="round" stroke-linejoin="round" />
<path d="M 150.0 130.0 L 150.0 129.5 L 149.0 129.0 L 149.0 129.0 L 149.0 131.5 L 149.0 139.5 L 149.5 153.5 L 149.0 169.0 L 148.0 181.5 L 147.5 186.5 " stroke="black" fill="none" stroke-width="7.0" stroke-linecap="round" stroke-linejoin="round" />
<path d="M 131.5 193.0 L 130.5 193.0 L 130.0 193.0 L 130.0 193.0 L 133.5 193.0 L 142.0 192.0 L 152.0 190.0 L 162.0 189.0 L 168.5 189.0 L 169.5 189.0 " stroke="black" fill="none" stroke-width="7.0" stroke-linecap="round" stroke-linejoin="round" />
</svg>