<svg xmlns="http://www.w3.org/2000/svg" width="300" height="300" viewBox="0 0 300 300">
<path d="M 149.0 87.5 L 148.5 87.5 L 148.0 88.0 L 148.0 89.5 L 150.5 92.0 L 153.5 94.0 L 154.5 94.5 " stroke="black" fill="none" stroke-width="7.0" stroke-linecap="round" stroke-linejoin="round" />
<path d="M 110.5 111.0 L 110.0 111.0 L 110.0 111.0 L 109.5 112.0 L 111.0 114.5 L 113.0 119.0 L 115.5 123.5 L 117.5 126.5 " stroke="black" fill="none" stroke-width="7.0" stroke-linecap="round" stroke-linejoin="round" />
<path d="M 118.0 112.5 L 118.5 112.0 L 120.0 110.5 L 124.0 109.5 L 130.5 108.5 L 141.0 106.5 L 153.5 103.0 L 164.5 100.0 L 173.0 98.0 L 178.5 97.5 L 182.5 97.5 L 185.0 98.0 L 185.0 100.5 L 184.0 104.5 L 180.5 110.0 L 179.0 113.5 " stroke="black" fill="none" stroke-width="7.0" stroke-linecap="round" stroke-linejoin="round" />
<path d="M 145.0 117.5 L 145.0 117.5 L 145.0 117.0 L 145.0 117.0 L 143.5 121.0 L 139.0 130.0 L 131.5 142.5 L 126.0 150.0 L 122.5 152.5 " stroke="black" fill="none" stroke-width="7.0" stroke-linecap="round" stroke-linejoin="round" />
<path d="M 155.0 122.5 L 155.5 123.0 L 156.5 124.0 L 159.5 125.0 L 164.5 127.5 L 169.5 130.0 L 173.5 132.0 L 175.0 134.5 " stroke="black" fill="none" stroke-width="7.0" stroke-linecap="round" stroke-linejoin="round" />
<path d="M 150.5 139.5 L 150.5 139.0 L 150.5 138.5 L 150.5 138.0 L 150.5 138.0 L 149.5 141.0 L 146.0 147.5 L 138.5 158.5 L 129.0 170.0 L 121.5 177.0 L 115.5 181.0 L 112.5 181.5 " stroke="black" fill="none" stroke-width="7.0" stroke-linecap="round" stroke-linejoin="round" />
<path d="M 148.5 143.5 L 149.0 143.5 L 150.5 143.5 L 153.0 145.0 L 159.0 148.0 L 167.5 151.0 L 175.5 153.0 L 182.5 155.5 L 188.5 157.0 L 192.0 157.5 L 193.0 158.0 " stroke="black" fill="none" stroke-width="7.0" stroke-linecap="round" stroke-linejoin="round" />
<path d="M 133.0 176.5 L 133.0 177.0 L 132.5 178.0 L 133.5 181.0 L 136.0 186.5 L 139.0 192.0 L 140.5 193.5 " stroke="black" fill="none" stroke-width="7.0" stroke-linecap="round" stroke-linejoin="round" />
<path d="M 141.5 179.0 L 143.0 177.5 L 145.5 175.0 L 149.5 173.0 L 155.0 170.0 L 162.0 167.5 L 167.5 166.5 L 170.5 166.5 L 171.0 168.5 L 171.0 172.5 L 169.0 177.5 L 165.5 183.0 L 160.5 188.0 L 155.5 191.0 L 151.0 193.5 L 149.0 194.5 L 148.0 194.5 L 148.5 194.5 L 150.5 193.5 L 154.5 192.5 L 160.0 191.0 L 167.0 189.5 " stroke="black" fill="none" stroke-width="7.0" stroke-linecap="round" stroke-linejoin="round" />
</svg>