<svg xmlns="http://www.w3.org/2000/svg" width="300" height="300" viewBox="0 0 300 300">
<path d="M 120.5 109.0 L 120.0 109.5 L 119.5 110.0 L 119.5 113.0 L 120.5 119.0 L 122.0 131.0 L 122.5 148.5 L 122.0 166.0 L 121.0 179.5 L 121.0 188.0 L 121.0 191.0 L 121.0 191.0 L 121.0 190.0 " stroke="black" fill="none" stroke-width="7.0" stroke-linecap="round" stroke-linejoin="round" />
<path d="M 132.5 102.5 L 132.5 102.5 L 132.5 102.0 L 133.0 101.5 L 136.5 100.5 L 142.5 99.0 L 150.5 98.0 L 158.0 97.0 L 165.0 96.0 L 170.5 95.0 L 173.0 94.0 L 175.0 94.0 L 176.5 94.0 L 177.5 96.5 L 178.0 100.5 L 178.0 106.5 L 178.0 116.0 L 179.0 128.5 L 180.5 145.0 L 182.0 161.0 L 182.5 174.5 L 182.5 186.0 L 181.5 194.5 L 180.0 201.0 L 177.5 203.5 L 174.5 203.5 L 171.0 198.5 L 166.5 191.0 " stroke="black" fill="none" stroke-width="7.0" stroke-linecap="round" stroke-linejoin="round" />
<path d="M 144.0 121.5 L 143.5 121.5 L 142.5 122.0 L 143.5 122.5 L 146.5 122.5 L 149.5 122.0 " stroke="black" fill="none" stroke-width="7.0" stroke-linecap="round" stroke-linejoin="round" />
<path d="M 154.5 112.5 L 154.5 112.0 L 154.0 112.0 L 154.0 112.0 L 154.0 114.5 L 153.5 118.5 L 152.0 124.0 L 150.0 129.0 " stroke="black" fill="none" stroke-width="7.0" stroke-linecap="round" stroke-linejoin="round" />
<path d="M 139.0 136.0 L 136.0 137.5 L 134.0 138.5 L 134.0 139.0 L 135.0 139.0 L 139.5 138.0 L 146.0 135.0 L 152.5 131.5 L 159.0 128.5 L 162.5 128.0 L 163.5 128.5 " stroke="black" fill="none" stroke-width="7.0" stroke-linecap="round" stroke-linejoin="round" />
<path d="M 135.0 160.5 L 134.0 160.5 L 134.0 161.5 L 134.0 163.0 L 135.0 166.0 L 135.5 169.0 L 136.0 172.0 L 136.0 174.0 L 136.0 175.5 L 136.0 175.5 L 137.5 175.5 L 141.0 173.0 L 146.5 170.5 L 151.5 168.5 L 156.0 167.0 L 159.5 166.0 L 162.0 165.0 " stroke="black" fill="none" stroke-width="7.0" stroke-linecap="round" stroke-linejoin="round" />
<path d="M 168.0 154.0 L 168.0 154.0 L 167.0 154.5 L 166.5 156.0 L 166.5 159.5 L 166.5 163.5 L 167.0 167.5 L 167.0 170.0 " stroke="black" fill="none" stroke-width="7.0" stroke-linecap="round" stroke-linejoin="round" />
<path d="M 151.5 141.0 L 150.5 141.5 L 150.0 143.5 L 150.5 149.5 L 151.5 159.5 L 151.5 163.5 " stroke="black" fill="none" stroke-width="7.0" stroke-linecap="round" stroke-linejoin="round" />
</svg>