<svg xmlns="http://www.w3.org/2000/svg" width="300" height="300" viewBox="0 0 300 300">
<path d="M 136.5 108.5 L 134.0 109.5 L 132.5 110.0 L 132.0 110.0 L 133.0 109.5 L 138.5 107.0 L 145.0 104.0 L 151.5 100.5 L 159.5 97.0 L 166.0 95.0 L 169.5 94.0 L 170.0 95.5 L 169.0 99.5 L 166.0 105.0 L 162.0 113.0 L 157.0 121.5 " stroke="black" fill="none" stroke-width="7.0" stroke-linecap="round" stroke-linejoin="round" />
<path d="M 132.5 138.0 L 130.5 138.0 L 130.0 137.5 L 129.5 137.0 L 132.5 136.0 L 139.0 133.0 L 148.0 128.0 L 156.5 123.0 L 162.0 120.5 " stroke="black" fill="none" stroke-width="7.0" stroke-linecap="round" stroke-linejoin="round" />
<path d="M 132.0 115.5 L 131.5 114.0 L 130.5 112.5 L 130.5 113.5 L 130.5 118.0 L 130.5 126.5 L 130.0 141.0 L 127.0 158.0 L 121.0 174.0 L 114.5 185.0 L 109.5 190.5 L 108.5 191.5 " stroke="black" fill="none" stroke-width="7.0" stroke-linecap="round" stroke-linejoin="round" />
<path d="M 134.0 135.5 L 134.0 135.5 L 135.0 136.5 L 139.0 141.0 L 146.0 149.5 L 152.5 159.0 L 160.0 167.5 L 168.5 174.5 L 175.0 180.5 L 180.5 184.0 L 184.5 185.5 " stroke="black" fill="none" stroke-width="7.0" stroke-linecap="round" stroke-linejoin="round" />
</svg>