<svg xmlns="http://www.w3.org/2000/svg" width="300" height="300" viewBox="0 0 300 300">
<path d="M 136.0 96.5 L 136.0 96.5 L 134.5 97.0 L 133.5 97.5 L 133.5 97.5 L 135.0 97.5 L 139.0 97.0 L 145.5 94.5 L 153.0 91.5 L 161.0 87.5 L 167.5 85.0 L 170.0 84.5 L 170.5 86.0 L 170.5 88.5 L 169.0 93.0 L 167.5 98.0 L 165.5 103.0 L 164.5 105.5 " stroke="black" fill="none" stroke-width="7.0" stroke-linecap="round" stroke-linejoin="round" />
<path d="M 135.0 115.5 L 134.0 116.0 L 133.5 116.5 L 134.5 116.5 L 140.0 114.0 L 148.0 110.0 L 156.5 106.0 L 161.5 104.5 " stroke="black" fill="none" stroke-width="7.0" stroke-linecap="round" stroke-linejoin="round" />
<path d="M 123.0 104.5 L 122.5 104.5 L 122.0 103.5 L 121.5 103.5 L 121.5 106.0 L 122.0 114.5 L 122.5 129.5 L 119.0 148.0 L 113.5 168.0 L 107.5 185.5 L 103.5 197.5 L 100.5 205.5 " stroke="black" fill="none" stroke-width="7.0" stroke-linecap="round" stroke-linejoin="round" />
<path d="M 136.5 126.0 L 137.0 125.0 L 137.0 124.0 L 137.5 124.0 L 137.0 126.0 L 134.5 131.0 L 131.0 138.5 L 126.5 147.0 L 122.5 152.5 " stroke="black" fill="none" stroke-width="7.0" stroke-linecap="round" stroke-linejoin="round" />
<path d="M 142.5 138.5 L 142.5 138.5 L 142.5 137.0 L 142.5 136.5 L 142.5 136.5 L 141.0 140.0 L 137.5 146.5 L 131.5 157.5 L 123.0 170.5 L 114.0 180.5 L 109.0 185.0 " stroke="black" fill="none" stroke-width="7.0" stroke-linecap="round" stroke-linejoin="round" />
<path d="M 127.5 165.0 L 127.5 164.5 L 128.5 163.0 L 129.0 163.0 L 129.5 166.5 L 129.0 175.0 L 128.0 186.0 L 127.5 197.0 L 127.0 204.0 " stroke="black" fill="none" stroke-width="7.0" stroke-linecap="round" stroke-linejoin="round" />
<path d="M 152.0 124.0 L 152.0 124.0 L 152.0 124.0 L 152.0 123.5 L 152.5 124.0 L 152.5 126.0 L 152.0 128.5 L 151.0 131.5 L 150.0 134.5 L 149.0 136.0 L 149.0 136.0 L 150.5 134.5 L 154.0 131.5 L 158.5 128.5 L 164.0 125.5 L 167.5 124.5 L 168.5 124.0 " stroke="black" fill="none" stroke-width="7.0" stroke-linecap="round" stroke-linejoin="round" />
<path d="M 145.0 148.5 L 145.0 149.5 L 145.5 151.0 L 146.5 154.0 L 148.0 158.5 L 149.0 163.0 L 150.0 165.0 L 150.5 165.0 " stroke="black" fill="none" stroke-width="7.0" stroke-linecap="round" stroke-linejoin="round" />
<path d="M 151.0 148.0 L 151.0 147.5 L 151.5 146.0 L 154.0 144.0 L 158.5 141.5 L 165.0 139.0 L 169.5 138.0 L 171.0 139.0 L 171.5 141.5 L 171.0 145.5 L 170.0 150.0 L 168.5 154.5 L 166.5 158.5 L 165.5 160.5 " stroke="black" fill="none" stroke-width="7.0" stroke-linecap="round" stroke-linejoin="round" />
<path d="M 153.0 154.5 L 152.5 155.0 L 151.0 155.5 L 150.5 155.5 L 151.5 155.0 L 155.0 153.5 L 160.0 151.0 L 164.5 149.0 " stroke="black" fill="none" stroke-width="7.0" stroke-linecap="round" stroke-linejoin="round" />
<path d="M 152.5 165.0 L 151.5 166.0 L 151.5 166.5 L 153.0 166.5 L 157.0 164.5 L 162.5 162.0 " stroke="black" fill="none" stroke-width="7.0" stroke-linecap="round" stroke-linejoin="round" />
<path d="M 160.0 164.5 L 159.5 165.0 L 158.5 166.0 L 157.5 167.5 L 156.5 170.0 L 154.5 174.0 L 151.5 179.5 L 148.0 186.0 L 144.0 190.5 L 143.0 191.5 " stroke="black" fill="none" stroke-width="7.0" stroke-linecap="round" stroke-linejoin="round" />
<path d="M 152.5 179.5 L 154.5 178.0 L 157.5 176.0 L 162.0 174.0 L 167.0 172.0 L 170.0 171.0 L 171.0 172.0 L 170.0 176.0 L 167.0 180.5 L 162.0 185.5 L 156.5 191.5 L 150.5 197.0 L 146.0 202.5 L 141.5 205.5 L 139.0 205.5 " stroke="black" fill="none" stroke-width="7.0" stroke-linecap="round" stroke-linejoin="round" />
<path d="M 141.0 179.0 L 141.0 178.5 L 142.0 178.5 L 145.0 180.0 L 151.0 184.5 L 159.5 191.0 L 168.0 196.5 L 174.0 201.5 L 178.5 205.0 L 180.5 206.0 " stroke="black" fill="none" stroke-width="7.0" stroke-linecap="round" stroke-linejoin="round" />
</svg>