<svg xmlns="http://www.w3.org/2000/svg" width="300" height="300" viewBox="0 0 300 300">
<path d="M 134.5 92.0 L 134.0 90.5 L 134.0 89.5 L 135.5 90.0 L 139.0 93.0 L 143.5 95.5 " stroke="black" fill="none" stroke-width="7.0" stroke-linecap="round" stroke-linejoin="round" />
<path d="M 157.5 77.0 L 157.5 77.0 L 157.5 77.0 L 157.0 77.5 L 155.5 80.5 L 153.0 86.5 L 150.0 94.5 L 149.0 96.5 " stroke="black" fill="none" stroke-width="7.0" stroke-linecap="round" stroke-linejoin="round" />
<path d="M 124.0 109.0 L 123.5 109.0 L 122.5 109.5 L 122.0 109.5 L 122.5 109.5 L 126.5 109.0 L 133.0 107.5 L 144.0 104.5 L 156.0 100.0 L 164.5 97.5 L 168.5 97.0 " stroke="black" fill="none" stroke-width="7.0" stroke-linecap="round" stroke-linejoin="round" />
<path d="M 120.0 125.0 L 120.0 125.5 L 120.5 126.5 L 122.0 131.5 L 124.0 140.5 L 126.0 148.5 L 126.5 152.5 L 127.0 153.0 L 127.0 153.0 " stroke="black" fill="none" stroke-width="7.0" stroke-linecap="round" stroke-linejoin="round" />
<path d="M 126.0 130.5 L 126.0 129.5 L 126.5 128.0 L 128.0 127.0 L 132.0 126.5 L 140.5 125.0 L 151.0 121.5 L 159.0 118.0 L 166.0 117.0 L 170.0 117.5 L 171.5 120.0 L 172.0 124.5 L 172.0 130.5 L 170.5 139.0 L 167.5 146.5 L 164.0 152.0 L 161.0 155.0 L 160.0 155.0 " stroke="black" fill="none" stroke-width="7.0" stroke-linecap="round" stroke-linejoin="round" />
<path d="M 137.5 109.5 L 137.5 109.0 L 137.0 107.5 L 137.0 109.5 L 137.5 116.5 L 137.5 125.5 L 137.5 133.5 L 137.5 137.5 L 138.0 138.0 " stroke="black" fill="none" stroke-width="7.0" stroke-linecap="round" stroke-linejoin="round" />
<path d="M 151.5 104.0 L 152.0 103.0 L 152.0 102.5 L 152.5 107.0 L 152.5 115.5 L 152.5 126.5 L 151.5 136.0 L 151.5 138.0 " stroke="black" fill="none" stroke-width="7.0" stroke-linecap="round" stroke-linejoin="round" />
<path d="M 137.0 147.0 L 135.5 148.0 L 135.0 148.5 L 136.0 148.5 L 141.0 147.5 L 147.0 145.5 L 152.0 143.0 L 154.5 142.5 " stroke="black" fill="none" stroke-width="7.0" stroke-linecap="round" stroke-linejoin="round" />
<path d="M 130.0 161.0 L 129.0 161.0 L 128.5 161.5 L 129.0 161.5 L 133.0 161.0 L 139.5 159.5 L 148.0 157.0 L 154.5 155.0 L 157.0 154.5 " stroke="black" fill="none" stroke-width="7.0" stroke-linecap="round" stroke-linejoin="round" />
<path d="M 109.0 183.5 L 108.0 183.5 L 107.0 184.0 L 106.5 184.0 L 106.5 184.5 L 109.5 184.5 L 116.0 184.5 L 125.0 183.5 L 137.0 181.0 L 150.5 178.0 L 162.5 174.0 L 172.5 171.5 L 177.0 170.5 L 178.5 170.0 " stroke="black" fill="none" stroke-width="7.0" stroke-linecap="round" stroke-linejoin="round" />
<path d="M 155.0 159.0 L 154.5 158.5 L 154.0 158.0 L 154.0 158.5 L 154.5 162.5 L 156.0 170.5 L 157.5 183.0 L 157.5 196.5 L 157.5 207.5 L 156.0 214.5 L 154.5 218.5 L 153.0 219.5 L 151.0 220.0 L 148.0 218.0 L 145.0 215.0 L 143.0 212.5 " stroke="black" fill="none" stroke-width="7.0" stroke-linecap="round" stroke-linejoin="round" />
<path d="M 127.5 194.5 L 127.5 194.5 L 127.5 194.0 L 129.0 194.5 L 133.5 196.0 L 141.0 197.5 " stroke="black" fill="none" stroke-width="7.0" stroke-linecap="round" stroke-linejoin="round" />
</svg>