<svg xmlns="http://www.w3.org/2000/svg" width="300" height="300" viewBox="0 0 300 300">
<path d="M 138.0 103.5 L 137.5 103.5 L 135.5 103.5 L 134.0 103.5 L 133.5 104.0 L 133.0 104.0 L 135.0 104.0 L 139.0 103.0 L 145.5 101.0 L 152.0 98.5 L 159.0 96.0 L 164.0 94.5 L 166.5 94.0 L 167.0 95.0 L 167.0 98.5 L 166.0 104.0 L 164.0 112.0 L 161.5 120.0 L 159.5 125.0 " stroke="black" fill="none" stroke-width="7.0" stroke-linecap="round" stroke-linejoin="round" />
<path d="M 135.5 132.0 L 134.0 132.5 L 133.0 132.5 L 133.0 132.5 L 136.5 132.0 L 142.5 129.5 L 149.0 126.5 L 155.5 123.0 L 159.0 121.0 " stroke="black" fill="none" stroke-width="7.0" stroke-linecap="round" stroke-linejoin="round" />
<path d="M 129.0 138.5 L 129.0 139.0 L 128.5 140.0 L 128.0 142.5 L 128.0 146.5 L 128.0 153.5 L 128.0 161.0 L 128.0 167.5 L 128.0 172.0 L 128.0 175.0 L 128.5 177.0 L 130.0 178.0 L 132.5 178.0 L 136.5 177.5 L 141.5 176.5 L 147.5 175.0 L 153.0 174.0 L 158.5 173.0 L 164.5 172.5 L 170.5 172.0 L 174.5 171.0 L 177.5 170.0 L 180.5 168.5 L 182.5 166.5 L 184.0 164.0 L 185.5 160.0 L 186.0 154.5 L 186.0 146.0 L 185.0 139.0 " stroke="black" fill="none" stroke-width="7.0" stroke-linecap="round" stroke-linejoin="round" />
</svg>