<svg xmlns="http://www.w3.org/2000/svg" width="300" height="300" viewBox="0 0 300 300">
<path d="M 123.5 122.5 L 123.0 121.0 L 122.0 118.0 L 121.5 115.5 L 121.5 114.0 L 121.5 114.0 L 123.0 116.5 L 125.0 124.0 L 126.0 137.0 L 125.0 155.5 L 121.5 173.0 L 118.0 183.5 L 116.0 187.0 " stroke="black" fill="none" stroke-width="7.0" stroke-linecap="round" stroke-linejoin="round" />
<path d="M 148.5 125.5 L 148.5 123.5 L 148.5 122.0 L 148.5 121.5 L 149.0 125.0 L 149.5 135.0 L 149.5 148.5 L 149.0 163.5 L 149.0 170.0 L 149.0 170.5 " stroke="black" fill="none" stroke-width="7.0" stroke-linecap="round" stroke-linejoin="round" />
<path d="M 172.0 83.0 L 172.0 82.0 L 172.0 81.5 L 172.0 81.5 L 172.5 86.0 L 174.5 97.0 L 176.5 118.0 L 177.5 144.5 L 177.5 169.5 L 177.5 188.0 L 178.0 200.0 L 178.5 206.5 L 178.5 207.0 " stroke="black" fill="none" stroke-width="7.0" stroke-linecap="round" stroke-linejoin="round" />
</svg>