<svg xmlns="http://www.w3.org/2000/svg" width="300" height="300" viewBox="0 0 300 300">
<path d="M 127.5 103.0 L 127.5 103.0 L 127.5 103.0 L 127.5 103.0 L 127.5 105.0 L 128.0 109.5 L 128.0 115.0 L 128.0 118.0 L 128.0 120.5 L 128.0 120.5 L 128.0 120.5 L 128.5 120.0 L 130.5 119.0 L 134.5 117.0 L 141.0 115.0 L 148.0 113.5 L 154.0 113.0 L 158.5 113.0 L 163.5 113.0 L 165.5 113.0 " stroke="black" fill="none" stroke-width="7.0" stroke-linecap="round" stroke-linejoin="round" />
<path d="M 169.0 98.0 L 169.0 98.0 L 169.0 99.0 L 169.5 101.0 L 170.0 105.0 L 170.0 111.0 L 170.0 116.5 " stroke="black" fill="none" stroke-width="7.0" stroke-linecap="round" stroke-linejoin="round" />
<path d="M 149.5 75.0 L 149.5 74.5 L 149.0 74.5 L 149.0 76.0 L 149.0 84.0 L 149.5 98.0 L 149.5 111.0 L 149.5 113.5 " stroke="black" fill="none" stroke-width="7.0" stroke-linecap="round" stroke-linejoin="round" />
<path d="M 116.5 138.0 L 116.0 137.5 L 115.5 137.0 L 116.0 136.5 L 117.5 139.0 L 121.0 143.5 L 124.0 147.5 L 127.0 151.5 L 129.0 154.0 L 129.5 156.0 " stroke="black" fill="none" stroke-width="7.0" stroke-linecap="round" stroke-linejoin="round" />
<path d="M 126.5 139.5 L 126.5 139.0 L 126.5 138.0 L 128.0 137.5 L 132.5 135.5 L 142.0 132.5 L 151.5 129.5 L 160.0 128.0 L 166.5 128.0 L 170.0 128.5 L 171.5 130.0 L 172.0 133.0 L 172.0 137.5 L 171.5 143.0 L 169.5 148.5 L 168.0 152.5 L 166.5 155.0 " stroke="black" fill="none" stroke-width="7.0" stroke-linecap="round" stroke-linejoin="round" />
<path d="M 139.5 146.0 L 138.5 146.0 L 136.5 146.0 L 135.5 146.0 L 136.5 146.0 L 141.0 146.0 L 147.0 144.5 L 153.0 142.5 L 158.5 140.5 L 161.5 140.0 " stroke="black" fill="none" stroke-width="7.0" stroke-linecap="round" stroke-linejoin="round" />
<path d="M 136.5 159.5 L 134.0 161.5 L 133.0 163.0 L 134.5 163.0 L 140.0 163.0 L 147.5 160.5 L 155.0 158.0 L 159.5 156.0 " stroke="black" fill="none" stroke-width="7.0" stroke-linecap="round" stroke-linejoin="round" />
<path d="M 127.5 184.0 L 127.5 184.0 L 126.5 184.0 L 126.5 184.0 L 129.5 183.5 L 135.0 181.0 L 141.5 178.0 L 145.5 175.5 " stroke="black" fill="none" stroke-width="7.0" stroke-linecap="round" stroke-linejoin="round" />
<path d="M 129.5 173.5 L 129.5 175.0 L 129.0 180.0 L 128.5 187.0 L 127.5 195.0 L 127.5 200.0 L 127.5 204.5 L 128.0 205.5 L 129.5 205.5 L 133.0 205.0 L 139.0 201.5 L 146.5 196.5 L 151.0 192.0 " stroke="black" fill="none" stroke-width="7.0" stroke-linecap="round" stroke-linejoin="round" />
<path d="M 159.0 182.0 L 159.0 182.0 L 159.0 181.5 L 161.0 180.0 L 166.0 177.5 L 172.0 173.0 L 175.0 169.0 L 176.0 166.5 " stroke="black" fill="none" stroke-width="7.0" stroke-linecap="round" stroke-linejoin="round" />
<path d="M 155.5 162.0 L 155.0 165.5 L 154.5 171.5 L 154.5 180.5 L 154.5 189.0 L 155.5 195.5 L 156.5 200.5 L 158.5 204.0 L 162.0 205.0 L 167.0 205.0 L 172.0 203.0 L 176.5 201.0 L 182.0 199.0 L 187.0 197.0 L 191.0 196.0 L 193.5 194.5 L 195.0 192.0 L 196.0 189.0 L 196.5 184.0 L 196.5 175.0 L 196.5 167.0 " stroke="black" fill="none" stroke-width="7.0" stroke-linecap="round" stroke-linejoin="round" />
</svg>