<svg xmlns="http://www.w3.org/2000/svg" width="300" height="300" viewBox="0 0 300 300">
<path d="M 135.0 103.5 L 134.5 103.5 L 134.0 103.5 L 135.5 103.5 L 141.0 102.0 L 149.0 99.5 L 157.0 96.5 L 163.0 94.0 L 165.0 93.0 L 165.0 93.0 L 164.0 93.0 " stroke="black" fill="none" stroke-width="7.0" stroke-linecap="round" stroke-linejoin="round" />
<path d="M 126.5 107.5 L 126.5 108.0 L 125.5 110.0 L 125.0 116.0 L 125.5 128.0 L 126.5 144.5 L 127.0 161.0 L 127.0 171.0 L 127.5 176.0 L 128.0 178.5 " stroke="black" fill="none" stroke-width="7.0" stroke-linecap="round" stroke-linejoin="round" />
<path d="M 135.0 133.5 L 135.0 133.5 L 134.5 132.5 L 136.0 131.5 L 141.0 130.5 L 145.5 129.0 L 153.0 126.0 L 156.5 125.0 L 160.0 124.0 L 161.0 125.5 L 160.0 129.0 L 158.0 134.0 L 154.5 139.5 L 151.0 144.0 L 147.5 147.5 " stroke="black" fill="none" stroke-width="7.0" stroke-linecap="round" stroke-linejoin="round" />
<path d="M 144.5 148.5 L 142.0 150.5 L 140.5 151.5 L 140.0 152.0 L 141.0 152.0 L 144.5 151.5 L 149.0 150.0 L 153.5 147.5 L 157.5 146.5 L 159.0 146.0 " stroke="black" fill="none" stroke-width="7.0" stroke-linecap="round" stroke-linejoin="round" />
<path d="M 128.5 184.5 L 128.0 184.5 L 127.5 184.5 L 129.0 184.0 L 136.5 182.0 L 148.5 179.0 L 163.0 175.0 L 174.5 173.0 L 180.5 173.0 L 183.5 173.5 " stroke="black" fill="none" stroke-width="7.0" stroke-linecap="round" stroke-linejoin="round" />
</svg>