<svg xmlns="http://www.w3.org/2000/svg" width="300" height="300" viewBox="0 0 300 300">
<path d="M 130.5 110.5 L 129.0 110.5 L 128.0 110.5 L 128.5 110.5 L 133.5 110.5 L 143.5 109.5 L 155.5 106.5 L 167.0 103.5 L 172.5 101.5 L 173.5 101.0 " stroke="black" fill="none" stroke-width="7.0" stroke-linecap="round" stroke-linejoin="round" />
<path d="M 127.0 134.5 L 126.5 134.5 L 126.0 135.0 L 126.5 135.5 L 130.0 138.0 L 136.0 140.5 L 142.0 142.5 " stroke="black" fill="none" stroke-width="7.0" stroke-linecap="round" stroke-linejoin="round" />
<path d="M 171.0 123.5 L 171.0 123.5 L 171.0 124.0 L 171.0 124.5 L 169.5 127.5 L 164.0 134.0 L 162.5 136.0 " stroke="black" fill="none" stroke-width="7.0" stroke-linecap="round" stroke-linejoin="round" />
<path d="M 111.0 164.5 L 110.5 165.0 L 109.5 165.0 L 109.0 165.0 L 109.0 165.0 L 109.5 165.0 L 112.0 165.0 L 118.5 164.5 L 127.5 164.0 L 140.5 162.0 L 155.5 158.5 L 169.5 155.5 L 179.5 154.0 L 187.0 153.5 L 191.0 154.0 " stroke="black" fill="none" stroke-width="7.0" stroke-linecap="round" stroke-linejoin="round" />
<path d="M 152.0 113.5 L 152.0 113.5 L 152.0 114.0 L 151.5 114.5 L 151.5 116.0 L 151.5 121.5 L 151.5 134.5 L 152.0 153.0 L 151.5 171.0 L 150.5 184.5 L 150.5 193.0 L 150.5 200.0 L 150.5 202.0 " stroke="black" fill="none" stroke-width="7.0" stroke-linecap="round" stroke-linejoin="round" />
</svg>