<svg xmlns="http://www.w3.org/2000/svg" width="300" height="300" viewBox="0 0 300 300">
<path d="M 149.5 87.0 L 149.0 85.5 L 148.5 83.5 L 148.5 82.0 L 149.0 83.0 L 150.0 89.5 L 150.5 100.5 L 151.0 112.5 L 151.0 120.0 L 151.0 121.0 " stroke="black" fill="none" stroke-width="7.0" stroke-linecap="round" stroke-linejoin="round" />
<path d="M 132.0 106.0 L 130.5 106.5 L 130.0 106.5 L 130.5 107.0 L 134.0 107.0 L 140.5 107.0 " stroke="black" fill="none" stroke-width="7.0" stroke-linecap="round" stroke-linejoin="round" />
<path d="M 164.5 97.0 L 164.5 97.0 L 164.5 98.0 L 164.5 99.0 L 163.0 101.5 L 160.5 105.0 L 158.0 107.0 " stroke="black" fill="none" stroke-width="7.0" stroke-linecap="round" stroke-linejoin="round" />
<path d="M 108.0 132.0 L 107.5 132.0 L 107.0 132.0 L 107.5 133.0 L 109.0 136.0 L 112.0 139.5 L 114.5 143.5 L 115.5 144.5 " stroke="black" fill="none" stroke-width="7.0" stroke-linecap="round" stroke-linejoin="round" />
<path d="M 116.5 134.5 L 117.0 134.5 L 118.5 133.5 L 124.5 131.5 L 133.0 128.5 L 146.5 124.5 L 159.0 120.5 L 169.5 118.0 L 175.5 116.5 L 180.0 115.5 L 183.0 115.5 L 183.5 117.0 L 182.5 120.0 L 180.0 123.5 L 178.5 126.0 " stroke="black" fill="none" stroke-width="7.0" stroke-linecap="round" stroke-linejoin="round" />
<path d="M 131.5 148.5 L 131.0 149.0 L 131.0 149.5 L 131.0 151.5 L 133.0 154.5 L 135.0 157.0 L 137.5 158.5 " stroke="black" fill="none" stroke-width="7.0" stroke-linecap="round" stroke-linejoin="round" />
<path d="M 135.5 146.5 L 135.5 146.5 L 136.0 146.0 L 138.0 145.5 L 141.5 144.0 L 147.5 141.0 L 153.5 138.0 L 158.0 136.0 L 160.0 136.5 L 160.0 139.0 L 157.5 143.0 L 154.5 147.0 L 150.5 151.0 L 146.5 154.5 L 143.5 157.0 L 142.5 157.5 L 143.5 157.0 L 147.5 155.0 L 151.5 152.5 L 154.5 151.5 " stroke="black" fill="none" stroke-width="7.0" stroke-linecap="round" stroke-linejoin="round" />
<path d="M 121.0 180.0 L 120.5 181.0 L 120.5 182.5 L 122.5 185.0 L 125.0 187.0 L 127.0 188.5 L 127.5 189.0 " stroke="black" fill="none" stroke-width="7.0" stroke-linecap="round" stroke-linejoin="round" />
<path d="M 124.5 181.5 L 124.5 181.5 L 124.5 181.5 L 126.0 180.5 L 131.5 178.0 L 142.5 173.5 L 153.0 169.0 L 162.0 165.5 L 168.5 164.0 L 172.0 164.0 L 173.0 165.0 L 173.5 168.0 L 173.0 172.5 L 171.5 178.0 L 168.5 183.0 L 164.5 185.5 L 163.0 186.0 " stroke="black" fill="none" stroke-width="7.0" stroke-linecap="round" stroke-linejoin="round" />
<path d="M 149.5 157.0 L 149.5 156.5 L 149.0 156.0 L 148.5 158.0 L 148.5 166.0 L 149.0 182.5 L 149.5 198.0 L 149.5 208.5 L 149.0 212.0 " stroke="black" fill="none" stroke-width="7.0" stroke-linecap="round" stroke-linejoin="round" />
</svg>