<svg xmlns="http://www.w3.org/2000/svg" width="300" height="300" viewBox="0 0 300 300">
<path d="M 132.5 93.5 L 132.5 93.5 L 132.5 93.5 L 132.5 94.0 L 132.5 95.0 L 130.5 100.0 L 127.5 107.0 L 123.0 114.0 L 118.5 118.5 L 117.5 119.0 " stroke="black" fill="none" stroke-width="7.0" stroke-linecap="round" stroke-linejoin="round" />
<path d="M 116.0 119.0 L 116.0 119.5 L 116.5 119.5 L 116.5 119.5 L 117.0 120.5 L 117.0 122.5 L 117.0 128.5 L 117.0 139.5 L 116.5 152.5 L 116.0 166.5 L 115.5 176.5 L 114.5 183.5 L 114.0 187.5 L 114.0 187.5 L 114.0 187.0 " stroke="black" fill="none" stroke-width="7.0" stroke-linecap="round" stroke-linejoin="round" />
<path d="M 123.5 123.0 L 122.0 123.0 L 121.5 123.0 L 121.5 123.0 L 123.0 123.0 L 126.5 122.5 L 130.5 120.5 L 135.0 119.0 L 141.5 116.5 L 144.5 116.0 L 145.0 116.0 L 144.0 118.5 L 141.5 122.5 L 137.5 127.0 L 135.5 129.5 " stroke="black" fill="none" stroke-width="7.0" stroke-linecap="round" stroke-linejoin="round" />
<path d="M 127.0 140.0 L 125.5 141.0 L 124.0 142.0 L 123.0 142.5 L 123.0 143.0 L 125.5 142.5 L 129.0 140.5 L 133.0 137.5 L 137.0 135.0 L 140.0 134.0 L 140.0 134.5 " stroke="black" fill="none" stroke-width="7.0" stroke-linecap="round" stroke-linejoin="round" />
<path d="M 121.5 166.5 L 121.5 166.5 L 121.0 167.0 L 121.0 167.5 L 123.0 167.0 L 126.5 165.5 L 130.5 163.0 L 135.5 160.5 L 140.0 159.5 L 142.0 160.5 L 141.5 164.5 L 138.5 170.0 L 135.5 176.5 L 134.0 179.5 " stroke="black" fill="none" stroke-width="7.0" stroke-linecap="round" stroke-linejoin="round" />
<path d="M 128.0 186.5 L 127.0 187.0 L 125.5 187.5 L 124.5 188.0 L 124.5 188.0 L 127.0 186.5 L 131.0 184.5 L 137.0 182.5 L 142.0 181.5 " stroke="black" fill="none" stroke-width="7.0" stroke-linecap="round" stroke-linejoin="round" />
<path d="M 168.0 106.5 L 167.0 107.0 L 166.0 107.5 L 166.0 107.5 L 168.5 107.5 L 172.5 106.0 L 176.5 104.5 L 178.0 104.0 L 180.5 103.0 L 182.0 102.5 " stroke="black" fill="none" stroke-width="7.0" stroke-linecap="round" stroke-linejoin="round" />
<path d="M 151.5 128.5 L 151.5 129.5 L 152.0 132.5 L 153.5 137.0 L 156.0 141.0 L 158.5 144.0 L 160.0 145.0 L 161.0 145.0 " stroke="black" fill="none" stroke-width="7.0" stroke-linecap="round" stroke-linejoin="round" />
<path d="M 155.0 131.5 L 154.5 131.5 L 153.5 131.5 L 154.0 131.5 L 157.0 131.5 L 163.0 129.5 L 170.5 126.5 L 179.0 123.0 L 187.0 120.5 L 191.5 120.0 L 194.0 120.0 L 195.0 122.5 L 195.5 126.5 L 195.5 132.0 L 194.0 138.5 L 192.0 142.5 L 189.5 144.0 L 187.0 143.0 L 185.0 140.5 " stroke="black" fill="none" stroke-width="7.0" stroke-linecap="round" stroke-linejoin="round" />
<path d="M 173.5 106.0 L 173.5 106.5 L 173.0 107.5 L 173.0 113.0 L 173.5 127.0 L 174.0 147.5 L 172.0 169.5 L 170.0 187.0 L 169.0 197.5 " stroke="black" fill="none" stroke-width="7.0" stroke-linecap="round" stroke-linejoin="round" />
</svg>