<svg xmlns="http://www.w3.org/2000/svg" width="300" height="300" viewBox="0 0 300 300">
<path d="M 160.0 100.0 L 159.5 100.0 L 158.5 100.0 L 158.0 100.0 L 158.0 100.5 L 160.0 100.5 L 164.5 100.5 L 170.0 99.0 L 177.0 97.0 L 185.5 94.5 L 192.0 92.5 L 195.5 91.0 L 196.0 90.5 L 196.5 93.5 L 196.5 98.5 L 195.5 104.5 L 194.5 112.0 L 194.0 119.5 L 193.5 123.0 " stroke="black" fill="none" stroke-width="7.0" stroke-linecap="round" stroke-linejoin="round" />
<path d="M 143.5 118.5 L 142.5 118.5 L 141.5 118.5 L 140.5 118.5 L 139.5 119.0 L 138.5 119.0 L 138.5 119.5 L 138.5 119.5 L 142.5 119.5 L 149.0 119.5 L 161.5 117.5 L 177.5 113.5 L 191.5 110.5 L 200.0 108.5 L 207.0 107.5 L 211.5 107.0 L 212.5 107.0 " stroke="black" fill="none" stroke-width="7.0" stroke-linecap="round" stroke-linejoin="round" />
<path d="M 159.5 134.5 L 157.5 135.0 L 155.5 135.0 L 154.0 135.0 L 154.0 135.0 L 155.5 135.0 L 160.5 134.5 L 168.5 133.0 L 177.0 130.0 L 186.5 127.0 L 194.0 125.5 L 196.0 126.0 " stroke="black" fill="none" stroke-width="7.0" stroke-linecap="round" stroke-linejoin="round" />
<path d="M 161.0 152.5 L 160.0 153.0 L 158.5 153.5 L 157.5 153.5 L 157.5 153.5 L 161.0 152.5 L 167.5 150.5 L 175.0 147.0 L 183.5 144.0 L 190.5 141.5 L 193.0 141.0 L 193.0 141.0 " stroke="black" fill="none" stroke-width="7.0" stroke-linecap="round" stroke-linejoin="round" />
<path d="M 154.0 169.5 L 151.5 170.5 L 150.0 171.0 L 150.0 171.0 L 153.0 171.0 L 159.0 170.0 L 168.0 167.5 L 177.5 164.0 L 187.5 160.0 L 195.0 158.0 L 196.0 157.5 " stroke="black" fill="none" stroke-width="7.0" stroke-linecap="round" stroke-linejoin="round" />
<path d="M 173.0 79.5 L 173.0 79.5 L 173.0 78.5 L 173.0 78.0 L 173.0 77.0 L 173.0 76.5 L 173.0 76.5 L 173.0 79.0 L 173.0 91.0 L 174.0 115.0 L 174.0 142.5 L 173.0 163.0 L 172.5 179.5 L 172.0 190.0 L 172.0 193.5 " stroke="black" fill="none" stroke-width="7.0" stroke-linecap="round" stroke-linejoin="round" />
<path d="M 124.5 143.0 L 124.0 143.0 L 123.5 143.0 L 123.0 143.0 L 123.0 143.0 L 125.0 142.5 L 127.5 141.5 L 131.0 140.0 L 134.0 139.0 L 135.5 139.0 L 136.0 141.0 L 134.0 145.0 L 132.0 149.0 L 129.5 154.0 L 127.0 159.0 L 125.5 163.0 L 124.5 166.0 L 124.5 166.5 L 125.5 166.0 L 127.5 165.0 L 130.5 163.0 L 133.5 161.5 L 136.0 161.0 L 138.0 161.0 L 139.0 162.0 L 139.5 164.5 L 139.0 168.0 L 137.5 172.5 L 135.5 178.0 L 132.5 184.5 L 128.5 191.5 L 123.0 198.0 L 115.5 204.0 L 109.5 206.0 L 107.0 206.0 L 106.5 204.5 " stroke="black" fill="none" stroke-width="7.0" stroke-linecap="round" stroke-linejoin="round" />
<path d="M 112.5 178.5 L 112.5 178.5 L 112.5 179.0 L 112.5 179.5 L 115.5 181.5 L 122.0 184.5 L 132.0 188.0 L 146.0 191.5 L 158.5 194.5 L 172.0 198.5 L 184.0 202.0 L 195.5 204.0 L 206.5 204.5 L 216.5 204.0 L 219.5 203.0 " stroke="black" fill="none" stroke-width="7.0" stroke-linecap="round" stroke-linejoin="round" />
</svg>