<svg xmlns="http://www.w3.org/2000/svg" width="300" height="300" viewBox="0 0 300 300">
<path d="M 145.5 87.5 L 145.5 87.5 L 145.0 87.5 L 145.0 89.0 L 147.5 91.5 L 150.0 94.5 L 150.5 95.0 " stroke="black" fill="none" stroke-width="7.0" stroke-linecap="round" stroke-linejoin="round" />
<path d="M 126.0 115.5 L 126.0 115.5 L 125.5 115.5 L 126.5 115.5 L 131.0 114.0 L 142.0 110.0 L 155.0 103.5 L 165.5 99.0 L 171.0 97.0 L 172.0 97.0 " stroke="black" fill="none" stroke-width="7.0" stroke-linecap="round" stroke-linejoin="round" />
<path d="M 123.0 119.5 L 122.0 119.5 L 122.0 122.0 L 122.5 132.5 L 122.5 149.5 L 119.0 168.0 L 113.0 187.0 L 107.0 201.5 L 104.5 207.5 " stroke="black" fill="none" stroke-width="7.0" stroke-linecap="round" stroke-linejoin="round" />
<path d="M 143.5 122.5 L 143.5 123.0 L 143.0 123.5 L 143.5 124.5 L 146.0 125.0 L 148.0 125.0 " stroke="black" fill="none" stroke-width="7.0" stroke-linecap="round" stroke-linejoin="round" />
<path d="M 159.5 114.5 L 159.0 115.0 L 158.0 115.5 L 156.5 118.0 L 154.0 122.0 L 151.5 127.5 L 151.0 129.0 " stroke="black" fill="none" stroke-width="7.0" stroke-linecap="round" stroke-linejoin="round" />
<path d="M 130.5 143.0 L 129.0 143.5 L 128.5 144.0 L 129.0 144.0 L 132.5 142.5 L 139.0 140.0 L 148.0 135.5 L 158.0 130.0 L 165.5 127.0 L 169.0 126.0 " stroke="black" fill="none" stroke-width="7.0" stroke-linecap="round" stroke-linejoin="round" />
<path d="M 134.5 157.5 L 133.5 157.5 L 133.5 157.0 L 135.5 156.5 L 141.5 154.0 L 149.0 150.0 L 157.0 145.0 L 164.0 142.0 L 167.5 141.0 L 168.0 142.5 L 167.5 146.5 L 166.0 152.5 L 164.5 160.0 L 163.5 166.0 L 163.5 167.0 " stroke="black" fill="none" stroke-width="7.0" stroke-linecap="round" stroke-linejoin="round" />
<path d="M 126.0 172.5 L 123.5 172.5 L 121.5 173.0 L 121.5 173.5 L 124.0 173.5 L 129.5 172.0 L 138.5 169.5 L 149.0 165.5 L 160.0 160.5 L 169.0 157.5 L 172.5 156.0 L 173.5 156.0 L 172.5 157.5 " stroke="black" fill="none" stroke-width="7.0" stroke-linecap="round" stroke-linejoin="round" />
<path d="M 129.0 184.0 L 126.0 185.5 L 124.0 186.5 L 124.0 186.5 L 127.5 186.0 L 134.5 183.0 L 143.5 179.5 L 153.0 175.5 L 161.5 172.5 L 165.5 172.5 " stroke="black" fill="none" stroke-width="7.0" stroke-linecap="round" stroke-linejoin="round" />
<path d="M 141.5 141.5 L 140.5 142.5 L 140.0 146.0 L 140.5 156.0 L 140.5 171.0 L 140.5 186.5 L 140.5 199.0 L 141.0 206.5 L 142.0 207.5 " stroke="black" fill="none" stroke-width="7.0" stroke-linecap="round" stroke-linejoin="round" />
<path d="M 151.0 136.5 L 151.0 136.0 L 150.5 136.0 L 150.5 142.0 L 151.5 157.5 L 153.0 177.5 L 153.5 196.0 L 153.5 208.0 L 153.5 213.0 L 153.5 214.5 " stroke="black" fill="none" stroke-width="7.0" stroke-linecap="round" stroke-linejoin="round" />
<path d="M 141.5 186.0 L 141.5 184.5 L 141.0 183.5 L 140.5 183.5 L 139.0 184.5 L 135.5 189.0 L 130.0 196.5 L 123.0 206.0 L 114.0 212.0 L 109.5 213.5 " stroke="black" fill="none" stroke-width="7.0" stroke-linecap="round" stroke-linejoin="round" />
<path d="M 150.5 178.5 L 150.5 179.0 L 152.0 180.0 L 155.0 183.0 L 161.0 188.0 L 168.5 193.0 L 174.5 196.5 L 179.0 199.0 L 182.0 200.5 " stroke="black" fill="none" stroke-width="7.0" stroke-linecap="round" stroke-linejoin="round" />
</svg>