<svg xmlns="http://www.w3.org/2000/svg" width="300" height="300" viewBox="0 0 300 300">
<path d="M 149.5 82.0 L 149.5 82.0 L 148.5 81.0 L 148.0 80.5 L 148.0 80.5 L 149.0 82.5 L 150.5 85.0 L 151.5 87.0 L 152.0 88.5 " stroke="black" fill="none" stroke-width="7.0" stroke-linecap="round" stroke-linejoin="round" />
<path d="M 124.5 98.5 L 124.0 98.5 L 121.5 98.5 L 120.5 98.5 L 120.0 98.5 L 121.5 98.5 L 126.5 98.0 L 132.5 96.5 L 144.5 93.5 L 158.5 88.5 L 171.5 85.5 L 174.0 85.0 L 175.0 85.5 L 173.0 88.0 " stroke="black" fill="none" stroke-width="7.0" stroke-linecap="round" stroke-linejoin="round" />
<path d="M 135.5 103.0 L 135.5 103.0 L 135.5 103.5 L 135.5 104.5 L 138.0 107.5 L 141.5 112.5 L 146.0 117.0 L 147.5 118.5 " stroke="black" fill="none" stroke-width="7.0" stroke-linecap="round" stroke-linejoin="round" />
<path d="M 160.5 97.0 L 161.5 96.0 L 162.0 96.0 L 161.0 99.5 L 157.5 105.5 L 154.5 110.5 " stroke="black" fill="none" stroke-width="7.0" stroke-linecap="round" stroke-linejoin="round" />
<path d="M 112.5 129.0 L 112.5 130.0 L 112.0 132.0 L 113.0 135.0 L 114.5 139.0 L 116.5 142.0 L 118.0 144.0 " stroke="black" fill="none" stroke-width="7.0" stroke-linecap="round" stroke-linejoin="round" />
<path d="M 117.0 133.0 L 117.0 132.5 L 117.5 131.5 L 120.0 130.5 L 125.5 129.0 L 134.0 126.5 L 147.5 122.5 L 159.5 119.0 L 170.5 116.0 L 176.0 115.0 L 179.5 115.0 L 181.5 116.0 L 182.0 118.5 L 181.0 121.5 L 179.0 125.0 L 176.5 129.5 L 175.5 130.5 " stroke="black" fill="none" stroke-width="7.0" stroke-linecap="round" stroke-linejoin="round" />
<path d="M 125.0 158.5 L 125.0 158.0 L 124.5 157.5 L 124.5 158.0 L 125.5 159.5 L 127.0 163.0 L 128.5 165.0 L 130.0 166.5 " stroke="black" fill="none" stroke-width="7.0" stroke-linecap="round" stroke-linejoin="round" />
<path d="M 128.5 157.5 L 128.5 157.5 L 128.5 157.5 L 129.0 157.5 L 131.5 156.5 L 140.0 153.0 L 151.5 147.5 L 160.0 144.5 L 167.0 143.0 L 170.5 143.0 L 171.5 144.5 L 171.5 147.5 L 170.0 151.5 L 167.5 156.0 L 163.5 160.0 L 159.0 162.5 " stroke="black" fill="none" stroke-width="7.0" stroke-linecap="round" stroke-linejoin="round" />
<path d="M 147.0 128.0 L 146.5 127.5 L 146.0 127.0 L 146.5 130.5 L 147.0 138.0 L 148.5 158.5 L 149.0 178.0 L 148.0 193.5 L 147.5 201.0 L 147.5 206.5 " stroke="black" fill="none" stroke-width="7.0" stroke-linecap="round" stroke-linejoin="round" />
</svg>