<svg xmlns="http://www.w3.org/2000/svg" width="300" height="300" viewBox="0 0 300 300">
<path d="M 119.0 149.0 L 119.0 149.0 L 119.5 149.0 L 119.5 149.0 L 119.5 153.0 L 117.5 162.0 L 112.5 174.5 L 107.0 185.0 L 104.5 188.5 " stroke="black" fill="none" stroke-width="7.0" stroke-linecap="round" stroke-linejoin="round" />
<path d="M 130.5 161.5 L 131.0 161.5 L 131.5 162.0 L 132.0 163.0 L 133.5 165.0 L 136.0 169.5 L 139.5 175.5 L 145.0 182.5 L 150.0 187.5 L 154.0 191.0 L 159.0 194.0 L 165.5 196.5 L 170.5 197.5 L 174.5 198.5 L 178.0 198.5 L 180.5 198.0 L 182.5 197.0 L 184.0 195.5 L 185.0 193.0 L 185.0 189.5 L 184.5 183.5 L 182.5 174.0 " stroke="black" fill="none" stroke-width="7.0" stroke-linecap="round" stroke-linejoin="round" />
<path d="M 148.0 150.0 L 147.5 150.0 L 147.0 150.0 L 147.5 150.5 L 150.5 153.0 L 155.5 155.5 L 158.0 156.5 " stroke="black" fill="none" stroke-width="7.0" stroke-linecap="round" stroke-linejoin="round" />
<path d="M 174.0 150.5 L 175.0 151.0 L 177.5 151.5 L 181.0 153.0 L 185.5 154.0 L 186.5 154.5 " stroke="black" fill="none" stroke-width="7.0" stroke-linecap="round" stroke-linejoin="round" />
<path d="M 174.0 124.5 L 173.5 124.5 L 173.0 124.5 L 172.0 127.5 L 170.0 138.0 L 163.5 154.5 L 151.5 175.0 L 138.5 196.5 L 127.0 213.0 L 122.5 220.0 " stroke="black" fill="none" stroke-width="7.0" stroke-linecap="round" stroke-linejoin="round" />
</svg>