<svg xmlns="http://www.w3.org/2000/svg" width="300" height="300" viewBox="0 0 300 300">
<path d="M 128.0 121.5 L 127.0 122.0 L 125.0 122.0 L 124.5 122.0 L 124.5 122.0 L 126.5 121.0 L 131.0 120.0 L 139.5 118.0 L 151.0 114.0 L 161.0 110.0 L 168.5 107.5 L 170.5 106.5 " stroke="black" fill="none" stroke-width="7.0" stroke-linecap="round" stroke-linejoin="round" />
<path d="M 150.0 86.5 L 150.0 88.5 L 150.0 94.0 L 150.0 105.5 L 150.0 121.0 L 149.5 133.0 L 149.0 139.0 " stroke="black" fill="none" stroke-width="7.0" stroke-linecap="round" stroke-linejoin="round" />
<path d="M 130.5 147.0 L 130.5 147.0 L 129.5 147.5 L 129.5 148.0 L 131.0 148.0 L 136.0 148.0 L 145.0 146.0 L 154.5 143.0 L 162.5 140.0 L 164.0 139.5 " stroke="black" fill="none" stroke-width="7.0" stroke-linecap="round" stroke-linejoin="round" />
<path d="M 120.0 161.0 L 119.5 160.5 L 119.0 160.0 L 118.5 161.0 L 117.5 165.0 L 114.5 173.5 L 110.5 185.5 L 106.5 194.0 L 103.5 199.5 L 103.0 200.0 " stroke="black" fill="none" stroke-width="7.0" stroke-linecap="round" stroke-linejoin="round" />
<path d="M 129.0 171.5 L 128.5 171.5 L 128.0 171.5 L 128.0 173.0 L 130.5 177.0 L 136.0 183.0 L 143.5 189.0 L 150.5 192.5 L 156.5 193.5 L 162.5 194.0 L 167.5 193.0 L 170.5 191.5 L 171.5 189.5 L 171.5 186.5 L 171.5 182.5 L 170.0 177.0 L 169.0 173.5 " stroke="black" fill="none" stroke-width="7.0" stroke-linecap="round" stroke-linejoin="round" />
<path d="M 146.5 163.5 L 146.5 163.5 L 145.5 163.5 L 145.5 164.0 L 148.0 165.5 L 151.5 166.5 L 154.0 166.5 " stroke="black" fill="none" stroke-width="7.0" stroke-linecap="round" stroke-linejoin="round" />
<path d="M 177.0 151.5 L 177.0 151.5 L 178.0 152.0 L 181.0 155.5 L 185.0 164.0 L 188.5 173.5 L 190.5 182.5 L 191.0 184.5 " stroke="black" fill="none" stroke-width="7.0" stroke-linecap="round" stroke-linejoin="round" />
</svg>