<svg xmlns="http://www.w3.org/2000/svg" width="300" height="300" viewBox="0 0 300 300">
<path d="M 117.5 112.0 L 116.0 113.0 L 114.5 113.5 L 114.0 114.0 L 117.0 114.0 L 122.0 112.0 L 128.0 109.0 L 133.5 106.0 L 137.5 104.0 L 138.5 103.5 " stroke="black" fill="none" stroke-width="7.0" stroke-linecap="round" stroke-linejoin="round" />
<path d="M 97.0 149.0 L 96.5 149.0 L 94.5 150.0 L 94.0 150.5 L 94.5 150.5 L 98.5 149.5 L 104.5 146.5 L 113.5 142.5 L 127.0 137.0 L 139.0 132.5 L 147.5 131.0 L 151.0 131.0 L 151.5 132.5 " stroke="black" fill="none" stroke-width="7.0" stroke-linecap="round" stroke-linejoin="round" />
<path d="M 117.0 121.0 L 117.0 122.5 L 117.5 127.0 L 118.0 137.5 L 117.5 152.0 L 115.0 167.0 L 113.0 177.0 L 111.5 183.0 L 111.5 183.5 " stroke="black" fill="none" stroke-width="7.0" stroke-linecap="round" stroke-linejoin="round" />
<path d="M 136.0 118.0 L 136.0 117.5 L 136.0 117.5 L 136.0 121.5 L 136.0 134.5 L 136.0 154.5 L 134.5 174.5 L 134.0 189.0 L 134.0 195.5 L 134.0 196.0 " stroke="black" fill="none" stroke-width="7.0" stroke-linecap="round" stroke-linejoin="round" />
<path d="M 166.0 100.0 L 166.0 99.5 L 166.0 99.5 L 165.5 101.0 L 164.0 108.5 L 159.5 121.0 L 155.0 131.0 L 152.5 136.5 " stroke="black" fill="none" stroke-width="7.0" stroke-linecap="round" stroke-linejoin="round" />
<path d="M 175.5 120.0 L 174.0 124.0 L 172.0 129.0 L 169.5 137.0 L 165.5 146.0 L 160.5 154.5 L 157.5 159.5 " stroke="black" fill="none" stroke-width="7.0" stroke-linecap="round" stroke-linejoin="round" />
<path d="M 182.5 144.0 L 180.5 147.5 L 178.0 153.0 L 174.0 163.5 L 168.5 175.0 L 160.0 189.0 L 151.5 201.0 L 150.0 203.5 " stroke="black" fill="none" stroke-width="7.0" stroke-linecap="round" stroke-linejoin="round" />
</svg>