<svg xmlns="http://www.w3.org/2000/svg" width="300" height="300" viewBox="0 0 300 300">
<path d="M 133.0 98.5 L 133.5 97.5 L 133.5 97.0 L 134.0 97.0 L 134.0 99.0 L 132.0 105.0 L 128.0 114.5 L 121.5 126.0 L 116.5 132.0 L 114.0 135.5 " stroke="black" fill="none" stroke-width="7.0" stroke-linecap="round" stroke-linejoin="round" />
<path d="M 138.5 117.0 L 138.5 118.0 L 138.0 120.5 L 136.0 124.5 L 132.0 133.0 L 126.0 145.0 L 119.0 155.5 L 112.0 164.0 L 107.5 169.0 " stroke="black" fill="none" stroke-width="7.0" stroke-linecap="round" stroke-linejoin="round" />
<path d="M 118.0 158.0 L 119.5 157.5 L 120.5 158.5 L 121.0 164.0 L 121.0 174.0 L 121.0 187.0 L 120.5 197.5 L 120.5 204.5 " stroke="black" fill="none" stroke-width="7.0" stroke-linecap="round" stroke-linejoin="round" />
<path d="M 153.5 100.5 L 153.5 100.5 L 153.5 100.5 L 154.0 101.0 L 154.0 105.0 L 153.5 110.5 L 152.0 115.5 L 150.5 118.0 L 149.5 118.5 L 149.5 118.0 L 151.5 116.0 L 155.5 112.5 L 161.5 108.0 L 168.0 104.0 L 172.5 101.5 L 173.0 101.5 " stroke="black" fill="none" stroke-width="7.0" stroke-linecap="round" stroke-linejoin="round" />
<path d="M 149.0 128.5 L 149.0 130.5 L 150.0 133.5 L 151.0 138.0 L 152.5 142.5 L 153.5 146.5 L 154.5 149.5 L 155.0 150.0 " stroke="black" fill="none" stroke-width="7.0" stroke-linecap="round" stroke-linejoin="round" />
<path d="M 153.5 129.0 L 154.0 128.5 L 155.5 126.0 L 159.0 124.0 L 164.5 121.5 L 170.5 119.0 L 174.5 117.0 L 177.5 116.5 L 179.0 117.0 L 179.0 120.0 L 178.0 125.0 L 176.5 131.5 L 174.5 137.5 L 173.0 142.5 L 172.5 144.0 " stroke="black" fill="none" stroke-width="7.0" stroke-linecap="round" stroke-linejoin="round" />
<path d="M 162.0 137.0 L 160.5 137.0 L 159.5 137.0 L 160.0 137.0 L 163.5 136.0 L 168.0 134.0 L 170.0 132.5 " stroke="black" fill="none" stroke-width="7.0" stroke-linecap="round" stroke-linejoin="round" />
<path d="M 159.0 149.0 L 158.5 149.5 L 157.5 151.0 L 158.5 151.5 L 163.0 149.5 L 168.0 146.5 L 172.5 144.0 " stroke="black" fill="none" stroke-width="7.0" stroke-linecap="round" stroke-linejoin="round" />
<path d="M 166.0 150.5 L 166.0 151.0 L 165.5 152.5 L 164.0 157.0 L 160.5 163.5 L 156.0 171.0 L 152.0 177.0 L 150.0 180.5 L 149.5 180.0 " stroke="black" fill="none" stroke-width="7.0" stroke-linecap="round" stroke-linejoin="round" />
<path d="M 158.5 169.5 L 161.0 167.5 L 164.5 165.5 L 168.0 164.0 L 171.0 162.5 L 173.0 161.0 L 174.5 161.0 L 174.5 163.5 L 173.5 168.0 L 171.0 174.0 L 167.0 181.0 L 162.0 188.0 L 156.0 193.0 L 150.0 197.0 L 145.0 199.0 L 141.0 199.5 L 138.5 198.5 " stroke="black" fill="none" stroke-width="7.0" stroke-linecap="round" stroke-linejoin="round" />
<path d="M 143.0 170.0 L 143.0 169.5 L 143.0 169.5 L 144.5 169.5 L 148.5 173.5 L 155.5 179.5 L 166.0 186.5 L 174.0 193.0 L 180.0 197.5 L 187.5 201.5 L 193.0 204.5 L 194.0 204.5 " stroke="black" fill="none" stroke-width="7.0" stroke-linecap="round" stroke-linejoin="round" />
</svg>