<svg xmlns="http://www.w3.org/2000/svg" width="300" height="300" viewBox="0 0 300 300">
<path d="M 136.5 105.0 L 136.0 105.0 L 135.0 105.0 L 135.0 104.5 L 137.5 105.0 L 142.0 106.0 L 147.5 106.0 L 149.0 106.0 " stroke="black" fill="none" stroke-width="7.0" stroke-linecap="round" stroke-linejoin="round" />
<path d="M 157.5 91.0 L 157.5 91.0 L 157.5 91.0 L 157.0 93.0 L 155.5 98.5 L 152.0 106.0 L 148.5 114.0 " stroke="black" fill="none" stroke-width="7.0" stroke-linecap="round" stroke-linejoin="round" />
<path d="M 129.0 128.0 L 128.5 128.0 L 127.5 128.5 L 127.5 128.5 L 128.0 128.0 L 132.0 126.5 L 139.0 124.0 L 149.5 119.5 L 159.5 114.0 L 166.0 111.0 L 169.0 110.0 L 169.0 111.0 L 167.5 115.0 L 164.5 120.5 L 160.5 126.0 L 157.5 130.5 " stroke="black" fill="none" stroke-width="7.0" stroke-linecap="round" stroke-linejoin="round" />
<path d="M 135.5 143.5 L 135.0 144.0 L 132.0 144.5 L 131.5 144.5 L 132.5 144.0 L 136.5 142.5 L 144.0 139.0 L 151.5 134.5 L 158.0 131.0 L 160.5 130.5 " stroke="black" fill="none" stroke-width="7.0" stroke-linecap="round" stroke-linejoin="round" />
<path d="M 136.5 139.0 L 134.0 140.5 L 132.5 142.5 L 130.5 147.5 L 128.0 154.0 L 124.5 161.0 L 120.5 166.0 L 117.0 168.5 L 115.5 169.5 L 115.5 169.5 L 118.0 169.0 L 122.5 167.5 L 127.5 164.5 L 134.5 160.0 L 144.5 154.5 L 155.5 148.5 L 166.0 145.0 L 172.5 144.0 L 176.0 144.5 L 178.0 148.0 L 178.5 153.0 L 178.0 160.0 L 176.0 167.5 L 174.0 173.5 L 171.5 179.0 L 169.0 182.5 L 166.5 182.5 L 164.0 178.5 L 163.5 177.0 " stroke="black" fill="none" stroke-width="7.0" stroke-linecap="round" stroke-linejoin="round" />
<path d="M 149.5 126.0 L 149.0 126.0 L 148.5 127.0 L 148.5 134.5 L 150.0 150.0 L 150.0 167.0 L 149.0 181.0 L 148.5 189.0 L 148.5 191.0 L 148.5 191.0 " stroke="black" fill="none" stroke-width="7.0" stroke-linecap="round" stroke-linejoin="round" />
<path d="M 151.0 156.0 L 151.0 154.0 L 150.5 152.5 L 149.5 152.0 L 148.0 155.0 L 144.5 161.0 L 138.0 170.0 L 128.5 181.5 L 121.0 190.5 L 116.0 194.5 " stroke="black" fill="none" stroke-width="7.0" stroke-linecap="round" stroke-linejoin="round" />
</svg>