<svg xmlns="http://www.w3.org/2000/svg" width="300" height="300" viewBox="0 0 300 300">
<path d="M 136.0 83.0 L 136.0 83.0 L 136.0 82.0 L 136.5 81.5 L 136.5 81.0 L 134.5 82.5 L 129.5 88.0 L 122.0 96.0 L 117.0 100.0 " stroke="black" fill="none" stroke-width="7.0" stroke-linecap="round" stroke-linejoin="round" />
<path d="M 108.0 113.0 L 107.5 113.0 L 107.5 113.0 L 107.5 113.5 L 110.5 114.5 L 114.5 116.0 L 119.5 117.5 " stroke="black" fill="none" stroke-width="7.0" stroke-linecap="round" stroke-linejoin="round" />
<path d="M 125.5 105.5 L 125.5 105.5 L 125.5 105.0 L 125.5 105.0 L 126.5 105.5 L 127.5 106.0 " stroke="black" fill="none" stroke-width="7.0" stroke-linecap="round" stroke-linejoin="round" />
<path d="M 143.5 97.5 L 143.5 97.5 L 143.0 97.5 L 142.5 99.0 L 141.0 103.5 L 138.0 111.0 " stroke="black" fill="none" stroke-width="7.0" stroke-linecap="round" stroke-linejoin="round" />
<path d="M 102.0 154.5 L 100.5 155.0 L 99.0 155.5 L 99.5 155.5 L 103.5 154.5 L 110.5 150.5 L 121.0 144.5 L 132.5 137.0 L 140.5 131.0 L 143.0 129.0 " stroke="black" fill="none" stroke-width="7.0" stroke-linecap="round" stroke-linejoin="round" />
<path d="M 129.5 123.0 L 129.5 124.0 L 128.5 128.5 L 128.5 136.5 L 129.5 149.0 L 130.0 165.0 L 130.0 177.0 L 129.0 185.0 L 128.5 188.0 L 127.5 187.0 L 126.0 182.5 L 125.5 181.0 " stroke="black" fill="none" stroke-width="7.0" stroke-linecap="round" stroke-linejoin="round" />
<path d="M 125.0 145.0 L 125.0 143.0 L 125.5 142.5 L 124.5 146.0 L 122.0 152.0 L 118.0 160.0 L 113.5 167.5 L 109.5 172.5 L 108.0 173.0 " stroke="black" fill="none" stroke-width="7.0" stroke-linecap="round" stroke-linejoin="round" />
<path d="M 126.5 147.5 L 127.0 147.5 L 131.0 149.0 L 136.0 153.5 L 142.0 160.0 L 148.0 165.5 L 152.0 169.0 " stroke="black" fill="none" stroke-width="7.0" stroke-linecap="round" stroke-linejoin="round" />
<path d="M 166.5 95.0 L 166.5 94.0 L 166.5 93.0 L 166.5 94.0 L 166.0 99.5 L 163.0 109.5 L 158.0 122.0 L 153.0 130.5 " stroke="black" fill="none" stroke-width="7.0" stroke-linecap="round" stroke-linejoin="round" />
<path d="M 174.0 117.5 L 174.5 118.5 L 174.5 121.0 L 173.0 125.5 L 169.5 134.0 L 164.0 143.5 L 158.5 153.0 L 157.5 154.5 " stroke="black" fill="none" stroke-width="7.0" stroke-linecap="round" stroke-linejoin="round" />
<path d="M 180.0 140.5 L 180.0 141.0 L 179.5 143.5 L 177.5 148.5 L 173.0 159.0 L 168.0 171.5 L 160.5 184.0 L 155.0 191.5 " stroke="black" fill="none" stroke-width="7.0" stroke-linecap="round" stroke-linejoin="round" />
</svg>