<svg xmlns="http://www.w3.org/2000/svg" width="300" height="300" viewBox="0 0 300 300">
<path d="M 130.0 122.0 L 130.0 122.5 L 128.5 122.5 L 128.0 123.0 L 128.5 123.0 L 131.5 121.5 L 136.0 120.5 L 147.5 116.5 L 157.5 112.5 L 165.5 110.0 L 170.0 109.0 L 171.5 110.5 L 172.0 114.0 L 172.0 118.5 L 170.5 124.5 L 168.5 130.5 L 167.0 133.5 " stroke="black" fill="none" stroke-width="7.0" stroke-linecap="round" stroke-linejoin="round" />
<path d="M 136.5 146.5 L 135.5 146.5 L 132.5 147.0 L 131.5 147.0 L 133.0 147.0 L 138.0 145.5 L 145.5 143.0 L 153.5 139.0 L 160.5 135.5 L 164.0 134.0 " stroke="black" fill="none" stroke-width="7.0" stroke-linecap="round" stroke-linejoin="round" />
<path d="M 131.5 147.0 L 131.0 147.5 L 130.0 149.0 L 128.5 152.5 L 126.0 159.5 L 122.0 167.5 L 116.5 173.0 L 112.5 176.0 L 111.0 177.5 L 111.0 177.5 L 113.0 177.0 L 120.5 173.5 L 128.0 170.0 L 136.5 166.0 L 149.0 161.0 L 161.5 156.5 L 172.0 152.5 L 179.0 150.5 L 184.0 151.5 L 186.0 155.0 L 186.5 160.0 L 184.5 165.5 L 181.5 170.0 L 177.0 174.0 L 172.5 177.5 L 168.0 178.5 L 165.5 178.5 " stroke="black" fill="none" stroke-width="7.0" stroke-linecap="round" stroke-linejoin="round" />
<path d="M 143.5 95.0 L 142.5 95.0 L 141.5 95.5 L 141.5 103.5 L 142.0 124.0 L 141.5 149.0 L 139.0 175.0 L 136.5 193.0 L 136.0 199.5 L 136.5 201.0 " stroke="black" fill="none" stroke-width="7.0" stroke-linecap="round" stroke-linejoin="round" />
<path d="M 159.0 78.5 L 159.0 79.5 L 158.5 85.0 L 158.5 99.5 L 158.5 124.0 L 158.0 154.5 L 157.0 182.0 L 157.0 199.0 L 157.0 209.5 L 157.5 210.5 " stroke="black" fill="none" stroke-width="7.0" stroke-linecap="round" stroke-linejoin="round" />
</svg>