<svg xmlns="http://www.w3.org/2000/svg" width="300" height="300" viewBox="0 0 300 300">
<path d="M 116.5 134.0 L 116.5 132.5 L 116.5 131.5 L 116.5 132.0 L 115.5 138.5 L 112.5 149.0 L 108.0 164.5 L 103.0 178.0 L 100.0 184.0 " stroke="black" fill="none" stroke-width="7.0" stroke-linecap="round" stroke-linejoin="round" />
<path d="M 124.0 154.5 L 124.0 155.0 L 125.0 156.0 L 127.0 159.5 L 130.5 164.5 L 136.0 170.5 L 144.0 176.0 L 151.5 180.0 L 157.0 181.0 L 163.5 181.0 L 168.5 180.5 L 171.0 178.5 L 171.5 175.5 L 171.5 171.0 L 170.0 165.5 L 168.5 161.5 " stroke="black" fill="none" stroke-width="7.0" stroke-linecap="round" stroke-linejoin="round" />
<path d="M 144.5 135.5 L 143.5 135.5 L 143.0 135.5 L 144.5 136.5 L 149.0 140.0 L 153.5 142.5 L 157.0 143.5 " stroke="black" fill="none" stroke-width="7.0" stroke-linecap="round" stroke-linejoin="round" />
<path d="M 175.5 132.0 L 176.5 133.0 L 180.5 136.0 L 185.0 143.0 L 187.5 151.5 L 188.5 162.0 L 188.5 166.5 " stroke="black" fill="none" stroke-width="7.0" stroke-linecap="round" stroke-linejoin="round" />
</svg>