<svg xmlns="http://www.w3.org/2000/svg" width="300" height="300" viewBox="0 0 300 300">
<path d="M 131.5 92.5 L 132.5 90.5 L 133.5 89.5 L 133.5 91.5 L 132.5 96.5 L 129.5 104.5 L 123.5 114.5 L 120.0 120.0 " stroke="black" fill="none" stroke-width="7.0" stroke-linecap="round" stroke-linejoin="round" />
<path d="M 139.5 106.5 L 140.0 108.0 L 140.0 110.5 L 138.0 116.0 L 133.0 125.0 L 126.0 137.5 L 117.5 148.0 L 109.5 157.0 L 105.5 162.5 " stroke="black" fill="none" stroke-width="7.0" stroke-linecap="round" stroke-linejoin="round" />
<path d="M 129.5 136.0 L 129.5 136.0 L 129.5 136.0 L 130.0 137.5 L 131.0 146.5 L 131.5 167.5 L 131.0 178.0 L 130.0 189.5 L 130.0 190.5 " stroke="black" fill="none" stroke-width="7.0" stroke-linecap="round" stroke-linejoin="round" />
<path d="M 159.0 106.0 L 158.0 106.5 L 156.5 106.5 L 156.5 106.5 L 159.5 106.0 L 163.5 105.5 L 165.5 105.0 " stroke="black" fill="none" stroke-width="7.0" stroke-linecap="round" stroke-linejoin="round" />
<path d="M 150.5 126.0 L 150.0 127.5 L 149.5 128.0 L 151.0 128.0 L 155.5 125.5 L 161.0 122.5 L 169.5 118.0 L 172.5 116.5 L 173.0 116.0 " stroke="black" fill="none" stroke-width="7.0" stroke-linecap="round" stroke-linejoin="round" />
<path d="M 149.5 152.0 L 149.5 153.0 L 148.5 155.0 L 150.0 155.5 L 155.0 152.5 L 164.0 147.0 L 170.0 143.5 L 175.5 140.5 " stroke="black" fill="none" stroke-width="7.0" stroke-linecap="round" stroke-linejoin="round" />
<path d="M 165.5 132.0 L 165.5 132.5 L 164.0 133.5 L 164.0 138.0 L 164.0 146.5 L 164.5 154.5 L 165.0 166.0 L 165.0 172.5 " stroke="black" fill="none" stroke-width="7.0" stroke-linecap="round" stroke-linejoin="round" />
<path d="M 138.5 189.0 L 137.5 189.0 L 137.0 189.0 L 137.5 187.5 L 142.5 185.5 L 149.5 184.0 L 162.0 181.5 L 176.5 179.0 L 188.5 177.5 L 196.5 177.5 L 200.0 177.5 " stroke="black" fill="none" stroke-width="7.0" stroke-linecap="round" stroke-linejoin="round" />
</svg>