<svg xmlns="http://www.w3.org/2000/svg" width="300" height="300" viewBox="0 0 300 300">
<path d="M 150.5 87.0 L 150.5 87.0 L 151.0 85.5 L 151.0 85.0 L 151.0 85.5 L 150.0 89.0 L 147.0 94.5 L 141.5 102.5 L 132.5 113.5 L 124.5 122.0 L 118.5 125.0 L 115.0 125.5 L 115.0 124.0 " stroke="black" fill="none" stroke-width="7.0" stroke-linecap="round" stroke-linejoin="round" />
<path d="M 147.5 93.5 L 149.0 94.0 L 151.5 96.0 L 155.0 98.5 L 161.5 101.5 L 168.0 104.0 L 171.5 105.5 L 172.5 106.0 " stroke="black" fill="none" stroke-width="7.0" stroke-linecap="round" stroke-linejoin="round" />
<path d="M 140.0 125.5 L 140.0 125.5 L 139.0 126.0 L 139.5 126.5 L 143.0 126.5 L 148.5 125.0 L 154.0 122.0 L 159.0 119.5 " stroke="black" fill="none" stroke-width="7.0" stroke-linecap="round" stroke-linejoin="round" />
<path d="M 141.0 143.5 L 139.5 143.5 L 138.5 144.0 L 138.5 144.0 L 139.0 144.0 L 142.0 143.5 L 146.0 142.5 L 150.5 141.0 L 156.0 139.0 L 161.0 137.5 L 164.0 136.5 L 164.5 137.0 L 162.5 140.5 L 158.0 145.5 L 153.5 151.5 " stroke="black" fill="none" stroke-width="7.0" stroke-linecap="round" stroke-linejoin="round" />
<path d="M 125.0 165.5 L 125.0 165.5 L 125.0 165.5 L 125.0 165.5 L 124.5 166.0 L 124.0 167.5 L 123.0 170.5 L 120.5 176.0 L 116.5 183.0 L 112.5 188.5 L 110.0 191.0 " stroke="black" fill="none" stroke-width="7.0" stroke-linecap="round" stroke-linejoin="round" />
<path d="M 131.0 170.5 L 131.5 172.0 L 133.0 174.0 L 135.5 177.0 L 139.5 180.5 L 145.0 183.5 L 150.0 185.5 L 155.0 187.0 L 161.0 188.0 L 166.0 188.0 L 169.5 188.0 L 171.0 186.5 L 171.5 184.5 L 171.5 181.5 L 171.0 178.0 L 170.0 176.0 " stroke="black" fill="none" stroke-width="7.0" stroke-linecap="round" stroke-linejoin="round" />
<path d="M 147.5 166.0 L 147.5 166.0 L 147.5 166.0 L 148.5 166.0 L 151.0 167.0 L 156.0 168.5 " stroke="black" fill="none" stroke-width="7.0" stroke-linecap="round" stroke-linejoin="round" />
<path d="M 174.5 161.0 L 176.5 162.5 L 179.5 164.5 L 183.0 167.5 L 186.0 172.0 L 188.0 177.0 " stroke="black" fill="none" stroke-width="7.0" stroke-linecap="round" stroke-linejoin="round" />
</svg>