<svg xmlns="http://www.w3.org/2000/svg" width="300" height="300" viewBox="0 0 300 300">
<path d="M 135.5 113.5 L 134.0 114.0 L 133.0 114.0 L 133.0 114.0 L 135.0 114.0 L 139.5 112.5 L 146.0 109.5 L 153.5 106.0 L 162.0 102.5 L 169.0 101.0 L 171.5 100.5 L 173.0 100.5 L 173.5 102.0 L 173.0 107.0 L 170.0 113.5 L 166.0 120.5 L 165.0 122.0 " stroke="black" fill="none" stroke-width="7.0" stroke-linecap="round" stroke-linejoin="round" />
<path d="M 136.0 133.5 L 135.5 134.0 L 133.5 134.5 L 133.0 135.0 L 134.5 135.0 L 139.5 132.5 L 149.0 128.5 L 155.5 124.5 L 160.0 122.0 L 161.0 122.0 " stroke="black" fill="none" stroke-width="7.0" stroke-linecap="round" stroke-linejoin="round" />
<path d="M 132.0 136.0 L 130.5 137.5 L 129.0 140.5 L 127.5 144.5 L 125.5 148.5 L 123.5 152.0 L 121.0 155.0 L 118.5 158.5 L 117.0 161.0 L 116.0 162.0 L 115.5 163.0 L 116.0 163.0 L 121.5 161.5 L 127.5 157.5 L 136.0 152.5 L 148.0 147.5 L 159.0 143.5 L 168.0 141.5 L 173.5 141.5 L 176.5 142.5 L 178.5 144.0 L 180.0 148.0 L 180.5 154.5 L 178.5 160.0 L 176.5 164.5 L 173.0 170.0 L 170.5 172.0 L 168.0 172.0 L 166.5 170.5 " stroke="black" fill="none" stroke-width="7.0" stroke-linecap="round" stroke-linejoin="round" />
<path d="M 146.5 116.5 L 146.5 116.5 L 146.0 116.0 L 146.0 118.0 L 146.5 128.5 L 148.0 147.5 L 148.0 168.5 L 147.0 185.0 L 147.0 195.0 L 147.0 198.5 " stroke="black" fill="none" stroke-width="7.0" stroke-linecap="round" stroke-linejoin="round" />
</svg>