<svg xmlns="http://www.w3.org/2000/svg" width="300" height="300" viewBox="0 0 300 300">
<path d="M 135.0 100.0 L 135.0 99.5 L 135.0 98.5 L 135.0 98.0 L 135.0 99.5 L 134.5 104.0 L 132.5 111.5 L 128.5 121.0 L 124.0 130.0 L 119.0 135.0 L 117.5 136.5 " stroke="black" fill="none" stroke-width="7.0" stroke-linecap="round" stroke-linejoin="round" />
<path d="M 144.5 117.0 L 144.5 117.0 L 144.0 117.5 L 144.0 119.5 L 143.0 123.0 L 139.5 131.5 L 132.5 143.0 L 124.5 155.0 L 116.0 165.0 L 110.5 170.0 L 108.5 172.5 " stroke="black" fill="none" stroke-width="7.0" stroke-linecap="round" stroke-linejoin="round" />
<path d="M 123.0 160.0 L 123.5 158.5 L 125.0 158.0 L 126.0 160.0 L 126.0 167.5 L 126.0 179.5 L 126.0 192.5 L 126.0 202.5 L 126.0 207.5 " stroke="black" fill="none" stroke-width="7.0" stroke-linecap="round" stroke-linejoin="round" />
<path d="M 154.0 109.5 L 154.0 109.5 L 153.5 109.5 L 154.5 113.0 L 156.5 120.0 L 158.5 126.5 L 159.5 130.0 L 160.0 130.5 L 160.0 129.5 L 160.0 128.5 " stroke="black" fill="none" stroke-width="7.0" stroke-linecap="round" stroke-linejoin="round" />
<path d="M 160.5 106.5 L 159.5 106.5 L 158.5 106.5 L 158.0 105.5 L 161.0 104.0 L 165.5 102.5 L 171.5 100.5 L 177.5 98.5 L 183.0 97.0 L 187.0 97.0 L 188.5 100.0 L 188.5 105.5 L 186.5 114.0 L 184.0 122.5 L 181.0 128.5 L 178.5 132.5 L 178.0 133.5 " stroke="black" fill="none" stroke-width="7.0" stroke-linecap="round" stroke-linejoin="round" />
<path d="M 164.0 119.5 L 164.0 119.5 L 162.0 120.0 L 161.5 120.5 L 162.5 121.0 L 165.5 120.5 L 170.0 118.5 L 174.0 116.5 L 177.5 115.5 " stroke="black" fill="none" stroke-width="7.0" stroke-linecap="round" stroke-linejoin="round" />
<path d="M 162.0 133.5 L 161.5 134.0 L 160.0 135.0 L 161.0 135.5 L 165.0 136.0 L 170.0 134.5 L 174.5 133.0 L 175.5 133.0 " stroke="black" fill="none" stroke-width="7.0" stroke-linecap="round" stroke-linejoin="round" />
<path d="M 160.5 150.0 L 160.0 150.0 L 159.0 150.0 L 158.0 150.0 L 157.5 150.5 L 158.0 150.5 L 162.0 150.5 L 167.5 149.0 L 173.0 147.0 L 177.5 145.5 L 179.0 145.0 " stroke="black" fill="none" stroke-width="7.0" stroke-linecap="round" stroke-linejoin="round" />
<path d="M 144.5 170.0 L 144.0 170.0 L 142.5 170.5 L 141.5 171.0 L 141.5 171.5 L 142.5 171.5 L 146.0 171.5 L 151.0 171.0 L 158.5 168.5 L 169.5 164.5 L 179.0 160.5 L 186.5 158.0 L 190.0 156.5 L 190.5 156.5 " stroke="black" fill="none" stroke-width="7.0" stroke-linecap="round" stroke-linejoin="round" />
<path d="M 175.0 149.5 L 175.0 149.0 L 175.0 148.5 L 174.5 148.5 L 174.5 149.5 L 174.5 153.5 L 175.0 160.5 L 176.0 170.5 L 176.0 182.5 L 176.0 193.0 L 176.0 201.0 L 176.0 207.0 L 175.5 210.0 L 175.0 211.0 L 173.0 211.5 L 170.0 209.5 L 167.0 206.0 L 165.0 203.0 " stroke="black" fill="none" stroke-width="7.0" stroke-linecap="round" stroke-linejoin="round" />
<path d="M 152.5 184.0 L 152.0 184.0 L 151.5 183.5 L 153.5 183.5 L 158.5 184.0 L 165.5 184.0 " stroke="black" fill="none" stroke-width="7.0" stroke-linecap="round" stroke-linejoin="round" />
</svg>