<svg xmlns="http://www.w3.org/2000/svg" width="300" height="300" viewBox="0 0 300 300">
<path d="M 133.5 90.5 L 133.5 90.5 L 133.5 90.5 L 134.0 90.5 L 133.5 93.0 L 132.0 98.0 L 129.0 105.5 L 125.0 114.0 L 120.5 121.0 L 119.5 122.0 " stroke="black" fill="none" stroke-width="7.0" stroke-linecap="round" stroke-linejoin="round" />
<path d="M 142.0 105.5 L 142.0 106.0 L 141.5 107.0 L 140.5 109.5 L 138.5 114.5 L 134.0 122.5 L 128.5 133.0 L 122.5 143.0 L 115.5 150.5 L 114.0 151.5 " stroke="black" fill="none" stroke-width="7.0" stroke-linecap="round" stroke-linejoin="round" />
<path d="M 123.5 143.0 L 123.5 143.0 L 123.5 144.0 L 124.0 146.5 L 124.0 154.0 L 124.0 166.0 L 123.5 177.5 L 123.0 186.0 L 123.0 189.0 " stroke="black" fill="none" stroke-width="7.0" stroke-linecap="round" stroke-linejoin="round" />
<path d="M 155.5 107.5 L 153.5 108.0 L 152.0 108.5 L 152.0 109.0 L 154.5 107.5 L 160.0 105.0 L 166.5 102.0 L 172.0 100.0 L 173.5 99.0 " stroke="black" fill="none" stroke-width="7.0" stroke-linecap="round" stroke-linejoin="round" />
<path d="M 167.0 91.0 L 166.5 91.5 L 165.5 94.0 L 165.0 98.5 L 164.0 104.0 L 162.0 110.0 L 161.0 113.0 " stroke="black" fill="none" stroke-width="7.0" stroke-linecap="round" stroke-linejoin="round" />
<path d="M 139.0 128.5 L 139.0 128.5 L 138.5 128.5 L 138.5 129.0 L 139.5 131.5 L 141.5 135.5 L 143.5 138.5 L 145.5 140.5 L 145.5 140.5 " stroke="black" fill="none" stroke-width="7.0" stroke-linecap="round" stroke-linejoin="round" />
<path d="M 145.5 127.5 L 144.5 128.0 L 144.0 128.0 L 144.0 128.0 L 145.5 127.5 L 149.5 126.0 L 156.0 124.0 L 165.5 121.0 L 173.0 118.5 L 178.0 118.0 L 181.0 118.0 L 182.5 118.5 L 183.0 120.5 L 181.5 124.0 L 178.5 128.5 L 175.5 133.5 " stroke="black" fill="none" stroke-width="7.0" stroke-linecap="round" stroke-linejoin="round" />
<path d="M 155.5 126.0 L 155.5 126.0 L 155.0 126.0 L 155.0 127.5 L 155.0 131.0 L 155.5 135.5 L 156.0 137.5 " stroke="black" fill="none" stroke-width="7.0" stroke-linecap="round" stroke-linejoin="round" />
<path d="M 166.0 124.0 L 166.0 125.0 L 165.5 126.0 L 165.5 128.5 L 165.0 131.5 L 164.5 133.5 " stroke="black" fill="none" stroke-width="7.0" stroke-linecap="round" stroke-linejoin="round" />
<path d="M 148.5 144.5 L 147.5 144.5 L 146.5 144.5 L 145.5 144.5 L 145.5 144.5 L 146.5 144.5 L 150.5 143.5 L 157.0 141.5 L 165.0 139.0 L 171.0 137.0 L 173.0 136.5 " stroke="black" fill="none" stroke-width="7.0" stroke-linecap="round" stroke-linejoin="round" />
<path d="M 147.0 159.0 L 146.5 159.0 L 145.5 159.0 L 145.0 159.0 L 145.0 159.0 L 146.0 159.0 L 150.0 158.0 L 156.0 156.0 L 164.5 153.0 L 170.5 151.0 L 173.5 149.5 L 173.5 149.5 " stroke="black" fill="none" stroke-width="7.0" stroke-linecap="round" stroke-linejoin="round" />
<path d="M 141.0 171.5 L 140.5 171.5 L 140.0 171.5 L 140.0 172.5 L 140.0 176.5 L 139.0 183.0 L 137.0 189.5 L 134.5 195.0 L 133.5 195.5 " stroke="black" fill="none" stroke-width="7.0" stroke-linecap="round" stroke-linejoin="round" />
<path d="M 150.0 180.5 L 149.5 180.5 L 149.0 180.5 L 149.0 180.5 L 149.5 181.5 L 151.0 183.0 L 154.5 186.0 L 160.0 188.5 L 166.0 190.5 L 171.0 191.0 L 173.5 191.5 L 175.0 190.0 L 175.5 187.5 L 175.5 184.5 L 174.5 181.5 " stroke="black" fill="none" stroke-width="7.0" stroke-linecap="round" stroke-linejoin="round" />
<path d="M 161.5 168.5 L 161.0 168.5 L 160.5 168.5 L 161.0 169.0 L 164.0 169.5 L 168.0 170.0 " stroke="black" fill="none" stroke-width="7.0" stroke-linecap="round" stroke-linejoin="round" />
<path d="M 182.5 164.0 L 184.0 164.5 L 186.5 166.5 L 189.0 170.0 L 190.5 175.0 L 191.5 177.0 " stroke="black" fill="none" stroke-width="7.0" stroke-linecap="round" stroke-linejoin="round" />
</svg>