<svg xmlns="http://www.w3.org/2000/svg" width="300" height="300" viewBox="0 0 300 300">
<path d="M 137.5 91.5 L 138.5 90.0 L 139.5 89.5 L 139.5 91.5 L 138.0 97.5 L 135.0 103.5 L 127.5 118.0 L 122.0 125.5 L 118.5 129.0 " stroke="black" fill="none" stroke-width="7.0" stroke-linecap="round" stroke-linejoin="round" />
<path d="M 147.0 106.5 L 147.0 107.5 L 147.0 109.0 L 146.0 112.5 L 142.0 119.0 L 135.5 129.0 L 127.5 141.5 L 119.5 151.0 L 112.5 157.5 " stroke="black" fill="none" stroke-width="7.0" stroke-linecap="round" stroke-linejoin="round" />
<path d="M 126.0 145.5 L 126.0 146.0 L 126.0 147.5 L 126.0 152.0 L 125.5 163.0 L 124.5 177.5 L 123.5 189.5 L 123.5 197.0 " stroke="black" fill="none" stroke-width="7.0" stroke-linecap="round" stroke-linejoin="round" />
<path d="M 160.0 110.5 L 159.5 110.5 L 159.0 111.0 L 159.0 111.0 L 159.0 111.0 L 162.0 110.5 L 165.5 109.5 L 173.0 106.5 L 179.5 104.0 L 184.0 102.5 L 188.0 101.5 L 188.5 102.0 L 188.0 104.5 L 186.5 112.5 L 184.5 121.5 L 183.5 129.5 L 183.5 131.5 " stroke="black" fill="none" stroke-width="7.0" stroke-linecap="round" stroke-linejoin="round" />
<path d="M 143.5 130.5 L 142.5 130.5 L 141.5 131.0 L 140.5 131.0 L 140.5 131.0 L 142.5 131.0 L 147.0 129.5 L 152.0 128.5 L 163.5 126.0 L 181.5 122.5 L 194.0 120.0 L 199.0 118.5 L 202.5 117.5 L 203.0 117.5 " stroke="black" fill="none" stroke-width="7.0" stroke-linecap="round" stroke-linejoin="round" />
<path d="M 151.5 144.0 L 150.5 145.0 L 149.0 145.5 L 148.5 146.0 L 149.0 146.0 L 154.0 144.5 L 161.5 142.5 L 168.5 140.5 L 178.5 137.5 L 184.0 136.5 " stroke="black" fill="none" stroke-width="7.0" stroke-linecap="round" stroke-linejoin="round" />
<path d="M 150.0 163.5 L 149.0 164.0 L 148.0 164.5 L 147.5 164.5 L 147.5 164.5 L 151.5 164.0 L 156.5 162.5 L 168.5 158.0 L 178.0 153.0 L 182.0 151.5 L 182.5 151.5 " stroke="black" fill="none" stroke-width="7.0" stroke-linecap="round" stroke-linejoin="round" />
<path d="M 136.0 184.0 L 136.0 184.0 L 134.5 184.5 L 134.0 184.5 L 133.5 184.5 L 134.0 184.5 L 137.0 183.0 L 143.5 180.5 L 154.0 176.5 L 170.0 170.5 L 184.5 166.0 L 196.0 163.5 L 200.5 163.0 L 202.0 163.0 " stroke="black" fill="none" stroke-width="7.0" stroke-linecap="round" stroke-linejoin="round" />
<path d="M 170.0 79.5 L 170.0 79.5 L 170.0 79.5 L 169.5 80.0 L 169.5 81.0 L 169.5 84.5 L 169.5 92.0 L 169.5 104.5 L 169.0 121.5 L 168.5 139.5 L 168.5 154.5 L 168.5 158.5 L 168.5 169.0 L 168.0 183.5 L 167.0 193.5 L 166.5 201.0 L 166.5 203.0 " stroke="black" fill="none" stroke-width="7.0" stroke-linecap="round" stroke-linejoin="round" />
</svg>