<svg xmlns="http://www.w3.org/2000/svg" width="300" height="300" viewBox="0 0 300 300">
<path d="M 125.5 121.0 L 125.0 121.0 L 124.5 121.0 L 125.0 122.0 L 127.5 124.0 L 131.0 126.5 L 133.5 128.5 L 134.5 129.0 " stroke="black" fill="none" stroke-width="7.0" stroke-linecap="round" stroke-linejoin="round" />
<path d="M 130.5 120.5 L 130.5 120.5 L 130.5 120.0 L 131.5 119.0 L 136.5 117.5 L 145.5 114.5 L 154.5 110.5 L 162.0 108.0 L 167.5 107.0 L 169.5 107.5 L 169.5 110.5 L 168.0 115.0 L 164.0 119.5 L 158.5 123.0 " stroke="black" fill="none" stroke-width="7.0" stroke-linecap="round" stroke-linejoin="round" />
<path d="M 145.5 129.0 L 144.5 129.5 L 141.0 130.5 L 140.0 131.0 L 141.5 131.0 L 146.0 129.5 L 152.0 127.0 L 158.5 124.5 L 160.0 124.0 " stroke="black" fill="none" stroke-width="7.0" stroke-linecap="round" stroke-linejoin="round" />
<path d="M 151.5 84.5 L 151.0 84.0 L 151.0 83.5 L 151.0 89.0 L 150.5 103.0 L 150.0 124.0 L 149.0 141.0 L 148.5 148.0 " stroke="black" fill="none" stroke-width="7.0" stroke-linecap="round" stroke-linejoin="round" />
<path d="M 123.5 154.5 L 123.5 155.5 L 123.0 158.5 L 121.5 165.5 L 118.5 175.5 L 114.5 184.5 L 113.5 187.5 " stroke="black" fill="none" stroke-width="7.0" stroke-linecap="round" stroke-linejoin="round" />
<path d="M 131.0 165.0 L 132.5 167.0 L 135.0 169.5 L 139.5 173.0 L 145.0 177.0 L 151.0 180.0 L 156.5 181.5 L 163.0 181.5 L 168.5 181.0 L 171.0 180.5 L 172.0 179.0 L 172.0 176.5 L 171.0 172.5 L 170.0 170.0 " stroke="black" fill="none" stroke-width="7.0" stroke-linecap="round" stroke-linejoin="round" />
<path d="M 148.5 157.5 L 148.0 157.5 L 148.0 157.5 L 148.5 158.0 L 150.5 160.0 L 154.0 161.5 " stroke="black" fill="none" stroke-width="7.0" stroke-linecap="round" stroke-linejoin="round" />
<path d="M 172.0 152.5 L 172.5 153.0 L 174.0 153.5 L 176.5 155.5 L 180.0 160.0 L 183.5 165.5 L 186.0 170.5 " stroke="black" fill="none" stroke-width="7.0" stroke-linecap="round" stroke-linejoin="round" />
</svg>