<svg xmlns="http://www.w3.org/2000/svg" width="300" height="300" viewBox="0 0 300 300">
<path d="M 129.5 88.0 L 129.5 88.0 L 129.5 86.5 L 129.5 86.5 L 129.5 91.5 L 127.5 100.0 L 122.5 113.5 L 115.5 125.5 L 110.5 133.0 L 110.0 134.0 " stroke="black" fill="none" stroke-width="7.0" stroke-linecap="round" stroke-linejoin="round" />
<path d="M 139.5 103.5 L 139.5 103.5 L 139.5 103.5 L 138.5 105.5 L 136.5 110.5 L 130.5 125.5 L 124.5 139.5 L 117.0 150.5 L 109.5 160.0 L 105.5 166.0 L 104.5 166.5 " stroke="black" fill="none" stroke-width="7.0" stroke-linecap="round" stroke-linejoin="round" />
<path d="M 127.5 136.5 L 127.5 136.0 L 127.0 135.0 L 127.0 138.0 L 127.5 147.0 L 128.5 163.5 L 128.5 179.0 L 127.5 190.0 L 127.5 194.5 L 127.5 195.0 " stroke="black" fill="none" stroke-width="7.0" stroke-linecap="round" stroke-linejoin="round" />
<path d="M 155.5 99.0 L 155.5 99.0 L 155.0 98.5 L 154.5 99.5 L 153.0 105.0 L 150.0 116.5 L 146.5 127.5 L 143.0 135.0 L 141.0 137.5 L 141.0 137.5 " stroke="black" fill="none" stroke-width="7.0" stroke-linecap="round" stroke-linejoin="round" />
<path d="M 150.5 120.5 L 151.0 120.5 L 152.0 121.0 L 155.0 122.5 L 159.0 125.5 L 164.0 128.0 L 166.5 129.0 " stroke="black" fill="none" stroke-width="7.0" stroke-linecap="round" stroke-linejoin="round" />
<path d="M 175.0 95.5 L 175.0 95.5 L 175.0 95.5 L 175.0 98.5 L 174.0 107.5 L 172.0 119.0 L 170.5 126.5 L 170.0 128.5 " stroke="black" fill="none" stroke-width="7.0" stroke-linecap="round" stroke-linejoin="round" />
<path d="M 172.5 122.0 L 172.5 122.0 L 173.5 122.0 L 176.0 121.5 L 180.0 121.0 L 183.5 120.5 " stroke="black" fill="none" stroke-width="7.0" stroke-linecap="round" stroke-linejoin="round" />
<path d="M 166.5 129.0 L 166.5 129.5 L 166.5 131.0 L 166.5 136.0 L 167.0 145.5 L 167.0 156.0 L 167.0 164.5 L 167.5 167.0 L 168.0 167.5 " stroke="black" fill="none" stroke-width="7.0" stroke-linecap="round" stroke-linejoin="round" />
<path d="M 172.5 146.0 L 172.5 145.0 L 174.0 143.0 L 176.0 141.5 L 178.5 140.5 L 180.5 140.0 " stroke="black" fill="none" stroke-width="7.0" stroke-linecap="round" stroke-linejoin="round" />
<path d="M 145.5 150.5 L 145.5 148.5 L 146.5 146.5 L 147.0 146.0 L 147.0 148.5 L 146.5 156.0 L 144.0 165.5 L 139.5 176.0 L 134.5 184.0 L 131.5 186.0 " stroke="black" fill="none" stroke-width="7.0" stroke-linecap="round" stroke-linejoin="round" />
<path d="M 146.0 160.0 L 147.5 161.0 L 150.5 162.5 L 155.5 167.0 L 165.0 172.5 L 174.5 178.5 L 183.0 182.5 L 190.5 184.5 L 195.0 185.0 L 197.5 185.0 " stroke="black" fill="none" stroke-width="7.0" stroke-linecap="round" stroke-linejoin="round" />
</svg>