<svg xmlns="http://www.w3.org/2000/svg" width="300" height="300" viewBox="0 0 300 300">
<path d="M 127.5 91.5 L 127.5 91.5 L 126.0 92.5 L 124.5 93.0 L 124.0 93.0 L 124.0 93.0 L 126.0 92.0 L 129.5 89.5 L 133.5 87.0 L 137.5 84.5 L 140.5 83.5 L 141.0 84.0 L 139.5 88.5 L 136.5 94.0 L 133.0 101.0 L 131.5 102.5 " stroke="black" fill="none" stroke-width="7.0" stroke-linecap="round" stroke-linejoin="round" />
<path d="M 123.5 114.5 L 122.0 115.0 L 122.0 115.0 L 122.5 114.5 L 126.5 111.5 L 131.0 108.0 L 135.0 105.5 L 135.5 105.0 " stroke="black" fill="none" stroke-width="7.0" stroke-linecap="round" stroke-linejoin="round" />
<path d="M 123.5 114.0 L 122.5 115.0 L 122.0 117.0 L 121.0 121.0 L 117.0 136.5 L 115.5 141.5 L 114.5 143.0 L 115.0 143.0 L 117.0 142.0 L 121.5 139.5 L 126.5 136.0 L 131.5 132.5 L 136.0 130.5 L 139.5 131.5 L 140.5 137.0 L 140.5 144.5 L 139.5 154.0 L 138.0 163.0 L 136.0 171.0 L 133.5 177.5 L 130.5 181.5 L 127.0 182.0 L 122.5 179.0 L 118.5 172.5 L 118.0 170.5 " stroke="black" fill="none" stroke-width="7.0" stroke-linecap="round" stroke-linejoin="round" />
<path d="M 164.5 85.5 L 164.0 85.5 L 162.0 86.0 L 161.5 86.0 L 163.0 86.0 L 168.0 84.0 L 173.0 81.0 L 177.0 78.5 L 178.5 77.5 " stroke="black" fill="none" stroke-width="7.0" stroke-linecap="round" stroke-linejoin="round" />
<path d="M 158.0 88.0 L 158.0 91.5 L 158.0 99.0 L 158.5 111.5 L 158.5 122.5 L 158.5 135.5 L 159.0 139.5 L 159.0 140.0 " stroke="black" fill="none" stroke-width="7.0" stroke-linecap="round" stroke-linejoin="round" />
<path d="M 161.0 109.5 L 161.0 108.5 L 160.5 107.0 L 162.5 105.5 L 166.5 103.5 L 172.5 100.5 L 177.0 97.5 L 178.5 96.5 " stroke="black" fill="none" stroke-width="7.0" stroke-linecap="round" stroke-linejoin="round" />
<path d="M 161.5 119.5 L 161.0 120.0 L 159.5 121.0 L 162.0 121.0 L 167.0 119.0 L 173.0 115.5 L 178.5 112.5 L 180.5 111.5 " stroke="black" fill="none" stroke-width="7.0" stroke-linecap="round" stroke-linejoin="round" />
<path d="M 141.5 150.5 L 139.5 152.0 L 138.5 153.0 L 141.5 153.0 L 148.0 150.0 L 159.5 144.0 L 172.0 137.5 L 180.0 132.0 L 183.5 130.0 L 183.5 130.0 " stroke="black" fill="none" stroke-width="7.0" stroke-linecap="round" stroke-linejoin="round" />
<path d="M 159.5 144.5 L 158.0 151.5 L 157.0 161.0 L 156.0 171.0 L 154.5 180.5 L 153.5 186.0 L 152.5 189.5 L 152.5 190.0 L 153.0 189.0 L 157.5 184.0 L 163.0 178.5 L 169.5 172.5 L 174.5 166.5 L 175.5 165.5 " stroke="black" fill="none" stroke-width="7.0" stroke-linecap="round" stroke-linejoin="round" />
<path d="M 187.5 147.5 L 187.5 147.5 L 186.5 147.5 L 185.0 148.5 L 182.5 151.5 L 179.5 155.5 L 173.5 160.5 L 170.5 161.5 L 168.5 161.5 L 168.0 160.5 L 167.0 159.5 L 167.0 159.5 L 167.5 159.5 L 169.5 161.0 L 171.5 162.5 L 177.5 165.0 L 183.0 167.0 L 194.5 171.0 L 200.0 173.5 L 209.5 177.5 L 215.0 178.5 L 216.0 178.5 " stroke="black" fill="none" stroke-width="7.0" stroke-linecap="round" stroke-linejoin="round" />
</svg>