<svg xmlns="http://www.w3.org/2000/svg" width="300" height="300" viewBox="0 0 300 300">
<path d="M 147.0 90.5 L 146.5 90.5 L 145.0 90.0 L 144.5 90.0 L 145.0 90.5 L 147.0 92.0 L 150.0 93.5 L 152.0 95.0 L 152.5 96.0 " stroke="black" fill="none" stroke-width="7.0" stroke-linecap="round" stroke-linejoin="round" />
<path d="M 126.0 116.0 L 125.5 116.0 L 124.0 116.5 L 123.0 117.0 L 123.0 117.0 L 125.0 117.0 L 129.5 116.0 L 137.0 113.5 L 147.5 109.5 L 158.5 105.0 L 166.5 101.5 L 169.5 100.5 L 169.5 100.5 " stroke="black" fill="none" stroke-width="7.0" stroke-linecap="round" stroke-linejoin="round" />
<path d="M 140.5 117.0 L 139.5 120.5 L 139.5 125.5 L 139.5 132.5 L 140.5 138.5 L 142.5 141.0 L 146.0 141.5 L 151.5 139.5 L 158.5 136.0 L 165.0 132.0 L 167.5 131.0 " stroke="black" fill="none" stroke-width="7.0" stroke-linecap="round" stroke-linejoin="round" />
<path d="M 123.5 158.5 L 124.0 158.0 L 124.0 158.0 L 124.5 160.0 L 124.5 165.0 L 123.0 172.5 L 120.0 180.5 L 116.5 186.5 L 114.5 189.0 " stroke="black" fill="none" stroke-width="7.0" stroke-linecap="round" stroke-linejoin="round" />
<path d="M 134.0 172.5 L 134.0 172.5 L 133.5 172.5 L 133.5 172.5 L 133.5 172.5 L 135.5 174.5 L 140.0 178.5 L 146.0 184.5 L 152.0 189.5 L 157.5 193.5 L 163.5 195.5 L 169.5 197.0 L 173.0 197.5 L 176.0 197.5 L 178.0 197.5 L 179.5 195.5 L 179.5 192.5 L 179.0 187.0 L 177.5 179.5 L 176.0 175.0 " stroke="black" fill="none" stroke-width="7.0" stroke-linecap="round" stroke-linejoin="round" />
<path d="M 151.0 159.0 L 150.5 159.0 L 150.5 158.5 L 151.5 159.0 L 154.5 160.5 L 160.0 161.5 L 163.5 162.0 " stroke="black" fill="none" stroke-width="7.0" stroke-linecap="round" stroke-linejoin="round" />
<path d="M 182.5 151.5 L 184.0 151.5 L 187.0 152.5 L 191.0 156.0 L 194.5 160.5 L 197.0 165.5 L 197.5 166.5 " stroke="black" fill="none" stroke-width="7.0" stroke-linecap="round" stroke-linejoin="round" />
</svg>