<svg xmlns="http://www.w3.org/2000/svg" width="300" height="300" viewBox="0 0 300 300">
<path d="M 132.5 99.0 L 132.5 98.5 L 132.5 97.5 L 132.5 97.0 L 132.5 98.0 L 132.5 101.0 L 130.5 107.0 L 127.0 115.5 L 121.5 123.5 L 120.5 125.0 " stroke="black" fill="none" stroke-width="7.0" stroke-linecap="round" stroke-linejoin="round" />
<path d="M 142.5 114.0 L 142.0 115.0 L 141.0 117.5 L 139.5 122.0 L 135.5 130.0 L 129.5 141.5 L 122.5 153.5 L 114.5 162.5 L 109.5 167.5 " stroke="black" fill="none" stroke-width="7.0" stroke-linecap="round" stroke-linejoin="round" />
<path d="M 124.0 152.5 L 124.0 152.0 L 125.0 152.0 L 126.0 155.5 L 126.5 164.5 L 126.0 177.5 L 125.0 189.5 L 124.5 196.5 L 124.5 198.0 " stroke="black" fill="none" stroke-width="7.0" stroke-linecap="round" stroke-linejoin="round" />
<path d="M 151.5 127.5 L 151.5 127.5 L 151.0 127.5 L 151.0 128.5 L 151.5 133.5 L 152.5 143.5 L 152.5 157.5 L 150.0 173.0 L 146.0 185.0 L 142.0 191.0 L 140.5 192.5 " stroke="black" fill="none" stroke-width="7.0" stroke-linecap="round" stroke-linejoin="round" />
<path d="M 155.5 129.5 L 155.0 129.5 L 154.0 129.5 L 154.0 129.5 L 154.0 129.5 L 157.0 129.0 L 163.0 126.0 L 170.0 122.0 L 177.5 117.5 L 183.0 113.5 L 185.5 112.0 L 186.5 112.5 L 186.0 115.5 L 183.5 120.5 L 181.0 125.0 " stroke="black" fill="none" stroke-width="7.0" stroke-linecap="round" stroke-linejoin="round" />
<path d="M 170.0 98.5 L 170.0 99.0 L 170.0 100.0 L 170.0 104.5 L 170.0 115.5 L 170.0 130.0 L 168.5 142.0 L 167.5 147.5 " stroke="black" fill="none" stroke-width="7.0" stroke-linecap="round" stroke-linejoin="round" />
<path d="M 161.5 158.0 L 161.0 158.0 L 160.0 157.5 L 160.0 156.5 L 162.0 156.5 L 166.0 155.5 L 170.0 154.5 L 174.5 152.5 L 179.0 150.0 L 181.5 149.0 L 182.5 149.0 L 182.5 151.5 L 181.5 155.5 L 179.5 161.5 L 177.0 168.0 L 173.0 176.5 L 168.5 185.5 L 162.0 192.5 L 156.0 196.0 L 151.5 197.0 L 150.0 197.0 L 150.0 195.5 " stroke="black" fill="none" stroke-width="7.0" stroke-linecap="round" stroke-linejoin="round" />
<path d="M 158.5 160.0 L 158.0 159.5 L 157.0 159.0 L 157.5 159.0 L 161.0 163.0 L 166.5 169.0 L 173.0 177.5 L 180.5 186.0 L 188.0 191.0 L 192.5 194.5 L 195.5 197.5 " stroke="black" fill="none" stroke-width="7.0" stroke-linecap="round" stroke-linejoin="round" />
</svg>