<svg xmlns="http://www.w3.org/2000/svg" width="300" height="300" viewBox="0 0 300 300">
<path d="M 115.5 131.0 L 115.5 132.0 L 115.5 135.0 L 115.5 141.0 L 115.5 150.0 L 115.0 160.0 L 114.5 164.0 " stroke="black" fill="none" stroke-width="7.0" stroke-linecap="round" stroke-linejoin="round" />
<path d="M 126.5 88.0 L 126.5 87.0 L 126.5 85.5 L 126.5 86.0 L 126.5 93.5 L 127.0 108.5 L 128.5 135.5 L 128.5 161.0 L 128.0 177.5 L 127.5 187.0 L 127.5 191.0 L 127.5 191.5 " stroke="black" fill="none" stroke-width="7.0" stroke-linecap="round" stroke-linejoin="round" />
<path d="M 137.0 140.5 L 137.5 142.5 L 139.5 146.5 L 145.5 158.5 L 146.5 160.0 " stroke="black" fill="none" stroke-width="7.0" stroke-linecap="round" stroke-linejoin="round" />
<path d="M 165.5 96.5 L 166.0 95.0 L 166.5 94.0 L 166.5 94.0 L 166.0 96.5 L 163.5 103.0 L 158.5 113.5 L 152.0 127.5 L 147.0 138.0 " stroke="black" fill="none" stroke-width="7.0" stroke-linecap="round" stroke-linejoin="round" />
<path d="M 153.5 123.0 L 153.5 124.0 L 154.0 126.0 L 154.5 134.0 L 154.5 148.5 L 154.5 166.0 L 154.0 181.5 L 153.0 191.5 L 153.0 195.5 " stroke="black" fill="none" stroke-width="7.0" stroke-linecap="round" stroke-linejoin="round" />
<path d="M 174.0 108.0 L 173.5 109.0 L 173.5 110.0 L 174.0 110.0 L 176.0 110.5 L 177.5 110.5 L 178.0 111.0 " stroke="black" fill="none" stroke-width="7.0" stroke-linecap="round" stroke-linejoin="round" />
<path d="M 168.0 126.5 L 167.0 128.0 L 165.5 129.5 L 167.0 129.5 L 170.0 128.5 L 174.0 125.0 L 178.5 121.5 L 183.0 118.0 L 185.5 116.5 " stroke="black" fill="none" stroke-width="7.0" stroke-linecap="round" stroke-linejoin="round" />
<path d="M 168.5 144.0 L 166.5 146.0 L 167.0 146.5 L 170.0 145.5 L 174.0 141.5 L 179.0 137.0 L 182.5 133.5 " stroke="black" fill="none" stroke-width="7.0" stroke-linecap="round" stroke-linejoin="round" />
<path d="M 168.0 158.5 L 167.5 159.0 L 165.5 161.0 L 165.0 162.0 L 168.0 161.0 L 172.5 157.5 L 178.0 152.5 L 184.0 148.0 L 188.0 145.5 L 188.0 145.5 " stroke="black" fill="none" stroke-width="7.0" stroke-linecap="round" stroke-linejoin="round" />
<path d="M 179.0 126.0 L 179.0 127.0 L 178.5 130.0 L 178.5 137.0 L 179.0 147.0 L 179.0 157.5 L 178.5 167.5 L 178.0 172.0 " stroke="black" fill="none" stroke-width="7.0" stroke-linecap="round" stroke-linejoin="round" />
<path d="M 163.0 183.0 L 162.0 183.0 L 160.5 183.5 L 161.5 183.5 L 166.0 182.0 L 173.0 179.0 L 184.0 174.0 L 195.5 170.5 L 201.5 170.0 L 205.0 172.0 L 205.5 173.0 " stroke="black" fill="none" stroke-width="7.0" stroke-linecap="round" stroke-linejoin="round" />
</svg>