<svg xmlns="http://www.w3.org/2000/svg" width="300" height="300" viewBox="0 0 300 300">
<path d="M 129.0 104.0 L 128.0 104.5 L 126.5 105.5 L 125.5 106.0 L 125.0 106.5 L 126.0 106.5 L 130.0 105.5 L 139.0 102.0 L 150.5 97.0 L 160.5 92.5 L 165.5 91.0 L 167.0 90.5 L 167.0 90.5 " stroke="black" fill="none" stroke-width="7.0" stroke-linecap="round" stroke-linejoin="round" />
<path d="M 135.5 83.5 L 135.5 84.0 L 135.0 84.5 L 135.0 89.5 L 137.0 100.5 L 138.0 112.5 L 139.0 121.0 L 140.0 124.5 " stroke="black" fill="none" stroke-width="7.0" stroke-linecap="round" stroke-linejoin="round" />
<path d="M 154.5 72.0 L 154.5 72.5 L 154.0 74.5 L 153.5 81.0 L 153.5 93.5 L 153.5 106.5 L 153.5 118.0 " stroke="black" fill="none" stroke-width="7.0" stroke-linecap="round" stroke-linejoin="round" />
<path d="M 118.5 137.0 L 118.0 137.0 L 115.5 138.0 L 116.0 138.0 L 120.0 138.0 L 126.5 136.5 L 136.0 132.5 L 150.0 126.5 L 161.5 121.0 L 168.5 118.5 L 170.5 117.5 " stroke="black" fill="none" stroke-width="7.0" stroke-linecap="round" stroke-linejoin="round" />
<path d="M 152.5 123.5 L 152.0 124.0 L 151.0 125.0 L 149.5 127.0 L 146.5 132.5 L 140.0 141.0 L 130.5 151.5 L 122.5 162.5 L 115.0 168.5 L 110.5 170.5 L 110.0 170.5 " stroke="black" fill="none" stroke-width="7.0" stroke-linecap="round" stroke-linejoin="round" />
<path d="M 147.0 137.0 L 149.0 137.0 L 154.0 138.0 L 161.5 141.5 L 169.5 145.5 L 175.5 149.0 L 179.5 151.5 L 180.5 152.0 " stroke="black" fill="none" stroke-width="7.0" stroke-linecap="round" stroke-linejoin="round" />
<path d="M 144.5 151.5 L 144.0 150.0 L 143.5 149.0 L 143.5 148.5 L 143.5 150.0 L 143.5 155.0 L 144.5 164.0 L 146.5 176.0 L 148.0 189.5 L 148.5 199.5 L 148.5 205.0 L 148.0 206.5 L 146.5 206.5 L 143.5 204.0 L 138.5 199.0 L 134.0 191.5 L 132.5 188.0 " stroke="black" fill="none" stroke-width="7.0" stroke-linecap="round" stroke-linejoin="round" />
<path d="M 127.5 168.5 L 127.0 168.5 L 126.5 168.5 L 126.0 171.0 L 126.0 178.5 L 125.0 188.0 L 124.5 194.0 L 124.0 195.5 " stroke="black" fill="none" stroke-width="7.0" stroke-linecap="round" stroke-linejoin="round" />
<path d="M 157.0 167.0 L 157.0 167.5 L 157.0 169.0 L 158.5 172.0 L 161.0 178.5 L 163.0 184.5 L 165.0 188.0 " stroke="black" fill="none" stroke-width="7.0" stroke-linecap="round" stroke-linejoin="round" />
<path d="M 170.0 162.5 L 170.0 162.5 L 170.0 163.0 L 173.0 168.0 L 177.0 177.0 L 180.5 185.5 L 181.5 186.5 " stroke="black" fill="none" stroke-width="7.0" stroke-linecap="round" stroke-linejoin="round" />
</svg>