<svg xmlns="http://www.w3.org/2000/svg" width="300" height="300" viewBox="0 0 300 300">
<path d="M 110.5 135.0 L 110.5 134.5 L 110.5 134.0 L 110.0 133.5 L 111.0 137.0 L 112.0 143.5 L 112.5 152.5 L 112.0 160.5 L 111.5 164.0 " stroke="black" fill="none" stroke-width="7.0" stroke-linecap="round" stroke-linejoin="round" />
<path d="M 124.5 93.0 L 124.5 93.0 L 124.5 92.0 L 125.0 93.5 L 125.5 101.0 L 126.5 116.5 L 127.5 139.0 L 127.5 162.5 L 127.5 182.5 L 127.5 194.5 L 127.5 203.0 L 127.0 205.5 L 127.0 205.5 " stroke="black" fill="none" stroke-width="7.0" stroke-linecap="round" stroke-linejoin="round" />
<path d="M 134.5 146.0 L 134.5 147.0 L 136.0 150.0 L 139.0 156.5 L 142.5 163.0 L 143.5 164.0 " stroke="black" fill="none" stroke-width="7.0" stroke-linecap="round" stroke-linejoin="round" />
<path d="M 157.5 111.0 L 155.5 111.5 L 154.5 112.0 L 155.0 112.0 L 158.5 110.0 L 164.5 107.5 L 170.5 104.0 L 175.0 101.5 L 176.5 101.5 " stroke="black" fill="none" stroke-width="7.0" stroke-linecap="round" stroke-linejoin="round" />
<path d="M 157.0 121.5 L 156.0 122.0 L 154.5 123.0 L 154.5 123.5 L 158.0 123.0 L 164.0 120.5 L 169.5 117.0 L 173.5 114.5 " stroke="black" fill="none" stroke-width="7.0" stroke-linecap="round" stroke-linejoin="round" />
<path d="M 169.5 89.5 L 169.5 90.0 L 169.0 92.0 L 168.5 96.0 L 168.5 107.5 L 168.5 120.0 L 168.5 130.0 " stroke="black" fill="none" stroke-width="7.0" stroke-linecap="round" stroke-linejoin="round" />
<path d="M 145.5 143.0 L 144.5 143.0 L 143.5 143.0 L 142.5 143.0 L 145.0 143.0 L 150.5 141.5 L 159.5 139.0 L 171.5 135.0 L 181.5 131.5 L 187.0 130.5 L 188.0 130.5 " stroke="black" fill="none" stroke-width="7.0" stroke-linecap="round" stroke-linejoin="round" />
<path d="M 154.5 156.0 L 154.5 155.5 L 154.5 154.5 L 154.5 154.0 L 155.0 159.0 L 155.0 168.5 L 154.5 182.0 L 153.0 194.0 L 151.5 199.5 L 151.5 200.0 L 151.5 199.5 " stroke="black" fill="none" stroke-width="7.0" stroke-linecap="round" stroke-linejoin="round" />
<path d="M 160.0 156.5 L 160.0 156.5 L 162.0 155.0 L 165.0 153.0 L 169.5 151.0 L 174.0 148.5 L 176.0 147.0 L 178.5 146.5 L 179.0 148.0 L 179.5 150.5 L 180.0 154.0 L 180.5 159.5 L 181.5 167.0 L 182.0 176.0 L 182.5 186.0 L 183.0 193.5 L 183.0 197.5 L 183.0 199.5 L 180.5 199.5 L 177.5 199.0 L 174.0 195.5 L 173.0 193.5 " stroke="black" fill="none" stroke-width="7.0" stroke-linecap="round" stroke-linejoin="round" />
<path d="M 164.5 169.0 L 163.0 169.0 L 162.5 169.0 L 162.5 169.5 L 165.5 169.5 L 169.5 168.0 L 173.5 166.0 L 175.0 165.5 " stroke="black" fill="none" stroke-width="7.0" stroke-linecap="round" stroke-linejoin="round" />
<path d="M 165.5 180.0 L 164.5 180.5 L 162.0 181.5 L 162.0 181.5 L 165.0 181.5 L 169.5 179.5 L 174.5 178.0 " stroke="black" fill="none" stroke-width="7.0" stroke-linecap="round" stroke-linejoin="round" />
</svg>