<svg xmlns="http://www.w3.org/2000/svg" width="300" height="300" viewBox="0 0 300 300">
<path d="M 123.5 109.5 L 123.0 109.5 L 123.0 109.5 L 124.5 112.5 L 127.0 119.5 L 129.5 128.5 L 131.5 134.0 L 132.5 135.5 L 132.5 135.5 " stroke="black" fill="none" stroke-width="7.0" stroke-linecap="round" stroke-linejoin="round" />
<path d="M 128.5 107.0 L 129.0 105.5 L 130.5 103.5 L 134.5 102.0 L 143.0 100.5 L 152.0 97.0 L 160.5 93.5 L 167.0 92.0 L 170.5 92.0 L 171.5 94.5 L 171.5 100.0 L 170.5 109.0 L 168.5 120.0 L 166.0 128.0 L 164.0 133.0 L 162.5 134.0 L 162.0 134.0 " stroke="black" fill="none" stroke-width="7.0" stroke-linecap="round" stroke-linejoin="round" />
<path d="M 139.0 121.5 L 138.5 121.5 L 137.0 121.0 L 136.0 120.5 L 137.5 120.0 L 142.5 118.5 L 149.0 116.5 L 155.5 113.0 L 159.5 111.0 " stroke="black" fill="none" stroke-width="7.0" stroke-linecap="round" stroke-linejoin="round" />
<path d="M 146.5 103.5 L 146.5 105.0 L 146.0 108.0 L 146.5 114.5 L 147.5 122.5 L 147.5 129.5 L 147.0 134.0 " stroke="black" fill="none" stroke-width="7.0" stroke-linecap="round" stroke-linejoin="round" />
<path d="M 140.0 138.5 L 138.0 139.0 L 137.5 139.0 L 138.5 139.0 L 142.5 138.0 L 148.0 136.5 L 154.0 134.0 L 160.5 132.5 " stroke="black" fill="none" stroke-width="7.0" stroke-linecap="round" stroke-linejoin="round" />
<path d="M 117.5 154.0 L 117.5 153.5 L 117.5 152.0 L 117.5 152.0 L 117.5 156.5 L 117.0 165.5 L 114.5 178.0 L 111.5 188.0 L 109.5 192.0 L 109.0 192.0 " stroke="black" fill="none" stroke-width="7.0" stroke-linecap="round" stroke-linejoin="round" />
<path d="M 129.5 166.5 L 129.5 166.5 L 129.0 166.5 L 129.0 166.5 L 130.0 168.5 L 134.5 173.0 L 142.5 179.5 L 150.5 184.0 L 156.5 186.5 L 162.5 187.5 L 167.0 187.5 L 169.5 187.0 L 170.5 186.0 L 171.5 184.0 L 172.0 180.5 L 172.5 175.5 L 172.5 169.0 L 172.5 167.5 " stroke="black" fill="none" stroke-width="7.0" stroke-linecap="round" stroke-linejoin="round" />
<path d="M 146.5 153.5 L 146.5 153.5 L 146.5 154.0 L 149.0 155.5 L 154.5 159.0 L 159.0 160.0 " stroke="black" fill="none" stroke-width="7.0" stroke-linecap="round" stroke-linejoin="round" />
<path d="M 183.5 152.5 L 185.5 154.5 L 190.5 158.5 L 193.5 165.0 L 195.5 171.5 L 196.0 179.0 L 196.5 181.5 " stroke="black" fill="none" stroke-width="7.0" stroke-linecap="round" stroke-linejoin="round" />
</svg>