<svg xmlns="http://www.w3.org/2000/svg" width="300" height="300" viewBox="0 0 300 300">
<path d="M 119.5 130.5 L 119.5 130.0 L 119.5 128.5 L 120.0 128.5 L 120.0 133.5 L 120.0 142.0 L 119.5 150.5 L 118.5 156.0 L 118.5 157.0 " stroke="black" fill="none" stroke-width="7.0" stroke-linecap="round" stroke-linejoin="round" />
<path d="M 129.0 84.5 L 129.0 85.5 L 129.5 88.5 L 129.5 99.5 L 130.5 117.5 L 130.5 137.0 L 130.0 158.5 L 129.0 176.0 L 128.5 186.0 L 128.5 190.0 " stroke="black" fill="none" stroke-width="7.0" stroke-linecap="round" stroke-linejoin="round" />
<path d="M 142.0 129.0 L 142.0 129.5 L 142.0 131.0 L 143.0 136.0 L 145.0 144.5 L 147.0 149.5 " stroke="black" fill="none" stroke-width="7.0" stroke-linecap="round" stroke-linejoin="round" />
<path d="M 161.5 107.5 L 159.0 108.5 L 158.0 109.0 L 158.5 109.0 L 162.5 108.0 L 168.5 105.0 L 174.5 101.5 L 180.0 98.5 L 182.5 97.0 " stroke="black" fill="none" stroke-width="7.0" stroke-linecap="round" stroke-linejoin="round" />
<path d="M 172.5 87.0 L 172.0 88.5 L 171.5 91.0 L 171.5 96.5 L 172.5 103.5 L 173.0 110.0 L 173.0 116.5 " stroke="black" fill="none" stroke-width="7.0" stroke-linecap="round" stroke-linejoin="round" />
<path d="M 165.0 124.5 L 163.0 124.5 L 161.0 125.0 L 161.0 125.0 L 163.0 125.0 L 167.0 123.5 L 172.5 120.5 L 178.5 117.5 L 184.0 114.5 L 185.5 114.0 " stroke="black" fill="none" stroke-width="7.0" stroke-linecap="round" stroke-linejoin="round" />
<path d="M 157.5 150.5 L 156.5 151.0 L 154.5 152.5 L 153.5 153.0 L 153.0 153.5 L 154.0 153.5 L 157.5 152.0 L 163.0 149.5 L 170.0 145.5 L 177.5 141.0 L 185.0 136.0 L 190.0 133.0 L 191.0 132.5 " stroke="black" fill="none" stroke-width="7.0" stroke-linecap="round" stroke-linejoin="round" />
<path d="M 178.5 125.0 L 178.5 125.0 L 178.0 125.0 L 178.0 126.5 L 178.0 132.5 L 179.0 143.5 L 179.5 158.0 L 179.5 172.0 L 179.0 182.0 L 178.5 189.0 L 177.5 192.0 L 176.0 192.5 L 173.5 191.5 L 170.5 187.5 L 167.0 182.0 " stroke="black" fill="none" stroke-width="7.0" stroke-linecap="round" stroke-linejoin="round" />
<path d="M 157.5 167.5 L 157.5 167.5 L 157.0 167.0 L 158.5 166.5 L 163.0 166.0 L 169.0 165.0 L 172.0 164.5 " stroke="black" fill="none" stroke-width="7.0" stroke-linecap="round" stroke-linejoin="round" />
</svg>