<svg xmlns="http://www.w3.org/2000/svg" width="300" height="300" viewBox="0 0 300 300">
<path d="M 134.5 90.0 L 134.5 89.5 L 134.5 89.0 L 135.0 89.5 L 137.5 95.5 L 139.5 106.5 L 140.0 123.0 L 137.0 139.0 L 134.0 149.0 L 131.5 153.5 L 130.5 154.0 " stroke="black" fill="none" stroke-width="7.0" stroke-linecap="round" stroke-linejoin="round" />
<path d="M 127.0 108.5 L 126.5 108.5 L 125.0 109.5 L 124.5 109.5 L 125.0 109.5 L 127.0 108.5 L 130.5 106.5 L 134.0 104.0 L 134.5 104.0 " stroke="black" fill="none" stroke-width="7.0" stroke-linecap="round" stroke-linejoin="round" />
<path d="M 125.0 122.5 L 124.0 124.0 L 124.0 124.5 L 125.5 123.5 L 129.0 120.5 L 132.5 117.5 " stroke="black" fill="none" stroke-width="7.0" stroke-linecap="round" stroke-linejoin="round" />
<path d="M 125.5 136.0 L 123.5 138.5 L 123.0 139.0 L 124.0 139.0 L 127.5 136.0 L 133.0 130.5 L 134.5 129.0 " stroke="black" fill="none" stroke-width="7.0" stroke-linecap="round" stroke-linejoin="round" />
<path d="M 157.0 92.5 L 157.0 92.0 L 157.0 90.5 L 157.0 91.0 L 158.0 96.0 L 159.0 106.0 L 159.5 120.5 L 159.5 135.0 L 159.5 144.0 L 160.0 146.0 L 160.5 146.0 " stroke="black" fill="none" stroke-width="7.0" stroke-linecap="round" stroke-linejoin="round" />
<path d="M 164.0 105.0 L 164.0 105.0 L 163.5 105.0 L 163.5 105.0 L 166.0 104.5 L 169.5 103.0 L 172.5 102.0 L 174.5 101.5 " stroke="black" fill="none" stroke-width="7.0" stroke-linecap="round" stroke-linejoin="round" />
<path d="M 164.5 117.0 L 163.0 118.5 L 163.0 119.0 L 165.5 119.0 L 169.0 117.0 L 172.5 114.5 L 174.5 113.5 " stroke="black" fill="none" stroke-width="7.0" stroke-linecap="round" stroke-linejoin="round" />
<path d="M 166.5 127.5 L 164.5 129.5 L 164.5 130.0 L 166.5 130.0 L 170.0 128.0 L 174.5 125.5 L 176.5 124.5 " stroke="black" fill="none" stroke-width="7.0" stroke-linecap="round" stroke-linejoin="round" />
<path d="M 124.0 165.0 L 124.0 164.0 L 124.0 163.5 L 124.0 165.0 L 123.0 171.5 L 120.0 182.0 L 115.0 193.0 L 111.0 199.0 L 110.5 199.5 " stroke="black" fill="none" stroke-width="7.0" stroke-linecap="round" stroke-linejoin="round" />
<path d="M 131.0 173.5 L 130.5 173.5 L 130.0 173.5 L 129.5 174.0 L 130.5 176.0 L 135.0 180.0 L 142.5 185.0 L 150.0 189.0 L 155.5 190.5 L 161.0 191.5 L 165.0 191.5 L 168.0 191.5 L 169.0 190.5 L 169.0 187.5 L 169.0 183.0 L 168.5 179.0 " stroke="black" fill="none" stroke-width="7.0" stroke-linecap="round" stroke-linejoin="round" />
<path d="M 145.0 162.0 L 145.0 162.0 L 145.0 162.5 L 146.0 163.5 L 149.5 165.5 L 155.0 167.0 L 158.5 167.5 " stroke="black" fill="none" stroke-width="7.0" stroke-linecap="round" stroke-linejoin="round" />
<path d="M 174.5 161.0 L 175.0 161.5 L 177.0 162.5 L 179.5 165.5 L 182.0 170.5 L 184.0 177.0 L 184.5 178.5 " stroke="black" fill="none" stroke-width="7.0" stroke-linecap="round" stroke-linejoin="round" />
</svg>