<svg xmlns="http://www.w3.org/2000/svg" width="300" height="300" viewBox="0 0 300 300">
<path d="M 133.0 95.5 L 132.0 95.5 L 130.5 96.0 L 129.5 96.0 L 129.5 96.0 L 131.5 96.0 L 137.0 95.0 L 145.5 92.0 L 155.5 87.5 L 164.0 84.0 L 167.5 83.0 L 168.0 83.0 " stroke="black" fill="none" stroke-width="7.0" stroke-linecap="round" stroke-linejoin="round" />
<path d="M 142.5 97.0 L 142.5 98.0 L 142.0 99.0 L 142.0 102.5 L 142.5 108.0 L 142.5 114.5 L 142.5 116.5 " stroke="black" fill="none" stroke-width="7.0" stroke-linecap="round" stroke-linejoin="round" />
<path d="M 125.5 122.5 L 125.5 122.5 L 124.5 123.0 L 124.5 123.5 L 126.0 123.0 L 129.5 121.0 L 135.0 118.5 L 140.5 117.0 L 143.5 117.0 " stroke="black" fill="none" stroke-width="7.0" stroke-linecap="round" stroke-linejoin="round" />
<path d="M 124.5 125.0 L 124.0 125.0 L 124.0 125.5 L 123.5 126.5 L 123.5 129.0 L 124.0 133.0 L 124.0 137.5 L 123.5 140.5 L 123.0 141.5 L 123.0 141.5 L 124.0 140.5 L 125.0 139.5 L 126.5 138.5 L 128.0 137.5 L 130.5 136.5 L 133.0 135.0 L 136.0 134.0 L 138.5 134.0 L 140.0 135.0 L 140.5 138.0 L 141.0 141.5 L 141.0 146.0 L 141.0 149.5 L 141.5 152.5 " stroke="black" fill="none" stroke-width="7.0" stroke-linecap="round" stroke-linejoin="round" />
<path d="M 158.0 96.5 L 158.0 96.0 L 158.0 95.0 L 158.0 94.5 L 158.0 94.5 L 158.0 97.5 L 158.0 101.5 L 158.5 105.5 L 159.0 109.5 L 159.0 112.0 L 159.0 113.5 L 159.0 113.5 L 159.0 113.5 " stroke="black" fill="none" stroke-width="7.0" stroke-linecap="round" stroke-linejoin="round" />
<path d="M 157.5 115.5 L 157.5 115.5 L 157.0 116.0 L 157.0 116.0 L 156.5 116.0 L 157.5 115.5 L 160.5 114.5 L 164.5 113.0 L 169.0 111.5 L 171.5 110.5 L 173.0 110.0 L 173.0 111.0 L 172.5 113.0 L 172.0 115.0 L 171.5 117.0 L 171.5 119.5 L 171.0 122.5 L 171.0 126.5 L 171.0 127.5 " stroke="black" fill="none" stroke-width="7.0" stroke-linecap="round" stroke-linejoin="round" />
<path d="M 156.0 133.5 L 155.5 133.5 L 154.0 134.0 L 153.5 134.0 L 154.5 134.5 L 157.5 133.0 L 162.0 131.0 L 166.5 129.0 L 167.5 129.0 " stroke="black" fill="none" stroke-width="7.0" stroke-linecap="round" stroke-linejoin="round" />
<path d="M 158.0 133.5 L 157.5 134.0 L 157.0 136.0 L 157.0 139.0 L 157.0 143.5 L 157.0 148.0 " stroke="black" fill="none" stroke-width="7.0" stroke-linecap="round" stroke-linejoin="round" />
<path d="M 110.0 164.5 L 109.5 164.5 L 109.0 164.5 L 109.0 164.5 L 110.0 164.0 L 113.5 163.5 L 121.0 161.5 L 132.0 158.0 L 146.5 153.0 L 158.0 149.0 L 169.5 147.5 L 176.5 147.5 L 181.0 147.0 L 183.5 147.0 " stroke="black" fill="none" stroke-width="7.0" stroke-linecap="round" stroke-linejoin="round" />
<path d="M 123.5 171.0 L 123.5 171.0 L 123.0 169.5 L 122.5 169.0 L 122.0 170.0 L 121.0 175.5 L 118.5 183.5 L 115.0 192.5 L 113.5 196.0 " stroke="black" fill="none" stroke-width="7.0" stroke-linecap="round" stroke-linejoin="round" />
<path d="M 130.5 181.5 L 130.5 181.5 L 130.5 181.0 L 130.0 180.5 L 130.0 180.0 L 130.5 181.0 L 132.5 183.5 L 138.0 187.5 L 145.0 192.0 L 152.0 195.0 L 157.5 196.5 L 163.5 196.5 L 168.5 196.0 L 171.0 193.5 L 171.5 190.0 L 172.0 185.5 L 171.0 180.0 L 170.5 179.0 " stroke="black" fill="none" stroke-width="7.0" stroke-linecap="round" stroke-linejoin="round" />
<path d="M 147.0 163.5 L 147.0 163.5 L 146.5 164.0 L 147.0 166.0 L 150.5 170.5 L 155.0 174.5 L 158.0 175.5 " stroke="black" fill="none" stroke-width="7.0" stroke-linecap="round" stroke-linejoin="round" />
<path d="M 177.0 162.5 L 177.5 163.0 L 179.5 164.5 L 183.0 167.5 L 186.5 173.5 L 189.0 180.5 L 190.5 185.5 " stroke="black" fill="none" stroke-width="7.0" stroke-linecap="round" stroke-linejoin="round" />
</svg>