<svg xmlns="http://www.w3.org/2000/svg" width="300" height="300" viewBox="0 0 300 300">
<path d="M 149.5 83.0 L 149.5 82.5 L 149.5 82.0 L 149.5 81.5 L 148.5 85.5 L 144.0 93.5 L 137.5 102.5 L 132.5 108.0 " stroke="black" fill="none" stroke-width="7.0" stroke-linecap="round" stroke-linejoin="round" />
<path d="M 128.5 113.0 L 128.5 113.0 L 128.5 113.0 L 128.5 113.0 L 129.0 113.5 L 130.0 117.5 L 131.0 127.0 L 132.0 139.0 L 132.5 146.5 L 133.0 149.5 L 133.5 149.0 L 134.0 148.0 " stroke="black" fill="none" stroke-width="7.0" stroke-linecap="round" stroke-linejoin="round" />
<path d="M 137.5 110.0 L 137.5 109.0 L 138.5 107.0 L 141.0 105.5 L 145.5 104.5 L 151.0 102.5 L 157.0 100.0 L 162.0 98.5 L 165.5 99.0 L 166.5 102.5 L 166.5 109.0 L 166.5 119.0 L 166.0 130.0 L 165.5 141.0 L 165.5 148.0 L 166.0 150.0 L 165.5 150.5 L 163.0 149.0 L 162.5 148.0 " stroke="black" fill="none" stroke-width="7.0" stroke-linecap="round" stroke-linejoin="round" />
<path d="M 145.0 124.5 L 144.5 125.0 L 143.5 125.5 L 143.5 125.5 L 146.0 126.0 L 150.0 125.0 L 154.0 123.5 L 157.0 122.5 " stroke="black" fill="none" stroke-width="7.0" stroke-linecap="round" stroke-linejoin="round" />
<path d="M 143.5 136.5 L 143.0 137.0 L 142.5 137.5 L 143.5 137.5 L 147.0 136.5 L 150.5 135.5 L 152.5 135.0 " stroke="black" fill="none" stroke-width="7.0" stroke-linecap="round" stroke-linejoin="round" />
<path d="M 141.0 150.0 L 140.5 150.5 L 138.5 151.5 L 139.0 152.0 L 143.0 152.0 L 148.0 151.0 L 154.0 149.5 L 157.0 149.0 " stroke="black" fill="none" stroke-width="7.0" stroke-linecap="round" stroke-linejoin="round" />
<path d="M 122.5 163.0 L 122.5 163.0 L 122.0 162.5 L 122.0 165.0 L 120.5 172.0 L 116.5 183.5 L 112.0 193.0 L 108.0 199.0 " stroke="black" fill="none" stroke-width="7.0" stroke-linecap="round" stroke-linejoin="round" />
<path d="M 131.5 173.0 L 131.5 173.0 L 131.5 172.5 L 131.5 172.5 L 132.5 174.0 L 136.0 178.5 L 141.5 185.0 L 148.5 191.5 L 153.5 194.5 L 158.5 196.0 L 163.5 196.5 L 167.5 196.0 L 169.5 194.5 L 170.0 192.5 L 170.0 189.0 L 170.0 184.0 L 169.5 179.5 " stroke="black" fill="none" stroke-width="7.0" stroke-linecap="round" stroke-linejoin="round" />
<path d="M 150.0 166.0 L 149.5 166.0 L 149.0 166.0 L 150.0 166.5 L 153.5 169.0 L 157.0 170.5 " stroke="black" fill="none" stroke-width="7.0" stroke-linecap="round" stroke-linejoin="round" />
<path d="M 179.0 162.0 L 180.0 162.0 L 182.5 163.5 L 186.5 167.0 L 190.0 172.5 L 192.5 179.0 L 193.5 186.0 " stroke="black" fill="none" stroke-width="7.0" stroke-linecap="round" stroke-linejoin="round" />
</svg>