<svg xmlns="http://www.w3.org/2000/svg" width="300" height="300" viewBox="0 0 300 300">
<path d="M 112.0 138.0 L 112.0 137.0 L 112.0 137.0 L 112.0 141.5 L 112.0 152.5 L 111.5 165.5 L 111.0 172.5 L 111.0 174.5 L 111.5 174.5 " stroke="black" fill="none" stroke-width="7.0" stroke-linecap="round" stroke-linejoin="round" />
<path d="M 127.5 92.0 L 127.5 92.0 L 127.5 92.5 L 127.5 99.0 L 128.0 119.0 L 128.5 145.5 L 128.0 171.5 L 127.5 191.5 L 127.5 203.0 L 127.5 206.5 L 128.5 206.5 L 128.5 206.5 " stroke="black" fill="none" stroke-width="7.0" stroke-linecap="round" stroke-linejoin="round" />
<path d="M 135.0 155.5 L 136.0 156.5 L 138.0 159.5 L 141.0 165.0 L 144.0 170.0 " stroke="black" fill="none" stroke-width="7.0" stroke-linecap="round" stroke-linejoin="round" />
<path d="M 158.0 120.5 L 158.0 120.0 L 158.0 119.0 L 159.0 120.0 L 160.0 124.0 L 160.0 129.5 L 160.0 135.0 L 158.5 139.5 L 157.0 141.5 L 156.0 142.0 L 156.0 142.0 L 158.0 141.0 L 161.0 139.5 L 167.5 136.0 L 172.5 132.0 L 177.0 128.5 L 180.0 127.5 " stroke="black" fill="none" stroke-width="7.0" stroke-linecap="round" stroke-linejoin="round" />
<path d="M 155.5 163.5 L 153.5 165.0 L 152.5 166.0 L 152.5 166.5 L 154.0 166.0 L 161.0 162.0 L 168.5 158.0 L 176.5 153.5 L 184.0 150.5 L 187.0 149.5 " stroke="black" fill="none" stroke-width="7.0" stroke-linecap="round" stroke-linejoin="round" />
<path d="M 173.5 104.0 L 173.5 104.0 L 173.0 105.0 L 173.0 113.0 L 172.5 130.5 L 172.0 150.0 L 170.5 169.0 L 170.0 184.0 L 169.5 192.0 " stroke="black" fill="none" stroke-width="7.0" stroke-linecap="round" stroke-linejoin="round" />
<path d="M 137.5 200.5 L 137.0 201.0 L 136.5 201.0 L 138.0 201.5 L 144.5 201.5 L 153.5 199.5 L 168.0 195.5 L 181.5 192.0 L 193.5 191.0 L 201.0 191.0 L 205.5 192.5 " stroke="black" fill="none" stroke-width="7.0" stroke-linecap="round" stroke-linejoin="round" />
</svg>