<svg xmlns="http://www.w3.org/2000/svg" width="300" height="300" viewBox="0 0 300 300">
<path d="M 117.5 136.5 L 116.5 135.5 L 116.0 136.0 L 116.0 141.5 L 116.5 152.0 L 115.5 162.5 L 115.0 167.0 L 115.0 165.5 L 115.0 164.5 " stroke="black" fill="none" stroke-width="7.0" stroke-linecap="round" stroke-linejoin="round" />
<path d="M 131.0 87.0 L 131.5 87.0 L 131.5 88.5 L 131.5 98.0 L 131.5 120.5 L 131.5 145.5 L 130.5 171.0 L 129.5 191.0 L 129.0 202.0 L 129.0 208.5 L 129.0 210.5 L 129.5 210.5 " stroke="black" fill="none" stroke-width="7.0" stroke-linecap="round" stroke-linejoin="round" />
<path d="M 138.0 149.0 L 139.0 150.5 L 140.5 156.5 L 143.0 164.5 L 145.5 171.0 " stroke="black" fill="none" stroke-width="7.0" stroke-linecap="round" stroke-linejoin="round" />
<path d="M 154.0 117.0 L 154.0 117.0 L 153.5 117.5 L 153.5 121.0 L 154.5 134.5 L 155.5 151.0 L 155.5 163.5 L 155.5 168.0 L 155.5 168.5 L 155.5 167.0 " stroke="black" fill="none" stroke-width="7.0" stroke-linecap="round" stroke-linejoin="round" />
<path d="M 155.0 120.0 L 155.0 118.5 L 156.5 116.5 L 158.0 114.5 L 161.5 112.5 L 165.5 110.0 L 169.5 108.0 L 172.0 107.5 L 173.0 109.5 L 174.0 116.0 L 174.0 125.5 L 174.0 139.0 L 174.0 151.5 L 174.0 162.0 L 174.5 167.0 L 175.0 167.5 L 175.0 166.5 " stroke="black" fill="none" stroke-width="7.0" stroke-linecap="round" stroke-linejoin="round" />
<path d="M 160.0 142.0 L 159.5 142.0 L 157.5 142.0 L 157.5 142.0 L 159.5 142.0 L 164.0 141.0 L 168.5 140.0 L 170.5 139.0 " stroke="black" fill="none" stroke-width="7.0" stroke-linecap="round" stroke-linejoin="round" />
<path d="M 158.0 158.0 L 157.5 160.0 L 157.5 160.0 L 161.0 159.5 L 165.5 157.5 L 170.0 154.5 L 171.5 153.5 " stroke="black" fill="none" stroke-width="7.0" stroke-linecap="round" stroke-linejoin="round" />
<path d="M 157.5 170.5 L 157.0 171.0 L 156.0 173.0 L 156.0 174.0 L 158.0 174.0 L 162.0 173.0 L 166.0 171.0 L 169.0 169.0 L 170.5 168.5 L 170.0 169.5 L 167.0 174.0 L 162.5 180.5 L 157.5 187.5 L 153.5 193.0 L 151.0 197.0 L 150.5 198.5 L 150.5 198.5 " stroke="black" fill="none" stroke-width="7.0" stroke-linecap="round" stroke-linejoin="round" />
<path d="M 165.5 180.0 L 168.0 182.0 L 171.0 186.5 L 173.0 193.0 L 174.5 200.5 L 175.0 202.0 " stroke="black" fill="none" stroke-width="7.0" stroke-linecap="round" stroke-linejoin="round" />
<path d="M 192.0 140.0 L 191.5 140.0 L 191.5 141.5 L 191.5 147.5 L 192.0 157.5 L 192.0 164.0 L 192.5 165.5 L 193.5 162.0 " stroke="black" fill="none" stroke-width="7.0" stroke-linecap="round" stroke-linejoin="round" />
<path d="M 201.5 94.0 L 201.5 95.5 L 202.5 99.0 L 203.5 110.0 L 204.5 128.0 L 205.5 149.0 L 205.5 169.0 L 205.0 185.0 L 202.5 196.5 L 200.5 203.0 L 198.0 205.0 L 196.0 202.0 L 195.0 198.5 " stroke="black" fill="none" stroke-width="7.0" stroke-linecap="round" stroke-linejoin="round" />
</svg>