<svg xmlns="http://www.w3.org/2000/svg" width="300" height="300" viewBox="0 0 300 300">
<path d="M 145.5 87.0 L 144.5 87.0 L 144.0 87.0 L 144.0 86.5 L 145.5 87.5 L 148.0 88.0 L 150.0 89.0 L 151.5 90.0 " stroke="black" fill="none" stroke-width="7.0" stroke-linecap="round" stroke-linejoin="round" />
<path d="M 130.0 107.5 L 130.0 108.0 L 128.0 109.0 L 127.0 110.0 L 127.0 110.5 L 128.5 110.5 L 133.0 109.5 L 142.0 106.0 L 151.0 101.0 L 159.5 96.0 L 164.0 93.5 L 164.5 93.5 " stroke="black" fill="none" stroke-width="7.0" stroke-linecap="round" stroke-linejoin="round" />
<path d="M 137.5 112.0 L 137.5 112.5 L 137.0 115.5 L 138.0 121.0 L 139.5 126.0 L 142.0 128.5 L 143.5 129.0 " stroke="black" fill="none" stroke-width="7.0" stroke-linecap="round" stroke-linejoin="round" />
<path d="M 154.5 106.5 L 154.5 106.5 L 154.5 106.5 L 153.5 109.5 L 151.5 116.0 L 148.5 122.5 L 147.0 125.0 " stroke="black" fill="none" stroke-width="7.0" stroke-linecap="round" stroke-linejoin="round" />
<path d="M 116.0 139.5 L 114.0 140.0 L 113.0 140.0 L 114.0 140.0 L 119.0 139.0 L 126.5 136.5 L 137.0 132.5 L 151.0 127.0 L 163.0 123.0 L 171.5 121.0 L 175.0 121.0 " stroke="black" fill="none" stroke-width="7.0" stroke-linecap="round" stroke-linejoin="round" />
<path d="M 123.0 151.5 L 123.0 151.5 L 122.5 151.5 L 122.5 152.0 L 124.5 155.5 L 127.0 160.5 L 129.0 165.0 L 130.5 167.5 L 131.0 168.0 " stroke="black" fill="none" stroke-width="7.0" stroke-linecap="round" stroke-linejoin="round" />
<path d="M 128.5 151.0 L 129.0 150.5 L 129.5 149.5 L 131.5 148.5 L 136.0 146.5 L 144.5 143.5 L 152.0 140.0 L 157.0 138.0 L 161.0 137.5 L 162.5 139.0 L 162.5 142.5 L 161.5 148.0 L 159.5 154.5 L 157.5 160.5 L 155.5 165.0 L 154.0 167.0 L 153.5 167.0 " stroke="black" fill="none" stroke-width="7.0" stroke-linecap="round" stroke-linejoin="round" />
<path d="M 137.0 158.5 L 135.5 159.0 L 134.0 159.5 L 134.5 159.5 L 137.5 159.5 L 143.0 158.0 L 148.0 156.0 L 152.0 154.0 " stroke="black" fill="none" stroke-width="7.0" stroke-linecap="round" stroke-linejoin="round" />
<path d="M 134.5 171.0 L 133.0 171.5 L 132.5 172.5 L 135.0 173.0 L 140.5 172.5 L 147.5 170.0 L 151.5 169.0 " stroke="black" fill="none" stroke-width="7.0" stroke-linecap="round" stroke-linejoin="round" />
<path d="M 123.0 179.5 L 123.0 179.5 L 123.0 180.0 L 123.0 183.0 L 121.5 189.0 L 118.5 199.0 L 114.5 207.5 L 112.0 211.0 L 111.5 211.0 " stroke="black" fill="none" stroke-width="7.0" stroke-linecap="round" stroke-linejoin="round" />
<path d="M 127.5 189.5 L 128.5 190.5 L 131.0 192.0 L 135.5 195.5 L 142.5 199.0 L 149.5 200.5 L 155.5 200.0 L 162.0 199.0 L 168.0 198.5 L 171.0 198.5 L 172.5 197.5 L 172.5 195.5 L 172.0 192.0 L 171.0 190.0 " stroke="black" fill="none" stroke-width="7.0" stroke-linecap="round" stroke-linejoin="round" />
<path d="M 142.5 182.5 L 142.5 182.5 L 142.5 182.5 L 143.5 182.5 L 146.5 183.5 L 151.0 184.5 L 152.5 184.5 " stroke="black" fill="none" stroke-width="7.0" stroke-linecap="round" stroke-linejoin="round" />
<path d="M 172.0 175.5 L 173.0 176.5 L 175.5 178.0 L 179.0 180.0 L 183.0 182.5 L 186.5 185.5 L 188.0 189.0 " stroke="black" fill="none" stroke-width="7.0" stroke-linecap="round" stroke-linejoin="round" />
</svg>