<svg xmlns="http://www.w3.org/2000/svg" width="300" height="300" viewBox="0 0 300 300">
<path d="M 138.0 79.5 L 137.5 79.5 L 137.0 79.0 L 137.0 79.0 L 138.0 82.0 L 140.5 87.5 L 143.0 95.0 L 143.5 101.0 L 143.5 103.0 " stroke="black" fill="none" stroke-width="7.0" stroke-linecap="round" stroke-linejoin="round" />
<path d="M 123.5 99.0 L 121.5 99.0 L 121.0 99.0 L 120.5 99.0 L 123.0 99.0 L 127.5 97.5 L 135.0 95.0 L 147.0 90.5 L 158.5 86.0 L 168.5 83.0 L 174.0 81.5 L 176.0 81.0 L 176.5 81.0 " stroke="black" fill="none" stroke-width="7.0" stroke-linecap="round" stroke-linejoin="round" />
<path d="M 168.5 71.0 L 168.5 71.5 L 167.5 73.0 L 167.5 76.5 L 167.5 83.5 L 168.5 93.5 L 168.5 102.0 " stroke="black" fill="none" stroke-width="7.0" stroke-linecap="round" stroke-linejoin="round" />
<path d="M 129.0 120.5 L 129.0 120.5 L 128.5 120.5 L 128.5 120.5 L 128.5 121.5 L 129.5 124.5 L 131.5 130.0 L 134.0 135.0 L 136.0 138.5 L 136.0 138.5 " stroke="black" fill="none" stroke-width="7.0" stroke-linecap="round" stroke-linejoin="round" />
<path d="M 136.5 119.5 L 136.5 119.0 L 137.0 117.5 L 139.5 116.0 L 145.0 114.0 L 152.5 111.5 L 160.5 109.0 L 167.0 107.5 L 171.5 106.5 L 173.5 106.0 L 174.5 107.5 L 175.0 110.5 L 175.0 116.0 L 173.5 122.5 L 172.0 129.0 L 170.5 134.5 L 169.5 138.0 L 169.0 138.5 " stroke="black" fill="none" stroke-width="7.0" stroke-linecap="round" stroke-linejoin="round" />
<path d="M 145.5 126.5 L 144.5 126.5 L 143.0 127.5 L 142.0 128.0 L 142.5 128.5 L 144.5 128.5 L 149.0 128.0 L 153.5 126.0 L 158.5 124.0 L 162.0 123.5 L 163.0 123.5 " stroke="black" fill="none" stroke-width="7.0" stroke-linecap="round" stroke-linejoin="round" />
<path d="M 140.0 140.5 L 139.0 141.0 L 136.0 142.5 L 136.0 143.5 L 137.0 144.5 L 142.0 144.5 L 148.5 143.5 L 155.0 141.5 L 161.5 140.0 L 164.5 140.0 " stroke="black" fill="none" stroke-width="7.0" stroke-linecap="round" stroke-linejoin="round" />
<path d="M 120.0 164.5 L 119.0 165.0 L 118.0 165.0 L 117.0 165.0 L 116.5 165.0 L 116.0 165.0 L 116.5 165.0 L 117.5 164.5 L 120.5 164.0 L 124.5 163.0 L 130.5 161.5 L 142.5 159.0 L 154.5 156.5 L 167.5 154.5 L 176.5 153.0 L 181.5 152.5 L 185.5 152.0 " stroke="black" fill="none" stroke-width="7.0" stroke-linecap="round" stroke-linejoin="round" />
<path d="M 151.5 144.0 L 151.0 144.0 L 150.0 144.5 L 149.5 146.0 L 149.0 149.0 L 148.0 155.0 L 145.5 161.5 L 141.0 168.0 L 133.0 174.0 L 126.0 179.5 L 119.5 182.5 L 115.0 183.0 L 113.5 183.0 L 113.5 183.0 " stroke="black" fill="none" stroke-width="7.0" stroke-linecap="round" stroke-linejoin="round" />
<path d="M 153.5 157.5 L 154.5 158.5 L 156.0 159.0 L 160.0 161.0 L 166.0 163.0 L 173.0 166.0 L 179.5 168.5 L 185.5 170.0 L 190.0 171.5 L 191.5 172.0 L 191.5 172.5 " stroke="black" fill="none" stroke-width="7.0" stroke-linecap="round" stroke-linejoin="round" />
<path d="M 154.0 168.0 L 154.0 168.0 L 154.0 168.0 L 153.5 168.0 L 153.5 168.0 L 153.5 168.0 L 153.5 170.5 L 154.5 175.5 L 155.5 184.0 L 156.5 193.0 L 156.5 202.0 L 156.5 208.5 L 155.5 211.5 L 154.5 213.0 L 153.5 213.0 L 151.5 211.5 L 149.5 208.0 L 146.5 203.0 L 146.0 201.5 " stroke="black" fill="none" stroke-width="7.0" stroke-linecap="round" stroke-linejoin="round" />
<path d="M 136.0 183.0 L 136.0 183.0 L 136.0 183.0 L 135.5 184.5 L 135.5 188.0 L 134.5 195.0 L 133.5 201.5 " stroke="black" fill="none" stroke-width="7.0" stroke-linecap="round" stroke-linejoin="round" />
<path d="M 167.5 184.0 L 167.5 184.0 L 167.5 184.5 L 167.5 185.5 L 167.5 188.0 L 169.0 191.5 L 170.0 195.0 " stroke="black" fill="none" stroke-width="7.0" stroke-linecap="round" stroke-linejoin="round" />
<path d="M 177.0 180.0 L 177.5 180.5 L 178.0 181.5 L 179.5 184.0 L 181.5 188.5 L 183.0 194.0 " stroke="black" fill="none" stroke-width="7.0" stroke-linecap="round" stroke-linejoin="round" />
</svg>