<svg xmlns="http://www.w3.org/2000/svg" width="300" height="300" viewBox="0 0 300 300">
<path d="M 137.0 102.0 L 137.0 102.0 L 136.0 101.5 L 136.0 101.0 L 139.0 102.0 L 143.0 103.0 L 145.0 103.5 " stroke="black" fill="none" stroke-width="7.0" stroke-linecap="round" stroke-linejoin="round" />
<path d="M 156.5 89.0 L 156.5 89.0 L 156.0 88.5 L 155.5 89.0 L 154.0 93.5 L 151.0 100.5 L 148.5 107.5 " stroke="black" fill="none" stroke-width="7.0" stroke-linecap="round" stroke-linejoin="round" />
<path d="M 125.0 122.0 L 124.0 122.5 L 122.5 123.0 L 122.0 123.5 L 123.0 123.5 L 127.0 123.0 L 134.0 121.0 L 145.0 116.5 L 156.5 112.0 L 166.0 109.5 L 170.0 108.5 " stroke="black" fill="none" stroke-width="7.0" stroke-linecap="round" stroke-linejoin="round" />
<path d="M 133.0 132.0 L 133.0 131.5 L 133.0 130.0 L 133.0 129.0 L 133.0 130.0 L 132.5 134.5 L 131.5 140.0 L 129.5 146.0 L 127.5 151.5 L 125.5 155.0 L 125.0 155.5 L 125.5 155.5 L 127.5 153.5 L 129.5 151.5 L 132.5 149.5 L 135.0 148.0 L 136.0 147.5 " stroke="black" fill="none" stroke-width="7.0" stroke-linecap="round" stroke-linejoin="round" />
<path d="M 145.0 136.5 L 144.5 136.5 L 144.0 136.0 L 143.5 137.0 L 143.0 140.0 L 141.5 145.0 L 139.0 153.0 L 135.0 161.0 L 130.5 168.0 L 128.0 172.0 L 127.5 173.5 L 127.5 173.5 L 128.0 173.0 L 130.0 172.0 L 132.0 170.0 L 135.5 167.5 L 139.0 165.0 L 143.5 162.5 L 147.5 160.5 L 148.0 160.0 " stroke="black" fill="none" stroke-width="7.0" stroke-linecap="round" stroke-linejoin="round" />
<path d="M 149.0 155.5 L 149.0 155.5 L 149.0 156.0 L 150.0 158.0 L 151.0 162.5 L 152.5 167.0 " stroke="black" fill="none" stroke-width="7.0" stroke-linecap="round" stroke-linejoin="round" />
<path d="M 169.5 124.5 L 169.5 124.5 L 169.5 124.0 L 169.5 123.5 L 169.0 123.5 L 168.5 127.0 L 167.0 133.5 L 164.5 141.0 L 162.0 146.5 L 161.0 148.0 L 161.0 148.5 L 163.5 147.0 L 166.5 145.0 L 169.0 143.0 L 171.5 141.0 L 173.0 140.0 L 173.0 139.5 L 173.0 139.5 L 172.0 141.0 L 171.0 142.5 L 170.0 145.0 L 169.0 148.0 L 167.5 152.0 L 165.0 157.0 L 162.5 161.0 L 161.5 163.0 L 161.0 163.5 L 161.5 163.0 L 163.0 161.5 L 165.0 159.5 L 167.5 158.0 L 170.0 156.0 L 172.5 154.0 L 175.0 152.0 L 175.5 151.5 " stroke="black" fill="none" stroke-width="7.0" stroke-linecap="round" stroke-linejoin="round" />
<path d="M 177.5 148.0 L 178.0 147.5 L 178.5 147.5 L 178.5 147.5 L 179.5 149.5 L 180.5 153.5 L 181.5 159.5 " stroke="black" fill="none" stroke-width="7.0" stroke-linecap="round" stroke-linejoin="round" />
<path d="M 125.0 180.5 L 125.0 180.5 L 125.0 180.5 L 124.5 181.5 L 123.5 187.0 L 121.0 196.5 L 117.0 205.0 L 114.5 209.0 L 114.5 209.5 " stroke="black" fill="none" stroke-width="7.0" stroke-linecap="round" stroke-linejoin="round" />
<path d="M 130.0 188.0 L 131.0 188.0 L 132.0 188.5 L 134.0 189.5 L 137.5 192.0 L 143.0 194.5 L 149.5 196.5 L 154.5 197.5 L 160.5 198.0 L 166.5 198.0 L 170.5 198.0 L 173.0 197.5 L 174.5 196.0 L 175.0 194.5 L 175.5 192.0 L 175.5 189.0 L 174.5 185.5 L 174.0 184.5 " stroke="black" fill="none" stroke-width="7.0" stroke-linecap="round" stroke-linejoin="round" />
<path d="M 149.5 177.0 L 149.0 177.5 L 148.5 178.0 L 150.0 179.5 L 153.5 181.5 L 158.0 182.5 " stroke="black" fill="none" stroke-width="7.0" stroke-linecap="round" stroke-linejoin="round" />
<path d="M 181.5 177.5 L 182.5 179.0 L 186.5 180.5 L 191.0 184.5 L 193.5 188.0 L 195.0 191.5 L 195.0 192.5 " stroke="black" fill="none" stroke-width="7.0" stroke-linecap="round" stroke-linejoin="round" />
</svg>