<svg xmlns="http://www.w3.org/2000/svg" width="300" height="300" viewBox="0 0 300 300">
<path d="M 142.0 87.5 L 141.5 87.5 L 140.5 88.0 L 141.5 88.5 L 146.0 89.5 L 150.5 90.5 L 154.0 91.0 L 155.0 91.5 " stroke="black" fill="none" stroke-width="7.0" stroke-linecap="round" stroke-linejoin="round" />
<path d="M 127.5 112.5 L 127.0 112.5 L 125.5 113.5 L 125.0 113.5 L 125.5 114.0 L 129.0 113.0 L 136.5 109.0 L 148.5 103.0 L 160.5 96.5 L 168.0 93.0 L 170.5 92.5 " stroke="black" fill="none" stroke-width="7.0" stroke-linecap="round" stroke-linejoin="round" />
<path d="M 120.5 119.5 L 120.5 118.5 L 120.0 118.0 L 120.0 121.0 L 120.5 130.0 L 119.5 146.0 L 115.0 165.5 L 110.0 183.5 L 105.5 195.5 L 102.0 203.5 L 101.0 206.0 " stroke="black" fill="none" stroke-width="7.0" stroke-linecap="round" stroke-linejoin="round" />
<path d="M 127.5 131.5 L 126.0 133.0 L 125.0 133.5 L 126.0 134.0 L 129.0 132.0 L 135.0 128.0 L 145.0 122.5 L 155.5 117.0 L 163.5 112.5 L 169.0 110.0 L 171.5 109.5 L 171.5 110.5 L 171.5 114.0 L 170.5 118.0 L 168.5 121.5 " stroke="black" fill="none" stroke-width="7.0" stroke-linecap="round" stroke-linejoin="round" />
<path d="M 137.5 110.5 L 137.5 110.5 L 137.5 110.0 L 137.5 113.5 L 138.0 121.0 L 138.5 129.5 L 139.5 135.0 L 140.0 136.5 " stroke="black" fill="none" stroke-width="7.0" stroke-linecap="round" stroke-linejoin="round" />
<path d="M 152.5 104.0 L 153.0 105.0 L 153.0 107.5 L 153.0 114.0 L 153.0 121.5 L 152.0 127.5 " stroke="black" fill="none" stroke-width="7.0" stroke-linecap="round" stroke-linejoin="round" />
<path d="M 128.0 143.0 L 127.0 143.5 L 125.5 143.5 L 125.0 144.0 L 125.0 144.5 L 127.5 144.0 L 133.0 142.5 L 142.0 138.0 L 152.5 131.5 L 162.0 126.5 L 166.5 126.0 " stroke="black" fill="none" stroke-width="7.0" stroke-linecap="round" stroke-linejoin="round" />
<path d="M 124.0 161.0 L 123.5 161.0 L 123.0 161.5 L 122.0 162.0 " stroke="black" fill="none" stroke-width="7.0" stroke-linecap="round" stroke-linejoin="round" />
<path d="M 122.0 161.0 L 122.0 161.0 L 121.0 160.5 L 120.0 160.5 L 119.5 160.0 L 119.5 160.0 L 119.0 160.0 L 118.5 160.0 L 118.5 160.0 L 119.5 160.0 L 123.0 159.5 L 128.0 158.0 L 138.0 153.5 L 150.0 148.0 L 160.5 143.5 L 168.5 141.0 L 173.5 140.5 L 175.5 140.0 L 176.0 140.5 L 176.0 142.0 L 174.0 145.5 L 171.0 150.0 " stroke="black" fill="none" stroke-width="7.0" stroke-linecap="round" stroke-linejoin="round" />
<path d="M 127.5 169.0 L 127.5 168.5 L 127.5 168.0 L 127.5 168.0 L 127.0 171.0 L 126.0 177.0 L 124.0 183.5 L 122.0 187.0 L 121.5 188.0 " stroke="black" fill="none" stroke-width="7.0" stroke-linecap="round" stroke-linejoin="round" />
<path d="M 130.5 174.5 L 131.0 175.5 L 132.0 177.5 L 134.5 179.0 L 139.5 180.0 L 147.0 178.5 L 152.5 176.0 L 157.0 173.5 L 159.0 172.0 L 159.5 171.5 L 159.0 171.0 " stroke="black" fill="none" stroke-width="7.0" stroke-linecap="round" stroke-linejoin="round" />
<path d="M 146.5 163.5 L 146.0 163.5 L 146.0 163.5 L 146.0 164.0 L 148.0 164.0 " stroke="black" fill="none" stroke-width="7.0" stroke-linecap="round" stroke-linejoin="round" />
<path d="M 161.0 159.5 L 161.5 160.0 L 163.0 160.5 L 165.5 161.5 L 167.5 163.0 L 168.5 164.0 " stroke="black" fill="none" stroke-width="7.0" stroke-linecap="round" stroke-linejoin="round" />
<path d="M 145.0 183.0 L 145.0 182.5 L 145.0 181.5 L 145.0 181.5 L 145.0 183.0 L 142.5 187.0 L 139.0 193.5 L 133.5 201.0 L 129.5 206.0 " stroke="black" fill="none" stroke-width="7.0" stroke-linecap="round" stroke-linejoin="round" />
<path d="M 144.0 192.5 L 144.5 192.0 L 148.5 190.0 L 152.5 188.5 L 155.0 187.5 L 157.5 187.0 L 160.0 187.0 L 160.5 188.0 L 159.5 191.5 L 156.5 196.0 L 152.0 201.5 L 146.5 208.0 L 138.5 214.5 L 131.0 218.5 L 128.0 220.0 " stroke="black" fill="none" stroke-width="7.0" stroke-linecap="round" stroke-linejoin="round" />
<path d="M 127.5 198.5 L 128.0 198.5 L 129.0 199.0 L 132.5 201.0 L 141.0 203.5 L 151.5 206.5 L 161.0 209.5 L 170.0 213.0 L 175.5 216.0 L 179.0 219.0 " stroke="black" fill="none" stroke-width="7.0" stroke-linecap="round" stroke-linejoin="round" />
</svg>