<svg xmlns="http://www.w3.org/2000/svg" width="300" height="300" viewBox="0 0 300 300">
<path d="M 157.0 82.5 L 158.0 82.5 L 158.5 82.5 L 159.0 82.5 L 159.0 82.5 L 156.5 84.0 L 152.0 87.5 L 143.5 93.5 L 134.5 98.5 " stroke="black" fill="none" stroke-width="7.0" stroke-linecap="round" stroke-linejoin="round" />
<path d="M 127.0 113.5 L 127.0 113.5 L 127.0 113.5 L 127.0 113.5 L 128.0 113.5 L 130.5 114.5 L 133.5 115.0 " stroke="black" fill="none" stroke-width="7.0" stroke-linecap="round" stroke-linejoin="round" />
<path d="M 147.5 108.0 L 147.5 108.0 L 147.5 108.0 L 148.5 108.5 L 149.0 109.0 " stroke="black" fill="none" stroke-width="7.0" stroke-linecap="round" stroke-linejoin="round" />
<path d="M 165.5 101.0 L 166.0 101.0 L 166.5 101.0 L 167.5 101.0 L 167.0 102.5 L 164.5 106.5 L 162.0 109.5 " stroke="black" fill="none" stroke-width="7.0" stroke-linecap="round" stroke-linejoin="round" />
<path d="M 112.0 134.5 L 112.0 134.5 L 111.5 134.5 L 111.5 135.0 L 114.0 138.0 L 117.0 140.5 L 119.5 142.5 " stroke="black" fill="none" stroke-width="7.0" stroke-linecap="round" stroke-linejoin="round" />
<path d="M 118.5 134.0 L 118.5 134.0 L 119.0 133.0 L 121.0 132.5 L 126.5 131.0 L 137.5 127.5 L 149.5 124.0 L 159.5 120.5 L 169.0 118.5 L 173.5 118.0 L 175.5 118.0 L 176.0 119.0 L 176.0 120.5 L 173.5 124.0 L 172.5 125.0 " stroke="black" fill="none" stroke-width="7.0" stroke-linecap="round" stroke-linejoin="round" />
<path d="M 129.0 139.0 L 129.0 139.0 L 129.0 139.0 L 129.0 140.5 L 129.0 144.5 L 127.5 154.0 L 125.5 160.5 L 125.0 163.0 " stroke="black" fill="none" stroke-width="7.0" stroke-linecap="round" stroke-linejoin="round" />
<path d="M 133.5 145.5 L 134.0 146.0 L 134.5 147.0 L 137.0 149.0 L 142.0 151.5 L 146.5 153.0 L 153.0 154.5 L 158.0 154.5 L 161.5 154.5 L 163.5 154.5 L 164.0 153.0 L 163.5 151.5 L 163.0 151.0 " stroke="black" fill="none" stroke-width="7.0" stroke-linecap="round" stroke-linejoin="round" />
<path d="M 146.0 140.5 L 145.5 140.5 L 144.5 140.5 L 144.5 140.5 L 146.0 141.5 L 149.0 142.5 L 150.0 142.5 " stroke="black" fill="none" stroke-width="7.0" stroke-linecap="round" stroke-linejoin="round" />
<path d="M 157.5 138.5 L 157.5 138.5 L 159.0 138.5 L 161.5 139.5 L 165.0 141.0 L 166.5 142.0 " stroke="black" fill="none" stroke-width="7.0" stroke-linecap="round" stroke-linejoin="round" />
<path d="M 149.5 159.0 L 149.5 159.0 L 149.5 159.0 L 149.5 159.5 L 149.0 160.5 L 145.5 165.5 L 141.5 170.5 L 133.0 179.5 L 129.5 183.0 L 129.5 183.0 " stroke="black" fill="none" stroke-width="7.0" stroke-linecap="round" stroke-linejoin="round" />
<path d="M 147.0 169.0 L 148.0 168.5 L 152.0 166.0 L 155.5 164.5 L 159.0 164.0 L 162.0 163.5 L 164.0 164.0 L 164.5 165.5 L 164.0 168.0 L 162.0 171.0 L 158.0 175.5 L 153.0 181.0 L 147.0 187.0 L 139.0 192.5 L 131.0 196.5 L 126.5 197.5 L 124.5 197.5 " stroke="black" fill="none" stroke-width="7.0" stroke-linecap="round" stroke-linejoin="round" />
<path d="M 129.0 168.0 L 129.5 168.0 L 130.0 168.0 L 136.0 172.0 L 147.0 179.0 L 157.0 185.0 L 165.0 190.0 L 171.5 194.5 L 175.0 198.5 L 177.0 200.5 L 177.5 200.5 " stroke="black" fill="none" stroke-width="7.0" stroke-linecap="round" stroke-linejoin="round" />
</svg>