<svg xmlns="http://www.w3.org/2000/svg" width="300" height="300" viewBox="0 0 300 300">
<path d="M 120.5 133.0 L 120.0 133.5 L 117.0 135.0 L 115.0 135.5 L 114.5 136.0 L 115.0 136.0 L 119.5 135.5 L 125.5 132.5 L 131.5 128.5 L 136.0 124.5 L 142.5 118.5 L 143.0 117.5 " stroke="black" fill="none" stroke-width="7.0" stroke-linecap="round" stroke-linejoin="round" />
<path d="M 128.5 97.5 L 128.5 97.5 L 128.0 97.5 L 127.5 97.5 L 127.5 100.0 L 128.0 109.5 L 129.0 127.0 L 129.5 143.0 L 129.5 166.5 L 129.5 179.0 L 129.5 187.5 L 129.5 192.5 L 128.5 194.0 L 127.5 194.0 L 125.5 192.5 L 121.0 188.5 L 116.5 185.5 L 113.0 184.0 L 111.0 183.0 L 110.5 181.5 L 111.5 179.5 L 116.0 175.0 L 124.5 166.5 L 134.0 154.5 L 139.0 148.0 " stroke="black" fill="none" stroke-width="7.0" stroke-linecap="round" stroke-linejoin="round" />
<path d="M 159.0 106.5 L 159.0 107.0 L 159.0 108.5 L 158.5 115.0 L 157.0 125.5 L 155.0 134.5 L 153.5 139.0 L 153.5 139.5 L 153.5 139.5 " stroke="black" fill="none" stroke-width="7.0" stroke-linecap="round" stroke-linejoin="round" />
<path d="M 160.5 110.0 L 160.5 110.0 L 162.5 108.0 L 165.0 107.0 L 168.0 107.0 L 170.5 107.5 L 172.0 109.0 L 173.0 112.5 L 173.0 115.0 L 173.0 120.5 L 173.0 124.0 L 174.0 126.5 L 175.5 127.5 L 178.0 127.5 L 181.5 126.0 L 185.0 124.0 L 186.5 123.5 " stroke="black" fill="none" stroke-width="7.0" stroke-linecap="round" stroke-linejoin="round" />
<path d="M 151.0 158.5 L 151.0 158.5 L 151.0 158.5 L 152.0 158.5 L 156.5 156.5 L 164.5 152.0 L 172.0 148.0 L 176.0 146.0 L 177.0 145.5 L 176.0 148.0 L 174.0 152.0 L 172.0 156.5 L 168.0 165.0 L 163.5 172.5 L 157.5 181.5 L 151.5 190.0 L 146.5 195.5 L 142.5 198.5 L 140.0 199.0 " stroke="black" fill="none" stroke-width="7.0" stroke-linecap="round" stroke-linejoin="round" />
<path d="M 143.5 160.5 L 144.0 161.0 L 145.5 162.0 L 150.0 165.5 L 158.0 171.0 L 168.5 178.0 L 175.5 183.0 L 187.0 190.5 L 194.0 194.5 L 198.5 197.0 L 204.5 197.5 " stroke="black" fill="none" stroke-width="7.0" stroke-linecap="round" stroke-linejoin="round" />
</svg>