<svg xmlns="http://www.w3.org/2000/svg" width="300" height="300" viewBox="0 0 300 300">
<path d="M 133.0 119.5 L 132.0 120.0 L 130.5 120.0 L 130.5 120.0 L 132.0 119.5 L 138.5 117.0 L 147.5 113.0 L 154.5 108.5 L 163.5 103.0 L 165.0 102.5 " stroke="black" fill="none" stroke-width="7.0" stroke-linecap="round" stroke-linejoin="round" />
<path d="M 126.5 121.0 L 125.0 121.0 L 124.0 121.0 L 123.5 121.5 L 124.0 126.5 L 125.5 138.0 L 125.0 153.5 L 122.0 165.5 L 116.5 177.0 L 112.5 185.0 L 111.5 185.5 " stroke="black" fill="none" stroke-width="7.0" stroke-linecap="round" stroke-linejoin="round" />
<path d="M 127.5 150.5 L 127.5 150.5 L 127.5 151.0 L 128.0 151.0 L 129.5 149.0 L 133.5 145.5 L 137.0 143.5 L 142.0 141.5 L 143.0 142.0 L 143.0 147.0 L 142.0 154.0 L 140.5 162.5 L 138.0 170.5 L 134.0 175.5 L 132.0 177.0 L 129.5 174.5 L 129.0 171.5 " stroke="black" fill="none" stroke-width="7.0" stroke-linecap="round" stroke-linejoin="round" />
<path d="M 145.0 81.5 L 145.0 82.0 L 145.0 83.0 L 145.0 84.0 L 146.0 87.5 L 149.0 95.5 L 153.5 109.5 L 159.5 128.0 L 166.5 147.5 L 172.0 164.0 L 176.0 176.0 L 180.5 187.0 L 181.5 189.0 L 185.0 193.5 L 188.0 196.5 L 189.5 197.0 L 189.5 192.5 L 189.5 183.0 L 188.0 168.0 L 188.0 164.5 " stroke="black" fill="none" stroke-width="7.0" stroke-linecap="round" stroke-linejoin="round" />
<path d="M 176.5 129.5 L 175.5 129.5 L 173.5 130.5 L 172.0 134.0 L 168.0 144.0 L 159.5 161.0 L 150.0 177.5 L 143.0 187.5 " stroke="black" fill="none" stroke-width="7.0" stroke-linecap="round" stroke-linejoin="round" />
<path d="M 170.5 85.5 L 170.5 84.5 L 170.0 83.5 L 170.5 84.0 L 173.0 89.0 L 177.0 96.5 L 178.5 98.0 " stroke="black" fill="none" stroke-width="7.0" stroke-linecap="round" stroke-linejoin="round" />
</svg>