<svg xmlns="http://www.w3.org/2000/svg" width="300" height="300" viewBox="0 0 300 300">
<path d="M 131.0 100.5 L 132.0 100.5 L 132.5 100.0 L 133.0 99.5 L 133.0 100.0 L 132.0 102.0 L 130.5 104.5 L 128.0 109.0 L 124.5 114.0 L 120.5 119.0 L 117.0 122.0 L 115.5 122.5 L 115.0 122.5 L 115.0 122.5 L 115.5 122.5 L 116.0 123.0 L 116.5 125.0 L 117.0 128.0 L 117.5 134.0 L 118.0 142.5 L 118.0 152.0 L 117.5 163.0 L 115.5 172.5 L 113.5 179.5 L 110.5 185.5 L 108.5 188.0 L 107.5 188.5 " stroke="black" fill="none" stroke-width="7.0" stroke-linecap="round" stroke-linejoin="round" />
<path d="M 120.0 130.0 L 119.0 130.0 L 118.5 130.0 L 118.0 130.0 L 119.5 129.0 L 123.5 127.5 L 129.0 125.0 L 135.0 122.0 L 140.5 120.0 L 144.0 119.5 L 144.5 120.0 L 144.0 123.0 L 142.0 127.0 L 139.5 131.5 L 137.0 136.0 L 135.5 138.0 " stroke="black" fill="none" stroke-width="7.0" stroke-linecap="round" stroke-linejoin="round" />
<path d="M 127.0 145.0 L 125.0 146.0 L 124.0 146.5 L 123.5 146.5 L 124.5 146.5 L 128.0 144.5 L 133.5 141.5 L 139.5 138.5 " stroke="black" fill="none" stroke-width="7.0" stroke-linecap="round" stroke-linejoin="round" />
<path d="M 167.0 105.5 L 167.5 104.5 L 168.5 103.5 L 169.0 102.5 L 169.5 102.5 L 169.5 103.0 L 168.5 105.5 L 166.5 109.5 L 164.0 114.0 L 160.5 118.0 L 157.5 121.0 L 156.0 122.0 L 155.5 122.0 L 155.5 122.0 L 156.0 122.0 L 156.5 122.0 L 157.0 124.0 L 157.5 127.0 L 158.0 132.0 L 158.0 140.0 L 156.5 151.0 L 154.0 163.0 L 152.0 172.5 L 150.5 180.0 L 149.5 183.5 L 149.5 184.0 L 150.0 182.0 " stroke="black" fill="none" stroke-width="7.0" stroke-linecap="round" stroke-linejoin="round" />
<path d="M 161.0 137.5 L 159.5 137.5 L 158.5 138.0 L 158.5 138.0 L 160.5 138.5 L 165.5 136.5 L 171.5 133.0 L 178.0 128.0 L 183.5 124.5 L 185.5 123.5 " stroke="black" fill="none" stroke-width="7.0" stroke-linecap="round" stroke-linejoin="round" />
<path d="M 178.0 132.0 L 178.0 132.5 L 177.5 133.5 L 177.5 135.5 L 177.5 140.0 L 178.0 149.0 L 178.0 165.0 L 177.0 180.5 L 176.5 192.0 L 176.5 199.0 L 176.0 201.0 " stroke="black" fill="none" stroke-width="7.0" stroke-linecap="round" stroke-linejoin="round" />
</svg>