<svg xmlns="http://www.w3.org/2000/svg" width="300" height="300" viewBox="0 0 300 300">
<path d="M 123.0 117.5 L 122.0 117.5 L 120.5 117.5 L 119.5 118.0 L 119.5 118.0 L 121.5 118.5 L 125.5 118.5 L 131.0 118.0 L 140.5 115.5 L 152.0 112.5 L 163.0 110.0 L 171.0 108.0 L 174.5 106.5 L 175.5 106.0 L 175.5 106.0 " stroke="black" fill="none" stroke-width="7.0" stroke-linecap="round" stroke-linejoin="round" />
<path d="M 118.0 152.5 L 116.0 153.0 L 116.0 153.0 L 118.0 153.0 L 124.0 151.0 L 130.5 148.0 L 139.5 143.5 L 147.5 140.0 L 150.5 138.5 " stroke="black" fill="none" stroke-width="7.0" stroke-linecap="round" stroke-linejoin="round" />
<path d="M 134.5 130.5 L 134.5 131.5 L 134.0 134.5 L 134.0 140.5 L 133.0 150.5 L 129.0 163.5 L 124.5 172.5 L 120.5 177.0 " stroke="black" fill="none" stroke-width="7.0" stroke-linecap="round" stroke-linejoin="round" />
<path d="M 151.0 75.5 L 150.5 75.5 L 150.0 76.0 L 150.0 78.5 L 151.5 87.5 L 156.0 104.5 L 162.5 126.5 L 168.5 146.5 L 172.5 162.0 L 176.0 172.0 L 180.0 179.0 L 183.5 183.0 L 185.5 183.5 L 187.0 181.0 L 187.0 175.0 L 186.5 167.0 L 186.0 162.5 " stroke="black" fill="none" stroke-width="7.0" stroke-linecap="round" stroke-linejoin="round" />
<path d="M 181.5 125.0 L 181.0 125.0 L 180.0 125.0 L 177.5 127.5 L 173.5 135.5 L 166.5 149.0 L 155.0 165.0 L 146.0 177.0 L 143.0 181.0 " stroke="black" fill="none" stroke-width="7.0" stroke-linecap="round" stroke-linejoin="round" />
<path d="M 175.5 80.0 L 175.5 80.5 L 176.0 81.5 L 178.5 86.5 L 183.5 96.5 L 187.0 103.0 " stroke="black" fill="none" stroke-width="7.0" stroke-linecap="round" stroke-linejoin="round" />
</svg>