<svg xmlns="http://www.w3.org/2000/svg" width="300" height="300" viewBox="0 0 300 300">
<path d="M 117.5 134.5 L 117.0 135.0 L 115.0 136.0 L 114.5 136.5 L 116.0 136.0 L 121.5 133.5 L 127.5 130.0 L 134.0 126.5 L 138.5 123.5 L 139.5 122.5 " stroke="black" fill="none" stroke-width="7.0" stroke-linecap="round" stroke-linejoin="round" />
<path d="M 126.5 96.5 L 126.0 96.5 L 125.5 96.5 L 125.5 96.5 L 125.0 98.0 L 125.0 104.0 L 126.0 117.0 L 127.0 136.0 L 127.5 154.0 L 128.0 169.5 L 128.5 181.5 L 129.0 189.0 L 129.0 194.0 L 128.5 196.5 L 127.0 196.5 L 125.0 196.0 L 122.0 192.5 L 118.5 188.5 L 115.0 185.0 L 112.0 182.5 L 109.5 181.5 L 108.5 181.0 L 109.0 180.0 L 113.5 176.0 L 121.5 168.5 L 130.5 158.5 L 138.0 149.5 " stroke="black" fill="none" stroke-width="7.0" stroke-linecap="round" stroke-linejoin="round" />
<path d="M 149.0 136.0 L 148.5 136.0 L 148.0 136.0 L 147.0 136.0 L 146.5 136.0 L 146.0 136.0 L 146.0 136.0 L 147.5 136.0 L 152.5 135.5 L 162.0 132.5 L 173.5 128.5 L 181.5 125.5 L 186.0 124.0 L 187.5 123.5 " stroke="black" fill="none" stroke-width="7.0" stroke-linecap="round" stroke-linejoin="round" />
<path d="M 157.0 111.5 L 157.0 112.5 L 156.5 115.5 L 157.0 124.0 L 157.5 137.0 L 157.5 148.5 L 157.5 155.5 L 159.0 158.5 " stroke="black" fill="none" stroke-width="7.0" stroke-linecap="round" stroke-linejoin="round" />
<path d="M 173.0 105.5 L 173.0 105.0 L 173.0 105.0 L 173.5 107.0 L 173.5 116.0 L 174.0 130.5 L 174.0 144.5 L 173.5 154.0 L 173.0 160.0 " stroke="black" fill="none" stroke-width="7.0" stroke-linecap="round" stroke-linejoin="round" />
<path d="M 141.0 165.5 L 140.0 166.0 L 138.0 166.0 L 137.0 166.0 L 137.5 166.0 L 141.0 166.0 L 146.5 165.0 L 153.5 164.5 L 165.5 162.5 L 178.0 159.5 L 187.5 157.5 L 192.5 156.0 L 193.5 155.5 L 193.0 155.5 " stroke="black" fill="none" stroke-width="7.0" stroke-linecap="round" stroke-linejoin="round" />
<path d="M 166.0 164.5 L 166.0 164.5 L 166.0 163.5 L 166.0 163.0 L 165.0 163.5 L 162.5 166.5 L 157.5 172.5 L 151.0 181.5 L 145.0 189.0 L 143.0 191.0 " stroke="black" fill="none" stroke-width="7.0" stroke-linecap="round" stroke-linejoin="round" />
<path d="M 165.5 165.0 L 165.5 165.0 L 165.5 165.0 L 166.0 166.0 L 169.5 169.5 L 176.0 176.0 L 184.0 183.5 L 190.5 189.0 L 193.5 192.0 L 194.0 193.5 " stroke="black" fill="none" stroke-width="7.0" stroke-linecap="round" stroke-linejoin="round" />
</svg>