<svg xmlns="http://www.w3.org/2000/svg" width="300" height="300" viewBox="0 0 300 300">
<path d="M 128.0 138.0 L 128.0 138.0 L 128.0 138.0 L 128.0 138.0 L 128.0 138.0 L 128.0 138.0 L 128.0 138.0 L 128.0 138.0 L 129.5 138.0 L 134.5 138.0 L 145.5 134.5 L 159.0 129.0 L 171.5 124.0 L 179.0 120.5 L 185.0 118.0 L 188.0 115.0 L 188.5 114.5 " stroke="black" fill="none" stroke-width="7.0" stroke-linecap="round" stroke-linejoin="round" />
<path d="M 168.5 94.5 L 168.0 94.5 L 167.5 95.5 L 167.5 99.0 L 168.0 108.0 L 169.0 124.5 L 169.5 146.5 L 169.0 164.5 L 167.5 178.5 L 166.5 188.0 L 165.5 192.0 L 164.0 193.0 L 161.0 191.5 L 157.0 186.0 L 153.0 177.5 L 151.0 170.0 " stroke="black" fill="none" stroke-width="7.0" stroke-linecap="round" stroke-linejoin="round" />
<path d="M 168.0 126.5 L 167.5 126.5 L 167.0 126.5 L 166.0 127.5 L 164.5 132.0 L 160.0 141.0 L 152.0 154.0 L 143.0 168.0 L 132.5 178.0 L 128.5 182.0 " stroke="black" fill="none" stroke-width="7.0" stroke-linecap="round" stroke-linejoin="round" />
</svg>