<svg xmlns="http://www.w3.org/2000/svg" width="300" height="300" viewBox="0 0 300 300">
<path d="M 118.5 125.0 L 117.0 125.5 L 115.0 126.5 L 114.0 126.5 L 115.0 126.5 L 120.5 124.5 L 127.0 120.5 L 134.5 115.5 L 142.0 110.5 " stroke="black" fill="none" stroke-width="7.0" stroke-linecap="round" stroke-linejoin="round" />
<path d="M 129.5 79.0 L 129.0 79.0 L 128.0 78.5 L 128.0 79.0 L 128.0 82.5 L 128.5 92.5 L 130.0 109.5 L 130.0 130.5 L 130.0 151.5 L 129.0 169.0 L 128.5 179.0 L 128.5 185.5 L 128.5 187.5 L 128.0 187.0 L 126.5 184.0 L 124.0 180.0 L 120.5 176.0 L 116.0 173.0 L 111.5 171.0 L 108.5 170.5 L 107.5 170.0 L 107.5 170.0 L 111.5 168.0 L 120.0 162.0 L 130.0 151.5 L 141.0 139.0 " stroke="black" fill="none" stroke-width="7.0" stroke-linecap="round" stroke-linejoin="round" />
<path d="M 159.0 107.0 L 157.0 108.0 L 155.0 108.5 L 154.5 109.0 L 157.5 108.0 L 164.5 105.0 L 171.5 101.5 L 177.5 98.0 L 181.0 96.0 " stroke="black" fill="none" stroke-width="7.0" stroke-linecap="round" stroke-linejoin="round" />
<path d="M 171.5 81.5 L 171.5 83.5 L 171.0 89.5 L 171.0 99.0 L 171.0 108.0 L 170.5 115.5 L 170.5 116.5 " stroke="black" fill="none" stroke-width="7.0" stroke-linecap="round" stroke-linejoin="round" />
<path d="M 157.5 127.0 L 155.5 127.0 L 154.5 127.5 L 155.0 127.5 L 157.5 127.0 L 163.0 125.5 L 170.0 122.5 L 176.5 118.5 L 182.5 115.0 L 185.0 114.5 " stroke="black" fill="none" stroke-width="7.0" stroke-linecap="round" stroke-linejoin="round" />
<path d="M 148.5 148.0 L 147.5 149.0 L 147.0 149.0 L 147.0 149.5 L 149.0 149.5 L 153.5 148.0 L 161.5 145.0 L 171.5 140.0 L 180.0 134.0 L 184.5 131.5 " stroke="black" fill="none" stroke-width="7.0" stroke-linecap="round" stroke-linejoin="round" />
<path d="M 176.5 119.0 L 175.0 120.5 L 174.5 123.5 L 174.0 129.0 L 174.5 138.5 L 175.5 150.5 L 175.5 162.5 L 175.5 173.0 L 175.0 181.5 L 173.5 186.0 L 172.0 187.5 L 170.0 186.5 L 167.0 183.0 L 163.5 177.0 L 162.0 174.0 " stroke="black" fill="none" stroke-width="7.0" stroke-linecap="round" stroke-linejoin="round" />
<path d="M 154.5 160.0 L 153.5 160.0 L 153.5 160.0 L 156.5 161.5 L 162.0 163.5 L 167.0 163.5 " stroke="black" fill="none" stroke-width="7.0" stroke-linecap="round" stroke-linejoin="round" />
</svg>