<svg xmlns="http://www.w3.org/2000/svg" width="300" height="300" viewBox="0 0 300 300">
<path d="M 117.0 135.0 L 114.0 137.0 L 113.0 137.5 L 113.5 137.5 L 116.0 137.0 L 124.0 132.5 L 128.5 129.0 L 136.5 124.0 L 140.5 121.5 " stroke="black" fill="none" stroke-width="7.0" stroke-linecap="round" stroke-linejoin="round" />
<path d="M 127.0 93.0 L 127.0 93.0 L 127.0 93.0 L 126.5 94.5 L 126.5 101.5 L 127.0 118.5 L 128.0 140.5 L 128.0 162.0 L 128.5 178.0 L 129.0 189.0 L 129.0 195.5 L 129.0 200.0 L 128.5 201.5 L 125.5 200.5 L 120.5 197.0 L 115.0 193.5 L 111.0 191.5 L 109.0 191.0 L 108.5 191.0 L 108.5 190.0 L 111.0 188.0 L 117.0 182.5 L 126.0 172.5 L 136.0 160.5 L 143.5 152.0 " stroke="black" fill="none" stroke-width="7.0" stroke-linecap="round" stroke-linejoin="round" />
<path d="M 165.5 101.0 L 165.5 99.0 L 165.5 98.0 L 165.5 98.0 L 164.0 102.0 L 161.5 108.0 L 155.5 120.0 L 148.0 135.0 L 145.0 140.0 " stroke="black" fill="none" stroke-width="7.0" stroke-linecap="round" stroke-linejoin="round" />
<path d="M 152.5 129.5 L 152.5 129.5 L 153.0 129.5 L 153.0 129.5 L 153.5 130.0 L 154.5 134.0 L 154.5 146.0 L 154.5 164.0 L 153.5 181.0 L 153.5 194.0 L 153.5 202.0 L 153.5 206.0 L 153.5 206.0 " stroke="black" fill="none" stroke-width="7.0" stroke-linecap="round" stroke-linejoin="round" />
<path d="M 172.5 114.0 L 172.0 114.5 L 171.5 114.5 L 172.0 116.0 L 173.5 116.5 L 176.0 117.5 L 177.5 118.0 " stroke="black" fill="none" stroke-width="7.0" stroke-linecap="round" stroke-linejoin="round" />
<path d="M 168.0 131.0 L 167.0 132.5 L 166.5 133.0 L 168.0 133.0 L 171.0 131.5 L 175.0 129.0 L 179.0 126.5 L 182.5 124.5 L 184.5 124.0 " stroke="black" fill="none" stroke-width="7.0" stroke-linecap="round" stroke-linejoin="round" />
<path d="M 167.5 147.5 L 166.5 148.5 L 166.5 149.0 L 167.5 149.0 L 172.0 146.5 L 176.0 143.5 L 179.5 141.5 L 180.5 141.0 " stroke="black" fill="none" stroke-width="7.0" stroke-linecap="round" stroke-linejoin="round" />
<path d="M 165.0 164.0 L 164.0 165.0 L 163.5 165.5 L 167.0 165.0 L 171.5 162.5 L 175.0 160.0 L 180.5 156.5 L 185.5 153.5 " stroke="black" fill="none" stroke-width="7.0" stroke-linecap="round" stroke-linejoin="round" />
<path d="M 176.5 134.0 L 175.5 137.0 L 175.5 143.0 L 175.5 152.5 L 175.5 164.0 L 175.5 172.5 L 175.0 179.0 L 174.5 180.5 " stroke="black" fill="none" stroke-width="7.0" stroke-linecap="round" stroke-linejoin="round" />
<path d="M 159.5 184.5 L 158.0 185.0 L 156.5 185.5 L 156.5 185.5 L 159.0 185.5 L 165.5 184.5 L 174.0 182.0 L 186.0 179.0 L 189.0 178.0 L 196.5 176.5 L 202.0 177.0 L 204.0 179.0 " stroke="black" fill="none" stroke-width="7.0" stroke-linecap="round" stroke-linejoin="round" />
</svg>