<svg xmlns="http://www.w3.org/2000/svg" width="300" height="300" viewBox="0 0 300 300">
<path d="M 117.5 128.0 L 116.5 128.5 L 114.0 129.0 L 114.0 129.0 L 116.0 129.0 L 122.0 127.0 L 129.0 122.5 L 136.0 117.5 L 143.0 113.0 L 144.5 112.0 " stroke="black" fill="none" stroke-width="7.0" stroke-linecap="round" stroke-linejoin="round" />
<path d="M 127.5 86.5 L 127.5 86.5 L 127.5 86.5 L 127.5 86.5 L 127.5 90.0 L 128.0 100.0 L 129.0 118.0 L 129.0 138.5 L 129.0 157.5 L 128.5 174.0 L 128.0 185.0 L 127.5 190.5 L 126.5 192.5 L 125.5 193.0 L 123.0 190.5 L 119.5 186.5 L 115.5 183.5 L 112.0 181.5 L 110.0 181.0 L 108.5 180.5 L 108.5 180.5 L 118.0 171.5 L 128.0 160.5 L 140.5 143.5 " stroke="black" fill="none" stroke-width="7.0" stroke-linecap="round" stroke-linejoin="round" />
<path d="M 159.5 99.5 L 159.5 99.0 L 159.0 98.5 L 159.0 98.5 L 160.5 100.0 L 163.0 104.0 L 165.5 108.0 L 167.5 110.5 L 168.0 111.0 " stroke="black" fill="none" stroke-width="7.0" stroke-linecap="round" stroke-linejoin="round" />
<path d="M 163.0 99.5 L 162.5 99.0 L 162.5 98.5 L 163.5 97.0 L 167.0 95.5 L 171.0 94.0 L 175.5 93.5 L 178.0 93.5 L 178.0 97.0 L 176.0 101.5 L 173.0 106.5 L 170.0 110.5 L 168.0 112.5 L 168.0 113.0 L 170.0 111.0 L 173.0 108.5 L 175.5 107.0 " stroke="black" fill="none" stroke-width="7.0" stroke-linecap="round" stroke-linejoin="round" />
<path d="M 150.0 133.5 L 150.0 134.0 L 150.5 135.0 L 152.0 137.0 L 154.5 139.5 L 156.5 141.5 L 157.0 142.5 " stroke="black" fill="none" stroke-width="7.0" stroke-linecap="round" stroke-linejoin="round" />
<path d="M 154.0 131.5 L 154.0 130.5 L 155.0 129.0 L 157.0 128.0 L 160.5 127.0 L 164.5 126.5 L 166.5 128.0 L 166.5 132.5 L 164.0 137.5 L 160.5 141.5 L 158.0 143.5 L 158.0 144.0 L 159.5 142.0 L 164.0 139.0 L 168.0 136.0 L 169.0 135.0 " stroke="black" fill="none" stroke-width="7.0" stroke-linecap="round" stroke-linejoin="round" />
<path d="M 176.5 121.5 L 176.5 123.0 L 177.0 124.5 L 178.5 128.0 L 180.0 132.0 L 181.0 135.0 L 181.5 136.0 L 181.5 136.0 " stroke="black" fill="none" stroke-width="7.0" stroke-linecap="round" stroke-linejoin="round" />
<path d="M 179.0 124.5 L 179.0 124.0 L 179.0 123.0 L 179.5 122.0 L 182.0 121.0 L 185.0 120.0 L 189.0 120.0 L 191.0 120.5 L 191.0 123.5 L 188.5 128.0 L 185.0 133.0 L 182.5 136.5 L 181.5 138.0 L 183.0 138.0 L 187.0 136.0 L 190.5 134.0 L 192.0 133.5 " stroke="black" fill="none" stroke-width="7.0" stroke-linecap="round" stroke-linejoin="round" />
<path d="M 149.5 165.0 L 148.5 166.0 L 147.0 167.0 L 146.5 167.5 L 146.5 167.5 L 149.5 167.5 L 155.0 165.0 L 163.0 160.5 L 173.0 154.5 L 180.5 149.5 L 183.5 148.0 " stroke="black" fill="none" stroke-width="7.0" stroke-linecap="round" stroke-linejoin="round" />
<path d="M 170.0 141.5 L 170.0 141.5 L 170.0 143.0 L 170.0 147.0 L 170.0 159.5 L 170.5 175.5 L 170.0 189.5 L 168.5 198.5 L 167.5 203.5 L 167.0 204.5 L 167.0 201.5 L 167.0 197.0 " stroke="black" fill="none" stroke-width="7.0" stroke-linecap="round" stroke-linejoin="round" />
<path d="M 168.5 160.0 L 168.5 159.5 L 168.5 157.5 L 168.0 156.5 L 168.0 157.0 L 167.0 161.0 L 164.0 167.0 L 159.5 176.0 L 153.5 185.0 L 148.5 191.0 L 146.0 192.5 L 145.5 192.5 " stroke="black" fill="none" stroke-width="7.0" stroke-linecap="round" stroke-linejoin="round" />
<path d="M 168.5 161.5 L 169.0 161.5 L 171.0 162.5 L 174.0 166.5 L 179.5 173.0 L 186.5 179.0 L 192.5 183.0 L 195.5 185.0 " stroke="black" fill="none" stroke-width="7.0" stroke-linecap="round" stroke-linejoin="round" />
</svg>