<svg xmlns="http://www.w3.org/2000/svg" width="300" height="300" viewBox="0 0 300 300">
<path d="M 128.0 106.0 L 127.5 106.0 L 127.0 105.5 L 127.0 105.5 L 127.5 106.0 L 129.5 106.5 L 131.5 107.5 L 132.5 108.5 " stroke="black" fill="none" stroke-width="7.0" stroke-linecap="round" stroke-linejoin="round" />
<path d="M 112.0 133.5 L 109.5 135.5 L 108.5 137.0 L 108.5 137.0 L 111.5 136.5 L 118.0 133.0 L 126.0 127.0 L 134.5 120.0 L 142.5 113.5 L 145.5 111.0 L 145.5 111.0 " stroke="black" fill="none" stroke-width="7.0" stroke-linecap="round" stroke-linejoin="round" />
<path d="M 127.5 125.0 L 127.5 126.0 L 126.5 128.5 L 126.0 134.0 L 124.0 143.0 L 120.5 153.0 L 116.0 162.0 L 111.5 167.5 L 109.5 169.0 " stroke="black" fill="none" stroke-width="7.0" stroke-linecap="round" stroke-linejoin="round" />
<path d="M 133.5 137.5 L 134.5 137.0 L 137.5 135.0 L 142.0 133.5 L 146.5 131.0 L 149.5 129.5 " stroke="black" fill="none" stroke-width="7.0" stroke-linecap="round" stroke-linejoin="round" />
<path d="M 140.5 141.5 L 140.0 142.5 L 139.5 145.5 L 138.5 151.0 L 135.5 161.0 L 131.0 172.5 L 126.5 183.5 L 122.0 190.5 L 118.5 194.5 " stroke="black" fill="none" stroke-width="7.0" stroke-linecap="round" stroke-linejoin="round" />
<path d="M 124.5 159.5 L 125.5 159.5 L 127.0 161.0 L 130.5 165.0 L 136.0 171.5 L 143.0 179.0 L 148.5 184.5 L 152.5 187.0 L 153.0 187.0 " stroke="black" fill="none" stroke-width="7.0" stroke-linecap="round" stroke-linejoin="round" />
<path d="M 166.5 112.0 L 166.5 110.5 L 167.0 110.0 L 167.5 111.0 L 168.0 115.5 L 167.5 121.0 L 165.5 127.0 L 163.5 131.5 L 162.5 133.0 L 163.0 132.5 L 166.5 129.5 L 170.5 126.0 L 174.5 122.0 L 178.0 118.5 L 179.5 117.5 " stroke="black" fill="none" stroke-width="7.0" stroke-linecap="round" stroke-linejoin="round" />
<path d="M 175.5 122.5 L 175.5 124.0 L 175.0 127.0 L 175.0 131.5 L 174.0 139.0 L 172.5 148.0 L 170.5 159.5 L 167.5 169.5 L 163.5 179.5 L 158.0 187.5 L 154.0 191.0 " stroke="black" fill="none" stroke-width="7.0" stroke-linecap="round" stroke-linejoin="round" />
<path d="M 157.5 143.5 L 157.5 143.5 L 158.0 144.5 L 162.0 149.5 L 168.5 161.5 L 175.0 174.5 L 182.5 186.5 L 190.5 194.5 L 195.0 200.5 L 199.5 204.0 L 201.0 205.0 " stroke="black" fill="none" stroke-width="7.0" stroke-linecap="round" stroke-linejoin="round" />
</svg>