<svg xmlns="http://www.w3.org/2000/svg" width="300" height="300" viewBox="0 0 300 300">
<path d="M 129.0 95.0 L 129.0 93.5 L 129.0 93.0 L 129.0 94.0 L 130.0 99.5 L 131.0 107.5 L 131.5 116.5 L 131.5 123.0 L 131.0 126.0 " stroke="black" fill="none" stroke-width="7.0" stroke-linecap="round" stroke-linejoin="round" />
<path d="M 120.5 117.5 L 119.5 118.0 L 116.0 118.5 L 114.5 118.5 L 114.5 118.5 L 117.0 118.5 L 121.5 117.5 L 127.0 115.0 L 131.0 112.0 " stroke="black" fill="none" stroke-width="7.0" stroke-linecap="round" stroke-linejoin="round" />
<path d="M 149.5 93.5 L 149.5 98.5 L 150.0 105.0 L 150.5 113.5 L 151.0 120.5 L 151.0 124.5 L 151.0 125.0 L 151.0 125.0 " stroke="black" fill="none" stroke-width="7.0" stroke-linecap="round" stroke-linejoin="round" />
<path d="M 152.5 107.5 L 152.5 107.5 L 154.0 106.0 L 156.5 105.0 L 160.0 104.0 L 162.5 103.5 " stroke="black" fill="none" stroke-width="7.0" stroke-linecap="round" stroke-linejoin="round" />
<path d="M 129.5 133.5 L 129.5 133.5 L 129.0 134.5 L 128.0 137.5 L 126.0 143.5 L 122.5 152.5 L 116.0 163.0 L 111.0 169.5 L 109.0 171.5 " stroke="black" fill="none" stroke-width="7.0" stroke-linecap="round" stroke-linejoin="round" />
<path d="M 125.0 150.0 L 127.0 148.0 L 130.5 145.5 L 136.0 143.0 L 144.0 139.0 L 151.0 136.0 L 154.5 134.5 L 157.0 135.0 L 158.5 138.0 L 159.0 142.0 L 159.0 148.5 L 159.0 157.5 L 159.0 168.0 L 158.0 178.0 L 156.5 186.5 L 154.5 191.0 L 152.5 194.0 L 150.0 195.0 L 147.5 193.5 L 144.5 189.5 L 143.5 188.5 " stroke="black" fill="none" stroke-width="7.0" stroke-linecap="round" stroke-linejoin="round" />
<path d="M 126.5 163.5 L 126.5 164.0 L 126.5 165.5 L 127.5 167.5 L 129.0 170.0 L 130.5 172.5 L 131.5 173.0 " stroke="black" fill="none" stroke-width="7.0" stroke-linecap="round" stroke-linejoin="round" />
<path d="M 130.5 163.0 L 130.5 163.0 L 130.5 162.5 L 131.0 162.0 L 133.5 160.5 L 138.0 159.0 L 142.5 159.0 L 144.0 161.0 L 142.5 165.5 L 138.5 171.0 L 134.5 175.0 L 133.0 176.0 L 133.5 174.5 L 137.0 171.5 L 141.0 169.0 " stroke="black" fill="none" stroke-width="7.0" stroke-linecap="round" stroke-linejoin="round" />
<path d="M 177.0 102.0 L 177.0 102.5 L 177.0 103.5 L 177.0 106.5 L 177.0 113.0 L 176.0 120.0 L 174.0 125.0 L 173.0 127.5 L 173.0 127.5 L 174.5 126.0 L 178.5 122.5 L 184.5 117.0 L 190.5 111.5 L 194.5 107.5 " stroke="black" fill="none" stroke-width="7.0" stroke-linecap="round" stroke-linejoin="round" />
<path d="M 190.5 122.0 L 190.5 122.0 L 190.5 121.5 L 190.0 121.0 L 190.0 121.0 L 190.0 124.0 L 190.0 131.0 L 188.0 144.5 L 182.5 162.5 L 175.0 178.0 L 168.5 188.5 L 162.5 194.5 L 160.0 195.5 " stroke="black" fill="none" stroke-width="7.0" stroke-linecap="round" stroke-linejoin="round" />
<path d="M 171.5 140.0 L 171.5 140.0 L 172.0 140.5 L 174.5 146.0 L 182.5 159.5 L 191.5 173.5 L 198.5 185.0 L 205.5 192.0 L 212.0 197.5 L 216.5 201.5 " stroke="black" fill="none" stroke-width="7.0" stroke-linecap="round" stroke-linejoin="round" />
</svg>