<svg xmlns="http://www.w3.org/2000/svg" width="300" height="300" viewBox="0 0 300 300">
<path d="M 143.5 93.0 L 142.5 93.0 L 141.5 93.5 L 141.0 93.5 L 142.0 93.5 L 145.0 93.5 L 148.0 94.0 L 149.0 94.5 " stroke="black" fill="none" stroke-width="7.0" stroke-linecap="round" stroke-linejoin="round" />
<path d="M 128.5 125.0 L 127.0 126.5 L 126.0 127.5 L 126.5 128.0 L 130.5 127.0 L 139.0 123.0 L 150.0 116.5 L 161.0 109.0 L 169.0 104.5 L 172.0 103.5 " stroke="black" fill="none" stroke-width="7.0" stroke-linecap="round" stroke-linejoin="round" />
<path d="M 165.5 112.0 L 164.5 114.5 L 163.5 118.0 L 162.0 123.5 L 159.5 133.0 L 157.0 142.0 L 150.0 160.0 L 143.0 174.5 L 133.0 187.5 L 126.0 195.5 L 118.5 200.5 L 113.5 201.0 " stroke="black" fill="none" stroke-width="7.0" stroke-linecap="round" stroke-linejoin="round" />
<path d="M 127.5 147.5 L 128.0 147.5 L 129.0 148.0 L 132.0 151.5 L 140.0 161.0 L 151.5 172.0 L 164.0 182.5 L 175.5 191.0 L 187.0 197.5 L 195.0 203.0 L 199.5 206.0 " stroke="black" fill="none" stroke-width="7.0" stroke-linecap="round" stroke-linejoin="round" />
</svg>