<svg xmlns="http://www.w3.org/2000/svg" width="300" height="300" viewBox="0 0 300 300">
<path d="M 115.0 123.0 L 113.5 123.5 L 111.0 123.5 L 110.5 123.5 L 112.0 123.5 L 118.0 122.0 L 126.5 118.5 L 136.0 113.5 L 145.5 108.5 L 149.0 106.5 " stroke="black" fill="none" stroke-width="7.0" stroke-linecap="round" stroke-linejoin="round" />
<path d="M 118.0 90.5 L 118.0 90.5 L 118.0 90.5 L 118.0 96.0 L 119.0 110.0 L 120.0 125.0 L 120.0 147.5 L 120.0 155.0 L 120.5 162.5 L 121.5 163.0 " stroke="black" fill="none" stroke-width="7.0" stroke-linecap="round" stroke-linejoin="round" />
<path d="M 136.5 84.0 L 136.5 82.5 L 137.0 82.5 L 138.0 89.0 L 139.0 103.5 L 140.0 123.5 L 139.5 143.0 L 138.5 157.5 L 138.5 164.0 L 139.0 166.0 " stroke="black" fill="none" stroke-width="7.0" stroke-linecap="round" stroke-linejoin="round" />
<path d="M 127.0 138.0 L 127.0 138.0 L 126.0 138.5 L 126.0 138.5 L 127.5 138.5 L 130.5 136.5 L 132.5 135.5 " stroke="black" fill="none" stroke-width="7.0" stroke-linecap="round" stroke-linejoin="round" />
<path d="M 125.0 151.0 L 125.0 151.0 L 124.5 152.0 L 124.5 152.5 L 126.5 152.0 L 130.0 150.5 L 134.0 149.5 " stroke="black" fill="none" stroke-width="7.0" stroke-linecap="round" stroke-linejoin="round" />
<path d="M 108.0 173.0 L 106.5 174.0 L 106.5 174.5 L 108.5 174.5 L 115.5 172.5 L 126.0 169.0 L 137.5 164.5 L 147.0 162.0 L 150.0 162.0 " stroke="black" fill="none" stroke-width="7.0" stroke-linecap="round" stroke-linejoin="round" />
<path d="M 131.5 168.5 L 130.0 170.5 L 127.5 174.5 L 124.5 180.5 L 118.5 187.5 L 112.0 193.0 L 108.5 195.5 L 108.5 195.5 " stroke="black" fill="none" stroke-width="7.0" stroke-linecap="round" stroke-linejoin="round" />
<path d="M 133.0 173.0 L 133.5 173.5 L 138.5 176.5 L 144.0 182.5 L 147.5 189.0 L 150.0 194.0 " stroke="black" fill="none" stroke-width="7.0" stroke-linecap="round" stroke-linejoin="round" />
<path d="M 173.5 103.5 L 173.5 103.0 L 174.0 102.0 L 174.0 101.5 L 173.5 102.0 L 171.5 106.0 L 169.0 110.5 L 162.0 118.0 L 157.0 122.0 L 155.0 123.0 L 155.0 123.5 L 155.5 123.5 L 156.5 124.0 L 156.5 126.5 L 157.0 132.5 L 157.0 141.5 L 157.0 153.0 L 156.5 165.5 L 155.0 176.5 L 154.0 184.5 L 153.5 187.5 L 153.0 187.0 L 153.0 186.5 " stroke="black" fill="none" stroke-width="7.0" stroke-linecap="round" stroke-linejoin="round" />
<path d="M 165.0 147.0 L 163.5 147.5 L 163.5 148.0 L 166.0 147.0 L 170.0 144.0 L 176.0 139.5 L 180.5 135.5 L 185.0 131.0 L 185.5 130.5 " stroke="black" fill="none" stroke-width="7.0" stroke-linecap="round" stroke-linejoin="round" />
<path d="M 176.0 142.5 L 175.5 143.5 L 175.5 147.0 L 175.5 154.5 L 176.0 167.0 L 175.5 181.0 L 174.5 194.0 L 174.0 204.5 L 174.0 206.0 " stroke="black" fill="none" stroke-width="7.0" stroke-linecap="round" stroke-linejoin="round" />
</svg>