<svg xmlns="http://www.w3.org/2000/svg" width="300" height="300" viewBox="0 0 300 300">
<path d="M 118.5 121.0 L 116.0 121.5 L 115.0 121.5 L 114.5 121.5 L 115.5 121.0 L 119.5 119.5 L 124.5 117.5 L 129.5 114.0 L 135.0 110.5 L 140.0 107.5 L 143.0 106.0 L 144.5 106.0 L 144.5 107.5 L 144.5 112.0 L 144.5 118.0 L 142.5 125.5 L 140.0 133.5 L 139.5 135.5 " stroke="black" fill="none" stroke-width="7.0" stroke-linecap="round" stroke-linejoin="round" />
<path d="M 117.5 148.0 L 116.0 149.0 L 114.5 149.0 L 114.5 149.5 L 116.5 149.5 L 121.5 148.0 L 127.0 145.0 L 133.0 140.5 L 137.0 137.5 " stroke="black" fill="none" stroke-width="7.0" stroke-linecap="round" stroke-linejoin="round" />
<path d="M 113.5 154.0 L 113.5 155.0 L 113.5 156.5 L 113.5 159.5 L 113.5 165.0 L 113.5 174.0 L 113.5 186.0 L 112.0 196.0 L 110.5 204.0 L 109.5 208.0 L 109.5 208.0 L 111.0 206.0 L 115.0 201.0 L 121.5 194.0 L 128.0 186.5 L 134.5 179.5 L 138.5 176.0 " stroke="black" fill="none" stroke-width="7.0" stroke-linecap="round" stroke-linejoin="round" />
<path d="M 164.5 106.0 L 164.5 106.0 L 164.5 105.5 L 165.0 105.5 L 165.5 107.0 L 166.5 111.5 L 166.5 118.0 L 165.0 124.5 L 162.0 129.0 L 159.0 131.0 L 158.0 131.0 L 158.5 130.5 L 162.5 127.5 L 168.0 123.5 L 174.0 118.5 L 180.5 113.0 L 185.0 109.0 L 187.5 108.0 " stroke="black" fill="none" stroke-width="7.0" stroke-linecap="round" stroke-linejoin="round" />
<path d="M 178.5 127.5 L 178.5 127.5 L 178.5 125.5 L 178.5 124.5 L 178.5 123.5 L 178.5 123.5 L 178.0 126.0 L 178.0 131.0 L 178.0 138.5 L 176.0 149.0 L 172.0 162.5 L 165.5 175.5 L 156.5 187.5 L 148.5 194.5 L 146.0 197.0 " stroke="black" fill="none" stroke-width="7.0" stroke-linecap="round" stroke-linejoin="round" />
<path d="M 155.5 150.0 L 155.5 150.0 L 155.0 150.0 L 155.0 150.5 L 159.0 154.5 L 166.0 162.5 L 175.0 172.0 L 185.0 182.5 L 193.5 189.5 L 199.5 194.5 L 206.5 197.5 L 208.0 198.0 " stroke="black" fill="none" stroke-width="7.0" stroke-linecap="round" stroke-linejoin="round" />
</svg>