<svg xmlns="http://www.w3.org/2000/svg" width="300" height="300" viewBox="0 0 300 300">
<path d="M 128.5 119.0 L 128.5 117.5 L 128.5 116.0 L 129.0 116.5 L 129.5 123.5 L 130.5 138.5 L 131.0 153.5 L 130.5 176.0 L 130.0 185.0 L 130.5 188.0 L 131.0 189.0 " stroke="black" fill="none" stroke-width="7.0" stroke-linecap="round" stroke-linejoin="round" />
<path d="M 135.5 122.0 L 136.5 121.0 L 137.0 120.0 L 139.5 118.5 L 143.0 117.5 L 152.0 114.5 L 160.0 112.0 L 167.5 110.0 L 172.5 110.0 L 174.5 112.5 L 176.0 127.5 L 176.5 141.5 L 176.5 159.0 L 177.0 175.0 L 177.5 186.0 L 178.0 192.0 L 177.5 194.0 L 177.0 194.0 " stroke="black" fill="none" stroke-width="7.0" stroke-linecap="round" stroke-linejoin="round" />
<path d="M 146.0 157.0 L 145.5 157.0 L 142.0 157.0 L 141.0 157.5 L 140.5 157.5 L 144.5 157.5 L 150.5 156.0 L 158.5 153.5 L 167.5 151.0 L 172.5 150.0 L 173.5 150.5 " stroke="black" fill="none" stroke-width="7.0" stroke-linecap="round" stroke-linejoin="round" />
<path d="M 138.0 193.0 L 137.0 193.5 L 135.0 195.5 L 136.0 195.5 L 141.0 195.5 L 146.5 195.0 L 158.0 191.5 L 168.5 190.0 L 175.5 189.5 L 176.5 189.5 " stroke="black" fill="none" stroke-width="7.0" stroke-linecap="round" stroke-linejoin="round" />
</svg>