<svg xmlns="http://www.w3.org/2000/svg" width="300" height="300" viewBox="0 0 300 300">
<path d="M 112.0 120.5 L 112.0 120.0 L 112.0 119.5 L 112.5 121.0 L 114.0 127.0 L 114.5 134.0 L 114.5 146.0 L 113.5 150.0 L 112.5 152.0 L 113.0 151.0 L 116.0 148.0 L 120.5 143.5 L 126.5 138.0 L 131.0 134.0 L 135.0 130.5 " stroke="black" fill="none" stroke-width="7.0" stroke-linecap="round" stroke-linejoin="round" />
<path d="M 135.5 83.5 L 135.5 83.0 L 135.0 81.5 L 135.0 82.5 L 135.5 88.0 L 136.5 107.5 L 136.5 132.0 L 135.0 158.0 L 134.0 172.5 L 134.0 187.0 L 134.0 191.0 " stroke="black" fill="none" stroke-width="7.0" stroke-linecap="round" stroke-linejoin="round" />
<path d="M 161.5 95.5 L 162.0 93.5 L 162.5 91.5 L 163.0 91.5 L 164.0 95.5 L 164.0 103.0 L 162.0 112.0 L 159.5 118.0 L 156.5 123.0 L 156.0 123.0 L 157.5 120.5 L 162.0 116.5 L 168.0 111.0 L 171.5 107.0 L 176.0 103.0 L 177.0 102.5 " stroke="black" fill="none" stroke-width="7.0" stroke-linecap="round" stroke-linejoin="round" />
<path d="M 173.0 112.0 L 173.0 111.5 L 173.0 111.0 L 172.5 110.0 L 172.5 109.5 L 172.5 111.0 L 172.0 117.5 L 171.0 126.5 L 167.0 146.0 L 158.0 167.0 L 150.0 181.5 L 143.0 190.0 L 141.5 190.5 " stroke="black" fill="none" stroke-width="7.0" stroke-linecap="round" stroke-linejoin="round" />
<path d="M 150.0 137.0 L 149.5 136.0 L 149.0 135.0 L 149.5 136.0 L 153.5 142.0 L 163.0 153.0 L 175.5 168.5 L 186.0 178.5 L 192.5 184.0 L 199.5 187.5 L 201.0 188.0 " stroke="black" fill="none" stroke-width="7.0" stroke-linecap="round" stroke-linejoin="round" />
</svg>