<svg xmlns="http://www.w3.org/2000/svg" width="300" height="300" viewBox="0 0 300 300">
<path d="M 113.5 128.0 L 112.5 128.5 L 112.0 128.5 L 112.0 129.0 L 115.5 128.0 L 122.0 125.5 L 129.0 122.0 L 136.0 117.5 L 141.0 114.0 L 141.5 114.0 " stroke="black" fill="none" stroke-width="7.0" stroke-linecap="round" stroke-linejoin="round" />
<path d="M 126.0 80.5 L 125.0 80.5 L 124.5 80.5 L 124.5 83.0 L 125.5 91.5 L 127.0 106.0 L 128.0 125.0 L 128.0 144.0 L 128.0 160.0 L 128.5 173.0 L 128.5 183.5 L 128.0 191.0 L 126.5 195.0 L 125.0 196.0 L 122.5 195.0 L 119.0 191.0 L 115.5 186.5 L 113.0 183.0 L 111.0 180.5 L 109.0 178.5 L 108.0 177.0 L 108.0 175.5 L 112.0 172.5 L 120.5 166.0 L 130.5 155.5 L 139.0 145.5 " stroke="black" fill="none" stroke-width="7.0" stroke-linecap="round" stroke-linejoin="round" />
<path d="M 154.5 91.5 L 154.0 91.5 L 152.5 91.5 L 152.0 91.5 L 152.0 91.5 L 155.5 91.5 L 162.5 89.0 L 170.0 85.5 L 175.5 82.0 L 178.0 81.0 L 178.5 81.0 " stroke="black" fill="none" stroke-width="7.0" stroke-linecap="round" stroke-linejoin="round" />
<path d="M 157.0 95.0 L 157.0 95.0 L 157.0 96.5 L 157.5 101.5 L 158.0 111.0 L 158.5 119.5 L 158.5 123.5 L 159.0 123.5 " stroke="black" fill="none" stroke-width="7.0" stroke-linecap="round" stroke-linejoin="round" />
<path d="M 171.5 90.0 L 171.5 89.5 L 172.0 89.0 L 172.5 89.5 L 173.0 94.5 L 174.0 103.5 L 174.5 116.5 L 174.5 128.5 L 174.5 136.5 L 174.5 140.0 L 174.5 141.0 " stroke="black" fill="none" stroke-width="7.0" stroke-linecap="round" stroke-linejoin="round" />
<path d="M 166.5 103.0 L 165.5 103.0 L 164.0 103.5 L 163.5 103.5 L 164.0 103.5 L 166.5 103.5 L 169.5 102.0 L 171.0 101.5 " stroke="black" fill="none" stroke-width="7.0" stroke-linecap="round" stroke-linejoin="round" />
<path d="M 163.5 112.5 L 163.5 112.5 L 163.0 113.5 L 163.0 114.0 L 166.0 114.0 L 169.5 112.5 L 172.5 111.0 " stroke="black" fill="none" stroke-width="7.0" stroke-linecap="round" stroke-linejoin="round" />
<path d="M 145.5 128.0 L 145.0 128.0 L 144.0 128.0 L 143.5 128.0 L 145.0 128.5 L 149.5 128.5 L 156.5 126.5 L 168.0 123.0 L 179.0 119.0 L 187.0 117.0 L 191.5 116.5 L 192.0 116.5 " stroke="black" fill="none" stroke-width="7.0" stroke-linecap="round" stroke-linejoin="round" />
<path d="M 148.5 149.5 L 147.0 150.5 L 145.0 151.0 L 144.5 151.5 L 144.5 151.5 L 147.5 150.5 L 152.5 148.0 L 158.5 145.0 L 165.0 141.5 L 168.5 140.0 " stroke="black" fill="none" stroke-width="7.0" stroke-linecap="round" stroke-linejoin="round" />
<path d="M 149.5 153.0 L 149.0 157.0 L 149.0 163.0 L 148.5 169.5 L 148.0 175.5 L 148.0 179.0 L 148.5 179.5 " stroke="black" fill="none" stroke-width="7.0" stroke-linecap="round" stroke-linejoin="round" />
<path d="M 163.0 148.5 L 163.0 148.0 L 163.0 148.0 L 164.0 148.5 L 164.5 154.5 L 165.0 165.0 L 165.0 178.0 L 164.0 189.5 L 163.5 196.0 L 163.5 200.5 L 164.0 202.0 " stroke="black" fill="none" stroke-width="7.0" stroke-linecap="round" stroke-linejoin="round" />
<path d="M 153.0 165.0 L 153.0 165.0 L 152.0 165.0 L 151.5 164.5 L 151.5 164.5 L 154.0 163.5 L 157.5 162.0 L 159.0 161.5 " stroke="black" fill="none" stroke-width="7.0" stroke-linecap="round" stroke-linejoin="round" />
<path d="M 152.5 171.5 L 152.5 171.5 L 152.5 172.0 L 153.5 172.0 L 155.5 172.0 L 158.5 171.5 L 159.0 171.5 " stroke="black" fill="none" stroke-width="7.0" stroke-linecap="round" stroke-linejoin="round" />
<path d="M 139.5 188.0 L 137.0 188.0 L 136.0 188.0 L 137.5 187.5 L 142.5 186.0 L 149.0 183.5 L 157.0 181.0 L 166.5 178.5 L 172.5 178.0 " stroke="black" fill="none" stroke-width="7.0" stroke-linecap="round" stroke-linejoin="round" />
<path d="M 182.5 146.5 L 181.0 147.0 L 179.5 147.5 L 179.5 147.5 L 183.0 146.5 L 189.0 144.0 L 194.5 140.5 L 198.5 138.5 " stroke="black" fill="none" stroke-width="7.0" stroke-linecap="round" stroke-linejoin="round" />
<path d="M 182.5 149.0 L 182.5 150.5 L 182.5 154.0 L 182.5 161.0 L 182.5 169.0 L 183.0 175.5 L 184.0 178.5 " stroke="black" fill="none" stroke-width="7.0" stroke-linecap="round" stroke-linejoin="round" />
<path d="M 194.0 147.5 L 194.5 146.0 L 195.5 145.0 L 196.5 147.5 L 197.0 155.5 L 197.0 167.0 L 197.0 182.0 L 196.5 193.0 L 196.5 198.5 L 196.5 201.0 L 196.5 201.0 " stroke="black" fill="none" stroke-width="7.0" stroke-linecap="round" stroke-linejoin="round" />
<path d="M 187.5 158.5 L 187.5 158.5 L 187.5 159.0 L 188.5 159.0 L 190.5 159.0 L 192.0 158.0 " stroke="black" fill="none" stroke-width="7.0" stroke-linecap="round" stroke-linejoin="round" />
<path d="M 186.5 168.0 L 186.5 168.5 L 186.5 169.0 L 188.0 169.0 L 190.5 169.0 L 194.0 168.5 L 194.5 168.5 " stroke="black" fill="none" stroke-width="7.0" stroke-linecap="round" stroke-linejoin="round" />
<path d="M 172.0 187.5 L 171.5 187.0 L 171.0 186.5 L 171.0 186.0 L 173.0 185.5 L 178.5 185.0 L 188.0 183.5 L 199.0 181.5 L 209.0 180.0 L 216.5 179.5 L 217.5 179.0 " stroke="black" fill="none" stroke-width="7.0" stroke-linecap="round" stroke-linejoin="round" />
</svg>