<svg xmlns="http://www.w3.org/2000/svg" width="300" height="300" viewBox="0 0 300 300">
<path d="M 120.5 92.5 L 120.5 92.5 L 119.0 92.5 L 117.5 93.5 L 116.5 94.0 L 117.0 94.0 L 120.5 93.5 L 126.0 90.0 L 132.0 86.5 L 137.5 83.5 L 138.5 83.5 " stroke="black" fill="none" stroke-width="7.0" stroke-linecap="round" stroke-linejoin="round" />
<path d="M 130.5 89.0 L 130.5 89.5 L 130.5 91.0 L 130.0 94.5 L 130.0 99.0 L 130.5 104.0 L 130.5 109.0 " stroke="black" fill="none" stroke-width="7.0" stroke-linecap="round" stroke-linejoin="round" />
<path d="M 108.0 120.5 L 107.5 121.0 L 106.5 121.0 L 105.5 121.5 L 104.5 121.5 L 104.5 121.5 L 105.5 121.5 L 109.5 120.5 L 117.0 118.0 L 126.5 114.0 L 138.0 108.5 L 145.5 105.0 L 148.5 103.5 L 148.5 103.5 L 147.5 104.0 " stroke="black" fill="none" stroke-width="7.0" stroke-linecap="round" stroke-linejoin="round" />
<path d="M 117.5 124.5 L 117.5 124.5 L 117.5 124.5 L 117.5 124.5 L 117.5 125.5 L 117.5 130.0 L 117.5 138.5 L 118.0 147.5 L 118.5 153.5 L 119.5 155.5 " stroke="black" fill="none" stroke-width="7.0" stroke-linecap="round" stroke-linejoin="round" />
<path d="M 141.0 112.5 L 141.0 112.5 L 141.0 112.5 L 141.5 113.5 L 141.5 118.5 L 142.5 129.0 L 143.0 143.5 L 143.0 160.0 L 142.5 172.5 L 142.5 179.5 L 142.5 185.5 L 142.0 188.0 L 140.5 188.5 " stroke="black" fill="none" stroke-width="7.0" stroke-linecap="round" stroke-linejoin="round" />
<path d="M 126.0 132.5 L 125.5 132.5 L 124.0 132.0 L 123.5 131.5 L 123.5 131.0 L 126.0 129.5 L 129.5 127.5 L 133.0 126.0 L 135.5 124.5 L 136.0 124.5 " stroke="black" fill="none" stroke-width="7.0" stroke-linecap="round" stroke-linejoin="round" />
<path d="M 125.5 141.5 L 124.5 142.5 L 124.5 143.0 L 126.0 143.0 L 129.0 142.0 L 132.5 140.5 L 135.5 139.5 " stroke="black" fill="none" stroke-width="7.0" stroke-linecap="round" stroke-linejoin="round" />
<path d="M 115.5 165.5 L 112.5 167.5 L 111.0 168.5 L 111.5 168.5 L 115.0 167.0 L 121.0 164.0 L 127.0 160.0 L 133.5 156.5 L 138.5 154.0 " stroke="black" fill="none" stroke-width="7.0" stroke-linecap="round" stroke-linejoin="round" />
<path d="M 163.5 89.5 L 163.5 89.5 L 163.5 89.5 L 163.0 90.5 L 163.0 94.0 L 162.5 100.0 L 160.5 107.0 L 157.5 113.0 L 155.0 116.0 L 154.5 116.5 L 155.5 116.5 L 158.0 114.5 L 162.5 111.0 L 168.0 106.0 L 173.0 101.5 L 175.5 98.5 L 178.5 96.5 " stroke="black" fill="none" stroke-width="7.0" stroke-linecap="round" stroke-linejoin="round" />
<path d="M 174.5 101.5 L 174.5 103.5 L 174.0 106.0 L 173.5 110.0 L 172.5 116.0 L 171.0 124.5 L 168.5 135.5 L 165.0 147.0 L 160.0 159.5 L 155.5 168.5 L 151.0 175.5 L 148.0 180.0 " stroke="black" fill="none" stroke-width="7.0" stroke-linecap="round" stroke-linejoin="round" />
<path d="M 152.0 132.5 L 152.0 132.5 L 152.5 132.5 L 153.5 135.5 L 158.0 143.0 L 166.0 155.5 L 173.5 168.5 L 180.0 178.5 L 186.5 185.5 L 191.0 190.0 L 193.0 193.0 " stroke="black" fill="none" stroke-width="7.0" stroke-linecap="round" stroke-linejoin="round" />
</svg>