<svg xmlns="http://www.w3.org/2000/svg" width="300" height="300" viewBox="0 0 300 300">
<path d="M 117.5 121.5 L 116.0 122.5 L 115.0 122.5 L 116.0 122.5 L 121.0 120.5 L 127.5 115.0 L 134.5 108.0 L 140.5 102.5 L 141.0 102.0 " stroke="black" fill="none" stroke-width="7.0" stroke-linecap="round" stroke-linejoin="round" />
<path d="M 129.5 112.5 L 130.0 117.0 L 130.5 124.5 L 131.0 139.5 L 130.5 157.0 L 130.0 166.0 L 130.0 173.0 L 130.5 174.0 " stroke="black" fill="none" stroke-width="7.0" stroke-linecap="round" stroke-linejoin="round" />
<path d="M 132.0 151.0 L 132.0 150.5 L 132.0 148.5 L 134.0 146.0 L 138.0 143.5 L 143.0 140.5 L 146.0 139.0 " stroke="black" fill="none" stroke-width="7.0" stroke-linecap="round" stroke-linejoin="round" />
<path d="M 113.0 153.0 L 113.0 154.5 L 112.5 156.0 L 112.5 160.0 L 114.0 165.0 L 115.5 175.5 L 116.0 184.0 L 114.5 190.0 L 113.5 191.5 " stroke="black" fill="none" stroke-width="7.0" stroke-linecap="round" stroke-linejoin="round" />
<path d="M 106.5 193.5 L 106.0 193.5 L 105.0 194.0 L 103.5 194.5 L 104.0 195.0 L 107.0 194.0 L 114.0 190.5 L 125.5 185.0 L 140.0 176.0 L 151.0 169.5 L 154.0 167.5 " stroke="black" fill="none" stroke-width="7.0" stroke-linecap="round" stroke-linejoin="round" />
<path d="M 168.0 102.5 L 168.0 102.0 L 168.0 101.5 L 168.0 101.5 L 168.5 105.5 L 168.5 112.5 L 167.0 121.0 L 164.0 127.5 L 161.5 130.0 L 161.0 130.0 L 163.5 128.0 L 167.5 124.0 L 172.5 119.5 L 178.0 113.5 L 182.5 109.0 L 184.0 108.0 " stroke="black" fill="none" stroke-width="7.0" stroke-linecap="round" stroke-linejoin="round" />
<path d="M 180.0 116.0 L 179.5 116.5 L 179.0 118.5 L 178.5 123.0 L 177.0 128.5 L 173.5 144.0 L 169.5 159.0 L 164.0 171.5 L 159.0 180.0 L 156.5 184.0 L 153.5 186.5 " stroke="black" fill="none" stroke-width="7.0" stroke-linecap="round" stroke-linejoin="round" />
<path d="M 154.0 147.5 L 154.0 147.0 L 154.0 146.0 L 155.0 146.0 L 161.5 151.5 L 170.0 161.0 L 178.0 173.0 L 187.5 184.0 L 194.5 191.5 L 199.5 196.5 L 203.5 199.0 L 204.5 199.5 " stroke="black" fill="none" stroke-width="7.0" stroke-linecap="round" stroke-linejoin="round" />
</svg>