<svg xmlns="http://www.w3.org/2000/svg" width="300" height="300" viewBox="0 0 300 300">
<path d="M 144.0 102.5 L 142.5 102.5 L 140.5 103.0 L 140.5 103.5 L 143.0 104.5 L 146.5 105.0 L 149.0 105.5 L 150.5 106.5 " stroke="black" fill="none" stroke-width="7.0" stroke-linecap="round" stroke-linejoin="round" />
<path d="M 123.5 133.5 L 122.5 134.0 L 119.5 136.5 L 118.0 138.0 L 118.5 138.5 L 122.5 137.5 L 128.0 134.0 L 137.0 128.5 L 148.0 121.5 L 158.5 115.5 L 165.5 112.5 L 168.5 112.0 " stroke="black" fill="none" stroke-width="7.0" stroke-linecap="round" stroke-linejoin="round" />
<path d="M 152.0 145.0 L 152.0 145.5 L 152.0 146.0 L 153.0 146.5 L 156.5 146.0 L 161.5 144.5 L 170.5 145.5 L 171.5 149.5 L 171.5 156.5 L 171.0 165.0 L 169.5 173.0 L 168.0 181.5 L 165.0 188.0 L 162.0 191.0 L 157.0 191.5 L 152.5 188.0 L 149.0 181.0 " stroke="black" fill="none" stroke-width="7.0" stroke-linecap="round" stroke-linejoin="round" />
<path d="M 146.5 126.0 L 146.5 124.5 L 147.0 123.0 L 147.0 123.5 L 147.0 128.5 L 145.5 138.0 L 140.5 153.0 L 131.5 171.0 L 125.0 185.0 L 124.0 187.0 " stroke="black" fill="none" stroke-width="7.0" stroke-linecap="round" stroke-linejoin="round" />
</svg>