<svg xmlns="http://www.w3.org/2000/svg" width="300" height="300" viewBox="0 0 300 300">
<path d="M 128.0 98.5 L 128.0 98.5 L 127.5 98.0 L 127.0 98.0 L 127.0 98.5 L 129.0 102.5 L 132.5 109.5 L 135.5 117.0 L 137.0 120.5 L 138.0 122.0 " stroke="black" fill="none" stroke-width="7.0" stroke-linecap="round" stroke-linejoin="round" />
<path d="M 136.0 96.0 L 135.5 95.5 L 134.5 93.0 L 136.5 90.5 L 141.5 88.5 L 148.5 87.0 L 153.5 85.5 L 162.5 83.5 L 168.0 83.5 L 171.0 85.0 L 171.5 89.0 L 171.0 96.5 L 168.5 106.5 L 165.0 116.5 L 162.0 123.0 L 160.5 124.5 " stroke="black" fill="none" stroke-width="7.0" stroke-linecap="round" stroke-linejoin="round" />
<path d="M 142.5 108.5 L 141.0 109.0 L 139.5 109.5 L 140.0 109.5 L 143.5 109.5 L 149.0 108.5 L 154.0 107.0 L 158.5 105.5 L 160.0 105.5 " stroke="black" fill="none" stroke-width="7.0" stroke-linecap="round" stroke-linejoin="round" />
<path d="M 139.5 127.0 L 138.0 128.5 L 137.0 130.0 L 140.0 130.0 L 145.5 129.0 L 152.5 127.0 L 159.5 125.5 " stroke="black" fill="none" stroke-width="7.0" stroke-linecap="round" stroke-linejoin="round" />
<path d="M 131.5 147.5 L 130.5 147.5 L 129.5 148.0 L 129.5 148.0 L 133.5 148.0 L 139.5 147.0 L 153.0 142.0 L 163.5 138.0 L 170.0 136.0 L 171.5 136.0 L 171.5 136.0 " stroke="black" fill="none" stroke-width="7.0" stroke-linecap="round" stroke-linejoin="round" />
<path d="M 125.0 152.0 L 124.5 151.5 L 124.0 150.0 L 123.5 149.0 L 123.5 149.0 L 125.0 155.5 L 125.5 166.5 L 124.0 181.5 L 118.5 194.0 L 114.5 199.0 " stroke="black" fill="none" stroke-width="7.0" stroke-linecap="round" stroke-linejoin="round" />
<path d="M 152.5 152.5 L 152.5 152.5 L 152.5 152.0 L 152.5 151.5 L 152.5 152.0 L 152.5 156.5 L 151.0 165.5 L 146.5 178.5 L 141.0 187.5 L 132.5 195.5 L 131.5 195.5 " stroke="black" fill="none" stroke-width="7.0" stroke-linecap="round" stroke-linejoin="round" />
<path d="M 149.0 179.5 L 150.0 181.0 L 152.5 184.0 L 158.0 188.0 L 166.5 192.5 L 173.5 196.5 L 177.0 200.0 L 178.0 201.0 " stroke="black" fill="none" stroke-width="7.0" stroke-linecap="round" stroke-linejoin="round" />
</svg>