<svg xmlns="http://www.w3.org/2000/svg" width="300" height="300" viewBox="0 0 300 300">
<path d="M 117.0 120.0 L 117.0 120.0 L 117.0 120.0 L 117.0 122.5 L 119.0 132.5 L 120.0 148.5 L 120.0 164.5 L 120.0 175.0 L 121.0 179.5 L 122.0 180.5 L 122.0 180.0 " stroke="black" fill="none" stroke-width="7.0" stroke-linecap="round" stroke-linejoin="round" />
<path d="M 124.5 116.5 L 124.5 116.5 L 124.5 115.0 L 124.5 113.5 L 126.0 112.5 L 129.0 110.5 L 133.5 108.5 L 138.5 106.5 L 142.0 106.0 L 144.0 108.5 L 144.5 114.5 L 144.5 123.0 L 145.0 135.0 L 145.5 149.0 L 145.5 163.0 L 145.5 172.0 L 145.5 178.0 L 145.5 180.5 L 145.0 180.0 L 144.5 178.5 " stroke="black" fill="none" stroke-width="7.0" stroke-linecap="round" stroke-linejoin="round" />
<path d="M 127.5 150.5 L 126.0 151.0 L 125.0 151.5 L 125.5 152.0 L 128.5 152.0 L 132.5 151.5 L 137.5 149.5 L 140.5 149.0 " stroke="black" fill="none" stroke-width="7.0" stroke-linecap="round" stroke-linejoin="round" />
<path d="M 125.5 174.0 L 123.0 177.0 L 123.0 178.0 L 124.5 178.5 L 128.0 177.5 L 133.5 175.5 L 138.5 174.0 " stroke="black" fill="none" stroke-width="7.0" stroke-linecap="round" stroke-linejoin="round" />
<path d="M 159.5 127.5 L 159.5 127.5 L 159.0 128.0 L 159.0 129.0 L 160.5 133.0 L 163.5 139.5 L 166.5 145.0 L 168.5 148.5 L 168.5 149.0 " stroke="black" fill="none" stroke-width="7.0" stroke-linecap="round" stroke-linejoin="round" />
<path d="M 163.5 134.0 L 164.5 133.0 L 165.0 132.0 L 167.0 131.5 L 170.5 130.5 L 176.0 128.5 L 183.5 126.0 L 191.0 123.5 L 195.0 121.5 L 197.0 121.0 L 197.0 122.5 L 196.5 126.0 L 194.0 131.0 L 191.0 138.0 L 187.5 144.0 L 186.5 145.5 " stroke="black" fill="none" stroke-width="7.0" stroke-linecap="round" stroke-linejoin="round" />
<path d="M 155.5 160.0 L 155.0 160.0 L 152.5 160.0 L 151.5 160.0 L 151.5 159.5 L 153.0 159.0 L 157.5 158.0 L 164.5 155.5 L 174.0 152.5 L 186.0 149.0 L 195.5 147.0 L 201.0 146.0 L 203.0 146.0 " stroke="black" fill="none" stroke-width="7.0" stroke-linecap="round" stroke-linejoin="round" />
<path d="M 178.0 99.0 L 177.5 99.5 L 177.0 102.5 L 177.5 111.0 L 178.5 125.0 L 177.0 142.5 L 172.5 159.0 L 167.0 174.0 L 159.5 186.0 L 153.5 191.5 L 151.0 192.5 " stroke="black" fill="none" stroke-width="7.0" stroke-linecap="round" stroke-linejoin="round" />
<path d="M 175.0 155.5 L 175.5 157.0 L 178.5 161.5 L 184.0 167.5 L 190.5 173.5 L 196.5 180.5 L 202.5 186.5 L 208.0 191.0 L 210.0 192.5 " stroke="black" fill="none" stroke-width="7.0" stroke-linecap="round" stroke-linejoin="round" />
</svg>