<svg xmlns="http://www.w3.org/2000/svg" width="300" height="300" viewBox="0 0 300 300">
<path d="M 120.5 105.5 L 120.5 105.5 L 120.5 105.5 L 120.5 106.5 L 122.5 111.5 L 125.5 119.0 L 128.5 126.0 L 130.5 129.5 L 132.0 129.5 L 132.0 129.0 " stroke="black" fill="none" stroke-width="7.0" stroke-linecap="round" stroke-linejoin="round" />
<path d="M 128.0 104.5 L 128.0 104.5 L 128.0 104.0 L 128.5 103.0 L 131.0 102.0 L 138.0 99.5 L 148.0 96.5 L 156.5 94.0 L 163.0 93.0 L 167.0 93.5 L 168.5 97.0 L 168.5 103.0 L 166.5 110.0 L 163.5 117.5 L 161.0 123.0 L 159.5 125.5 " stroke="black" fill="none" stroke-width="7.0" stroke-linecap="round" stroke-linejoin="round" />
<path d="M 138.0 116.0 L 137.5 115.5 L 135.5 115.5 L 134.5 115.0 L 135.0 114.5 L 138.5 114.5 L 144.0 113.5 L 150.0 112.0 L 154.5 110.5 L 157.0 110.0 " stroke="black" fill="none" stroke-width="7.0" stroke-linecap="round" stroke-linejoin="round" />
<path d="M 135.0 128.0 L 133.5 129.0 L 132.0 129.5 L 133.0 129.5 L 137.5 129.0 L 144.5 127.5 L 151.0 126.0 L 155.5 125.0 " stroke="black" fill="none" stroke-width="7.0" stroke-linecap="round" stroke-linejoin="round" />
<path d="M 124.0 148.5 L 122.0 149.5 L 121.0 150.0 L 120.5 150.5 L 123.0 150.5 L 128.0 149.5 L 135.5 146.5 L 147.0 142.5 L 158.0 138.0 L 166.5 135.0 L 170.0 134.5 L 170.0 135.5 " stroke="black" fill="none" stroke-width="7.0" stroke-linecap="round" stroke-linejoin="round" />
<path d="M 146.5 146.5 L 145.5 149.0 L 145.0 154.5 L 146.0 165.0 L 146.0 176.0 L 146.5 185.0 L 147.0 189.5 L 147.0 190.0 " stroke="black" fill="none" stroke-width="7.0" stroke-linecap="round" stroke-linejoin="round" />
<path d="M 148.5 172.5 L 149.0 170.5 L 151.5 168.0 L 157.0 164.5 L 163.5 161.5 L 168.0 159.0 L 168.5 158.5 " stroke="black" fill="none" stroke-width="7.0" stroke-linecap="round" stroke-linejoin="round" />
<path d="M 124.0 168.5 L 123.0 169.5 L 122.0 172.0 L 121.0 177.5 L 119.0 185.0 L 116.0 191.5 L 113.0 195.0 " stroke="black" fill="none" stroke-width="7.0" stroke-linecap="round" stroke-linejoin="round" />
<path d="M 119.5 184.5 L 122.0 184.5 L 126.0 185.0 L 132.0 187.5 L 141.5 191.0 L 152.0 193.5 L 163.0 196.0 L 173.0 198.5 L 179.0 201.0 L 185.0 202.0 L 186.0 202.0 " stroke="black" fill="none" stroke-width="7.0" stroke-linecap="round" stroke-linejoin="round" />
</svg>