<svg xmlns="http://www.w3.org/2000/svg" width="300" height="300" viewBox="0 0 300 300">
<path d="M 129.5 94.5 L 129.5 94.0 L 129.0 93.0 L 129.0 93.0 L 130.5 95.5 L 134.0 101.5 L 136.5 106.5 L 138.0 109.5 L 138.5 110.5 " stroke="black" fill="none" stroke-width="7.0" stroke-linecap="round" stroke-linejoin="round" />
<path d="M 133.5 91.5 L 133.5 90.5 L 134.0 87.5 L 136.0 85.5 L 141.5 84.0 L 150.0 81.5 L 158.0 79.5 L 167.5 77.5 L 173.0 77.0 L 175.0 78.5 L 175.5 82.0 L 175.0 88.0 L 172.5 95.5 L 170.0 102.5 L 167.0 106.5 " stroke="black" fill="none" stroke-width="7.0" stroke-linecap="round" stroke-linejoin="round" />
<path d="M 147.0 98.0 L 146.5 98.0 L 145.0 98.5 L 145.0 98.5 L 146.0 98.0 L 150.0 96.0 L 156.0 93.5 L 162.0 91.5 L 164.0 91.5 " stroke="black" fill="none" stroke-width="7.0" stroke-linecap="round" stroke-linejoin="round" />
<path d="M 143.5 112.5 L 142.5 113.0 L 140.5 115.0 L 140.5 115.5 L 144.5 115.5 L 150.0 114.0 L 157.0 111.0 L 165.0 108.5 " stroke="black" fill="none" stroke-width="7.0" stroke-linecap="round" stroke-linejoin="round" />
<path d="M 133.5 140.5 L 131.5 141.0 L 130.0 141.5 L 130.0 141.5 L 131.5 140.5 L 140.0 137.0 L 148.5 132.5 L 155.5 129.0 L 164.0 125.5 L 165.0 125.0 " stroke="black" fill="none" stroke-width="7.0" stroke-linecap="round" stroke-linejoin="round" />
<path d="M 150.5 118.0 L 150.5 118.5 L 150.0 119.0 L 150.0 123.5 L 150.5 129.5 L 151.5 141.5 L 151.5 148.0 " stroke="black" fill="none" stroke-width="7.0" stroke-linecap="round" stroke-linejoin="round" />
<path d="M 117.0 161.0 L 114.5 161.5 L 113.0 162.0 L 112.5 162.0 L 113.0 162.0 L 118.0 162.0 L 125.0 160.0 L 136.0 156.0 L 152.5 149.5 L 167.5 145.0 L 177.0 143.5 L 183.5 142.5 L 185.0 142.5 " stroke="black" fill="none" stroke-width="7.0" stroke-linecap="round" stroke-linejoin="round" />
<path d="M 177.0 130.5 L 176.5 131.0 L 175.0 131.5 L 172.5 134.0 L 169.0 138.5 L 161.0 146.0 L 147.5 157.0 L 132.5 167.5 L 122.0 175.0 L 116.5 179.5 " stroke="black" fill="none" stroke-width="7.0" stroke-linecap="round" stroke-linejoin="round" />
<path d="M 137.5 169.0 L 137.0 170.0 L 136.0 173.5 L 136.0 179.0 L 137.0 186.5 L 139.0 192.0 L 139.0 192.0 " stroke="black" fill="none" stroke-width="7.0" stroke-linecap="round" stroke-linejoin="round" />
<path d="M 143.5 173.0 L 143.5 172.5 L 144.5 170.0 L 147.0 167.5 L 151.5 165.0 L 158.0 162.0 L 165.0 160.5 L 169.0 160.5 L 170.5 162.5 L 170.5 167.0 L 170.0 173.0 L 168.5 180.5 L 166.5 188.0 L 164.5 191.5 L 163.5 192.5 " stroke="black" fill="none" stroke-width="7.0" stroke-linecap="round" stroke-linejoin="round" />
<path d="M 147.0 183.0 L 146.0 183.0 L 143.5 183.5 L 143.0 183.5 L 144.5 183.0 L 148.5 181.5 L 152.0 179.5 L 157.5 177.5 L 160.0 177.5 " stroke="black" fill="none" stroke-width="7.0" stroke-linecap="round" stroke-linejoin="round" />
<path d="M 146.0 193.5 L 145.0 194.5 L 144.0 195.5 L 145.0 195.5 L 149.0 195.5 L 154.5 194.0 L 158.0 193.0 " stroke="black" fill="none" stroke-width="7.0" stroke-linecap="round" stroke-linejoin="round" />
</svg>