<svg xmlns="http://www.w3.org/2000/svg" width="300" height="300" viewBox="0 0 300 300">
<path d="M 107.0 133.5 L 106.5 131.5 L 106.5 129.5 L 106.5 129.5 L 108.0 135.5 L 110.5 147.0 L 113.5 163.0 L 116.0 176.0 L 117.5 181.5 L 119.0 181.5 " stroke="black" fill="none" stroke-width="7.0" stroke-linecap="round" stroke-linejoin="round" />
<path d="M 119.5 131.5 L 119.0 129.0 L 120.0 126.5 L 123.5 124.0 L 130.0 121.0 L 141.5 117.5 L 155.0 113.0 L 168.0 110.5 L 175.0 110.5 L 179.5 112.5 L 182.5 117.5 L 183.5 125.0 L 183.0 137.0 L 180.0 150.5 L 176.5 162.5 L 173.5 170.5 L 171.0 175.5 L 169.0 177.0 L 168.0 177.0 " stroke="black" fill="none" stroke-width="7.0" stroke-linecap="round" stroke-linejoin="round" />
<path d="M 137.0 152.0 L 135.0 151.0 L 133.0 150.5 L 132.0 151.0 L 133.5 152.0 L 138.5 152.5 L 146.5 151.5 L 155.0 149.0 L 163.5 147.0 L 167.5 146.5 L 167.5 147.5 " stroke="black" fill="none" stroke-width="7.0" stroke-linecap="round" stroke-linejoin="round" />
<path d="M 122.0 182.5 L 120.0 184.0 L 120.5 184.5 L 126.0 184.5 L 134.0 183.5 L 145.5 181.5 L 156.0 179.5 L 162.5 178.5 " stroke="black" fill="none" stroke-width="7.0" stroke-linecap="round" stroke-linejoin="round" />
</svg>