<svg xmlns="http://www.w3.org/2000/svg" width="300" height="300" viewBox="0 0 300 300">
<path d="M 128.5 100.5 L 128.5 100.5 L 128.5 101.5 L 129.5 104.5 L 131.5 108.5 L 134.0 114.5 L 137.0 118.5 L 137.5 118.5 " stroke="black" fill="none" stroke-width="7.0" stroke-linecap="round" stroke-linejoin="round" />
<path d="M 132.5 97.0 L 133.0 96.0 L 134.0 94.5 L 138.0 92.0 L 146.5 88.0 L 155.0 83.0 L 162.0 80.5 L 170.0 79.5 L 171.5 80.5 L 172.0 84.0 L 172.0 89.5 L 170.5 96.0 L 168.5 102.5 L 166.0 108.0 L 164.0 111.5 " stroke="black" fill="none" stroke-width="7.0" stroke-linecap="round" stroke-linejoin="round" />
<path d="M 143.5 105.5 L 141.5 105.5 L 140.5 105.5 L 142.0 105.0 L 146.0 104.5 L 149.5 103.5 L 156.0 101.0 L 160.0 99.5 L 161.5 99.5 " stroke="black" fill="none" stroke-width="7.0" stroke-linecap="round" stroke-linejoin="round" />
<path d="M 142.0 120.0 L 139.5 121.5 L 139.5 122.0 L 143.5 122.0 L 148.5 120.5 L 154.5 118.0 L 158.0 116.5 " stroke="black" fill="none" stroke-width="7.0" stroke-linecap="round" stroke-linejoin="round" />
<path d="M 149.5 128.0 L 149.5 128.5 L 149.5 130.0 L 149.5 131.5 L 150.5 134.0 L 151.5 137.0 L 151.5 137.5 " stroke="black" fill="none" stroke-width="7.0" stroke-linecap="round" stroke-linejoin="round" />
<path d="M 123.5 149.5 L 123.0 149.5 L 122.0 149.5 L 122.0 149.5 L 125.0 149.0 L 131.0 147.0 L 142.0 144.0 L 155.0 139.5 L 167.5 135.0 L 174.5 132.0 L 176.5 131.5 L 176.5 131.5 " stroke="black" fill="none" stroke-width="7.0" stroke-linecap="round" stroke-linejoin="round" />
<path d="M 138.0 158.0 L 137.5 159.5 L 138.0 161.0 L 140.0 164.0 L 143.0 167.0 L 146.0 169.5 L 147.0 170.0 " stroke="black" fill="none" stroke-width="7.0" stroke-linecap="round" stroke-linejoin="round" />
<path d="M 142.0 161.0 L 142.0 160.5 L 142.5 159.5 L 144.5 158.0 L 149.0 155.5 L 155.5 151.5 L 163.0 149.0 L 167.0 148.0 L 167.5 150.0 L 165.0 154.5 L 160.5 159.5 L 155.0 164.5 L 150.0 168.5 L 146.5 171.5 L 145.5 172.0 L 146.0 172.0 L 148.5 171.0 L 152.0 168.5 L 156.5 165.5 L 161.0 163.0 " stroke="black" fill="none" stroke-width="7.0" stroke-linecap="round" stroke-linejoin="round" />
<path d="M 152.0 170.5 L 152.0 170.5 L 152.0 170.0 L 151.5 169.5 L 151.5 171.0 L 152.0 178.5 L 153.0 190.5 L 153.0 203.0 L 152.5 210.0 L 151.5 212.0 L 150.5 211.5 L 149.0 208.5 L 147.5 204.0 L 145.0 198.0 " stroke="black" fill="none" stroke-width="7.0" stroke-linecap="round" stroke-linejoin="round" />
<path d="M 133.5 180.0 L 133.5 180.0 L 133.0 180.0 L 132.5 180.5 L 131.5 184.5 L 129.5 192.0 L 127.0 201.0 L 125.0 205.5 L 125.0 206.0 " stroke="black" fill="none" stroke-width="7.0" stroke-linecap="round" stroke-linejoin="round" />
<path d="M 172.0 177.0 L 172.5 178.5 L 175.5 184.0 L 179.0 191.0 L 181.5 198.5 L 184.5 203.5 L 186.5 206.0 " stroke="black" fill="none" stroke-width="7.0" stroke-linecap="round" stroke-linejoin="round" />
</svg>