<svg xmlns="http://www.w3.org/2000/svg" width="300" height="300" viewBox="0 0 300 300">
<path d="M 130.0 116.0 L 129.5 116.5 L 127.5 117.0 L 126.5 117.5 L 126.0 117.5 L 126.5 117.5 L 130.5 115.5 L 136.5 113.0 L 149.5 106.0 L 160.0 100.5 L 168.0 96.5 L 169.0 95.5 " stroke="black" fill="none" stroke-width="7.0" stroke-linecap="round" stroke-linejoin="round" />
<path d="M 146.5 78.0 L 145.5 78.5 L 145.5 80.5 L 145.5 86.0 L 145.0 98.5 L 141.0 114.5 L 133.0 130.5 L 126.0 146.0 L 119.5 156.5 L 114.0 163.0 L 113.0 163.5 " stroke="black" fill="none" stroke-width="7.0" stroke-linecap="round" stroke-linejoin="round" />
<path d="M 134.0 129.5 L 134.5 130.0 L 135.0 132.5 L 135.0 140.5 L 135.0 153.5 L 134.0 166.0 L 133.0 175.5 L 132.0 182.0 L 131.5 184.5 " stroke="black" fill="none" stroke-width="7.0" stroke-linecap="round" stroke-linejoin="round" />
<path d="M 139.5 132.5 L 140.0 131.5 L 141.0 128.5 L 144.0 126.0 L 148.0 124.5 L 152.0 123.0 L 156.5 121.0 L 162.0 119.5 L 166.0 118.5 L 167.5 119.0 L 168.5 121.0 L 169.0 125.0 L 169.0 132.0 L 169.5 142.5 L 170.0 155.5 L 170.5 167.5 L 171.0 175.5 L 171.0 181.0 L 170.0 183.0 L 168.5 182.5 L 165.5 179.0 L 161.0 171.5 " stroke="black" fill="none" stroke-width="7.0" stroke-linecap="round" stroke-linejoin="round" />
<path d="M 147.5 144.0 L 146.0 145.0 L 145.5 145.5 L 147.0 145.5 L 150.0 144.0 L 153.5 142.0 L 156.5 140.5 L 157.0 140.0 " stroke="black" fill="none" stroke-width="7.0" stroke-linecap="round" stroke-linejoin="round" />
<path d="M 146.5 155.0 L 146.0 155.5 L 144.5 157.5 L 145.0 157.5 L 149.0 156.5 L 153.5 154.0 L 159.5 152.0 L 161.0 151.5 " stroke="black" fill="none" stroke-width="7.0" stroke-linecap="round" stroke-linejoin="round" />
</svg>