<svg xmlns="http://www.w3.org/2000/svg" width="300" height="300" viewBox="0 0 300 300">
<path d="M 124.0 94.5 L 123.5 94.5 L 122.5 95.0 L 122.5 95.5 L 123.5 96.0 L 126.0 96.0 L 129.5 96.0 " stroke="black" fill="none" stroke-width="7.0" stroke-linecap="round" stroke-linejoin="round" />
<path d="M 120.0 121.0 L 119.0 121.5 L 117.5 123.0 L 118.0 123.0 L 121.0 121.0 L 125.5 117.0 L 129.5 113.0 L 132.0 111.0 " stroke="black" fill="none" stroke-width="7.0" stroke-linecap="round" stroke-linejoin="round" />
<path d="M 123.5 146.0 L 122.0 148.5 L 121.0 150.5 L 121.5 150.0 L 125.0 145.0 L 129.0 136.5 L 135.0 125.5 " stroke="black" fill="none" stroke-width="7.0" stroke-linecap="round" stroke-linejoin="round" />
<path d="M 149.5 117.0 L 148.0 118.5 L 147.0 119.5 L 146.5 119.5 L 147.0 119.5 L 149.5 117.5 L 154.0 113.5 L 160.0 108.5 L 167.0 103.5 L 172.0 99.5 L 173.0 98.0 L 173.5 98.0 L 172.5 100.0 L 171.5 104.0 L 170.5 110.5 L 170.5 119.0 L 172.0 127.5 L 175.0 134.0 L 177.5 136.5 L 180.0 137.0 L 181.5 136.5 L 182.0 133.5 L 182.0 128.5 " stroke="black" fill="none" stroke-width="7.0" stroke-linecap="round" stroke-linejoin="round" />
<path d="M 159.0 84.0 L 159.0 85.0 L 158.5 88.0 L 158.5 97.0 L 157.0 113.0 L 154.0 129.5 L 151.5 142.5 L 151.0 144.5 " stroke="black" fill="none" stroke-width="7.0" stroke-linecap="round" stroke-linejoin="round" />
<path d="M 127.0 172.5 L 126.0 173.5 L 124.0 174.5 L 122.5 175.0 L 122.0 175.5 L 122.0 175.5 L 125.0 175.5 L 130.0 174.0 L 139.0 171.0 L 150.5 165.5 L 162.0 159.5 L 170.5 155.5 L 172.5 154.0 L 173.0 154.0 " stroke="black" fill="none" stroke-width="7.0" stroke-linecap="round" stroke-linejoin="round" />
<path d="M 148.5 147.5 L 148.0 148.5 L 148.0 151.5 L 149.0 160.0 L 151.0 172.0 L 151.5 186.5 L 151.0 196.0 L 149.5 202.0 L 148.5 204.0 L 147.5 201.5 L 147.0 195.5 " stroke="black" fill="none" stroke-width="7.0" stroke-linecap="round" stroke-linejoin="round" />
<path d="M 147.0 168.5 L 147.0 168.0 L 147.0 167.0 L 147.0 166.5 L 146.5 168.5 L 144.5 173.5 L 141.0 181.5 L 135.0 190.5 L 129.0 197.0 L 126.0 199.0 L 125.0 199.5 " stroke="black" fill="none" stroke-width="7.0" stroke-linecap="round" stroke-linejoin="round" />
<path d="M 150.5 171.0 L 152.5 171.5 L 157.5 174.5 L 164.5 181.5 L 171.0 189.0 L 175.5 195.0 L 180.0 201.0 L 182.5 203.0 " stroke="black" fill="none" stroke-width="7.0" stroke-linecap="round" stroke-linejoin="round" />
</svg>