<svg xmlns="http://www.w3.org/2000/svg" width="300" height="300" viewBox="0 0 300 300">
<path d="M 127.0 109.5 L 127.0 109.5 L 126.0 110.5 L 125.0 110.5 L 124.5 111.0 L 124.0 111.5 L 125.0 111.5 L 128.0 110.5 L 133.5 108.5 L 144.5 105.0 L 159.0 100.0 L 167.5 96.5 L 171.0 94.5 L 171.5 93.5 " stroke="black" fill="none" stroke-width="7.0" stroke-linecap="round" stroke-linejoin="round" />
<path d="M 150.5 75.5 L 150.5 75.5 L 150.0 76.0 L 149.5 77.5 L 149.5 86.0 L 150.5 103.0 L 151.5 121.5 L 151.5 134.0 L 151.5 141.0 L 151.0 143.5 L 150.0 143.0 L 148.5 139.5 " stroke="black" fill="none" stroke-width="7.0" stroke-linecap="round" stroke-linejoin="round" />
<path d="M 147.0 104.5 L 147.0 105.0 L 147.0 105.5 L 146.5 107.0 L 145.5 110.0 L 142.0 115.0 L 135.5 122.0 L 128.0 127.5 L 123.5 130.0 L 122.5 130.0 " stroke="black" fill="none" stroke-width="7.0" stroke-linecap="round" stroke-linejoin="round" />
<path d="M 149.0 108.0 L 152.0 110.0 L 157.5 113.5 L 165.0 118.5 L 171.0 122.5 L 174.5 124.5 L 176.5 126.0 " stroke="black" fill="none" stroke-width="7.0" stroke-linecap="round" stroke-linejoin="round" />
<path d="M 139.0 145.0 L 137.5 145.0 L 137.5 145.5 L 140.0 145.5 L 144.5 145.0 L 150.0 143.5 L 154.0 142.0 L 157.5 142.0 L 158.0 143.5 L 156.0 146.5 L 153.5 150.0 L 151.0 152.0 L 150.0 154.0 L 149.5 156.0 L 149.5 158.0 L 150.5 160.0 L 151.5 163.0 L 153.5 166.5 L 155.5 171.0 L 157.0 177.0 L 157.0 183.5 L 156.0 188.0 L 153.5 191.0 L 150.0 192.5 L 146.0 192.0 L 140.5 188.5 L 134.5 181.5 L 132.5 177.5 " stroke="black" fill="none" stroke-width="7.0" stroke-linecap="round" stroke-linejoin="round" />
<path d="M 113.0 169.0 L 111.5 169.5 L 110.5 169.5 L 110.0 170.0 L 111.5 170.0 L 118.0 170.5 L 128.5 169.0 L 145.0 166.5 L 163.0 165.0 L 175.5 165.0 L 184.0 165.0 L 191.0 164.0 L 193.0 163.5 L 193.5 163.0 " stroke="black" fill="none" stroke-width="7.0" stroke-linecap="round" stroke-linejoin="round" />
</svg>