<svg xmlns="http://www.w3.org/2000/svg" width="300" height="300" viewBox="0 0 300 300">
<path d="M 114.5 133.5 L 113.5 134.5 L 110.5 136.0 L 109.5 137.0 L 109.5 137.0 L 113.0 135.0 L 120.5 129.5 L 127.5 124.5 L 135.0 119.0 L 140.0 115.0 L 142.0 113.5 " stroke="black" fill="none" stroke-width="7.0" stroke-linecap="round" stroke-linejoin="round" />
<path d="M 127.0 88.5 L 126.5 89.0 L 126.0 92.5 L 126.5 99.0 L 128.0 112.0 L 129.5 132.0 L 129.5 153.5 L 129.0 171.5 L 127.5 183.5 L 126.5 190.5 L 125.0 193.0 L 124.0 192.0 L 123.0 186.0 L 123.0 180.5 " stroke="black" fill="none" stroke-width="7.0" stroke-linecap="round" stroke-linejoin="round" />
<path d="M 127.5 128.0 L 127.5 127.5 L 127.5 125.0 L 127.5 124.0 L 127.5 124.0 L 127.5 127.5 L 126.5 134.5 L 124.0 145.0 L 117.5 159.0 L 110.5 169.0 L 107.0 173.0 L 106.0 173.5 " stroke="black" fill="none" stroke-width="7.0" stroke-linecap="round" stroke-linejoin="round" />
<path d="M 128.5 129.5 L 129.0 130.5 L 131.5 136.5 L 137.0 145.5 L 143.5 157.0 L 148.5 167.5 L 151.5 174.0 " stroke="black" fill="none" stroke-width="7.0" stroke-linecap="round" stroke-linejoin="round" />
<path d="M 164.5 112.0 L 165.0 109.0 L 165.5 107.0 L 165.5 106.5 L 166.0 110.0 L 164.0 118.0 L 159.5 128.0 L 153.5 139.5 L 150.0 146.5 L 149.0 147.0 " stroke="black" fill="none" stroke-width="7.0" stroke-linecap="round" stroke-linejoin="round" />
<path d="M 176.5 119.0 L 177.0 119.5 L 179.5 120.5 L 183.0 121.5 L 187.5 122.0 L 189.5 122.5 " stroke="black" fill="none" stroke-width="7.0" stroke-linecap="round" stroke-linejoin="round" />
<path d="M 171.0 138.5 L 171.0 139.0 L 170.0 141.5 L 169.0 146.0 L 167.5 153.5 L 165.5 164.0 L 162.5 172.5 L 159.0 180.0 L 156.0 186.0 L 154.5 188.0 L 154.0 188.5 L 154.0 188.5 L 156.0 187.0 L 159.5 184.5 L 164.5 181.0 L 170.5 176.5 L 176.0 172.0 L 181.5 167.5 L 183.5 166.0 " stroke="black" fill="none" stroke-width="7.0" stroke-linecap="round" stroke-linejoin="round" />
<path d="M 186.5 153.0 L 185.5 153.0 L 185.0 153.0 L 186.0 157.0 L 189.0 166.5 L 191.5 180.0 L 192.5 191.0 L 193.0 196.5 " stroke="black" fill="none" stroke-width="7.0" stroke-linecap="round" stroke-linejoin="round" />
</svg>