<svg xmlns="http://www.w3.org/2000/svg" width="300" height="300" viewBox="0 0 300 300">
<path d="M 128.0 101.5 L 126.5 101.5 L 125.5 102.0 L 125.0 102.0 L 125.0 102.0 L 128.0 101.5 L 135.0 99.5 L 145.5 96.5 L 157.5 92.5 L 166.0 89.5 L 170.0 87.5 L 170.5 87.0 L 170.5 86.5 " stroke="black" fill="none" stroke-width="7.0" stroke-linecap="round" stroke-linejoin="round" />
<path d="M 149.5 77.0 L 149.0 77.0 L 149.0 79.5 L 149.5 87.0 L 150.5 100.0 L 150.5 113.0 L 150.5 123.0 L 149.5 127.0 L 149.5 127.5 L 149.0 126.0 L 149.0 125.5 " stroke="black" fill="none" stroke-width="7.0" stroke-linecap="round" stroke-linejoin="round" />
<path d="M 148.0 99.5 L 148.0 99.0 L 148.0 98.0 L 148.0 97.5 L 147.5 99.5 L 146.0 104.0 L 141.5 111.0 L 134.5 119.0 L 128.5 123.5 L 125.0 125.0 L 124.5 125.0 " stroke="black" fill="none" stroke-width="7.0" stroke-linecap="round" stroke-linejoin="round" />
<path d="M 145.0 103.0 L 146.0 103.0 L 150.0 103.5 L 155.0 106.0 L 161.5 110.0 L 168.0 114.5 L 172.0 117.0 L 173.0 118.0 " stroke="black" fill="none" stroke-width="7.0" stroke-linecap="round" stroke-linejoin="round" />
<path d="M 140.5 138.0 L 139.5 138.0 L 139.0 138.0 L 142.0 138.0 L 146.5 137.0 L 151.0 135.0 L 154.5 132.5 L 155.5 132.0 L 155.5 132.0 " stroke="black" fill="none" stroke-width="7.0" stroke-linecap="round" stroke-linejoin="round" />
<path d="M 128.5 155.5 L 127.5 156.0 L 126.0 157.5 L 124.0 158.5 L 123.0 159.5 L 123.0 159.5 L 124.0 159.5 L 127.0 158.5 L 131.5 156.5 L 136.5 154.5 L 149.0 150.0 L 157.5 147.5 L 164.5 146.0 L 168.0 146.0 L 168.5 145.5 L 168.5 145.5 " stroke="black" fill="none" stroke-width="7.0" stroke-linecap="round" stroke-linejoin="round" />
<path d="M 149.5 151.0 L 149.5 150.0 L 149.0 149.5 L 149.0 149.5 L 149.0 153.0 L 150.0 161.5 L 151.0 174.0 L 151.5 186.0 L 151.5 192.0 L 151.0 194.0 L 150.5 193.5 " stroke="black" fill="none" stroke-width="7.0" stroke-linecap="round" stroke-linejoin="round" />
<path d="M 147.0 154.5 L 147.0 154.5 L 147.0 154.0 L 147.0 153.5 L 146.0 154.5 L 143.0 159.5 L 136.5 167.5 L 129.5 176.5 L 124.5 183.0 L 123.0 184.0 " stroke="black" fill="none" stroke-width="7.0" stroke-linecap="round" stroke-linejoin="round" />
<path d="M 147.5 154.5 L 148.0 154.5 L 149.0 155.5 L 152.5 158.0 L 160.0 165.0 L 168.5 172.5 L 174.5 178.5 L 178.5 182.5 L 179.5 184.0 " stroke="black" fill="none" stroke-width="7.0" stroke-linecap="round" stroke-linejoin="round" />
</svg>