<svg xmlns="http://www.w3.org/2000/svg" width="300" height="300" viewBox="0 0 300 300">
<path d="M 126.0 123.5 L 123.5 124.5 L 121.0 125.0 L 121.0 125.5 L 123.5 125.5 L 130.5 123.5 L 141.5 120.0 L 153.0 115.5 L 162.5 111.0 L 168.0 108.5 L 169.0 107.5 " stroke="black" fill="none" stroke-width="7.0" stroke-linecap="round" stroke-linejoin="round" />
<path d="M 147.5 77.5 L 147.5 78.5 L 147.5 83.5 L 148.5 96.5 L 149.5 117.0 L 150.0 139.0 L 149.0 162.0 L 148.0 177.0 L 148.0 184.0 L 148.0 185.5 L 148.0 185.5 " stroke="black" fill="none" stroke-width="7.0" stroke-linecap="round" stroke-linejoin="round" />
<path d="M 148.0 123.0 L 148.0 123.0 L 147.5 124.0 L 147.0 126.5 L 145.5 131.5 L 142.5 139.0 L 136.0 148.0 L 129.5 155.0 L 124.0 160.5 L 120.0 162.0 " stroke="black" fill="none" stroke-width="7.0" stroke-linecap="round" stroke-linejoin="round" />
<path d="M 151.0 124.0 L 152.5 126.0 L 158.0 131.5 L 166.5 140.0 L 173.0 148.5 L 178.0 156.0 L 182.0 161.0 L 184.0 163.5 " stroke="black" fill="none" stroke-width="7.0" stroke-linecap="round" stroke-linejoin="round" />
</svg>