<svg xmlns="http://www.w3.org/2000/svg" width="300" height="300" viewBox="0 0 300 300">
<path d="M 130.5 115.0 L 130.0 114.0 L 129.5 112.5 L 129.5 112.0 L 129.5 114.0 L 130.5 121.0 L 132.0 133.5 L 132.5 153.0 L 129.0 172.5 L 125.5 185.0 L 122.5 190.5 L 120.5 192.0 " stroke="black" fill="none" stroke-width="7.0" stroke-linecap="round" stroke-linejoin="round" />
<path d="M 137.0 116.0 L 136.0 115.0 L 136.0 113.0 L 139.0 111.0 L 145.0 107.5 L 152.0 104.0 L 158.5 101.0 L 163.0 100.0 L 165.5 99.5 L 166.0 99.5 L 166.5 101.5 L 167.0 105.5 L 167.5 111.5 L 168.5 121.5 L 170.0 135.5 L 171.0 151.0 L 172.0 166.5 L 172.0 179.5 L 172.0 189.0 L 171.5 195.5 L 170.0 199.5 L 167.0 200.0 L 162.5 197.5 L 159.0 193.5 " stroke="black" fill="none" stroke-width="7.0" stroke-linecap="round" stroke-linejoin="round" />
<path d="M 142.5 142.5 L 140.0 142.5 L 138.0 143.0 L 139.0 143.0 L 142.5 143.0 L 151.0 140.0 L 158.5 136.5 L 162.0 135.5 " stroke="black" fill="none" stroke-width="7.0" stroke-linecap="round" stroke-linejoin="round" />
<path d="M 144.5 161.5 L 141.0 164.0 L 142.0 164.5 L 145.5 164.5 L 154.0 161.5 L 164.0 158.0 " stroke="black" fill="none" stroke-width="7.0" stroke-linecap="round" stroke-linejoin="round" />
</svg>