<svg xmlns="http://www.w3.org/2000/svg" width="300" height="300" viewBox="0 0 300 300">
<path d="M 120.0 114.0 L 119.0 112.5 L 118.5 111.0 L 118.5 110.0 L 118.5 110.0 L 119.5 114.5 L 121.5 124.5 L 123.0 143.0 L 122.5 161.0 L 117.5 185.0 L 112.5 195.5 L 109.5 201.0 L 108.0 202.5 " stroke="black" fill="none" stroke-width="7.0" stroke-linecap="round" stroke-linejoin="round" />
<path d="M 126.5 114.0 L 126.5 114.0 L 126.5 113.0 L 127.0 112.0 L 128.0 110.5 L 130.0 108.5 L 132.5 106.5 L 134.5 105.0 L 136.0 105.0 L 136.5 106.0 L 137.0 110.0 L 138.0 116.5 L 139.0 126.0 L 142.0 141.5 L 144.5 160.5 L 146.0 178.0 L 146.0 193.0 L 145.0 204.0 L 143.5 210.5 L 141.5 212.5 L 139.0 212.0 L 136.5 207.5 L 134.0 201.0 L 133.0 198.5 " stroke="black" fill="none" stroke-width="7.0" stroke-linecap="round" stroke-linejoin="round" />
<path d="M 126.0 148.5 L 125.0 149.0 L 124.5 149.0 L 125.0 149.0 L 128.0 148.0 L 130.5 147.0 " stroke="black" fill="none" stroke-width="7.0" stroke-linecap="round" stroke-linejoin="round" />
<path d="M 127.0 162.5 L 125.0 165.5 L 124.5 166.0 L 126.5 165.5 L 130.0 163.0 L 136.0 158.5 L 137.5 157.0 " stroke="black" fill="none" stroke-width="7.0" stroke-linecap="round" stroke-linejoin="round" />
<path d="M 164.5 121.5 L 164.0 120.0 L 163.5 118.5 L 163.5 118.5 L 163.5 121.5 L 164.0 132.5 L 164.5 152.0 L 163.5 176.0 L 162.0 191.5 L 161.5 198.0 L 161.5 200.5 L 161.5 200.5 " stroke="black" fill="none" stroke-width="7.0" stroke-linecap="round" stroke-linejoin="round" />
<path d="M 149.0 123.5 L 148.5 123.5 L 148.0 123.5 L 149.0 122.5 L 152.5 120.5 L 158.5 117.5 L 166.5 113.5 L 173.0 109.5 L 177.0 107.0 L 180.5 106.0 L 182.5 106.5 L 182.5 109.5 L 181.0 115.5 L 178.5 123.0 L 175.5 130.5 " stroke="black" fill="none" stroke-width="7.0" stroke-linecap="round" stroke-linejoin="round" />
<path d="M 165.5 148.0 L 165.5 148.0 L 165.0 148.5 L 165.5 148.5 L 168.5 147.5 L 173.0 145.0 L 179.5 141.0 L 187.0 138.0 L 191.5 136.5 L 192.0 136.5 L 192.0 138.5 L 191.0 143.0 L 190.0 149.0 L 187.5 158.5 L 184.0 170.0 L 179.0 182.5 L 174.0 191.5 L 170.5 196.0 L 168.0 196.5 L 167.5 196.0 " stroke="black" fill="none" stroke-width="7.0" stroke-linecap="round" stroke-linejoin="round" />
<path d="M 169.0 148.0 L 169.5 149.0 L 171.0 152.0 L 175.5 160.5 L 183.5 172.0 L 192.0 184.0 L 197.5 194.5 L 203.0 203.5 L 208.0 208.5 L 210.5 210.0 " stroke="black" fill="none" stroke-width="7.0" stroke-linecap="round" stroke-linejoin="round" />
</svg>