<svg xmlns="http://www.w3.org/2000/svg" width="300" height="300" viewBox="0 0 300 300">
<path d="M 114.5 114.0 L 114.0 114.5 L 112.5 115.0 L 112.0 115.0 L 113.0 115.0 L 119.0 113.0 L 126.0 110.0 L 133.0 106.5 L 139.0 104.0 L 142.0 103.0 " stroke="black" fill="none" stroke-width="7.0" stroke-linecap="round" stroke-linejoin="round" />
<path d="M 131.0 92.5 L 130.0 94.0 L 130.0 97.0 L 130.0 103.0 L 129.5 111.0 L 128.5 120.5 L 128.0 124.0 " stroke="black" fill="none" stroke-width="7.0" stroke-linecap="round" stroke-linejoin="round" />
<path d="M 104.5 139.0 L 104.5 139.0 L 104.0 139.5 L 104.5 141.0 L 105.5 143.0 L 109.0 148.0 L 112.0 152.0 L 114.5 155.0 L 115.5 156.5 L 115.5 156.5 " stroke="black" fill="none" stroke-width="7.0" stroke-linecap="round" stroke-linejoin="round" />
<path d="M 110.5 137.5 L 110.5 137.5 L 111.0 135.5 L 113.0 134.0 L 117.0 132.5 L 122.5 130.5 L 129.5 127.0 L 137.0 123.0 L 141.5 122.0 L 144.0 122.0 L 145.5 124.0 L 145.5 127.5 L 145.5 131.5 L 143.5 140.0 L 141.5 146.5 L 140.5 150.5 L 140.0 151.5 " stroke="black" fill="none" stroke-width="7.0" stroke-linecap="round" stroke-linejoin="round" />
<path d="M 121.5 143.5 L 118.5 144.0 L 117.5 144.0 L 117.5 144.0 L 120.5 144.0 L 125.0 143.0 L 129.5 141.5 L 134.0 140.0 L 137.0 139.0 L 138.0 139.0 " stroke="black" fill="none" stroke-width="7.0" stroke-linecap="round" stroke-linejoin="round" />
<path d="M 121.0 155.0 L 119.5 156.5 L 118.5 157.5 L 120.0 157.5 L 124.0 157.5 L 128.5 155.5 L 133.5 153.5 L 137.5 152.0 " stroke="black" fill="none" stroke-width="7.0" stroke-linecap="round" stroke-linejoin="round" />
<path d="M 103.5 183.5 L 103.5 183.5 L 102.0 184.0 L 101.0 184.5 L 101.0 184.5 L 103.5 183.5 L 109.5 181.0 L 120.0 177.0 L 132.0 172.5 L 141.5 170.0 L 147.0 169.5 L 149.0 169.0 " stroke="black" fill="none" stroke-width="7.0" stroke-linecap="round" stroke-linejoin="round" />
<path d="M 128.5 158.5 L 128.5 160.0 L 128.0 163.0 L 128.5 170.5 L 129.0 184.0 L 129.0 195.5 L 129.0 200.0 " stroke="black" fill="none" stroke-width="7.0" stroke-linecap="round" stroke-linejoin="round" />
<path d="M 160.0 115.0 L 160.0 114.5 L 160.0 113.5 L 160.0 113.0 L 160.5 113.5 L 161.5 117.5 L 163.0 127.5 L 163.5 145.5 L 160.5 165.0 L 156.0 182.5 L 152.5 193.0 L 150.5 198.0 " stroke="black" fill="none" stroke-width="7.0" stroke-linecap="round" stroke-linejoin="round" />
<path d="M 166.0 114.0 L 166.0 113.0 L 165.5 112.0 L 166.5 111.0 L 169.0 109.5 L 172.5 107.5 L 176.0 106.0 L 179.5 104.5 L 182.5 103.5 L 184.0 103.5 L 185.0 104.5 L 186.0 108.0 L 187.0 113.5 L 188.0 122.0 L 189.5 135.0 L 190.5 150.0 L 190.5 166.0 L 190.5 180.5 L 190.0 189.5 L 189.5 196.0 L 188.5 199.5 L 187.5 200.5 L 185.0 199.5 L 183.0 196.5 L 180.5 191.5 " stroke="black" fill="none" stroke-width="7.0" stroke-linecap="round" stroke-linejoin="round" />
<path d="M 168.5 143.0 L 167.5 143.0 L 167.5 143.0 L 168.5 143.0 L 171.5 141.5 L 176.5 139.0 L 181.0 137.0 L 182.5 136.5 " stroke="black" fill="none" stroke-width="7.0" stroke-linecap="round" stroke-linejoin="round" />
<path d="M 169.0 156.5 L 168.5 157.5 L 167.5 159.5 L 167.5 159.5 L 169.5 159.5 L 173.5 157.0 L 179.0 154.0 L 184.5 152.5 " stroke="black" fill="none" stroke-width="7.0" stroke-linecap="round" stroke-linejoin="round" />
</svg>