<svg xmlns="http://www.w3.org/2000/svg" width="300" height="300" viewBox="0 0 300 300">
<path d="M 128.5 107.5 L 128.5 107.5 L 128.0 108.0 L 128.0 109.5 L 130.5 115.0 L 135.5 124.5 L 138.0 129.0 L 139.0 130.0 L 139.0 130.0 " stroke="black" fill="none" stroke-width="7.0" stroke-linecap="round" stroke-linejoin="round" />
<path d="M 131.5 107.5 L 131.5 106.0 L 131.0 104.5 L 132.5 101.5 L 137.0 99.0 L 145.0 96.0 L 153.5 93.5 L 159.0 92.0 L 167.0 92.0 L 170.0 93.0 L 170.5 96.0 L 169.5 104.0 L 167.5 111.5 L 164.5 120.0 L 162.0 125.0 L 159.5 129.0 L 159.5 129.5 " stroke="black" fill="none" stroke-width="7.0" stroke-linecap="round" stroke-linejoin="round" />
<path d="M 143.0 117.0 L 142.0 117.0 L 139.5 117.5 L 139.5 117.5 L 142.0 117.5 L 146.5 116.5 L 151.5 114.5 L 156.5 112.0 L 160.5 111.0 L 161.0 112.0 L 160.5 112.5 " stroke="black" fill="none" stroke-width="7.0" stroke-linecap="round" stroke-linejoin="round" />
<path d="M 140.5 131.5 L 138.5 133.5 L 137.5 135.0 L 138.5 135.5 L 144.0 135.5 L 150.0 133.5 L 154.5 131.0 L 160.0 129.5 L 160.5 130.0 " stroke="black" fill="none" stroke-width="7.0" stroke-linecap="round" stroke-linejoin="round" />
<path d="M 112.5 159.5 L 109.0 161.0 L 107.5 161.5 L 107.5 162.0 L 109.5 162.0 L 115.5 160.5 L 125.5 157.5 L 139.0 153.5 L 155.0 149.0 L 169.0 146.5 L 175.0 146.0 L 180.0 146.0 L 181.5 146.0 L 181.5 146.0 " stroke="black" fill="none" stroke-width="7.0" stroke-linecap="round" stroke-linejoin="round" />
<path d="M 150.5 97.0 L 150.5 97.0 L 150.0 97.0 L 149.5 97.5 L 149.5 103.5 L 150.5 120.0 L 151.0 143.5 L 151.0 165.5 L 151.0 181.5 L 150.5 191.5 L 150.0 196.0 L 150.0 197.0 " stroke="black" fill="none" stroke-width="7.0" stroke-linecap="round" stroke-linejoin="round" />
<path d="M 151.5 153.5 L 151.5 153.0 L 151.0 153.0 L 150.0 153.5 L 149.0 155.5 L 146.0 160.0 L 139.5 167.0 L 130.5 176.0 L 124.0 182.5 L 119.5 185.0 L 118.5 185.5 " stroke="black" fill="none" stroke-width="7.0" stroke-linecap="round" stroke-linejoin="round" />
<path d="M 148.0 157.0 L 149.5 159.0 L 152.5 162.0 L 159.0 167.0 L 168.5 174.5 L 175.0 180.5 L 181.0 184.0 L 187.0 185.5 L 190.0 186.0 " stroke="black" fill="none" stroke-width="7.0" stroke-linecap="round" stroke-linejoin="round" />
</svg>