<svg xmlns="http://www.w3.org/2000/svg" width="300" height="300" viewBox="0 0 300 300">
<path d="M 117.0 136.0 L 115.0 137.0 L 112.5 138.0 L 112.0 138.0 L 113.5 138.0 L 118.5 136.0 L 125.5 132.0 L 132.5 127.0 L 138.0 122.5 L 143.0 118.5 " stroke="black" fill="none" stroke-width="7.0" stroke-linecap="round" stroke-linejoin="round" />
<path d="M 130.0 88.0 L 129.5 88.5 L 129.5 91.0 L 129.5 100.0 L 130.0 119.5 L 130.5 143.5 L 130.5 162.5 L 129.5 176.5 L 129.0 186.0 L 129.0 189.5 L 129.0 190.5 L 129.0 189.5 L 129.0 185.0 L 128.5 183.5 " stroke="black" fill="none" stroke-width="7.0" stroke-linecap="round" stroke-linejoin="round" />
<path d="M 126.5 135.0 L 127.0 133.5 L 127.0 133.5 L 126.5 135.0 L 125.0 140.0 L 122.0 147.0 L 116.5 157.5 L 110.0 167.0 L 106.0 172.5 L 103.5 174.5 L 103.5 174.0 " stroke="black" fill="none" stroke-width="7.0" stroke-linecap="round" stroke-linejoin="round" />
<path d="M 126.5 140.5 L 127.5 142.0 L 130.5 145.5 L 134.5 152.0 L 140.5 161.5 L 145.5 166.5 L 151.5 172.5 L 153.5 174.5 " stroke="black" fill="none" stroke-width="7.0" stroke-linecap="round" stroke-linejoin="round" />
<path d="M 165.0 124.5 L 164.5 125.0 L 162.0 125.5 L 160.5 125.5 L 160.5 125.5 L 164.5 125.0 L 170.0 122.0 L 176.5 118.5 L 181.5 115.5 " stroke="black" fill="none" stroke-width="7.0" stroke-linecap="round" stroke-linejoin="round" />
<path d="M 174.5 95.0 L 174.0 95.5 L 173.5 98.0 L 173.0 104.0 L 173.0 116.0 L 173.0 127.5 L 172.5 138.5 L 172.5 142.5 " stroke="black" fill="none" stroke-width="7.0" stroke-linecap="round" stroke-linejoin="round" />
<path d="M 162.5 152.0 L 162.0 152.0 L 161.0 152.5 L 160.0 152.5 L 160.0 152.5 L 163.0 152.5 L 168.5 151.0 L 174.0 149.0 L 179.5 147.0 L 183.5 144.5 L 185.5 143.5 L 185.5 143.5 L 184.0 145.0 L 181.5 149.0 L 178.5 155.5 L 175.0 164.0 L 170.5 174.5 L 164.0 186.0 L 156.0 194.0 L 150.0 200.0 L 147.5 202.0 L 147.0 202.0 " stroke="black" fill="none" stroke-width="7.0" stroke-linecap="round" stroke-linejoin="round" />
<path d="M 156.5 153.0 L 156.5 153.0 L 156.5 153.5 L 159.5 157.5 L 167.5 167.5 L 176.0 179.0 L 184.0 189.0 L 191.5 196.0 L 196.0 201.0 L 200.0 203.0 L 201.5 203.0 " stroke="black" fill="none" stroke-width="7.0" stroke-linecap="round" stroke-linejoin="round" />
</svg>