<svg xmlns="http://www.w3.org/2000/svg" width="300" height="300" viewBox="0 0 300 300">
<path d="M 135.5 111.0 L 133.5 112.0 L 132.0 112.5 L 132.5 112.5 L 137.0 112.0 L 145.0 109.5 L 152.5 106.0 L 160.0 102.5 L 163.5 101.0 " stroke="black" fill="none" stroke-width="7.0" stroke-linecap="round" stroke-linejoin="round" />
<path d="M 124.0 132.0 L 123.0 133.0 L 123.0 135.0 L 124.0 139.0 L 126.5 143.5 L 129.0 148.0 L 131.0 151.5 L 132.0 153.0 L 132.5 153.0 " stroke="black" fill="none" stroke-width="7.0" stroke-linecap="round" stroke-linejoin="round" />
<path d="M 128.0 136.0 L 128.0 135.0 L 128.5 133.0 L 131.5 130.5 L 138.0 127.5 L 148.0 124.0 L 157.0 119.5 L 165.0 117.0 L 170.0 116.5 L 172.0 118.5 L 172.5 123.5 L 171.5 129.5 L 169.5 137.0 L 167.0 143.5 L 164.5 147.5 L 160.0 149.5 " stroke="black" fill="none" stroke-width="7.0" stroke-linecap="round" stroke-linejoin="round" />
<path d="M 138.5 143.5 L 136.0 143.5 L 135.0 143.5 L 135.0 144.0 L 139.0 144.0 L 145.0 142.5 L 152.0 139.5 L 158.5 136.5 L 161.0 135.5 " stroke="black" fill="none" stroke-width="7.0" stroke-linecap="round" stroke-linejoin="round" />
<path d="M 136.5 160.0 L 133.0 161.0 L 132.0 161.5 L 133.5 161.5 L 139.0 159.0 L 146.5 155.5 L 154.5 151.0 L 163.0 148.0 L 164.5 147.5 " stroke="black" fill="none" stroke-width="7.0" stroke-linecap="round" stroke-linejoin="round" />
<path d="M 149.5 78.0 L 149.0 79.0 L 148.5 82.5 L 148.5 95.5 L 149.0 116.5 L 149.5 139.5 L 149.0 162.0 L 148.5 179.0 L 148.0 189.0 L 148.0 193.5 L 147.5 194.5 " stroke="black" fill="none" stroke-width="7.0" stroke-linecap="round" stroke-linejoin="round" />
<path d="M 147.5 156.5 L 147.5 156.0 L 147.0 154.5 L 146.5 155.5 L 145.0 159.5 L 142.0 165.0 L 137.5 171.5 L 131.0 179.5 L 125.5 184.5 L 121.0 186.0 L 118.5 186.0 L 118.5 185.5 " stroke="black" fill="none" stroke-width="7.0" stroke-linecap="round" stroke-linejoin="round" />
<path d="M 146.5 160.0 L 150.0 161.5 L 155.5 164.5 L 163.0 168.5 L 170.0 173.0 L 175.5 178.0 L 180.5 182.5 L 185.5 185.0 " stroke="black" fill="none" stroke-width="7.0" stroke-linecap="round" stroke-linejoin="round" />
</svg>