<svg xmlns="http://www.w3.org/2000/svg" width="300" height="300" viewBox="0 0 300 300">
<path d="M 150.5 84.0 L 150.5 83.5 L 150.0 82.0 L 150.0 81.5 L 150.0 83.5 L 150.5 91.0 L 151.0 102.5 L 151.0 115.5 L 150.5 122.5 L 149.5 124.0 " stroke="black" fill="none" stroke-width="7.0" stroke-linecap="round" stroke-linejoin="round" />
<path d="M 133.5 107.0 L 133.0 107.5 L 131.5 107.5 L 131.5 107.5 L 134.0 108.0 L 140.0 107.5 L 142.0 107.0 " stroke="black" fill="none" stroke-width="7.0" stroke-linecap="round" stroke-linejoin="round" />
<path d="M 169.0 97.0 L 168.5 98.0 L 167.5 99.0 L 165.5 101.0 L 161.5 104.5 L 160.0 105.5 " stroke="black" fill="none" stroke-width="7.0" stroke-linecap="round" stroke-linejoin="round" />
<path d="M 112.0 132.0 L 112.0 132.5 L 112.0 133.5 L 113.0 137.0 L 115.5 142.5 L 119.0 146.5 L 121.0 148.0 " stroke="black" fill="none" stroke-width="7.0" stroke-linecap="round" stroke-linejoin="round" />
<path d="M 120.0 138.0 L 120.0 138.0 L 120.0 137.0 L 121.0 136.0 L 125.0 134.0 L 132.5 131.0 L 145.0 127.5 L 156.5 123.5 L 168.5 120.0 L 175.5 117.5 L 180.5 117.5 L 182.5 119.5 L 181.5 123.0 L 178.0 127.5 L 174.0 132.5 " stroke="black" fill="none" stroke-width="7.0" stroke-linecap="round" stroke-linejoin="round" />
<path d="M 130.5 147.5 L 130.5 147.5 L 130.0 147.0 L 130.0 147.5 L 132.5 150.5 L 135.5 154.0 L 139.5 156.5 L 141.5 156.5 " stroke="black" fill="none" stroke-width="7.0" stroke-linecap="round" stroke-linejoin="round" />
<path d="M 136.5 146.5 L 136.0 145.0 L 136.0 143.5 L 139.0 142.5 L 144.0 141.0 L 150.0 139.5 L 155.5 138.0 L 160.0 137.0 L 161.0 138.0 L 159.5 141.5 L 155.0 146.0 L 150.5 151.0 L 145.5 156.5 L 141.5 159.0 L 141.0 159.0 L 142.0 158.0 L 146.0 155.5 L 150.0 153.0 L 154.5 151.5 " stroke="black" fill="none" stroke-width="7.0" stroke-linecap="round" stroke-linejoin="round" />
<path d="M 124.5 181.5 L 123.0 183.0 L 120.5 184.5 L 120.0 185.5 L 121.5 186.0 L 126.5 183.5 L 134.0 179.0 L 145.5 172.5 L 156.5 167.0 L 164.0 164.5 L 168.0 164.0 L 168.0 164.0 " stroke="black" fill="none" stroke-width="7.0" stroke-linecap="round" stroke-linejoin="round" />
<path d="M 149.5 156.5 L 149.5 157.0 L 149.0 160.5 L 149.5 167.5 L 151.0 179.5 L 151.5 193.5 L 151.5 205.0 L 150.0 210.0 L 149.0 211.0 L 147.5 209.0 L 145.0 203.0 " stroke="black" fill="none" stroke-width="7.0" stroke-linecap="round" stroke-linejoin="round" />
<path d="M 143.0 177.5 L 143.0 177.0 L 144.0 174.0 L 144.0 173.5 L 143.5 176.5 L 141.5 181.5 L 138.0 187.5 L 133.5 194.5 L 128.5 202.5 L 125.0 207.0 " stroke="black" fill="none" stroke-width="7.0" stroke-linecap="round" stroke-linejoin="round" />
<path d="M 148.0 173.0 L 149.0 173.5 L 153.5 175.5 L 160.0 180.5 L 167.5 188.0 L 172.5 195.0 L 176.5 201.0 L 179.5 204.5 " stroke="black" fill="none" stroke-width="7.0" stroke-linecap="round" stroke-linejoin="round" />
</svg>