<svg xmlns="http://www.w3.org/2000/svg" width="300" height="300" viewBox="0 0 300 300">
<path d="M 119.0 113.5 L 117.5 113.5 L 117.0 113.5 L 118.5 114.0 L 121.5 114.5 L 125.0 114.5 " stroke="black" fill="none" stroke-width="7.0" stroke-linecap="round" stroke-linejoin="round" />
<path d="M 142.5 101.0 L 142.5 100.5 L 142.5 100.5 L 142.5 101.0 L 141.5 104.0 L 138.5 109.0 L 134.5 114.0 " stroke="black" fill="none" stroke-width="7.0" stroke-linecap="round" stroke-linejoin="round" />
<path d="M 130.5 80.5 L 130.5 80.5 L 130.0 81.5 L 130.0 84.5 L 130.5 93.0 L 130.5 104.5 L 129.5 117.0 L 126.5 127.5 L 122.5 136.0 L 118.0 141.5 L 116.0 142.0 " stroke="black" fill="none" stroke-width="7.0" stroke-linecap="round" stroke-linejoin="round" />
<path d="M 126.0 124.0 L 127.5 124.5 L 130.0 126.0 L 133.5 129.5 L 138.5 134.5 L 143.5 139.0 L 148.5 142.0 L 149.5 142.5 " stroke="black" fill="none" stroke-width="7.0" stroke-linecap="round" stroke-linejoin="round" />
<path d="M 157.0 113.5 L 156.5 113.5 L 156.0 113.5 L 156.0 114.0 L 158.5 114.0 L 161.0 113.5 " stroke="black" fill="none" stroke-width="7.0" stroke-linecap="round" stroke-linejoin="round" />
<path d="M 182.5 102.5 L 182.5 102.5 L 182.0 102.0 L 181.0 102.5 L 179.0 106.0 L 176.0 111.0 L 175.0 112.5 " stroke="black" fill="none" stroke-width="7.0" stroke-linecap="round" stroke-linejoin="round" />
<path d="M 171.0 82.0 L 171.0 81.5 L 171.0 81.0 L 171.0 81.0 L 171.0 84.0 L 171.0 92.5 L 170.0 103.5 L 166.5 117.5 L 161.5 128.0 L 156.0 136.0 L 152.0 141.5 L 150.0 142.5 " stroke="black" fill="none" stroke-width="7.0" stroke-linecap="round" stroke-linejoin="round" />
<path d="M 165.0 123.0 L 166.0 123.0 L 168.0 124.0 L 170.5 126.0 L 174.0 129.5 L 179.5 133.0 L 185.5 135.5 " stroke="black" fill="none" stroke-width="7.0" stroke-linecap="round" stroke-linejoin="round" />
<path d="M 116.0 155.5 L 116.0 155.0 L 115.5 154.0 L 115.5 153.5 L 116.0 154.0 L 117.5 156.5 L 119.0 160.0 L 120.5 162.0 L 121.5 163.0 " stroke="black" fill="none" stroke-width="7.0" stroke-linecap="round" stroke-linejoin="round" />
<path d="M 123.0 156.0 L 123.0 155.5 L 123.0 155.0 L 125.0 154.5 L 129.0 153.5 L 138.5 151.0 L 151.0 148.5 L 160.0 146.5 L 169.0 144.5 L 175.0 143.5 L 179.5 143.0 L 182.0 143.0 L 182.5 144.5 L 181.5 147.0 L 178.5 150.5 L 176.5 153.0 " stroke="black" fill="none" stroke-width="7.0" stroke-linecap="round" stroke-linejoin="round" />
<path d="M 132.0 177.0 L 130.5 178.0 L 129.0 178.5 L 129.0 178.5 L 131.5 177.5 L 137.0 176.0 L 145.0 173.5 L 153.5 170.5 L 163.0 167.0 L 169.0 164.5 L 170.5 164.0 " stroke="black" fill="none" stroke-width="7.0" stroke-linecap="round" stroke-linejoin="round" />
<path d="M 152.5 153.0 L 152.5 156.5 L 152.0 162.5 L 153.0 171.0 L 154.0 182.0 L 154.0 193.0 L 153.5 202.0 L 152.0 206.0 L 150.5 207.0 L 149.5 204.0 L 149.5 202.5 " stroke="black" fill="none" stroke-width="7.0" stroke-linecap="round" stroke-linejoin="round" />
<path d="M 147.0 175.0 L 147.0 175.0 L 147.0 173.5 L 147.0 173.0 L 147.0 174.5 L 146.0 178.5 L 143.5 183.5 L 139.0 189.5 L 133.0 195.0 L 127.5 199.5 L 124.0 201.0 " stroke="black" fill="none" stroke-width="7.0" stroke-linecap="round" stroke-linejoin="round" />
<path d="M 152.5 176.5 L 154.5 177.5 L 160.0 180.0 L 167.0 184.0 L 172.5 188.5 L 178.0 191.5 L 184.0 194.5 L 189.0 196.5 " stroke="black" fill="none" stroke-width="7.0" stroke-linecap="round" stroke-linejoin="round" />
</svg>