<svg xmlns="http://www.w3.org/2000/svg" width="300" height="300" viewBox="0 0 300 300">
<path d="M 141.0 83.0 L 141.0 82.5 L 141.0 81.5 L 141.5 82.0 L 143.0 89.5 L 143.5 100.5 L 144.0 111.0 L 144.5 118.0 L 145.5 119.5 " stroke="black" fill="none" stroke-width="7.0" stroke-linecap="round" stroke-linejoin="round" />
<path d="M 159.5 78.5 L 159.5 78.5 L 159.5 78.0 L 159.5 82.0 L 159.5 92.0 L 159.0 103.5 L 158.5 111.5 L 158.0 115.0 " stroke="black" fill="none" stroke-width="7.0" stroke-linecap="round" stroke-linejoin="round" />
<path d="M 128.0 105.5 L 127.5 105.5 L 126.5 105.5 L 127.0 106.5 L 130.0 107.5 L 137.0 108.0 L 139.5 108.0 " stroke="black" fill="none" stroke-width="7.0" stroke-linecap="round" stroke-linejoin="round" />
<path d="M 173.5 89.5 L 173.5 90.0 L 173.5 90.5 L 173.0 93.0 L 170.0 98.0 L 164.5 105.5 L 161.5 109.0 " stroke="black" fill="none" stroke-width="7.0" stroke-linecap="round" stroke-linejoin="round" />
<path d="M 117.5 128.0 L 115.0 128.5 L 114.5 129.0 L 116.0 129.0 L 121.5 129.0 L 129.0 127.5 L 141.0 124.5 L 155.0 120.0 L 168.0 116.5 L 174.5 115.0 L 176.0 115.0 " stroke="black" fill="none" stroke-width="7.0" stroke-linecap="round" stroke-linejoin="round" />
<path d="M 133.5 132.0 L 133.5 132.0 L 133.0 132.0 L 132.5 132.0 L 135.0 134.5 L 140.5 137.5 L 146.5 140.0 L 149.5 140.5 " stroke="black" fill="none" stroke-width="7.0" stroke-linecap="round" stroke-linejoin="round" />
<path d="M 160.0 126.0 L 160.0 125.5 L 160.0 125.0 L 159.5 125.5 L 157.5 129.0 L 154.0 135.0 L 149.0 142.0 L 148.0 143.5 " stroke="black" fill="none" stroke-width="7.0" stroke-linecap="round" stroke-linejoin="round" />
<path d="M 127.0 155.5 L 126.5 156.0 L 125.0 156.0 L 125.0 156.0 L 125.5 156.0 L 128.5 155.0 L 134.0 152.5 L 143.5 149.0 L 153.0 145.0 L 159.0 142.5 L 162.0 142.0 L 162.0 143.0 " stroke="black" fill="none" stroke-width="7.0" stroke-linecap="round" stroke-linejoin="round" />
<path d="M 131.0 166.0 L 129.0 167.0 L 128.0 167.5 L 128.0 167.5 L 130.0 167.5 L 134.5 166.5 L 141.5 164.0 L 149.5 160.0 L 156.0 157.0 L 159.5 156.0 L 160.0 156.0 " stroke="black" fill="none" stroke-width="7.0" stroke-linecap="round" stroke-linejoin="round" />
<path d="M 116.0 185.0 L 115.0 185.5 L 113.5 186.0 L 113.0 186.5 L 113.0 186.5 L 116.0 186.0 L 122.0 185.0 L 129.5 183.0 L 141.5 179.0 L 154.5 173.5 L 165.5 169.0 L 174.0 166.0 L 178.0 165.0 L 179.0 164.5 " stroke="black" fill="none" stroke-width="7.0" stroke-linecap="round" stroke-linejoin="round" />
<path d="M 148.0 145.5 L 148.0 146.5 L 147.5 148.5 L 148.5 158.0 L 150.5 174.0 L 151.0 190.5 L 150.0 203.0 L 149.0 211.0 L 148.0 214.5 L 147.5 213.5 L 147.5 209.0 " stroke="black" fill="none" stroke-width="7.0" stroke-linecap="round" stroke-linejoin="round" />
<path d="M 147.0 178.5 L 146.5 177.0 L 146.5 175.0 L 146.5 174.5 L 146.5 176.0 L 145.5 179.5 L 143.0 185.0 L 138.0 191.0 L 131.0 198.5 L 125.5 203.5 L 123.0 204.5 L 122.5 204.0 " stroke="black" fill="none" stroke-width="7.0" stroke-linecap="round" stroke-linejoin="round" />
<path d="M 148.5 180.5 L 149.5 181.5 L 153.5 183.5 L 160.0 187.0 L 167.5 191.5 L 173.0 195.5 L 177.5 199.5 L 180.5 202.0 " stroke="black" fill="none" stroke-width="7.0" stroke-linecap="round" stroke-linejoin="round" />
</svg>