<svg xmlns="http://www.w3.org/2000/svg" width="300" height="300" viewBox="0 0 300 300">
<path d="M 107.5 134.5 L 106.0 135.0 L 105.5 135.0 L 107.5 132.5 L 113.0 128.5 L 123.0 122.5 L 131.5 116.5 L 135.0 113.5 " stroke="black" fill="none" stroke-width="7.0" stroke-linecap="round" stroke-linejoin="round" />
<path d="M 122.0 85.5 L 122.0 85.5 L 121.0 88.0 L 121.0 94.0 L 122.5 107.0 L 124.5 127.0 L 125.0 152.0 L 125.0 167.5 L 123.5 186.5 L 121.5 193.0 L 121.0 193.5 L 120.5 189.0 L 119.5 185.5 " stroke="black" fill="none" stroke-width="7.0" stroke-linecap="round" stroke-linejoin="round" />
<path d="M 119.5 128.5 L 120.5 126.0 L 121.0 125.5 L 119.5 130.0 L 116.0 139.0 L 110.5 151.0 L 105.5 163.5 L 101.5 169.5 L 99.5 170.5 " stroke="black" fill="none" stroke-width="7.0" stroke-linecap="round" stroke-linejoin="round" />
<path d="M 118.5 130.5 L 122.5 130.0 L 127.5 135.0 L 133.0 145.5 L 138.5 157.0 L 144.0 166.0 L 148.0 170.0 " stroke="black" fill="none" stroke-width="7.0" stroke-linecap="round" stroke-linejoin="round" />
<path d="M 151.5 101.5 L 151.5 101.5 L 150.5 100.0 L 150.5 99.5 L 152.0 100.5 L 154.5 104.5 L 157.5 110.0 L 160.0 115.0 L 161.5 117.0 L 162.0 117.0 " stroke="black" fill="none" stroke-width="7.0" stroke-linecap="round" stroke-linejoin="round" />
<path d="M 155.0 97.5 L 155.0 96.5 L 155.5 95.5 L 158.0 94.0 L 164.0 91.5 L 171.0 88.5 L 176.0 87.5 L 179.0 87.5 L 180.5 90.5 L 180.5 95.0 L 178.5 100.5 L 175.0 106.0 L 171.0 111.0 L 166.5 115.5 L 162.5 117.5 L 161.5 117.5 L 163.0 116.5 L 167.0 115.0 L 171.5 113.0 L 175.5 111.0 L 176.5 110.5 " stroke="black" fill="none" stroke-width="7.0" stroke-linecap="round" stroke-linejoin="round" />
<path d="M 142.5 111.5 L 141.0 112.5 L 139.5 113.0 L 139.0 113.0 L 141.5 112.5 L 146.5 110.5 L 154.5 107.0 L 167.0 102.0 L 180.0 97.0 L 189.0 93.5 L 192.0 93.5 " stroke="black" fill="none" stroke-width="7.0" stroke-linecap="round" stroke-linejoin="round" />
<path d="M 143.5 133.5 L 143.5 134.0 L 143.0 135.0 L 144.5 137.0 L 148.0 140.0 L 151.0 142.5 L 154.5 143.5 L 155.0 143.5 " stroke="black" fill="none" stroke-width="7.0" stroke-linecap="round" stroke-linejoin="round" />
<path d="M 151.0 133.5 L 151.0 133.5 L 150.5 133.5 L 151.0 133.0 L 155.5 131.0 L 164.5 127.5 L 174.5 123.0 L 181.5 120.0 L 186.0 119.5 L 187.0 121.0 L 186.0 124.5 L 182.5 128.5 L 177.5 134.0 L 176.5 135.5 " stroke="black" fill="none" stroke-width="7.0" stroke-linecap="round" stroke-linejoin="round" />
<path d="M 158.0 145.5 L 156.0 146.0 L 154.0 146.5 L 154.0 146.5 L 157.5 145.5 L 164.5 143.0 L 172.0 140.0 L 180.0 136.5 " stroke="black" fill="none" stroke-width="7.0" stroke-linecap="round" stroke-linejoin="round" />
<path d="M 170.0 71.0 L 169.5 68.5 L 169.5 67.5 L 169.5 70.5 L 169.5 80.5 L 169.5 98.0 L 168.0 122.0 L 166.0 143.5 L 165.0 151.0 " stroke="black" fill="none" stroke-width="7.0" stroke-linecap="round" stroke-linejoin="round" />
<path d="M 166.0 148.5 L 166.0 148.0 L 165.5 147.5 L 165.5 147.0 L 165.0 147.0 L 164.5 149.0 L 163.0 155.0 L 160.5 164.0 L 157.5 174.5 L 155.0 182.5 L 153.5 186.0 L 153.0 188.0 L 153.0 189.5 L 154.0 190.5 L 157.0 191.5 L 161.5 192.0 L 168.0 192.5 L 174.0 194.0 L 179.5 196.0 L 184.0 198.0 L 186.0 199.5 " stroke="black" fill="none" stroke-width="7.0" stroke-linecap="round" stroke-linejoin="round" />
<path d="M 176.5 159.0 L 176.5 159.0 L 176.0 160.5 L 175.0 167.0 L 172.5 179.0 L 168.0 191.0 L 161.0 199.5 L 154.5 204.0 L 150.0 204.5 " stroke="black" fill="none" stroke-width="7.0" stroke-linecap="round" stroke-linejoin="round" />
<path d="M 139.5 176.0 L 137.0 176.5 L 137.0 176.0 L 142.0 175.0 L 150.0 172.5 L 164.0 166.5 L 180.5 158.0 L 192.5 152.0 L 196.0 150.5 " stroke="black" fill="none" stroke-width="7.0" stroke-linecap="round" stroke-linejoin="round" />
</svg>