<svg xmlns="http://www.w3.org/2000/svg" width="300" height="300" viewBox="0 0 300 300">
<path d="M 151.0 82.0 L 151.0 81.5 L 151.0 80.5 L 151.0 80.5 L 151.0 81.0 L 150.0 84.0 L 148.0 89.0 L 144.5 94.5 L 140.0 99.0 L 137.0 101.5 L 136.0 102.0 L 136.5 102.0 L 138.0 102.5 L 139.0 104.5 L 140.0 110.0 L 141.0 118.5 L 141.5 127.5 L 141.5 134.5 L 142.0 138.0 L 142.5 138.0 L 142.5 137.5 " stroke="black" fill="none" stroke-width="7.0" stroke-linecap="round" stroke-linejoin="round" />
<path d="M 143.0 105.0 L 143.0 104.0 L 144.0 102.5 L 146.0 101.0 L 149.0 99.5 L 153.0 98.0 L 157.5 96.5 L 161.0 96.5 L 164.0 104.0 L 164.0 113.0 L 163.0 122.5 L 162.0 129.5 L 162.0 133.5 L 162.0 135.0 L 161.5 135.5 L 161.5 135.0 " stroke="black" fill="none" stroke-width="7.0" stroke-linecap="round" stroke-linejoin="round" />
<path d="M 148.5 121.5 L 148.0 121.5 L 147.5 121.5 L 147.5 121.5 L 148.5 121.0 L 151.5 119.5 L 153.5 118.5 " stroke="black" fill="none" stroke-width="7.0" stroke-linecap="round" stroke-linejoin="round" />
<path d="M 147.5 136.5 L 147.0 137.0 L 146.0 138.5 L 147.0 138.5 L 151.0 137.0 L 155.5 134.0 L 158.0 132.5 " stroke="black" fill="none" stroke-width="7.0" stroke-linecap="round" stroke-linejoin="round" />
<path d="M 122.0 92.0 L 122.0 92.0 L 122.0 92.0 L 122.0 92.5 L 122.0 96.0 L 121.0 102.0 L 118.0 110.5 L 114.5 119.0 L 112.0 124.5 L 111.0 127.5 L 111.0 127.5 L 112.5 127.5 L 115.0 126.0 L 118.0 123.5 L 121.0 121.0 L 123.5 119.5 L 125.0 119.0 L 125.5 119.0 L 125.5 121.0 L 123.5 124.5 L 121.0 129.0 L 118.0 135.5 L 114.5 141.5 L 112.5 146.0 L 112.0 147.5 L 112.0 148.0 L 113.0 148.0 L 114.5 146.5 L 117.0 144.5 L 120.5 141.5 L 124.0 138.5 L 127.5 135.0 L 129.5 133.0 L 130.0 132.0 " stroke="black" fill="none" stroke-width="7.0" stroke-linecap="round" stroke-linejoin="round" />
<path d="M 130.0 129.0 L 130.5 129.0 L 130.5 130.0 L 131.0 131.5 L 132.5 136.0 L 134.5 142.0 L 135.0 143.5 " stroke="black" fill="none" stroke-width="7.0" stroke-linecap="round" stroke-linejoin="round" />
<path d="M 179.0 87.5 L 179.0 87.0 L 180.0 86.5 L 180.5 86.0 L 180.5 88.5 L 178.5 93.5 L 176.0 100.5 L 173.0 108.0 L 171.0 114.0 L 170.0 117.5 L 170.0 118.0 L 171.0 118.0 L 173.0 118.0 L 175.5 116.0 L 178.0 114.0 L 180.5 112.0 L 182.5 110.5 L 184.0 109.5 L 183.5 110.5 L 181.5 114.0 L 178.5 119.0 L 175.0 124.5 L 172.0 130.0 L 170.5 134.5 L 169.5 137.5 L 169.5 138.0 L 170.0 137.5 L 171.5 136.5 L 173.5 134.0 L 176.5 131.5 L 180.0 128.5 L 183.5 125.5 L 185.5 124.5 " stroke="black" fill="none" stroke-width="7.0" stroke-linecap="round" stroke-linejoin="round" />
<path d="M 189.5 120.5 L 189.5 122.0 L 190.5 124.0 L 192.0 127.5 L 193.0 131.5 " stroke="black" fill="none" stroke-width="7.0" stroke-linecap="round" stroke-linejoin="round" />
<path d="M 123.0 166.0 L 122.5 166.0 L 120.5 166.0 L 118.5 166.5 L 117.0 166.5 L 116.5 167.0 L 118.0 167.0 L 123.5 166.5 L 132.0 164.0 L 145.0 160.0 L 158.5 154.5 L 169.5 151.0 L 175.0 149.5 L 176.5 149.0 " stroke="black" fill="none" stroke-width="7.0" stroke-linecap="round" stroke-linejoin="round" />
<path d="M 152.0 138.0 L 151.5 137.5 L 151.0 137.0 L 151.0 138.5 L 151.0 145.0 L 153.0 160.0 L 153.5 180.5 L 153.0 194.5 L 152.0 202.5 L 151.0 204.5 L 151.0 203.0 L 150.5 198.0 " stroke="black" fill="none" stroke-width="7.0" stroke-linecap="round" stroke-linejoin="round" />
<path d="M 153.0 157.5 L 153.0 157.5 L 152.5 157.5 L 151.5 158.0 L 149.0 161.5 L 144.0 168.5 L 135.5 177.5 L 127.0 185.5 L 123.5 188.5 " stroke="black" fill="none" stroke-width="7.0" stroke-linecap="round" stroke-linejoin="round" />
<path d="M 148.0 165.0 L 150.0 165.5 L 152.5 166.5 L 158.0 169.0 L 166.5 172.5 L 174.0 177.0 L 180.5 181.5 L 186.5 185.5 L 187.5 186.0 " stroke="black" fill="none" stroke-width="7.0" stroke-linecap="round" stroke-linejoin="round" />
</svg>