<svg xmlns="http://www.w3.org/2000/svg" width="300" height="300" viewBox="0 0 300 300">
<path d="M 132.5 88.5 L 132.5 88.5 L 132.5 88.0 L 132.5 87.5 L 132.5 88.5 L 130.5 92.5 L 127.0 98.5 L 125.5 100.5 " stroke="black" fill="none" stroke-width="7.0" stroke-linecap="round" stroke-linejoin="round" />
<path d="M 115.0 109.0 L 115.5 108.5 L 116.0 108.0 L 116.0 108.0 L 116.5 109.0 L 117.0 113.0 L 118.0 119.5 L 119.0 130.5 L 119.5 143.5 L 119.5 151.0 L 119.5 155.5 L 119.5 156.5 L 119.5 156.5 " stroke="black" fill="none" stroke-width="7.0" stroke-linecap="round" stroke-linejoin="round" />
<path d="M 123.5 104.5 L 123.0 104.0 L 122.0 104.0 L 122.0 104.0 L 122.5 104.0 L 125.5 103.5 L 129.5 102.0 L 134.5 100.5 L 139.0 99.0 L 141.5 99.0 L 142.0 99.0 L 142.0 101.5 L 140.5 104.0 L 138.0 108.0 L 135.0 113.0 L 134.5 114.0 " stroke="black" fill="none" stroke-width="7.0" stroke-linecap="round" stroke-linejoin="round" />
<path d="M 125.0 122.0 L 124.0 122.5 L 122.5 123.5 L 121.5 124.0 L 121.0 124.5 L 123.0 124.5 L 126.0 123.0 L 130.0 120.5 L 134.5 118.0 L 138.0 116.5 L 139.5 116.0 " stroke="black" fill="none" stroke-width="7.0" stroke-linecap="round" stroke-linejoin="round" />
<path d="M 123.5 142.5 L 123.5 142.5 L 123.0 142.5 L 123.0 142.5 L 125.0 141.0 L 129.0 138.5 L 134.0 135.0 L 139.5 132.0 L 142.5 131.5 L 143.0 133.0 L 141.0 137.0 L 138.0 141.0 L 134.5 145.0 L 134.0 146.0 " stroke="black" fill="none" stroke-width="7.0" stroke-linecap="round" stroke-linejoin="round" />
<path d="M 127.0 153.5 L 125.5 155.0 L 124.0 156.5 L 123.5 157.0 L 124.5 156.5 L 127.5 154.5 L 132.0 151.5 L 137.0 148.5 L 141.0 147.0 L 142.5 147.5 " stroke="black" fill="none" stroke-width="7.0" stroke-linecap="round" stroke-linejoin="round" />
<path d="M 132.0 157.5 L 132.0 160.0 L 132.0 164.5 L 132.0 170.5 L 132.0 179.0 L 132.5 186.5 L 133.0 189.5 " stroke="black" fill="none" stroke-width="7.0" stroke-linecap="round" stroke-linejoin="round" />
<path d="M 134.0 177.0 L 135.0 175.0 L 137.5 172.5 L 141.0 170.5 L 144.5 169.0 L 146.0 169.0 " stroke="black" fill="none" stroke-width="7.0" stroke-linecap="round" stroke-linejoin="round" />
<path d="M 111.0 176.5 L 111.0 177.0 L 110.5 179.0 L 111.5 183.0 L 113.5 188.5 L 114.5 193.5 L 115.0 197.5 L 115.0 198.5 " stroke="black" fill="none" stroke-width="7.0" stroke-linecap="round" stroke-linejoin="round" />
<path d="M 110.5 199.5 L 109.5 200.0 L 109.0 200.5 L 109.5 200.5 L 114.0 198.5 L 121.0 195.0 L 131.0 190.0 L 142.5 185.5 L 150.5 183.0 L 153.5 181.5 " stroke="black" fill="none" stroke-width="7.0" stroke-linecap="round" stroke-linejoin="round" />
<path d="M 163.0 99.0 L 162.5 99.5 L 161.5 100.5 L 161.0 100.5 L 163.0 100.5 L 167.5 99.0 L 172.0 96.5 L 177.0 94.0 L 181.0 92.0 L 183.0 91.0 L 184.0 92.0 L 184.0 95.0 L 182.5 100.5 L 180.5 108.0 L 179.5 115.0 L 179.5 121.0 L 179.5 123.0 L 179.5 123.0 " stroke="black" fill="none" stroke-width="7.0" stroke-linecap="round" stroke-linejoin="round" />
<path d="M 151.0 118.0 L 151.0 118.0 L 149.5 118.0 L 148.5 118.5 L 148.0 118.5 L 148.0 118.5 L 150.0 118.5 L 160.0 116.0 L 172.0 112.0 L 184.5 108.0 L 192.0 105.5 L 194.0 105.0 L 194.0 104.5 " stroke="black" fill="none" stroke-width="7.0" stroke-linecap="round" stroke-linejoin="round" />
<path d="M 157.0 130.5 L 155.5 131.5 L 155.0 132.0 L 157.5 132.0 L 164.0 129.5 L 169.5 127.0 L 176.0 124.0 L 180.0 123.0 L 180.0 123.0 " stroke="black" fill="none" stroke-width="7.0" stroke-linecap="round" stroke-linejoin="round" />
<path d="M 151.0 148.5 L 151.0 148.5 L 151.0 149.0 L 151.0 150.0 L 151.5 151.5 L 152.5 153.0 L 153.5 154.5 L 153.5 154.5 " stroke="black" fill="none" stroke-width="7.0" stroke-linecap="round" stroke-linejoin="round" />
<path d="M 154.5 148.0 L 155.0 148.0 L 156.0 147.0 L 159.0 146.0 L 165.0 144.0 L 173.0 140.5 L 178.5 137.5 L 187.5 134.5 L 191.0 134.0 L 191.5 135.5 L 190.5 138.0 L 187.0 143.0 L 185.0 145.0 " stroke="black" fill="none" stroke-width="7.0" stroke-linecap="round" stroke-linejoin="round" />
<path d="M 158.0 166.0 L 158.0 166.5 L 158.0 167.5 L 158.5 169.0 L 160.5 172.0 L 162.0 174.5 L 163.0 176.0 L 163.5 176.0 " stroke="black" fill="none" stroke-width="7.0" stroke-linecap="round" stroke-linejoin="round" />
<path d="M 163.0 168.5 L 164.0 167.5 L 166.0 166.5 L 170.0 164.0 L 175.0 161.0 L 181.5 157.5 L 188.5 156.0 L 192.0 156.5 L 192.5 159.5 L 192.0 164.0 L 190.5 167.5 L 186.0 173.5 L 182.0 177.0 L 179.5 178.0 " stroke="black" fill="none" stroke-width="7.0" stroke-linecap="round" stroke-linejoin="round" />
<path d="M 171.0 149.0 L 171.0 149.0 L 171.0 149.0 L 171.0 154.0 L 172.0 164.5 L 173.0 179.0 L 173.0 191.5 L 173.0 199.5 L 173.0 201.0 " stroke="black" fill="none" stroke-width="7.0" stroke-linecap="round" stroke-linejoin="round" />
</svg>