<svg xmlns="http://www.w3.org/2000/svg" width="300" height="300" viewBox="0 0 300 300">
<path d="M 127.5 148.5 L 127.0 149.0 L 125.5 149.5 L 125.0 150.0 L 126.0 148.5 L 130.5 145.5 L 136.5 142.0 L 142.0 139.0 " stroke="black" fill="none" stroke-width="7.0" stroke-linecap="round" stroke-linejoin="round" />
<path d="M 121.0 112.5 L 120.0 113.0 L 119.0 115.0 L 118.5 120.5 L 120.0 133.0 L 121.0 150.0 L 121.0 168.0 L 119.5 181.0 L 118.5 188.0 L 118.5 191.0 L 119.5 191.0 L 122.5 190.0 L 127.0 187.0 L 132.0 182.5 L 138.0 177.5 L 145.5 172.0 L 147.5 171.0 " stroke="black" fill="none" stroke-width="7.0" stroke-linecap="round" stroke-linejoin="round" />
<path d="M 159.5 143.0 L 158.5 143.5 L 157.0 143.5 L 158.0 143.5 L 163.0 140.5 L 169.5 136.5 L 175.0 132.5 L 176.5 131.5 " stroke="black" fill="none" stroke-width="7.0" stroke-linecap="round" stroke-linejoin="round" />
<path d="M 153.5 100.0 L 153.5 100.5 L 153.0 103.0 L 153.0 108.0 L 153.5 119.0 L 155.0 131.0 L 155.0 145.0 L 155.0 158.5 L 154.5 169.0 L 154.5 177.0 L 156.0 183.0 L 158.0 186.0 L 160.0 188.0 L 162.5 189.5 L 164.5 190.0 L 167.0 190.0 L 169.5 190.0 L 172.5 189.0 L 176.5 188.0 L 181.5 186.5 L 186.0 185.5 L 190.0 184.5 L 192.5 183.5 L 193.5 183.0 L 193.5 181.5 L 193.5 178.5 L 193.5 172.0 L 193.5 162.5 " stroke="black" fill="none" stroke-width="7.0" stroke-linecap="round" stroke-linejoin="round" />
</svg>