<svg xmlns="http://www.w3.org/2000/svg" width="300" height="300" viewBox="0 0 300 300">
<path d="M 126.5 116.0 L 126.5 115.5 L 126.5 114.5 L 126.5 115.0 L 127.0 120.5 L 128.0 133.5 L 128.5 152.0 L 128.5 166.5 L 128.0 172.5 L 128.5 173.5 L 128.5 173.5 " stroke="black" fill="none" stroke-width="7.0" stroke-linecap="round" stroke-linejoin="round" />
<path d="M 129.0 153.5 L 129.0 152.5 L 130.5 150.5 L 135.5 147.0 L 142.0 142.5 L 146.5 138.0 L 147.5 137.0 " stroke="black" fill="none" stroke-width="7.0" stroke-linecap="round" stroke-linejoin="round" />
<path d="M 111.5 146.0 L 111.0 146.5 L 110.5 148.0 L 111.0 153.0 L 112.0 159.5 L 113.0 172.0 L 113.5 181.0 L 113.0 186.5 L 112.5 187.5 " stroke="black" fill="none" stroke-width="7.0" stroke-linecap="round" stroke-linejoin="round" />
<path d="M 105.5 192.5 L 105.0 193.0 L 103.0 194.0 L 102.5 194.5 L 103.5 195.0 L 107.5 193.0 L 114.5 188.5 L 125.5 181.5 L 138.5 171.5 L 149.0 165.5 L 151.0 164.5 " stroke="black" fill="none" stroke-width="7.0" stroke-linecap="round" stroke-linejoin="round" />
<path d="M 162.5 150.0 L 161.0 150.5 L 160.0 150.5 L 163.0 149.0 L 168.0 145.5 L 172.5 142.0 L 177.0 138.0 L 177.5 137.5 " stroke="black" fill="none" stroke-width="7.0" stroke-linecap="round" stroke-linejoin="round" />
<path d="M 157.0 101.5 L 157.0 101.5 L 157.0 102.5 L 156.5 103.5 L 156.5 108.5 L 156.0 119.0 L 156.0 134.0 L 156.0 149.5 L 156.5 163.5 L 156.5 174.0 L 156.5 182.0 L 156.5 187.0 L 157.5 189.5 L 159.0 190.5 L 162.0 190.5 L 165.5 189.5 L 169.5 188.0 L 173.0 186.0 L 177.0 184.5 L 181.5 184.0 L 186.0 183.0 L 189.5 182.5 L 191.5 181.5 L 192.5 180.0 L 193.0 176.0 L 193.0 170.0 L 192.5 161.0 " stroke="black" fill="none" stroke-width="7.0" stroke-linecap="round" stroke-linejoin="round" />
</svg>