<svg xmlns="http://www.w3.org/2000/svg" width="300" height="300" viewBox="0 0 300 300">
<path d="M 124.0 114.0 L 123.5 114.5 L 121.5 115.5 L 121.0 115.5 L 122.0 115.0 L 126.0 112.0 L 131.5 107.5 L 137.5 103.5 L 141.5 101.5 " stroke="black" fill="none" stroke-width="7.0" stroke-linecap="round" stroke-linejoin="round" />
<path d="M 133.0 110.0 L 132.5 112.0 L 131.5 115.5 L 130.0 121.5 L 127.0 131.0 L 121.0 143.0 L 114.5 151.0 L 110.0 156.5 L 108.5 158.0 " stroke="black" fill="none" stroke-width="7.0" stroke-linecap="round" stroke-linejoin="round" />
<path d="M 123.0 141.5 L 125.0 139.5 L 128.5 136.0 L 131.5 134.0 L 134.5 132.5 L 137.0 132.0 L 138.5 134.5 L 138.5 139.5 L 136.5 146.5 L 133.5 155.5 L 129.5 165.5 L 125.0 175.5 L 120.0 183.5 L 115.0 188.5 L 111.5 190.0 L 110.0 189.5 " stroke="black" fill="none" stroke-width="7.0" stroke-linecap="round" stroke-linejoin="round" />
<path d="M 118.5 159.0 L 119.5 159.0 L 122.5 158.5 L 126.5 160.0 L 130.5 162.5 L 133.5 164.0 " stroke="black" fill="none" stroke-width="7.0" stroke-linecap="round" stroke-linejoin="round" />
<path d="M 158.0 116.0 L 158.0 115.5 L 159.0 114.5 L 160.0 115.0 L 161.0 118.5 L 161.0 124.0 L 160.0 129.0 L 158.0 133.5 L 156.0 135.5 L 154.5 136.0 L 154.0 136.0 L 155.0 134.5 L 159.0 132.0 L 165.0 128.5 L 171.5 125.0 L 177.5 121.0 L 181.5 119.5 L 182.5 119.0 " stroke="black" fill="none" stroke-width="7.0" stroke-linecap="round" stroke-linejoin="round" />
<path d="M 146.0 158.5 L 144.5 160.0 L 141.5 161.5 L 140.5 162.0 L 142.0 162.0 L 147.5 159.0 L 154.0 155.0 L 163.5 150.0 L 174.0 144.0 L 183.0 140.5 L 186.5 139.5 " stroke="black" fill="none" stroke-width="7.0" stroke-linecap="round" stroke-linejoin="round" />
<path d="M 172.0 88.0 L 172.0 93.5 L 172.0 103.5 L 172.0 119.5 L 172.0 140.5 L 171.0 162.5 L 169.5 179.0 L 168.5 189.0 L 168.5 194.0 L 168.5 195.0 L 167.5 193.5 L 165.5 188.5 " stroke="black" fill="none" stroke-width="7.0" stroke-linecap="round" stroke-linejoin="round" />
<path d="M 170.0 150.0 L 170.0 150.0 L 169.5 149.0 L 169.5 148.0 L 169.0 148.5 L 168.0 151.5 L 165.5 156.5 L 160.5 164.0 L 152.5 173.5 L 146.5 180.0 L 143.5 182.0 " stroke="black" fill="none" stroke-width="7.0" stroke-linecap="round" stroke-linejoin="round" />
<path d="M 170.0 151.0 L 170.5 152.5 L 174.5 158.0 L 181.0 164.0 L 189.0 170.0 L 194.5 175.0 L 199.0 179.5 L 203.5 182.5 " stroke="black" fill="none" stroke-width="7.0" stroke-linecap="round" stroke-linejoin="round" />
</svg>