<svg xmlns="http://www.w3.org/2000/svg" width="300" height="300" viewBox="0 0 300 300">
<path d="M 136.0 115.5 L 134.5 116.5 L 132.5 118.0 L 132.5 118.0 L 134.5 118.0 L 140.5 115.0 L 148.5 110.5 L 155.5 106.0 L 162.0 102.5 L 165.0 102.0 L 165.0 102.0 " stroke="black" fill="none" stroke-width="7.0" stroke-linecap="round" stroke-linejoin="round" />
<path d="M 150.0 114.5 L 150.0 118.5 L 150.0 126.0 L 150.0 140.5 L 149.5 157.5 L 149.0 171.0 L 149.0 177.5 L 150.0 179.0 L 150.0 179.0 " stroke="black" fill="none" stroke-width="7.0" stroke-linecap="round" stroke-linejoin="round" />
<path d="M 151.5 156.5 L 151.5 156.0 L 151.5 153.5 L 153.0 151.0 L 157.0 148.5 L 163.0 145.5 L 168.5 143.5 L 169.0 143.5 " stroke="black" fill="none" stroke-width="7.0" stroke-linecap="round" stroke-linejoin="round" />
<path d="M 128.0 149.0 L 128.0 149.0 L 127.0 150.0 L 127.0 152.5 L 128.0 161.0 L 129.0 172.0 L 129.5 181.5 L 129.5 183.5 " stroke="black" fill="none" stroke-width="7.0" stroke-linecap="round" stroke-linejoin="round" />
<path d="M 104.0 191.5 L 104.0 191.5 L 103.5 191.5 L 103.5 191.5 L 105.0 191.5 L 110.0 191.5 L 121.5 190.0 L 138.0 186.0 L 155.5 181.5 L 170.5 180.0 L 180.0 180.5 L 188.5 182.0 L 190.0 182.5 " stroke="black" fill="none" stroke-width="7.0" stroke-linecap="round" stroke-linejoin="round" />
</svg>