<svg xmlns="http://www.w3.org/2000/svg" width="300" height="300" viewBox="0 0 300 300">
<path d="M 119.5 108.0 L 119.0 108.5 L 117.0 109.5 L 116.5 110.0 L 117.0 110.0 L 122.0 108.0 L 127.5 105.0 L 133.5 101.0 L 141.0 96.5 L 146.0 94.0 L 148.0 93.0 L 148.5 93.5 L 147.5 96.0 L 146.0 100.5 L 144.0 105.5 L 142.0 110.5 " stroke="black" fill="none" stroke-width="7.0" stroke-linecap="round" stroke-linejoin="round" />
<path d="M 123.0 127.0 L 121.5 127.5 L 117.0 128.5 L 114.5 129.5 L 115.5 129.5 L 119.5 128.0 L 126.0 124.5 L 132.0 120.5 L 139.0 116.0 L 144.5 112.5 " stroke="black" fill="none" stroke-width="7.0" stroke-linecap="round" stroke-linejoin="round" />
<path d="M 108.5 119.5 L 108.5 119.0 L 108.5 118.5 L 108.5 118.5 L 108.5 122.0 L 109.0 130.5 L 109.5 146.5 L 108.5 166.5 L 105.5 184.5 L 102.0 197.0 L 99.0 205.5 " stroke="black" fill="none" stroke-width="7.0" stroke-linecap="round" stroke-linejoin="round" />
<path d="M 118.0 148.5 L 117.5 149.0 L 115.5 149.5 L 114.5 150.0 L 117.0 150.0 L 122.5 147.5 L 129.5 143.5 L 137.5 138.0 L 143.5 134.0 L 146.0 132.5 " stroke="black" fill="none" stroke-width="7.0" stroke-linecap="round" stroke-linejoin="round" />
<path d="M 122.0 136.5 L 121.5 139.0 L 121.5 142.5 L 121.5 148.0 L 122.5 154.5 L 123.5 160.0 L 124.0 162.0 " stroke="black" fill="none" stroke-width="7.0" stroke-linecap="round" stroke-linejoin="round" />
<path d="M 134.0 128.5 L 134.0 128.5 L 134.5 128.5 L 134.5 130.5 L 134.5 138.0 L 134.5 147.5 L 133.5 156.0 " stroke="black" fill="none" stroke-width="7.0" stroke-linecap="round" stroke-linejoin="round" />
<path d="M 114.5 170.0 L 112.5 171.0 L 111.5 171.0 L 114.0 171.0 L 120.5 168.0 L 127.5 164.0 L 136.0 158.5 L 143.5 154.0 L 145.0 153.5 " stroke="black" fill="none" stroke-width="7.0" stroke-linecap="round" stroke-linejoin="round" />
<path d="M 130.0 165.5 L 129.0 168.0 L 127.5 172.5 L 124.0 181.0 L 118.5 189.5 L 113.5 196.0 L 111.5 198.5 " stroke="black" fill="none" stroke-width="7.0" stroke-linecap="round" stroke-linejoin="round" />
<path d="M 128.5 174.0 L 129.5 174.5 L 132.5 176.0 L 137.0 180.5 L 142.0 186.5 L 146.0 192.0 L 149.0 196.0 " stroke="black" fill="none" stroke-width="7.0" stroke-linecap="round" stroke-linejoin="round" />
<path d="M 160.0 102.5 L 160.0 103.0 L 160.5 105.0 L 160.5 112.0 L 159.0 122.5 L 157.0 130.5 L 156.0 134.5 L 156.0 134.5 " stroke="black" fill="none" stroke-width="7.0" stroke-linecap="round" stroke-linejoin="round" />
<path d="M 164.5 106.5 L 165.0 106.0 L 167.0 105.5 L 169.5 105.5 L 171.5 106.0 L 173.0 108.0 L 174.0 111.0 L 174.5 114.5 L 175.0 118.0 L 175.0 121.0 L 175.5 123.0 L 176.5 124.5 L 178.0 124.5 L 181.0 123.5 L 184.0 121.5 L 186.5 120.0 L 187.0 119.5 " stroke="black" fill="none" stroke-width="7.0" stroke-linecap="round" stroke-linejoin="round" />
<path d="M 157.5 153.5 L 157.5 154.0 L 158.5 154.0 L 162.0 152.0 L 168.0 148.0 L 174.0 143.0 L 178.0 140.0 L 179.5 140.0 L 179.0 143.0 L 176.0 148.0 L 173.0 155.5 L 170.0 164.0 L 165.0 174.0 L 158.5 185.5 L 153.0 193.0 L 150.0 196.0 L 149.5 196.0 " stroke="black" fill="none" stroke-width="7.0" stroke-linecap="round" stroke-linejoin="round" />
<path d="M 152.5 158.5 L 153.0 159.5 L 156.5 162.0 L 164.0 168.0 L 172.5 176.0 L 179.5 185.0 L 188.0 192.0 L 193.5 196.5 L 196.5 200.0 " stroke="black" fill="none" stroke-width="7.0" stroke-linecap="round" stroke-linejoin="round" />
</svg>