<svg xmlns="http://www.w3.org/2000/svg" width="300" height="300" viewBox="0 0 300 300">
<path d="M 116.0 102.0 L 116.0 102.0 L 116.0 102.0 L 115.5 102.0 L 115.0 102.0 L 114.0 104.0 L 112.0 107.0 L 109.0 112.0 L 106.5 115.5 L 105.0 118.0 L 104.5 119.0 L 104.5 119.5 L 105.0 120.5 L 105.5 122.5 L 106.0 126.5 L 107.0 132.5 L 107.5 139.5 L 107.5 144.0 L 108.0 146.0 L 108.0 146.5 " stroke="black" fill="none" stroke-width="7.0" stroke-linecap="round" stroke-linejoin="round" />
<path d="M 107.5 137.0 L 107.5 137.0 L 107.5 136.0 L 107.5 135.5 L 108.0 134.0 L 111.5 131.5 L 116.5 128.0 L 120.0 126.0 " stroke="black" fill="none" stroke-width="7.0" stroke-linecap="round" stroke-linejoin="round" />
<path d="M 133.5 104.5 L 133.5 104.5 L 133.0 104.5 L 132.5 104.5 L 133.0 104.0 L 135.5 103.5 L 138.5 103.5 L 141.5 103.5 L 143.0 104.0 L 144.5 107.0 L 145.0 112.5 L 145.0 119.5 L 145.0 127.0 L 145.0 135.5 L 145.0 141.0 L 145.0 142.5 L 145.0 142.5 " stroke="black" fill="none" stroke-width="7.0" stroke-linecap="round" stroke-linejoin="round" />
<path d="M 133.5 124.5 L 132.5 124.5 L 131.5 125.0 L 131.0 125.5 L 132.5 125.5 L 136.0 125.0 L 139.5 124.0 L 142.0 123.5 L 142.5 123.5 " stroke="black" fill="none" stroke-width="7.0" stroke-linecap="round" stroke-linejoin="round" />
<path d="M 117.5 148.5 L 116.5 148.5 L 115.5 148.5 L 115.5 148.5 L 117.5 148.5 L 121.0 147.0 L 126.0 145.5 L 132.5 143.0 L 139.0 141.5 L 141.5 141.0 " stroke="black" fill="none" stroke-width="7.0" stroke-linecap="round" stroke-linejoin="round" />
<path d="M 114.0 171.0 L 113.5 171.0 L 112.0 172.0 L 110.5 173.0 L 110.0 173.5 L 111.0 173.5 L 114.0 172.5 L 119.0 170.5 L 125.0 167.5 L 130.5 163.5 L 135.0 161.5 L 136.0 161.0 " stroke="black" fill="none" stroke-width="7.0" stroke-linecap="round" stroke-linejoin="round" />
<path d="M 127.0 152.0 L 126.5 152.0 L 126.0 152.5 L 126.0 154.0 L 126.0 158.5 L 127.0 166.0 L 127.5 175.0 L 127.5 182.0 L 127.5 186.0 " stroke="black" fill="none" stroke-width="7.0" stroke-linecap="round" stroke-linejoin="round" />
<path d="M 107.0 197.0 L 106.0 197.5 L 104.5 198.5 L 104.0 199.0 L 104.0 199.0 L 106.0 198.5 L 110.5 196.0 L 117.5 193.0 L 127.0 188.5 L 137.5 183.5 L 144.0 181.0 L 147.0 180.0 " stroke="black" fill="none" stroke-width="7.0" stroke-linecap="round" stroke-linejoin="round" />
<path d="M 162.0 107.5 L 162.0 106.0 L 162.5 105.5 L 163.0 106.0 L 163.0 110.5 L 162.5 118.5 L 160.0 128.0 L 157.5 135.0 L 156.5 137.0 L 156.0 137.0 " stroke="black" fill="none" stroke-width="7.0" stroke-linecap="round" stroke-linejoin="round" />
<path d="M 165.5 109.0 L 164.5 109.5 L 164.0 109.5 L 164.0 109.5 L 165.5 109.0 L 168.5 107.5 L 171.5 106.0 L 175.0 104.5 L 178.5 104.0 L 180.5 104.0 L 180.5 106.5 L 180.5 110.0 L 179.5 115.0 L 179.0 120.5 L 179.0 124.0 L 180.5 126.0 L 184.0 126.5 L 187.0 126.5 L 190.0 125.5 L 192.0 124.0 L 192.5 123.5 " stroke="black" fill="none" stroke-width="7.0" stroke-linecap="round" stroke-linejoin="round" />
<path d="M 161.5 151.0 L 161.0 151.0 L 159.5 152.0 L 159.0 152.0 L 160.0 152.0 L 163.5 151.0 L 168.0 148.5 L 173.0 146.0 L 178.5 143.5 L 182.5 142.5 L 183.0 142.5 L 182.5 144.5 L 179.5 148.0 L 176.5 153.0 L 173.5 159.5 L 170.0 167.0 L 167.0 173.0 L 163.0 179.5 L 158.0 184.5 L 154.0 187.0 L 151.0 188.0 L 150.0 188.5 " stroke="black" fill="none" stroke-width="7.0" stroke-linecap="round" stroke-linejoin="round" />
<path d="M 155.0 155.5 L 155.0 155.5 L 155.0 155.5 L 156.5 157.0 L 161.0 161.5 L 168.5 169.0 L 176.0 176.5 L 184.0 183.0 L 190.5 186.5 L 195.0 189.5 L 199.0 190.5 " stroke="black" fill="none" stroke-width="7.0" stroke-linecap="round" stroke-linejoin="round" />
</svg>