<svg xmlns="http://www.w3.org/2000/svg" width="300" height="300" viewBox="0 0 300 300">
<path d="M 150.5 79.5 L 150.5 79.5 L 150.5 79.0 L 150.5 79.0 L 151.0 84.0 L 152.0 94.0 L 153.0 104.0 L 153.5 108.5 L 153.5 109.5 " stroke="black" fill="none" stroke-width="7.0" stroke-linecap="round" stroke-linejoin="round" />
<path d="M 155.5 99.5 L 156.0 99.5 L 157.0 98.5 L 160.0 97.0 L 165.5 94.0 L 169.0 91.5 " stroke="black" fill="none" stroke-width="7.0" stroke-linecap="round" stroke-linejoin="round" />
<path d="M 131.5 99.5 L 131.5 100.5 L 131.5 102.0 L 131.5 106.0 L 132.0 111.0 L 132.5 117.5 " stroke="black" fill="none" stroke-width="7.0" stroke-linecap="round" stroke-linejoin="round" />
<path d="M 110.5 125.0 L 109.5 125.5 L 108.5 126.0 L 108.5 126.5 L 109.0 126.5 L 113.5 126.0 L 122.5 124.0 L 135.0 121.5 L 151.5 118.5 L 167.5 116.0 L 177.5 115.0 L 183.5 115.0 L 187.5 116.0 " stroke="black" fill="none" stroke-width="7.0" stroke-linecap="round" stroke-linejoin="round" />
<path d="M 128.5 142.0 L 127.5 142.5 L 126.0 142.5 L 126.0 142.5 L 128.0 142.0 L 134.0 140.5 L 144.5 138.0 L 156.5 135.0 L 165.5 132.0 L 172.0 129.5 L 173.0 128.5 L 173.0 128.5 " stroke="black" fill="none" stroke-width="7.0" stroke-linecap="round" stroke-linejoin="round" />
<path d="M 123.5 142.5 L 122.0 142.5 L 121.5 143.0 L 121.5 145.5 L 122.5 153.0 L 123.0 166.5 L 120.5 184.0 L 114.0 200.0 L 108.0 212.0 L 105.5 216.5 " stroke="black" fill="none" stroke-width="7.0" stroke-linecap="round" stroke-linejoin="round" />
<path d="M 130.0 163.0 L 129.0 163.5 L 128.0 164.0 L 129.5 163.5 L 135.0 161.0 L 141.5 157.5 L 147.5 154.5 " stroke="black" fill="none" stroke-width="7.0" stroke-linecap="round" stroke-linejoin="round" />
<path d="M 134.0 170.5 L 134.0 170.5 L 134.0 170.5 L 134.0 171.5 L 133.0 175.0 L 130.5 181.0 L 129.0 184.0 L 128.0 185.5 " stroke="black" fill="none" stroke-width="7.0" stroke-linecap="round" stroke-linejoin="round" />
<path d="M 140.5 164.0 L 140.5 164.0 L 141.5 163.0 L 142.5 163.0 L 144.0 167.5 L 145.0 176.0 L 145.0 183.0 " stroke="black" fill="none" stroke-width="7.0" stroke-linecap="round" stroke-linejoin="round" />
<path d="M 152.0 169.0 L 152.0 169.0 L 152.0 169.0 L 151.5 171.0 L 148.5 178.0 L 143.0 188.5 L 134.0 200.0 L 126.5 208.5 L 124.0 211.0 " stroke="black" fill="none" stroke-width="7.0" stroke-linecap="round" stroke-linejoin="round" />
<path d="M 151.0 126.0 L 151.0 125.5 L 151.0 124.5 L 151.0 124.0 L 151.5 125.5 L 153.5 131.5 L 156.5 140.0 L 164.5 164.5 L 170.0 185.0 L 174.0 197.0 L 177.0 205.5 L 180.0 210.0 L 181.5 211.0 L 182.0 210.0 L 182.0 205.0 L 181.0 196.0 L 181.0 185.5 L 181.0 181.5 " stroke="black" fill="none" stroke-width="7.0" stroke-linecap="round" stroke-linejoin="round" />
<path d="M 177.5 154.5 L 176.5 155.0 L 175.0 156.0 L 173.5 159.5 L 171.0 168.0 L 165.5 183.5 L 155.0 201.5 L 147.0 213.0 L 143.5 217.0 " stroke="black" fill="none" stroke-width="7.0" stroke-linecap="round" stroke-linejoin="round" />
<path d="M 172.0 122.5 L 171.5 123.0 L 171.5 124.0 L 172.0 126.0 L 177.5 133.0 L 182.5 137.5 " stroke="black" fill="none" stroke-width="7.0" stroke-linecap="round" stroke-linejoin="round" />
</svg>