<svg xmlns="http://www.w3.org/2000/svg" width="300" height="300" viewBox="0 0 300 300">
<path d="M 124.0 144.0 L 122.0 145.0 L 122.0 145.0 L 124.5 145.0 L 129.0 143.0 L 133.5 140.5 L 135.0 140.0 " stroke="black" fill="none" stroke-width="7.0" stroke-linecap="round" stroke-linejoin="round" />
<path d="M 122.0 167.5 L 121.0 168.5 L 119.0 170.5 L 120.0 170.5 L 124.5 167.5 L 130.5 162.0 L 134.0 158.5 " stroke="black" fill="none" stroke-width="7.0" stroke-linecap="round" stroke-linejoin="round" />
<path d="M 154.5 103.5 L 154.5 103.5 L 154.5 103.5 L 154.5 107.0 L 154.0 117.5 L 152.5 126.5 L 151.0 132.5 L 150.5 133.5 " stroke="black" fill="none" stroke-width="7.0" stroke-linecap="round" stroke-linejoin="round" />
<path d="M 150.0 131.5 L 151.0 130.5 L 152.5 128.5 L 156.0 126.0 L 162.0 122.5 L 168.5 118.5 L 173.0 115.5 L 175.5 114.0 L 177.0 114.0 L 177.0 115.0 L 176.5 118.5 L 175.0 123.5 " stroke="black" fill="none" stroke-width="7.0" stroke-linecap="round" stroke-linejoin="round" />
<path d="M 162.0 133.0 L 162.0 134.0 L 161.5 136.0 L 160.5 140.5 L 159.0 147.5 L 156.5 158.0 L 152.5 170.0 L 148.0 182.5 L 142.5 191.5 L 137.5 196.5 L 135.0 197.5 " stroke="black" fill="none" stroke-width="7.0" stroke-linecap="round" stroke-linejoin="round" />
<path d="M 155.5 168.0 L 156.0 168.5 L 159.0 169.5 L 164.5 173.5 L 171.0 180.0 L 176.5 186.0 L 184.0 191.0 L 191.0 195.0 L 193.0 197.0 " stroke="black" fill="none" stroke-width="7.0" stroke-linecap="round" stroke-linejoin="round" />
</svg>