<svg xmlns="http://www.w3.org/2000/svg" width="300" height="300" viewBox="0 0 300 300">
<path d="M 129.0 109.5 L 129.0 109.0 L 129.0 108.5 L 129.0 108.5 L 129.0 113.5 L 129.0 123.5 L 129.0 139.5 L 127.5 155.0 L 126.5 167.0 L 126.5 173.5 L 127.0 179.0 L 129.0 182.5 L 133.0 184.0 L 140.5 184.0 L 149.5 182.5 L 157.0 181.5 L 166.5 180.5 L 173.0 180.5 L 176.5 180.5 L 178.5 180.0 L 178.5 180.0 " stroke="black" fill="none" stroke-width="7.0" stroke-linecap="round" stroke-linejoin="round" />
<path d="M 142.5 114.5 L 141.0 114.0 L 141.0 113.5 L 143.5 112.0 L 148.0 109.5 L 154.0 106.5 L 161.5 104.0 L 167.5 102.5 L 170.5 102.5 L 171.0 102.5 L 171.5 104.0 L 171.5 108.0 L 171.5 114.5 L 171.5 124.0 L 172.5 138.0 L 172.5 155.0 L 172.5 171.5 L 172.5 185.5 L 172.0 195.0 L 171.0 202.5 L 169.0 207.0 L 165.5 208.0 L 160.5 206.5 L 155.5 200.5 L 153.5 196.0 " stroke="black" fill="none" stroke-width="7.0" stroke-linecap="round" stroke-linejoin="round" />
<path d="M 148.0 129.5 L 147.5 130.0 L 146.5 130.5 L 146.5 131.5 L 148.5 133.5 L 151.5 135.5 L 154.0 137.0 " stroke="black" fill="none" stroke-width="7.0" stroke-linecap="round" stroke-linejoin="round" />
<path d="M 148.5 158.0 L 148.5 160.5 L 149.0 163.0 L 151.0 166.0 L 153.5 168.5 L 155.5 170.5 L 156.5 171.5 " stroke="black" fill="none" stroke-width="7.0" stroke-linecap="round" stroke-linejoin="round" />
<path d="M 107.0 153.0 L 105.5 153.5 L 105.0 154.0 L 106.5 154.0 L 113.0 154.0 L 126.0 153.0 L 145.5 151.0 L 164.0 148.5 L 177.0 147.0 L 189.5 145.0 L 198.5 142.5 L 201.0 142.5 " stroke="black" fill="none" stroke-width="7.0" stroke-linecap="round" stroke-linejoin="round" />
</svg>