<svg xmlns="http://www.w3.org/2000/svg" width="300" height="300" viewBox="0 0 300 300">
<path d="M 115.5 104.0 L 116.0 103.5 L 116.5 101.5 L 116.5 101.5 L 116.5 105.0 L 114.5 114.5 L 110.0 127.0 L 104.5 141.0 L 100.5 149.0 L 99.0 150.0 " stroke="black" fill="none" stroke-width="7.0" stroke-linecap="round" stroke-linejoin="round" />
<path d="M 135.0 103.5 L 136.0 105.0 L 138.0 107.0 L 141.5 111.0 L 146.0 116.0 L 149.5 120.5 L 152.0 123.0 L 152.5 123.5 " stroke="black" fill="none" stroke-width="7.0" stroke-linecap="round" stroke-linejoin="round" />
<path d="M 128.5 126.0 L 128.5 126.0 L 128.5 125.5 L 128.5 125.0 L 127.5 127.0 L 125.5 134.0 L 121.0 147.0 L 113.5 163.0 L 106.5 174.5 L 102.0 181.0 L 100.0 183.0 " stroke="black" fill="none" stroke-width="7.0" stroke-linecap="round" stroke-linejoin="round" />
<path d="M 127.0 135.0 L 127.5 134.5 L 130.0 134.0 L 133.5 135.0 L 138.0 138.5 L 143.5 142.0 L 149.0 144.0 L 152.0 145.5 L 152.5 145.5 " stroke="black" fill="none" stroke-width="7.0" stroke-linecap="round" stroke-linejoin="round" />
<path d="M 118.5 169.5 L 118.5 169.5 L 118.0 169.5 L 118.0 170.5 L 119.0 175.0 L 121.0 182.5 L 123.0 189.5 L 124.5 192.0 L 124.5 192.0 " stroke="black" fill="none" stroke-width="7.0" stroke-linecap="round" stroke-linejoin="round" />
<path d="M 124.5 172.5 L 124.5 172.0 L 124.5 171.5 L 124.5 170.0 L 126.5 168.5 L 130.5 166.5 L 136.0 164.0 L 141.5 162.5 L 143.5 163.0 L 144.0 166.5 L 142.0 172.0 L 139.0 179.0 L 134.5 186.0 L 131.0 190.5 L 129.5 191.0 L 129.5 191.0 L 131.0 188.5 L 135.0 185.0 L 140.0 181.5 L 141.5 180.5 " stroke="black" fill="none" stroke-width="7.0" stroke-linecap="round" stroke-linejoin="round" />
<path d="M 166.0 104.0 L 166.0 102.5 L 166.0 101.0 L 166.5 101.0 L 167.0 103.0 L 167.5 109.0 L 167.0 116.5 L 165.0 123.0 L 162.5 127.0 L 162.0 127.5 L 162.5 126.5 L 166.0 123.5 L 170.5 119.0 L 175.5 113.5 L 180.5 108.5 L 183.5 107.0 L 184.5 107.5 L 184.0 110.5 L 182.0 115.0 L 180.5 118.5 " stroke="black" fill="none" stroke-width="7.0" stroke-linecap="round" stroke-linejoin="round" />
<path d="M 172.5 124.0 L 172.5 124.5 L 172.0 125.5 L 172.0 128.0 L 172.0 133.0 L 171.5 142.0 L 169.5 154.5 L 164.5 169.0 L 158.0 180.5 L 153.5 187.5 L 151.0 190.0 " stroke="black" fill="none" stroke-width="7.0" stroke-linecap="round" stroke-linejoin="round" />
<path d="M 166.0 168.5 L 168.0 168.5 L 171.0 169.5 L 175.0 173.0 L 180.5 179.0 L 187.0 185.0 L 192.5 189.5 L 196.5 193.0 L 197.0 194.0 " stroke="black" fill="none" stroke-width="7.0" stroke-linecap="round" stroke-linejoin="round" />
</svg>