<svg xmlns="http://www.w3.org/2000/svg" width="300" height="300" viewBox="0 0 300 300">
<path d="M 138.0 101.0 L 139.0 100.0 L 139.5 99.5 L 140.0 99.0 L 140.0 99.0 L 139.0 100.0 L 136.5 102.5 L 133.5 105.5 L 130.0 109.0 L 126.5 112.5 L 123.5 114.5 L 123.0 115.5 L 122.5 115.5 L 122.5 115.0 L 123.0 114.5 L 123.0 114.5 L 123.0 115.0 L 123.0 116.5 L 123.0 119.0 L 123.0 123.0 L 122.5 130.5 L 121.5 141.5 L 119.0 154.0 L 115.0 166.0 L 111.0 175.0 L 108.5 182.5 L 107.5 185.5 L 106.5 186.5 " stroke="black" fill="none" stroke-width="7.0" stroke-linecap="round" stroke-linejoin="round" />
<path d="M 128.5 121.0 L 128.0 121.0 L 127.5 121.0 L 127.0 121.0 L 127.0 121.0 L 129.5 120.0 L 133.5 118.0 L 139.5 115.0 L 145.0 112.0 L 148.0 111.0 L 149.0 112.0 L 148.5 116.0 L 147.5 121.5 L 146.0 128.0 L 145.5 133.5 L 145.0 137.0 L 145.0 138.0 L 145.0 138.0 " stroke="black" fill="none" stroke-width="7.0" stroke-linecap="round" stroke-linejoin="round" />
<path d="M 129.5 130.5 L 129.5 131.0 L 128.0 131.5 L 127.5 132.0 L 127.5 132.5 L 129.0 132.5 L 132.5 131.0 L 137.5 128.5 L 141.5 126.5 " stroke="black" fill="none" stroke-width="7.0" stroke-linecap="round" stroke-linejoin="round" />
<path d="M 128.5 142.5 L 127.5 144.5 L 127.5 145.0 L 129.5 145.5 L 133.5 143.5 L 138.0 141.5 L 142.5 139.5 L 143.5 139.0 " stroke="black" fill="none" stroke-width="7.0" stroke-linecap="round" stroke-linejoin="round" />
<path d="M 124.0 160.5 L 123.0 161.5 L 123.0 162.0 L 124.5 162.0 L 127.5 160.0 L 132.5 157.0 L 138.5 154.0 L 144.0 152.0 L 147.5 152.0 L 148.5 153.0 L 149.0 156.5 L 149.0 160.5 L 148.5 166.0 L 147.5 172.5 L 146.5 179.5 L 144.5 185.5 L 142.5 189.5 L 139.5 190.5 L 136.0 190.0 L 132.5 186.5 L 131.0 184.5 " stroke="black" fill="none" stroke-width="7.0" stroke-linecap="round" stroke-linejoin="round" />
<path d="M 164.0 111.5 L 164.0 109.0 L 164.0 107.0 L 165.0 106.5 L 165.5 107.5 L 165.5 115.0 L 164.5 123.5 L 163.0 129.5 L 161.0 135.5 L 160.0 136.5 " stroke="black" fill="none" stroke-width="7.0" stroke-linecap="round" stroke-linejoin="round" />
<path d="M 167.5 109.5 L 167.0 109.5 L 166.5 109.5 L 166.5 109.0 L 167.5 108.5 L 170.0 108.0 L 172.5 107.5 L 175.5 107.0 L 178.5 107.0 L 180.5 107.0 L 181.5 108.0 L 182.0 111.0 L 182.0 116.5 L 182.0 120.0 L 182.0 122.5 L 183.5 124.0 L 186.0 124.0 L 189.5 123.0 L 192.5 121.0 L 194.0 120.0 L 194.5 120.0 " stroke="black" fill="none" stroke-width="7.0" stroke-linecap="round" stroke-linejoin="round" />
<path d="M 169.0 144.5 L 168.0 145.0 L 167.0 145.5 L 166.5 146.0 L 166.5 146.0 L 167.5 146.0 L 170.5 144.5 L 174.0 143.0 L 177.5 141.0 L 181.5 139.5 L 184.5 138.0 L 186.0 137.5 L 186.0 138.0 L 186.0 139.5 L 184.5 142.5 L 182.5 147.0 L 179.5 154.0 L 175.0 163.0 L 169.5 173.0 L 162.5 182.5 L 156.0 188.0 L 152.0 191.0 L 150.0 191.5 " stroke="black" fill="none" stroke-width="7.0" stroke-linecap="round" stroke-linejoin="round" />
<path d="M 159.0 148.0 L 159.0 147.5 L 159.5 147.5 L 163.0 152.0 L 170.0 161.5 L 177.5 171.5 L 185.5 180.0 L 192.5 186.0 L 196.5 189.0 L 200.5 191.0 L 204.0 191.5 " stroke="black" fill="none" stroke-width="7.0" stroke-linecap="round" stroke-linejoin="round" />
</svg>