<svg xmlns="http://www.w3.org/2000/svg" width="300" height="300" viewBox="0 0 300 300">
<path d="M 148.5 119.0 L 148.5 118.5 L 149.0 117.0 L 149.0 118.0 L 150.0 125.5 L 151.0 140.0 L 152.0 159.5 L 152.0 174.0 L 152.0 183.5 L 152.0 187.0 L 152.5 186.5 " stroke="black" fill="none" stroke-width="7.0" stroke-linecap="round" stroke-linejoin="round" />
<path d="M 153.5 161.0 L 154.0 160.0 L 155.0 158.5 L 159.0 156.5 L 165.0 154.0 L 171.0 151.0 " stroke="black" fill="none" stroke-width="7.0" stroke-linecap="round" stroke-linejoin="round" />
<path d="M 127.0 158.5 L 127.0 158.5 L 126.5 159.5 L 126.5 162.5 L 127.5 170.0 L 129.0 180.0 L 130.0 189.5 L 130.5 194.5 L 130.5 195.5 " stroke="black" fill="none" stroke-width="7.0" stroke-linecap="round" stroke-linejoin="round" />
<path d="M 106.0 205.5 L 106.0 205.5 L 105.0 205.5 L 104.5 205.0 L 106.0 204.0 L 110.5 202.0 L 120.0 199.5 L 134.0 196.0 L 150.5 193.0 L 165.0 191.0 L 177.0 190.0 L 188.0 190.0 L 195.5 190.0 L 196.5 190.5 " stroke="black" fill="none" stroke-width="7.0" stroke-linecap="round" stroke-linejoin="round" />
</svg>