<svg xmlns="http://www.w3.org/2000/svg" width="300" height="300" viewBox="0 0 300 300">
<path d="M 150.5 93.0 L 150.0 92.5 L 150.0 91.5 L 149.5 91.0 L 149.5 91.0 L 149.5 93.0 L 149.5 97.5 L 150.0 109.5 L 150.0 124.5 L 150.5 142.5 L 150.5 158.5 L 150.5 170.0 L 150.5 180.5 L 150.5 189.0 L 150.5 195.5 L 149.5 200.5 L 148.5 203.0 L 146.5 203.0 L 144.5 202.5 L 142.0 197.5 L 139.0 188.5 L 137.5 183.0 " stroke="black" fill="none" stroke-width="7.0" stroke-linecap="round" stroke-linejoin="round" />
<path d="M 126.5 139.5 L 126.0 139.5 L 125.5 140.0 L 125.5 140.0 L 126.0 140.0 L 127.5 139.5 L 130.5 138.0 L 133.0 137.0 L 135.5 135.5 L 137.0 135.0 L 137.0 135.0 L 137.0 135.5 L 136.0 138.0 L 135.0 140.5 L 134.0 145.0 L 132.5 151.0 L 130.5 159.5 L 127.0 169.5 L 124.0 176.5 L 117.5 185.5 L 112.5 188.0 L 111.0 188.0 " stroke="black" fill="none" stroke-width="7.0" stroke-linecap="round" stroke-linejoin="round" />
<path d="M 172.5 127.0 L 172.5 127.0 L 173.0 127.0 L 173.0 127.0 L 173.0 127.0 L 172.5 128.0 L 171.5 129.5 L 169.5 132.0 L 166.5 135.0 L 163.0 138.0 L 160.0 139.5 L 159.5 139.5 L 159.0 139.5 L 159.5 139.0 L 160.0 139.0 L 161.0 140.5 L 162.5 142.5 L 165.0 145.5 L 168.5 150.5 L 173.0 158.0 L 178.0 165.0 L 184.5 170.0 L 191.0 173.5 L 195.0 176.0 L 197.5 177.0 " stroke="black" fill="none" stroke-width="7.0" stroke-linecap="round" stroke-linejoin="round" />
</svg>