<svg xmlns="http://www.w3.org/2000/svg" width="300" height="300" viewBox="0 0 300 300">
<path d="M 118.5 116.5 L 117.5 116.5 L 115.5 116.5 L 115.5 116.5 L 118.5 117.0 L 122.0 117.5 L 125.5 118.5 L 126.5 119.0 " stroke="black" fill="none" stroke-width="7.0" stroke-linecap="round" stroke-linejoin="round" />
<path d="M 112.5 152.0 L 111.5 154.0 L 112.0 153.5 L 115.5 151.0 L 119.5 148.0 L 124.0 145.0 L 126.0 144.0 " stroke="black" fill="none" stroke-width="7.0" stroke-linecap="round" stroke-linejoin="round" />
<path d="M 112.5 198.0 L 110.5 202.0 L 109.5 203.0 L 111.0 200.0 L 115.0 191.5 L 121.5 179.0 L 130.5 161.0 L 132.0 156.5 " stroke="black" fill="none" stroke-width="7.0" stroke-linecap="round" stroke-linejoin="round" />
<path d="M 152.5 119.0 L 151.5 119.5 L 150.0 120.0 L 150.0 120.0 L 152.5 119.0 L 159.0 116.5 L 168.5 111.5 L 177.0 107.0 L 181.5 104.5 L 182.0 104.0 " stroke="black" fill="none" stroke-width="7.0" stroke-linecap="round" stroke-linejoin="round" />
<path d="M 148.0 138.5 L 148.0 140.5 L 148.5 145.0 L 149.5 150.0 L 150.5 154.5 L 152.0 157.0 L 152.5 157.5 " stroke="black" fill="none" stroke-width="7.0" stroke-linecap="round" stroke-linejoin="round" />
<path d="M 152.0 143.5 L 152.5 142.5 L 154.0 141.0 L 156.5 139.5 L 160.0 138.5 L 163.0 138.5 L 164.0 141.0 L 163.0 145.0 L 159.5 150.5 L 155.5 156.0 L 153.0 159.0 L 152.0 160.0 L 153.0 158.5 L 157.0 155.5 L 162.0 151.0 L 163.0 150.0 " stroke="black" fill="none" stroke-width="7.0" stroke-linecap="round" stroke-linejoin="round" />
<path d="M 176.0 118.0 L 176.0 119.0 L 176.0 121.5 L 176.5 127.5 L 177.5 140.0 L 178.0 155.0 L 178.0 170.5 L 177.0 182.0 L 175.5 190.5 L 173.5 196.5 L 171.0 199.0 L 167.5 198.0 L 165.0 193.0 " stroke="black" fill="none" stroke-width="7.0" stroke-linecap="round" stroke-linejoin="round" />
</svg>