<svg xmlns="http://www.w3.org/2000/svg" width="300" height="300" viewBox="0 0 300 300">
<path d="M 142.0 91.0 L 142.0 91.0 L 142.0 91.5 L 141.5 93.5 L 139.5 105.5 L 135.5 119.0 L 130.5 129.0 L 126.5 134.5 L 124.5 136.0 L 124.0 134.5 " stroke="black" fill="none" stroke-width="7.0" stroke-linecap="round" stroke-linejoin="round" />
<path d="M 135.5 118.5 L 138.5 116.5 L 143.5 114.0 L 149.5 110.5 L 154.0 106.5 L 158.0 103.0 L 159.5 102.0 " stroke="black" fill="none" stroke-width="7.0" stroke-linecap="round" stroke-linejoin="round" />
<path d="M 138.0 128.0 L 137.5 129.0 L 136.0 130.0 L 137.0 130.0 L 142.5 128.0 L 148.5 124.5 L 155.0 120.0 L 158.5 118.0 " stroke="black" fill="none" stroke-width="7.0" stroke-linecap="round" stroke-linejoin="round" />
<path d="M 129.0 149.5 L 127.5 151.0 L 126.0 152.5 L 126.5 152.5 L 130.0 151.0 L 136.0 147.5 L 145.5 142.5 L 153.5 136.5 L 160.5 131.5 L 165.5 129.0 L 167.0 128.5 L 167.0 129.0 L 167.0 132.0 L 166.5 136.5 L 166.5 142.5 L 167.5 150.5 L 169.5 161.5 L 172.0 172.5 L 175.0 183.5 L 178.0 190.5 L 181.0 196.0 L 185.0 199.5 L 187.5 201.5 L 189.0 201.5 L 189.5 199.0 L 189.5 193.5 L 188.5 185.0 L 186.5 177.0 " stroke="black" fill="none" stroke-width="7.0" stroke-linecap="round" stroke-linejoin="round" />
<path d="M 128.5 167.5 L 128.0 167.5 L 126.5 167.5 L 126.5 167.5 L 129.0 167.5 L 135.0 166.5 L 138.5 165.5 " stroke="black" fill="none" stroke-width="7.0" stroke-linecap="round" stroke-linejoin="round" />
<path d="M 154.0 151.5 L 154.0 151.5 L 154.0 151.5 L 154.0 152.0 L 153.0 154.5 L 151.0 160.0 L 147.0 166.5 L 141.5 172.0 L 138.0 174.0 " stroke="black" fill="none" stroke-width="7.0" stroke-linecap="round" stroke-linejoin="round" />
<path d="M 127.0 181.5 L 125.0 183.0 L 122.0 184.5 L 121.0 184.5 L 121.0 184.5 L 124.5 183.0 L 128.0 180.5 L 137.5 175.0 L 145.5 171.5 L 156.5 166.0 L 162.0 164.0 L 163.0 163.5 " stroke="black" fill="none" stroke-width="7.0" stroke-linecap="round" stroke-linejoin="round" />
<path d="M 145.5 148.5 L 145.0 149.5 L 144.5 152.5 L 144.5 160.5 L 145.0 169.0 L 146.0 187.5 L 146.0 200.0 L 146.0 207.0 L 145.0 208.0 L 144.0 206.0 L 142.5 199.0 L 142.0 196.5 " stroke="black" fill="none" stroke-width="7.0" stroke-linecap="round" stroke-linejoin="round" />
<path d="M 140.5 181.5 L 140.0 180.0 L 140.0 178.5 L 139.5 178.0 L 138.0 180.5 L 135.5 185.5 L 131.5 191.5 L 127.5 198.5 L 123.5 203.0 L 122.0 204.0 " stroke="black" fill="none" stroke-width="7.0" stroke-linecap="round" stroke-linejoin="round" />
<path d="M 144.0 177.5 L 145.0 177.5 L 149.5 178.5 L 154.5 183.0 L 161.5 189.5 L 168.5 196.0 L 173.5 203.0 L 176.0 207.5 " stroke="black" fill="none" stroke-width="7.0" stroke-linecap="round" stroke-linejoin="round" />
</svg>