<svg xmlns="http://www.w3.org/2000/svg" width="300" height="300" viewBox="0 0 300 300">
<path d="M 136.0 108.0 L 136.0 108.0 L 135.0 109.0 L 134.5 109.0 L 135.5 108.5 L 140.0 106.5 L 145.5 103.5 L 151.5 99.5 L 157.5 95.5 L 162.5 92.0 L 166.0 89.0 L 167.5 87.5 L 168.0 87.5 L 168.0 89.5 L 167.5 93.0 L 165.0 100.0 L 163.0 105.5 L 161.0 111.0 " stroke="black" fill="none" stroke-width="7.0" stroke-linecap="round" stroke-linejoin="round" />
<path d="M 140.5 128.0 L 137.0 129.0 L 135.5 129.5 L 135.0 129.5 L 138.5 128.5 L 144.5 125.0 L 151.0 120.5 L 155.0 117.5 L 159.0 114.5 " stroke="black" fill="none" stroke-width="7.0" stroke-linecap="round" stroke-linejoin="round" />
<path d="M 129.0 118.5 L 127.5 121.0 L 127.5 126.5 L 127.5 137.0 L 127.5 148.0 L 127.5 160.5 L 127.0 171.5 L 125.5 180.5 L 124.5 185.5 L 124.0 190.0 L 123.5 191.5 L 123.5 191.5 L 124.5 190.5 L 127.5 187.5 L 131.0 183.0 L 137.0 177.0 L 143.5 170.5 L 148.5 166.5 L 152.0 162.0 L 152.0 161.0 " stroke="black" fill="none" stroke-width="7.0" stroke-linecap="round" stroke-linejoin="round" />
<path d="M 132.5 156.5 L 131.0 157.5 L 129.5 158.5 L 130.0 158.5 L 133.5 157.0 L 141.5 153.0 L 150.0 147.5 L 160.0 140.0 L 167.5 133.5 L 170.0 129.5 L 170.0 127.5 " stroke="black" fill="none" stroke-width="7.0" stroke-linecap="round" stroke-linejoin="round" />
<path d="M 154.5 125.0 L 154.5 126.5 L 154.5 129.5 L 156.0 136.0 L 159.0 144.5 L 163.5 154.5 L 167.5 166.5 L 171.0 176.5 L 174.0 183.5 L 177.0 189.0 L 180.5 192.0 L 183.5 192.5 L 186.0 191.0 L 188.0 185.5 L 189.5 176.0 L 190.5 164.0 L 191.0 150.5 " stroke="black" fill="none" stroke-width="7.0" stroke-linecap="round" stroke-linejoin="round" />
</svg>