<svg xmlns="http://www.w3.org/2000/svg" width="300" height="300" viewBox="0 0 300 300">
<path d="M 121.0 119.0 L 120.5 119.0 L 119.0 119.0 L 118.5 119.0 L 121.0 120.0 L 125.0 121.5 L 127.5 122.5 " stroke="black" fill="none" stroke-width="7.0" stroke-linecap="round" stroke-linejoin="round" />
<path d="M 115.0 151.0 L 114.0 152.5 L 115.0 153.0 L 119.0 152.5 L 124.0 150.0 L 128.5 148.0 " stroke="black" fill="none" stroke-width="7.0" stroke-linecap="round" stroke-linejoin="round" />
<path d="M 114.5 196.0 L 113.5 198.0 L 112.0 201.0 L 112.5 201.0 L 116.0 194.5 L 121.5 185.0 L 128.5 170.5 L 130.0 166.5 " stroke="black" fill="none" stroke-width="7.0" stroke-linecap="round" stroke-linejoin="round" />
<path d="M 149.5 129.0 L 148.0 129.5 L 147.5 129.5 L 149.5 129.0 L 155.5 126.5 L 163.0 123.0 L 171.0 119.5 L 173.0 119.0 " stroke="black" fill="none" stroke-width="7.0" stroke-linecap="round" stroke-linejoin="round" />
<path d="M 142.5 149.5 L 142.5 151.0 L 143.0 155.0 L 144.5 161.0 L 146.0 166.0 L 147.5 167.0 " stroke="black" fill="none" stroke-width="7.0" stroke-linecap="round" stroke-linejoin="round" />
<path d="M 148.0 148.5 L 147.5 148.5 L 147.0 148.5 L 146.5 148.5 L 147.0 149.0 L 150.5 149.0 L 156.5 147.0 L 165.5 143.0 L 175.0 139.5 L 181.5 138.0 L 185.5 138.0 L 187.5 140.5 L 187.0 144.5 L 184.5 151.5 L 180.0 158.5 L 177.0 163.5 L 174.5 166.0 L 173.0 165.5 " stroke="black" fill="none" stroke-width="7.0" stroke-linecap="round" stroke-linejoin="round" />
<path d="M 162.5 92.5 L 162.5 92.0 L 161.5 92.0 L 161.5 97.5 L 161.0 114.5 L 161.0 142.0 L 160.0 171.0 L 160.0 192.5 L 160.0 205.0 L 159.5 208.0 " stroke="black" fill="none" stroke-width="7.0" stroke-linecap="round" stroke-linejoin="round" />
</svg>