<svg xmlns="http://www.w3.org/2000/svg" width="300" height="300" viewBox="0 0 300 300">
<path d="M 110.0 109.5 L 110.0 109.5 L 109.5 109.5 L 109.0 109.0 L 110.0 109.0 L 113.0 110.0 L 118.5 112.5 L 122.0 115.5 " stroke="black" fill="none" stroke-width="7.0" stroke-linecap="round" stroke-linejoin="round" />
<path d="M 109.5 146.5 L 109.5 148.0 L 109.0 149.0 L 110.5 149.5 L 114.5 149.0 L 120.0 147.0 L 124.0 146.0 " stroke="black" fill="none" stroke-width="7.0" stroke-linecap="round" stroke-linejoin="round" />
<path d="M 108.5 203.0 L 106.0 207.0 L 105.5 207.0 L 108.5 201.5 L 114.0 189.5 L 124.5 170.5 L 129.0 159.0 " stroke="black" fill="none" stroke-width="7.0" stroke-linecap="round" stroke-linejoin="round" />
<path d="M 148.0 134.5 L 147.0 135.0 L 145.5 136.0 L 144.0 137.0 L 143.5 137.0 L 143.0 137.0 L 145.0 137.0 L 149.5 135.0 L 157.5 131.0 L 169.5 126.0 L 179.0 122.0 L 185.0 120.0 L 187.5 119.5 L 187.0 119.5 " stroke="black" fill="none" stroke-width="7.0" stroke-linecap="round" stroke-linejoin="round" />
<path d="M 152.0 108.0 L 152.0 108.0 L 152.0 108.5 L 152.5 113.5 L 152.5 127.5 L 152.5 145.0 L 152.5 157.5 L 153.0 164.0 L 154.0 165.0 " stroke="black" fill="none" stroke-width="7.0" stroke-linecap="round" stroke-linejoin="round" />
<path d="M 173.0 97.0 L 173.0 97.0 L 173.0 96.5 L 173.0 98.5 L 173.0 107.5 L 174.0 125.0 L 174.5 143.5 L 174.5 156.5 L 174.5 163.0 " stroke="black" fill="none" stroke-width="7.0" stroke-linecap="round" stroke-linejoin="round" />
<path d="M 137.5 172.5 L 134.0 173.0 L 132.5 173.0 L 132.5 173.0 L 136.5 173.0 L 144.5 172.0 L 154.0 169.5 L 164.0 167.0 L 180.5 161.5 L 190.0 158.5 L 193.5 158.0 " stroke="black" fill="none" stroke-width="7.0" stroke-linecap="round" stroke-linejoin="round" />
<path d="M 166.0 170.0 L 166.0 170.0 L 166.0 169.0 L 166.0 168.5 L 165.5 167.5 L 164.5 168.0 L 160.5 173.0 L 153.0 184.0 L 144.5 196.0 L 137.5 204.0 L 134.5 206.0 L 134.5 206.0 " stroke="black" fill="none" stroke-width="7.0" stroke-linecap="round" stroke-linejoin="round" />
<path d="M 163.0 171.0 L 162.5 171.0 L 162.5 171.0 L 166.0 175.0 L 172.5 183.0 L 181.5 194.0 L 190.0 203.5 L 193.5 208.5 L 194.5 211.0 " stroke="black" fill="none" stroke-width="7.0" stroke-linecap="round" stroke-linejoin="round" />
</svg>