<svg xmlns="http://www.w3.org/2000/svg" width="300" height="300" viewBox="0 0 300 300">
<path d="M 120.0 111.5 L 119.0 111.5 L 119.5 113.0 L 122.5 114.5 L 126.5 116.5 L 130.0 119.0 " stroke="black" fill="none" stroke-width="7.0" stroke-linecap="round" stroke-linejoin="round" />
<path d="M 116.5 153.0 L 115.0 155.0 L 115.0 156.0 L 117.5 155.5 L 122.0 152.0 L 126.5 147.5 L 129.5 144.5 " stroke="black" fill="none" stroke-width="7.0" stroke-linecap="round" stroke-linejoin="round" />
<path d="M 113.5 195.5 L 110.5 200.5 L 110.0 202.5 L 111.0 201.5 L 114.5 194.5 L 121.0 185.0 L 129.5 170.0 L 134.5 161.0 " stroke="black" fill="none" stroke-width="7.0" stroke-linecap="round" stroke-linejoin="round" />
<path d="M 151.5 109.0 L 150.5 109.5 L 149.5 110.0 L 150.0 110.5 L 154.5 110.0 L 163.0 107.0 L 172.0 103.0 L 179.0 99.0 L 180.0 98.5 " stroke="black" fill="none" stroke-width="7.0" stroke-linecap="round" stroke-linejoin="round" />
<path d="M 152.0 119.0 L 152.0 120.0 L 151.0 122.0 L 150.0 125.5 L 148.5 129.5 L 146.5 133.5 L 144.5 136.0 L 142.5 138.0 L 142.0 138.5 L 142.0 138.5 L 143.5 138.5 L 145.5 138.5 L 148.5 138.5 L 151.0 139.5 L 153.5 140.5 " stroke="black" fill="none" stroke-width="7.0" stroke-linecap="round" stroke-linejoin="round" />
<path d="M 169.0 118.5 L 168.5 119.0 L 167.5 121.0 L 166.5 123.5 L 165.0 127.0 L 163.5 130.5 L 162.5 132.0 L 162.5 132.5 L 163.0 132.5 L 165.0 133.0 L 167.5 133.5 L 170.0 133.5 " stroke="black" fill="none" stroke-width="7.0" stroke-linecap="round" stroke-linejoin="round" />
<path d="M 184.5 115.5 L 184.5 116.0 L 183.0 118.0 L 181.5 121.5 L 180.0 124.5 L 179.0 127.5 L 178.5 129.5 L 180.0 131.0 L 182.5 131.5 L 185.0 132.0 L 187.0 132.5 " stroke="black" fill="none" stroke-width="7.0" stroke-linecap="round" stroke-linejoin="round" />
<path d="M 152.0 160.0 L 150.5 161.0 L 149.5 162.5 L 149.5 163.0 L 153.0 162.0 L 158.5 159.5 L 166.5 156.0 L 173.0 153.0 L 174.5 152.0 " stroke="black" fill="none" stroke-width="7.0" stroke-linecap="round" stroke-linejoin="round" />
<path d="M 167.5 159.0 L 166.5 160.0 L 166.0 163.5 L 166.0 168.0 L 166.0 173.5 L 165.5 180.0 L 165.0 184.0 " stroke="black" fill="none" stroke-width="7.0" stroke-linecap="round" stroke-linejoin="round" />
<path d="M 144.0 190.5 L 143.5 191.0 L 141.5 191.0 L 140.5 191.5 L 141.0 192.0 L 145.0 192.0 L 151.0 190.0 L 159.5 187.5 L 172.0 184.0 L 183.0 182.5 L 190.5 183.5 L 192.0 185.5 " stroke="black" fill="none" stroke-width="7.0" stroke-linecap="round" stroke-linejoin="round" />
</svg>