<svg xmlns="http://www.w3.org/2000/svg" width="300" height="300" viewBox="0 0 300 300">
<path d="M 118.0 115.0 L 117.5 115.5 L 116.0 116.0 L 116.0 116.5 L 119.5 117.5 L 124.5 118.0 L 128.0 118.5 " stroke="black" fill="none" stroke-width="7.0" stroke-linecap="round" stroke-linejoin="round" />
<path d="M 110.5 155.0 L 110.5 155.5 L 110.0 157.0 L 112.0 157.5 L 117.0 155.5 L 123.5 151.0 L 128.5 147.5 " stroke="black" fill="none" stroke-width="7.0" stroke-linecap="round" stroke-linejoin="round" />
<path d="M 112.0 193.5 L 110.5 195.0 L 108.0 199.5 L 108.0 201.0 L 110.5 198.5 L 116.0 190.0 L 124.5 178.0 L 132.5 165.0 " stroke="black" fill="none" stroke-width="7.0" stroke-linecap="round" stroke-linejoin="round" />
<path d="M 165.0 97.5 L 165.5 97.0 L 165.5 96.5 L 165.0 98.5 L 162.0 106.5 L 155.5 119.5 L 150.5 129.5 L 148.5 133.0 " stroke="black" fill="none" stroke-width="7.0" stroke-linecap="round" stroke-linejoin="round" />
<path d="M 156.5 120.0 L 159.5 117.5 L 164.5 116.0 L 170.0 114.0 L 174.0 110.5 L 178.0 108.0 L 180.0 108.0 L 180.0 110.5 L 178.0 115.5 L 174.5 122.0 L 170.5 130.0 L 165.0 141.0 L 156.5 153.0 L 149.0 164.0 L 143.5 170.5 L 138.0 172.5 L 136.0 172.0 " stroke="black" fill="none" stroke-width="7.0" stroke-linecap="round" stroke-linejoin="round" />
<path d="M 149.5 139.0 L 150.0 138.0 L 152.0 137.0 L 157.0 138.5 L 164.5 142.5 L 173.0 147.0 L 181.0 150.0 L 188.5 152.0 L 193.5 153.0 L 194.0 153.0 " stroke="black" fill="none" stroke-width="7.0" stroke-linecap="round" stroke-linejoin="round" />
<path d="M 150.5 176.5 L 149.5 177.0 L 149.5 178.5 L 150.0 182.5 L 152.5 188.0 L 154.5 192.0 L 156.5 194.0 L 157.0 194.0 " stroke="black" fill="none" stroke-width="7.0" stroke-linecap="round" stroke-linejoin="round" />
<path d="M 159.0 177.0 L 159.0 176.5 L 160.0 175.0 L 163.5 173.0 L 169.0 171.0 L 174.5 170.0 L 178.0 170.0 L 179.5 173.0 L 179.0 178.0 L 176.0 183.5 L 172.5 189.0 L 169.0 193.0 L 166.0 195.0 L 163.5 196.0 L 163.0 196.0 L 164.0 195.5 L 168.0 194.0 L 172.5 192.5 L 178.0 191.5 L 179.5 191.0 " stroke="black" fill="none" stroke-width="7.0" stroke-linecap="round" stroke-linejoin="round" />
</svg>