<svg xmlns="http://www.w3.org/2000/svg" width="300" height="300" viewBox="0 0 300 300">
<path d="M 99.5 110.0 L 98.5 109.5 L 98.0 108.5 L 99.5 108.0 L 102.5 110.0 L 106.0 112.0 L 107.5 113.5 " stroke="black" fill="none" stroke-width="7.0" stroke-linecap="round" stroke-linejoin="round" />
<path d="M 97.5 144.0 L 95.0 146.5 L 94.5 148.0 L 95.5 148.5 L 99.0 147.5 L 103.5 144.5 L 107.5 141.5 " stroke="black" fill="none" stroke-width="7.0" stroke-linecap="round" stroke-linejoin="round" />
<path d="M 99.0 203.0 L 97.0 205.0 L 95.5 206.5 L 95.5 206.0 L 98.5 199.5 L 103.0 188.0 L 110.0 170.5 L 112.0 166.0 " stroke="black" fill="none" stroke-width="7.0" stroke-linecap="round" stroke-linejoin="round" />
<path d="M 128.5 108.0 L 128.5 107.0 L 128.5 105.5 L 128.5 104.5 L 128.5 105.5 L 129.0 111.5 L 130.0 123.0 L 130.0 142.0 L 128.0 165.5 L 123.5 185.5 L 118.0 199.0 L 113.0 207.5 L 111.0 209.0 " stroke="black" fill="none" stroke-width="7.0" stroke-linecap="round" stroke-linejoin="round" />
<path d="M 150.5 103.0 L 150.5 103.0 L 150.0 103.0 L 150.0 105.0 L 150.5 111.5 L 151.0 120.0 L 151.0 125.5 " stroke="black" fill="none" stroke-width="7.0" stroke-linecap="round" stroke-linejoin="round" />
<path d="M 135.0 134.0 L 134.5 134.0 L 134.0 133.5 L 134.5 133.0 L 137.5 132.5 L 143.0 131.0 L 149.0 129.0 L 151.5 128.5 " stroke="black" fill="none" stroke-width="7.0" stroke-linecap="round" stroke-linejoin="round" />
<path d="M 132.0 155.5 L 131.5 156.0 L 131.0 156.0 L 130.5 156.5 L 130.5 156.5 L 132.5 156.0 L 137.5 154.5 L 145.5 151.5 L 155.0 148.0 L 165.5 144.5 L 173.5 142.5 L 177.5 141.5 L 179.5 141.5 L 179.5 141.5 " stroke="black" fill="none" stroke-width="7.0" stroke-linecap="round" stroke-linejoin="round" />
<path d="M 130.0 176.0 L 129.0 176.5 L 128.0 177.5 L 127.0 178.0 L 126.5 178.0 L 127.0 178.0 L 128.5 177.5 L 131.5 176.5 L 135.5 175.0 L 140.0 173.5 L 144.0 171.5 L 147.0 171.0 L 147.5 172.5 L 147.5 178.0 L 146.0 186.0 L 144.5 194.5 L 143.0 202.0 L 143.0 206.0 " stroke="black" fill="none" stroke-width="7.0" stroke-linecap="round" stroke-linejoin="round" />
<path d="M 168.5 103.0 L 168.5 103.0 L 168.5 103.0 L 168.0 103.0 L 168.0 104.5 L 168.0 107.0 L 168.5 112.0 L 168.5 117.5 L 168.0 122.0 L 167.5 124.5 L 167.0 125.5 L 167.0 125.5 L 168.0 125.5 L 170.0 125.0 L 172.5 123.5 L 176.0 121.5 L 180.0 120.0 L 181.5 119.5 " stroke="black" fill="none" stroke-width="7.0" stroke-linecap="round" stroke-linejoin="round" />
<path d="M 187.0 88.5 L 186.5 88.5 L 186.0 88.5 L 186.0 90.0 L 186.0 95.0 L 186.5 106.5 L 187.5 124.5 L 188.0 146.0 L 188.0 167.0 L 188.0 182.5 L 188.0 195.0 L 188.0 206.0 L 188.0 211.0 " stroke="black" fill="none" stroke-width="7.0" stroke-linecap="round" stroke-linejoin="round" />
<path d="M 164.0 167.5 L 164.0 167.5 L 163.0 168.0 L 162.5 168.5 L 162.5 169.5 L 164.5 169.5 L 169.0 167.5 L 174.5 164.5 L 179.0 160.5 L 182.0 158.5 L 182.0 158.5 " stroke="black" fill="none" stroke-width="7.0" stroke-linecap="round" stroke-linejoin="round" />
<path d="M 165.5 170.5 L 165.5 170.0 L 165.0 169.5 L 165.0 171.5 L 164.5 177.5 L 164.0 187.0 L 162.0 197.5 L 160.5 203.5 " stroke="black" fill="none" stroke-width="7.0" stroke-linecap="round" stroke-linejoin="round" />
</svg>