<svg xmlns="http://www.w3.org/2000/svg" width="300" height="300" viewBox="0 0 300 300">
<path d="M 116.5 113.5 L 114.5 113.5 L 113.5 113.5 L 115.0 114.0 L 120.0 114.5 L 125.0 115.0 L 127.5 115.5 " stroke="black" fill="none" stroke-width="7.0" stroke-linecap="round" stroke-linejoin="round" />
<path d="M 111.5 150.0 L 111.0 151.5 L 110.5 153.0 L 112.0 153.0 L 116.0 152.0 L 121.5 148.0 L 127.0 144.5 L 128.0 143.5 " stroke="black" fill="none" stroke-width="7.0" stroke-linecap="round" stroke-linejoin="round" />
<path d="M 112.5 188.0 L 111.5 190.0 L 108.5 195.0 L 108.0 197.0 L 109.0 195.0 L 114.0 186.5 L 121.5 174.5 L 131.0 159.0 L 133.5 155.0 " stroke="black" fill="none" stroke-width="7.0" stroke-linecap="round" stroke-linejoin="round" />
<path d="M 169.5 94.0 L 169.5 93.0 L 170.0 92.0 L 170.0 91.5 L 169.0 92.5 L 164.0 96.5 L 156.5 102.5 L 152.0 106.0 " stroke="black" fill="none" stroke-width="7.0" stroke-linecap="round" stroke-linejoin="round" />
<path d="M 142.5 121.0 L 141.5 121.0 L 141.0 121.0 L 142.5 122.0 L 145.5 123.0 L 149.0 124.0 L 151.5 125.0 " stroke="black" fill="none" stroke-width="7.0" stroke-linecap="round" stroke-linejoin="round" />
<path d="M 158.0 114.5 L 158.0 114.5 L 158.0 114.0 L 158.0 114.0 L 160.0 115.0 L 162.0 116.0 " stroke="black" fill="none" stroke-width="7.0" stroke-linecap="round" stroke-linejoin="round" />
<path d="M 175.5 107.0 L 175.5 107.0 L 175.5 107.0 L 175.0 108.0 L 174.0 112.0 L 171.5 119.5 L 170.5 121.5 " stroke="black" fill="none" stroke-width="7.0" stroke-linecap="round" stroke-linejoin="round" />
<path d="M 152.0 140.0 L 151.0 140.0 L 149.5 140.0 L 149.0 140.0 L 150.0 140.0 L 153.0 139.0 L 158.0 138.0 L 164.0 137.0 L 169.0 136.5 L 171.5 136.5 L 172.0 138.5 L 171.0 142.5 L 168.5 147.0 L 165.0 151.5 L 162.0 155.0 L 159.5 157.0 L 159.0 158.0 L 159.5 159.5 L 161.5 161.0 L 163.5 164.0 L 165.0 168.5 L 166.5 175.0 L 167.5 183.0 L 168.0 189.5 L 167.5 194.5 L 165.5 198.0 L 161.5 201.0 L 156.5 201.0 L 152.0 197.0 L 148.5 190.5 L 147.5 187.5 " stroke="black" fill="none" stroke-width="7.0" stroke-linecap="round" stroke-linejoin="round" />
<path d="M 133.5 174.0 L 132.5 174.5 L 129.5 175.0 L 129.5 175.0 L 130.5 175.5 L 135.0 175.5 L 145.0 174.5 L 156.5 171.5 L 171.5 167.0 L 184.5 164.0 L 193.0 163.0 L 196.5 165.0 " stroke="black" fill="none" stroke-width="7.0" stroke-linecap="round" stroke-linejoin="round" />
</svg>