<svg xmlns="http://www.w3.org/2000/svg" width="300" height="300" viewBox="0 0 300 300">
<path d="M 114.5 113.5 L 114.0 113.5 L 113.5 114.0 L 115.0 114.0 L 119.5 115.0 L 125.0 116.5 L 126.0 117.0 " stroke="black" fill="none" stroke-width="7.0" stroke-linecap="round" stroke-linejoin="round" />
<path d="M 112.5 159.0 L 112.0 160.0 L 111.5 162.0 L 112.5 162.0 L 116.5 159.5 L 122.0 154.5 L 126.0 151.0 " stroke="black" fill="none" stroke-width="7.0" stroke-linecap="round" stroke-linejoin="round" />
<path d="M 111.5 206.5 L 109.0 210.0 L 108.5 210.5 L 113.0 204.5 L 120.0 192.5 L 129.0 172.5 L 133.5 162.5 " stroke="black" fill="none" stroke-width="7.0" stroke-linecap="round" stroke-linejoin="round" />
<path d="M 159.5 100.5 L 160.0 100.0 L 160.0 99.5 L 160.5 99.5 L 160.5 102.5 L 159.5 107.0 L 158.0 113.0 L 155.5 118.5 L 153.0 122.0 L 152.5 123.0 L 152.5 123.0 L 155.0 121.5 L 160.0 119.0 L 167.5 115.5 L 174.0 112.0 L 177.5 110.0 L 179.0 109.0 L 179.0 109.0 " stroke="black" fill="none" stroke-width="7.0" stroke-linecap="round" stroke-linejoin="round" />
<path d="M 148.0 147.0 L 148.0 148.0 L 147.5 150.5 L 147.0 155.0 L 146.5 162.5 L 145.5 171.0 L 145.0 180.0 L 144.5 187.5 L 144.5 191.5 L 146.0 193.5 L 148.0 195.0 L 151.5 195.0 L 156.5 193.5 L 165.0 190.0 L 174.0 186.5 L 180.5 184.0 L 186.5 182.5 L 190.5 181.5 L 192.0 181.0 L 192.0 180.0 L 192.0 178.0 " stroke="black" fill="none" stroke-width="7.0" stroke-linecap="round" stroke-linejoin="round" />
<path d="M 152.0 140.5 L 152.0 140.5 L 151.0 140.5 L 151.0 140.5 L 151.0 140.5 L 153.0 139.5 L 157.0 139.0 L 162.0 137.0 L 167.5 135.0 L 172.0 132.5 L 174.5 131.0 L 176.0 129.5 L 176.5 129.5 L 177.5 129.5 L 178.0 129.5 L 179.0 129.5 L 179.5 130.5 L 180.5 133.0 L 181.0 137.0 L 181.0 143.5 L 181.0 153.5 L 180.5 167.5 L 180.0 183.5 L 180.0 198.5 L 179.5 211.5 L 178.5 221.0 L 177.5 227.5 L 175.5 230.0 L 173.5 230.5 L 170.5 227.5 L 167.0 221.5 L 165.0 214.5 " stroke="black" fill="none" stroke-width="7.0" stroke-linecap="round" stroke-linejoin="round" />
<path d="M 163.0 146.5 L 162.5 146.5 L 161.0 147.5 L 160.5 148.0 L 162.0 149.0 L 164.5 150.5 L 166.0 151.0 " stroke="black" fill="none" stroke-width="7.0" stroke-linecap="round" stroke-linejoin="round" />
<path d="M 162.0 170.0 L 162.0 172.0 L 162.0 175.5 L 164.0 179.5 L 166.0 184.0 L 167.0 187.5 L 167.0 189.5 L 167.0 190.0 " stroke="black" fill="none" stroke-width="7.0" stroke-linecap="round" stroke-linejoin="round" />
<path d="M 137.0 171.5 L 134.5 173.0 L 134.0 174.0 L 134.5 174.5 L 138.0 174.0 L 145.0 171.5 L 153.5 168.0 L 165.5 163.5 L 177.5 159.0 L 187.5 155.5 L 194.0 154.0 L 195.5 153.5 " stroke="black" fill="none" stroke-width="7.0" stroke-linecap="round" stroke-linejoin="round" />
</svg>