<svg xmlns="http://www.w3.org/2000/svg" width="300" height="300" viewBox="0 0 300 300">
<path d="M 119.0 109.0 L 118.5 109.0 L 117.0 109.0 L 117.0 109.0 L 118.5 109.5 L 122.0 110.0 L 125.5 111.0 L 126.0 111.0 " stroke="black" fill="none" stroke-width="7.0" stroke-linecap="round" stroke-linejoin="round" />
<path d="M 115.5 143.0 L 113.5 145.0 L 113.5 146.0 L 115.5 146.5 L 119.5 144.5 L 124.0 141.5 L 128.0 138.5 L 128.5 138.0 " stroke="black" fill="none" stroke-width="7.0" stroke-linecap="round" stroke-linejoin="round" />
<path d="M 111.0 196.5 L 109.0 199.5 L 108.5 201.5 L 110.0 200.0 L 113.5 194.0 L 119.5 184.5 L 127.5 170.5 L 129.5 166.5 " stroke="black" fill="none" stroke-width="7.0" stroke-linecap="round" stroke-linejoin="round" />
<path d="M 146.0 114.0 L 145.5 114.0 L 145.5 115.5 L 146.0 118.5 L 148.0 122.0 L 150.0 125.0 L 151.5 126.5 L 151.5 126.5 " stroke="black" fill="none" stroke-width="7.0" stroke-linecap="round" stroke-linejoin="round" />
<path d="M 148.5 117.0 L 148.5 116.5 L 148.5 116.5 L 149.0 116.0 L 151.5 115.0 L 158.0 112.5 L 168.5 108.5 L 177.0 105.0 L 184.5 102.5 L 190.0 102.5 L 191.5 103.5 L 192.0 106.5 L 190.0 112.0 L 187.0 118.0 L 184.5 122.0 " stroke="black" fill="none" stroke-width="7.0" stroke-linecap="round" stroke-linejoin="round" />
<path d="M 162.0 115.5 L 162.0 116.5 L 161.5 119.0 L 161.0 124.0 L 161.0 129.0 L 161.0 132.5 " stroke="black" fill="none" stroke-width="7.0" stroke-linecap="round" stroke-linejoin="round" />
<path d="M 171.0 114.0 L 171.0 114.5 L 171.5 115.5 L 172.5 118.5 L 174.0 123.5 L 176.0 129.5 L 176.5 131.0 " stroke="black" fill="none" stroke-width="7.0" stroke-linecap="round" stroke-linejoin="round" />
<path d="M 145.0 161.0 L 144.0 161.5 L 142.0 162.0 L 141.5 163.0 L 144.0 163.0 L 149.0 161.0 L 157.0 156.0 L 168.5 149.5 L 176.5 145.0 L 180.0 143.0 L 180.0 143.0 " stroke="black" fill="none" stroke-width="7.0" stroke-linecap="round" stroke-linejoin="round" />
<path d="M 168.5 137.5 L 168.5 137.0 L 168.0 135.0 L 168.0 134.5 L 168.0 136.5 L 168.5 145.0 L 169.0 161.0 L 169.0 181.5 L 167.5 195.5 L 166.0 203.5 L 165.5 205.0 L 165.5 203.5 L 165.5 199.0 " stroke="black" fill="none" stroke-width="7.0" stroke-linecap="round" stroke-linejoin="round" />
<path d="M 168.5 156.5 L 168.5 155.0 L 168.5 153.0 L 168.5 153.0 L 168.0 154.5 L 166.0 159.5 L 162.5 166.5 L 156.5 176.0 L 149.5 186.0 L 144.0 191.5 L 141.5 192.5 " stroke="black" fill="none" stroke-width="7.0" stroke-linecap="round" stroke-linejoin="round" />
<path d="M 169.5 158.0 L 171.0 159.5 L 174.5 163.5 L 178.5 170.5 L 184.0 179.0 L 190.0 186.5 L 194.5 190.0 L 199.0 192.5 " stroke="black" fill="none" stroke-width="7.0" stroke-linecap="round" stroke-linejoin="round" />
</svg>