<svg xmlns="http://www.w3.org/2000/svg" width="300" height="300" viewBox="0 0 300 300">
<path d="M 122.0 112.5 L 121.0 112.5 L 120.5 112.5 L 121.0 113.0 L 123.5 114.0 L 126.5 115.0 L 127.5 115.5 " stroke="black" fill="none" stroke-width="7.0" stroke-linecap="round" stroke-linejoin="round" />
<path d="M 117.5 147.5 L 116.5 149.0 L 115.5 150.5 L 116.5 151.0 L 120.0 149.0 L 124.5 144.5 L 129.0 140.0 L 130.0 139.0 " stroke="black" fill="none" stroke-width="7.0" stroke-linecap="round" stroke-linejoin="round" />
<path d="M 117.0 187.0 L 115.5 189.0 L 112.5 195.5 L 112.0 198.0 L 114.0 196.0 L 118.0 189.0 L 124.5 178.0 L 132.0 163.5 " stroke="black" fill="none" stroke-width="7.0" stroke-linecap="round" stroke-linejoin="round" />
<path d="M 149.5 127.0 L 149.0 127.5 L 147.5 128.0 L 147.5 128.0 L 150.0 127.0 L 155.5 123.5 L 163.0 119.0 L 171.0 114.5 L 173.0 113.0 " stroke="black" fill="none" stroke-width="7.0" stroke-linecap="round" stroke-linejoin="round" />
<path d="M 163.0 101.5 L 163.0 101.0 L 163.0 100.5 L 163.0 100.5 L 163.0 103.0 L 162.0 109.0 L 160.5 119.0 L 157.0 131.5 L 153.0 142.5 L 150.0 148.5 L 149.0 151.0 L 148.0 152.5 L 148.0 152.5 L 148.0 152.0 L 149.5 150.5 L 152.0 149.0 L 155.0 147.0 L 159.5 145.0 L 165.5 143.0 L 171.5 140.5 L 175.5 138.5 L 176.0 138.0 " stroke="black" fill="none" stroke-width="7.0" stroke-linecap="round" stroke-linejoin="round" />
<path d="M 175.5 134.0 L 175.5 134.0 L 175.5 134.0 L 175.5 136.0 L 177.0 140.0 L 179.5 145.0 " stroke="black" fill="none" stroke-width="7.0" stroke-linecap="round" stroke-linejoin="round" />
<path d="M 146.5 164.0 L 146.5 163.0 L 147.0 161.5 L 147.5 162.0 L 147.5 167.0 L 146.5 176.5 L 145.0 187.0 L 143.0 195.0 L 142.5 197.5 " stroke="black" fill="none" stroke-width="7.0" stroke-linecap="round" stroke-linejoin="round" />
<path d="M 161.5 160.0 L 162.0 161.0 L 162.5 164.0 L 162.5 170.5 L 162.0 181.0 L 162.0 189.5 L 162.5 192.5 " stroke="black" fill="none" stroke-width="7.0" stroke-linecap="round" stroke-linejoin="round" />
<path d="M 175.5 161.0 L 176.0 162.5 L 176.0 165.0 L 176.5 170.0 L 176.5 177.0 L 177.5 183.5 L 179.0 187.5 L 181.5 189.5 L 185.0 190.0 L 189.0 190.0 L 193.5 189.5 L 197.0 188.5 L 201.0 188.0 L 204.5 187.0 L 205.5 187.0 " stroke="black" fill="none" stroke-width="7.0" stroke-linecap="round" stroke-linejoin="round" />
</svg>