<svg xmlns="http://www.w3.org/2000/svg" width="300" height="300" viewBox="0 0 300 300">
<path d="M 117.5 111.5 L 117.0 111.5 L 115.5 112.0 L 115.0 112.0 L 117.5 112.0 L 121.0 113.5 L 125.5 115.5 L 126.0 116.5 " stroke="black" fill="none" stroke-width="7.0" stroke-linecap="round" stroke-linejoin="round" />
<path d="M 115.0 147.0 L 114.0 147.5 L 113.5 148.0 L 115.5 147.0 L 119.5 145.0 L 123.0 143.5 L 124.5 143.5 " stroke="black" fill="none" stroke-width="7.0" stroke-linecap="round" stroke-linejoin="round" />
<path d="M 113.0 192.0 L 112.0 195.0 L 110.5 198.5 L 111.0 199.0 L 114.5 194.0 L 120.5 184.0 L 127.0 170.0 L 128.5 165.5 " stroke="black" fill="none" stroke-width="7.0" stroke-linecap="round" stroke-linejoin="round" />
<path d="M 151.5 114.5 L 151.5 114.5 L 151.0 115.0 L 151.5 115.5 L 153.0 116.0 L 157.0 117.0 " stroke="black" fill="none" stroke-width="7.0" stroke-linecap="round" stroke-linejoin="round" />
<path d="M 176.5 103.0 L 177.0 103.0 L 177.5 102.5 L 178.5 102.0 L 179.0 102.0 L 178.5 104.5 L 176.5 108.0 L 175.0 110.0 " stroke="black" fill="none" stroke-width="7.0" stroke-linecap="round" stroke-linejoin="round" />
<path d="M 167.5 84.0 L 167.5 83.0 L 167.0 82.0 L 167.0 82.0 L 167.0 85.0 L 167.5 93.0 L 167.5 105.0 L 164.5 119.5 L 158.5 131.0 L 152.5 139.0 L 148.5 143.0 L 147.5 143.0 " stroke="black" fill="none" stroke-width="7.0" stroke-linecap="round" stroke-linejoin="round" />
<path d="M 163.5 125.0 L 165.5 126.0 L 169.0 128.0 L 173.0 131.0 L 177.0 134.0 L 181.5 137.0 L 184.5 139.0 L 185.0 139.5 " stroke="black" fill="none" stroke-width="7.0" stroke-linecap="round" stroke-linejoin="round" />
<path d="M 148.0 166.5 L 147.0 167.0 L 146.0 167.0 L 146.5 167.5 L 148.5 167.5 L 151.5 167.5 L 152.5 167.5 " stroke="black" fill="none" stroke-width="7.0" stroke-linecap="round" stroke-linejoin="round" />
<path d="M 178.5 152.0 L 179.0 152.0 L 181.0 151.0 L 182.5 151.0 L 182.5 152.5 L 181.0 155.5 L 178.5 159.0 L 176.0 161.5 " stroke="black" fill="none" stroke-width="7.0" stroke-linecap="round" stroke-linejoin="round" />
<path d="M 166.0 145.0 L 166.0 144.5 L 166.5 143.5 L 166.5 142.5 L 166.5 142.0 L 166.5 143.5 L 166.5 149.0 L 165.5 159.0 L 161.5 172.0 L 155.0 184.5 L 149.5 191.5 L 145.5 194.5 L 143.5 194.5 " stroke="black" fill="none" stroke-width="7.0" stroke-linecap="round" stroke-linejoin="round" />
<path d="M 160.5 177.0 L 161.5 177.5 L 163.5 179.0 L 166.5 181.5 L 171.0 184.5 L 177.0 188.5 L 184.5 192.5 L 191.0 196.0 L 195.0 199.5 L 196.0 201.0 " stroke="black" fill="none" stroke-width="7.0" stroke-linecap="round" stroke-linejoin="round" />
</svg>