<svg xmlns="http://www.w3.org/2000/svg" width="300" height="300" viewBox="0 0 300 300">
<path d="M 124.0 114.0 L 121.5 114.5 L 121.5 114.5 L 124.0 114.5 L 127.5 114.5 L 131.5 114.5 L 134.0 114.5 " stroke="black" fill="none" stroke-width="7.0" stroke-linecap="round" stroke-linejoin="round" />
<path d="M 120.0 147.0 L 120.0 147.5 L 119.5 148.5 L 121.5 148.5 L 124.0 147.0 L 128.5 143.5 L 130.5 141.5 " stroke="black" fill="none" stroke-width="7.0" stroke-linecap="round" stroke-linejoin="round" />
<path d="M 116.5 193.5 L 115.5 195.0 L 113.5 199.5 L 114.5 200.0 L 116.5 196.5 L 122.5 184.0 L 129.5 168.0 L 133.5 158.5 " stroke="black" fill="none" stroke-width="7.0" stroke-linecap="round" stroke-linejoin="round" />
<path d="M 150.0 109.5 L 150.0 109.5 L 149.5 109.0 L 149.5 109.0 L 150.5 112.5 L 152.5 118.5 L 154.0 123.5 L 154.5 126.0 L 155.0 126.5 " stroke="black" fill="none" stroke-width="7.0" stroke-linecap="round" stroke-linejoin="round" />
<path d="M 154.0 106.5 L 154.0 106.0 L 154.5 105.0 L 157.0 103.0 L 162.5 100.0 L 168.0 97.5 L 174.0 94.0 L 178.5 92.0 L 181.5 92.0 L 183.0 95.0 L 183.5 100.5 L 182.0 107.5 L 179.5 115.5 L 177.0 121.5 L 175.5 123.5 L 175.0 124.0 " stroke="black" fill="none" stroke-width="7.0" stroke-linecap="round" stroke-linejoin="round" />
<path d="M 160.0 114.0 L 159.0 114.5 L 157.5 115.5 L 158.0 115.5 L 159.5 115.5 L 164.5 114.5 L 168.0 112.5 L 172.0 110.0 L 174.0 108.5 " stroke="black" fill="none" stroke-width="7.0" stroke-linecap="round" stroke-linejoin="round" />
<path d="M 157.5 126.5 L 155.5 128.0 L 156.0 128.5 L 160.0 128.5 L 165.5 126.5 L 171.0 124.0 L 174.5 122.0 L 175.0 121.5 " stroke="black" fill="none" stroke-width="7.0" stroke-linecap="round" stroke-linejoin="round" />
<path d="M 146.5 144.5 L 145.0 145.0 L 144.5 146.0 L 146.0 146.0 L 150.0 144.5 L 157.5 141.5 L 167.5 136.5 L 174.5 132.5 L 177.5 131.0 L 177.5 131.5 " stroke="black" fill="none" stroke-width="7.0" stroke-linecap="round" stroke-linejoin="round" />
<path d="M 160.0 141.0 L 159.0 142.5 L 157.5 145.0 L 153.5 152.0 L 149.0 160.5 L 144.0 168.0 L 139.0 173.5 L 136.0 176.5 " stroke="black" fill="none" stroke-width="7.0" stroke-linecap="round" stroke-linejoin="round" />
<path d="M 150.5 160.5 L 151.0 160.0 L 154.5 156.5 L 161.0 152.5 L 169.0 149.0 L 173.5 147.5 L 180.0 146.5 L 184.5 146.5 L 187.0 148.0 L 189.0 153.0 L 190.0 159.0 L 190.0 165.5 L 189.0 172.5 L 187.0 180.0 L 185.0 185.5 L 180.5 192.5 L 176.0 196.0 L 172.5 196.5 L 169.0 193.5 L 168.5 192.0 " stroke="black" fill="none" stroke-width="7.0" stroke-linecap="round" stroke-linejoin="round" />
<path d="M 163.0 157.5 L 163.0 157.0 L 162.5 156.5 L 162.5 156.5 L 161.0 160.0 L 158.0 168.0 L 152.5 180.0 L 149.0 188.0 L 147.5 190.5 " stroke="black" fill="none" stroke-width="7.0" stroke-linecap="round" stroke-linejoin="round" />
<path d="M 174.0 153.5 L 174.0 153.5 L 174.0 153.5 L 174.0 155.5 L 173.0 163.5 L 169.0 176.5 L 163.0 188.0 L 157.5 195.5 " stroke="black" fill="none" stroke-width="7.0" stroke-linecap="round" stroke-linejoin="round" />
</svg>