<svg xmlns="http://www.w3.org/2000/svg" width="300" height="300" viewBox="0 0 300 300">
<path d="M 112.5 111.0 L 111.5 111.5 L 111.0 111.5 L 113.0 113.0 L 117.5 114.5 L 123.0 116.0 L 124.0 116.5 " stroke="black" fill="none" stroke-width="7.0" stroke-linecap="round" stroke-linejoin="round" />
<path d="M 113.0 158.0 L 112.0 159.0 L 111.5 159.5 L 113.0 158.5 L 116.5 154.0 L 121.0 147.5 L 125.0 143.5 " stroke="black" fill="none" stroke-width="7.0" stroke-linecap="round" stroke-linejoin="round" />
<path d="M 112.5 194.5 L 111.5 196.0 L 109.5 199.5 L 109.5 200.5 L 112.5 194.5 L 118.0 183.5 L 126.5 168.5 L 134.0 155.5 " stroke="black" fill="none" stroke-width="7.0" stroke-linecap="round" stroke-linejoin="round" />
<path d="M 148.5 120.0 L 148.0 120.0 L 146.0 121.0 L 144.5 121.5 L 144.5 121.5 L 147.0 121.5 L 153.0 119.0 L 161.5 115.0 L 172.0 109.0 L 179.5 104.5 L 183.0 103.5 " stroke="black" fill="none" stroke-width="7.0" stroke-linecap="round" stroke-linejoin="round" />
<path d="M 151.5 107.5 L 151.5 110.0 L 151.5 117.0 L 152.0 125.5 L 152.0 133.5 L 152.5 139.0 L 152.5 139.5 " stroke="black" fill="none" stroke-width="7.0" stroke-linecap="round" stroke-linejoin="round" />
<path d="M 169.5 94.5 L 169.5 95.0 L 169.5 97.5 L 169.5 105.5 L 169.0 116.5 L 168.5 126.0 L 167.5 129.0 " stroke="black" fill="none" stroke-width="7.0" stroke-linecap="round" stroke-linejoin="round" />
<path d="M 158.0 138.0 L 157.5 138.5 L 156.5 138.5 L 156.5 138.0 L 159.5 136.5 L 164.5 133.5 L 168.5 131.5 " stroke="black" fill="none" stroke-width="7.0" stroke-linecap="round" stroke-linejoin="round" />
<path d="M 137.0 159.5 L 136.5 159.0 L 136.0 158.5 L 135.5 159.5 L 135.0 164.5 L 135.0 174.0 L 135.5 186.5 L 136.5 194.5 L 137.5 197.0 L 138.5 196.0 " stroke="black" fill="none" stroke-width="7.0" stroke-linecap="round" stroke-linejoin="round" />
<path d="M 140.5 159.5 L 141.0 158.0 L 142.0 157.0 L 145.0 156.0 L 149.0 154.5 L 155.0 152.0 L 163.5 148.5 L 171.5 146.0 L 176.5 144.5 L 180.5 144.5 L 183.5 146.0 L 186.0 149.5 L 187.5 155.5 L 188.5 163.0 L 189.0 172.5 L 189.0 183.5 L 188.5 192.0 L 186.5 198.0 L 184.0 201.5 L 180.0 201.5 L 176.0 197.0 " stroke="black" fill="none" stroke-width="7.0" stroke-linecap="round" stroke-linejoin="round" />
<path d="M 161.0 144.5 L 160.0 143.0 L 159.0 142.5 L 159.0 147.5 L 160.0 159.0 L 160.5 174.5 L 160.5 189.5 L 160.5 196.0 L 161.0 198.0 " stroke="black" fill="none" stroke-width="7.0" stroke-linecap="round" stroke-linejoin="round" />
<path d="M 150.0 175.5 L 150.0 175.0 L 150.0 174.0 L 150.0 173.5 L 150.0 174.0 L 149.0 178.0 L 147.0 182.5 L 144.5 186.0 L 141.5 188.5 L 141.0 188.5 " stroke="black" fill="none" stroke-width="7.0" stroke-linecap="round" stroke-linejoin="round" />
<path d="M 147.0 164.0 L 146.5 163.5 L 146.0 163.5 L 146.0 164.0 L 148.0 168.0 L 151.5 175.0 L 156.0 181.0 " stroke="black" fill="none" stroke-width="7.0" stroke-linecap="round" stroke-linejoin="round" />
<path d="M 170.5 170.0 L 170.5 170.0 L 170.5 169.5 L 170.5 169.0 L 170.5 169.5 L 170.0 173.0 L 168.0 178.5 L 164.5 184.5 L 161.0 187.5 L 160.5 187.5 " stroke="black" fill="none" stroke-width="7.0" stroke-linecap="round" stroke-linejoin="round" />
<path d="M 165.5 154.0 L 165.5 153.5 L 165.5 153.0 L 166.5 154.0 L 170.0 159.5 L 174.5 169.0 L 179.0 179.5 L 183.5 186.5 L 184.0 187.0 " stroke="black" fill="none" stroke-width="7.0" stroke-linecap="round" stroke-linejoin="round" />
</svg>