<svg xmlns="http://www.w3.org/2000/svg" width="300" height="300" viewBox="0 0 300 300">
<path d="M 115.0 110.0 L 114.5 110.5 L 113.0 110.5 L 113.5 111.0 L 116.5 112.0 L 121.0 113.0 L 123.0 113.5 " stroke="black" fill="none" stroke-width="7.0" stroke-linecap="round" stroke-linejoin="round" />
<path d="M 112.0 147.5 L 110.0 149.0 L 109.0 151.0 L 109.5 151.5 L 112.5 150.0 L 117.0 146.0 L 122.5 141.5 L 125.0 139.5 " stroke="black" fill="none" stroke-width="7.0" stroke-linecap="round" stroke-linejoin="round" />
<path d="M 110.5 190.5 L 107.0 196.0 L 106.5 199.0 L 107.0 198.0 L 110.5 190.5 L 117.5 179.0 L 126.5 164.0 L 129.5 159.5 " stroke="black" fill="none" stroke-width="7.0" stroke-linecap="round" stroke-linejoin="round" />
<path d="M 142.0 108.0 L 142.0 108.0 L 141.5 109.0 L 142.0 112.5 L 144.0 119.0 L 146.0 127.0 L 147.0 132.5 L 148.0 134.0 L 148.0 134.0 " stroke="black" fill="none" stroke-width="7.0" stroke-linecap="round" stroke-linejoin="round" />
<path d="M 145.5 110.0 L 146.0 107.5 L 146.0 107.0 L 150.5 103.0 L 156.0 100.5 L 163.5 97.5 L 170.0 95.0 L 173.5 95.0 L 175.0 96.0 L 176.0 100.5 L 176.0 108.5 L 175.5 119.0 L 174.5 128.5 L 173.5 135.5 L 173.0 138.0 L 172.5 138.0 " stroke="black" fill="none" stroke-width="7.0" stroke-linecap="round" stroke-linejoin="round" />
<path d="M 160.0 110.0 L 160.5 110.0 L 160.5 110.0 L 160.5 111.0 L 159.0 115.0 L 156.5 120.5 L 153.0 127.0 L 152.5 128.0 " stroke="black" fill="none" stroke-width="7.0" stroke-linecap="round" stroke-linejoin="round" />
<path d="M 157.0 121.0 L 158.5 121.0 L 161.0 121.0 L 164.0 121.5 L 167.0 122.5 " stroke="black" fill="none" stroke-width="7.0" stroke-linecap="round" stroke-linejoin="round" />
<path d="M 150.0 140.5 L 149.5 140.5 L 148.5 140.5 L 148.5 140.5 L 150.0 140.5 L 155.0 139.0 L 162.0 137.0 L 170.0 136.0 " stroke="black" fill="none" stroke-width="7.0" stroke-linecap="round" stroke-linejoin="round" />
<path d="M 131.5 164.5 L 131.5 164.5 L 131.5 164.5 L 131.5 165.0 L 133.0 169.0 L 135.0 176.5 L 137.0 182.5 L 138.5 184.5 L 139.5 184.5 " stroke="black" fill="none" stroke-width="7.0" stroke-linecap="round" stroke-linejoin="round" />
<path d="M 139.5 163.0 L 140.0 162.0 L 141.0 160.5 L 144.0 159.5 L 149.0 158.5 L 157.0 156.0 L 167.0 152.5 L 174.5 149.5 L 178.5 149.5 L 181.5 152.5 L 183.5 157.0 L 183.5 163.0 L 181.5 169.5 L 178.5 176.0 L 175.0 181.0 L 172.5 184.0 L 172.0 184.0 " stroke="black" fill="none" stroke-width="7.0" stroke-linecap="round" stroke-linejoin="round" />
<path d="M 149.5 165.0 L 149.0 166.0 L 149.0 168.5 L 149.0 173.5 L 149.5 179.0 L 150.0 180.0 " stroke="black" fill="none" stroke-width="7.0" stroke-linecap="round" stroke-linejoin="round" />
<path d="M 161.5 157.5 L 161.5 157.5 L 162.0 157.0 L 162.5 159.0 L 162.0 166.0 L 160.5 174.5 L 159.0 183.0 " stroke="black" fill="none" stroke-width="7.0" stroke-linecap="round" stroke-linejoin="round" />
<path d="M 124.0 198.0 L 123.0 199.0 L 122.5 199.0 L 125.0 198.5 L 131.0 196.0 L 143.0 192.0 L 158.0 187.5 L 172.5 185.5 L 182.5 185.0 L 191.0 185.5 L 196.0 187.0 L 197.5 187.5 " stroke="black" fill="none" stroke-width="7.0" stroke-linecap="round" stroke-linejoin="round" />
</svg>