<svg xmlns="http://www.w3.org/2000/svg" width="300" height="300" viewBox="0 0 300 300">
<path d="M 115.5 114.5 L 114.5 115.0 L 113.0 115.5 L 113.5 116.0 L 117.5 117.5 L 122.5 118.5 L 127.0 118.5 L 128.0 119.0 " stroke="black" fill="none" stroke-width="7.0" stroke-linecap="round" stroke-linejoin="round" />
<path d="M 110.0 152.5 L 108.5 156.5 L 108.5 157.5 L 110.5 157.5 L 114.5 154.0 L 121.0 149.0 L 126.0 145.0 " stroke="black" fill="none" stroke-width="7.0" stroke-linecap="round" stroke-linejoin="round" />
<path d="M 110.0 197.0 L 108.0 202.5 L 106.5 204.5 L 107.5 203.5 L 111.5 195.5 L 118.5 184.0 L 128.5 167.5 L 131.0 163.0 " stroke="black" fill="none" stroke-width="7.0" stroke-linecap="round" stroke-linejoin="round" />
<path d="M 141.0 118.0 L 141.0 117.5 L 141.0 117.5 L 142.0 117.5 L 144.5 122.5 L 146.5 132.5 L 147.0 141.0 L 147.0 142.5 L 147.0 142.5 " stroke="black" fill="none" stroke-width="7.0" stroke-linecap="round" stroke-linejoin="round" />
<path d="M 145.5 118.5 L 145.5 118.0 L 145.0 116.5 L 146.5 114.5 L 150.0 111.5 L 157.5 108.0 L 167.5 104.5 L 174.0 103.5 L 177.5 103.5 L 180.0 105.5 L 180.5 110.5 L 180.5 118.0 L 178.5 126.0 L 176.5 132.5 L 174.5 137.5 L 173.0 140.0 L 172.5 140.0 " stroke="black" fill="none" stroke-width="7.0" stroke-linecap="round" stroke-linejoin="round" />
<path d="M 156.0 128.0 L 153.5 128.0 L 152.5 128.0 L 153.0 128.0 L 157.5 127.0 L 164.5 124.0 L 171.5 121.0 L 175.0 119.0 " stroke="black" fill="none" stroke-width="7.0" stroke-linecap="round" stroke-linejoin="round" />
<path d="M 164.5 110.5 L 164.0 113.0 L 164.0 118.0 L 164.0 125.5 L 163.5 132.5 L 163.0 137.5 " stroke="black" fill="none" stroke-width="7.0" stroke-linecap="round" stroke-linejoin="round" />
<path d="M 152.0 144.0 L 150.0 145.0 L 149.5 145.0 L 152.0 145.0 L 157.5 143.0 L 165.5 140.0 L 173.5 137.0 " stroke="black" fill="none" stroke-width="7.0" stroke-linecap="round" stroke-linejoin="round" />
<path d="M 145.0 160.0 L 145.0 159.5 L 145.0 158.0 L 145.0 158.0 L 146.0 163.5 L 146.5 175.0 L 146.0 189.5 L 144.0 202.0 L 142.0 207.0 L 142.0 206.5 " stroke="black" fill="none" stroke-width="7.0" stroke-linecap="round" stroke-linejoin="round" />
<path d="M 150.0 162.5 L 150.0 162.0 L 150.5 161.5 L 152.0 161.0 L 155.0 160.0 L 161.0 157.0 L 169.0 153.0 L 173.5 150.5 L 175.0 150.0 L 175.5 151.5 L 175.5 156.0 L 175.5 162.0 L 175.5 169.5 L 175.5 178.5 L 176.0 188.0 L 176.0 197.5 L 175.0 204.5 L 174.5 207.5 L 174.0 207.5 L 173.0 204.5 L 172.5 200.5 " stroke="black" fill="none" stroke-width="7.0" stroke-linecap="round" stroke-linejoin="round" />
<path d="M 153.5 171.5 L 151.5 172.5 L 151.0 173.0 L 152.5 173.5 L 157.5 172.5 L 163.5 170.5 L 169.0 168.5 L 171.0 168.0 " stroke="black" fill="none" stroke-width="7.0" stroke-linecap="round" stroke-linejoin="round" />
<path d="M 155.0 185.5 L 154.0 186.5 L 152.5 187.5 L 153.5 187.5 L 157.0 187.0 L 163.0 184.5 L 168.5 182.5 " stroke="black" fill="none" stroke-width="7.0" stroke-linecap="round" stroke-linejoin="round" />
</svg>