<svg xmlns="http://www.w3.org/2000/svg" width="300" height="300" viewBox="0 0 300 300">
<path d="M 107.0 106.5 L 106.0 106.0 L 105.5 105.5 L 106.0 105.5 L 108.0 106.5 L 112.0 108.5 L 115.5 111.0 L 117.5 113.5 " stroke="black" fill="none" stroke-width="7.0" stroke-linecap="round" stroke-linejoin="round" />
<path d="M 107.0 142.5 L 105.5 143.0 L 105.0 143.5 L 106.0 143.5 L 109.0 142.5 L 113.0 140.5 L 118.5 137.5 " stroke="black" fill="none" stroke-width="7.0" stroke-linecap="round" stroke-linejoin="round" />
<path d="M 102.0 197.0 L 101.0 198.5 L 99.0 201.5 L 99.5 202.0 L 102.5 197.0 L 106.5 187.5 L 113.0 174.0 L 121.0 160.5 L 124.0 156.0 " stroke="black" fill="none" stroke-width="7.0" stroke-linecap="round" stroke-linejoin="round" />
<path d="M 143.0 110.5 L 142.5 110.5 L 141.5 111.0 L 141.5 111.0 L 142.5 111.0 L 145.0 110.5 L 148.5 109.0 L 151.0 107.5 L 154.0 106.5 L 155.5 105.5 L 156.5 106.0 L 156.5 108.5 L 155.0 114.0 L 153.0 119.5 L 149.0 132.0 L 144.5 143.0 L 138.0 153.0 L 133.0 161.0 L 129.5 164.5 L 127.5 165.0 L 127.5 165.0 " stroke="black" fill="none" stroke-width="7.0" stroke-linecap="round" stroke-linejoin="round" />
<path d="M 133.0 126.5 L 133.0 126.5 L 132.5 126.5 L 133.0 127.0 L 136.0 128.5 L 140.5 131.0 L 144.0 132.0 " stroke="black" fill="none" stroke-width="7.0" stroke-linecap="round" stroke-linejoin="round" />
<path d="M 185.5 108.0 L 185.5 108.0 L 186.0 108.0 L 186.0 108.0 L 185.0 110.0 L 183.0 115.0 L 179.5 121.0 L 177.0 124.5 " stroke="black" fill="none" stroke-width="7.0" stroke-linecap="round" stroke-linejoin="round" />
<path d="M 194.5 114.5 L 194.5 114.5 L 195.0 115.5 L 195.0 117.0 L 194.0 120.5 L 191.0 126.0 L 187.0 131.5 " stroke="black" fill="none" stroke-width="7.0" stroke-linecap="round" stroke-linejoin="round" />
<path d="M 165.0 113.5 L 164.5 113.0 L 164.5 113.0 L 164.5 113.0 L 168.0 116.5 L 174.0 122.5 L 183.0 131.0 L 192.0 140.0 L 198.0 146.0 L 202.5 148.5 L 206.0 150.5 L 206.5 151.0 " stroke="black" fill="none" stroke-width="7.0" stroke-linecap="round" stroke-linejoin="round" />
<path d="M 155.5 148.0 L 154.5 148.5 L 153.5 148.5 L 153.0 148.5 L 155.0 148.5 L 160.5 146.5 L 167.0 144.5 L 172.5 142.0 " stroke="black" fill="none" stroke-width="7.0" stroke-linecap="round" stroke-linejoin="round" />
<path d="M 144.5 169.5 L 145.5 170.5 L 146.5 171.5 L 148.5 173.0 L 151.0 174.5 L 153.0 175.5 L 154.0 176.0 " stroke="black" fill="none" stroke-width="7.0" stroke-linecap="round" stroke-linejoin="round" />
<path d="M 151.0 168.5 L 151.0 168.5 L 151.5 167.5 L 153.0 166.5 L 157.5 164.0 L 165.5 161.0 L 171.5 158.5 L 174.5 157.0 L 175.0 158.0 L 174.5 161.0 L 172.5 165.0 L 170.0 169.0 L 166.5 173.0 L 161.5 177.0 L 157.5 179.5 L 155.5 180.0 L 155.5 180.0 L 157.5 178.0 L 162.5 175.0 L 167.5 172.5 L 172.0 170.0 L 173.5 169.5 " stroke="black" fill="none" stroke-width="7.0" stroke-linecap="round" stroke-linejoin="round" />
<path d="M 155.5 185.5 L 155.5 185.5 L 155.5 186.0 L 156.0 187.5 L 157.5 190.5 L 159.5 194.0 L 161.5 197.0 " stroke="black" fill="none" stroke-width="7.0" stroke-linecap="round" stroke-linejoin="round" />
<path d="M 170.5 177.5 L 170.5 176.5 L 170.5 176.0 L 170.5 178.5 L 170.0 183.5 L 169.0 189.0 L 168.0 193.0 " stroke="black" fill="none" stroke-width="7.0" stroke-linecap="round" stroke-linejoin="round" />
<path d="M 130.5 203.0 L 129.5 203.0 L 128.5 203.0 L 128.5 203.0 L 131.0 202.0 L 138.5 201.5 L 150.5 199.5 L 166.5 196.5 L 178.5 193.5 L 189.5 192.0 L 195.5 192.0 L 197.0 192.0 " stroke="black" fill="none" stroke-width="7.0" stroke-linecap="round" stroke-linejoin="round" />
</svg>