<svg xmlns="http://www.w3.org/2000/svg" width="300" height="300" viewBox="0 0 300 300">
<path d="M 115.5 110.0 L 115.0 110.5 L 115.0 111.0 L 118.0 111.0 L 122.5 111.5 L 124.5 112.0 " stroke="black" fill="none" stroke-width="7.0" stroke-linecap="round" stroke-linejoin="round" />
<path d="M 116.0 147.5 L 114.5 150.0 L 113.5 151.0 L 115.0 151.0 L 118.5 149.0 L 123.0 145.5 L 126.5 143.0 " stroke="black" fill="none" stroke-width="7.0" stroke-linecap="round" stroke-linejoin="round" />
<path d="M 117.0 187.5 L 113.5 192.5 L 112.5 194.5 L 112.5 195.0 L 114.5 190.5 L 119.5 182.0 L 126.0 169.0 L 127.5 165.0 " stroke="black" fill="none" stroke-width="7.0" stroke-linecap="round" stroke-linejoin="round" />
<path d="M 157.5 97.5 L 157.5 96.0 L 157.5 94.5 L 157.5 94.5 L 155.5 96.0 L 152.0 100.0 L 150.5 102.5 " stroke="black" fill="none" stroke-width="7.0" stroke-linecap="round" stroke-linejoin="round" />
<path d="M 144.0 119.0 L 143.5 119.0 L 142.5 119.5 L 142.5 119.5 L 144.5 119.0 L 148.0 117.0 L 151.5 114.5 L 158.0 110.5 L 161.0 109.0 " stroke="black" fill="none" stroke-width="7.0" stroke-linecap="round" stroke-linejoin="round" />
<path d="M 140.0 132.5 L 137.0 134.5 L 136.0 135.5 L 137.0 135.5 L 142.0 133.5 L 148.0 129.5 L 154.5 125.0 L 161.5 121.0 L 167.0 119.0 " stroke="black" fill="none" stroke-width="7.0" stroke-linecap="round" stroke-linejoin="round" />
<path d="M 152.5 86.5 L 152.5 87.0 L 152.5 89.0 L 153.0 95.0 L 154.0 108.0 L 153.5 125.0 L 152.5 135.5 L 151.5 145.5 L 151.5 146.0 " stroke="black" fill="none" stroke-width="7.0" stroke-linecap="round" stroke-linejoin="round" />
<path d="M 170.0 101.0 L 170.0 100.5 L 170.0 100.0 L 171.0 99.0 L 173.5 98.0 L 178.0 97.5 L 183.0 97.5 L 187.0 100.0 L 189.0 104.5 L 189.0 109.0 L 187.0 117.5 L 184.5 122.5 L 181.0 126.0 L 179.0 127.0 L 178.0 126.5 " stroke="black" fill="none" stroke-width="7.0" stroke-linecap="round" stroke-linejoin="round" />
<path d="M 175.0 104.0 L 175.0 104.0 L 174.5 104.0 L 174.0 105.0 L 173.5 110.0 L 172.0 118.5 L 169.5 128.0 L 167.5 132.0 " stroke="black" fill="none" stroke-width="7.0" stroke-linecap="round" stroke-linejoin="round" />
<path d="M 163.0 141.5 L 163.5 140.5 L 164.0 139.5 L 164.5 139.5 L 164.5 139.5 L 164.0 141.0 L 162.0 144.0 L 159.0 147.5 L 156.0 151.5 L 152.0 156.0 L 150.0 159.0 L 150.0 160.0 L 150.5 159.5 L 153.0 158.0 L 156.5 155.5 L 161.0 153.0 L 165.5 151.0 L 169.5 149.0 L 172.0 148.0 L 172.5 148.0 L 172.0 149.5 L 170.0 151.5 L 168.5 154.0 L 166.0 157.5 L 162.5 162.0 L 158.5 166.5 L 154.0 170.5 L 150.5 173.5 L 148.5 175.5 L 147.0 176.0 L 147.0 176.0 L 148.0 175.5 L 150.5 173.5 L 154.0 171.5 L 159.0 168.5 L 165.5 165.5 L 172.5 162.5 L 177.0 160.0 L 178.5 159.5 " stroke="black" fill="none" stroke-width="7.0" stroke-linecap="round" stroke-linejoin="round" />
<path d="M 167.5 166.5 L 167.5 167.0 L 166.5 169.5 L 166.5 173.0 L 166.5 178.5 L 166.5 185.5 L 166.5 192.5 L 166.0 197.5 L 165.0 201.0 L 163.0 203.0 L 161.5 203.0 L 159.5 202.0 L 157.5 199.0 L 154.5 193.5 L 152.0 188.0 " stroke="black" fill="none" stroke-width="7.0" stroke-linecap="round" stroke-linejoin="round" />
<path d="M 153.0 180.5 L 153.5 180.0 L 153.5 179.0 L 153.0 179.0 L 152.0 181.5 L 150.0 186.0 L 147.0 192.0 L 142.0 198.5 L 141.0 200.0 " stroke="black" fill="none" stroke-width="7.0" stroke-linecap="round" stroke-linejoin="round" />
<path d="M 175.0 180.0 L 175.5 180.5 L 178.0 182.5 L 181.0 186.0 L 184.0 190.5 L 187.0 195.0 L 188.5 198.5 " stroke="black" fill="none" stroke-width="7.0" stroke-linecap="round" stroke-linejoin="round" />
</svg>