<svg xmlns="http://www.w3.org/2000/svg" width="300" height="300" viewBox="0 0 300 300">
<path d="M 114.5 104.5 L 114.0 105.0 L 113.5 105.0 L 114.5 105.5 L 117.5 106.0 L 122.0 106.5 " stroke="black" fill="none" stroke-width="7.0" stroke-linecap="round" stroke-linejoin="round" />
<path d="M 112.0 138.5 L 112.0 139.5 L 111.5 141.0 L 112.0 141.0 L 114.5 140.0 L 118.0 137.0 L 121.5 134.0 L 124.5 132.5 " stroke="black" fill="none" stroke-width="7.0" stroke-linecap="round" stroke-linejoin="round" />
<path d="M 108.5 194.0 L 108.0 195.5 L 106.5 199.5 L 107.5 198.0 L 111.0 191.0 L 117.0 180.5 L 125.5 164.0 L 130.0 151.0 " stroke="black" fill="none" stroke-width="7.0" stroke-linecap="round" stroke-linejoin="round" />
<path d="M 144.0 104.5 L 143.5 105.0 L 142.0 105.5 L 141.0 106.0 L 141.0 106.5 L 143.5 106.5 L 147.5 105.0 L 152.5 102.5 L 158.0 99.5 L 162.0 97.0 L 163.5 96.5 " stroke="black" fill="none" stroke-width="7.0" stroke-linecap="round" stroke-linejoin="round" />
<path d="M 146.5 111.5 L 146.0 113.5 L 145.0 117.5 L 144.0 122.0 L 143.0 125.5 L 142.0 128.5 L 141.0 130.0 L 140.5 130.5 L 141.0 130.5 L 143.5 129.5 L 147.0 127.5 L 151.0 125.0 L 156.5 121.5 L 161.0 118.5 L 165.5 115.5 L 167.0 114.0 " stroke="black" fill="none" stroke-width="7.0" stroke-linecap="round" stroke-linejoin="round" />
<path d="M 157.5 104.5 L 157.5 104.0 L 157.5 104.0 L 157.5 104.0 L 156.5 108.0 L 154.5 117.5 L 151.0 131.5 L 146.5 143.5 L 142.5 150.5 L 140.0 153.0 " stroke="black" fill="none" stroke-width="7.0" stroke-linecap="round" stroke-linejoin="round" />
<path d="M 153.0 129.5 L 153.5 129.5 L 154.0 129.0 L 154.5 132.0 L 154.5 137.5 L 155.0 143.5 L 156.0 148.0 L 157.5 149.0 L 160.0 147.0 L 163.0 142.0 L 166.5 135.0 L 168.0 131.0 " stroke="black" fill="none" stroke-width="7.0" stroke-linecap="round" stroke-linejoin="round" />
<path d="M 177.5 100.0 L 177.0 100.0 L 176.5 100.0 L 176.5 100.0 L 179.0 99.5 L 183.5 98.0 L 188.5 96.5 L 192.0 95.0 " stroke="black" fill="none" stroke-width="7.0" stroke-linecap="round" stroke-linejoin="round" />
<path d="M 179.0 105.0 L 178.5 106.5 L 177.5 109.5 L 176.5 114.0 L 176.0 118.0 L 175.5 120.5 L 175.5 122.5 L 175.5 122.5 L 176.0 122.5 L 178.5 121.5 L 182.0 119.5 L 186.5 117.5 L 191.5 115.0 L 194.5 113.5 L 196.0 113.0 L 196.5 113.0 " stroke="black" fill="none" stroke-width="7.0" stroke-linecap="round" stroke-linejoin="round" />
<path d="M 191.0 105.5 L 191.0 105.5 L 190.0 106.5 L 189.5 109.0 L 189.0 114.0 L 187.0 121.5 L 183.0 130.5 L 178.0 138.5 L 175.0 142.5 " stroke="black" fill="none" stroke-width="7.0" stroke-linecap="round" stroke-linejoin="round" />
<path d="M 186.5 124.0 L 186.5 125.5 L 187.0 127.5 L 187.0 132.0 L 187.0 137.5 L 187.0 142.0 L 187.0 144.5 L 189.0 145.5 L 191.5 145.5 L 194.5 144.5 L 197.0 143.5 L 199.0 142.0 L 201.5 140.5 L 203.0 138.5 L 204.5 135.5 L 205.0 131.0 L 205.5 125.0 L 205.5 123.5 " stroke="black" fill="none" stroke-width="7.0" stroke-linecap="round" stroke-linejoin="round" />
<path d="M 150.5 161.0 L 150.5 161.0 L 150.5 161.5 L 150.5 164.5 L 151.5 172.0 L 151.5 182.0 L 151.5 188.0 L 151.5 189.0 L 152.0 188.0 " stroke="black" fill="none" stroke-width="7.0" stroke-linecap="round" stroke-linejoin="round" />
<path d="M 157.0 164.0 L 157.5 163.0 L 158.5 161.5 L 161.5 160.0 L 167.0 158.5 L 172.0 157.0 L 176.5 155.0 L 181.0 154.0 L 184.0 155.0 L 186.0 158.5 L 187.0 163.5 L 187.5 170.0 L 187.0 179.0 L 185.0 187.5 L 183.0 193.0 L 181.5 195.5 L 179.5 195.0 L 176.5 191.0 " stroke="black" fill="none" stroke-width="7.0" stroke-linecap="round" stroke-linejoin="round" />
<path d="M 162.0 176.5 L 159.0 176.5 L 159.0 176.5 L 160.5 176.5 L 164.5 175.5 L 169.5 174.0 L 173.5 172.0 L 176.0 171.0 L 177.0 171.0 " stroke="black" fill="none" stroke-width="7.0" stroke-linecap="round" stroke-linejoin="round" />
<path d="M 159.5 192.0 L 158.0 193.5 L 158.5 194.0 L 164.0 193.5 L 170.0 191.0 L 175.5 189.0 L 178.5 188.5 " stroke="black" fill="none" stroke-width="7.0" stroke-linecap="round" stroke-linejoin="round" />
</svg>