<svg xmlns="http://www.w3.org/2000/svg" width="300" height="300" viewBox="0 0 300 300">
<path d="M 120.5 131.5 L 120.5 131.5 L 119.0 130.5 L 119.0 129.5 L 121.0 130.5 L 124.5 133.0 L 128.0 136.0 L 132.5 139.5 L 133.5 140.0 " stroke="black" fill="none" stroke-width="7.0" stroke-linecap="round" stroke-linejoin="round" />
<path d="M 170.5 119.0 L 170.5 119.5 L 170.5 120.0 L 170.0 123.0 L 166.5 129.0 L 161.0 136.5 L 159.5 137.5 " stroke="black" fill="none" stroke-width="7.0" stroke-linecap="round" stroke-linejoin="round" />
<path d="M 152.5 80.5 L 152.5 80.5 L 152.0 80.5 L 151.5 80.5 L 151.5 83.0 L 151.5 91.5 L 151.5 101.5 L 151.0 121.0 L 146.0 148.0 L 138.0 167.5 L 130.0 184.5 L 125.5 194.5 L 116.0 207.0 L 109.0 212.0 L 107.5 212.5 " stroke="black" fill="none" stroke-width="7.0" stroke-linecap="round" stroke-linejoin="round" />
<path d="M 143.5 165.0 L 143.5 165.5 L 143.5 166.0 L 146.5 169.0 L 151.5 176.5 L 160.0 186.5 L 169.5 196.5 L 175.5 204.0 L 182.5 209.0 L 189.0 212.0 L 191.0 212.5 " stroke="black" fill="none" stroke-width="7.0" stroke-linecap="round" stroke-linejoin="round" />
</svg>