<svg xmlns="http://www.w3.org/2000/svg" width="300" height="300" viewBox="0 0 300 300">
<path d="M 139.0 104.0 L 138.5 104.0 L 137.5 103.5 L 138.5 103.5 L 141.5 103.5 L 146.0 103.5 L 147.5 103.0 " stroke="black" fill="none" stroke-width="7.0" stroke-linecap="round" stroke-linejoin="round" />
<path d="M 157.5 75.5 L 157.5 75.5 L 157.5 75.5 L 157.0 77.5 L 155.0 88.5 L 150.5 109.0 L 144.0 131.0 L 132.5 152.0 L 123.0 170.5 L 114.0 183.0 L 108.5 188.0 L 108.0 188.5 " stroke="black" fill="none" stroke-width="7.0" stroke-linecap="round" stroke-linejoin="round" />
<path d="M 134.5 125.5 L 133.0 126.0 L 132.5 126.0 L 134.0 126.0 L 138.5 124.0 L 145.0 121.0 L 152.0 117.0 L 158.5 113.0 L 163.5 111.0 L 164.5 111.5 L 164.5 114.5 L 162.0 119.5 L 158.0 125.0 L 154.0 131.5 L 149.5 139.0 L 146.0 143.5 L 143.5 145.5 L 142.5 146.0 L 142.5 145.5 L 145.0 144.5 L 149.0 142.0 L 153.5 139.0 L 159.5 136.0 L 166.0 133.5 L 170.5 132.0 L 172.0 132.5 L 172.0 135.0 L 170.0 139.0 L 167.0 144.0 L 162.0 150.0 L 156.0 156.5 L 150.0 162.0 L 146.5 165.0 L 145.0 165.5 L 145.0 166.0 L 146.5 165.0 L 150.0 163.0 L 155.5 159.5 L 163.5 155.5 L 171.5 151.5 L 178.0 149.5 L 182.5 149.0 L 185.5 152.0 L 186.0 157.5 L 186.0 164.5 L 184.5 172.5 L 182.0 180.5 L 179.0 187.5 L 175.5 192.0 L 172.5 195.0 L 169.0 196.0 L 164.5 194.0 L 159.5 189.0 L 158.0 188.0 " stroke="black" fill="none" stroke-width="7.0" stroke-linecap="round" stroke-linejoin="round" />
<path d="M 130.0 176.5 L 130.0 176.5 L 130.0 176.5 L 130.0 177.5 L 131.0 180.5 L 133.0 184.0 L 135.5 187.0 L 136.5 187.5 " stroke="black" fill="none" stroke-width="7.0" stroke-linecap="round" stroke-linejoin="round" />
<path d="M 146.0 175.5 L 146.0 175.5 L 146.0 176.0 L 147.0 176.5 L 148.5 178.0 L 151.0 180.5 L 153.5 182.0 L 154.5 182.5 " stroke="black" fill="none" stroke-width="7.0" stroke-linecap="round" stroke-linejoin="round" />
<path d="M 160.5 171.0 L 160.5 171.0 L 160.5 171.5 L 161.5 173.0 L 164.0 175.0 L 165.0 176.0 " stroke="black" fill="none" stroke-width="7.0" stroke-linecap="round" stroke-linejoin="round" />
<path d="M 172.0 165.0 L 172.0 164.5 L 172.0 164.5 L 173.0 165.5 L 174.5 169.0 L 176.5 174.0 " stroke="black" fill="none" stroke-width="7.0" stroke-linecap="round" stroke-linejoin="round" />
</svg>