<svg xmlns="http://www.w3.org/2000/svg" width="300" height="300" viewBox="0 0 300 300">
<path d="M 132.5 95.5 L 133.0 94.0 L 133.0 92.5 L 133.5 92.5 L 134.0 96.0 L 134.5 102.5 L 133.0 111.0 L 130.5 120.0 L 127.0 126.5 L 125.0 128.5 " stroke="black" fill="none" stroke-width="7.0" stroke-linecap="round" stroke-linejoin="round" />
<path d="M 132.5 118.0 L 133.0 117.5 L 135.0 116.5 L 139.0 115.5 L 145.0 113.5 L 152.0 110.0 L 158.5 106.0 L 165.0 103.0 L 167.5 102.5 " stroke="black" fill="none" stroke-width="7.0" stroke-linecap="round" stroke-linejoin="round" />
<path d="M 109.0 157.0 L 108.5 157.0 L 108.0 157.0 L 107.5 157.0 L 107.5 157.0 L 111.0 156.5 L 119.0 153.0 L 131.5 148.0 L 147.5 142.5 L 160.0 138.5 L 171.0 135.0 L 176.5 133.0 L 180.5 132.5 L 181.5 132.5 " stroke="black" fill="none" stroke-width="7.0" stroke-linecap="round" stroke-linejoin="round" />
<path d="M 128.0 137.5 L 127.5 137.5 L 127.0 137.5 L 127.0 140.0 L 128.0 147.0 L 129.0 156.0 L 130.0 162.5 L 131.5 165.0 L 131.5 165.0 " stroke="black" fill="none" stroke-width="7.0" stroke-linecap="round" stroke-linejoin="round" />
<path d="M 143.0 134.0 L 143.5 138.0 L 144.5 144.0 L 144.5 150.5 L 144.5 156.5 L 145.5 159.5 L 146.5 160.0 " stroke="black" fill="none" stroke-width="7.0" stroke-linecap="round" stroke-linejoin="round" />
<path d="M 160.0 128.5 L 160.0 129.0 L 159.5 130.5 L 159.5 136.0 L 160.5 145.0 L 161.0 152.5 L 161.5 157.0 L 162.0 157.5 " stroke="black" fill="none" stroke-width="7.0" stroke-linecap="round" stroke-linejoin="round" />
<path d="M 173.0 122.0 L 173.0 122.0 L 173.0 123.0 L 173.0 130.0 L 173.5 142.5 L 173.0 153.5 L 173.0 157.5 " stroke="black" fill="none" stroke-width="7.0" stroke-linecap="round" stroke-linejoin="round" />
<path d="M 106.5 178.0 L 105.0 178.0 L 104.0 178.5 L 103.5 178.5 L 103.5 178.5 L 105.0 178.5 L 110.5 178.0 L 121.0 176.0 L 136.0 172.0 L 152.5 166.5 L 165.5 162.5 L 175.5 160.0 L 183.0 158.5 L 188.0 158.5 " stroke="black" fill="none" stroke-width="7.0" stroke-linecap="round" stroke-linejoin="round" />
<path d="M 119.0 184.5 L 118.5 183.0 L 118.5 182.5 L 120.0 183.5 L 122.0 187.5 L 124.0 191.0 L 126.5 194.5 " stroke="black" fill="none" stroke-width="7.0" stroke-linecap="round" stroke-linejoin="round" />
<path d="M 139.0 178.0 L 139.5 178.5 L 141.0 179.5 L 142.5 182.5 L 145.0 186.0 L 147.5 188.5 L 149.0 189.5 " stroke="black" fill="none" stroke-width="7.0" stroke-linecap="round" stroke-linejoin="round" />
<path d="M 159.0 177.0 L 158.0 176.0 L 157.5 176.0 L 159.5 178.0 L 162.0 182.0 L 165.0 186.0 L 168.0 189.0 " stroke="black" fill="none" stroke-width="7.0" stroke-linecap="round" stroke-linejoin="round" />
<path d="M 178.0 171.0 L 178.0 171.5 L 179.5 173.0 L 182.5 178.0 L 185.0 185.5 L 187.5 193.0 L 188.0 196.5 " stroke="black" fill="none" stroke-width="7.0" stroke-linecap="round" stroke-linejoin="round" />
</svg>