<svg xmlns="http://www.w3.org/2000/svg" width="300" height="300" viewBox="0 0 300 300">
<path d="M 116.0 114.0 L 116.0 113.5 L 116.0 112.5 L 116.0 112.5 L 116.5 115.0 L 117.0 120.5 L 116.5 128.5 L 114.5 138.5 L 112.0 145.0 L 109.5 148.0 L 109.0 148.0 L 109.5 146.5 L 111.0 144.0 L 113.0 142.0 L 115.5 140.0 L 119.5 137.0 L 125.5 132.0 L 131.5 126.0 L 137.0 122.0 L 139.0 121.0 " stroke="black" fill="none" stroke-width="7.0" stroke-linecap="round" stroke-linejoin="round" />
<path d="M 108.0 170.0 L 106.0 173.0 L 104.5 174.0 L 105.0 174.0 L 108.5 171.0 L 114.5 166.0 L 123.0 159.5 L 133.0 150.0 L 140.5 144.0 L 142.0 142.5 " stroke="black" fill="none" stroke-width="7.0" stroke-linecap="round" stroke-linejoin="round" />
<path d="M 130.0 98.0 L 130.0 97.0 L 129.5 96.5 L 130.0 100.0 L 130.5 113.0 L 131.0 137.5 L 128.5 166.0 L 127.0 186.0 L 126.5 197.0 L 126.5 200.5 " stroke="black" fill="none" stroke-width="7.0" stroke-linecap="round" stroke-linejoin="round" />
<path d="M 158.0 109.0 L 157.5 109.0 L 157.0 110.0 L 156.0 114.5 L 154.0 122.0 L 152.0 129.0 L 150.5 134.0 L 149.5 135.0 " stroke="black" fill="none" stroke-width="7.0" stroke-linecap="round" stroke-linejoin="round" />
<path d="M 151.0 130.5 L 152.0 129.5 L 154.5 127.0 L 157.5 124.0 L 162.5 122.0 L 167.5 120.0 L 172.0 118.5 L 176.0 118.0 L 179.5 118.0 L 182.5 120.5 L 184.0 125.0 L 184.5 131.5 L 184.5 141.0 L 184.0 152.5 L 182.5 165.0 L 180.0 175.0 L 177.0 184.0 L 174.5 189.0 L 171.5 190.5 L 168.0 189.5 L 163.5 185.5 " stroke="black" fill="none" stroke-width="7.0" stroke-linecap="round" stroke-linejoin="round" />
<path d="M 160.5 131.5 L 160.5 131.0 L 160.5 131.0 L 159.5 134.0 L 157.0 143.0 L 152.5 156.5 L 149.0 166.5 L 147.0 170.0 " stroke="black" fill="none" stroke-width="7.0" stroke-linecap="round" stroke-linejoin="round" />
<path d="M 172.5 127.0 L 173.0 125.5 L 173.5 126.0 L 173.5 133.0 L 171.5 146.0 L 167.5 164.5 L 161.5 181.0 L 155.0 193.5 L 154.0 196.0 " stroke="black" fill="none" stroke-width="7.0" stroke-linecap="round" stroke-linejoin="round" />
</svg>