<svg xmlns="http://www.w3.org/2000/svg" width="300" height="300" viewBox="0 0 300 300">
<path d="M 134.5 101.5 L 134.5 101.5 L 134.5 101.5 L 134.5 102.5 L 133.0 108.5 L 129.5 119.5 L 125.0 128.5 L 120.0 135.5 L 117.0 138.5 " stroke="black" fill="none" stroke-width="7.0" stroke-linecap="round" stroke-linejoin="round" />
<path d="M 160.0 105.5 L 160.0 105.5 L 159.5 105.5 L 159.0 105.5 L 162.0 108.0 L 167.5 113.5 L 174.0 119.5 L 179.0 124.5 L 182.0 128.0 L 183.5 130.0 " stroke="black" fill="none" stroke-width="7.0" stroke-linecap="round" stroke-linejoin="round" />
<path d="M 164.0 126.5 L 164.0 126.0 L 164.0 125.0 L 163.5 124.5 L 162.0 126.5 L 158.5 133.5 L 152.5 145.0 L 143.5 160.0 L 132.5 172.5 L 124.0 181.5 L 116.5 185.5 L 115.0 186.0 " stroke="black" fill="none" stroke-width="7.0" stroke-linecap="round" stroke-linejoin="round" />
<path d="M 131.5 142.0 L 132.0 142.5 L 134.5 144.5 L 142.0 151.5 L 151.5 161.5 L 162.0 170.5 L 172.5 179.0 L 179.0 185.0 L 185.5 189.0 L 189.0 191.5 " stroke="black" fill="none" stroke-width="7.0" stroke-linecap="round" stroke-linejoin="round" />
</svg>