<svg xmlns="http://www.w3.org/2000/svg" width="300" height="300" viewBox="0 0 300 300">
<path d="M 161.0 82.5 L 162.0 82.5 L 162.0 82.0 L 162.0 82.0 L 158.5 84.5 L 153.0 89.5 L 144.5 96.0 L 133.5 102.0 " stroke="black" fill="none" stroke-width="7.0" stroke-linecap="round" stroke-linejoin="round" />
<path d="M 127.5 115.0 L 127.5 115.0 L 127.0 115.0 L 127.0 115.0 L 129.0 116.0 L 132.5 117.5 L 133.5 118.0 " stroke="black" fill="none" stroke-width="7.0" stroke-linecap="round" stroke-linejoin="round" />
<path d="M 146.0 106.5 L 146.5 106.5 L 147.0 106.5 L 148.0 107.5 L 149.5 108.5 " stroke="black" fill="none" stroke-width="7.0" stroke-linecap="round" stroke-linejoin="round" />
<path d="M 165.5 100.0 L 165.5 101.0 L 165.0 102.0 L 163.0 105.5 L 159.0 110.5 L 157.0 114.0 " stroke="black" fill="none" stroke-width="7.0" stroke-linecap="round" stroke-linejoin="round" />
<path d="M 115.5 133.5 L 115.0 133.5 L 115.0 133.5 L 116.0 135.0 L 118.5 138.5 L 121.5 142.5 L 124.0 145.5 L 125.5 146.5 " stroke="black" fill="none" stroke-width="7.0" stroke-linecap="round" stroke-linejoin="round" />
<path d="M 124.0 133.0 L 124.0 132.5 L 125.0 131.5 L 127.5 130.5 L 134.0 129.0 L 145.5 126.0 L 155.5 122.5 L 164.5 120.0 L 170.5 119.0 L 172.0 119.0 L 172.5 121.5 L 171.0 125.5 L 169.0 129.5 L 166.0 134.5 L 163.5 138.5 " stroke="black" fill="none" stroke-width="7.0" stroke-linecap="round" stroke-linejoin="round" />
<path d="M 137.0 130.0 L 137.0 130.5 L 136.5 132.0 L 136.5 135.5 L 137.5 139.5 L 139.0 143.0 " stroke="black" fill="none" stroke-width="7.0" stroke-linecap="round" stroke-linejoin="round" />
<path d="M 150.0 126.5 L 150.0 126.5 L 150.5 127.0 L 150.5 128.0 L 150.5 130.5 L 150.0 133.5 L 149.5 134.5 " stroke="black" fill="none" stroke-width="7.0" stroke-linecap="round" stroke-linejoin="round" />
<path d="M 133.0 146.0 L 130.5 146.5 L 130.0 147.0 L 131.0 146.5 L 135.5 145.0 L 142.0 143.0 L 149.0 140.5 L 156.0 139.0 L 157.5 138.5 " stroke="black" fill="none" stroke-width="7.0" stroke-linecap="round" stroke-linejoin="round" />
<path d="M 126.0 163.5 L 125.5 163.5 L 124.0 163.5 L 123.5 163.5 L 124.5 163.0 L 127.0 161.0 L 131.5 158.0 L 136.5 154.0 L 141.5 151.0 L 144.0 150.5 L 144.5 152.0 L 143.5 157.0 L 142.5 163.0 L 142.0 169.0 L 142.0 173.5 L 143.0 175.5 L 143.5 176.0 " stroke="black" fill="none" stroke-width="7.0" stroke-linecap="round" stroke-linejoin="round" />
<path d="M 126.5 171.5 L 125.5 172.5 L 125.0 173.0 L 125.5 173.0 L 128.0 173.0 L 132.0 171.5 L 136.0 169.5 " stroke="black" fill="none" stroke-width="7.0" stroke-linecap="round" stroke-linejoin="round" />
<path d="M 127.0 184.5 L 125.0 186.0 L 124.5 186.5 L 126.5 185.5 L 130.5 183.0 L 134.5 180.0 L 137.0 178.5 " stroke="black" fill="none" stroke-width="7.0" stroke-linecap="round" stroke-linejoin="round" />
<path d="M 121.5 165.5 L 121.5 165.5 L 121.0 166.0 L 121.0 168.0 L 121.0 173.5 L 122.0 183.0 L 122.0 192.5 L 121.0 200.5 L 119.5 205.5 L 118.5 207.0 L 118.0 207.5 L 118.0 207.5 L 118.5 207.0 L 120.0 206.0 L 122.5 204.0 L 126.0 201.5 L 130.0 199.0 L 134.5 196.5 L 139.0 194.5 L 141.0 194.0 " stroke="black" fill="none" stroke-width="7.0" stroke-linecap="round" stroke-linejoin="round" />
<path d="M 140.0 190.0 L 140.0 190.0 L 140.0 191.0 L 140.5 193.0 L 142.0 198.0 L 143.5 204.0 L 144.0 207.0 " stroke="black" fill="none" stroke-width="7.0" stroke-linecap="round" stroke-linejoin="round" />
<path d="M 152.5 167.0 L 151.5 167.5 L 150.0 167.5 L 149.5 168.0 L 150.0 168.0 L 153.5 167.0 L 160.0 165.0 L 167.5 162.0 L 172.0 159.5 " stroke="black" fill="none" stroke-width="7.0" stroke-linecap="round" stroke-linejoin="round" />
<path d="M 165.5 148.5 L 165.0 148.5 L 165.0 149.0 L 165.0 153.0 L 166.0 163.5 L 167.5 177.0 L 168.5 190.0 L 168.5 199.5 L 168.0 206.0 L 167.0 208.0 L 165.0 208.5 L 162.0 206.5 L 158.5 202.0 L 155.5 195.0 " stroke="black" fill="none" stroke-width="7.0" stroke-linecap="round" stroke-linejoin="round" />
<path d="M 152.0 183.0 L 150.5 183.0 L 149.5 182.5 L 150.5 182.5 L 154.0 182.0 L 158.5 181.0 " stroke="black" fill="none" stroke-width="7.0" stroke-linecap="round" stroke-linejoin="round" />
</svg>