<svg xmlns="http://www.w3.org/2000/svg" width="300" height="300" viewBox="0 0 300 300">
<path d="M 133.0 105.5 L 133.0 105.5 L 132.0 106.0 L 131.0 106.5 L 131.5 106.5 L 136.0 104.5 L 143.5 101.0 L 151.5 96.5 L 157.5 93.5 L 160.0 93.0 " stroke="black" fill="none" stroke-width="7.0" stroke-linecap="round" stroke-linejoin="round" />
<path d="M 130.0 138.5 L 130.0 139.5 L 128.0 141.5 L 128.0 142.5 L 129.0 142.5 L 133.5 140.5 L 141.5 136.5 L 150.5 131.5 L 157.5 127.5 L 161.0 126.0 " stroke="black" fill="none" stroke-width="7.0" stroke-linecap="round" stroke-linejoin="round" />
<path d="M 149.0 109.0 L 149.0 109.5 L 148.5 112.5 L 148.0 118.5 L 148.0 130.0 L 148.0 145.0 L 147.5 159.5 L 147.5 170.0 L 147.5 173.5 " stroke="black" fill="none" stroke-width="7.0" stroke-linecap="round" stroke-linejoin="round" />
<path d="M 107.0 184.5 L 105.0 185.0 L 103.5 185.0 L 103.5 185.0 L 107.0 185.0 L 115.5 185.0 L 128.5 184.0 L 146.5 180.5 L 164.0 177.0 L 176.5 176.5 L 186.0 177.5 L 192.5 178.0 L 193.0 178.0 " stroke="black" fill="none" stroke-width="7.0" stroke-linecap="round" stroke-linejoin="round" />
</svg>