<svg xmlns="http://www.w3.org/2000/svg" width="300" height="300" viewBox="0 0 300 300">
<path d="M 114.0 125.0 L 112.5 125.5 L 111.5 125.5 L 111.5 125.5 L 114.5 125.0 L 120.0 122.5 L 126.0 119.0 L 130.0 115.5 L 131.0 115.0 " stroke="black" fill="none" stroke-width="7.0" stroke-linecap="round" stroke-linejoin="round" />
<path d="M 113.0 147.5 L 112.0 150.0 L 111.0 152.0 L 114.0 151.5 L 119.5 148.5 L 126.0 143.5 L 130.5 139.0 L 132.5 136.5 " stroke="black" fill="none" stroke-width="7.0" stroke-linecap="round" stroke-linejoin="round" />
<path d="M 126.5 130.0 L 126.0 135.5 L 126.0 142.0 L 126.0 151.0 L 126.0 158.5 L 125.5 171.0 L 124.5 175.0 " stroke="black" fill="none" stroke-width="7.0" stroke-linecap="round" stroke-linejoin="round" />
<path d="M 116.0 187.5 L 113.0 189.5 L 111.5 190.0 L 111.5 190.0 L 114.5 187.5 L 121.0 183.0 L 128.5 176.5 L 137.5 169.5 L 142.5 166.5 " stroke="black" fill="none" stroke-width="7.0" stroke-linecap="round" stroke-linejoin="round" />
<path d="M 156.0 112.5 L 156.0 113.0 L 156.0 114.5 L 156.0 117.5 L 156.0 121.5 L 156.0 126.0 L 154.5 129.0 L 153.5 130.5 L 153.5 130.5 L 154.5 130.5 L 157.5 129.0 L 162.5 126.0 L 169.0 121.5 L 173.5 118.0 L 176.0 116.5 L 176.0 116.5 " stroke="black" fill="none" stroke-width="7.0" stroke-linecap="round" stroke-linejoin="round" />
<path d="M 148.0 147.0 L 147.0 148.0 L 146.0 148.5 L 146.5 148.5 L 149.5 147.0 L 156.0 144.0 L 165.0 139.5 L 174.0 134.5 L 179.5 131.0 L 181.0 130.0 " stroke="black" fill="none" stroke-width="7.0" stroke-linecap="round" stroke-linejoin="round" />
<path d="M 170.5 93.0 L 170.0 92.5 L 169.0 92.5 L 168.5 93.5 L 168.5 99.5 L 169.5 117.5 L 170.0 144.0 L 170.0 169.5 L 169.5 186.0 L 169.5 194.0 L 169.5 196.0 L 169.0 194.5 " stroke="black" fill="none" stroke-width="7.0" stroke-linecap="round" stroke-linejoin="round" />
<path d="M 170.0 140.0 L 170.0 139.5 L 169.5 139.0 L 169.5 139.0 L 168.5 140.5 L 166.5 145.0 L 161.5 155.0 L 153.0 167.5 L 146.5 175.0 L 141.5 178.5 L 140.0 179.0 " stroke="black" fill="none" stroke-width="7.0" stroke-linecap="round" stroke-linejoin="round" />
<path d="M 166.0 144.5 L 167.5 144.0 L 169.5 144.0 L 173.5 147.0 L 181.5 159.0 L 190.0 168.5 L 195.5 175.0 L 198.5 178.5 L 201.0 180.0 " stroke="black" fill="none" stroke-width="7.0" stroke-linecap="round" stroke-linejoin="round" />
</svg>