<svg xmlns="http://www.w3.org/2000/svg" width="300" height="300" viewBox="0 0 300 300">
<path d="M 135.5 105.5 L 135.5 105.0 L 135.5 103.5 L 135.5 103.0 L 135.0 106.5 L 132.0 115.0 L 127.5 127.5 L 120.0 141.0 L 112.0 149.0 L 108.0 151.5 " stroke="black" fill="none" stroke-width="7.0" stroke-linecap="round" stroke-linejoin="round" />
<path d="M 116.0 112.5 L 117.5 110.5 L 120.0 110.0 L 126.0 114.5 L 131.0 123.0 L 135.5 136.0 L 139.0 149.5 L 140.0 163.5 L 139.0 175.5 L 136.5 184.5 L 133.0 190.5 L 129.0 193.5 L 125.5 193.5 L 122.5 190.0 " stroke="black" fill="none" stroke-width="7.0" stroke-linecap="round" stroke-linejoin="round" />
<path d="M 136.5 142.5 L 137.0 142.0 L 137.0 141.5 L 136.5 143.0 L 133.0 150.0 L 127.5 163.0 L 120.5 175.5 L 115.0 183.5 " stroke="black" fill="none" stroke-width="7.0" stroke-linecap="round" stroke-linejoin="round" />
<path d="M 159.0 108.5 L 158.5 108.5 L 158.5 108.5 L 158.5 109.0 L 160.5 111.5 L 164.0 113.5 L 167.0 114.5 " stroke="black" fill="none" stroke-width="7.0" stroke-linecap="round" stroke-linejoin="round" />
<path d="M 175.0 96.5 L 175.0 96.0 L 175.0 96.0 L 175.0 98.0 L 174.0 104.0 L 171.0 114.5 L 166.5 124.5 " stroke="black" fill="none" stroke-width="7.0" stroke-linecap="round" stroke-linejoin="round" />
<path d="M 146.5 137.5 L 146.0 137.5 L 144.5 137.5 L 144.5 137.5 L 147.5 135.5 L 153.5 132.0 L 164.0 126.5 L 174.0 121.5 L 181.0 118.5 L 184.5 118.0 " stroke="black" fill="none" stroke-width="7.0" stroke-linecap="round" stroke-linejoin="round" />
<path d="M 151.0 148.0 L 151.0 147.5 L 151.0 147.5 L 151.0 149.0 L 152.0 155.5 L 153.5 166.5 L 155.0 177.0 L 155.5 185.0 L 156.0 186.5 L 156.5 185.0 " stroke="black" fill="none" stroke-width="7.0" stroke-linecap="round" stroke-linejoin="round" />
<path d="M 154.5 150.0 L 155.0 148.5 L 156.0 147.0 L 158.5 146.0 L 163.5 145.5 L 170.0 143.5 L 175.0 141.5 L 183.0 139.0 L 187.0 139.0 L 189.5 143.0 L 190.5 149.5 L 190.5 159.0 L 189.0 169.5 L 188.0 178.0 L 187.5 183.5 L 187.0 186.5 L 185.0 187.5 L 183.0 187.5 " stroke="black" fill="none" stroke-width="7.0" stroke-linecap="round" stroke-linejoin="round" />
<path d="M 162.0 129.0 L 162.0 129.5 L 162.0 132.0 L 163.5 140.0 L 164.5 151.0 L 164.0 161.5 L 163.5 167.0 L 163.5 168.5 " stroke="black" fill="none" stroke-width="7.0" stroke-linecap="round" stroke-linejoin="round" />
<path d="M 174.5 125.0 L 174.5 126.5 L 175.0 131.0 L 176.0 140.5 L 176.0 151.0 L 176.5 160.5 L 177.0 167.0 " stroke="black" fill="none" stroke-width="7.0" stroke-linecap="round" stroke-linejoin="round" />
<path d="M 164.5 177.5 L 163.0 177.5 L 163.0 177.5 L 164.5 177.0 L 168.5 175.5 L 172.5 174.0 L 176.5 173.0 L 177.0 173.0 " stroke="black" fill="none" stroke-width="7.0" stroke-linecap="round" stroke-linejoin="round" />
<path d="M 161.5 190.5 L 160.5 191.0 L 160.0 191.0 L 162.0 191.0 L 167.0 189.5 L 172.5 188.0 L 179.5 187.5 " stroke="black" fill="none" stroke-width="7.0" stroke-linecap="round" stroke-linejoin="round" />
</svg>