<svg xmlns="http://www.w3.org/2000/svg" width="300" height="300" viewBox="0 0 300 300">
<path d="M 142.5 100.5 L 142.0 100.5 L 141.0 100.0 L 141.0 100.0 L 143.0 101.0 L 146.0 102.5 L 148.0 104.5 L 149.0 105.5 " stroke="black" fill="none" stroke-width="7.0" stroke-linecap="round" stroke-linejoin="round" />
<path d="M 122.5 126.5 L 120.5 127.5 L 118.0 128.5 L 117.0 129.0 L 117.5 129.0 L 122.0 128.5 L 128.5 126.5 L 139.0 123.0 L 153.5 117.0 L 167.5 111.5 L 173.0 110.0 L 174.0 110.0 " stroke="black" fill="none" stroke-width="7.0" stroke-linecap="round" stroke-linejoin="round" />
<path d="M 152.5 132.0 L 152.5 132.0 L 152.5 131.0 L 152.5 130.5 L 152.5 131.5 L 151.5 135.5 L 149.0 143.0 L 144.0 155.5 L 136.5 166.5 L 131.5 173.5 L 129.5 176.5 L 129.5 177.5 L 130.0 177.5 L 137.0 174.5 L 143.0 172.0 L 149.5 169.5 L 154.5 166.5 L 156.0 165.5 " stroke="black" fill="none" stroke-width="7.0" stroke-linecap="round" stroke-linejoin="round" />
<path d="M 163.5 152.5 L 163.5 152.5 L 163.5 152.5 L 163.5 152.5 L 162.5 153.5 L 161.0 157.5 L 156.5 165.5 L 150.0 176.5 L 145.0 186.5 L 139.0 194.0 L 133.5 201.5 L 129.5 207.0 L 127.0 210.5 L 125.0 213.5 L 124.0 214.5 L 124.5 214.5 L 126.5 213.0 L 130.0 210.0 L 136.0 206.0 L 144.0 201.0 L 152.0 196.0 L 159.5 191.0 L 165.0 188.5 L 166.0 187.5 " stroke="black" fill="none" stroke-width="7.0" stroke-linecap="round" stroke-linejoin="round" />
<path d="M 169.0 180.5 L 169.0 181.0 L 169.5 182.0 L 171.0 185.5 L 173.0 193.5 L 175.0 205.5 L 175.5 214.0 L 175.5 216.5 " stroke="black" fill="none" stroke-width="7.0" stroke-linecap="round" stroke-linejoin="round" />
</svg>