<svg xmlns="http://www.w3.org/2000/svg" width="300" height="300" viewBox="0 0 300 300">
<path d="M 103.5 97.0 L 103.5 97.0 L 103.5 97.0 L 103.5 98.0 L 105.0 102.0 L 106.5 108.0 L 108.0 113.0 L 108.0 114.0 " stroke="black" fill="none" stroke-width="7.0" stroke-linecap="round" stroke-linejoin="round" />
<path d="M 106.0 101.0 L 106.0 101.0 L 105.5 100.5 L 105.5 100.0 L 107.0 99.0 L 110.0 98.0 L 115.0 97.0 L 119.5 96.5 L 121.5 98.0 L 122.0 102.0 L 119.5 107.5 L 116.0 112.5 L 113.5 115.5 L 112.0 116.5 L 112.0 116.0 L 114.5 114.5 L 118.5 112.5 L 123.0 110.0 " stroke="black" fill="none" stroke-width="7.0" stroke-linecap="round" stroke-linejoin="round" />
<path d="M 130.0 96.0 L 130.0 96.0 L 130.0 96.0 L 131.0 98.0 L 132.5 101.5 L 134.5 106.0 L 135.5 109.0 L 136.0 109.5 " stroke="black" fill="none" stroke-width="7.0" stroke-linecap="round" stroke-linejoin="round" />
<path d="M 136.0 95.5 L 135.0 95.5 L 134.5 95.0 L 134.0 94.5 L 136.0 93.5 L 140.5 91.5 L 145.5 89.5 L 149.0 88.5 L 151.0 89.5 L 151.0 93.5 L 150.0 98.5 L 147.5 104.0 L 145.5 107.5 L 143.5 110.0 L 141.0 110.5 L 139.0 111.0 L 137.5 111.5 L 137.5 111.5 L 139.0 111.5 L 143.5 110.0 L 148.5 108.5 " stroke="black" fill="none" stroke-width="7.0" stroke-linecap="round" stroke-linejoin="round" />
<path d="M 105.5 129.5 L 105.5 130.0 L 105.0 130.5 L 105.0 133.0 L 106.5 138.5 L 108.5 145.5 L 110.0 151.0 L 111.0 154.0 L 111.0 154.5 " stroke="black" fill="none" stroke-width="7.0" stroke-linecap="round" stroke-linejoin="round" />
<path d="M 110.0 135.5 L 110.0 134.0 L 111.0 132.5 L 113.0 131.0 L 118.5 129.0 L 126.0 126.5 L 132.0 123.0 L 138.0 121.0 L 143.0 120.5 L 145.5 122.5 L 146.0 128.0 L 146.0 136.0 L 144.0 142.5 L 142.0 147.5 L 140.5 150.5 L 138.5 151.5 L 138.0 152.0 " stroke="black" fill="none" stroke-width="7.0" stroke-linecap="round" stroke-linejoin="round" />
<path d="M 123.5 143.5 L 121.0 143.5 L 120.0 143.5 L 120.0 143.5 L 123.0 142.5 L 127.5 140.5 L 131.5 138.5 " stroke="black" fill="none" stroke-width="7.0" stroke-linecap="round" stroke-linejoin="round" />
<path d="M 125.0 131.5 L 124.0 133.0 L 124.0 136.0 L 125.0 140.5 L 125.5 146.0 L 126.0 151.0 L 126.0 152.0 " stroke="black" fill="none" stroke-width="7.0" stroke-linecap="round" stroke-linejoin="round" />
<path d="M 118.5 156.5 L 117.5 157.0 L 116.0 157.5 L 115.5 158.0 L 118.0 158.0 L 122.5 158.0 L 127.5 157.0 L 133.5 155.0 L 135.0 154.5 " stroke="black" fill="none" stroke-width="7.0" stroke-linecap="round" stroke-linejoin="round" />
<path d="M 103.5 172.0 L 103.0 172.0 L 101.0 172.5 L 99.5 173.0 L 99.0 173.0 L 100.0 173.0 L 104.0 172.5 L 112.0 171.5 L 123.0 169.5 L 134.5 166.0 L 144.0 163.5 L 148.0 163.5 L 148.5 163.5 " stroke="black" fill="none" stroke-width="7.0" stroke-linecap="round" stroke-linejoin="round" />
<path d="M 105.0 189.5 L 105.0 189.5 L 105.0 189.5 L 105.0 190.0 L 106.0 191.0 L 108.0 193.0 L 111.0 195.5 L 114.0 198.0 L 114.5 198.5 " stroke="black" fill="none" stroke-width="7.0" stroke-linecap="round" stroke-linejoin="round" />
<path d="M 118.5 188.0 L 116.5 188.5 L 116.5 188.5 L 118.0 188.5 L 122.5 187.0 L 128.0 184.5 L 134.5 181.0 L 141.0 179.0 L 144.0 179.0 L 144.5 181.5 L 142.5 185.5 L 139.5 190.5 L 136.0 195.0 L 134.0 196.5 " stroke="black" fill="none" stroke-width="7.0" stroke-linecap="round" stroke-linejoin="round" />
<path d="M 127.0 201.0 L 125.0 202.0 L 123.5 203.0 L 123.0 203.0 L 124.5 203.0 L 128.5 201.0 L 134.0 198.0 L 136.0 197.5 " stroke="black" fill="none" stroke-width="7.0" stroke-linecap="round" stroke-linejoin="round" />
<path d="M 157.5 147.5 L 157.0 147.5 L 155.0 148.0 L 154.5 148.0 L 155.5 148.0 L 159.5 146.5 L 167.0 143.5 L 174.5 138.5 L 182.0 133.0 L 187.0 129.0 L 187.5 128.5 " stroke="black" fill="none" stroke-width="7.0" stroke-linecap="round" stroke-linejoin="round" />
<path d="M 173.0 108.5 L 172.5 108.5 L 171.5 110.0 L 171.0 114.5 L 171.0 125.5 L 171.0 141.0 L 168.0 157.0 L 162.0 172.0 L 155.5 184.0 L 151.0 189.0 " stroke="black" fill="none" stroke-width="7.0" stroke-linecap="round" stroke-linejoin="round" />
<path d="M 170.5 150.0 L 172.5 150.5 L 175.5 154.5 L 181.5 164.5 L 187.5 174.0 L 192.5 182.0 L 196.0 186.5 L 199.5 188.5 " stroke="black" fill="none" stroke-width="7.0" stroke-linecap="round" stroke-linejoin="round" />
<path d="M 196.0 109.0 L 196.0 109.0 L 195.5 109.0 L 197.0 114.5 L 200.5 125.0 L 202.5 130.0 " stroke="black" fill="none" stroke-width="7.0" stroke-linecap="round" stroke-linejoin="round" />
</svg>