<svg xmlns="http://www.w3.org/2000/svg" width="300" height="300" viewBox="0 0 300 300">
<path d="M 116.5 117.5 L 115.0 118.5 L 114.0 118.5 L 114.5 118.5 L 117.5 116.5 L 123.0 112.5 L 128.5 107.5 L 133.0 103.0 L 135.5 101.5 " stroke="black" fill="none" stroke-width="7.0" stroke-linecap="round" stroke-linejoin="round" />
<path d="M 115.5 146.5 L 115.0 148.0 L 114.0 150.0 L 115.0 150.0 L 119.5 147.0 L 125.5 142.0 L 131.0 136.0 L 134.5 131.0 " stroke="black" fill="none" stroke-width="7.0" stroke-linecap="round" stroke-linejoin="round" />
<path d="M 128.5 122.5 L 128.0 124.5 L 127.5 130.5 L 127.5 141.0 L 128.0 152.5 L 128.0 164.5 L 128.0 174.5 L 127.5 180.0 " stroke="black" fill="none" stroke-width="7.0" stroke-linecap="round" stroke-linejoin="round" />
<path d="M 115.0 192.5 L 112.5 194.5 L 111.0 195.5 L 111.5 195.5 L 113.5 194.5 L 122.0 189.0 L 130.0 181.5 L 141.5 170.5 L 151.0 162.5 " stroke="black" fill="none" stroke-width="7.0" stroke-linecap="round" stroke-linejoin="round" />
<path d="M 168.5 96.0 L 168.5 95.5 L 169.0 94.5 L 169.0 94.0 L 169.0 95.0 L 168.5 100.0 L 165.5 108.0 L 158.5 119.0 L 151.0 128.0 L 147.0 132.5 L 146.0 133.0 " stroke="black" fill="none" stroke-width="7.0" stroke-linecap="round" stroke-linejoin="round" />
<path d="M 166.5 107.0 L 167.0 107.5 L 169.5 108.5 L 173.0 110.5 L 178.0 113.0 L 183.5 114.0 L 189.0 115.0 L 189.5 115.0 " stroke="black" fill="none" stroke-width="7.0" stroke-linecap="round" stroke-linejoin="round" />
<path d="M 168.5 125.0 L 168.5 125.0 L 169.0 124.5 L 169.0 124.0 L 169.0 124.0 L 169.0 127.5 L 166.5 134.5 L 162.0 143.0 L 158.0 149.5 " stroke="black" fill="none" stroke-width="7.0" stroke-linecap="round" stroke-linejoin="round" />
<path d="M 178.5 135.0 L 178.5 135.0 L 178.5 135.0 L 178.5 136.5 L 178.0 139.0 L 176.0 143.5 L 172.5 151.0 L 167.5 160.5 L 164.5 164.0 " stroke="black" fill="none" stroke-width="7.0" stroke-linecap="round" stroke-linejoin="round" />
<path d="M 189.0 145.5 L 189.0 145.5 L 189.0 145.0 L 189.0 144.5 L 188.5 145.0 L 187.5 150.5 L 183.0 161.5 L 174.5 176.5 L 166.5 188.5 L 158.5 195.0 " stroke="black" fill="none" stroke-width="7.0" stroke-linecap="round" stroke-linejoin="round" />
</svg>