<svg xmlns="http://www.w3.org/2000/svg" width="300" height="300" viewBox="0 0 300 300">
<path d="M 129.0 122.5 L 126.5 124.0 L 126.0 124.0 L 126.5 124.0 L 131.0 123.5 L 139.5 121.0 L 149.0 118.0 L 157.0 115.5 L 160.5 115.0 L 161.0 115.0 " stroke="black" fill="none" stroke-width="7.0" stroke-linecap="round" stroke-linejoin="round" />
<path d="M 132.5 150.5 L 131.5 151.5 L 129.5 154.0 L 130.0 154.5 L 134.0 154.5 L 141.0 151.0 L 150.0 147.5 L 156.5 145.0 L 160.0 144.5 L 160.5 144.5 " stroke="black" fill="none" stroke-width="7.0" stroke-linecap="round" stroke-linejoin="round" />
<path d="M 150.0 128.0 L 149.5 129.5 L 149.0 133.5 L 149.5 143.0 L 150.0 155.5 L 150.0 169.0 L 150.0 180.0 L 150.0 186.0 " stroke="black" fill="none" stroke-width="7.0" stroke-linecap="round" stroke-linejoin="round" />
<path d="M 111.5 196.0 L 110.0 196.5 L 108.5 196.5 L 108.5 196.5 L 112.5 196.5 L 121.5 196.0 L 134.0 194.0 L 151.5 191.0 L 168.0 189.5 L 180.0 189.0 L 190.0 189.0 L 195.0 189.0 L 197.0 190.0 L 197.0 191.0 " stroke="black" fill="none" stroke-width="7.0" stroke-linecap="round" stroke-linejoin="round" />
<path d="M 171.0 167.0 L 170.5 166.5 L 170.0 166.0 L 171.0 167.0 L 174.5 172.0 L 178.5 177.5 L 180.0 179.0 " stroke="black" fill="none" stroke-width="7.0" stroke-linecap="round" stroke-linejoin="round" />
</svg>