<svg xmlns="http://www.w3.org/2000/svg" width="300" height="300" viewBox="0 0 300 300">
<path d="M 146.0 81.5 L 145.5 81.5 L 144.0 82.0 L 143.5 82.0 L 144.0 83.0 L 146.0 84.0 L 148.0 85.0 L 149.0 86.0 " stroke="black" fill="none" stroke-width="7.0" stroke-linecap="round" stroke-linejoin="round" />
<path d="M 129.0 101.0 L 128.5 101.5 L 126.5 102.5 L 125.5 103.0 L 125.0 103.0 L 125.5 103.0 L 129.0 102.5 L 136.0 100.5 L 146.5 96.5 L 157.0 92.0 L 165.5 88.5 L 169.0 87.5 L 169.0 88.5 " stroke="black" fill="none" stroke-width="7.0" stroke-linecap="round" stroke-linejoin="round" />
<path d="M 151.5 101.0 L 151.0 102.0 L 150.5 103.5 L 149.5 106.5 L 148.0 112.0 L 146.0 118.0 L 143.5 123.0 L 141.0 126.5 L 138.5 128.5 L 138.0 129.5 L 138.0 129.5 L 139.0 129.5 L 141.5 128.5 L 144.5 127.0 L 148.5 125.0 L 151.5 123.5 L 153.5 122.5 " stroke="black" fill="none" stroke-width="7.0" stroke-linecap="round" stroke-linejoin="round" />
<path d="M 160.0 119.0 L 160.0 119.0 L 159.5 119.0 L 159.0 119.0 L 158.0 120.0 L 157.0 122.5 L 155.0 127.0 L 152.0 133.0 L 148.5 139.5 L 145.0 144.5 L 141.0 148.0 L 137.5 150.5 L 135.5 152.0 L 135.0 153.0 L 134.5 153.0 L 135.0 153.0 L 137.5 152.0 L 141.0 149.5 L 145.5 147.0 L 149.5 144.5 L 154.5 142.0 L 159.5 140.5 L 163.5 139.5 L 166.0 138.0 L 166.5 136.5 L 166.5 135.0 L 166.5 134.5 L 166.5 136.0 L 167.0 139.0 L 168.0 143.5 L 169.0 149.0 L 169.0 155.0 L 169.0 156.5 " stroke="black" fill="none" stroke-width="7.0" stroke-linecap="round" stroke-linejoin="round" />
<path d="M 119.5 124.5 L 118.5 124.5 L 117.0 124.5 L 117.0 125.0 L 118.5 126.0 L 121.0 126.5 L 121.5 126.5 " stroke="black" fill="none" stroke-width="7.0" stroke-linecap="round" stroke-linejoin="round" />
<path d="M 114.0 152.5 L 113.0 155.0 L 113.0 155.0 L 114.5 153.5 L 119.0 149.0 L 125.0 142.5 L 132.0 132.5 " stroke="black" fill="none" stroke-width="7.0" stroke-linecap="round" stroke-linejoin="round" />
<path d="M 184.5 106.0 L 184.5 105.5 L 185.0 105.0 L 185.0 105.5 L 183.0 109.0 L 180.0 114.5 L 178.5 117.0 " stroke="black" fill="none" stroke-width="7.0" stroke-linecap="round" stroke-linejoin="round" />
<path d="M 174.0 124.0 L 174.0 125.5 L 174.0 126.5 L 176.0 127.5 L 179.0 128.5 L 184.5 129.0 L 189.5 129.5 L 192.5 131.0 " stroke="black" fill="none" stroke-width="7.0" stroke-linecap="round" stroke-linejoin="round" />
<path d="M 113.5 181.5 L 111.5 182.5 L 109.5 183.0 L 108.0 183.5 L 106.5 183.5 L 106.0 183.5 L 106.5 183.5 L 108.5 183.5 L 114.5 182.0 L 124.0 180.0 L 138.5 177.0 L 155.5 174.0 L 169.0 172.5 L 177.5 172.0 L 183.5 171.5 L 187.0 171.0 L 187.5 171.0 " stroke="black" fill="none" stroke-width="7.0" stroke-linecap="round" stroke-linejoin="round" />
<path d="M 151.0 147.0 L 150.0 149.5 L 150.0 155.5 L 151.5 170.5 L 152.0 188.5 L 152.0 204.5 L 151.5 215.5 " stroke="black" fill="none" stroke-width="7.0" stroke-linecap="round" stroke-linejoin="round" />
</svg>