<svg xmlns="http://www.w3.org/2000/svg" width="300" height="300" viewBox="0 0 300 300">
<path d="M 127.5 98.0 L 127.5 98.0 L 127.0 98.0 L 127.0 98.0 L 128.0 97.5 L 131.0 96.0 L 136.0 93.5 L 141.0 90.5 L 144.5 89.0 L 145.5 88.5 L 145.5 90.0 L 144.0 93.5 L 142.0 98.0 L 140.0 102.5 L 139.5 103.5 " stroke="black" fill="none" stroke-width="7.0" stroke-linecap="round" stroke-linejoin="round" />
<path d="M 131.0 112.0 L 129.5 113.0 L 128.0 114.0 L 128.0 114.0 L 129.5 113.5 L 133.5 111.0 L 138.5 107.5 L 139.5 107.0 " stroke="black" fill="none" stroke-width="7.0" stroke-linecap="round" stroke-linejoin="round" />
<path d="M 124.5 102.5 L 124.5 103.0 L 124.5 103.5 L 124.5 106.5 L 124.5 113.5 L 123.0 125.0 L 119.5 137.0 L 113.5 147.5 L 109.0 153.0 L 107.5 154.5 " stroke="black" fill="none" stroke-width="7.0" stroke-linecap="round" stroke-linejoin="round" />
<path d="M 119.5 136.0 L 119.5 136.0 L 119.5 136.5 L 119.5 138.0 L 122.0 141.0 L 124.5 145.0 L 127.0 148.5 L 128.5 150.0 L 129.0 150.0 " stroke="black" fill="none" stroke-width="7.0" stroke-linecap="round" stroke-linejoin="round" />
<path d="M 127.0 138.0 L 126.5 137.0 L 126.0 135.5 L 127.0 133.5 L 130.5 131.5 L 135.5 128.5 L 142.0 127.0 L 145.5 127.0 L 146.5 129.5 L 145.0 134.5 L 141.5 140.0 L 137.0 145.0 L 133.0 148.0 L 131.5 148.5 L 131.5 148.5 L 133.0 147.0 L 137.0 145.0 L 140.5 143.5 " stroke="black" fill="none" stroke-width="7.0" stroke-linecap="round" stroke-linejoin="round" />
<path d="M 165.0 86.5 L 164.0 86.5 L 163.5 86.5 L 163.5 87.5 L 164.5 89.0 L 167.0 90.5 L 169.0 92.0 " stroke="black" fill="none" stroke-width="7.0" stroke-linecap="round" stroke-linejoin="round" />
<path d="M 161.0 100.0 L 159.0 101.5 L 157.0 102.5 L 157.0 103.0 L 158.0 103.0 L 162.5 102.5 L 168.0 100.0 L 174.0 97.0 L 178.5 94.5 L 180.0 94.0 " stroke="black" fill="none" stroke-width="7.0" stroke-linecap="round" stroke-linejoin="round" />
<path d="M 160.5 108.0 L 161.0 108.5 L 161.0 111.0 L 162.5 114.0 L 164.5 117.5 L 166.0 119.5 L 166.5 119.5 " stroke="black" fill="none" stroke-width="7.0" stroke-linecap="round" stroke-linejoin="round" />
<path d="M 175.0 104.0 L 175.0 104.0 L 174.5 104.0 L 174.0 105.5 L 173.0 109.0 L 171.5 114.0 L 170.0 117.5 " stroke="black" fill="none" stroke-width="7.0" stroke-linecap="round" stroke-linejoin="round" />
<path d="M 156.5 126.5 L 155.0 127.0 L 153.5 127.5 L 153.5 128.0 L 155.0 127.5 L 159.0 126.0 L 165.0 124.0 L 171.0 121.0 L 176.0 118.5 L 178.5 118.0 " stroke="black" fill="none" stroke-width="7.0" stroke-linecap="round" stroke-linejoin="round" />
<path d="M 156.5 138.5 L 156.0 139.0 L 154.5 139.0 L 155.0 139.0 L 158.0 138.5 L 164.0 136.0 L 171.0 133.0 L 176.5 130.0 L 180.0 128.5 L 180.5 128.5 " stroke="black" fill="none" stroke-width="7.0" stroke-linecap="round" stroke-linejoin="round" />
<path d="M 171.5 124.5 L 171.0 127.0 L 171.0 131.0 L 171.0 138.0 L 171.0 144.0 " stroke="black" fill="none" stroke-width="7.0" stroke-linecap="round" stroke-linejoin="round" />
<path d="M 136.0 160.0 L 135.0 160.0 L 133.5 160.5 L 133.0 160.5 L 134.0 160.5 L 138.0 159.5 L 144.5 157.5 L 151.5 154.0 L 157.5 151.0 L 161.5 150.0 " stroke="black" fill="none" stroke-width="7.0" stroke-linecap="round" stroke-linejoin="round" />
<path d="M 135.0 177.0 L 133.5 177.5 L 132.0 178.5 L 132.5 179.0 L 136.0 178.0 L 142.5 175.5 L 149.0 173.0 L 154.5 170.5 L 157.5 169.5 " stroke="black" fill="none" stroke-width="7.0" stroke-linecap="round" stroke-linejoin="round" />
<path d="M 150.0 160.5 L 149.0 163.5 L 149.0 168.0 L 149.0 175.5 L 149.0 184.0 L 149.0 187.0 " stroke="black" fill="none" stroke-width="7.0" stroke-linecap="round" stroke-linejoin="round" />
<path d="M 117.5 202.5 L 117.0 202.5 L 115.5 203.0 L 114.0 203.0 L 113.0 203.0 L 114.0 203.0 L 118.5 203.0 L 126.5 201.0 L 137.5 198.0 L 152.0 194.0 L 166.0 191.5 L 175.0 191.5 L 181.0 191.5 L 186.0 192.5 L 187.0 193.5 " stroke="black" fill="none" stroke-width="7.0" stroke-linecap="round" stroke-linejoin="round" />
<path d="M 165.5 180.5 L 164.5 180.5 L 164.0 180.5 L 165.0 183.0 L 168.0 187.0 L 169.5 189.0 " stroke="black" fill="none" stroke-width="7.0" stroke-linecap="round" stroke-linejoin="round" />
</svg>