<svg xmlns="http://www.w3.org/2000/svg" width="300" height="300" viewBox="0 0 300 300">
<path d="M 122.0 116.5 L 121.0 114.5 L 121.0 113.0 L 121.5 113.5 L 123.5 116.5 L 125.5 121.5 L 127.5 127.0 L 129.0 132.0 L 130.0 134.5 L 130.5 133.5 L 130.5 133.0 " stroke="black" fill="none" stroke-width="7.0" stroke-linecap="round" stroke-linejoin="round" />
<path d="M 128.5 108.5 L 129.0 107.0 L 131.0 105.0 L 135.0 103.0 L 143.0 100.0 L 152.0 96.5 L 160.5 93.5 L 167.5 93.0 L 171.0 94.0 L 172.5 97.0 L 173.0 102.5 L 173.0 110.0 L 171.0 119.0 L 168.5 127.5 L 165.5 134.0 L 162.5 137.0 L 159.5 138.0 L 157.5 137.5 " stroke="black" fill="none" stroke-width="7.0" stroke-linecap="round" stroke-linejoin="round" />
<path d="M 140.0 123.0 L 138.0 123.0 L 136.5 123.0 L 136.5 123.0 L 139.5 123.0 L 144.5 121.5 L 151.0 119.0 L 156.5 116.0 L 160.0 114.0 " stroke="black" fill="none" stroke-width="7.0" stroke-linecap="round" stroke-linejoin="round" />
<path d="M 147.0 104.0 L 146.0 105.0 L 145.5 107.5 L 145.5 113.0 L 146.0 120.5 L 147.0 128.0 L 147.0 133.5 L 146.0 137.5 L 145.5 138.0 " stroke="black" fill="none" stroke-width="7.0" stroke-linecap="round" stroke-linejoin="round" />
<path d="M 138.0 140.5 L 135.5 141.5 L 134.0 142.0 L 134.0 142.5 L 135.5 142.5 L 140.0 141.5 L 146.5 140.0 L 152.5 138.0 L 159.0 136.5 L 161.5 136.5 " stroke="black" fill="none" stroke-width="7.0" stroke-linecap="round" stroke-linejoin="round" />
<path d="M 123.0 166.5 L 122.0 167.0 L 121.0 167.5 L 120.0 167.5 L 120.5 167.5 L 122.5 167.0 L 126.0 165.0 L 131.5 163.0 L 141.0 160.0 L 151.5 155.5 L 162.0 152.0 L 170.0 151.0 L 174.0 151.0 L 176.0 151.5 L 177.0 153.5 L 177.5 156.5 L 178.0 161.5 L 178.0 167.0 L 177.5 173.5 L 175.5 181.5 L 173.0 187.5 L 170.0 191.0 L 166.0 192.5 L 161.0 190.5 L 154.5 185.0 " stroke="black" fill="none" stroke-width="7.0" stroke-linecap="round" stroke-linejoin="round" />
<path d="M 147.5 145.5 L 147.0 145.5 L 147.0 145.0 L 146.0 145.5 L 145.5 149.0 L 143.5 157.5 L 137.5 170.5 L 129.5 184.0 L 123.0 193.5 " stroke="black" fill="none" stroke-width="7.0" stroke-linecap="round" stroke-linejoin="round" />
</svg>