<svg xmlns="http://www.w3.org/2000/svg" width="300" height="300" viewBox="0 0 300 300">
<path d="M 127.0 137.5 L 124.0 138.5 L 122.5 139.5 L 122.5 140.0 L 125.0 140.0 L 131.0 137.5 L 142.5 132.0 L 156.5 124.5 L 168.0 120.0 L 173.0 118.0 L 173.5 118.0 " stroke="black" fill="none" stroke-width="7.0" stroke-linecap="round" stroke-linejoin="round" />
<path d="M 133.5 104.0 L 133.5 104.5 L 133.5 105.5 L 134.0 114.0 L 135.0 134.0 L 135.0 156.5 L 134.0 172.5 L 134.0 181.5 L 134.0 183.0 " stroke="black" fill="none" stroke-width="7.0" stroke-linecap="round" stroke-linejoin="round" />
<path d="M 161.5 87.5 L 161.0 87.0 L 160.5 87.5 L 160.5 94.0 L 162.5 110.0 L 164.0 134.0 L 164.5 158.5 L 164.5 175.0 L 164.5 184.0 L 164.5 186.5 " stroke="black" fill="none" stroke-width="7.0" stroke-linecap="round" stroke-linejoin="round" />
<path d="M 143.0 165.5 L 141.5 166.0 L 141.0 166.0 L 143.5 165.0 L 148.0 163.0 L 153.5 159.5 L 159.5 156.5 " stroke="black" fill="none" stroke-width="7.0" stroke-linecap="round" stroke-linejoin="round" />
<path d="M 135.0 189.0 L 134.0 189.5 L 132.5 190.0 L 132.5 190.5 L 136.0 190.5 L 144.0 189.5 L 152.5 186.5 L 161.5 184.0 L 163.5 184.0 " stroke="black" fill="none" stroke-width="7.0" stroke-linecap="round" stroke-linejoin="round" />
</svg>