<svg xmlns="http://www.w3.org/2000/svg" width="300" height="300" viewBox="0 0 300 300">
<path d="M 132.5 94.5 L 132.5 94.5 L 132.0 94.5 L 132.0 94.5 L 135.5 93.5 L 143.0 91.0 L 152.0 87.5 L 160.0 84.5 L 164.5 84.0 L 166.5 84.0 L 166.5 87.0 L 165.0 92.0 L 163.5 98.5 L 162.0 105.0 L 161.5 110.5 L 161.0 111.5 " stroke="black" fill="none" stroke-width="7.0" stroke-linecap="round" stroke-linejoin="round" />
<path d="M 121.5 110.0 L 119.0 110.5 L 118.0 111.0 L 118.0 111.0 L 121.5 110.5 L 127.0 109.5 L 135.0 107.5 L 147.5 103.5 L 161.5 99.5 L 172.0 97.5 L 177.0 97.0 L 179.0 97.0 L 179.0 97.5 L 178.5 98.0 " stroke="black" fill="none" stroke-width="7.0" stroke-linecap="round" stroke-linejoin="round" />
<path d="M 132.5 121.0 L 131.0 122.5 L 130.5 123.5 L 132.5 124.0 L 139.0 123.0 L 147.5 120.0 L 156.0 116.5 L 161.5 115.0 L 162.5 115.0 " stroke="black" fill="none" stroke-width="7.0" stroke-linecap="round" stroke-linejoin="round" />
<path d="M 130.0 139.0 L 127.5 139.5 L 126.0 140.5 L 125.5 141.0 L 127.0 141.0 L 132.5 139.5 L 141.5 136.0 L 151.5 131.5 L 160.5 128.0 L 166.5 127.5 " stroke="black" fill="none" stroke-width="7.0" stroke-linecap="round" stroke-linejoin="round" />
<path d="M 145.5 72.5 L 145.0 73.0 L 144.5 75.0 L 144.5 80.5 L 146.0 94.0 L 147.0 113.5 L 147.0 131.0 L 146.5 143.5 L 146.0 150.5 L 146.0 151.5 " stroke="black" fill="none" stroke-width="7.0" stroke-linecap="round" stroke-linejoin="round" />
<path d="M 113.5 158.5 L 112.5 158.5 L 110.5 158.5 L 110.0 159.0 L 111.0 159.0 L 115.5 159.0 L 123.5 157.5 L 134.5 155.0 L 150.0 151.0 L 162.5 147.5 L 173.0 145.5 L 177.5 145.0 L 179.5 145.5 " stroke="black" fill="none" stroke-width="7.0" stroke-linecap="round" stroke-linejoin="round" />
<path d="M 125.0 173.5 L 125.0 173.5 L 124.5 173.0 L 125.0 172.5 L 126.0 174.0 L 128.0 179.0 L 130.5 185.5 L 132.5 190.5 L 133.0 191.5 " stroke="black" fill="none" stroke-width="7.0" stroke-linecap="round" stroke-linejoin="round" />
<path d="M 130.5 172.5 L 130.5 172.5 L 132.0 171.5 L 137.0 169.5 L 147.0 165.5 L 156.0 161.0 L 163.0 159.0 L 167.5 159.5 L 169.5 162.0 L 169.5 167.0 L 168.0 172.5 L 166.0 179.5 L 163.5 185.0 L 161.5 187.5 L 161.0 188.0 " stroke="black" fill="none" stroke-width="7.0" stroke-linecap="round" stroke-linejoin="round" />
<path d="M 142.0 182.0 L 140.0 182.5 L 139.0 182.5 L 140.0 181.5 L 143.5 180.5 L 148.5 178.5 L 153.0 176.5 L 155.0 176.0 " stroke="black" fill="none" stroke-width="7.0" stroke-linecap="round" stroke-linejoin="round" />
<path d="M 147.5 168.0 L 147.0 168.5 L 146.5 170.5 L 146.5 174.5 L 147.0 180.0 L 147.5 185.5 L 148.0 189.0 " stroke="black" fill="none" stroke-width="7.0" stroke-linecap="round" stroke-linejoin="round" />
<path d="M 140.5 192.5 L 138.5 193.5 L 137.0 194.0 L 138.0 194.0 L 142.0 193.5 L 147.5 191.5 L 153.0 189.5 L 158.0 188.0 L 160.5 188.0 " stroke="black" fill="none" stroke-width="7.0" stroke-linecap="round" stroke-linejoin="round" />
<path d="M 116.0 211.0 L 112.5 211.5 L 111.0 212.5 L 111.5 213.5 L 115.5 213.5 L 123.5 211.0 L 133.5 208.0 L 146.5 204.5 L 159.5 202.0 L 171.0 201.5 L 178.0 202.5 L 184.0 204.0 L 188.0 204.5 " stroke="black" fill="none" stroke-width="7.0" stroke-linecap="round" stroke-linejoin="round" />
</svg>