<svg xmlns="http://www.w3.org/2000/svg" width="300" height="300" viewBox="0 0 300 300">
<path d="M 142.5 93.0 L 141.5 93.0 L 140.0 92.5 L 140.0 92.5 L 142.5 94.0 L 146.0 95.5 L 150.0 95.5 L 152.5 95.5 " stroke="black" fill="none" stroke-width="7.0" stroke-linecap="round" stroke-linejoin="round" />
<path d="M 135.5 112.5 L 133.5 113.5 L 133.0 114.0 L 135.0 114.0 L 140.0 112.0 L 147.0 108.5 L 154.0 104.5 L 160.0 101.5 L 162.5 100.5 " stroke="black" fill="none" stroke-width="7.0" stroke-linecap="round" stroke-linejoin="round" />
<path d="M 129.5 110.5 L 129.5 112.0 L 129.0 114.5 L 129.5 120.5 L 130.0 132.5 L 130.0 148.5 L 127.5 165.0 L 123.5 180.0 L 118.5 191.0 L 114.5 197.0 " stroke="black" fill="none" stroke-width="7.0" stroke-linecap="round" stroke-linejoin="round" />
<path d="M 113.0 145.0 L 112.0 145.5 L 111.5 145.5 L 113.0 145.5 L 116.0 144.0 L 119.0 143.5 " stroke="black" fill="none" stroke-width="7.0" stroke-linecap="round" stroke-linejoin="round" />
<path d="M 108.5 168.0 L 108.0 169.0 L 107.0 171.5 L 108.5 171.0 L 113.0 167.5 L 120.0 160.0 L 128.5 150.0 " stroke="black" fill="none" stroke-width="7.0" stroke-linecap="round" stroke-linejoin="round" />
<path d="M 143.0 137.5 L 143.0 137.5 L 142.5 137.5 L 142.5 139.0 L 143.0 145.0 L 143.0 159.5 L 141.0 175.5 L 138.0 186.5 L 136.5 191.0 L 136.0 191.5 " stroke="black" fill="none" stroke-width="7.0" stroke-linecap="round" stroke-linejoin="round" />
<path d="M 144.0 146.0 L 144.0 145.5 L 144.0 144.5 L 145.5 143.0 L 150.0 140.0 L 158.5 135.0 L 168.0 129.0 L 173.0 126.5 L 174.0 126.0 L 174.5 128.5 L 173.0 133.5 L 171.5 139.0 L 170.0 144.0 L 168.5 146.0 " stroke="black" fill="none" stroke-width="7.0" stroke-linecap="round" stroke-linejoin="round" />
<path d="M 158.0 112.5 L 158.0 113.0 L 157.5 115.0 L 157.5 121.5 L 158.0 132.5 L 158.5 143.5 L 157.5 153.0 L 157.0 155.0 " stroke="black" fill="none" stroke-width="7.0" stroke-linecap="round" stroke-linejoin="round" />
<path d="M 151.0 166.5 L 151.0 166.5 L 150.5 166.5 L 150.5 166.0 L 152.5 164.0 L 156.5 161.0 L 161.5 158.5 L 165.5 157.0 L 167.0 157.5 L 167.0 160.0 L 165.0 164.0 L 162.5 168.0 L 159.5 173.5 L 156.5 179.5 L 152.5 186.0 L 149.0 192.0 L 145.0 195.0 L 143.5 195.0 " stroke="black" fill="none" stroke-width="7.0" stroke-linecap="round" stroke-linejoin="round" />
<path d="M 144.5 166.0 L 144.5 166.0 L 146.0 165.5 L 150.0 167.0 L 156.0 171.0 L 165.0 178.0 L 172.5 185.5 L 177.5 191.5 L 182.5 195.0 L 186.5 196.0 " stroke="black" fill="none" stroke-width="7.0" stroke-linecap="round" stroke-linejoin="round" />
</svg>