<svg xmlns="http://www.w3.org/2000/svg" width="300" height="300" viewBox="0 0 300 300">
<path d="M 127.0 112.0 L 125.0 113.0 L 124.0 113.5 L 124.0 113.5 L 126.0 113.5 L 131.0 112.5 L 139.0 109.5 L 149.5 105.5 L 158.5 101.0 L 164.5 98.0 L 166.0 97.5 " stroke="black" fill="none" stroke-width="7.0" stroke-linecap="round" stroke-linejoin="round" />
<path d="M 132.5 83.0 L 132.0 83.0 L 131.5 83.5 L 131.5 87.5 L 132.5 98.5 L 133.5 115.5 L 134.0 131.0 L 134.0 141.0 L 135.0 144.5 L 135.5 144.5 " stroke="black" fill="none" stroke-width="7.0" stroke-linecap="round" stroke-linejoin="round" />
<path d="M 154.5 72.0 L 155.0 72.0 L 155.0 71.5 L 156.0 73.0 L 157.0 82.0 L 157.5 100.0 L 158.0 118.0 L 158.0 130.0 L 158.0 137.5 L 158.5 140.5 L 158.5 141.0 " stroke="black" fill="none" stroke-width="7.0" stroke-linecap="round" stroke-linejoin="round" />
<path d="M 145.0 123.5 L 144.0 123.5 L 142.5 124.0 L 142.0 124.0 L 143.0 124.0 L 146.0 123.0 L 149.5 121.5 L 152.0 120.0 L 152.5 120.0 " stroke="black" fill="none" stroke-width="7.0" stroke-linecap="round" stroke-linejoin="round" />
<path d="M 139.5 136.0 L 139.0 136.5 L 139.0 137.0 L 140.5 137.5 L 145.5 136.0 L 149.5 133.5 L 151.5 132.5 " stroke="black" fill="none" stroke-width="7.0" stroke-linecap="round" stroke-linejoin="round" />
<path d="M 120.5 155.0 L 117.5 156.0 L 116.5 156.5 L 117.0 157.5 L 121.0 157.5 L 127.5 156.0 L 135.5 153.0 L 147.5 148.0 L 159.0 143.5 L 167.5 141.5 L 170.5 141.0 L 171.0 141.0 " stroke="black" fill="none" stroke-width="7.0" stroke-linecap="round" stroke-linejoin="round" />
<path d="M 130.0 158.5 L 130.0 158.5 L 129.5 158.5 L 129.0 158.5 L 129.0 159.5 L 129.0 163.0 L 130.5 169.5 L 131.0 179.0 L 131.0 186.0 L 131.0 190.5 L 131.0 192.5 L 132.5 193.0 L 135.0 193.0 L 139.0 192.5 L 144.5 190.5 L 150.5 189.0 L 157.0 187.5 L 163.0 187.5 L 168.5 187.5 L 171.5 188.5 L 171.5 189.0 " stroke="black" fill="none" stroke-width="7.0" stroke-linecap="round" stroke-linejoin="round" />
<path d="M 143.5 153.5 L 143.5 153.5 L 143.5 153.5 L 144.0 154.5 L 144.0 160.0 L 143.0 168.5 L 141.0 176.0 L 140.0 178.0 " stroke="black" fill="none" stroke-width="7.0" stroke-linecap="round" stroke-linejoin="round" />
<path d="M 155.5 150.5 L 155.5 150.5 L 155.5 151.5 L 156.0 154.0 L 157.0 160.0 L 158.5 167.0 L 160.5 171.5 L 164.0 173.0 L 168.0 172.5 L 171.5 170.0 L 173.5 169.0 " stroke="black" fill="none" stroke-width="7.0" stroke-linecap="round" stroke-linejoin="round" />
</svg>