<svg xmlns="http://www.w3.org/2000/svg" width="300" height="300" viewBox="0 0 300 300">
<path d="M 149.0 80.0 L 149.0 79.0 L 149.0 77.5 L 149.0 76.0 L 149.5 75.5 L 150.0 76.5 L 150.0 82.0 L 150.0 91.5 L 150.0 101.0 L 149.5 108.5 L 149.5 112.5 L 149.5 113.0 " stroke="black" fill="none" stroke-width="7.0" stroke-linecap="round" stroke-linejoin="round" />
<path d="M 132.5 98.5 L 132.5 98.5 L 132.0 98.5 L 132.0 98.5 L 133.5 98.5 L 137.0 99.0 L 139.5 99.0 " stroke="black" fill="none" stroke-width="7.0" stroke-linecap="round" stroke-linejoin="round" />
<path d="M 162.5 88.0 L 162.5 88.0 L 162.5 88.0 L 162.5 88.5 L 161.5 91.0 L 158.5 97.0 L 157.5 99.0 " stroke="black" fill="none" stroke-width="7.0" stroke-linecap="round" stroke-linejoin="round" />
<path d="M 106.5 124.0 L 106.5 124.0 L 106.0 123.5 L 106.0 123.5 L 107.5 124.0 L 110.5 126.0 L 114.0 128.5 L 117.0 130.5 L 117.5 131.0 " stroke="black" fill="none" stroke-width="7.0" stroke-linecap="round" stroke-linejoin="round" />
<path d="M 116.0 120.5 L 115.5 120.5 L 115.5 120.5 L 117.5 120.0 L 123.0 119.0 L 131.0 117.0 L 142.5 114.5 L 153.0 111.5 L 162.0 110.0 L 170.0 109.0 L 175.0 108.5 L 179.0 108.5 L 182.5 109.5 L 183.5 111.5 L 183.5 114.0 L 181.0 117.5 L 177.5 122.0 L 176.5 123.5 " stroke="black" fill="none" stroke-width="7.0" stroke-linecap="round" stroke-linejoin="round" />
<path d="M 132.0 133.5 L 131.0 133.5 L 130.5 133.0 L 131.0 133.0 L 133.5 135.5 L 136.5 138.5 L 139.5 141.0 L 140.0 141.5 " stroke="black" fill="none" stroke-width="7.0" stroke-linecap="round" stroke-linejoin="round" />
<path d="M 137.0 131.5 L 137.0 131.5 L 137.0 131.0 L 137.5 130.0 L 141.0 128.0 L 146.0 126.0 L 151.5 124.0 L 156.0 123.0 L 158.5 123.5 L 159.0 126.0 L 158.5 130.0 L 155.5 134.0 L 152.0 138.5 L 148.0 142.5 L 144.5 144.0 L 143.0 144.5 L 143.5 143.5 L 146.5 141.5 L 150.0 140.0 L 152.5 139.5 " stroke="black" fill="none" stroke-width="7.0" stroke-linecap="round" stroke-linejoin="round" />
<path d="M 120.5 160.5 L 119.5 160.5 L 119.5 160.5 L 120.0 163.0 L 122.0 168.5 L 124.5 177.0 L 126.5 184.0 L 128.0 186.5 L 128.5 187.0 " stroke="black" fill="none" stroke-width="7.0" stroke-linecap="round" stroke-linejoin="round" />
<path d="M 127.0 162.5 L 127.0 161.0 L 127.5 160.0 L 130.0 158.5 L 136.5 157.0 L 147.0 153.5 L 156.5 150.0 L 166.0 148.0 L 172.0 148.0 L 174.5 149.0 L 175.5 152.5 L 175.0 157.5 L 173.5 164.0 L 171.0 170.5 L 169.0 176.0 L 166.5 180.5 L 165.0 182.0 " stroke="black" fill="none" stroke-width="7.0" stroke-linecap="round" stroke-linejoin="round" />
<path d="M 142.5 171.5 L 141.5 171.5 L 138.5 171.5 L 136.0 171.5 L 136.0 172.0 L 138.5 172.0 L 145.0 170.5 L 151.5 167.0 L 158.5 164.0 L 163.0 162.5 " stroke="black" fill="none" stroke-width="7.0" stroke-linecap="round" stroke-linejoin="round" />
<path d="M 149.0 158.5 L 148.5 158.5 L 147.5 158.5 L 147.5 160.0 L 147.5 164.5 L 148.5 171.0 L 149.0 177.5 L 149.0 180.5 " stroke="black" fill="none" stroke-width="7.0" stroke-linecap="round" stroke-linejoin="round" />
<path d="M 135.0 187.0 L 132.0 188.5 L 131.0 189.0 L 131.0 189.0 L 135.0 188.0 L 142.0 185.5 L 150.0 183.0 L 159.0 181.5 L 165.0 181.0 " stroke="black" fill="none" stroke-width="7.0" stroke-linecap="round" stroke-linejoin="round" />
</svg>