<svg xmlns="http://www.w3.org/2000/svg" width="300" height="300" viewBox="0 0 300 300">
<path d="M 137.5 112.5 L 137.5 112.0 L 137.5 110.5 L 137.5 110.5 L 138.0 112.5 L 138.0 116.5 L 138.0 122.0 L 136.5 127.0 L 134.0 131.5 L 131.5 134.0 L 130.0 134.5 L 130.0 134.5 L 130.5 134.0 L 133.0 133.0 L 137.0 131.0 L 143.0 128.5 L 150.0 125.0 L 155.5 121.5 L 160.5 119.5 L 162.5 118.5 " stroke="black" fill="none" stroke-width="7.0" stroke-linecap="round" stroke-linejoin="round" />
<path d="M 128.5 159.5 L 126.5 160.5 L 125.0 161.5 L 125.0 161.5 L 128.0 160.5 L 134.5 158.0 L 144.0 154.0 L 154.5 149.5 L 163.0 146.5 L 168.0 144.5 " stroke="black" fill="none" stroke-width="7.0" stroke-linecap="round" stroke-linejoin="round" />
<path d="M 152.5 96.5 L 151.5 100.0 L 151.5 107.0 L 152.0 121.5 L 153.0 139.5 L 152.5 156.0 L 152.0 169.0 L 151.0 176.5 " stroke="black" fill="none" stroke-width="7.0" stroke-linecap="round" stroke-linejoin="round" />
<path d="M 115.5 186.5 L 114.0 187.0 L 112.5 187.0 L 112.5 187.0 L 116.5 186.5 L 124.5 185.0 L 135.0 183.5 L 150.0 182.0 L 164.5 180.5 L 175.0 180.0 L 181.5 179.5 L 184.5 179.5 " stroke="black" fill="none" stroke-width="7.0" stroke-linecap="round" stroke-linejoin="round" />
</svg>