<svg xmlns="http://www.w3.org/2000/svg" width="300" height="300" viewBox="0 0 300 300">
<path d="M 151.5 103.0 L 151.5 103.0 L 152.0 102.0 L 152.5 101.5 L 152.0 102.0 L 149.5 106.0 L 145.5 112.0 L 138.0 120.0 L 130.5 127.0 L 128.0 129.0 " stroke="black" fill="none" stroke-width="7.0" stroke-linecap="round" stroke-linejoin="round" />
<path d="M 125.0 129.5 L 125.0 129.5 L 124.5 130.0 L 124.5 131.0 L 124.5 134.5 L 125.0 143.5 L 126.5 156.5 L 127.5 170.0 L 128.5 180.5 L 129.0 186.0 L 129.5 187.5 L 129.5 187.5 " stroke="black" fill="none" stroke-width="7.0" stroke-linecap="round" stroke-linejoin="round" />
<path d="M 130.0 138.0 L 130.0 136.5 L 131.5 135.0 L 137.0 132.5 L 146.5 128.5 L 155.5 124.5 L 164.5 122.0 L 171.0 121.5 L 174.0 123.0 L 176.5 127.5 L 178.0 136.0 L 178.0 147.0 L 177.5 159.5 L 175.5 171.0 L 173.5 179.0 L 172.0 183.5 L 170.0 185.0 L 166.5 184.0 " stroke="black" fill="none" stroke-width="7.0" stroke-linecap="round" stroke-linejoin="round" />
<path d="M 139.5 159.5 L 139.0 159.5 L 137.0 159.5 L 136.5 159.5 L 139.5 159.5 L 145.5 158.5 L 152.0 155.5 L 158.5 152.5 L 162.5 151.0 L 162.5 151.0 " stroke="black" fill="none" stroke-width="7.0" stroke-linecap="round" stroke-linejoin="round" />
<path d="M 137.5 182.0 L 135.0 184.0 L 135.5 185.5 L 140.5 185.5 L 148.0 184.0 L 157.5 181.0 L 167.0 179.5 L 169.0 179.5 " stroke="black" fill="none" stroke-width="7.0" stroke-linecap="round" stroke-linejoin="round" />
</svg>