<svg xmlns="http://www.w3.org/2000/svg" width="300" height="300" viewBox="0 0 300 300">
<path d="M 128.0 104.5 L 128.0 104.5 L 127.5 104.5 L 127.0 104.5 L 127.5 104.5 L 129.0 104.0 L 131.5 103.0 L 135.0 102.0 L 140.0 101.0 L 141.5 100.5 L 142.5 100.5 L 143.0 101.0 L 142.0 102.5 L 141.5 104.5 L 139.0 109.5 L 136.0 116.0 L 131.5 125.0 L 126.0 135.5 L 118.5 146.5 L 110.0 155.0 L 105.5 160.0 L 103.0 162.0 L 101.5 163.0 " stroke="black" fill="none" stroke-width="7.0" stroke-linecap="round" stroke-linejoin="round" />
<path d="M 118.0 121.0 L 118.0 120.5 L 118.5 120.5 L 121.0 122.0 L 125.0 124.0 L 127.0 125.0 " stroke="black" fill="none" stroke-width="7.0" stroke-linecap="round" stroke-linejoin="round" />
<path d="M 172.0 102.5 L 172.0 102.5 L 172.0 102.0 L 172.0 102.0 L 172.0 102.0 L 171.5 103.5 L 169.0 108.0 L 165.5 113.5 L 164.0 116.5 " stroke="black" fill="none" stroke-width="7.0" stroke-linecap="round" stroke-linejoin="round" />
<path d="M 184.0 106.0 L 184.0 107.0 L 183.5 108.5 L 181.5 111.5 L 178.5 115.5 L 175.0 120.0 L 173.0 121.5 " stroke="black" fill="none" stroke-width="7.0" stroke-linecap="round" stroke-linejoin="round" />
<path d="M 151.5 102.5 L 151.5 102.5 L 150.5 102.5 L 150.5 102.5 L 151.0 103.5 L 155.0 108.5 L 163.0 116.5 L 172.5 126.0 L 180.0 133.5 L 188.0 139.0 L 194.0 142.0 L 197.0 144.0 L 199.0 145.5 L 199.5 146.0 " stroke="black" fill="none" stroke-width="7.0" stroke-linecap="round" stroke-linejoin="round" />
<path d="M 136.0 138.5 L 136.0 138.5 L 135.0 139.0 L 134.5 139.0 L 134.5 139.0 L 135.5 139.0 L 138.0 138.0 L 141.0 137.0 L 143.5 136.0 L 145.0 135.5 L 146.0 135.5 L 146.5 136.5 L 145.5 139.0 L 144.5 141.5 L 142.5 144.5 L 142.0 145.0 " stroke="black" fill="none" stroke-width="7.0" stroke-linecap="round" stroke-linejoin="round" />
<path d="M 132.5 152.0 L 132.5 153.0 L 132.0 153.5 L 132.0 154.0 L 134.0 153.5 L 137.0 151.5 L 140.5 149.0 L 143.0 147.5 " stroke="black" fill="none" stroke-width="7.0" stroke-linecap="round" stroke-linejoin="round" />
<path d="M 132.5 154.0 L 131.5 155.5 L 130.0 158.0 L 129.0 161.0 L 127.0 164.5 L 125.5 167.5 L 124.0 170.0 L 123.0 171.5 L 123.0 172.0 L 124.5 172.0 L 126.5 170.5 L 129.5 169.0 L 132.5 167.0 L 136.0 165.5 L 139.5 164.5 L 141.5 165.5 L 142.0 168.5 L 142.0 174.0 L 141.0 180.5 L 139.0 186.5 L 136.5 192.0 L 133.5 196.0 L 130.5 198.0 L 127.5 198.0 L 125.0 196.0 L 123.0 192.0 L 122.5 190.0 " stroke="black" fill="none" stroke-width="7.0" stroke-linecap="round" stroke-linejoin="round" />
<path d="M 155.0 134.5 L 155.0 134.5 L 155.5 134.5 L 156.0 135.5 L 156.0 139.5 L 155.5 145.0 L 154.5 149.5 L 154.0 151.5 L 153.5 151.5 " stroke="black" fill="none" stroke-width="7.0" stroke-linecap="round" stroke-linejoin="round" />
<path d="M 158.0 137.5 L 158.0 137.5 L 159.5 137.0 L 161.0 137.0 L 162.5 137.0 L 163.5 138.5 L 164.0 141.0 L 164.5 143.0 L 164.5 145.0 L 165.5 146.0 L 166.5 146.5 L 168.5 146.5 L 170.5 146.0 L 172.5 145.0 L 174.0 144.5 L 174.5 144.0 L 175.0 144.5 " stroke="black" fill="none" stroke-width="7.0" stroke-linecap="round" stroke-linejoin="round" />
<path d="M 153.0 166.0 L 153.0 166.0 L 152.5 166.5 L 152.5 166.5 L 154.5 166.0 L 158.5 164.5 L 163.0 162.0 L 167.5 160.5 L 170.0 159.5 L 170.5 160.5 L 169.5 163.5 L 168.0 167.0 L 164.5 172.0 L 160.5 178.5 L 155.0 185.5 L 150.5 190.5 L 148.5 192.0 L 148.0 192.5 " stroke="black" fill="none" stroke-width="7.0" stroke-linecap="round" stroke-linejoin="round" />
<path d="M 149.5 170.0 L 150.0 171.0 L 151.5 173.5 L 156.5 178.5 L 165.0 186.0 L 172.0 192.5 L 176.0 197.0 L 180.0 200.0 L 181.5 201.0 " stroke="black" fill="none" stroke-width="7.0" stroke-linecap="round" stroke-linejoin="round" />
</svg>