<svg xmlns="http://www.w3.org/2000/svg" width="300" height="300" viewBox="0 0 300 300">
<path d="M 136.5 88.5 L 136.5 88.0 L 136.5 87.0 L 136.5 87.0 L 137.0 87.0 L 138.5 93.0 L 139.0 101.5 L 135.5 114.0 L 130.0 126.5 L 125.0 134.0 L 122.0 136.5 " stroke="black" fill="none" stroke-width="7.0" stroke-linecap="round" stroke-linejoin="round" />
<path d="M 128.5 88.0 L 127.5 88.5 L 126.0 89.0 L 125.5 89.0 L 125.5 89.0 L 127.5 89.0 L 132.5 87.5 L 140.0 84.5 L 149.0 81.0 L 156.0 78.0 L 159.5 77.5 L 161.0 77.5 L 161.0 80.0 L 159.0 84.0 L 156.0 90.5 L 152.5 97.5 L 150.5 102.5 L 150.0 105.0 L 150.5 105.5 L 153.0 105.5 L 157.0 103.5 L 162.5 101.5 L 167.5 100.5 L 171.5 100.0 L 174.0 100.0 L 175.0 101.5 L 175.5 104.5 L 175.5 110.0 L 174.0 117.0 L 172.5 123.5 L 170.0 130.0 L 165.5 136.0 L 160.5 139.0 L 158.0 139.0 " stroke="black" fill="none" stroke-width="7.0" stroke-linecap="round" stroke-linejoin="round" />
<path d="M 140.0 121.0 L 139.5 121.0 L 139.0 121.0 L 139.5 120.5 L 143.5 119.0 L 147.5 117.5 L 150.5 117.0 L 152.5 116.5 L 153.0 118.0 L 152.0 121.0 L 149.0 125.5 L 146.5 129.5 L 143.0 133.5 L 139.0 137.5 L 138.0 138.5 " stroke="black" fill="none" stroke-width="7.0" stroke-linecap="round" stroke-linejoin="round" />
<path d="M 136.0 125.0 L 136.0 125.0 L 136.5 126.0 L 138.5 126.5 L 143.5 127.5 L 149.5 128.5 L 155.0 129.0 " stroke="black" fill="none" stroke-width="7.0" stroke-linecap="round" stroke-linejoin="round" />
<path d="M 119.5 159.0 L 118.5 158.5 L 118.0 158.5 L 118.0 159.0 L 121.5 164.0 L 124.0 168.5 L 127.5 174.0 L 128.5 175.0 " stroke="black" fill="none" stroke-width="7.0" stroke-linecap="round" stroke-linejoin="round" />
<path d="M 126.5 160.5 L 126.0 160.0 L 126.0 159.0 L 126.0 158.0 L 131.0 156.0 L 142.0 152.5 L 152.0 148.5 L 165.5 144.5 L 173.0 144.0 L 176.5 143.5 L 178.5 144.0 L 179.0 146.5 L 179.0 151.0 L 176.5 157.5 L 173.5 165.0 L 169.5 170.5 L 168.5 171.5 " stroke="black" fill="none" stroke-width="7.0" stroke-linecap="round" stroke-linejoin="round" />
<path d="M 143.0 156.0 L 142.5 156.0 L 141.0 157.5 L 141.0 161.0 L 141.0 165.5 L 141.5 171.5 L 142.0 173.0 " stroke="black" fill="none" stroke-width="7.0" stroke-linecap="round" stroke-linejoin="round" />
<path d="M 155.0 151.5 L 155.0 152.0 L 155.5 154.0 L 155.5 157.5 L 155.5 166.0 L 155.5 168.0 " stroke="black" fill="none" stroke-width="7.0" stroke-linecap="round" stroke-linejoin="round" />
<path d="M 104.5 188.5 L 104.0 188.5 L 103.0 189.0 L 103.0 189.0 L 104.5 189.0 L 112.5 188.5 L 126.0 186.5 L 144.5 183.0 L 164.0 179.0 L 176.0 177.0 L 192.0 175.5 L 198.0 175.5 L 201.5 176.5 " stroke="black" fill="none" stroke-width="7.0" stroke-linecap="round" stroke-linejoin="round" />
</svg>