<svg xmlns="http://www.w3.org/2000/svg" width="300" height="300" viewBox="0 0 300 300">
<path d="M 136.0 114.5 L 135.0 114.5 L 134.5 114.5 L 134.5 114.5 L 138.0 114.5 L 145.0 113.0 L 153.0 109.5 L 161.5 105.5 L 167.0 103.5 L 168.0 102.5 " stroke="black" fill="none" stroke-width="7.0" stroke-linecap="round" stroke-linejoin="round" />
<path d="M 130.5 117.0 L 130.5 117.0 L 130.0 117.5 L 130.0 121.0 L 129.5 129.0 L 128.5 140.5 L 125.5 150.0 L 122.5 155.0 L 120.5 157.0 L 120.0 155.5 L 120.0 155.0 " stroke="black" fill="none" stroke-width="7.0" stroke-linecap="round" stroke-linejoin="round" />
<path d="M 127.5 140.0 L 128.5 138.0 L 130.5 136.5 L 134.0 134.0 L 139.0 132.0 L 143.0 131.0 L 145.5 132.0 L 145.5 136.5 L 143.0 142.0 L 139.0 148.0 L 135.0 152.0 L 132.5 153.0 L 132.0 151.0 L 132.5 150.0 " stroke="black" fill="none" stroke-width="7.0" stroke-linecap="round" stroke-linejoin="round" />
<path d="M 147.0 89.0 L 147.0 89.0 L 147.5 91.0 L 150.5 98.5 L 155.0 111.5 L 161.0 125.5 L 166.5 138.0 L 170.5 146.5 L 174.0 152.0 L 176.5 155.0 L 177.5 155.5 L 177.5 153.5 L 176.0 148.0 " stroke="black" fill="none" stroke-width="7.0" stroke-linecap="round" stroke-linejoin="round" />
<path d="M 171.5 119.5 L 171.0 119.5 L 170.0 119.5 L 168.5 121.0 L 166.0 127.0 L 160.5 138.0 L 154.0 148.5 L 150.0 153.0 " stroke="black" fill="none" stroke-width="7.0" stroke-linecap="round" stroke-linejoin="round" />
<path d="M 160.0 86.0 L 160.0 86.5 L 160.5 87.0 L 163.5 89.5 L 168.5 93.5 L 170.0 94.5 " stroke="black" fill="none" stroke-width="7.0" stroke-linecap="round" stroke-linejoin="round" />
<path d="M 114.0 173.5 L 114.0 173.5 L 114.0 174.0 L 114.0 176.0 L 116.5 181.0 L 120.5 188.5 L 123.0 193.5 L 125.0 195.5 L 125.0 195.0 " stroke="black" fill="none" stroke-width="7.0" stroke-linecap="round" stroke-linejoin="round" />
<path d="M 124.0 175.0 L 124.0 175.0 L 124.0 175.0 L 126.5 175.0 L 132.5 173.5 L 143.5 171.0 L 154.0 169.0 L 162.5 166.5 L 170.5 165.0 L 175.0 165.0 L 177.5 165.0 L 179.0 166.0 L 180.0 167.5 L 179.5 170.5 L 177.0 175.0 L 174.0 181.0 L 172.0 185.0 " stroke="black" fill="none" stroke-width="7.0" stroke-linecap="round" stroke-linejoin="round" />
<path d="M 140.0 173.5 L 140.0 173.5 L 140.0 174.0 L 140.5 177.0 L 140.5 183.5 L 141.0 189.5 L 141.0 190.5 " stroke="black" fill="none" stroke-width="7.0" stroke-linecap="round" stroke-linejoin="round" />
<path d="M 153.0 170.5 L 153.0 170.5 L 153.5 170.5 L 154.0 171.0 L 154.0 175.5 L 154.0 182.5 L 153.5 185.5 " stroke="black" fill="none" stroke-width="7.0" stroke-linecap="round" stroke-linejoin="round" />
<path d="M 102.5 198.5 L 102.5 198.5 L 101.5 198.5 L 101.0 199.0 L 101.5 199.0 L 103.5 199.0 L 109.5 197.5 L 121.0 196.0 L 136.5 194.5 L 152.5 192.5 L 167.5 190.5 L 179.5 189.0 L 190.0 188.5 L 197.0 189.0 L 201.0 189.5 " stroke="black" fill="none" stroke-width="7.0" stroke-linecap="round" stroke-linejoin="round" />
</svg>