<svg xmlns="http://www.w3.org/2000/svg" width="300" height="300" viewBox="0 0 300 300">
<path d="M 137.0 101.5 L 137.0 101.5 L 136.0 100.5 L 136.0 100.5 L 137.0 101.0 L 140.0 102.5 L 144.0 104.0 L 145.0 104.5 " stroke="black" fill="none" stroke-width="7.0" stroke-linecap="round" stroke-linejoin="round" />
<path d="M 156.5 88.0 L 156.5 88.0 L 156.0 88.0 L 155.5 89.0 L 154.0 93.0 L 151.5 99.0 L 148.0 106.0 " stroke="black" fill="none" stroke-width="7.0" stroke-linecap="round" stroke-linejoin="round" />
<path d="M 123.0 124.0 L 121.0 124.5 L 120.5 124.5 L 121.5 124.0 L 125.5 122.5 L 132.5 119.5 L 143.5 115.0 L 155.5 108.5 L 165.0 104.5 L 167.5 104.0 " stroke="black" fill="none" stroke-width="7.0" stroke-linecap="round" stroke-linejoin="round" />
<path d="M 145.0 119.0 L 144.5 119.5 L 143.0 120.5 L 141.5 122.5 L 138.5 127.5 L 133.5 135.0 L 128.5 143.0 L 125.5 147.0 " stroke="black" fill="none" stroke-width="7.0" stroke-linecap="round" stroke-linejoin="round" />
<path d="M 150.0 121.0 L 153.5 121.5 L 158.5 124.0 L 164.0 128.5 L 169.0 132.5 L 172.0 137.0 L 172.5 138.0 " stroke="black" fill="none" stroke-width="7.0" stroke-linecap="round" stroke-linejoin="round" />
<path d="M 115.0 161.5 L 114.5 162.5 L 114.5 164.0 L 116.5 167.5 L 119.5 172.0 L 122.5 176.5 L 124.5 179.0 L 125.5 179.0 " stroke="black" fill="none" stroke-width="7.0" stroke-linecap="round" stroke-linejoin="round" />
<path d="M 124.5 157.5 L 124.5 157.5 L 125.5 156.5 L 130.0 154.5 L 140.5 151.0 L 152.0 147.0 L 161.5 145.0 L 168.5 144.5 L 172.0 144.5 L 174.5 146.5 L 175.0 150.0 L 175.5 155.0 L 174.0 162.0 L 171.5 168.5 L 168.5 174.5 " stroke="black" fill="none" stroke-width="7.0" stroke-linecap="round" stroke-linejoin="round" />
<path d="M 140.5 156.5 L 139.5 158.5 L 139.0 161.5 L 139.0 166.5 L 139.0 171.5 L 140.0 175.0 L 140.5 175.5 " stroke="black" fill="none" stroke-width="7.0" stroke-linecap="round" stroke-linejoin="round" />
<path d="M 153.0 148.5 L 153.5 148.5 L 154.0 149.0 L 154.0 153.5 L 153.5 163.0 L 152.5 172.0 L 151.5 177.5 " stroke="black" fill="none" stroke-width="7.0" stroke-linecap="round" stroke-linejoin="round" />
<path d="M 105.0 192.0 L 104.5 192.0 L 104.5 192.0 L 107.0 191.0 L 115.5 189.5 L 129.5 187.0 L 146.5 184.0 L 162.0 181.5 L 175.5 181.0 L 186.0 180.5 L 193.5 180.5 L 195.0 181.0 " stroke="black" fill="none" stroke-width="7.0" stroke-linecap="round" stroke-linejoin="round" />
</svg>