<svg xmlns="http://www.w3.org/2000/svg" width="300" height="300" viewBox="0 0 300 300">
<path d="M 136.5 97.0 L 136.0 97.0 L 135.0 97.0 L 135.0 96.5 L 135.0 96.5 L 138.5 95.5 L 145.0 94.0 L 152.5 91.5 L 161.0 88.0 L 166.5 86.5 L 169.0 86.0 L 169.0 88.5 L 168.5 94.0 L 166.5 101.0 L 164.5 108.0 L 163.0 114.5 L 162.5 118.0 " stroke="black" fill="none" stroke-width="7.0" stroke-linecap="round" stroke-linejoin="round" />
<path d="M 125.5 115.0 L 124.0 115.0 L 124.0 115.0 L 122.0 115.5 L 123.0 115.5 L 127.5 115.0 L 135.0 113.0 L 147.0 109.5 L 159.5 105.5 L 170.5 102.0 L 175.5 100.5 L 177.0 100.0 L 176.5 101.0 L 174.5 103.0 " stroke="black" fill="none" stroke-width="7.0" stroke-linecap="round" stroke-linejoin="round" />
<path d="M 133.5 125.0 L 130.0 126.5 L 129.0 127.0 L 129.0 127.0 L 132.5 127.0 L 139.5 125.0 L 148.5 122.5 L 157.0 120.0 L 164.0 118.5 " stroke="black" fill="none" stroke-width="7.0" stroke-linecap="round" stroke-linejoin="round" />
<path d="M 150.0 78.5 L 150.0 77.0 L 149.5 76.0 L 149.5 76.0 L 150.0 82.0 L 151.0 94.0 L 151.0 111.5 L 150.0 127.5 L 149.5 137.0 L 149.5 140.0 " stroke="black" fill="none" stroke-width="7.0" stroke-linecap="round" stroke-linejoin="round" />
<path d="M 116.0 148.5 L 115.5 148.5 L 114.5 148.5 L 114.0 148.5 L 114.0 148.0 L 117.5 147.5 L 123.5 146.5 L 133.0 144.5 L 147.5 142.0 L 158.5 139.0 L 168.5 137.0 L 173.5 137.0 L 174.0 137.0 " stroke="black" fill="none" stroke-width="7.0" stroke-linecap="round" stroke-linejoin="round" />
<path d="M 118.0 159.0 L 118.0 159.0 L 117.0 159.5 L 117.0 160.5 L 118.5 162.5 L 121.0 165.5 L 123.5 168.0 " stroke="black" fill="none" stroke-width="7.0" stroke-linecap="round" stroke-linejoin="round" />
<path d="M 130.5 151.5 L 131.0 152.5 L 132.5 154.0 L 134.5 156.5 L 137.5 159.0 L 140.5 161.0 " stroke="black" fill="none" stroke-width="7.0" stroke-linecap="round" stroke-linejoin="round" />
<path d="M 150.5 151.0 L 150.5 151.0 L 150.5 151.0 L 150.5 151.5 L 151.0 153.5 L 153.5 157.5 L 156.0 161.0 L 156.5 161.5 " stroke="black" fill="none" stroke-width="7.0" stroke-linecap="round" stroke-linejoin="round" />
<path d="M 168.0 150.0 L 169.0 150.0 L 170.5 150.5 L 172.0 155.0 L 173.0 162.5 L 173.0 164.0 " stroke="black" fill="none" stroke-width="7.0" stroke-linecap="round" stroke-linejoin="round" />
<path d="M 109.5 182.5 L 109.0 182.0 L 108.5 181.5 L 108.5 181.5 L 108.5 181.5 L 110.5 184.5 L 113.5 189.0 L 117.0 193.0 L 119.5 195.5 L 120.0 195.5 " stroke="black" fill="none" stroke-width="7.0" stroke-linecap="round" stroke-linejoin="round" />
<path d="M 116.5 183.5 L 116.5 183.5 L 116.0 183.5 L 116.0 183.5 L 117.0 183.5 L 120.5 182.5 L 126.0 181.0 L 135.0 178.5 L 147.0 175.5 L 156.5 173.5 L 166.5 172.5 L 173.5 172.0 L 177.0 173.0 L 179.5 175.5 L 179.5 179.5 L 176.5 184.5 L 173.0 190.0 L 170.5 193.0 " stroke="black" fill="none" stroke-width="7.0" stroke-linecap="round" stroke-linejoin="round" />
<path d="M 133.5 183.5 L 133.5 183.5 L 133.0 183.5 L 133.0 186.0 L 133.0 190.5 L 133.0 195.5 L 133.0 196.5 " stroke="black" fill="none" stroke-width="7.0" stroke-linecap="round" stroke-linejoin="round" />
<path d="M 151.0 176.0 L 151.0 176.0 L 151.5 175.0 L 152.0 176.0 L 152.0 181.0 L 151.5 187.5 L 150.5 194.0 " stroke="black" fill="none" stroke-width="7.0" stroke-linecap="round" stroke-linejoin="round" />
<path d="M 100.5 209.5 L 100.0 209.5 L 100.0 209.5 L 102.0 209.0 L 108.0 207.5 L 121.0 205.5 L 137.0 202.5 L 153.5 200.0 L 168.5 198.5 L 180.5 198.0 L 191.5 198.5 L 198.5 200.0 L 200.5 200.5 " stroke="black" fill="none" stroke-width="7.0" stroke-linecap="round" stroke-linejoin="round" />
</svg>