<svg xmlns="http://www.w3.org/2000/svg" width="300" height="300" viewBox="0 0 300 300">
<path d="M 131.5 93.5 L 131.5 93.5 L 131.0 93.5 L 130.0 93.5 L 130.0 93.5 L 130.5 93.0 L 133.0 93.0 L 136.0 92.0 L 139.5 91.0 L 142.5 90.0 L 144.5 89.5 L 145.0 89.5 L 145.0 90.5 L 143.0 94.5 L 141.0 98.5 L 138.0 105.0 L 133.5 114.5 L 127.5 125.5 L 121.5 135.5 L 114.5 142.5 L 110.0 146.0 L 107.5 147.5 L 107.0 147.5 " stroke="black" fill="none" stroke-width="7.0" stroke-linecap="round" stroke-linejoin="round" />
<path d="M 120.0 107.0 L 120.0 107.5 L 120.0 107.5 L 122.0 109.5 L 125.5 112.5 L 129.5 115.5 " stroke="black" fill="none" stroke-width="7.0" stroke-linecap="round" stroke-linejoin="round" />
<path d="M 169.5 92.0 L 169.5 91.5 L 169.5 91.5 L 169.5 91.5 L 168.5 94.0 L 166.0 98.5 L 163.0 104.0 L 160.0 108.0 " stroke="black" fill="none" stroke-width="7.0" stroke-linecap="round" stroke-linejoin="round" />
<path d="M 184.0 102.0 L 184.0 101.5 L 184.0 101.0 L 184.0 100.5 L 183.0 102.5 L 179.5 107.5 L 174.5 114.5 L 169.5 121.5 " stroke="black" fill="none" stroke-width="7.0" stroke-linecap="round" stroke-linejoin="round" />
<path d="M 152.0 99.5 L 151.5 99.5 L 151.0 99.5 L 150.5 99.0 L 152.5 101.0 L 158.5 108.0 L 167.0 118.5 L 174.0 127.0 L 179.0 132.0 L 184.0 136.0 L 188.5 139.0 L 190.5 140.5 " stroke="black" fill="none" stroke-width="7.0" stroke-linecap="round" stroke-linejoin="round" />
<path d="M 136.5 132.5 L 135.0 133.5 L 134.0 133.5 L 134.0 134.0 L 137.0 134.0 L 143.0 132.0 L 149.0 129.5 L 153.0 127.5 L 154.0 127.5 " stroke="black" fill="none" stroke-width="7.0" stroke-linecap="round" stroke-linejoin="round" />
<path d="M 126.0 149.5 L 126.0 150.0 L 126.0 150.0 L 126.0 150.5 L 127.0 152.0 L 128.5 154.0 L 131.0 156.5 L 133.5 158.5 L 135.0 159.5 " stroke="black" fill="none" stroke-width="7.0" stroke-linecap="round" stroke-linejoin="round" />
<path d="M 131.5 150.5 L 131.5 150.0 L 131.5 149.5 L 133.0 149.5 L 136.5 148.5 L 143.0 146.5 L 150.5 143.5 L 156.0 141.0 L 160.0 140.5 L 162.5 140.5 L 163.0 142.0 L 162.0 145.0 L 159.5 149.0 L 156.0 154.0 L 155.0 155.5 " stroke="black" fill="none" stroke-width="7.0" stroke-linecap="round" stroke-linejoin="round" />
<path d="M 140.0 163.5 L 137.5 164.5 L 135.5 164.5 L 135.5 164.5 L 138.0 164.0 L 142.0 162.5 L 147.5 160.0 L 152.5 157.0 L 157.0 155.0 L 158.5 154.5 " stroke="black" fill="none" stroke-width="7.0" stroke-linecap="round" stroke-linejoin="round" />
<path d="M 139.5 172.5 L 139.5 172.5 L 139.5 172.0 L 139.5 171.5 L 141.0 174.0 L 143.5 178.5 L 146.0 182.0 L 147.5 183.5 " stroke="black" fill="none" stroke-width="7.0" stroke-linecap="round" stroke-linejoin="round" />
<path d="M 156.5 164.0 L 157.0 163.0 L 157.5 162.5 L 157.5 162.5 L 157.5 166.5 L 155.5 172.5 L 152.5 180.0 " stroke="black" fill="none" stroke-width="7.0" stroke-linecap="round" stroke-linejoin="round" />
<path d="M 111.0 193.5 L 110.5 193.5 L 110.0 193.5 L 110.5 193.5 L 114.5 193.5 L 123.0 193.0 L 136.0 191.0 L 152.0 187.5 L 167.5 184.0 L 177.5 182.5 L 187.0 181.5 L 192.0 183.0 " stroke="black" fill="none" stroke-width="7.0" stroke-linecap="round" stroke-linejoin="round" />
</svg>