<svg xmlns="http://www.w3.org/2000/svg" width="300" height="300" viewBox="0 0 300 300">
<path d="M 134.5 85.5 L 135.0 84.0 L 135.0 83.0 L 135.0 82.5 L 134.5 84.0 L 132.5 88.0 L 130.0 92.5 L 127.5 97.0 L 125.5 100.5 L 124.0 102.5 L 124.0 103.0 L 124.0 103.0 L 124.0 104.0 L 125.0 106.0 L 125.5 110.5 L 125.5 118.5 L 125.5 129.0 L 125.0 140.0 L 123.5 148.0 L 121.0 153.0 L 119.5 153.5 L 119.5 152.0 " stroke="black" fill="none" stroke-width="7.0" stroke-linecap="round" stroke-linejoin="round" />
<path d="M 128.5 105.5 L 128.5 105.0 L 128.5 104.0 L 130.0 102.5 L 134.0 100.5 L 139.0 98.5 L 143.5 97.0 L 145.0 97.0 L 145.5 97.5 L 145.0 100.5 L 145.0 104.5 L 145.0 110.5 L 146.0 120.0 L 146.5 131.5 L 146.5 145.0 L 146.5 157.0 L 146.0 164.0 L 145.5 166.5 L 145.0 167.0 L 143.5 164.0 L 141.5 159.5 L 140.5 156.5 " stroke="black" fill="none" stroke-width="7.0" stroke-linecap="round" stroke-linejoin="round" />
<path d="M 133.0 115.5 L 132.5 116.0 L 132.0 116.5 L 133.0 116.5 L 136.0 117.0 " stroke="black" fill="none" stroke-width="7.0" stroke-linecap="round" stroke-linejoin="round" />
<path d="M 132.5 133.5 L 132.5 133.5 L 132.5 134.5 L 133.5 136.0 L 135.5 139.0 L 138.0 141.0 " stroke="black" fill="none" stroke-width="7.0" stroke-linecap="round" stroke-linejoin="round" />
<path d="M 115.0 126.5 L 113.5 127.0 L 112.5 127.0 L 113.0 127.0 L 118.5 127.5 L 127.5 127.0 L 140.0 124.0 L 152.5 120.0 L 158.0 118.5 " stroke="black" fill="none" stroke-width="7.0" stroke-linecap="round" stroke-linejoin="round" />
<path d="M 164.5 92.0 L 164.5 91.0 L 164.5 90.5 L 165.0 93.5 L 165.0 100.0 L 165.0 106.5 L 164.0 112.0 L 164.0 112.5 " stroke="black" fill="none" stroke-width="7.0" stroke-linecap="round" stroke-linejoin="round" />
<path d="M 167.0 95.5 L 168.5 94.0 L 170.0 93.0 L 172.0 92.5 L 174.5 92.5 L 176.5 93.0 L 178.0 95.5 L 178.0 99.0 L 178.0 103.0 L 177.5 106.0 L 178.0 107.0 L 180.0 107.0 L 183.5 105.5 L 186.5 104.0 L 188.0 103.5 " stroke="black" fill="none" stroke-width="7.0" stroke-linecap="round" stroke-linejoin="round" />
<path d="M 166.0 129.0 L 166.0 129.0 L 166.5 129.0 L 168.5 128.5 L 173.0 125.5 L 178.5 122.0 L 182.5 120.5 L 183.5 120.5 L 182.0 124.0 L 178.5 129.5 L 174.5 137.0 L 170.5 145.5 L 166.5 152.5 L 161.0 158.5 L 156.5 160.5 L 154.5 160.5 " stroke="black" fill="none" stroke-width="7.0" stroke-linecap="round" stroke-linejoin="round" />
<path d="M 161.5 131.5 L 162.0 131.5 L 165.0 133.5 L 170.0 138.0 L 175.5 142.5 L 181.5 146.0 L 188.5 148.5 L 189.5 149.5 " stroke="black" fill="none" stroke-width="7.0" stroke-linecap="round" stroke-linejoin="round" />
<path d="M 119.5 172.0 L 119.5 172.0 L 119.5 172.5 L 120.0 173.5 L 123.0 178.0 L 125.5 183.5 L 127.0 187.5 L 128.0 189.0 L 128.0 189.0 " stroke="black" fill="none" stroke-width="7.0" stroke-linecap="round" stroke-linejoin="round" />
<path d="M 127.5 172.5 L 127.5 172.5 L 128.0 172.5 L 130.5 171.5 L 138.5 169.5 L 150.0 166.0 L 161.5 162.5 L 171.0 160.0 L 176.5 159.0 L 181.5 159.0 L 185.0 160.0 L 186.0 162.5 L 185.5 166.5 L 183.0 171.0 L 179.5 176.0 L 175.5 181.0 L 174.5 182.0 " stroke="black" fill="none" stroke-width="7.0" stroke-linecap="round" stroke-linejoin="round" />
<path d="M 144.0 169.5 L 144.0 170.0 L 143.5 171.0 L 143.5 174.5 L 144.5 179.5 L 145.5 183.5 L 146.0 184.0 " stroke="black" fill="none" stroke-width="7.0" stroke-linecap="round" stroke-linejoin="round" />
<path d="M 156.5 166.5 L 157.0 166.5 L 157.5 166.5 L 157.5 170.0 L 157.0 176.5 L 156.5 182.0 " stroke="black" fill="none" stroke-width="7.0" stroke-linecap="round" stroke-linejoin="round" />
<path d="M 115.5 192.5 L 113.0 193.5 L 112.5 194.5 L 114.5 195.0 L 120.5 195.0 L 127.5 194.5 L 138.0 191.5 L 151.0 189.0 L 164.5 186.5 L 176.5 184.5 L 185.0 184.5 L 192.5 185.0 L 195.5 187.0 L 195.5 187.5 " stroke="black" fill="none" stroke-width="7.0" stroke-linecap="round" stroke-linejoin="round" />
</svg>