<svg xmlns="http://www.w3.org/2000/svg" width="300" height="300" viewBox="0 0 300 300">
<path d="M 153.5 84.0 L 153.5 83.5 L 154.0 83.0 L 154.0 82.5 L 153.5 83.5 L 150.5 87.5 L 147.5 92.0 L 140.0 98.0 L 138.5 99.0 " stroke="black" fill="none" stroke-width="7.0" stroke-linecap="round" stroke-linejoin="round" />
<path d="M 129.5 103.5 L 129.0 103.5 L 128.5 103.5 L 128.0 103.5 L 127.5 103.5 L 127.5 103.5 L 127.5 104.5 L 127.5 108.0 L 129.0 115.0 L 130.5 124.5 L 131.5 132.5 L 132.5 137.0 L 133.5 139.0 L 133.5 139.0 " stroke="black" fill="none" stroke-width="7.0" stroke-linecap="round" stroke-linejoin="round" />
<path d="M 132.0 107.5 L 132.5 107.0 L 133.0 105.0 L 135.0 103.5 L 139.0 102.0 L 144.0 101.0 L 153.0 100.0 L 161.0 99.0 L 168.5 98.0 L 172.5 98.0 L 174.0 100.5 L 174.0 105.0 L 173.0 112.0 L 171.0 120.5 L 168.5 127.5 L 166.5 132.5 L 165.0 134.5 " stroke="black" fill="none" stroke-width="7.0" stroke-linecap="round" stroke-linejoin="round" />
<path d="M 142.5 121.5 L 142.0 121.5 L 140.5 122.0 L 139.5 122.0 L 139.5 122.0 L 143.5 122.0 L 148.5 121.0 L 154.0 119.5 L 159.0 117.5 L 162.0 117.0 L 162.0 117.5 " stroke="black" fill="none" stroke-width="7.0" stroke-linecap="round" stroke-linejoin="round" />
<path d="M 139.5 136.0 L 136.5 138.5 L 136.0 139.5 L 139.0 139.5 L 145.0 138.5 L 151.5 136.0 L 157.5 133.5 L 162.0 132.5 L 162.5 134.0 " stroke="black" fill="none" stroke-width="7.0" stroke-linecap="round" stroke-linejoin="round" />
<path d="M 135.5 158.5 L 134.5 159.0 L 133.0 159.5 L 133.0 159.5 L 137.0 159.5 L 143.0 157.5 L 149.5 154.0 L 155.0 150.5 L 158.5 149.0 L 158.0 150.5 L 157.5 151.5 " stroke="black" fill="none" stroke-width="7.0" stroke-linecap="round" stroke-linejoin="round" />
<path d="M 133.5 174.5 L 132.5 175.5 L 131.5 176.5 L 133.0 176.5 L 138.0 175.0 L 146.0 171.5 L 154.0 168.5 L 161.0 166.0 L 164.0 166.0 L 164.0 166.0 " stroke="black" fill="none" stroke-width="7.0" stroke-linecap="round" stroke-linejoin="round" />
<path d="M 149.0 159.5 L 149.0 161.5 L 149.0 165.5 L 149.0 171.5 L 149.5 179.5 L 149.5 186.5 L 149.0 190.0 " stroke="black" fill="none" stroke-width="7.0" stroke-linecap="round" stroke-linejoin="round" />
<path d="M 114.0 195.5 L 114.0 195.5 L 113.5 196.5 L 113.5 196.5 L 114.5 196.5 L 118.0 195.5 L 125.0 194.0 L 135.5 192.5 L 149.5 190.0 L 162.0 187.5 L 173.0 186.0 L 181.0 186.0 L 188.0 186.5 L 192.0 188.0 L 192.5 188.0 " stroke="black" fill="none" stroke-width="7.0" stroke-linecap="round" stroke-linejoin="round" />
</svg>