<svg xmlns="http://www.w3.org/2000/svg" width="300" height="300" viewBox="0 0 300 300">
<path d="M 136.5 110.5 L 135.5 111.0 L 133.0 111.5 L 133.0 111.5 L 137.0 110.0 L 144.5 106.0 L 153.5 101.0 L 163.0 96.0 L 165.5 94.5 " stroke="black" fill="none" stroke-width="7.0" stroke-linecap="round" stroke-linejoin="round" />
<path d="M 155.5 80.0 L 155.5 80.0 L 155.0 81.0 L 154.5 84.0 L 153.5 92.0 L 151.0 103.0 L 147.0 114.5 L 145.0 119.5 " stroke="black" fill="none" stroke-width="7.0" stroke-linecap="round" stroke-linejoin="round" />
<path d="M 126.5 134.5 L 126.5 134.0 L 126.5 132.5 L 127.0 132.5 L 127.5 136.0 L 129.0 144.0 L 130.5 156.0 L 131.0 169.0 L 131.5 177.5 L 131.5 181.5 L 132.0 181.5 " stroke="black" fill="none" stroke-width="7.0" stroke-linecap="round" stroke-linejoin="round" />
<path d="M 136.0 131.0 L 136.5 130.0 L 138.5 128.5 L 143.0 127.0 L 148.5 124.5 L 154.5 122.0 L 159.5 120.5 L 163.0 120.5 L 164.5 123.0 L 164.5 128.5 L 164.5 137.5 L 164.5 147.0 L 164.5 157.5 L 165.0 166.5 L 165.5 171.5 L 165.5 174.5 L 165.0 175.5 L 164.5 175.5 " stroke="black" fill="none" stroke-width="7.0" stroke-linecap="round" stroke-linejoin="round" />
<path d="M 143.0 146.0 L 142.0 146.0 L 140.5 146.5 L 140.5 146.5 L 143.5 146.5 L 148.0 146.0 L 153.0 144.0 L 157.0 143.0 " stroke="black" fill="none" stroke-width="7.0" stroke-linecap="round" stroke-linejoin="round" />
<path d="M 141.0 158.5 L 141.0 158.5 L 140.5 158.5 L 142.0 158.5 L 145.0 158.5 L 148.0 157.5 L 151.0 157.0 " stroke="black" fill="none" stroke-width="7.0" stroke-linecap="round" stroke-linejoin="round" />
<path d="M 140.5 168.5 L 139.5 169.5 L 138.5 170.0 L 140.0 170.0 L 144.5 169.5 L 149.0 168.0 L 153.0 167.0 L 154.0 167.0 " stroke="black" fill="none" stroke-width="7.0" stroke-linecap="round" stroke-linejoin="round" />
<path d="M 115.5 190.0 L 115.0 190.5 L 113.5 191.0 L 114.0 191.5 L 118.5 191.5 L 126.0 190.0 L 137.0 186.5 L 150.5 181.0 L 163.0 176.5 L 170.5 174.5 L 172.5 174.5 L 172.5 175.5 " stroke="black" fill="none" stroke-width="7.0" stroke-linecap="round" stroke-linejoin="round" />
<path d="M 148.0 184.5 L 146.5 186.0 L 144.5 187.5 L 142.0 191.0 L 137.0 196.5 L 131.0 204.0 L 126.0 209.5 L 122.0 213.5 L 120.0 214.5 L 120.0 214.5 " stroke="black" fill="none" stroke-width="7.0" stroke-linecap="round" stroke-linejoin="round" />
<path d="M 148.0 190.5 L 150.5 192.0 L 155.0 196.0 L 160.0 203.0 L 165.5 209.0 L 170.5 213.5 L 172.5 216.0 " stroke="black" fill="none" stroke-width="7.0" stroke-linecap="round" stroke-linejoin="round" />
</svg>