<svg xmlns="http://www.w3.org/2000/svg" width="300" height="300" viewBox="0 0 300 300">
<path d="M 126.0 114.5 L 126.0 114.5 L 126.0 114.5 L 126.0 116.0 L 126.5 119.0 L 126.5 122.5 L 127.0 129.5 L 125.0 134.5 L 122.0 138.5 L 119.5 141.0 L 118.0 141.5 L 118.0 141.5 L 120.5 140.0 L 125.0 137.5 L 130.0 133.0 L 136.0 127.5 L 141.0 123.0 L 143.0 122.0 " stroke="black" fill="none" stroke-width="7.0" stroke-linecap="round" stroke-linejoin="round" />
<path d="M 111.5 175.0 L 110.0 176.5 L 108.5 177.5 L 108.5 177.0 L 112.0 173.5 L 119.0 168.5 L 128.5 161.0 L 138.5 152.5 L 145.5 147.0 L 147.5 144.5 " stroke="black" fill="none" stroke-width="7.0" stroke-linecap="round" stroke-linejoin="round" />
<path d="M 135.0 137.5 L 134.5 139.5 L 133.5 143.5 L 132.5 151.5 L 130.5 163.0 L 127.0 175.5 L 122.0 187.5 L 117.5 193.0 L 111.5 199.5 L 109.5 200.5 " stroke="black" fill="none" stroke-width="7.0" stroke-linecap="round" stroke-linejoin="round" />
<path d="M 132.0 166.0 L 133.5 167.0 L 137.0 171.0 L 141.5 179.0 L 146.0 187.0 L 149.5 192.5 L 150.0 193.0 " stroke="black" fill="none" stroke-width="7.0" stroke-linecap="round" stroke-linejoin="round" />
<path d="M 157.5 146.0 L 157.5 146.0 L 157.0 146.0 L 157.0 146.5 L 158.0 149.5 L 160.5 154.5 L 163.0 159.5 L 165.0 162.5 " stroke="black" fill="none" stroke-width="7.0" stroke-linecap="round" stroke-linejoin="round" />
<path d="M 163.0 147.5 L 163.0 147.5 L 162.0 147.5 L 162.0 146.5 L 164.0 145.5 L 168.5 143.5 L 174.0 140.5 L 180.5 137.5 L 185.0 136.0 L 187.5 136.0 L 187.5 138.0 L 187.5 142.0 L 186.5 148.5 L 185.0 155.5 L 183.0 162.0 L 181.5 165.5 " stroke="black" fill="none" stroke-width="7.0" stroke-linecap="round" stroke-linejoin="round" />
<path d="M 170.0 168.5 L 169.5 168.5 L 168.0 169.0 L 167.0 169.5 L 167.0 169.5 L 169.5 168.5 L 173.5 166.5 L 178.0 164.5 L 179.0 164.0 " stroke="black" fill="none" stroke-width="7.0" stroke-linecap="round" stroke-linejoin="round" />
</svg>