<svg xmlns="http://www.w3.org/2000/svg" width="300" height="300" viewBox="0 0 300 300">
<path d="M 121.0 118.5 L 120.5 117.5 L 120.0 115.5 L 120.0 115.0 L 120.5 117.5 L 121.5 126.5 L 122.5 142.0 L 122.5 162.5 L 121.0 179.5 L 121.0 187.5 L 121.0 188.5 L 121.5 188.0 " stroke="black" fill="none" stroke-width="7.0" stroke-linecap="round" stroke-linejoin="round" />
<path d="M 126.5 121.5 L 126.5 121.0 L 127.5 119.0 L 129.0 117.0 L 131.5 115.0 L 135.0 113.5 L 139.5 111.5 L 143.0 111.0 L 145.0 112.0 L 146.5 116.5 L 147.5 124.0 L 147.5 134.5 L 148.0 149.0 L 147.5 163.5 L 147.5 173.5 L 147.0 180.0 L 146.5 183.5 L 146.5 184.0 L 146.0 183.0 L 146.0 182.0 " stroke="black" fill="none" stroke-width="7.0" stroke-linecap="round" stroke-linejoin="round" />
<path d="M 130.0 149.0 L 129.0 149.0 L 128.0 149.0 L 127.5 149.0 L 128.5 149.0 L 131.5 147.5 L 136.5 145.5 L 141.0 143.5 L 143.0 143.5 " stroke="black" fill="none" stroke-width="7.0" stroke-linecap="round" stroke-linejoin="round" />
<path d="M 128.5 163.5 L 127.5 164.5 L 127.0 165.5 L 127.5 166.5 L 130.0 166.5 L 134.0 166.0 L 139.0 164.5 L 140.5 164.0 " stroke="black" fill="none" stroke-width="7.0" stroke-linecap="round" stroke-linejoin="round" />
<path d="M 126.5 185.5 L 124.0 187.5 L 123.5 188.5 L 125.0 189.0 L 129.5 188.5 L 135.5 186.0 L 139.0 185.0 " stroke="black" fill="none" stroke-width="7.0" stroke-linecap="round" stroke-linejoin="round" />
<path d="M 167.0 115.0 L 164.0 115.5 L 161.5 115.5 L 161.5 115.5 L 164.0 115.0 L 169.5 112.5 L 175.5 110.0 L 181.0 107.0 L 184.0 105.5 " stroke="black" fill="none" stroke-width="7.0" stroke-linecap="round" stroke-linejoin="round" />
<path d="M 175.5 93.0 L 175.5 96.0 L 175.5 101.0 L 175.5 110.0 L 175.0 120.0 L 174.5 127.5 " stroke="black" fill="none" stroke-width="7.0" stroke-linecap="round" stroke-linejoin="round" />
<path d="M 152.0 136.5 L 151.5 137.0 L 150.5 137.0 L 150.0 137.0 L 151.5 137.0 L 157.0 137.0 L 165.5 135.0 L 176.5 130.5 L 188.0 125.5 L 194.0 123.0 L 195.5 123.0 " stroke="black" fill="none" stroke-width="7.0" stroke-linecap="round" stroke-linejoin="round" />
<path d="M 174.0 128.0 L 174.0 128.5 L 172.5 129.5 L 171.0 133.0 L 168.5 139.0 L 163.5 147.5 L 157.5 155.0 L 153.0 159.5 L 151.0 161.5 " stroke="black" fill="none" stroke-width="7.0" stroke-linecap="round" stroke-linejoin="round" />
<path d="M 175.5 138.0 L 178.5 137.5 L 183.0 137.5 L 188.0 138.5 L 192.0 140.0 L 194.0 141.5 L 194.5 141.5 " stroke="black" fill="none" stroke-width="7.0" stroke-linecap="round" stroke-linejoin="round" />
<path d="M 161.5 165.0 L 159.5 165.0 L 160.0 165.0 L 163.5 164.5 L 170.0 162.0 L 177.0 158.5 L 184.0 155.5 L 185.5 155.0 " stroke="black" fill="none" stroke-width="7.0" stroke-linecap="round" stroke-linejoin="round" />
<path d="M 176.0 150.0 L 175.0 150.0 L 174.5 150.5 L 174.5 156.0 L 174.5 165.5 L 174.0 174.5 L 174.0 181.5 L 174.0 182.5 " stroke="black" fill="none" stroke-width="7.0" stroke-linecap="round" stroke-linejoin="round" />
<path d="M 153.5 191.0 L 153.0 191.5 L 151.5 192.5 L 151.0 193.0 L 151.5 193.5 L 154.5 193.5 L 161.5 192.5 L 171.5 190.0 L 182.0 188.0 L 191.5 186.5 L 198.0 186.5 L 201.0 186.5 " stroke="black" fill="none" stroke-width="7.0" stroke-linecap="round" stroke-linejoin="round" />
</svg>