<svg xmlns="http://www.w3.org/2000/svg" width="300" height="300" viewBox="0 0 300 300">
<path d="M 122.0 107.5 L 122.0 106.5 L 122.0 106.0 L 122.0 106.5 L 122.5 109.0 L 123.0 114.5 L 122.0 121.0 L 118.5 128.0 L 114.5 133.5 L 112.0 135.5 L 111.5 135.5 L 112.5 133.5 L 115.5 130.5 L 119.5 127.0 L 125.0 124.0 L 130.5 120.0 L 135.0 116.5 L 137.5 115.0 " stroke="black" fill="none" stroke-width="7.0" stroke-linecap="round" stroke-linejoin="round" />
<path d="M 110.0 159.0 L 108.5 160.0 L 108.0 160.5 L 109.0 160.5 L 114.0 157.5 L 121.5 152.5 L 130.5 145.5 L 138.5 139.5 L 140.0 138.5 " stroke="black" fill="none" stroke-width="7.0" stroke-linecap="round" stroke-linejoin="round" />
<path d="M 130.5 127.5 L 130.5 130.0 L 130.0 135.5 L 128.5 144.5 L 126.5 156.0 L 122.5 167.0 L 117.5 175.5 L 113.0 181.0 L 111.5 182.5 " stroke="black" fill="none" stroke-width="7.0" stroke-linecap="round" stroke-linejoin="round" />
<path d="M 128.0 154.0 L 130.5 157.0 L 134.0 162.5 L 138.5 170.5 L 144.0 177.5 L 148.0 182.5 L 149.0 183.0 " stroke="black" fill="none" stroke-width="7.0" stroke-linecap="round" stroke-linejoin="round" />
<path d="M 159.0 115.5 L 158.0 115.5 L 156.5 115.5 L 157.0 115.5 L 161.0 114.5 L 167.0 112.0 L 172.0 109.0 L 175.0 107.5 " stroke="black" fill="none" stroke-width="7.0" stroke-linecap="round" stroke-linejoin="round" />
<path d="M 151.0 132.0 L 151.0 133.5 L 151.5 136.5 L 153.0 140.5 L 155.5 145.0 L 158.5 147.5 L 161.0 148.0 L 161.0 148.0 " stroke="black" fill="none" stroke-width="7.0" stroke-linecap="round" stroke-linejoin="round" />
<path d="M 155.5 137.5 L 156.0 137.0 L 156.5 135.5 L 159.5 133.5 L 165.5 131.0 L 171.5 128.0 L 176.5 126.0 L 180.0 125.0 L 181.5 126.0 L 181.0 128.5 L 178.5 133.0 L 175.0 137.5 L 171.5 142.0 L 167.5 146.0 L 163.0 149.0 L 161.0 149.5 L 160.5 149.5 L 164.0 147.5 L 169.0 145.0 L 173.5 142.0 L 177.0 140.5 " stroke="black" fill="none" stroke-width="7.0" stroke-linecap="round" stroke-linejoin="round" />
<path d="M 161.0 157.5 L 161.0 160.5 L 161.5 165.0 L 162.5 170.5 L 164.0 176.5 L 165.5 180.0 L 166.0 181.0 " stroke="black" fill="none" stroke-width="7.0" stroke-linecap="round" stroke-linejoin="round" />
<path d="M 177.0 153.5 L 176.5 156.0 L 175.5 161.0 L 174.0 168.0 L 173.0 175.0 L 172.5 176.5 " stroke="black" fill="none" stroke-width="7.0" stroke-linecap="round" stroke-linejoin="round" />
<path d="M 145.0 190.0 L 145.0 190.0 L 143.5 190.0 L 142.5 190.0 L 143.5 190.0 L 147.0 188.5 L 154.5 186.0 L 168.0 182.0 L 181.0 178.0 L 191.0 176.0 L 195.0 175.5 " stroke="black" fill="none" stroke-width="7.0" stroke-linecap="round" stroke-linejoin="round" />
</svg>