<svg xmlns="http://www.w3.org/2000/svg" width="300" height="300" viewBox="0 0 300 300">
<path d="M 142.5 89.5 L 142.0 89.5 L 140.0 89.5 L 140.0 90.0 L 142.5 90.5 L 147.0 91.0 L 151.0 90.5 L 153.5 90.5 L 154.0 90.5 " stroke="black" fill="none" stroke-width="7.0" stroke-linecap="round" stroke-linejoin="round" />
<path d="M 127.0 115.5 L 126.0 116.5 L 124.5 118.0 L 124.5 118.5 L 127.0 118.5 L 132.5 116.0 L 142.0 111.0 L 152.0 104.5 L 158.5 99.5 L 160.0 98.5 " stroke="black" fill="none" stroke-width="7.0" stroke-linecap="round" stroke-linejoin="round" />
<path d="M 124.0 116.0 L 123.0 119.0 L 123.0 126.0 L 123.0 141.0 L 121.5 159.5 L 118.0 179.0 L 114.0 193.5 L 111.5 203.0 L 110.0 206.0 L 110.0 205.0 " stroke="black" fill="none" stroke-width="7.0" stroke-linecap="round" stroke-linejoin="round" />
<path d="M 132.5 138.5 L 131.0 139.0 L 130.0 140.0 L 131.0 140.0 L 135.5 138.5 L 142.5 134.5 L 148.5 130.0 L 151.5 127.5 " stroke="black" fill="none" stroke-width="7.0" stroke-linecap="round" stroke-linejoin="round" />
<path d="M 144.0 121.5 L 143.5 125.5 L 143.5 132.5 L 144.0 144.0 L 143.5 155.0 L 142.0 163.0 L 141.0 166.5 L 140.5 167.0 L 139.5 164.5 L 139.0 159.5 " stroke="black" fill="none" stroke-width="7.0" stroke-linecap="round" stroke-linejoin="round" />
<path d="M 138.5 141.0 L 138.5 140.5 L 138.5 140.0 L 138.0 141.5 L 135.0 146.0 L 131.0 153.5 L 127.5 160.5 L 125.5 163.5 " stroke="black" fill="none" stroke-width="7.0" stroke-linecap="round" stroke-linejoin="round" />
<path d="M 139.5 143.0 L 141.0 143.5 L 144.5 146.0 L 148.0 150.5 L 151.0 155.0 L 154.0 157.5 L 157.5 157.5 " stroke="black" fill="none" stroke-width="7.0" stroke-linecap="round" stroke-linejoin="round" />
<path d="M 161.5 129.0 L 159.5 129.5 L 158.5 129.5 L 160.0 129.5 L 164.5 129.0 L 170.0 127.0 L 175.5 124.5 L 177.5 123.5 " stroke="black" fill="none" stroke-width="7.0" stroke-linecap="round" stroke-linejoin="round" />
<path d="M 170.5 112.5 L 170.0 116.5 L 170.0 122.5 L 170.0 132.5 L 170.5 144.5 L 170.5 153.5 L 171.0 158.5 L 171.0 159.0 L 171.0 156.5 " stroke="black" fill="none" stroke-width="7.0" stroke-linecap="round" stroke-linejoin="round" />
<path d="M 170.0 129.0 L 169.0 129.5 L 167.5 131.5 L 165.5 137.5 L 162.0 145.5 L 159.0 153.0 L 157.0 156.5 L 156.5 156.0 " stroke="black" fill="none" stroke-width="7.0" stroke-linecap="round" stroke-linejoin="round" />
<path d="M 171.0 134.0 L 171.5 134.0 L 173.5 135.5 L 177.0 138.5 L 180.5 143.5 L 184.0 148.5 L 184.5 149.5 " stroke="black" fill="none" stroke-width="7.0" stroke-linecap="round" stroke-linejoin="round" />
<path d="M 140.0 175.0 L 136.0 176.5 L 134.5 178.0 L 135.0 178.5 L 139.5 177.5 L 148.0 174.0 L 156.0 169.5 L 165.0 165.5 L 171.5 163.5 L 172.0 163.5 " stroke="black" fill="none" stroke-width="7.0" stroke-linecap="round" stroke-linejoin="round" />
<path d="M 157.0 167.5 L 156.5 167.5 L 155.0 168.0 L 153.5 169.0 L 151.0 173.0 L 147.5 181.0 L 140.5 191.0 L 132.0 201.5 L 126.5 208.0 L 124.0 211.0 " stroke="black" fill="none" stroke-width="7.0" stroke-linecap="round" stroke-linejoin="round" />
<path d="M 138.0 194.5 L 139.0 194.5 L 140.5 195.5 L 143.5 198.0 L 145.5 203.0 L 147.0 207.0 L 148.5 209.0 L 149.5 209.5 L 150.0 208.5 " stroke="black" fill="none" stroke-width="7.0" stroke-linecap="round" stroke-linejoin="round" />
<path d="M 149.0 193.5 L 149.0 193.0 L 149.0 192.0 L 150.0 191.0 L 154.0 189.5 L 161.0 187.5 L 167.5 186.5 L 170.5 187.0 L 170.5 190.5 L 167.5 194.5 L 163.0 199.5 L 157.5 204.0 L 153.5 206.5 L 152.0 206.5 L 153.0 206.0 L 156.5 203.5 L 162.0 200.5 L 168.5 198.5 L 169.5 198.5 " stroke="black" fill="none" stroke-width="7.0" stroke-linecap="round" stroke-linejoin="round" />
</svg>