<svg xmlns="http://www.w3.org/2000/svg" width="300" height="300" viewBox="0 0 300 300">
<path d="M 127.0 96.5 L 126.0 96.5 L 125.0 96.5 L 125.0 97.0 L 126.0 98.5 L 129.0 99.5 L 131.5 100.5 L 133.0 101.5 " stroke="black" fill="none" stroke-width="7.0" stroke-linecap="round" stroke-linejoin="round" />
<path d="M 116.0 120.5 L 115.0 121.5 L 114.5 122.0 L 115.0 122.5 L 118.5 122.5 L 123.5 120.5 L 129.5 116.5 L 136.0 112.5 L 140.5 110.0 L 143.5 108.5 L 143.5 108.5 L 142.0 110.0 L 139.5 113.5 L 137.0 118.0 L 134.5 123.0 L 131.0 129.5 L 126.0 140.0 L 118.5 152.5 L 109.0 165.5 L 102.0 175.0 L 96.5 180.5 L 93.0 182.0 L 93.0 182.0 " stroke="black" fill="none" stroke-width="7.0" stroke-linecap="round" stroke-linejoin="round" />
<path d="M 123.0 146.5 L 124.5 146.0 L 125.0 146.5 L 125.5 151.0 L 125.0 160.5 L 124.0 172.0 L 123.5 184.0 L 123.0 192.0 L 123.5 194.0 L 124.0 194.0 " stroke="black" fill="none" stroke-width="7.0" stroke-linecap="round" stroke-linejoin="round" />
<path d="M 127.0 147.5 L 127.0 147.0 L 127.0 146.0 L 129.0 147.0 L 132.5 152.5 L 137.5 160.0 L 143.0 167.5 L 146.0 171.5 " stroke="black" fill="none" stroke-width="7.0" stroke-linecap="round" stroke-linejoin="round" />
<path d="M 159.0 110.5 L 158.5 110.5 L 157.0 111.5 L 156.5 111.5 L 157.0 111.5 L 160.5 110.5 L 166.0 108.0 L 171.5 106.0 L 174.0 105.0 " stroke="black" fill="none" stroke-width="7.0" stroke-linecap="round" stroke-linejoin="round" />
<path d="M 149.0 127.0 L 149.0 128.0 L 149.0 130.5 L 150.0 133.5 L 151.5 136.5 L 154.0 139.5 L 156.5 140.5 L 158.0 141.0 " stroke="black" fill="none" stroke-width="7.0" stroke-linecap="round" stroke-linejoin="round" />
<path d="M 153.5 129.5 L 153.5 129.0 L 154.0 128.0 L 157.0 126.5 L 163.0 124.0 L 169.5 121.5 L 173.5 120.5 L 175.0 121.0 L 175.0 123.5 L 173.0 127.5 L 169.5 132.5 L 164.5 137.5 L 160.0 140.5 L 157.5 141.5 L 157.0 141.5 L 160.0 140.5 L 164.0 139.0 L 169.0 138.0 L 170.0 137.5 " stroke="black" fill="none" stroke-width="7.0" stroke-linecap="round" stroke-linejoin="round" />
<path d="M 148.0 158.5 L 148.0 158.0 L 148.0 156.0 L 148.0 154.5 L 148.0 155.0 L 148.5 159.5 L 149.5 167.5 L 150.5 177.5 L 151.0 186.0 L 151.5 190.5 L 152.5 191.0 L 153.0 190.5 " stroke="black" fill="none" stroke-width="7.0" stroke-linecap="round" stroke-linejoin="round" />
<path d="M 152.5 162.5 L 152.5 162.5 L 152.5 162.0 L 152.5 161.5 L 152.5 161.0 L 153.0 160.5 L 154.5 159.5 L 159.5 158.0 L 168.0 155.5 L 175.5 152.5 L 180.5 151.0 L 184.0 151.0 L 185.5 153.5 L 186.0 157.0 L 186.0 162.0 L 185.0 168.0 L 183.5 175.0 L 181.5 181.5 L 179.0 186.5 L 177.5 188.0 L 177.0 188.0 " stroke="black" fill="none" stroke-width="7.0" stroke-linecap="round" stroke-linejoin="round" />
<path d="M 160.5 174.5 L 159.0 175.0 L 157.0 175.0 L 156.5 175.0 L 159.0 174.5 L 164.5 172.0 L 170.0 169.5 L 174.5 167.5 L 175.5 167.0 " stroke="black" fill="none" stroke-width="7.0" stroke-linecap="round" stroke-linejoin="round" />
<path d="M 165.5 160.5 L 165.5 162.0 L 165.5 164.5 L 166.0 170.0 L 166.5 177.5 L 166.5 184.5 L 166.0 186.0 " stroke="black" fill="none" stroke-width="7.0" stroke-linecap="round" stroke-linejoin="round" />
<path d="M 160.0 191.0 L 159.5 191.5 L 158.5 191.5 L 158.0 192.0 L 160.5 191.5 L 165.5 190.0 L 171.5 188.5 L 174.5 187.5 " stroke="black" fill="none" stroke-width="7.0" stroke-linecap="round" stroke-linejoin="round" />
</svg>