<svg xmlns="http://www.w3.org/2000/svg" width="300" height="300" viewBox="0 0 300 300">
<path d="M 127.5 99.0 L 126.5 100.0 L 125.0 101.5 L 125.5 103.0 L 127.5 103.5 L 130.5 103.5 L 131.5 103.5 " stroke="black" fill="none" stroke-width="7.0" stroke-linecap="round" stroke-linejoin="round" />
<path d="M 122.0 118.5 L 121.0 119.5 L 117.5 121.5 L 117.5 122.5 L 119.5 122.5 L 124.0 119.5 L 129.5 115.5 L 134.5 111.5 L 139.5 108.5 L 142.0 107.0 L 142.0 107.0 L 140.5 109.5 L 138.0 113.5 L 136.0 118.0 L 133.5 123.0 L 130.5 130.5 L 125.5 140.5 L 117.5 153.0 L 108.0 165.0 L 102.5 172.0 L 98.0 176.5 L 95.5 178.0 L 95.5 178.0 " stroke="black" fill="none" stroke-width="7.0" stroke-linecap="round" stroke-linejoin="round" />
<path d="M 125.0 140.5 L 125.5 141.5 L 126.0 144.5 L 126.0 152.5 L 126.0 165.5 L 126.0 176.0 L 126.0 183.5 L 126.0 186.5 L 126.0 186.5 " stroke="black" fill="none" stroke-width="7.0" stroke-linecap="round" stroke-linejoin="round" />
<path d="M 126.0 143.0 L 126.5 142.5 L 128.0 142.5 L 131.5 147.0 L 136.5 155.0 L 143.0 162.0 L 144.0 163.0 " stroke="black" fill="none" stroke-width="7.0" stroke-linecap="round" stroke-linejoin="round" />
<path d="M 147.0 127.0 L 147.0 127.0 L 146.5 126.5 L 146.5 126.0 L 146.5 127.5 L 148.5 132.5 L 150.5 139.0 L 152.0 144.0 L 152.5 145.5 L 152.5 145.5 " stroke="black" fill="none" stroke-width="7.0" stroke-linecap="round" stroke-linejoin="round" />
<path d="M 150.0 123.5 L 150.0 122.5 L 150.0 120.5 L 152.5 118.0 L 157.5 115.5 L 166.0 112.0 L 172.5 110.0 L 176.5 110.0 L 178.5 112.0 L 179.5 116.0 L 179.5 122.5 L 178.5 129.5 L 176.5 137.0 L 174.5 142.0 L 173.0 144.0 L 172.5 144.0 " stroke="black" fill="none" stroke-width="7.0" stroke-linecap="round" stroke-linejoin="round" />
<path d="M 156.0 133.5 L 153.5 134.0 L 152.5 134.5 L 153.5 134.5 L 157.5 133.5 L 164.0 131.0 L 170.5 127.5 L 176.0 125.5 L 177.0 125.0 " stroke="black" fill="none" stroke-width="7.0" stroke-linecap="round" stroke-linejoin="round" />
<path d="M 155.5 147.5 L 152.5 149.0 L 152.0 150.0 L 153.0 150.0 L 157.5 148.0 L 163.5 145.5 L 170.5 143.0 L 175.0 141.5 " stroke="black" fill="none" stroke-width="7.0" stroke-linecap="round" stroke-linejoin="round" />
<path d="M 162.0 84.5 L 162.0 84.5 L 161.5 84.5 L 161.0 86.0 L 161.0 96.0 L 162.0 117.0 L 162.5 141.5 L 161.5 164.0 L 160.5 178.0 L 160.5 187.0 L 160.5 188.0 " stroke="black" fill="none" stroke-width="7.0" stroke-linecap="round" stroke-linejoin="round" />
</svg>