<svg xmlns="http://www.w3.org/2000/svg" width="300" height="300" viewBox="0 0 300 300">
<path d="M 150.5 78.5 L 150.5 77.5 L 150.5 76.0 L 150.5 76.0 L 150.0 78.0 L 147.0 84.0 L 141.0 93.5 L 131.5 105.0 L 122.5 115.5 L 113.5 122.0 L 108.5 123.0 " stroke="black" fill="none" stroke-width="7.0" stroke-linecap="round" stroke-linejoin="round" />
<path d="M 148.5 81.0 L 149.0 82.0 L 151.5 84.0 L 155.5 87.5 L 163.5 93.5 L 171.5 98.5 L 177.0 100.5 L 181.5 102.5 L 183.5 103.5 " stroke="black" fill="none" stroke-width="7.0" stroke-linecap="round" stroke-linejoin="round" />
<path d="M 149.5 106.5 L 148.0 106.5 L 147.5 106.5 L 147.5 106.5 L 149.5 107.5 L 152.5 108.0 L 154.0 109.0 " stroke="black" fill="none" stroke-width="7.0" stroke-linecap="round" stroke-linejoin="round" />
<path d="M 139.0 122.5 L 138.0 122.5 L 136.5 123.0 L 136.5 123.5 L 140.0 123.5 L 146.5 122.0 L 154.5 118.5 L 164.5 113.0 L 170.5 109.5 " stroke="black" fill="none" stroke-width="7.0" stroke-linecap="round" stroke-linejoin="round" />
<path d="M 158.5 119.5 L 158.5 119.5 L 158.0 120.0 L 157.5 121.5 L 155.0 126.5 L 151.0 134.5 L 146.0 142.5 L 140.0 147.5 L 137.0 149.0 " stroke="black" fill="none" stroke-width="7.0" stroke-linecap="round" stroke-linejoin="round" />
<path d="M 140.0 134.0 L 140.5 133.5 L 142.5 133.5 L 145.5 135.5 L 149.5 138.5 L 152.5 142.0 L 155.0 145.0 L 155.0 145.5 " stroke="black" fill="none" stroke-width="7.0" stroke-linecap="round" stroke-linejoin="round" />
<path d="M 129.0 141.5 L 129.0 141.5 L 129.0 142.0 L 129.5 144.5 L 130.5 149.5 L 130.5 154.5 L 131.0 159.0 L 131.0 161.0 L 131.0 161.0 L 131.5 160.5 L 133.5 159.0 L 137.5 157.5 L 143.0 155.0 L 149.5 152.5 L 155.5 150.5 L 162.5 149.0 L 166.5 148.0 " stroke="black" fill="none" stroke-width="7.0" stroke-linecap="round" stroke-linejoin="round" />
<path d="M 170.5 130.5 L 169.5 131.5 L 168.5 134.5 L 168.0 141.0 L 167.5 149.0 L 167.5 153.0 " stroke="black" fill="none" stroke-width="7.0" stroke-linecap="round" stroke-linejoin="round" />
<path d="M 117.5 168.0 L 117.0 168.0 L 116.5 168.0 L 116.5 169.5 L 118.0 176.0 L 120.0 186.0 L 120.5 195.0 L 121.0 199.5 L 121.0 200.5 " stroke="black" fill="none" stroke-width="7.0" stroke-linecap="round" stroke-linejoin="round" />
<path d="M 104.5 184.0 L 103.5 184.5 L 103.0 184.5 L 104.0 184.5 L 108.5 183.5 L 118.5 181.0 L 132.5 176.5 L 148.5 172.5 L 161.0 169.5 L 171.5 168.0 L 177.0 168.0 L 183.0 168.5 L 187.0 170.0 L 188.5 172.5 L 188.0 178.0 L 186.0 185.5 L 182.0 193.0 L 177.5 200.0 L 174.0 204.5 L 171.0 204.0 L 169.0 201.0 " stroke="black" fill="none" stroke-width="7.0" stroke-linecap="round" stroke-linejoin="round" />
<path d="M 148.0 158.0 L 147.5 158.5 L 146.5 159.5 L 146.5 163.0 L 146.5 170.0 L 147.0 180.0 L 147.5 188.0 L 147.5 189.0 " stroke="black" fill="none" stroke-width="7.0" stroke-linecap="round" stroke-linejoin="round" />
<path d="M 134.0 194.5 L 133.5 194.5 L 131.5 195.5 L 131.0 195.5 L 131.5 195.5 L 134.5 195.0 L 139.5 193.5 L 146.0 191.0 L 153.0 188.0 L 159.5 185.0 " stroke="black" fill="none" stroke-width="7.0" stroke-linecap="round" stroke-linejoin="round" />
<path d="M 164.0 180.0 L 164.0 180.5 L 164.0 181.5 L 164.0 183.0 L 166.5 186.5 L 169.0 190.5 " stroke="black" fill="none" stroke-width="7.0" stroke-linecap="round" stroke-linejoin="round" />
</svg>