<svg xmlns="http://www.w3.org/2000/svg" width="300" height="300" viewBox="0 0 300 300">
<path d="M 124.5 96.5 L 124.0 97.0 L 123.5 97.0 L 124.0 97.5 L 126.0 98.0 L 128.0 98.5 " stroke="black" fill="none" stroke-width="7.0" stroke-linecap="round" stroke-linejoin="round" />
<path d="M 118.0 119.5 L 117.5 120.0 L 116.0 121.0 L 116.0 121.0 L 119.5 120.5 L 124.5 118.0 L 129.5 114.0 L 135.0 109.0 L 139.0 105.0 L 141.0 103.5 L 141.0 103.5 L 139.5 105.5 L 137.5 109.0 L 135.5 113.0 L 133.5 118.5 L 130.5 125.5 L 126.5 136.5 L 120.0 149.0 L 111.5 161.5 L 105.5 170.5 L 101.0 176.0 L 98.5 179.0 L 98.0 179.5 " stroke="black" fill="none" stroke-width="7.0" stroke-linecap="round" stroke-linejoin="round" />
<path d="M 125.5 141.5 L 125.5 141.5 L 126.0 141.0 L 126.5 143.5 L 126.5 152.5 L 126.5 166.0 L 126.5 177.0 L 126.5 184.0 L 126.5 187.5 L 126.5 187.5 " stroke="black" fill="none" stroke-width="7.0" stroke-linecap="round" stroke-linejoin="round" />
<path d="M 129.5 141.5 L 129.5 141.5 L 129.5 141.5 L 131.5 143.5 L 136.5 149.5 L 143.5 157.5 L 148.5 162.5 L 149.5 163.5 " stroke="black" fill="none" stroke-width="7.0" stroke-linecap="round" stroke-linejoin="round" />
<path d="M 153.5 106.0 L 154.0 106.0 L 154.0 105.5 L 154.5 105.0 L 155.5 105.5 L 156.5 109.5 L 157.5 118.0 L 158.0 127.0 L 158.5 133.0 L 159.0 134.5 L 159.5 134.5 " stroke="black" fill="none" stroke-width="7.0" stroke-linecap="round" stroke-linejoin="round" />
<path d="M 162.0 104.5 L 162.0 104.0 L 162.0 103.5 L 163.5 103.0 L 167.5 101.5 L 173.0 99.5 L 180.0 97.0 L 186.0 95.5 L 190.0 95.0 L 192.0 96.5 L 192.5 100.5 L 192.5 106.5 L 192.5 115.0 L 191.5 123.0 L 190.5 129.0 L 190.0 132.0 L 189.5 132.5 L 188.5 132.0 " stroke="black" fill="none" stroke-width="7.0" stroke-linecap="round" stroke-linejoin="round" />
<path d="M 174.0 115.5 L 173.5 116.0 L 173.5 116.0 L 174.0 116.0 L 177.5 114.5 L 181.5 112.5 L 184.0 111.5 " stroke="black" fill="none" stroke-width="7.0" stroke-linecap="round" stroke-linejoin="round" />
<path d="M 173.5 118.5 L 173.5 119.5 L 173.0 121.5 L 173.0 124.5 L 173.5 129.0 L 173.5 130.0 " stroke="black" fill="none" stroke-width="7.0" stroke-linecap="round" stroke-linejoin="round" />
<path d="M 151.5 143.0 L 151.5 143.0 L 151.5 143.0 L 151.5 146.0 L 151.5 155.0 L 152.0 167.5 L 152.0 177.0 L 152.5 182.5 L 153.5 184.0 L 154.0 183.5 " stroke="black" fill="none" stroke-width="7.0" stroke-linecap="round" stroke-linejoin="round" />
<path d="M 158.0 144.5 L 158.0 144.5 L 159.5 143.5 L 162.5 143.0 L 167.5 142.5 L 174.5 140.5 L 182.0 139.0 L 190.0 138.0 L 195.0 138.0 L 197.5 138.5 L 200.0 140.5 L 202.0 143.0 L 202.5 146.5 L 203.0 152.0 L 202.5 160.0 L 201.5 168.0 L 200.0 176.0 L 198.0 183.5 L 196.0 187.5 L 194.0 189.0 L 191.0 188.5 L 187.0 185.0 L 184.0 182.0 " stroke="black" fill="none" stroke-width="7.0" stroke-linecap="round" stroke-linejoin="round" />
<path d="M 165.5 160.0 L 165.5 160.0 L 165.0 159.5 L 165.0 159.5 L 166.0 160.0 L 168.0 162.5 L 169.5 166.0 L 170.5 168.5 L 171.0 169.0 " stroke="black" fill="none" stroke-width="7.0" stroke-linecap="round" stroke-linejoin="round" />
<path d="M 170.0 161.0 L 170.0 160.0 L 169.5 159.0 L 170.5 158.0 L 172.5 156.0 L 176.5 154.5 L 181.0 153.5 L 183.0 154.5 L 183.0 158.0 L 181.0 162.5 L 177.5 166.5 L 175.0 169.5 L 173.5 170.5 L 173.5 170.5 L 175.0 169.0 L 177.5 167.0 L 180.0 166.0 " stroke="black" fill="none" stroke-width="7.0" stroke-linecap="round" stroke-linejoin="round" />
</svg>