<svg xmlns="http://www.w3.org/2000/svg" width="300" height="300" viewBox="0 0 300 300">
<path d="M 132.5 100.5 L 132.5 100.0 L 133.0 98.5 L 133.0 98.0 L 133.0 99.0 L 130.5 104.0 L 126.5 112.0 L 123.5 116.5 " stroke="black" fill="none" stroke-width="7.0" stroke-linecap="round" stroke-linejoin="round" />
<path d="M 105.5 148.5 L 105.5 148.5 L 104.5 149.5 L 104.0 150.0 L 105.5 150.0 L 110.0 147.5 L 118.5 143.0 L 129.5 135.0 L 140.5 126.0 L 147.5 120.0 L 148.5 119.0 " stroke="black" fill="none" stroke-width="7.0" stroke-linecap="round" stroke-linejoin="round" />
<path d="M 132.5 116.0 L 132.5 117.0 L 132.0 120.5 L 132.0 129.0 L 132.0 145.0 L 132.5 164.5 L 131.0 180.0 L 130.0 190.0 L 129.0 194.0 L 128.0 195.0 L 127.0 193.0 L 126.5 191.0 " stroke="black" fill="none" stroke-width="7.0" stroke-linecap="round" stroke-linejoin="round" />
<path d="M 127.0 141.5 L 127.5 139.5 L 127.5 137.0 L 128.0 137.5 L 128.0 141.0 L 126.5 147.0 L 124.0 154.0 L 119.5 162.5 L 114.0 169.5 L 111.0 171.5 " stroke="black" fill="none" stroke-width="7.0" stroke-linecap="round" stroke-linejoin="round" />
<path d="M 127.0 140.0 L 128.5 141.5 L 132.0 145.0 L 137.0 152.0 L 142.0 161.0 L 147.0 167.0 L 151.0 169.5 " stroke="black" fill="none" stroke-width="7.0" stroke-linecap="round" stroke-linejoin="round" />
<path d="M 169.5 98.5 L 169.5 98.0 L 169.5 97.5 L 169.5 97.0 L 168.5 101.0 L 166.0 108.0 L 161.5 118.0 L 156.5 125.5 L 156.0 126.5 " stroke="black" fill="none" stroke-width="7.0" stroke-linecap="round" stroke-linejoin="round" />
<path d="M 170.0 114.5 L 170.0 114.5 L 170.0 114.5 L 171.0 114.5 L 173.0 113.0 L 175.5 111.0 L 178.5 110.0 L 180.0 109.5 L 180.5 110.5 L 180.5 113.0 L 178.5 117.5 L 176.0 124.0 L 171.5 133.5 L 164.5 145.0 L 156.0 155.0 L 150.5 161.0 L 148.5 162.5 L 148.5 162.5 " stroke="black" fill="none" stroke-width="7.0" stroke-linecap="round" stroke-linejoin="round" />
<path d="M 159.0 131.0 L 159.5 131.5 L 160.0 131.5 L 162.5 132.5 L 167.0 133.0 " stroke="black" fill="none" stroke-width="7.0" stroke-linecap="round" stroke-linejoin="round" />
<path d="M 177.5 144.5 L 177.5 143.0 L 178.0 142.0 L 178.0 142.0 L 177.5 145.0 L 175.0 151.0 L 172.0 159.0 L 167.5 167.5 L 163.0 172.5 L 161.0 173.5 " stroke="black" fill="none" stroke-width="7.0" stroke-linecap="round" stroke-linejoin="round" />
<path d="M 169.0 164.0 L 170.0 163.0 L 173.5 160.0 L 176.5 158.0 L 180.0 157.0 L 183.0 156.5 L 185.0 156.5 L 186.5 157.0 L 187.0 159.5 L 186.0 163.5 L 183.0 169.0 L 178.0 177.0 L 172.5 186.0 L 165.5 194.5 L 157.5 202.0 L 152.0 205.5 L 149.5 206.0 L 149.0 206.0 L 149.0 205.0 " stroke="black" fill="none" stroke-width="7.0" stroke-linecap="round" stroke-linejoin="round" />
<path d="M 164.5 174.5 L 165.5 174.5 L 167.5 174.0 L 170.5 176.0 L 174.0 178.5 L 178.0 180.0 " stroke="black" fill="none" stroke-width="7.0" stroke-linecap="round" stroke-linejoin="round" />
</svg>