<svg xmlns="http://www.w3.org/2000/svg" width="300" height="300" viewBox="0 0 300 300">
<path d="M 134.5 100.0 L 134.5 100.0 L 134.0 100.0 L 133.5 100.0 L 131.5 102.0 L 128.0 108.5 " stroke="black" fill="none" stroke-width="7.0" stroke-linecap="round" stroke-linejoin="round" />
<path d="M 107.0 145.5 L 106.5 146.5 L 105.0 147.5 L 105.0 148.0 L 105.0 148.0 L 108.5 146.5 L 113.5 143.5 L 127.0 135.0 L 139.0 126.0 L 145.5 121.5 L 148.5 119.5 " stroke="black" fill="none" stroke-width="7.0" stroke-linecap="round" stroke-linejoin="round" />
<path d="M 131.5 117.5 L 131.5 118.0 L 131.0 121.0 L 131.0 128.5 L 132.0 143.5 L 132.5 163.5 L 131.5 180.0 L 131.0 187.5 L 131.0 192.0 L 130.5 193.0 L 129.0 187.5 L 128.5 186.0 " stroke="black" fill="none" stroke-width="7.0" stroke-linecap="round" stroke-linejoin="round" />
<path d="M 130.0 138.0 L 130.0 137.5 L 130.0 136.0 L 130.0 135.0 L 130.0 134.5 L 129.0 136.5 L 127.5 142.0 L 125.0 148.0 L 119.0 158.5 L 111.5 166.5 L 106.0 170.5 L 105.5 170.5 " stroke="black" fill="none" stroke-width="7.0" stroke-linecap="round" stroke-linejoin="round" />
<path d="M 129.0 141.0 L 131.5 142.0 L 136.0 145.5 L 142.0 152.0 L 148.5 159.0 L 152.5 163.0 L 154.5 164.5 " stroke="black" fill="none" stroke-width="7.0" stroke-linecap="round" stroke-linejoin="round" />
<path d="M 157.0 136.0 L 157.0 136.0 L 155.5 136.0 L 155.5 136.5 L 158.0 137.0 L 160.5 137.0 " stroke="black" fill="none" stroke-width="7.0" stroke-linecap="round" stroke-linejoin="round" />
<path d="M 181.5 121.0 L 181.5 121.0 L 182.5 121.0 L 183.0 121.0 L 183.0 122.0 L 180.5 126.0 L 177.5 129.0 L 175.5 131.5 " stroke="black" fill="none" stroke-width="7.0" stroke-linecap="round" stroke-linejoin="round" />
<path d="M 167.5 92.5 L 167.0 92.0 L 166.5 91.0 L 166.5 91.0 L 167.0 95.5 L 167.5 102.0 L 167.5 116.0 L 166.0 133.5 L 158.5 156.5 L 152.0 172.5 L 148.0 183.0 L 146.0 186.0 " stroke="black" fill="none" stroke-width="7.0" stroke-linecap="round" stroke-linejoin="round" />
<path d="M 162.5 153.5 L 163.0 154.0 L 166.0 157.5 L 170.0 162.0 L 175.0 168.5 L 181.0 175.0 L 187.5 179.5 L 192.5 182.0 L 194.0 183.0 " stroke="black" fill="none" stroke-width="7.0" stroke-linecap="round" stroke-linejoin="round" />
<path d="M 111.5 124.5 L 111.5 124.5 L 111.5 125.0 L 113.0 123.5 L 118.5 118.0 L 126.5 108.0 L 132.0 101.0 " stroke="black" fill="none" stroke-width="7.0" stroke-linecap="round" stroke-linejoin="round" />
</svg>