<svg xmlns="http://www.w3.org/2000/svg" width="300" height="300" viewBox="0 0 300 300">
<path d="M 126.5 89.5 L 126.0 89.5 L 125.0 89.0 L 125.0 89.0 L 126.5 91.5 L 129.5 93.5 L 132.0 95.0 L 132.5 95.5 " stroke="black" fill="none" stroke-width="7.0" stroke-linecap="round" stroke-linejoin="round" />
<path d="M 115.5 113.0 L 114.5 113.5 L 114.0 114.0 L 115.0 114.5 L 119.0 114.0 L 124.5 112.5 L 131.0 109.0 L 138.0 104.5 L 143.0 101.0 L 144.5 101.0 L 144.5 102.0 L 142.5 104.5 L 140.0 107.0 L 137.5 110.5 L 135.5 115.0 L 132.5 122.0 L 128.0 132.5 L 121.0 146.0 L 112.0 159.0 L 105.0 168.5 L 100.0 174.0 L 96.0 178.0 L 95.0 178.5 " stroke="black" fill="none" stroke-width="7.0" stroke-linecap="round" stroke-linejoin="round" />
<path d="M 127.5 137.5 L 127.5 138.5 L 127.5 141.0 L 128.0 147.5 L 128.5 159.0 L 128.5 173.0 L 127.5 185.0 L 127.0 191.0 L 127.0 193.5 " stroke="black" fill="none" stroke-width="7.0" stroke-linecap="round" stroke-linejoin="round" />
<path d="M 130.5 142.5 L 130.5 142.5 L 130.5 142.5 L 132.5 146.5 L 137.5 157.0 L 143.0 166.0 L 147.5 171.0 " stroke="black" fill="none" stroke-width="7.0" stroke-linecap="round" stroke-linejoin="round" />
<path d="M 151.0 108.5 L 151.0 108.5 L 151.0 108.0 L 151.0 109.5 L 152.5 114.0 L 154.5 119.5 L 156.5 123.5 L 157.0 124.0 " stroke="black" fill="none" stroke-width="7.0" stroke-linecap="round" stroke-linejoin="round" />
<path d="M 153.5 104.5 L 153.5 104.0 L 154.5 103.0 L 157.5 100.5 L 164.5 97.5 L 172.5 94.0 L 179.0 92.0 L 184.0 91.5 L 187.5 92.5 L 189.0 96.0 L 189.0 101.5 L 188.5 109.0 L 186.5 117.0 L 184.0 123.0 L 181.5 126.5 L 179.0 128.0 L 177.5 128.0 " stroke="black" fill="none" stroke-width="7.0" stroke-linecap="round" stroke-linejoin="round" />
<path d="M 161.5 113.5 L 161.0 113.5 L 159.0 113.5 L 158.0 113.5 L 159.5 113.0 L 164.5 111.5 L 171.5 108.5 L 178.0 105.0 L 182.5 103.5 " stroke="black" fill="none" stroke-width="7.0" stroke-linecap="round" stroke-linejoin="round" />
<path d="M 164.0 82.5 L 164.0 83.0 L 163.5 84.5 L 163.5 90.0 L 164.5 100.0 L 164.5 111.0 L 165.0 119.5 L 165.5 122.0 L 165.5 122.0 " stroke="black" fill="none" stroke-width="7.0" stroke-linecap="round" stroke-linejoin="round" />
<path d="M 176.5 73.0 L 176.0 75.0 L 176.0 79.0 L 175.5 89.0 L 175.5 101.5 L 175.5 112.0 L 175.5 119.5 " stroke="black" fill="none" stroke-width="7.0" stroke-linecap="round" stroke-linejoin="round" />
<path d="M 160.0 129.5 L 157.5 130.0 L 157.0 130.5 L 158.0 130.5 L 162.5 130.5 L 168.5 128.5 L 174.0 127.0 L 176.5 126.5 " stroke="black" fill="none" stroke-width="7.0" stroke-linecap="round" stroke-linejoin="round" />
<path d="M 156.5 143.5 L 155.0 144.0 L 154.0 144.5 L 153.5 145.0 L 155.0 145.0 L 160.0 144.5 L 167.5 143.0 L 175.5 141.0 L 182.5 139.0 L 188.0 138.5 L 189.0 138.5 " stroke="black" fill="none" stroke-width="7.0" stroke-linecap="round" stroke-linejoin="round" />
<path d="M 154.5 160.0 L 154.5 160.5 L 154.5 160.5 L 154.5 161.5 L 155.5 163.5 L 157.5 165.5 L 159.5 167.5 L 160.5 168.0 " stroke="black" fill="none" stroke-width="7.0" stroke-linecap="round" stroke-linejoin="round" />
<path d="M 165.0 158.5 L 164.5 158.5 L 164.0 158.5 L 164.0 158.0 L 166.0 157.0 L 170.0 155.5 L 174.5 154.0 L 179.5 152.5 L 183.5 152.0 L 185.5 152.0 L 185.5 153.5 L 183.5 157.0 L 180.5 161.0 L 177.0 164.5 " stroke="black" fill="none" stroke-width="7.0" stroke-linecap="round" stroke-linejoin="round" />
<path d="M 167.5 171.0 L 165.0 172.0 L 163.5 172.5 L 163.0 172.5 L 164.5 172.5 L 168.5 171.0 L 173.0 169.0 L 178.0 166.5 L 179.0 166.0 " stroke="black" fill="none" stroke-width="7.0" stroke-linecap="round" stroke-linejoin="round" />
<path d="M 161.5 178.0 L 161.5 177.5 L 161.5 176.0 L 161.5 176.0 L 162.5 178.0 L 164.0 182.5 L 165.5 187.5 L 167.5 190.5 L 168.0 191.0 " stroke="black" fill="none" stroke-width="7.0" stroke-linecap="round" stroke-linejoin="round" />
<path d="M 177.5 171.0 L 178.0 170.5 L 178.5 170.5 L 179.0 174.0 L 178.0 180.5 L 175.5 187.0 " stroke="black" fill="none" stroke-width="7.0" stroke-linecap="round" stroke-linejoin="round" />
<path d="M 142.0 199.0 L 141.0 199.0 L 140.5 199.0 L 142.5 199.0 L 148.5 198.5 L 160.0 195.5 L 176.0 191.5 L 190.5 189.0 L 199.0 189.0 L 205.5 188.5 L 207.0 188.5 " stroke="black" fill="none" stroke-width="7.0" stroke-linecap="round" stroke-linejoin="round" />
</svg>