<svg xmlns="http://www.w3.org/2000/svg" width="300" height="300" viewBox="0 0 300 300">
<path d="M 145.5 93.5 L 145.0 93.5 L 144.5 93.5 L 144.5 93.5 L 146.0 94.0 L 148.5 94.0 L 150.0 94.5 " stroke="black" fill="none" stroke-width="7.0" stroke-linecap="round" stroke-linejoin="round" />
<path d="M 113.0 115.0 L 112.0 115.0 L 112.0 115.5 L 113.0 117.5 L 115.5 121.0 L 117.5 124.0 L 119.5 126.5 L 120.0 127.0 " stroke="black" fill="none" stroke-width="7.0" stroke-linecap="round" stroke-linejoin="round" />
<path d="M 120.5 118.0 L 120.5 118.0 L 120.5 117.5 L 122.0 117.0 L 125.5 116.0 L 134.0 113.0 L 147.5 108.5 L 158.5 104.0 L 169.0 101.0 L 175.0 100.5 L 178.0 101.0 L 179.5 103.0 L 179.0 106.5 L 176.0 111.5 L 172.5 118.0 " stroke="black" fill="none" stroke-width="7.0" stroke-linecap="round" stroke-linejoin="round" />
<path d="M 136.5 120.0 L 136.5 120.5 L 136.0 123.0 L 135.0 127.0 L 133.0 133.0 L 131.5 139.0 L 131.0 140.5 " stroke="black" fill="none" stroke-width="7.0" stroke-linecap="round" stroke-linejoin="round" />
<path d="M 151.5 114.5 L 153.0 117.0 L 155.0 121.5 L 157.0 126.5 L 158.0 130.0 " stroke="black" fill="none" stroke-width="7.0" stroke-linecap="round" stroke-linejoin="round" />
<path d="M 130.0 157.5 L 129.0 158.0 L 128.0 158.0 L 128.5 157.5 L 133.0 155.5 L 141.5 151.5 L 151.0 146.5 L 158.0 143.5 L 160.0 143.0 " stroke="black" fill="none" stroke-width="7.0" stroke-linecap="round" stroke-linejoin="round" />
<path d="M 149.5 149.0 L 149.0 150.0 L 148.5 154.0 L 148.5 160.5 L 148.0 169.0 L 148.0 177.0 L 148.0 180.0 " stroke="black" fill="none" stroke-width="7.0" stroke-linecap="round" stroke-linejoin="round" />
<path d="M 112.0 189.5 L 112.0 189.5 L 110.5 189.5 L 109.5 190.0 L 109.0 190.0 L 108.5 190.0 L 109.0 190.0 L 111.0 190.0 L 116.5 189.0 L 125.0 187.0 L 139.0 184.0 L 154.0 180.0 L 168.5 177.0 L 178.5 176.0 L 186.0 175.5 L 189.0 175.5 " stroke="black" fill="none" stroke-width="7.0" stroke-linecap="round" stroke-linejoin="round" />
</svg>