<svg xmlns="http://www.w3.org/2000/svg" width="300" height="300" viewBox="0 0 300 300">
<path d="M 130.5 103.0 L 131.0 102.5 L 131.0 101.5 L 131.5 100.5 L 131.5 100.5 L 130.5 103.0 L 128.0 108.5 L 123.5 115.5 " stroke="black" fill="none" stroke-width="7.0" stroke-linecap="round" stroke-linejoin="round" />
<path d="M 105.0 147.0 L 104.5 147.0 L 103.0 148.5 L 102.0 149.5 L 102.0 150.0 L 104.0 150.0 L 109.0 147.5 L 118.0 143.0 L 128.5 136.5 L 136.5 129.0 L 142.5 124.0 L 144.0 122.0 " stroke="black" fill="none" stroke-width="7.0" stroke-linecap="round" stroke-linejoin="round" />
<path d="M 128.5 118.5 L 128.5 121.0 L 128.5 127.5 L 128.5 142.0 L 129.0 160.0 L 129.0 176.0 L 129.0 186.5 L 128.5 191.5 L 127.5 193.5 L 126.0 193.0 L 125.0 189.0 " stroke="black" fill="none" stroke-width="7.0" stroke-linecap="round" stroke-linejoin="round" />
<path d="M 127.5 142.5 L 127.5 141.0 L 127.5 140.0 L 127.5 140.5 L 126.5 145.0 L 123.5 152.5 L 118.0 162.0 L 111.0 168.5 L 107.0 171.0 L 107.0 171.0 " stroke="black" fill="none" stroke-width="7.0" stroke-linecap="round" stroke-linejoin="round" />
<path d="M 126.5 141.5 L 128.0 142.5 L 131.0 145.5 L 135.0 153.0 L 140.0 162.0 L 145.0 168.5 L 148.5 172.5 L 149.5 173.0 " stroke="black" fill="none" stroke-width="7.0" stroke-linecap="round" stroke-linejoin="round" />
<path d="M 175.5 97.5 L 175.5 97.5 L 176.0 97.0 L 176.0 96.5 L 176.0 97.0 L 173.0 100.0 L 168.0 104.5 L 166.5 106.0 " stroke="black" fill="none" stroke-width="7.0" stroke-linecap="round" stroke-linejoin="round" />
<path d="M 156.0 122.0 L 156.0 122.0 L 155.5 122.0 L 156.5 121.5 L 158.5 122.0 L 161.5 122.5 L 164.0 123.0 " stroke="black" fill="none" stroke-width="7.0" stroke-linecap="round" stroke-linejoin="round" />
<path d="M 172.5 116.5 L 172.0 116.5 L 172.0 116.0 L 171.5 116.0 L 171.5 117.0 L 172.5 119.0 L 174.0 121.0 " stroke="black" fill="none" stroke-width="7.0" stroke-linecap="round" stroke-linejoin="round" />
<path d="M 185.0 113.0 L 185.5 112.5 L 186.5 112.0 L 186.5 112.5 L 186.0 115.5 L 183.5 119.5 " stroke="black" fill="none" stroke-width="7.0" stroke-linecap="round" stroke-linejoin="round" />
<path d="M 155.5 146.0 L 155.5 145.5 L 155.5 146.0 L 156.0 151.0 L 157.0 163.5 L 157.5 177.5 L 157.5 188.5 L 157.5 193.5 L 157.5 194.0 " stroke="black" fill="none" stroke-width="7.0" stroke-linecap="round" stroke-linejoin="round" />
<path d="M 162.0 149.0 L 162.5 148.0 L 164.0 146.0 L 167.5 144.5 L 172.0 143.0 L 177.0 141.5 L 182.5 139.5 L 186.5 139.0 L 188.5 139.5 L 189.0 142.5 L 189.5 147.5 L 189.5 156.0 L 189.5 167.0 L 189.5 179.0 L 189.0 187.0 L 188.5 192.5 L 187.0 195.5 L 185.0 196.5 L 182.5 195.0 L 179.5 190.5 " stroke="black" fill="none" stroke-width="7.0" stroke-linecap="round" stroke-linejoin="round" />
<path d="M 163.0 166.5 L 161.0 166.5 L 160.0 166.0 L 160.5 165.5 L 165.0 163.0 L 170.5 159.5 L 176.5 155.5 L 181.0 152.0 " stroke="black" fill="none" stroke-width="7.0" stroke-linecap="round" stroke-linejoin="round" />
<path d="M 171.0 132.5 L 171.0 133.5 L 171.0 136.0 L 171.0 140.5 L 171.0 149.0 L 171.0 159.5 L 171.0 168.0 L 171.0 171.5 " stroke="black" fill="none" stroke-width="7.0" stroke-linecap="round" stroke-linejoin="round" />
<path d="M 145.0 184.0 L 142.5 185.0 L 142.0 185.0 L 143.5 185.0 L 148.0 183.5 L 156.5 181.0 L 170.0 177.5 L 186.0 174.0 L 197.0 172.0 L 202.5 171.0 L 205.5 171.0 " stroke="black" fill="none" stroke-width="7.0" stroke-linecap="round" stroke-linejoin="round" />
</svg>