<svg xmlns="http://www.w3.org/2000/svg" width="300" height="300" viewBox="0 0 300 300">
<path d="M 120.5 99.0 L 120.5 98.5 L 120.5 98.0 L 121.0 100.5 L 121.0 107.0 L 118.0 118.5 L 112.0 130.0 L 107.5 137.0 L 104.5 140.0 L 103.5 140.0 " stroke="black" fill="none" stroke-width="7.0" stroke-linecap="round" stroke-linejoin="round" />
<path d="M 113.5 127.5 L 114.5 127.5 L 116.5 126.5 L 120.5 125.0 L 126.5 122.0 L 132.0 118.0 L 137.0 114.0 L 139.5 112.0 " stroke="black" fill="none" stroke-width="7.0" stroke-linecap="round" stroke-linejoin="round" />
<path d="M 131.0 122.5 L 130.0 125.0 L 130.0 130.5 L 130.0 140.5 L 130.0 155.5 L 130.0 172.5 L 128.5 184.5 L 128.0 191.5 L 128.0 193.0 " stroke="black" fill="none" stroke-width="7.0" stroke-linecap="round" stroke-linejoin="round" />
<path d="M 156.5 102.0 L 156.5 102.0 L 156.5 102.0 L 156.5 102.0 L 157.0 105.0 L 156.5 112.0 L 154.5 119.5 L 152.0 124.5 L 150.5 126.0 L 150.0 126.5 L 150.0 126.5 L 151.5 125.5 L 154.5 123.5 L 160.0 120.0 L 167.0 115.0 L 172.5 109.0 L 175.5 106.0 L 176.5 105.0 " stroke="black" fill="none" stroke-width="7.0" stroke-linecap="round" stroke-linejoin="round" />
<path d="M 169.5 117.5 L 169.5 117.5 L 168.5 119.5 L 168.5 121.5 L 168.5 125.0 L 168.5 132.5 L 169.0 143.5 L 169.0 157.0 L 169.0 170.5 L 169.0 182.5 L 168.5 191.5 L 167.5 198.0 L 165.5 202.5 L 162.5 203.5 L 158.5 201.0 L 154.5 194.0 L 152.0 187.5 " stroke="black" fill="none" stroke-width="7.0" stroke-linecap="round" stroke-linejoin="round" />
</svg>