<svg xmlns="http://www.w3.org/2000/svg" width="300" height="300" viewBox="0 0 300 300">
<path d="M 125.0 107.5 L 124.0 107.5 L 123.5 108.0 L 124.5 109.0 L 127.0 110.0 L 129.0 111.5 " stroke="black" fill="none" stroke-width="7.0" stroke-linecap="round" stroke-linejoin="round" />
<path d="M 115.5 131.0 L 115.0 132.0 L 112.5 134.0 L 112.5 135.0 L 114.0 135.0 L 118.5 133.0 L 125.5 129.0 L 131.5 124.0 L 136.5 119.5 L 138.0 118.5 " stroke="black" fill="none" stroke-width="7.0" stroke-linecap="round" stroke-linejoin="round" />
<path d="M 120.0 138.0 L 120.0 139.0 L 120.0 144.0 L 121.0 153.5 L 122.0 165.5 L 122.5 172.0 L 123.5 174.5 L 124.0 174.5 " stroke="black" fill="none" stroke-width="7.0" stroke-linecap="round" stroke-linejoin="round" />
<path d="M 135.0 131.5 L 135.0 131.5 L 135.0 132.0 L 135.0 139.0 L 133.0 150.0 L 131.5 161.0 L 130.0 168.0 " stroke="black" fill="none" stroke-width="7.0" stroke-linecap="round" stroke-linejoin="round" />
<path d="M 112.5 183.0 L 110.0 183.5 L 109.0 184.0 L 110.0 183.0 L 114.5 180.5 L 122.0 176.0 L 131.5 170.0 L 143.0 165.5 L 149.5 163.5 " stroke="black" fill="none" stroke-width="7.0" stroke-linecap="round" stroke-linejoin="round" />
<path d="M 153.5 108.5 L 153.5 108.0 L 153.5 107.0 L 153.5 107.0 L 155.5 111.5 L 158.0 118.0 L 161.0 124.5 L 163.0 128.0 L 164.0 128.0 " stroke="black" fill="none" stroke-width="7.0" stroke-linecap="round" stroke-linejoin="round" />
<path d="M 159.0 107.5 L 159.5 106.0 L 161.5 104.0 L 166.5 101.5 L 173.5 98.0 L 180.0 95.0 L 186.0 94.0 L 189.5 94.0 L 190.5 96.5 L 190.5 101.5 L 189.0 108.5 L 186.5 116.5 L 184.5 123.0 L 182.5 126.0 L 182.0 126.0 " stroke="black" fill="none" stroke-width="7.0" stroke-linecap="round" stroke-linejoin="round" />
<path d="M 167.5 115.5 L 167.0 116.0 L 165.0 116.0 L 164.0 116.5 L 166.0 116.5 L 170.5 114.5 L 176.0 112.0 L 181.0 109.5 L 182.5 109.5 " stroke="black" fill="none" stroke-width="7.0" stroke-linecap="round" stroke-linejoin="round" />
<path d="M 167.5 127.0 L 166.0 128.0 L 165.5 128.5 L 167.5 128.5 L 171.5 127.0 L 176.0 124.5 L 181.5 122.0 " stroke="black" fill="none" stroke-width="7.0" stroke-linecap="round" stroke-linejoin="round" />
<path d="M 171.5 131.0 L 171.5 130.5 L 171.5 130.0 L 171.0 130.0 L 169.0 133.0 L 165.0 138.5 L 158.0 146.0 L 152.0 152.0 L 150.0 154.0 " stroke="black" fill="none" stroke-width="7.0" stroke-linecap="round" stroke-linejoin="round" />
<path d="M 161.5 143.5 L 162.5 143.5 L 165.0 143.0 L 168.0 142.0 L 172.0 140.0 L 177.5 138.0 L 184.0 136.5 L 190.0 136.0 L 192.5 137.0 L 193.0 140.5 L 193.5 145.0 L 193.5 150.0 L 193.5 157.5 L 193.0 166.5 L 192.0 176.0 L 190.0 185.5 L 187.0 192.0 L 183.5 195.5 L 179.5 197.0 L 175.5 196.5 L 173.0 193.5 L 171.5 189.5 L 171.5 188.5 " stroke="black" fill="none" stroke-width="7.0" stroke-linecap="round" stroke-linejoin="round" />
<path d="M 172.0 152.0 L 172.0 152.5 L 172.0 153.0 L 171.5 155.5 L 170.0 161.0 L 166.5 168.0 L 163.0 173.5 L 162.0 174.0 " stroke="black" fill="none" stroke-width="7.0" stroke-linecap="round" stroke-linejoin="round" />
<path d="M 170.5 164.0 L 171.0 164.5 L 172.0 166.0 L 174.5 167.0 L 178.0 168.0 L 181.0 168.0 " stroke="black" fill="none" stroke-width="7.0" stroke-linecap="round" stroke-linejoin="round" />
<path d="M 155.0 161.5 L 155.0 161.5 L 155.0 161.5 L 155.0 162.0 L 155.0 163.5 L 155.0 166.5 L 155.0 170.5 L 155.0 174.5 L 154.5 178.0 L 154.0 180.0 L 154.0 181.0 L 154.5 181.5 L 156.5 181.5 L 160.0 180.5 L 165.5 179.0 L 170.5 178.0 L 175.0 178.0 L 178.5 178.0 " stroke="black" fill="none" stroke-width="7.0" stroke-linecap="round" stroke-linejoin="round" />
</svg>