<svg xmlns="http://www.w3.org/2000/svg" width="300" height="300" viewBox="0 0 300 300">
<path d="M 132.0 99.5 L 133.0 98.0 L 134.0 97.0 L 134.0 97.5 L 132.5 100.5 L 129.0 106.0 L 123.0 113.5 L 119.5 117.5 " stroke="black" fill="none" stroke-width="7.0" stroke-linecap="round" stroke-linejoin="round" />
<path d="M 107.0 147.0 L 106.0 147.5 L 105.0 148.5 L 104.5 149.5 L 104.5 150.0 L 108.0 149.0 L 115.0 145.5 L 125.5 139.0 L 136.0 130.0 L 144.5 123.0 L 146.5 121.5 " stroke="black" fill="none" stroke-width="7.0" stroke-linecap="round" stroke-linejoin="round" />
<path d="M 129.5 117.0 L 129.5 117.5 L 129.0 119.5 L 129.0 125.5 L 130.0 138.0 L 131.0 155.0 L 131.0 174.0 L 131.0 187.5 L 130.5 196.0 L 130.0 199.5 L 130.0 199.0 L 128.5 193.5 L 128.5 192.0 " stroke="black" fill="none" stroke-width="7.0" stroke-linecap="round" stroke-linejoin="round" />
<path d="M 128.5 139.0 L 128.5 138.5 L 128.0 137.5 L 127.5 137.5 L 126.5 141.0 L 124.5 147.5 L 121.0 158.0 L 115.5 169.5 L 110.5 177.0 L 108.0 179.5 L 107.5 180.0 " stroke="black" fill="none" stroke-width="7.0" stroke-linecap="round" stroke-linejoin="round" />
<path d="M 128.5 143.0 L 130.5 143.5 L 133.5 147.5 L 139.0 156.5 L 145.0 165.5 L 149.0 170.5 L 151.5 172.5 " stroke="black" fill="none" stroke-width="7.0" stroke-linecap="round" stroke-linejoin="round" />
<path d="M 161.5 101.0 L 161.0 101.5 L 159.0 102.0 L 158.0 102.0 L 159.0 102.0 L 163.5 101.0 L 168.5 98.5 L 173.0 96.0 L 175.5 95.0 " stroke="black" fill="none" stroke-width="7.0" stroke-linecap="round" stroke-linejoin="round" />
<path d="M 159.5 112.5 L 158.0 113.5 L 157.5 114.5 L 159.0 114.5 L 163.5 113.0 L 168.5 110.0 L 173.5 107.5 L 175.5 106.5 " stroke="black" fill="none" stroke-width="7.0" stroke-linecap="round" stroke-linejoin="round" />
<path d="M 170.0 85.5 L 169.5 87.0 L 169.0 90.5 L 168.5 97.0 L 168.5 106.0 L 169.0 115.0 L 169.0 122.5 " stroke="black" fill="none" stroke-width="7.0" stroke-linecap="round" stroke-linejoin="round" />
<path d="M 149.0 132.5 L 149.0 133.0 L 147.5 133.5 L 147.5 133.5 L 148.5 133.5 L 152.0 132.0 L 158.0 129.5 L 167.5 126.5 L 177.5 123.5 L 183.5 122.0 L 186.0 122.0 " stroke="black" fill="none" stroke-width="7.0" stroke-linecap="round" stroke-linejoin="round" />
<path d="M 152.5 142.5 L 152.5 141.5 L 152.5 140.5 L 152.5 140.5 L 153.0 143.0 L 153.5 151.0 L 153.5 163.5 L 153.0 175.0 L 153.0 181.0 L 153.0 181.0 " stroke="black" fill="none" stroke-width="7.0" stroke-linecap="round" stroke-linejoin="round" />
<path d="M 161.5 141.5 L 161.5 141.5 L 161.5 141.0 L 162.5 140.5 L 165.0 140.0 L 169.5 138.0 L 174.5 136.5 L 178.5 135.5 L 181.5 135.0 L 183.0 135.0 L 184.0 137.0 L 184.0 141.0 L 184.0 147.0 L 183.0 156.5 L 182.5 165.5 L 182.0 172.0 L 181.5 175.5 L 181.5 176.0 L 181.5 176.0 " stroke="black" fill="none" stroke-width="7.0" stroke-linecap="round" stroke-linejoin="round" />
<path d="M 164.5 157.0 L 164.0 157.0 L 162.0 157.5 L 161.5 158.0 L 162.5 158.0 L 166.0 158.0 L 170.5 156.5 L 174.5 154.5 L 177.5 153.0 " stroke="black" fill="none" stroke-width="7.0" stroke-linecap="round" stroke-linejoin="round" />
<path d="M 163.0 168.0 L 161.5 168.5 L 160.5 169.5 L 160.5 170.0 L 163.5 170.0 L 167.5 168.5 L 171.0 166.5 L 173.0 166.0 " stroke="black" fill="none" stroke-width="7.0" stroke-linecap="round" stroke-linejoin="round" />
<path d="M 159.0 181.5 L 157.5 182.5 L 156.5 183.0 L 158.5 182.5 L 162.5 181.0 L 167.5 178.5 L 171.5 176.5 L 174.5 175.0 L 175.0 174.5 L 173.5 176.5 L 170.5 180.0 L 167.0 184.0 L 162.5 188.0 L 157.5 193.5 L 152.5 198.5 L 150.0 202.0 L 149.5 203.0 " stroke="black" fill="none" stroke-width="7.0" stroke-linecap="round" stroke-linejoin="round" />
<path d="M 171.0 182.5 L 171.0 182.5 L 170.5 182.0 L 170.0 182.0 L 171.5 185.5 L 176.0 192.5 L 181.5 199.5 L 185.5 204.0 " stroke="black" fill="none" stroke-width="7.0" stroke-linecap="round" stroke-linejoin="round" />
</svg>