<svg xmlns="http://www.w3.org/2000/svg" width="300" height="300" viewBox="0 0 300 300">
<path d="M 146.0 86.5 L 145.5 86.5 L 145.0 86.0 L 145.0 86.0 L 147.0 86.5 L 150.0 87.0 L 152.0 87.5 L 153.0 88.0 " stroke="black" fill="none" stroke-width="7.0" stroke-linecap="round" stroke-linejoin="round" />
<path d="M 124.5 105.5 L 123.0 106.0 L 121.0 107.0 L 120.5 107.5 L 121.0 107.5 L 124.5 107.5 L 130.5 106.0 L 139.5 103.5 L 151.5 99.5 L 162.5 95.5 L 169.5 93.5 L 171.0 93.0 L 171.0 94.0 " stroke="black" fill="none" stroke-width="7.0" stroke-linecap="round" stroke-linejoin="round" />
<path d="M 138.5 107.5 L 139.0 109.0 L 140.0 111.5 L 141.0 116.5 L 142.5 122.0 L 144.0 125.0 L 144.5 125.5 " stroke="black" fill="none" stroke-width="7.0" stroke-linecap="round" stroke-linejoin="round" />
<path d="M 155.0 105.5 L 155.5 104.5 L 156.0 104.5 L 156.0 106.0 L 155.5 110.5 L 153.5 116.0 L 152.0 120.0 " stroke="black" fill="none" stroke-width="7.0" stroke-linecap="round" stroke-linejoin="round" />
<path d="M 118.5 132.0 L 116.5 132.5 L 115.5 132.5 L 115.5 132.5 L 118.0 132.5 L 123.5 131.5 L 130.0 130.5 L 141.5 128.0 L 154.0 124.0 L 165.0 121.0 L 171.5 120.0 L 173.5 120.5 L 173.5 122.0 " stroke="black" fill="none" stroke-width="7.0" stroke-linecap="round" stroke-linejoin="round" />
<path d="M 130.0 147.5 L 130.0 147.5 L 130.0 147.5 L 129.5 148.0 L 130.0 150.5 L 131.5 155.5 L 133.5 161.0 L 135.5 164.0 L 136.5 164.5 " stroke="black" fill="none" stroke-width="7.0" stroke-linecap="round" stroke-linejoin="round" />
<path d="M 135.0 145.5 L 135.0 145.5 L 136.5 144.0 L 140.5 142.5 L 147.0 140.0 L 153.0 137.5 L 159.0 135.5 L 164.0 135.0 L 166.5 136.0 L 167.0 139.0 L 167.0 143.0 L 165.5 147.5 L 163.5 152.5 L 161.5 157.5 L 159.5 161.0 L 157.0 163.0 " stroke="black" fill="none" stroke-width="7.0" stroke-linecap="round" stroke-linejoin="round" />
<path d="M 139.0 154.0 L 137.0 154.5 L 136.5 154.5 L 138.0 154.5 L 142.5 153.5 L 147.5 151.5 L 152.0 149.5 L 155.5 149.0 L 155.5 149.0 " stroke="black" fill="none" stroke-width="7.0" stroke-linecap="round" stroke-linejoin="round" />
<path d="M 140.5 164.0 L 139.0 165.0 L 137.5 166.5 L 138.0 167.0 L 142.0 167.0 L 147.0 165.0 L 152.0 163.0 L 154.5 161.5 " stroke="black" fill="none" stroke-width="7.0" stroke-linecap="round" stroke-linejoin="round" />
<path d="M 149.0 165.0 L 149.0 165.5 L 148.5 165.5 L 148.0 166.0 L 147.5 167.0 L 145.5 169.5 L 142.0 175.0 L 136.5 182.5 L 131.0 189.0 L 127.5 193.0 L 125.0 195.5 L 124.5 196.0 " stroke="black" fill="none" stroke-width="7.0" stroke-linecap="round" stroke-linejoin="round" />
<path d="M 146.0 172.0 L 147.0 171.5 L 149.5 170.5 L 151.0 171.5 L 151.5 174.5 L 152.0 178.5 L 153.5 182.5 L 156.0 185.0 L 158.5 186.5 L 162.0 186.5 L 166.0 186.5 L 169.5 185.5 L 172.5 184.5 L 175.5 184.0 L 178.5 183.0 L 181.5 182.5 L 184.5 182.0 L 186.5 181.0 L 187.5 179.5 L 188.0 176.0 L 188.0 170.5 L 187.0 163.5 L 186.0 158.0 " stroke="black" fill="none" stroke-width="7.0" stroke-linecap="round" stroke-linejoin="round" />
</svg>