<svg xmlns="http://www.w3.org/2000/svg" width="300" height="300" viewBox="0 0 300 300">
<path d="M 126.5 90.0 L 125.5 90.5 L 125.5 90.5 L 125.5 91.0 L 127.5 92.5 L 129.5 94.0 " stroke="black" fill="none" stroke-width="7.0" stroke-linecap="round" stroke-linejoin="round" />
<path d="M 115.0 108.5 L 114.5 109.0 L 112.0 110.0 L 112.0 111.0 L 114.0 111.5 L 120.5 110.5 L 128.0 107.5 L 136.5 103.0 L 144.5 99.0 L 148.0 97.0 " stroke="black" fill="none" stroke-width="7.0" stroke-linecap="round" stroke-linejoin="round" />
<path d="M 123.5 111.0 L 123.5 114.5 L 124.0 118.5 L 125.5 123.5 L 127.5 127.0 L 128.5 128.0 " stroke="black" fill="none" stroke-width="7.0" stroke-linecap="round" stroke-linejoin="round" />
<path d="M 139.0 106.5 L 139.0 107.5 L 138.5 109.5 L 137.0 113.5 L 134.5 118.5 L 131.5 123.0 L 130.5 124.0 " stroke="black" fill="none" stroke-width="7.0" stroke-linecap="round" stroke-linejoin="round" />
<path d="M 110.0 135.5 L 109.5 135.5 L 108.0 136.0 L 107.0 136.5 L 106.5 137.0 L 110.0 136.0 L 116.5 133.5 L 126.0 129.5 L 136.0 126.0 L 145.5 124.0 L 150.0 124.0 " stroke="black" fill="none" stroke-width="7.0" stroke-linecap="round" stroke-linejoin="round" />
<path d="M 113.0 152.0 L 113.0 152.0 L 113.0 151.5 L 113.0 151.5 L 115.0 153.5 L 118.0 157.0 L 120.0 160.0 L 121.5 161.5 " stroke="black" fill="none" stroke-width="7.0" stroke-linecap="round" stroke-linejoin="round" />
<path d="M 117.5 149.5 L 117.5 149.5 L 116.5 149.5 L 117.0 149.5 L 120.5 148.5 L 125.5 146.5 L 131.5 144.0 L 136.5 142.5 L 139.5 142.0 L 140.0 143.5 L 137.5 147.5 L 134.0 152.0 L 130.0 157.0 L 126.5 161.5 L 124.0 163.0 L 124.0 163.5 L 124.5 162.5 L 127.0 160.0 L 130.5 157.5 L 134.0 155.5 L 134.5 155.0 " stroke="black" fill="none" stroke-width="7.0" stroke-linecap="round" stroke-linejoin="round" />
<path d="M 127.5 163.0 L 127.0 163.0 L 126.0 164.0 L 125.5 165.5 L 125.5 167.5 L 125.0 173.0 L 122.0 181.5 L 117.0 190.0 L 112.5 195.5 L 111.0 196.5 " stroke="black" fill="none" stroke-width="7.0" stroke-linecap="round" stroke-linejoin="round" />
<path d="M 123.5 173.0 L 124.5 173.0 L 126.0 174.0 L 127.5 178.5 L 129.0 185.0 L 130.5 191.5 L 131.5 196.0 L 133.0 197.0 L 135.5 195.5 L 139.5 190.0 L 144.0 183.0 L 148.5 175.0 L 150.5 169.0 " stroke="black" fill="none" stroke-width="7.0" stroke-linecap="round" stroke-linejoin="round" />
<path d="M 169.0 91.0 L 168.5 91.5 L 168.0 92.5 L 168.5 93.5 L 170.0 94.5 L 172.0 95.5 L 172.5 96.0 " stroke="black" fill="none" stroke-width="7.0" stroke-linecap="round" stroke-linejoin="round" />
<path d="M 162.5 105.5 L 160.0 107.0 L 160.0 107.5 L 162.0 108.0 L 166.5 107.0 L 172.0 104.5 L 178.0 101.5 L 183.0 98.5 L 185.0 97.5 " stroke="black" fill="none" stroke-width="7.0" stroke-linecap="round" stroke-linejoin="round" />
<path d="M 167.0 112.0 L 167.0 115.0 L 168.5 118.5 L 170.0 122.0 L 171.5 124.5 L 171.5 125.0 " stroke="black" fill="none" stroke-width="7.0" stroke-linecap="round" stroke-linejoin="round" />
<path d="M 179.0 110.0 L 179.0 110.0 L 179.0 110.0 L 179.0 112.0 L 177.5 116.0 L 175.0 121.0 L 173.5 124.0 " stroke="black" fill="none" stroke-width="7.0" stroke-linecap="round" stroke-linejoin="round" />
<path d="M 151.5 134.0 L 150.0 134.5 L 149.0 135.0 L 149.0 135.5 L 151.5 135.5 L 157.0 134.0 L 165.5 131.0 L 175.5 127.5 L 186.0 124.0 L 191.5 123.0 L 192.5 123.5 " stroke="black" fill="none" stroke-width="7.0" stroke-linecap="round" stroke-linejoin="round" />
<path d="M 157.0 148.5 L 156.5 148.5 L 156.5 148.0 L 157.0 148.5 L 159.0 151.0 L 162.0 154.5 L 165.0 157.5 " stroke="black" fill="none" stroke-width="7.0" stroke-linecap="round" stroke-linejoin="round" />
<path d="M 163.0 148.0 L 163.0 148.0 L 163.0 148.0 L 164.0 147.0 L 167.5 146.0 L 173.0 143.5 L 178.5 141.5 L 182.5 140.5 L 183.0 142.0 L 180.5 145.5 L 177.0 150.0 L 173.0 154.0 L 169.5 157.5 L 167.0 159.5 L 166.5 160.0 L 167.0 159.5 L 169.0 158.0 L 171.5 156.5 L 174.5 154.0 L 177.0 152.5 L 178.5 151.5 " stroke="black" fill="none" stroke-width="7.0" stroke-linecap="round" stroke-linejoin="round" />
<path d="M 173.0 157.5 L 171.5 159.5 L 170.0 161.5 L 169.5 162.5 L 169.5 164.0 L 169.0 167.0 L 167.5 172.5 L 164.0 180.0 L 160.0 187.0 L 156.0 191.5 L 154.5 193.0 " stroke="black" fill="none" stroke-width="7.0" stroke-linecap="round" stroke-linejoin="round" />
<path d="M 171.0 165.0 L 171.0 165.0 L 171.5 165.5 L 171.5 168.0 L 171.5 173.0 L 172.0 179.5 L 174.0 184.5 L 176.5 187.0 L 180.5 188.0 L 185.0 188.0 L 190.0 187.0 L 193.5 185.5 L 196.5 184.0 L 199.0 182.5 L 200.5 181.0 L 202.0 178.5 L 202.5 174.0 L 202.0 166.5 L 200.0 155.5 " stroke="black" fill="none" stroke-width="7.0" stroke-linecap="round" stroke-linejoin="round" />
</svg>