<svg xmlns="http://www.w3.org/2000/svg" width="300" height="300" viewBox="0 0 300 300">
<path d="M 118.0 99.5 L 117.5 99.5 L 117.0 99.5 L 117.0 99.5 L 120.0 100.5 L 123.0 101.5 L 125.5 103.5 L 126.0 104.0 " stroke="black" fill="none" stroke-width="7.0" stroke-linecap="round" stroke-linejoin="round" />
<path d="M 111.0 126.5 L 108.0 128.5 L 107.0 129.5 L 108.0 129.5 L 111.5 127.5 L 118.5 123.0 L 126.0 117.5 L 132.5 112.0 L 135.0 109.0 L 135.0 109.0 " stroke="black" fill="none" stroke-width="7.0" stroke-linecap="round" stroke-linejoin="round" />
<path d="M 114.0 129.5 L 114.0 130.5 L 114.0 136.0 L 115.0 143.0 L 116.0 152.5 L 117.0 162.0 L 118.5 168.5 L 120.5 171.0 " stroke="black" fill="none" stroke-width="7.0" stroke-linecap="round" stroke-linejoin="round" />
<path d="M 130.0 127.0 L 130.0 126.0 L 130.5 126.0 L 130.5 130.5 L 130.0 140.5 L 128.5 152.0 L 127.0 162.5 L 126.0 168.0 " stroke="black" fill="none" stroke-width="7.0" stroke-linecap="round" stroke-linejoin="round" />
<path d="M 102.0 186.5 L 100.5 187.0 L 98.5 187.5 L 97.5 188.0 L 97.0 188.0 L 101.0 186.0 L 108.5 181.5 L 120.0 172.5 L 134.5 160.5 L 146.5 150.5 " stroke="black" fill="none" stroke-width="7.0" stroke-linecap="round" stroke-linejoin="round" />
<path d="M 152.0 105.0 L 152.0 104.0 L 152.0 103.0 L 151.5 102.5 L 151.5 102.0 L 152.0 102.5 L 152.5 106.0 L 153.0 110.5 L 153.0 114.5 L 153.0 118.0 L 153.0 119.0 L 153.0 119.5 L 154.5 118.5 L 157.5 116.5 L 162.0 114.0 L 167.5 111.0 L 172.5 108.0 L 176.5 107.5 L 180.5 107.0 L 183.0 107.0 " stroke="black" fill="none" stroke-width="7.0" stroke-linecap="round" stroke-linejoin="round" />
<path d="M 187.5 93.5 L 187.0 93.5 L 187.0 94.0 L 186.5 96.5 L 186.5 101.0 L 186.5 106.5 " stroke="black" fill="none" stroke-width="7.0" stroke-linecap="round" stroke-linejoin="round" />
<path d="M 171.5 73.0 L 171.5 74.0 L 171.0 78.5 L 171.0 87.0 L 170.5 101.0 L 170.0 107.5 " stroke="black" fill="none" stroke-width="7.0" stroke-linecap="round" stroke-linejoin="round" />
<path d="M 157.5 130.5 L 156.0 131.0 L 155.0 131.0 L 156.5 131.0 L 161.5 130.0 L 168.5 126.0 L 175.5 122.0 L 178.0 120.5 " stroke="black" fill="none" stroke-width="7.0" stroke-linecap="round" stroke-linejoin="round" />
<path d="M 172.0 128.0 L 171.5 129.0 L 171.0 131.5 L 169.5 136.0 L 166.5 142.0 L 164.5 145.5 " stroke="black" fill="none" stroke-width="7.0" stroke-linecap="round" stroke-linejoin="round" />
<path d="M 147.0 152.5 L 147.0 152.5 L 147.0 152.5 L 147.0 152.5 L 147.5 157.0 L 148.5 166.0 L 149.5 174.5 L 150.5 180.0 L 151.0 182.0 L 151.5 181.5 " stroke="black" fill="none" stroke-width="7.0" stroke-linecap="round" stroke-linejoin="round" />
<path d="M 151.5 156.5 L 151.5 155.5 L 151.5 153.5 L 152.5 151.5 L 154.5 150.0 L 159.0 148.5 L 166.0 145.5 L 174.0 141.5 L 180.0 138.5 L 185.0 138.0 L 188.0 140.5 L 189.5 146.0 L 189.5 153.5 L 189.5 163.0 L 189.5 172.5 L 188.5 181.0 L 187.0 187.0 L 185.0 190.0 L 182.0 190.0 L 178.5 187.5 L 177.5 186.5 " stroke="black" fill="none" stroke-width="7.0" stroke-linecap="round" stroke-linejoin="round" />
<path d="M 161.5 153.5 L 161.0 154.5 L 161.0 158.0 L 161.0 165.0 L 161.0 173.5 L 161.0 179.5 L 161.5 180.5 " stroke="black" fill="none" stroke-width="7.0" stroke-linecap="round" stroke-linejoin="round" />
<path d="M 172.0 145.0 L 172.0 145.0 L 173.0 147.0 L 173.0 154.0 L 173.0 166.5 L 172.5 177.5 L 172.5 181.5 " stroke="black" fill="none" stroke-width="7.0" stroke-linecap="round" stroke-linejoin="round" />
</svg>