<svg xmlns="http://www.w3.org/2000/svg" width="300" height="300" viewBox="0 0 300 300">
<path d="M 146.0 86.5 L 146.0 86.5 L 144.5 86.5 L 144.0 86.5 L 144.0 86.5 L 145.0 87.5 L 147.0 88.5 L 149.0 89.5 L 149.5 90.0 " stroke="black" fill="none" stroke-width="7.0" stroke-linecap="round" stroke-linejoin="round" />
<path d="M 118.0 109.0 L 117.0 109.0 L 116.5 109.0 L 116.5 109.0 L 119.0 108.5 L 125.0 107.5 L 134.0 105.0 L 148.5 101.0 L 161.5 97.0 L 170.0 95.0 L 173.0 94.0 L 173.5 94.0 " stroke="black" fill="none" stroke-width="7.0" stroke-linecap="round" stroke-linejoin="round" />
<path d="M 134.0 115.5 L 134.0 115.5 L 134.0 115.5 L 135.0 117.5 L 138.5 120.5 L 143.0 123.0 " stroke="black" fill="none" stroke-width="7.0" stroke-linecap="round" stroke-linejoin="round" />
<path d="M 155.5 107.5 L 156.0 107.5 L 156.0 107.0 L 156.5 107.5 L 155.5 110.5 L 153.5 115.5 L 150.5 121.0 " stroke="black" fill="none" stroke-width="7.0" stroke-linecap="round" stroke-linejoin="round" />
<path d="M 119.0 133.5 L 118.0 133.5 L 116.0 134.0 L 115.0 134.0 L 115.0 134.5 L 117.5 134.5 L 123.5 133.5 L 131.5 131.0 L 144.0 126.5 L 157.0 121.5 L 167.0 118.5 L 171.0 117.5 L 171.5 117.5 " stroke="black" fill="none" stroke-width="7.0" stroke-linecap="round" stroke-linejoin="round" />
<path d="M 128.0 148.5 L 128.0 148.5 L 128.0 148.0 L 128.0 148.0 L 128.0 149.0 L 129.5 153.5 L 132.0 159.0 L 134.5 163.5 L 136.5 165.5 " stroke="black" fill="none" stroke-width="7.0" stroke-linecap="round" stroke-linejoin="round" />
<path d="M 134.0 146.0 L 134.0 145.0 L 134.5 143.0 L 137.5 142.0 L 144.0 140.0 L 151.0 137.0 L 158.5 133.5 L 164.5 131.5 L 168.0 131.5 L 169.0 133.5 L 169.0 137.5 L 167.5 143.0 L 165.0 149.5 L 162.0 155.5 L 159.5 160.0 " stroke="black" fill="none" stroke-width="7.0" stroke-linecap="round" stroke-linejoin="round" />
<path d="M 142.5 152.0 L 141.0 152.0 L 139.5 152.0 L 139.0 152.0 L 141.5 152.0 L 145.5 151.0 L 150.5 149.5 L 154.5 148.0 L 157.5 147.0 " stroke="black" fill="none" stroke-width="7.0" stroke-linecap="round" stroke-linejoin="round" />
<path d="M 142.0 162.0 L 140.5 162.5 L 140.5 163.0 L 144.0 163.0 L 149.0 162.0 L 153.5 160.5 L 157.0 159.5 L 158.0 159.5 " stroke="black" fill="none" stroke-width="7.0" stroke-linecap="round" stroke-linejoin="round" />
<path d="M 117.5 186.5 L 116.0 187.0 L 115.0 187.0 L 115.0 187.0 L 116.5 187.0 L 120.5 186.5 L 126.5 185.0 L 135.5 182.0 L 148.5 178.5 L 159.0 175.5 L 167.0 174.0 L 171.5 173.0 L 173.0 172.5 " stroke="black" fill="none" stroke-width="7.0" stroke-linecap="round" stroke-linejoin="round" />
<path d="M 148.5 163.0 L 148.0 164.0 L 148.0 166.5 L 148.0 174.0 L 149.0 186.5 L 149.0 197.5 L 149.0 206.0 " stroke="black" fill="none" stroke-width="7.0" stroke-linecap="round" stroke-linejoin="round" />
</svg>