<svg xmlns="http://www.w3.org/2000/svg" width="300" height="300" viewBox="0 0 300 300">
<path d="M 138.5 97.5 L 138.0 97.5 L 136.5 97.5 L 136.0 97.5 L 138.0 98.5 L 142.5 99.5 L 147.0 100.0 L 150.0 100.5 " stroke="black" fill="none" stroke-width="7.0" stroke-linecap="round" stroke-linejoin="round" />
<path d="M 126.5 127.5 L 124.5 129.5 L 123.0 130.5 L 122.5 130.5 L 125.5 130.0 L 131.0 127.5 L 140.0 124.5 L 151.0 120.0 L 161.0 114.5 L 167.5 111.5 L 168.0 111.0 L 168.0 111.5 " stroke="black" fill="none" stroke-width="7.0" stroke-linecap="round" stroke-linejoin="round" />
<path d="M 133.5 143.5 L 133.5 145.0 L 133.5 151.0 L 135.0 160.0 L 136.5 169.0 L 138.0 174.0 L 139.5 177.0 " stroke="black" fill="none" stroke-width="7.0" stroke-linecap="round" stroke-linejoin="round" />
<path d="M 162.0 128.5 L 162.0 130.5 L 161.0 135.5 L 158.5 145.0 L 156.0 157.0 L 153.0 167.0 L 152.5 169.0 " stroke="black" fill="none" stroke-width="7.0" stroke-linecap="round" stroke-linejoin="round" />
<path d="M 106.0 190.0 L 105.0 190.0 L 104.0 190.0 L 105.0 190.0 L 110.5 188.0 L 122.0 185.0 L 138.5 180.5 L 157.0 175.5 L 172.0 175.0 L 183.5 174.5 L 194.0 175.5 L 198.5 178.5 L 199.0 179.0 " stroke="black" fill="none" stroke-width="7.0" stroke-linecap="round" stroke-linejoin="round" />
</svg>