<svg xmlns="http://www.w3.org/2000/svg" width="300" height="300" viewBox="0 0 300 300">
<path d="M 127.5 93.0 L 127.5 92.5 L 127.0 90.5 L 127.0 90.0 L 127.0 90.5 L 127.0 97.0 L 126.5 105.0 L 123.0 116.5 L 117.5 126.0 L 113.0 130.5 L 111.0 131.5 L 110.5 131.5 " stroke="black" fill="none" stroke-width="7.0" stroke-linecap="round" stroke-linejoin="round" />
<path d="M 122.5 118.5 L 123.0 118.0 L 125.0 116.5 L 129.0 113.5 L 134.5 108.5 L 141.5 103.5 L 142.5 103.0 " stroke="black" fill="none" stroke-width="7.0" stroke-linecap="round" stroke-linejoin="round" />
<path d="M 132.5 123.5 L 132.0 124.0 L 131.5 125.5 L 132.5 126.5 L 135.0 126.5 L 137.0 126.0 " stroke="black" fill="none" stroke-width="7.0" stroke-linecap="round" stroke-linejoin="round" />
<path d="M 157.5 94.5 L 158.0 94.5 L 158.5 93.5 L 158.5 95.0 L 159.0 99.5 L 157.5 107.0 L 155.0 115.5 L 152.5 122.0 L 151.0 124.5 L 150.5 124.5 " stroke="black" fill="none" stroke-width="7.0" stroke-linecap="round" stroke-linejoin="round" />
<path d="M 157.0 114.0 L 158.5 112.0 L 160.5 110.0 L 164.5 107.0 L 169.5 102.5 L 173.5 99.0 L 174.0 98.0 " stroke="black" fill="none" stroke-width="7.0" stroke-linecap="round" stroke-linejoin="round" />
<path d="M 168.0 114.0 L 168.0 114.5 L 168.5 117.0 L 171.0 119.0 L 174.0 121.0 L 175.0 122.0 " stroke="black" fill="none" stroke-width="7.0" stroke-linecap="round" stroke-linejoin="round" />
<path d="M 128.0 144.5 L 127.5 144.5 L 127.0 144.5 L 127.0 144.5 L 129.5 143.5 L 134.0 141.5 L 139.5 138.0 L 144.5 136.0 L 146.5 136.0 L 146.5 139.0 L 146.5 144.0 L 145.5 150.5 L 144.5 157.0 L 144.5 161.5 L 144.5 163.5 " stroke="black" fill="none" stroke-width="7.0" stroke-linecap="round" stroke-linejoin="round" />
<path d="M 127.5 157.0 L 126.5 157.5 L 126.0 157.5 L 126.0 157.5 L 128.5 157.5 L 132.5 156.5 L 137.0 155.0 L 139.5 154.0 " stroke="black" fill="none" stroke-width="7.0" stroke-linecap="round" stroke-linejoin="round" />
<path d="M 127.5 170.0 L 127.0 170.5 L 126.0 171.5 L 126.5 171.5 L 129.5 170.0 L 134.5 167.0 L 140.0 164.5 " stroke="black" fill="none" stroke-width="7.0" stroke-linecap="round" stroke-linejoin="round" />
<path d="M 123.0 149.0 L 122.5 149.0 L 122.0 149.0 L 121.5 149.0 L 121.5 152.5 L 123.0 162.0 L 123.5 175.0 L 123.0 188.5 L 121.0 197.5 L 119.0 203.0 L 117.5 205.5 L 117.5 206.0 L 117.5 206.0 L 117.5 206.0 L 118.5 205.0 L 121.0 203.0 L 124.5 199.0 L 129.0 194.0 L 134.0 189.5 L 139.0 186.0 L 141.5 184.5 " stroke="black" fill="none" stroke-width="7.0" stroke-linecap="round" stroke-linejoin="round" />
<path d="M 140.0 180.0 L 140.0 180.0 L 140.0 180.0 L 140.5 181.0 L 142.0 185.5 L 144.5 193.5 L 146.0 200.5 " stroke="black" fill="none" stroke-width="7.0" stroke-linecap="round" stroke-linejoin="round" />
<path d="M 158.5 145.0 L 158.0 145.0 L 157.0 145.0 L 156.5 145.0 L 157.0 145.0 L 160.5 143.5 L 166.0 141.5 L 171.5 139.5 L 176.0 137.5 L 179.0 137.0 L 180.5 138.5 L 181.5 142.0 L 181.5 146.5 L 181.5 152.0 L 180.5 159.0 L 178.5 163.5 L 175.5 166.0 L 173.0 166.0 L 170.5 163.0 L 168.0 158.5 L 166.0 152.5 L 164.5 148.5 L 164.0 147.0 L 164.0 147.5 L 164.5 151.5 L 165.5 159.5 L 166.5 171.5 L 166.5 188.5 L 165.5 205.0 L 165.0 214.5 " stroke="black" fill="none" stroke-width="7.0" stroke-linecap="round" stroke-linejoin="round" />
</svg>