<svg xmlns="http://www.w3.org/2000/svg" width="300" height="300" viewBox="0 0 300 300">
<path d="M 132.0 88.5 L 132.0 88.0 L 132.0 88.0 L 132.0 90.0 L 131.0 99.0 L 127.5 110.5 L 122.5 120.5 L 118.5 125.0 L 117.0 126.0 L 117.0 126.0 " stroke="black" fill="none" stroke-width="7.0" stroke-linecap="round" stroke-linejoin="round" />
<path d="M 127.0 111.0 L 127.5 110.0 L 130.0 107.5 L 134.5 104.5 L 141.0 100.5 L 146.0 97.5 " stroke="black" fill="none" stroke-width="7.0" stroke-linecap="round" stroke-linejoin="round" />
<path d="M 135.5 116.0 L 135.0 116.0 L 135.0 116.0 L 136.0 116.5 L 140.0 118.0 L 143.5 119.5 " stroke="black" fill="none" stroke-width="7.0" stroke-linecap="round" stroke-linejoin="round" />
<path d="M 161.0 86.5 L 161.0 88.0 L 161.0 91.0 L 160.5 98.0 L 158.5 105.5 L 156.5 111.0 L 155.5 112.0 " stroke="black" fill="none" stroke-width="7.0" stroke-linecap="round" stroke-linejoin="round" />
<path d="M 164.0 102.0 L 162.0 102.0 L 161.0 102.0 L 160.5 102.0 L 163.0 102.0 L 168.0 100.5 L 173.5 98.5 L 178.5 96.0 L 179.5 96.0 " stroke="black" fill="none" stroke-width="7.0" stroke-linecap="round" stroke-linejoin="round" />
<path d="M 170.5 108.5 L 170.5 109.5 L 170.5 111.0 L 172.5 113.0 L 175.5 115.5 L 179.0 118.0 " stroke="black" fill="none" stroke-width="7.0" stroke-linecap="round" stroke-linejoin="round" />
<path d="M 130.5 142.0 L 129.5 142.5 L 128.5 143.0 L 127.5 143.5 L 127.5 144.0 L 129.5 144.0 L 135.5 142.5 L 145.0 139.0 L 154.0 134.5 L 161.0 130.5 L 163.5 129.5 L 162.5 130.0 L 161.5 130.5 " stroke="black" fill="none" stroke-width="7.0" stroke-linecap="round" stroke-linejoin="round" />
<path d="M 120.5 144.5 L 119.5 144.0 L 119.0 143.5 L 119.0 146.0 L 119.5 154.0 L 119.5 168.5 L 116.0 187.5 L 111.5 202.0 L 108.0 213.0 L 106.5 218.5 L 106.5 219.5 " stroke="black" fill="none" stroke-width="7.0" stroke-linecap="round" stroke-linejoin="round" />
<path d="M 128.5 164.0 L 128.5 164.0 L 128.0 164.0 L 127.5 164.0 L 128.5 164.0 L 132.5 162.0 L 139.0 159.0 L 145.5 155.5 L 146.5 155.0 " stroke="black" fill="none" stroke-width="7.0" stroke-linecap="round" stroke-linejoin="round" />
<path d="M 124.5 180.5 L 125.0 183.5 L 126.0 186.5 L 128.0 190.0 L 129.5 192.0 " stroke="black" fill="none" stroke-width="7.0" stroke-linecap="round" stroke-linejoin="round" />
<path d="M 128.5 183.5 L 129.0 183.5 L 129.0 183.0 L 129.5 182.5 L 131.0 181.0 L 135.0 179.0 L 139.5 178.0 L 142.0 178.5 L 141.5 182.5 L 138.0 187.5 L 133.5 192.0 L 130.0 194.5 L 129.0 195.0 L 130.0 194.0 L 134.0 191.5 L 140.0 188.0 " stroke="black" fill="none" stroke-width="7.0" stroke-linecap="round" stroke-linejoin="round" />
<path d="M 149.5 125.5 L 149.5 126.0 L 149.0 126.5 L 149.0 129.0 L 152.0 139.0 L 157.5 155.5 L 164.0 175.0 L 168.5 191.0 L 172.0 200.5 L 175.0 207.5 L 178.0 210.5 L 179.5 211.0 L 180.0 210.0 L 180.5 205.5 L 179.5 198.0 L 178.0 189.5 L 177.5 187.0 " stroke="black" fill="none" stroke-width="7.0" stroke-linecap="round" stroke-linejoin="round" />
<path d="M 172.5 157.5 L 172.0 156.5 L 171.0 156.5 L 169.0 159.5 L 165.0 168.0 L 157.0 183.5 L 148.0 200.5 L 141.0 212.5 " stroke="black" fill="none" stroke-width="7.0" stroke-linecap="round" stroke-linejoin="round" />
<path d="M 165.5 124.0 L 164.0 123.5 L 164.0 123.0 L 167.0 125.5 L 171.0 131.5 L 175.5 138.5 L 178.0 142.0 " stroke="black" fill="none" stroke-width="7.0" stroke-linecap="round" stroke-linejoin="round" />
</svg>