<svg xmlns="http://www.w3.org/2000/svg" width="300" height="300" viewBox="0 0 300 300">
<path d="M 128.0 83.5 L 128.0 83.0 L 128.0 81.0 L 128.0 80.0 L 128.0 81.0 L 128.5 85.5 L 128.5 93.0 L 126.5 102.0 L 123.0 112.0 L 118.0 118.5 L 115.0 120.5 L 114.5 120.5 " stroke="black" fill="none" stroke-width="7.0" stroke-linecap="round" stroke-linejoin="round" />
<path d="M 125.0 104.5 L 126.0 103.5 L 127.5 102.0 L 131.0 100.5 L 136.5 97.0 L 143.0 92.5 L 145.0 91.5 " stroke="black" fill="none" stroke-width="7.0" stroke-linecap="round" stroke-linejoin="round" />
<path d="M 134.0 108.0 L 133.5 109.5 L 133.5 111.0 L 135.5 112.0 L 138.5 112.5 L 141.0 112.5 " stroke="black" fill="none" stroke-width="7.0" stroke-linecap="round" stroke-linejoin="round" />
<path d="M 159.5 79.0 L 159.5 79.0 L 159.5 79.0 L 160.0 81.0 L 160.0 86.5 L 159.0 94.5 L 157.0 100.5 L 155.0 102.5 L 154.5 102.5 L 155.0 101.0 L 157.5 98.0 L 161.5 94.5 L 167.0 90.5 L 171.5 87.0 L 172.5 86.5 " stroke="black" fill="none" stroke-width="7.0" stroke-linecap="round" stroke-linejoin="round" />
<path d="M 169.0 96.0 L 168.5 96.5 L 168.5 98.0 L 171.0 100.0 L 172.5 101.5 " stroke="black" fill="none" stroke-width="7.0" stroke-linecap="round" stroke-linejoin="round" />
<path d="M 133.0 132.0 L 132.0 132.0 L 131.0 132.0 L 131.0 132.0 L 134.5 130.5 L 142.0 128.0 L 151.0 123.5 L 158.0 119.5 L 162.0 118.0 L 162.5 118.0 " stroke="black" fill="none" stroke-width="7.0" stroke-linecap="round" stroke-linejoin="round" />
<path d="M 128.0 135.0 L 128.0 136.5 L 128.5 140.0 L 130.0 147.0 L 130.5 158.0 L 131.0 166.5 L 131.5 170.5 L 132.0 171.0 L 132.0 171.0 " stroke="black" fill="none" stroke-width="7.0" stroke-linecap="round" stroke-linejoin="round" />
<path d="M 132.0 148.0 L 132.0 148.0 L 132.5 147.0 L 133.0 146.0 L 137.0 145.0 L 144.0 142.5 L 152.0 139.0 L 158.0 135.5 L 160.5 134.5 L 160.5 135.0 " stroke="black" fill="none" stroke-width="7.0" stroke-linecap="round" stroke-linejoin="round" />
<path d="M 138.5 156.5 L 135.5 157.0 L 135.0 157.5 L 137.0 157.5 L 142.5 154.5 L 148.5 151.0 L 154.5 147.5 L 160.0 145.0 " stroke="black" fill="none" stroke-width="7.0" stroke-linecap="round" stroke-linejoin="round" />
<path d="M 149.0 128.5 L 149.0 129.0 L 148.0 130.5 L 147.5 136.0 L 147.5 145.0 L 147.5 154.5 L 147.5 163.0 L 147.5 165.5 " stroke="black" fill="none" stroke-width="7.0" stroke-linecap="round" stroke-linejoin="round" />
<path d="M 132.0 177.5 L 131.0 178.0 L 129.5 178.5 L 129.0 178.5 L 129.0 178.5 L 132.0 178.0 L 137.5 176.0 L 146.0 173.0 L 156.0 168.0 L 165.5 164.5 L 171.5 163.0 L 174.5 162.0 L 175.0 162.0 L 175.0 164.5 L 175.0 169.0 L 174.5 175.0 L 173.5 182.5 L 173.0 189.0 L 171.5 195.0 L 169.5 200.0 L 166.0 203.5 L 161.0 203.5 L 157.0 201.5 " stroke="black" fill="none" stroke-width="7.0" stroke-linecap="round" stroke-linejoin="round" />
<path d="M 111.5 190.0 L 111.5 190.5 L 112.0 191.0 L 113.5 192.0 L 116.5 194.0 L 120.5 197.0 L 122.0 198.0 " stroke="black" fill="none" stroke-width="7.0" stroke-linecap="round" stroke-linejoin="round" />
<path d="M 129.0 186.0 L 129.5 186.0 L 130.5 186.0 L 131.5 186.5 L 134.0 188.5 L 137.5 190.5 L 140.0 191.0 " stroke="black" fill="none" stroke-width="7.0" stroke-linecap="round" stroke-linejoin="round" />
<path d="M 147.5 180.5 L 147.5 180.5 L 147.5 180.5 L 148.0 180.5 L 149.5 181.5 L 151.5 183.0 L 154.0 184.0 " stroke="black" fill="none" stroke-width="7.0" stroke-linecap="round" stroke-linejoin="round" />
<path d="M 162.0 175.0 L 162.5 175.5 L 164.0 176.5 L 167.0 179.0 L 169.5 183.5 " stroke="black" fill="none" stroke-width="7.0" stroke-linecap="round" stroke-linejoin="round" />
</svg>