<svg xmlns="http://www.w3.org/2000/svg" width="300" height="300" viewBox="0 0 300 300">
<path d="M 130.0 81.5 L 130.0 81.5 L 130.0 81.0 L 130.0 80.5 L 130.0 82.0 L 130.0 88.0 L 128.0 97.5 L 124.5 107.0 L 120.5 114.0 L 118.0 116.5 L 117.5 116.5 " stroke="black" fill="none" stroke-width="7.0" stroke-linecap="round" stroke-linejoin="round" />
<path d="M 125.0 104.0 L 126.0 103.0 L 128.5 101.0 L 131.5 99.0 L 136.0 96.5 L 141.5 92.5 L 143.5 91.5 " stroke="black" fill="none" stroke-width="7.0" stroke-linecap="round" stroke-linejoin="round" />
<path d="M 136.5 105.0 L 136.5 106.5 L 137.0 107.5 L 139.5 108.0 L 142.5 107.5 " stroke="black" fill="none" stroke-width="7.0" stroke-linecap="round" stroke-linejoin="round" />
<path d="M 158.5 78.5 L 158.5 78.5 L 158.5 78.5 L 158.5 80.0 L 158.5 83.5 L 158.5 90.5 L 157.0 96.5 L 155.5 100.5 L 154.5 101.0 L 154.5 100.0 L 156.0 97.5 L 159.5 94.0 L 164.0 90.5 L 168.5 86.5 L 172.0 84.0 " stroke="black" fill="none" stroke-width="7.0" stroke-linecap="round" stroke-linejoin="round" />
<path d="M 167.5 94.5 L 167.5 95.5 L 167.5 97.5 L 169.0 100.0 L 171.0 102.5 L 172.0 104.0 " stroke="black" fill="none" stroke-width="7.0" stroke-linecap="round" stroke-linejoin="round" />
<path d="M 140.5 123.5 L 140.5 122.5 L 141.0 121.5 L 141.0 121.5 L 139.0 124.5 L 134.5 130.0 L 129.0 137.0 L 127.5 139.0 " stroke="black" fill="none" stroke-width="7.0" stroke-linecap="round" stroke-linejoin="round" />
<path d="M 123.0 150.0 L 121.5 151.0 L 121.0 151.5 L 121.5 152.0 L 125.0 151.0 L 129.5 148.0 L 136.0 143.0 L 143.0 138.0 L 146.5 136.0 L 147.0 136.0 " stroke="black" fill="none" stroke-width="7.0" stroke-linecap="round" stroke-linejoin="round" />
<path d="M 119.5 164.5 L 118.5 165.0 L 115.0 167.5 L 114.5 168.0 L 116.0 168.0 L 121.0 166.0 L 127.5 162.0 L 135.0 156.5 L 144.5 150.0 L 150.5 146.0 L 152.5 144.5 " stroke="black" fill="none" stroke-width="7.0" stroke-linecap="round" stroke-linejoin="round" />
<path d="M 134.0 122.0 L 134.0 122.0 L 133.5 123.0 L 133.5 127.0 L 135.0 138.5 L 136.5 155.5 L 136.5 173.5 L 135.0 188.5 L 133.5 197.5 L 133.0 200.5 L 133.0 198.0 L 133.0 193.0 " stroke="black" fill="none" stroke-width="7.0" stroke-linecap="round" stroke-linejoin="round" />
<path d="M 130.5 161.5 L 130.5 160.0 L 130.5 159.5 L 130.0 161.0 L 129.0 165.0 L 127.0 171.0 L 123.5 179.0 L 119.5 185.0 L 116.5 187.5 L 116.0 187.5 " stroke="black" fill="none" stroke-width="7.0" stroke-linecap="round" stroke-linejoin="round" />
<path d="M 134.0 162.0 L 136.0 163.0 L 141.0 166.0 L 146.0 171.0 L 149.0 176.5 L 152.5 181.0 L 153.0 182.0 " stroke="black" fill="none" stroke-width="7.0" stroke-linecap="round" stroke-linejoin="round" />
<path d="M 164.5 131.5 L 162.5 132.5 L 160.5 133.0 L 160.0 134.0 L 161.5 134.0 L 166.0 133.0 L 171.0 130.0 L 176.5 126.5 L 181.0 124.0 L 182.0 123.5 " stroke="black" fill="none" stroke-width="7.0" stroke-linecap="round" stroke-linejoin="round" />
<path d="M 166.0 121.0 L 165.5 122.5 L 164.5 126.0 L 164.5 132.5 L 164.5 141.0 L 165.5 147.0 L 167.5 149.0 L 168.0 149.0 " stroke="black" fill="none" stroke-width="7.0" stroke-linecap="round" stroke-linejoin="round" />
<path d="M 176.5 116.0 L 176.5 115.5 L 176.5 115.5 L 177.0 119.0 L 176.5 128.0 L 175.5 140.0 L 175.0 146.5 L 175.0 148.0 " stroke="black" fill="none" stroke-width="7.0" stroke-linecap="round" stroke-linejoin="round" />
<path d="M 152.0 154.0 L 151.5 154.0 L 150.0 154.5 L 149.5 155.0 L 150.0 155.0 L 153.0 154.5 L 159.5 152.0 L 168.5 148.5 L 178.0 144.5 L 184.5 142.5 L 187.5 142.0 " stroke="black" fill="none" stroke-width="7.0" stroke-linecap="round" stroke-linejoin="round" />
<path d="M 156.5 165.0 L 156.5 165.0 L 156.5 165.0 L 156.5 166.5 L 156.5 170.5 L 158.0 178.5 L 158.5 186.5 L 159.5 191.0 L 160.0 192.0 L 160.0 191.5 " stroke="black" fill="none" stroke-width="7.0" stroke-linecap="round" stroke-linejoin="round" />
<path d="M 159.5 168.5 L 160.0 168.0 L 160.5 166.0 L 162.5 164.5 L 166.0 163.5 L 171.0 162.0 L 176.0 160.0 L 180.5 158.5 L 183.5 158.5 L 185.5 161.0 L 186.0 166.0 L 186.0 172.5 L 184.5 180.5 L 183.0 187.5 L 181.5 192.5 L 180.5 194.0 L 179.5 193.0 L 179.5 192.5 " stroke="black" fill="none" stroke-width="7.0" stroke-linecap="round" stroke-linejoin="round" />
<path d="M 165.5 176.0 L 165.0 176.0 L 163.5 176.0 L 163.5 176.0 L 165.5 176.0 L 168.5 175.5 L 171.5 175.0 L 173.5 175.0 " stroke="black" fill="none" stroke-width="7.0" stroke-linecap="round" stroke-linejoin="round" />
<path d="M 164.0 189.5 L 163.0 190.0 L 161.5 191.0 L 162.0 191.5 L 165.0 192.0 L 169.5 192.0 L 174.0 191.5 L 177.0 191.0 " stroke="black" fill="none" stroke-width="7.0" stroke-linecap="round" stroke-linejoin="round" />
</svg>