<svg xmlns="http://www.w3.org/2000/svg" width="300" height="300" viewBox="0 0 300 300">
<path d="M 129.5 100.5 L 129.5 99.0 L 129.5 97.5 L 129.5 96.5 L 129.5 96.5 L 129.5 99.0 L 129.0 104.0 L 127.5 112.5 L 125.0 121.5 L 121.5 128.5 L 118.5 132.5 L 117.5 134.0 L 117.5 134.5 L 119.5 134.5 L 123.5 132.5 L 127.5 129.5 L 130.5 127.0 L 133.5 125.0 L 136.0 123.0 L 137.0 122.0 L 137.0 121.5 L 136.5 121.5 L 136.0 121.5 L 135.5 122.5 L 135.0 124.5 L 133.5 128.0 L 131.5 134.0 L 128.0 142.5 L 123.0 151.5 L 118.0 159.0 L 114.0 163.0 L 113.0 164.5 L 112.5 165.0 L 113.0 165.0 L 116.0 163.5 L 120.5 161.0 L 125.5 158.0 L 129.5 154.5 L 134.0 151.5 L 137.5 149.0 L 140.0 147.0 L 141.5 145.0 L 142.0 143.5 L 142.0 142.5 L 141.5 142.5 L 141.5 144.5 L 143.0 148.0 L 144.5 154.0 L 146.0 160.5 L 146.0 162.5 " stroke="black" fill="none" stroke-width="7.0" stroke-linecap="round" stroke-linejoin="round" />
<path d="M 103.0 184.5 L 102.5 184.5 L 102.0 184.5 L 102.0 185.5 L 103.5 188.0 L 106.0 190.5 L 108.0 192.5 " stroke="black" fill="none" stroke-width="7.0" stroke-linecap="round" stroke-linejoin="round" />
<path d="M 118.0 178.0 L 117.5 178.0 L 116.5 178.0 L 116.5 178.5 L 118.0 180.5 L 121.0 183.5 L 124.0 186.5 L 125.0 188.0 " stroke="black" fill="none" stroke-width="7.0" stroke-linecap="round" stroke-linejoin="round" />
<path d="M 130.5 169.5 L 130.5 169.0 L 130.5 169.0 L 131.5 170.0 L 134.0 175.5 L 137.0 183.0 L 139.5 190.5 L 139.5 191.5 " stroke="black" fill="none" stroke-width="7.0" stroke-linecap="round" stroke-linejoin="round" />
<path d="M 159.5 121.5 L 159.5 121.5 L 159.0 121.5 L 158.5 121.5 L 157.5 122.0 L 157.0 122.0 L 156.0 122.5 L 155.0 122.5 L 154.0 123.0 L 154.0 123.0 L 154.5 123.0 L 159.5 122.5 L 168.0 120.0 L 177.5 116.5 L 185.5 114.0 L 189.0 113.0 L 189.5 113.0 " stroke="black" fill="none" stroke-width="7.0" stroke-linecap="round" stroke-linejoin="round" />
<path d="M 171.5 100.0 L 171.0 100.5 L 170.5 101.0 L 170.0 105.5 L 170.5 115.5 L 171.5 127.0 L 171.5 135.5 L 171.5 140.5 " stroke="black" fill="none" stroke-width="7.0" stroke-linecap="round" stroke-linejoin="round" />
<path d="M 160.0 146.5 L 158.0 147.0 L 156.5 147.0 L 156.5 147.5 L 158.5 147.5 L 163.5 146.5 L 170.0 144.5 L 176.0 142.5 L 181.0 141.0 L 182.0 142.0 " stroke="black" fill="none" stroke-width="7.0" stroke-linecap="round" stroke-linejoin="round" />
<path d="M 155.5 171.0 L 155.5 171.5 L 155.0 172.5 L 155.0 174.0 L 155.5 177.0 L 157.5 181.0 L 159.5 185.0 L 161.5 188.0 L 162.5 189.0 " stroke="black" fill="none" stroke-width="7.0" stroke-linecap="round" stroke-linejoin="round" />
<path d="M 158.5 175.0 L 159.0 174.5 L 159.0 172.5 L 160.5 171.0 L 164.5 170.0 L 169.5 168.5 L 175.5 166.5 L 181.0 164.5 L 186.0 164.0 L 188.5 164.5 L 188.5 167.0 L 186.0 171.5 L 182.0 177.5 L 177.5 182.5 L 173.0 186.5 L 170.5 188.0 L 169.5 188.0 L 169.5 188.0 L 171.0 186.5 L 174.5 184.5 L 179.0 182.5 L 184.0 181.5 " stroke="black" fill="none" stroke-width="7.0" stroke-linecap="round" stroke-linejoin="round" />
</svg>