<svg xmlns="http://www.w3.org/2000/svg" width="300" height="300" viewBox="0 0 300 300">
<path d="M 128.5 98.0 L 128.5 97.5 L 128.5 97.0 L 128.5 97.0 L 128.5 97.0 L 128.5 99.5 L 128.0 104.0 L 126.5 112.5 L 123.5 122.0 L 120.0 129.0 L 117.0 133.5 L 116.5 135.5 L 116.5 135.5 L 119.5 134.5 L 123.5 131.0 L 127.0 128.0 L 130.5 125.0 L 131.5 124.5 " stroke="black" fill="none" stroke-width="7.0" stroke-linecap="round" stroke-linejoin="round" />
<path d="M 137.0 118.0 L 136.0 118.5 L 135.0 119.5 L 134.0 120.5 L 133.5 123.0 L 132.5 127.5 L 130.5 135.0 L 127.0 144.0 L 123.0 152.0 L 118.0 158.0 L 114.0 162.0 L 112.0 164.5 L 111.5 165.0 L 111.5 165.0 L 113.5 164.0 L 117.0 161.5 L 121.0 159.0 L 125.5 156.0 L 129.5 153.0 L 134.0 150.5 L 137.0 148.5 " stroke="black" fill="none" stroke-width="7.0" stroke-linecap="round" stroke-linejoin="round" />
<path d="M 140.5 144.0 L 140.5 144.5 L 140.0 146.0 L 140.5 148.5 L 142.0 154.0 L 144.0 161.5 L 144.5 164.5 " stroke="black" fill="none" stroke-width="7.0" stroke-linecap="round" stroke-linejoin="round" />
<path d="M 103.0 179.5 L 103.0 179.0 L 103.0 178.0 L 103.0 178.0 L 103.5 182.0 L 105.5 186.5 L 107.0 191.5 L 109.0 194.0 L 109.5 194.0 " stroke="black" fill="none" stroke-width="7.0" stroke-linecap="round" stroke-linejoin="round" />
<path d="M 119.0 176.0 L 118.5 177.0 L 118.5 178.5 L 120.0 182.0 L 122.0 186.5 L 125.0 189.5 L 126.5 191.0 " stroke="black" fill="none" stroke-width="7.0" stroke-linecap="round" stroke-linejoin="round" />
<path d="M 132.0 169.5 L 132.5 170.0 L 133.5 172.0 L 136.0 178.5 L 139.0 187.0 L 141.0 193.5 L 141.5 195.0 " stroke="black" fill="none" stroke-width="7.0" stroke-linecap="round" stroke-linejoin="round" />
<path d="M 167.0 96.0 L 167.0 95.0 L 167.0 94.0 L 167.0 93.5 L 167.0 94.0 L 167.0 97.5 L 165.0 105.0 L 159.5 117.5 L 152.0 130.5 L 147.5 138.0 " stroke="black" fill="none" stroke-width="7.0" stroke-linecap="round" stroke-linejoin="round" />
<path d="M 159.0 127.0 L 158.5 126.5 L 158.0 126.0 L 158.0 126.0 L 158.5 130.5 L 160.0 141.5 L 160.5 158.5 L 159.5 175.5 L 158.0 188.0 L 157.5 193.5 L 157.5 194.5 " stroke="black" fill="none" stroke-width="7.0" stroke-linecap="round" stroke-linejoin="round" />
<path d="M 179.0 104.0 L 178.0 104.0 L 177.0 104.5 L 176.5 105.0 L 177.5 105.0 L 180.0 105.5 L 182.5 106.0 L 183.0 106.0 " stroke="black" fill="none" stroke-width="7.0" stroke-linecap="round" stroke-linejoin="round" />
<path d="M 173.5 120.5 L 173.0 121.5 L 172.0 123.5 L 172.0 124.0 L 173.5 124.0 L 177.5 121.5 L 182.5 118.5 L 187.5 116.0 L 190.0 114.5 " stroke="black" fill="none" stroke-width="7.0" stroke-linecap="round" stroke-linejoin="round" />
<path d="M 173.0 138.0 L 171.5 140.0 L 171.5 140.5 L 174.0 139.5 L 178.5 136.0 L 184.0 132.0 L 188.5 129.0 L 189.5 128.5 " stroke="black" fill="none" stroke-width="7.0" stroke-linecap="round" stroke-linejoin="round" />
<path d="M 171.0 155.5 L 170.5 157.0 L 170.0 158.0 L 171.0 158.0 L 175.5 154.5 L 183.0 149.0 L 191.0 144.0 L 194.5 141.5 " stroke="black" fill="none" stroke-width="7.0" stroke-linecap="round" stroke-linejoin="round" />
<path d="M 185.0 125.0 L 185.0 125.5 L 183.5 127.5 L 183.5 132.5 L 183.5 142.0 L 183.5 152.5 L 183.5 162.0 L 183.0 167.5 " stroke="black" fill="none" stroke-width="7.0" stroke-linecap="round" stroke-linejoin="round" />
<path d="M 164.5 181.0 L 164.0 181.0 L 162.5 181.5 L 162.0 182.0 L 162.0 182.0 L 165.0 182.0 L 171.0 180.0 L 179.5 177.0 L 191.5 173.5 L 201.5 171.5 L 207.0 171.5 L 210.5 173.5 L 211.0 174.0 " stroke="black" fill="none" stroke-width="7.0" stroke-linecap="round" stroke-linejoin="round" />
</svg>