<svg xmlns="http://www.w3.org/2000/svg" width="300" height="300" viewBox="0 0 300 300">
<path d="M 128.0 96.5 L 128.0 96.5 L 128.0 95.5 L 128.0 94.5 L 128.0 94.0 L 128.0 95.0 L 128.0 97.5 L 127.0 102.0 L 126.0 108.0 L 123.0 116.0 L 119.0 123.0 L 116.0 126.5 L 115.0 128.0 L 115.5 128.0 L 117.5 126.5 L 121.0 124.0 L 125.0 121.5 L 128.0 119.5 " stroke="black" fill="none" stroke-width="7.0" stroke-linecap="round" stroke-linejoin="round" />
<path d="M 134.0 113.0 L 134.0 113.0 L 134.0 112.5 L 134.0 112.5 L 133.5 113.0 L 133.0 115.5 L 131.5 120.5 L 128.5 127.0 L 125.5 134.5 L 121.0 141.5 L 117.0 145.5 L 114.5 147.5 L 113.5 148.5 L 113.5 149.0 L 113.5 149.0 L 114.0 148.5 L 115.5 147.5 L 118.5 146.0 L 122.0 144.0 L 126.5 141.5 L 130.5 139.0 L 134.5 136.5 " stroke="black" fill="none" stroke-width="7.0" stroke-linecap="round" stroke-linejoin="round" />
<path d="M 138.5 131.0 L 138.5 131.5 L 139.0 132.5 L 140.0 135.0 L 141.5 139.0 L 142.5 144.5 L 142.5 147.5 " stroke="black" fill="none" stroke-width="7.0" stroke-linecap="round" stroke-linejoin="round" />
<path d="M 104.0 166.5 L 104.0 166.5 L 104.0 166.0 L 104.5 165.5 L 105.0 166.5 L 106.0 169.5 L 107.5 174.0 L 109.5 177.0 L 110.5 178.0 " stroke="black" fill="none" stroke-width="7.0" stroke-linecap="round" stroke-linejoin="round" />
<path d="M 117.5 162.5 L 118.0 162.5 L 119.0 162.0 L 120.5 163.0 L 122.0 166.5 L 123.5 170.5 L 125.0 174.0 L 126.5 176.0 " stroke="black" fill="none" stroke-width="7.0" stroke-linecap="round" stroke-linejoin="round" />
<path d="M 130.5 161.0 L 130.5 161.0 L 131.5 160.5 L 132.5 160.5 L 134.0 164.5 L 136.0 171.0 L 137.0 176.5 " stroke="black" fill="none" stroke-width="7.0" stroke-linecap="round" stroke-linejoin="round" />
<path d="M 163.0 94.0 L 163.5 92.5 L 164.0 91.5 L 164.5 91.0 L 164.5 93.0 L 163.5 97.0 L 161.5 103.0 L 158.0 110.0 L 155.0 116.5 L 153.5 119.5 L 153.5 119.5 L 155.5 119.0 L 158.5 117.5 L 162.0 115.5 L 165.5 113.0 L 168.5 110.5 L 170.5 109.5 L 171.0 109.5 L 170.0 111.0 L 168.0 114.0 L 165.5 117.0 L 163.5 120.5 L 161.0 124.5 L 158.5 128.5 L 156.0 134.0 L 153.5 138.5 L 152.0 141.0 L 151.0 142.0 L 151.0 142.0 L 151.0 142.0 L 152.5 141.0 L 156.0 138.5 L 160.5 135.5 L 166.5 131.5 L 172.0 127.5 L 175.0 126.0 L 176.0 126.0 " stroke="black" fill="none" stroke-width="7.0" stroke-linecap="round" stroke-linejoin="round" />
<path d="M 168.0 141.5 L 168.0 141.0 L 167.5 140.5 L 167.0 140.5 L 166.5 140.5 L 166.5 141.0 L 166.5 145.0 L 168.0 153.5 L 169.0 165.0 L 169.5 177.5 L 169.5 187.0 L 169.0 192.0 L 168.0 194.5 L 166.5 194.5 L 164.5 192.5 L 161.0 188.0 L 157.0 182.0 L 155.5 179.0 " stroke="black" fill="none" stroke-width="7.0" stroke-linecap="round" stroke-linejoin="round" />
<path d="M 152.5 153.0 L 152.0 155.0 L 151.5 158.0 L 151.0 164.0 L 150.0 171.5 L 148.0 178.5 L 148.0 180.5 " stroke="black" fill="none" stroke-width="7.0" stroke-linecap="round" stroke-linejoin="round" />
<path d="M 180.0 152.5 L 181.0 155.5 L 184.0 160.5 L 187.0 167.0 L 189.0 172.5 L 190.5 176.5 " stroke="black" fill="none" stroke-width="7.0" stroke-linecap="round" stroke-linejoin="round" />
<path d="M 177.0 119.0 L 177.0 119.5 L 177.5 121.0 L 178.5 125.0 L 181.0 132.0 L 182.5 135.5 " stroke="black" fill="none" stroke-width="7.0" stroke-linecap="round" stroke-linejoin="round" />
</svg>