<svg xmlns="http://www.w3.org/2000/svg" width="300" height="300" viewBox="0 0 300 300">
<path d="M 132.5 101.0 L 132.5 101.0 L 131.5 101.0 L 131.5 101.5 L 131.0 105.0 L 129.5 113.0 L 127.0 123.5 L 123.5 132.5 L 119.5 140.0 L 117.0 143.0 L 116.5 143.0 L 117.5 143.0 L 120.5 141.5 L 124.0 139.5 L 127.5 137.0 L 130.5 134.0 L 133.5 131.5 " stroke="black" fill="none" stroke-width="7.0" stroke-linecap="round" stroke-linejoin="round" />
<path d="M 137.5 124.0 L 137.0 124.5 L 136.5 125.5 L 136.0 127.0 L 135.0 131.0 L 133.5 137.0 L 130.5 145.0 L 127.0 153.0 L 123.5 160.0 L 120.0 164.5 L 116.5 167.0 L 115.0 168.0 L 114.5 168.5 L 115.0 168.5 L 117.0 166.5 L 120.5 164.5 L 124.5 162.0 L 128.5 159.5 L 133.0 156.5 L 137.0 153.5 L 140.5 151.5 " stroke="black" fill="none" stroke-width="7.0" stroke-linecap="round" stroke-linejoin="round" />
<path d="M 144.0 147.5 L 143.0 148.0 L 143.0 149.0 L 144.0 152.5 L 145.5 158.5 L 146.5 163.5 L 147.0 165.5 " stroke="black" fill="none" stroke-width="7.0" stroke-linecap="round" stroke-linejoin="round" />
<path d="M 103.5 187.0 L 103.0 187.0 L 103.0 187.0 L 103.0 188.0 L 104.0 192.0 L 106.5 197.5 L 109.0 201.5 L 110.5 203.0 " stroke="black" fill="none" stroke-width="7.0" stroke-linecap="round" stroke-linejoin="round" />
<path d="M 119.0 179.5 L 119.5 179.5 L 120.0 180.0 L 121.0 182.5 L 123.0 188.0 L 124.5 194.5 L 126.0 199.5 L 127.5 201.0 " stroke="black" fill="none" stroke-width="7.0" stroke-linecap="round" stroke-linejoin="round" />
<path d="M 133.0 177.5 L 133.5 177.5 L 134.5 178.0 L 137.0 182.5 L 140.0 190.0 L 142.0 198.0 " stroke="black" fill="none" stroke-width="7.0" stroke-linecap="round" stroke-linejoin="round" />
<path d="M 172.5 94.5 L 172.5 94.5 L 172.5 94.0 L 172.0 94.0 L 172.0 97.5 L 170.0 105.0 L 166.5 117.0 L 161.5 126.0 L 158.0 129.5 " stroke="black" fill="none" stroke-width="7.0" stroke-linecap="round" stroke-linejoin="round" />
<path d="M 173.5 117.0 L 173.5 117.0 L 173.5 117.0 L 173.5 117.0 L 173.5 117.0 L 174.5 116.5 L 177.0 116.0 L 180.5 114.5 L 183.5 113.5 L 185.0 113.5 L 185.0 115.5 L 183.5 120.5 L 180.5 128.0 L 176.0 138.0 L 171.0 149.5 L 165.0 160.0 L 158.0 167.0 L 153.0 170.5 L 151.0 171.5 L 151.0 171.5 " stroke="black" fill="none" stroke-width="7.0" stroke-linecap="round" stroke-linejoin="round" />
<path d="M 162.0 136.0 L 162.0 134.5 L 162.0 133.0 L 163.5 133.0 L 167.5 136.0 L 173.5 141.5 L 181.5 148.0 L 191.0 153.0 L 196.5 155.5 L 200.5 156.0 L 202.5 157.0 " stroke="black" fill="none" stroke-width="7.0" stroke-linecap="round" stroke-linejoin="round" />
<path d="M 174.0 167.0 L 173.5 167.0 L 173.0 167.5 L 174.0 169.0 L 177.5 171.0 L 182.5 172.5 L 186.5 175.0 " stroke="black" fill="none" stroke-width="7.0" stroke-linecap="round" stroke-linejoin="round" />
<path d="M 165.5 187.5 L 165.0 188.0 L 164.5 188.0 L 166.0 189.0 L 170.0 191.0 L 175.5 193.0 L 181.0 195.5 L 184.0 197.0 " stroke="black" fill="none" stroke-width="7.0" stroke-linecap="round" stroke-linejoin="round" />
</svg>