<svg xmlns="http://www.w3.org/2000/svg" width="300" height="300" viewBox="0 0 300 300">
<path d="M 130.0 99.0 L 130.0 98.0 L 130.5 96.5 L 130.5 96.0 L 130.5 97.0 L 130.0 100.5 L 129.0 107.0 L 126.5 117.0 L 122.5 128.0 L 117.5 137.5 L 114.0 143.5 L 113.0 145.5 L 113.0 146.0 L 113.5 146.0 L 116.0 145.0 L 119.5 143.5 L 123.5 141.0 L 127.5 138.5 L 131.0 135.5 L 133.5 133.0 L 134.5 132.5 L 133.5 134.0 L 131.0 138.0 L 128.0 143.5 L 125.5 149.0 L 122.5 154.5 L 119.5 160.5 L 117.0 165.0 L 114.5 168.5 L 112.5 170.5 L 112.0 171.0 L 112.0 171.5 L 112.5 171.0 L 115.0 169.5 L 118.5 167.0 L 123.0 164.5 L 127.0 161.5 L 131.0 159.5 L 135.0 157.5 L 138.0 157.0 L 140.5 157.0 L 141.5 157.5 " stroke="black" fill="none" stroke-width="7.0" stroke-linecap="round" stroke-linejoin="round" />
<path d="M 142.5 151.5 L 142.5 151.5 L 142.5 151.5 L 142.5 153.5 L 143.5 157.5 L 144.5 164.0 L 144.5 165.5 " stroke="black" fill="none" stroke-width="7.0" stroke-linecap="round" stroke-linejoin="round" />
<path d="M 103.0 186.0 L 103.0 186.0 L 103.0 186.0 L 103.0 186.0 L 104.0 187.0 L 106.0 191.0 L 108.0 195.0 L 109.5 197.5 " stroke="black" fill="none" stroke-width="7.0" stroke-linecap="round" stroke-linejoin="round" />
<path d="M 118.0 182.5 L 118.0 182.5 L 118.5 182.5 L 119.5 184.5 L 121.0 188.5 L 123.5 192.5 L 125.5 195.0 L 126.5 195.5 " stroke="black" fill="none" stroke-width="7.0" stroke-linecap="round" stroke-linejoin="round" />
<path d="M 135.5 172.5 L 135.0 172.5 L 135.0 172.5 L 136.5 174.5 L 140.0 181.0 L 143.5 190.0 L 145.5 196.0 " stroke="black" fill="none" stroke-width="7.0" stroke-linecap="round" stroke-linejoin="round" />
<path d="M 163.0 95.5 L 163.0 95.5 L 163.0 95.0 L 163.0 95.0 L 162.5 97.0 L 161.5 102.5 L 159.5 111.5 L 157.0 118.5 L 156.0 122.0 L 156.0 122.5 L 159.0 122.5 L 163.0 121.0 L 167.5 119.5 L 171.5 119.0 L 174.5 118.5 L 175.0 118.5 " stroke="black" fill="none" stroke-width="7.0" stroke-linecap="round" stroke-linejoin="round" />
<path d="M 166.0 106.5 L 165.5 107.0 L 164.5 107.5 L 164.5 107.5 L 167.5 107.5 L 172.5 106.5 L 177.5 104.5 L 183.0 103.5 L 187.0 103.0 L 188.0 103.5 L 187.0 107.0 L 184.0 112.5 L 180.0 118.5 L 176.5 124.0 L 175.0 126.5 " stroke="black" fill="none" stroke-width="7.0" stroke-linecap="round" stroke-linejoin="round" />
<path d="M 151.0 140.0 L 150.0 140.5 L 149.0 141.0 L 149.0 141.0 L 152.0 140.0 L 158.0 137.5 L 168.5 133.5 L 180.5 128.5 L 190.0 125.5 L 194.5 124.5 L 195.5 124.0 L 195.5 124.0 " stroke="black" fill="none" stroke-width="7.0" stroke-linecap="round" stroke-linejoin="round" />
<path d="M 174.0 134.5 L 174.0 134.5 L 174.0 134.5 L 173.5 135.5 L 172.0 139.5 L 169.0 147.0 L 162.5 157.0 L 155.5 164.5 L 151.5 167.5 L 150.5 168.0 L 150.5 168.0 " stroke="black" fill="none" stroke-width="7.0" stroke-linecap="round" stroke-linejoin="round" />
<path d="M 175.0 147.5 L 175.0 147.0 L 174.5 146.5 L 174.5 146.0 L 174.0 145.5 L 174.0 145.0 L 175.0 145.0 L 177.5 146.0 L 181.5 149.0 L 186.0 155.5 L 189.5 164.5 L 190.5 174.5 L 189.5 185.0 L 187.0 193.0 L 184.0 199.0 L 180.0 202.5 L 176.5 203.0 L 174.0 200.0 L 173.5 199.0 " stroke="black" fill="none" stroke-width="7.0" stroke-linecap="round" stroke-linejoin="round" />
<path d="M 175.0 156.5 L 175.0 156.5 L 174.5 156.0 L 174.5 156.0 L 173.5 159.0 L 171.0 164.5 L 165.5 174.0 L 158.0 183.0 L 153.5 187.0 " stroke="black" fill="none" stroke-width="7.0" stroke-linecap="round" stroke-linejoin="round" />
<path d="M 181.5 165.0 L 181.0 167.5 L 178.5 171.5 L 174.5 179.0 L 169.5 187.0 L 164.5 193.0 L 163.5 194.0 " stroke="black" fill="none" stroke-width="7.0" stroke-linecap="round" stroke-linejoin="round" />
<path d="M 198.5 148.5 L 198.5 148.5 L 198.5 148.5 L 198.5 149.0 L 198.0 151.0 L 196.5 154.0 L 194.5 157.5 L 193.0 160.0 L 191.5 161.5 L 191.5 162.0 L 191.5 163.0 L 193.0 165.0 L 194.5 168.0 L 197.0 172.5 L 201.0 179.5 L 206.0 185.5 L 211.0 190.0 L 215.0 193.0 L 217.0 195.0 " stroke="black" fill="none" stroke-width="7.0" stroke-linecap="round" stroke-linejoin="round" />
</svg>