<svg xmlns="http://www.w3.org/2000/svg" width="300" height="300" viewBox="0 0 300 300">
<path d="M 141.5 95.0 L 141.5 95.0 L 141.5 94.0 L 141.5 93.5 L 143.0 93.5 L 145.5 95.0 L 149.0 96.0 " stroke="black" fill="none" stroke-width="7.0" stroke-linecap="round" stroke-linejoin="round" />
<path d="M 158.5 81.0 L 158.5 81.0 L 158.5 80.0 L 158.5 80.0 L 158.5 80.5 L 157.5 84.0 L 154.0 91.5 L 149.5 101.0 L 145.5 107.0 " stroke="black" fill="none" stroke-width="7.0" stroke-linecap="round" stroke-linejoin="round" />
<path d="M 129.0 122.0 L 128.5 122.0 L 128.0 122.0 L 127.5 122.0 L 129.0 121.0 L 133.5 119.0 L 141.5 115.5 L 151.0 110.0 L 157.5 106.0 L 161.5 104.0 L 162.0 104.0 " stroke="black" fill="none" stroke-width="7.0" stroke-linecap="round" stroke-linejoin="round" />
<path d="M 134.5 134.0 L 133.0 136.0 L 132.5 136.5 L 134.5 137.0 L 140.0 135.5 L 147.5 131.0 L 154.5 126.5 L 159.5 123.0 L 161.5 122.5 " stroke="black" fill="none" stroke-width="7.0" stroke-linecap="round" stroke-linejoin="round" />
<path d="M 150.5 116.0 L 150.5 117.5 L 150.0 121.5 L 150.0 129.0 L 150.0 138.5 L 149.5 147.0 " stroke="black" fill="none" stroke-width="7.0" stroke-linecap="round" stroke-linejoin="round" />
<path d="M 128.5 159.0 L 126.0 160.5 L 124.0 161.0 L 124.0 161.0 L 125.5 161.0 L 129.5 158.5 L 136.5 155.0 L 146.5 151.5 L 157.0 148.5 L 165.5 147.5 L 169.5 147.0 " stroke="black" fill="none" stroke-width="7.0" stroke-linecap="round" stroke-linejoin="round" />
<path d="M 119.5 181.0 L 118.5 181.0 L 117.5 181.0 L 116.5 181.5 L 116.0 181.5 L 116.5 182.0 L 120.5 181.5 L 127.5 180.0 L 139.5 175.5 L 153.0 169.5 L 163.5 165.5 L 171.0 163.0 L 174.5 162.0 L 175.5 162.0 " stroke="black" fill="none" stroke-width="7.0" stroke-linecap="round" stroke-linejoin="round" />
<path d="M 151.0 152.5 L 150.0 152.5 L 149.5 154.0 L 149.5 158.5 L 149.5 166.0 L 147.0 176.5 L 141.5 188.0 L 133.5 197.0 L 127.0 203.0 L 123.0 205.0 L 122.5 205.0 " stroke="black" fill="none" stroke-width="7.0" stroke-linecap="round" stroke-linejoin="round" />
<path d="M 148.0 176.0 L 148.0 176.5 L 149.0 177.5 L 152.0 181.5 L 158.0 188.0 L 165.5 194.0 L 171.5 199.0 L 174.5 202.5 L 175.0 203.0 " stroke="black" fill="none" stroke-width="7.0" stroke-linecap="round" stroke-linejoin="round" />
</svg>