<svg xmlns="http://www.w3.org/2000/svg" width="300" height="300" viewBox="0 0 300 300">
<path d="M 123.5 108.0 L 123.5 108.0 L 122.5 108.5 L 122.5 109.0 L 123.5 111.0 L 126.0 113.0 L 127.0 113.5 " stroke="black" fill="none" stroke-width="7.0" stroke-linecap="round" stroke-linejoin="round" />
<path d="M 136.0 101.0 L 136.0 101.0 L 135.5 101.5 L 135.0 103.5 L 134.0 107.5 L 132.0 113.5 L 129.5 119.5 L 128.5 121.0 " stroke="black" fill="none" stroke-width="7.0" stroke-linecap="round" stroke-linejoin="round" />
<path d="M 118.5 129.5 L 118.0 130.0 L 116.5 130.5 L 117.0 130.5 L 119.5 129.5 L 124.5 127.0 L 129.5 123.5 L 135.0 120.0 L 140.0 117.5 L 141.5 117.5 L 140.0 119.0 " stroke="black" fill="none" stroke-width="7.0" stroke-linecap="round" stroke-linejoin="round" />
<path d="M 117.5 144.0 L 116.5 144.5 L 114.5 146.5 L 115.0 147.0 L 117.0 146.5 L 122.0 144.0 L 129.0 139.0 L 134.0 134.5 L 136.0 132.5 L 136.5 132.5 " stroke="black" fill="none" stroke-width="7.0" stroke-linecap="round" stroke-linejoin="round" />
<path d="M 113.0 160.0 L 110.5 162.5 L 109.5 163.0 L 112.0 162.5 L 119.0 159.5 L 126.5 154.5 L 134.0 149.5 L 140.0 145.5 L 144.0 143.0 L 144.5 142.5 " stroke="black" fill="none" stroke-width="7.0" stroke-linecap="round" stroke-linejoin="round" />
<path d="M 130.5 127.0 L 130.5 128.0 L 130.0 129.5 L 130.0 135.5 L 129.5 146.0 L 128.0 156.5 L 123.0 173.5 L 117.0 184.0 L 114.0 187.0 " stroke="black" fill="none" stroke-width="7.0" stroke-linecap="round" stroke-linejoin="round" />
<path d="M 156.0 111.0 L 155.5 111.0 L 155.5 111.0 L 158.0 109.5 L 162.0 107.5 L 166.5 106.0 L 169.5 105.0 L 170.5 105.0 L 170.5 106.0 L 170.5 108.5 L 169.5 113.5 L 169.5 121.0 L 169.5 131.5 L 169.5 145.0 L 169.5 159.5 L 169.5 170.0 L 169.5 177.5 L 169.0 183.0 L 167.5 184.5 L 164.0 184.5 L 159.5 181.0 L 156.0 175.0 L 154.5 168.5 " stroke="black" fill="none" stroke-width="7.0" stroke-linecap="round" stroke-linejoin="round" />
<path d="M 154.5 137.5 L 153.5 138.0 L 152.5 138.5 L 152.5 139.0 L 154.0 139.5 L 156.5 139.5 L 157.5 139.5 " stroke="black" fill="none" stroke-width="7.0" stroke-linecap="round" stroke-linejoin="round" />
<path d="M 152.5 154.0 L 151.5 155.0 L 149.5 158.0 L 149.5 158.5 L 151.0 157.0 L 155.5 152.5 L 162.0 146.5 L 163.5 145.0 " stroke="black" fill="none" stroke-width="7.0" stroke-linecap="round" stroke-linejoin="round" />
<path d="M 183.5 111.0 L 183.5 111.0 L 183.0 111.0 L 184.0 110.5 L 186.0 109.0 L 190.5 107.0 L 193.0 106.0 L 194.5 105.5 L 195.0 106.5 L 195.0 110.0 L 194.5 115.0 L 194.5 123.0 L 194.5 134.0 L 194.5 147.5 L 195.0 161.0 L 195.0 172.5 L 194.0 181.5 L 193.0 187.0 L 192.0 189.0 L 190.0 189.5 L 187.0 187.5 L 184.5 183.0 L 183.0 176.0 L 182.5 173.5 " stroke="black" fill="none" stroke-width="7.0" stroke-linecap="round" stroke-linejoin="round" />
<path d="M 180.5 136.5 L 179.5 136.5 L 178.5 136.5 L 179.5 136.0 L 182.0 136.0 L 184.5 136.0 " stroke="black" fill="none" stroke-width="7.0" stroke-linecap="round" stroke-linejoin="round" />
<path d="M 180.0 154.0 L 179.0 155.5 L 178.0 157.0 L 180.0 156.0 L 184.5 152.5 L 190.5 146.5 L 191.5 145.0 " stroke="black" fill="none" stroke-width="7.0" stroke-linecap="round" stroke-linejoin="round" />
</svg>