<svg xmlns="http://www.w3.org/2000/svg" width="300" height="300" viewBox="0 0 300 300">
<path d="M 137.5 89.0 L 137.5 89.0 L 136.5 88.5 L 138.0 88.0 L 142.0 88.0 L 147.0 88.5 L 149.0 88.5 " stroke="black" fill="none" stroke-width="7.0" stroke-linecap="round" stroke-linejoin="round" />
<path d="M 160.5 76.0 L 160.5 76.0 L 160.0 77.0 L 159.0 79.5 L 156.5 84.5 L 153.0 91.0 L 151.0 94.0 " stroke="black" fill="none" stroke-width="7.0" stroke-linecap="round" stroke-linejoin="round" />
<path d="M 133.5 104.5 L 132.0 104.5 L 130.5 105.0 L 130.0 105.0 L 131.5 105.0 L 136.0 104.0 L 143.5 101.0 L 152.0 97.0 L 161.0 92.0 L 166.5 89.5 L 168.0 90.0 " stroke="black" fill="none" stroke-width="7.0" stroke-linecap="round" stroke-linejoin="round" />
<path d="M 137.0 121.5 L 134.0 123.0 L 134.0 123.5 L 136.0 123.0 L 141.5 120.5 L 147.5 117.5 L 153.5 114.0 L 158.0 111.5 L 160.5 110.0 " stroke="black" fill="none" stroke-width="7.0" stroke-linecap="round" stroke-linejoin="round" />
<path d="M 152.0 102.5 L 152.0 104.0 L 151.5 108.0 L 151.5 115.5 L 151.5 123.5 L 151.5 128.5 " stroke="black" fill="none" stroke-width="7.0" stroke-linecap="round" stroke-linejoin="round" />
<path d="M 124.5 141.5 L 124.0 142.0 L 121.5 142.5 L 121.5 142.5 L 123.0 142.5 L 127.5 141.5 L 134.5 139.0 L 145.5 135.5 L 158.0 131.5 L 169.0 129.0 L 174.5 128.5 L 176.0 128.5 " stroke="black" fill="none" stroke-width="7.0" stroke-linecap="round" stroke-linejoin="round" />
<path d="M 143.0 146.5 L 143.5 145.5 L 144.0 144.0 L 144.0 144.5 L 141.5 147.5 L 136.5 153.5 L 130.5 160.5 L 127.5 163.5 " stroke="black" fill="none" stroke-width="7.0" stroke-linecap="round" stroke-linejoin="round" />
<path d="M 116.0 181.5 L 114.5 182.0 L 113.5 182.5 L 113.5 182.5 L 116.0 182.5 L 121.0 182.0 L 128.0 179.0 L 138.5 173.5 L 151.0 165.5 L 160.5 160.0 L 167.5 156.5 L 169.5 155.5 " stroke="black" fill="none" stroke-width="7.0" stroke-linecap="round" stroke-linejoin="round" />
<path d="M 137.5 158.5 L 136.5 160.0 L 136.0 163.5 L 136.0 170.0 L 137.5 179.5 L 138.5 189.5 L 139.0 199.0 L 139.0 205.5 L 137.5 209.0 L 135.0 210.0 L 131.5 209.5 L 128.5 206.5 L 125.5 205.0 L 124.0 204.5 L 122.5 204.5 L 122.5 204.5 L 124.0 203.5 L 128.0 200.0 L 135.0 194.0 L 144.5 186.0 L 150.0 181.0 " stroke="black" fill="none" stroke-width="7.0" stroke-linecap="round" stroke-linejoin="round" />
<path d="M 152.0 138.5 L 152.0 138.5 L 152.0 138.0 L 152.0 138.0 L 153.0 140.5 L 156.5 149.0 L 162.0 164.5 L 167.5 181.5 L 171.0 192.5 L 174.0 200.5 L 177.0 206.0 L 179.5 207.5 L 181.5 207.0 L 182.5 203.5 L 182.5 196.5 L 182.0 190.0 " stroke="black" fill="none" stroke-width="7.0" stroke-linecap="round" stroke-linejoin="round" />
<path d="M 178.5 166.0 L 178.0 166.0 L 176.0 166.0 L 173.5 167.5 L 170.0 174.5 L 164.0 186.5 L 154.0 199.5 L 147.0 210.0 L 145.5 211.5 " stroke="black" fill="none" stroke-width="7.0" stroke-linecap="round" stroke-linejoin="round" />
<path d="M 173.0 137.5 L 173.0 139.0 L 174.0 142.5 L 177.5 149.0 L 181.0 155.0 " stroke="black" fill="none" stroke-width="7.0" stroke-linecap="round" stroke-linejoin="round" />
</svg>