<svg xmlns="http://www.w3.org/2000/svg" width="300" height="300" viewBox="0 0 300 300">
<path d="M 128.0 94.5 L 127.0 94.5 L 126.5 94.5 L 126.5 95.0 L 129.0 94.5 L 133.5 92.5 L 139.0 90.5 L 143.5 88.5 L 146.5 88.0 L 147.0 89.0 L 146.5 91.5 L 146.0 95.0 L 145.5 101.0 L 145.5 109.0 L 145.5 119.0 L 145.5 128.0 L 144.5 134.5 L 143.0 139.0 L 140.5 140.5 L 137.0 140.0 L 133.5 137.0 L 130.5 132.0 L 129.5 129.0 " stroke="black" fill="none" stroke-width="7.0" stroke-linecap="round" stroke-linejoin="round" />
<path d="M 125.0 109.5 L 124.0 110.0 L 122.5 110.5 L 122.5 111.0 L 124.5 111.0 L 128.0 110.0 L 129.5 109.5 " stroke="black" fill="none" stroke-width="7.0" stroke-linecap="round" stroke-linejoin="round" />
<path d="M 123.5 126.0 L 122.5 127.0 L 119.5 129.5 L 119.5 129.5 L 123.0 127.5 L 128.5 122.5 L 134.5 116.5 " stroke="black" fill="none" stroke-width="7.0" stroke-linecap="round" stroke-linejoin="round" />
<path d="M 164.0 94.0 L 162.0 94.5 L 161.0 95.0 L 162.5 95.0 L 166.0 94.0 L 170.5 91.5 L 174.5 89.0 L 178.0 88.0 L 179.5 88.0 L 180.0 90.0 L 179.5 93.0 L 179.0 96.5 L 178.5 102.0 L 179.0 109.5 L 179.0 119.0 L 179.5 128.0 L 178.5 136.0 L 177.5 141.0 L 176.0 143.0 L 174.0 143.0 L 172.0 140.5 L 170.0 136.0 L 167.5 129.0 " stroke="black" fill="none" stroke-width="7.0" stroke-linecap="round" stroke-linejoin="round" />
<path d="M 160.5 110.0 L 160.0 110.0 L 158.5 110.5 L 158.5 111.0 L 161.0 111.0 L 165.0 110.5 L 166.5 110.5 " stroke="black" fill="none" stroke-width="7.0" stroke-linecap="round" stroke-linejoin="round" />
<path d="M 160.0 121.0 L 157.5 123.0 L 156.5 124.0 L 158.5 124.0 L 163.5 122.5 L 169.0 120.0 L 170.5 119.5 " stroke="black" fill="none" stroke-width="7.0" stroke-linecap="round" stroke-linejoin="round" />
<path d="M 153.5 145.5 L 154.0 145.0 L 154.5 144.5 L 154.5 144.0 L 153.5 145.0 L 150.0 148.5 L 144.0 154.5 L 136.5 161.0 " stroke="black" fill="none" stroke-width="7.0" stroke-linecap="round" stroke-linejoin="round" />
<path d="M 124.0 167.5 L 123.5 167.5 L 122.5 167.5 L 122.5 167.5 L 122.5 168.5 L 123.5 172.5 L 125.5 181.0 L 127.0 190.0 L 128.0 196.0 L 129.0 199.0 L 129.5 199.0 " stroke="black" fill="none" stroke-width="7.0" stroke-linecap="round" stroke-linejoin="round" />
<path d="M 132.0 168.5 L 132.0 168.5 L 132.0 168.0 L 132.5 167.5 L 136.0 166.5 L 144.5 164.0 L 155.0 160.5 L 165.5 158.0 L 171.0 157.5 L 174.5 158.5 L 176.5 160.5 L 178.5 163.5 L 179.0 166.5 L 179.0 171.5 L 177.5 178.0 L 175.0 184.5 L 173.0 189.0 L 171.5 191.0 L 169.5 191.5 L 168.5 191.5 " stroke="black" fill="none" stroke-width="7.0" stroke-linecap="round" stroke-linejoin="round" />
<path d="M 140.5 180.5 L 140.0 180.5 L 139.0 181.0 L 139.0 181.0 L 142.5 180.5 L 148.0 178.5 L 154.5 176.0 L 160.5 174.0 L 163.5 174.0 " stroke="black" fill="none" stroke-width="7.0" stroke-linecap="round" stroke-linejoin="round" />
<path d="M 137.0 194.0 L 135.0 195.5 L 133.0 196.5 L 134.0 196.5 L 138.5 196.5 L 146.0 194.5 L 154.0 192.0 L 163.0 190.0 " stroke="black" fill="none" stroke-width="7.0" stroke-linecap="round" stroke-linejoin="round" />
</svg>