<svg xmlns="http://www.w3.org/2000/svg" width="300" height="300" viewBox="0 0 300 300">
<path d="M 123.0 105.5 L 121.5 106.0 L 120.0 106.5 L 120.0 106.5 L 121.5 105.5 L 125.0 104.0 L 129.0 102.0 L 134.0 99.5 L 139.5 97.5 L 144.5 96.5 L 146.0 96.0 L 146.0 97.0 L 145.5 99.5 L 145.0 103.5 L 145.0 110.0 L 145.0 120.5 L 145.0 134.0 L 145.0 148.5 L 144.0 163.0 L 142.5 174.5 L 141.0 183.5 L 139.0 188.5 L 137.0 191.0 L 135.0 191.0 L 132.5 187.0 L 130.5 180.0 L 128.5 169.5 " stroke="black" fill="none" stroke-width="7.0" stroke-linecap="round" stroke-linejoin="round" />
<path d="M 121.5 135.0 L 120.5 136.0 L 119.5 136.5 L 119.5 137.0 L 121.5 137.5 L 125.0 137.0 L 127.5 137.0 " stroke="black" fill="none" stroke-width="7.0" stroke-linecap="round" stroke-linejoin="round" />
<path d="M 121.5 155.5 L 118.5 159.5 L 117.5 161.0 L 118.5 160.0 L 122.5 156.0 L 128.0 148.5 L 135.0 139.5 " stroke="black" fill="none" stroke-width="7.0" stroke-linecap="round" stroke-linejoin="round" />
<path d="M 162.5 103.0 L 162.0 103.0 L 161.5 103.5 L 162.0 103.5 L 165.0 102.0 L 169.0 100.5 L 172.5 98.5 L 176.0 96.5 L 178.0 96.0 L 179.0 96.0 L 179.5 97.5 L 179.5 101.5 L 179.5 108.0 L 180.0 119.5 L 180.5 135.5 L 181.5 151.5 L 181.5 165.5 L 181.0 176.5 L 180.0 185.5 L 178.5 190.5 L 177.0 192.5 L 175.0 192.5 L 172.5 189.5 L 170.0 184.0 L 168.0 177.5 " stroke="black" fill="none" stroke-width="7.0" stroke-linecap="round" stroke-linejoin="round" />
<path d="M 160.0 131.5 L 159.0 132.5 L 158.0 133.5 L 158.5 134.0 L 161.0 134.0 L 164.5 134.0 L 165.0 134.0 " stroke="black" fill="none" stroke-width="7.0" stroke-linecap="round" stroke-linejoin="round" />
<path d="M 159.0 155.5 L 158.5 156.0 L 157.5 157.5 L 160.0 154.5 L 164.5 149.0 L 170.0 142.5 L 175.0 136.0 L 176.0 134.0 " stroke="black" fill="none" stroke-width="7.0" stroke-linecap="round" stroke-linejoin="round" />
</svg>