<svg xmlns="http://www.w3.org/2000/svg" width="300" height="300" viewBox="0 0 300 300">
<path d="M 123.0 97.0 L 122.0 97.0 L 121.0 97.5 L 121.0 99.0 L 122.5 103.5 L 125.0 109.5 L 126.5 114.5 L 128.0 116.0 L 128.0 116.0 " stroke="black" fill="none" stroke-width="7.0" stroke-linecap="round" stroke-linejoin="round" />
<path d="M 125.5 97.0 L 125.5 96.0 L 125.5 95.0 L 126.0 94.0 L 129.0 93.5 L 136.5 93.5 L 148.0 92.0 L 160.0 88.5 L 170.5 86.5 L 176.0 86.0 L 178.5 86.5 L 180.5 89.0 L 180.5 93.0 L 178.0 99.0 L 175.0 104.0 L 172.0 109.0 L 170.0 112.5 " stroke="black" fill="none" stroke-width="7.0" stroke-linecap="round" stroke-linejoin="round" />
<path d="M 142.0 96.5 L 141.0 97.0 L 140.5 98.0 L 140.0 101.0 L 140.0 106.0 L 141.0 111.0 L 141.5 112.5 " stroke="black" fill="none" stroke-width="7.0" stroke-linecap="round" stroke-linejoin="round" />
<path d="M 152.5 93.5 L 153.5 94.5 L 154.0 96.5 L 154.5 100.5 L 154.5 105.0 L 153.0 110.0 " stroke="black" fill="none" stroke-width="7.0" stroke-linecap="round" stroke-linejoin="round" />
<path d="M 133.0 119.0 L 132.5 119.0 L 131.0 120.0 L 130.5 120.5 L 132.5 121.0 L 138.0 121.0 L 146.0 119.5 L 155.5 116.5 L 163.5 113.5 L 167.5 112.5 L 168.0 112.5 " stroke="black" fill="none" stroke-width="7.0" stroke-linecap="round" stroke-linejoin="round" />
<path d="M 140.5 122.5 L 140.0 122.5 L 139.5 123.0 L 140.5 126.5 L 142.5 135.0 L 143.0 146.5 L 141.5 160.5 L 138.5 172.5 L 135.5 180.5 L 132.5 185.5 L 130.0 188.0 " stroke="black" fill="none" stroke-width="7.0" stroke-linecap="round" stroke-linejoin="round" />
<path d="M 123.0 142.0 L 122.0 142.0 L 120.5 142.0 L 120.0 142.0 L 121.5 141.5 L 125.5 140.0 L 130.5 137.0 L 135.0 133.5 L 139.0 131.5 L 139.0 131.5 " stroke="black" fill="none" stroke-width="7.0" stroke-linecap="round" stroke-linejoin="round" />
<path d="M 121.5 154.5 L 120.5 155.5 L 120.0 156.5 L 122.0 156.0 L 126.0 153.5 L 130.0 150.0 L 133.5 147.0 L 135.5 146.0 " stroke="black" fill="none" stroke-width="7.0" stroke-linecap="round" stroke-linejoin="round" />
<path d="M 119.5 166.0 L 119.0 166.5 L 116.0 169.0 L 116.0 170.5 L 119.0 170.5 L 124.0 168.5 L 130.0 164.5 L 137.0 159.5 L 141.5 156.0 " stroke="black" fill="none" stroke-width="7.0" stroke-linecap="round" stroke-linejoin="round" />
<path d="M 159.0 120.5 L 159.0 120.5 L 158.0 120.0 L 158.0 119.5 L 158.0 120.0 L 158.5 125.5 L 159.5 138.5 L 159.5 158.0 L 158.5 175.0 L 158.0 186.0 L 158.0 193.0 L 159.0 196.5 " stroke="black" fill="none" stroke-width="7.0" stroke-linecap="round" stroke-linejoin="round" />
<path d="M 164.5 133.5 L 163.5 133.5 L 163.0 133.5 L 163.0 133.5 L 164.5 133.5 L 168.0 132.5 L 171.5 131.0 L 174.0 129.0 L 175.0 128.5 " stroke="black" fill="none" stroke-width="7.0" stroke-linecap="round" stroke-linejoin="round" />
<path d="M 164.5 145.0 L 164.5 145.5 L 163.0 147.5 L 164.0 148.0 L 166.0 148.0 L 170.5 145.5 L 174.0 143.0 L 176.0 141.5 " stroke="black" fill="none" stroke-width="7.0" stroke-linecap="round" stroke-linejoin="round" />
<path d="M 161.5 163.5 L 159.5 166.0 L 158.5 167.0 L 160.5 167.0 L 165.5 166.0 L 172.0 163.0 L 177.5 159.5 L 183.0 157.0 L 183.5 156.5 " stroke="black" fill="none" stroke-width="7.0" stroke-linecap="round" stroke-linejoin="round" />
</svg>