<svg xmlns="http://www.w3.org/2000/svg" width="300" height="300" viewBox="0 0 300 300">
<path d="M 134.5 104.0 L 134.0 103.0 L 133.0 101.0 L 133.5 100.5 L 136.0 101.5 L 140.0 104.0 L 144.5 106.0 L 145.5 106.5 " stroke="black" fill="none" stroke-width="7.0" stroke-linecap="round" stroke-linejoin="round" />
<path d="M 157.0 92.0 L 157.0 92.0 L 157.0 92.0 L 156.5 92.0 L 154.5 95.0 L 151.5 100.5 L 148.5 107.5 L 146.0 111.5 " stroke="black" fill="none" stroke-width="7.0" stroke-linecap="round" stroke-linejoin="round" />
<path d="M 131.5 123.5 L 130.5 124.0 L 130.0 124.5 L 130.0 124.5 L 133.0 124.0 L 138.5 121.5 L 146.5 117.5 L 153.0 113.0 L 157.0 110.0 L 157.5 110.0 " stroke="black" fill="none" stroke-width="7.0" stroke-linecap="round" stroke-linejoin="round" />
<path d="M 132.0 140.5 L 131.5 141.0 L 129.5 143.0 L 133.5 142.0 L 140.5 138.5 L 148.0 133.5 L 154.0 128.5 L 157.0 127.0 " stroke="black" fill="none" stroke-width="7.0" stroke-linecap="round" stroke-linejoin="round" />
<path d="M 148.0 123.0 L 148.0 126.0 L 148.0 131.0 L 148.0 140.0 L 147.5 147.0 L 147.5 152.0 " stroke="black" fill="none" stroke-width="7.0" stroke-linecap="round" stroke-linejoin="round" />
<path d="M 112.5 165.5 L 111.5 166.0 L 110.5 166.5 L 110.0 166.5 L 112.5 166.5 L 118.5 164.5 L 127.5 162.0 L 140.5 158.5 L 154.5 154.5 L 167.5 150.5 L 175.5 149.5 L 180.5 149.5 L 182.0 150.5 " stroke="black" fill="none" stroke-width="7.0" stroke-linecap="round" stroke-linejoin="round" />
<path d="M 119.0 179.5 L 118.0 179.5 L 116.5 179.5 L 116.5 180.0 L 117.0 181.5 L 119.5 184.5 L 122.0 187.5 L 124.0 188.5 " stroke="black" fill="none" stroke-width="7.0" stroke-linecap="round" stroke-linejoin="round" />
<path d="M 137.0 172.0 L 137.0 172.0 L 137.5 172.0 L 138.5 173.0 L 140.0 176.0 L 143.0 179.5 L 145.5 182.0 " stroke="black" fill="none" stroke-width="7.0" stroke-linecap="round" stroke-linejoin="round" />
<path d="M 157.0 167.5 L 157.0 168.0 L 158.0 168.5 L 159.5 170.5 L 161.5 173.5 L 164.0 177.5 L 166.0 179.5 " stroke="black" fill="none" stroke-width="7.0" stroke-linecap="round" stroke-linejoin="round" />
<path d="M 175.0 164.0 L 175.5 164.5 L 177.0 165.5 L 179.5 169.0 L 181.5 175.5 L 183.0 183.0 L 183.5 186.5 " stroke="black" fill="none" stroke-width="7.0" stroke-linecap="round" stroke-linejoin="round" />
</svg>