<svg xmlns="http://www.w3.org/2000/svg" width="300" height="300" viewBox="0 0 300 300">
<path d="M 121.0 107.0 L 121.0 106.5 L 120.5 106.0 L 120.5 106.0 L 121.0 109.5 L 122.5 119.0 L 124.0 134.0 L 124.5 153.0 L 123.5 170.0 L 122.5 179.5 L 122.5 184.0 L 123.0 183.5 " stroke="black" fill="none" stroke-width="7.0" stroke-linecap="round" stroke-linejoin="round" />
<path d="M 130.0 100.5 L 130.0 100.5 L 130.0 100.0 L 130.5 99.0 L 133.5 98.0 L 140.0 95.5 L 148.5 93.0 L 155.5 90.0 L 162.5 88.5 L 167.5 88.0 L 170.5 87.5 L 173.0 88.0 L 175.0 89.5 L 176.5 92.5 L 178.5 97.0 L 179.5 104.0 L 181.0 114.5 L 182.5 128.0 L 183.5 142.0 L 184.0 156.0 L 184.5 169.0 L 184.5 179.0 L 184.5 188.0 L 183.0 194.0 L 181.0 198.0 L 178.0 199.0 L 174.5 198.0 L 172.0 193.5 " stroke="black" fill="none" stroke-width="7.0" stroke-linecap="round" stroke-linejoin="round" />
<path d="M 142.5 122.5 L 141.5 123.0 L 141.5 123.0 L 143.0 123.0 L 146.5 123.0 " stroke="black" fill="none" stroke-width="7.0" stroke-linecap="round" stroke-linejoin="round" />
<path d="M 155.5 113.0 L 155.5 113.0 L 155.0 114.0 L 154.5 116.5 L 153.5 120.0 L 152.0 124.5 L 150.5 129.0 " stroke="black" fill="none" stroke-width="7.0" stroke-linecap="round" stroke-linejoin="round" />
<path d="M 138.0 139.5 L 136.0 140.5 L 134.5 141.0 L 135.0 141.0 L 138.0 140.5 L 143.0 138.0 L 149.5 134.0 L 156.5 130.0 L 162.0 127.5 L 162.5 127.5 " stroke="black" fill="none" stroke-width="7.0" stroke-linecap="round" stroke-linejoin="round" />
<path d="M 136.5 159.0 L 136.5 159.0 L 136.5 158.5 L 136.5 158.5 L 137.0 159.0 L 137.0 161.0 L 137.5 163.5 L 138.0 166.5 L 138.0 169.5 L 138.0 171.0 L 138.0 171.5 L 138.0 171.5 L 138.5 170.5 L 140.5 169.0 L 143.5 167.5 L 147.0 166.0 L 150.5 164.5 L 155.0 164.0 L 159.5 163.5 L 163.5 163.5 L 165.5 163.5 " stroke="black" fill="none" stroke-width="7.0" stroke-linecap="round" stroke-linejoin="round" />
<path d="M 168.0 150.0 L 168.0 150.5 L 167.5 152.0 L 167.5 155.0 L 167.5 159.5 L 168.0 162.5 " stroke="black" fill="none" stroke-width="7.0" stroke-linecap="round" stroke-linejoin="round" />
<path d="M 152.0 138.5 L 152.0 137.0 L 151.5 136.5 L 151.5 137.0 L 151.5 141.0 L 152.0 148.0 L 152.5 156.0 L 152.5 162.0 " stroke="black" fill="none" stroke-width="7.0" stroke-linecap="round" stroke-linejoin="round" />
</svg>