<svg xmlns="http://www.w3.org/2000/svg" width="300" height="300" viewBox="0 0 300 300">
<path d="M 137.5 96.0 L 137.0 96.0 L 136.5 96.0 L 138.0 96.5 L 141.5 97.5 L 145.5 98.5 " stroke="black" fill="none" stroke-width="7.0" stroke-linecap="round" stroke-linejoin="round" />
<path d="M 157.0 88.5 L 157.0 88.0 L 157.0 87.5 L 157.0 87.0 L 156.5 89.5 L 154.0 94.0 L 150.5 100.0 L 146.5 105.0 " stroke="black" fill="none" stroke-width="7.0" stroke-linecap="round" stroke-linejoin="round" />
<path d="M 128.5 119.5 L 128.5 119.5 L 128.0 120.0 L 127.5 120.0 L 127.5 120.0 L 129.0 119.5 L 133.5 117.5 L 142.5 113.5 L 152.0 107.5 L 158.5 104.5 L 162.5 103.0 L 163.0 103.0 " stroke="black" fill="none" stroke-width="7.0" stroke-linecap="round" stroke-linejoin="round" />
<path d="M 135.0 131.0 L 134.0 132.0 L 132.5 133.0 L 132.5 133.0 L 136.0 131.5 L 142.5 128.0 L 149.5 124.0 L 155.5 121.0 L 159.5 119.5 L 160.0 119.5 " stroke="black" fill="none" stroke-width="7.0" stroke-linecap="round" stroke-linejoin="round" />
<path d="M 149.0 116.0 L 149.0 118.0 L 149.0 122.5 L 149.0 129.5 L 149.0 137.0 L 149.0 143.5 " stroke="black" fill="none" stroke-width="7.0" stroke-linecap="round" stroke-linejoin="round" />
<path d="M 108.0 160.0 L 108.0 160.5 L 107.0 161.0 L 107.5 161.0 L 112.5 161.0 L 122.5 158.5 L 137.0 153.5 L 153.5 147.5 L 166.5 143.5 L 174.0 141.0 L 176.5 139.0 L 177.0 139.0 " stroke="black" fill="none" stroke-width="7.0" stroke-linecap="round" stroke-linejoin="round" />
<path d="M 146.5 154.0 L 145.5 155.0 L 144.0 157.5 L 142.0 162.0 L 138.0 168.5 L 132.0 178.0 L 127.0 187.5 L 123.5 193.0 L 121.5 195.5 " stroke="black" fill="none" stroke-width="7.0" stroke-linecap="round" stroke-linejoin="round" />
<path d="M 149.5 154.0 L 149.5 154.0 L 149.0 154.0 L 149.0 154.0 L 148.5 154.5 L 148.5 156.5 L 149.5 161.0 L 150.5 168.5 L 151.5 176.0 L 152.5 181.5 L 153.5 184.5 L 155.0 185.5 L 157.5 186.0 L 160.0 186.0 L 164.0 186.0 L 167.5 185.5 L 170.5 185.5 L 173.5 185.5 L 176.0 185.5 L 178.5 185.0 L 182.0 185.0 L 185.0 184.0 L 188.0 183.0 L 190.5 181.0 L 192.5 178.0 L 194.0 174.0 L 195.0 168.5 L 195.5 161.5 L 195.5 152.0 L 195.5 141.0 L 195.5 138.5 " stroke="black" fill="none" stroke-width="7.0" stroke-linecap="round" stroke-linejoin="round" />
</svg>