<svg xmlns="http://www.w3.org/2000/svg" width="300" height="300" viewBox="0 0 300 300">
<path d="M 137.0 108.0 L 137.0 108.0 L 136.5 108.0 L 136.5 108.0 L 139.0 108.0 L 144.0 109.0 L 145.0 109.0 " stroke="black" fill="none" stroke-width="7.0" stroke-linecap="round" stroke-linejoin="round" />
<path d="M 160.0 94.5 L 160.0 94.5 L 160.0 94.0 L 159.0 94.0 L 158.0 96.0 L 155.5 100.5 L 152.5 107.5 L 148.5 116.0 " stroke="black" fill="none" stroke-width="7.0" stroke-linecap="round" stroke-linejoin="round" />
<path d="M 135.0 128.0 L 134.0 128.5 L 133.0 128.5 L 132.5 128.5 L 132.5 128.5 L 135.0 128.5 L 139.5 126.5 L 146.0 123.5 L 153.0 118.5 L 159.0 115.0 L 162.0 113.5 L 162.0 113.5 " stroke="black" fill="none" stroke-width="7.0" stroke-linecap="round" stroke-linejoin="round" />
<path d="M 134.0 147.0 L 133.5 147.5 L 132.5 148.5 L 134.0 148.0 L 138.5 145.5 L 143.5 142.5 L 152.0 136.0 L 157.0 133.5 L 158.0 133.5 " stroke="black" fill="none" stroke-width="7.0" stroke-linecap="round" stroke-linejoin="round" />
<path d="M 126.5 168.5 L 125.0 170.0 L 123.5 171.0 L 123.5 171.0 L 126.5 170.0 L 132.0 166.5 L 141.0 162.0 L 152.0 156.0 L 162.5 151.0 L 168.5 149.0 L 170.0 148.0 " stroke="black" fill="none" stroke-width="7.0" stroke-linecap="round" stroke-linejoin="round" />
<path d="M 150.5 127.5 L 149.5 128.5 L 149.5 132.0 L 150.0 142.0 L 150.5 158.5 L 150.0 174.5 L 148.5 188.0 L 147.0 195.0 L 147.0 196.0 " stroke="black" fill="none" stroke-width="7.0" stroke-linecap="round" stroke-linejoin="round" />
</svg>