<svg xmlns="http://www.w3.org/2000/svg" width="300" height="300" viewBox="0 0 300 300">
<path d="M 132.0 103.0 L 129.5 104.0 L 128.5 104.5 L 128.0 105.0 L 129.0 105.0 L 133.5 104.0 L 142.0 102.0 L 151.0 98.5 L 159.0 94.5 L 165.0 92.0 L 168.0 91.0 " stroke="black" fill="none" stroke-width="7.0" stroke-linecap="round" stroke-linejoin="round" />
<path d="M 148.5 83.0 L 148.0 83.0 L 148.0 84.0 L 147.5 87.0 L 147.5 93.0 L 146.0 101.5 L 143.0 110.0 L 138.0 118.0 L 133.5 123.0 L 131.5 126.0 L 130.5 127.0 L 130.5 127.0 L 131.0 127.0 L 134.0 126.0 L 139.0 124.0 L 144.5 122.0 L 150.5 119.5 L 156.0 117.5 L 161.0 115.5 L 164.5 113.5 L 165.5 112.0 " stroke="black" fill="none" stroke-width="7.0" stroke-linecap="round" stroke-linejoin="round" />
<path d="M 165.5 106.0 L 165.5 106.0 L 165.5 106.0 L 165.5 107.5 L 167.5 111.0 L 170.5 116.0 L 172.5 121.0 " stroke="black" fill="none" stroke-width="7.0" stroke-linecap="round" stroke-linejoin="round" />
<path d="M 133.5 143.0 L 133.5 142.5 L 133.5 141.5 L 133.0 140.5 L 133.0 140.5 L 134.0 145.0 L 134.5 155.5 L 133.5 171.0 L 131.0 185.0 L 128.5 192.0 L 127.5 194.0 " stroke="black" fill="none" stroke-width="7.0" stroke-linecap="round" stroke-linejoin="round" />
<path d="M 141.5 139.5 L 142.0 139.0 L 143.5 137.5 L 146.5 136.0 L 150.5 134.0 L 155.0 132.5 L 159.5 130.5 L 163.5 130.0 L 165.0 129.5 L 166.0 131.0 L 166.5 134.0 L 166.5 138.0 L 167.0 145.5 L 168.0 157.0 L 168.5 169.0 L 169.0 181.0 L 169.0 189.5 L 169.0 193.5 L 168.0 196.0 L 165.0 196.5 L 161.0 194.5 L 156.5 190.0 L 153.5 185.0 L 153.0 184.0 " stroke="black" fill="none" stroke-width="7.0" stroke-linecap="round" stroke-linejoin="round" />
<path d="M 147.0 155.0 L 145.5 155.0 L 143.5 155.0 L 143.0 155.0 L 144.0 155.5 L 147.0 154.5 L 152.0 152.5 L 156.5 150.5 L 159.5 149.5 L 160.0 149.5 " stroke="black" fill="none" stroke-width="7.0" stroke-linecap="round" stroke-linejoin="round" />
<path d="M 145.0 167.0 L 143.5 168.5 L 141.5 169.5 L 142.0 169.5 L 146.0 168.5 L 151.5 166.0 L 158.0 163.5 L 164.5 162.0 " stroke="black" fill="none" stroke-width="7.0" stroke-linecap="round" stroke-linejoin="round" />
</svg>