<svg xmlns="http://www.w3.org/2000/svg" width="300" height="300" viewBox="0 0 300 300">
<path d="M 134.0 104.5 L 132.0 105.5 L 129.5 106.0 L 129.5 106.5 L 132.5 106.0 L 140.5 104.0 L 150.5 100.0 L 161.5 93.5 L 170.0 89.5 " stroke="black" fill="none" stroke-width="7.0" stroke-linecap="round" stroke-linejoin="round" />
<path d="M 157.5 97.0 L 157.5 97.5 L 156.5 98.0 L 154.5 101.5 L 150.5 109.5 L 144.5 120.5 L 138.5 127.5 " stroke="black" fill="none" stroke-width="7.0" stroke-linecap="round" stroke-linejoin="round" />
<path d="M 114.5 139.5 L 114.5 139.0 L 114.5 138.5 L 114.5 138.0 L 115.5 141.5 L 118.0 150.0 L 121.0 163.5 L 122.5 175.5 L 123.5 182.0 L 125.0 183.0 L 125.0 182.0 " stroke="black" fill="none" stroke-width="7.0" stroke-linecap="round" stroke-linejoin="round" />
<path d="M 126.0 139.0 L 126.5 138.0 L 127.5 136.0 L 130.5 134.5 L 136.5 133.0 L 147.0 130.0 L 156.5 127.0 L 166.0 124.5 L 172.0 124.0 L 175.0 126.0 L 177.0 130.5 L 178.0 138.5 L 178.0 148.5 L 177.5 160.0 L 176.0 170.5 L 175.0 178.0 L 173.0 183.0 L 170.0 184.5 L 166.0 183.0 L 164.5 182.0 " stroke="black" fill="none" stroke-width="7.0" stroke-linecap="round" stroke-linejoin="round" />
<path d="M 137.0 136.5 L 136.5 137.5 L 136.0 139.5 L 136.5 145.5 L 138.5 156.5 L 139.5 167.0 L 140.5 173.0 L 142.0 174.0 " stroke="black" fill="none" stroke-width="7.0" stroke-linecap="round" stroke-linejoin="round" />
<path d="M 151.0 131.5 L 151.5 131.0 L 152.5 129.5 L 153.5 132.5 L 155.0 142.0 L 155.5 155.5 L 156.0 170.0 L 156.0 181.0 " stroke="black" fill="none" stroke-width="7.0" stroke-linecap="round" stroke-linejoin="round" />
</svg>