<svg xmlns="http://www.w3.org/2000/svg" width="300" height="300" viewBox="0 0 300 300">
<path d="M 128.5 95.5 L 128.5 95.5 L 128.5 94.0 L 128.5 93.0 L 128.5 92.5 L 128.5 92.5 L 128.0 95.5 L 127.0 100.5 L 124.5 110.0 L 120.0 121.5 L 115.0 129.5 L 111.5 133.5 L 111.0 134.0 L 112.0 134.0 L 116.0 131.5 L 121.5 127.5 L 127.0 124.0 L 132.5 121.0 L 137.5 118.0 " stroke="black" fill="none" stroke-width="7.0" stroke-linecap="round" stroke-linejoin="round" />
<path d="M 140.5 111.0 L 140.5 112.0 L 140.0 113.5 L 140.5 116.0 L 142.5 120.0 L 145.0 124.5 L 145.5 125.5 " stroke="black" fill="none" stroke-width="7.0" stroke-linecap="round" stroke-linejoin="round" />
<path d="M 113.5 155.5 L 113.5 152.5 L 113.5 150.0 L 113.5 149.5 L 114.0 150.0 L 114.5 154.5 L 115.5 163.0 L 115.5 175.5 L 112.5 190.0 L 110.0 199.5 L 109.0 202.5 L 108.5 202.0 " stroke="black" fill="none" stroke-width="7.0" stroke-linecap="round" stroke-linejoin="round" />
<path d="M 123.0 143.5 L 123.0 143.5 L 122.5 144.0 L 121.5 144.0 L 121.5 144.0 L 121.5 143.5 L 124.0 142.5 L 127.0 140.5 L 130.5 138.5 L 134.5 137.5 L 138.0 137.0 L 139.5 137.0 L 140.5 137.5 L 141.5 139.5 L 142.0 142.0 L 142.5 146.0 L 143.5 152.5 L 143.5 163.0 L 144.0 175.0 L 144.5 187.5 L 144.5 197.0 L 144.5 203.5 L 144.0 207.5 L 142.0 209.0 L 139.0 209.0 L 135.0 207.0 L 131.5 202.0 " stroke="black" fill="none" stroke-width="7.0" stroke-linecap="round" stroke-linejoin="round" />
<path d="M 126.0 163.0 L 125.5 163.0 L 124.0 163.5 L 123.0 164.0 L 123.5 164.0 L 126.0 164.0 L 130.5 162.5 L 134.5 160.5 L 137.0 159.5 " stroke="black" fill="none" stroke-width="7.0" stroke-linecap="round" stroke-linejoin="round" />
<path d="M 120.5 181.5 L 119.5 181.5 L 119.0 181.5 L 119.0 181.5 L 121.5 181.0 L 126.0 180.0 L 132.0 177.5 L 139.5 174.0 " stroke="black" fill="none" stroke-width="7.0" stroke-linecap="round" stroke-linejoin="round" />
<path d="M 161.5 122.5 L 161.0 123.0 L 160.5 123.5 L 160.5 123.5 L 163.5 122.0 L 168.0 118.5 L 172.5 114.5 L 175.0 111.5 " stroke="black" fill="none" stroke-width="7.0" stroke-linecap="round" stroke-linejoin="round" />
<path d="M 161.5 100.5 L 160.0 102.5 L 159.5 107.0 L 159.5 115.0 L 160.5 124.5 L 161.5 133.0 L 162.0 139.0 L 163.0 142.0 L 165.5 142.5 L 170.0 140.0 L 174.0 136.0 L 178.5 132.0 L 180.5 130.5 " stroke="black" fill="none" stroke-width="7.0" stroke-linecap="round" stroke-linejoin="round" />
<path d="M 165.5 165.0 L 164.5 165.0 L 163.5 165.5 L 164.0 165.5 L 167.0 164.0 L 171.5 161.0 L 176.5 157.5 L 181.5 154.5 " stroke="black" fill="none" stroke-width="7.0" stroke-linecap="round" stroke-linejoin="round" />
<path d="M 163.0 148.5 L 162.5 149.5 L 161.5 151.5 L 161.5 157.0 L 162.0 166.5 L 163.0 177.0 L 164.0 185.5 L 164.5 190.0 L 166.0 192.5 L 168.0 193.0 L 170.5 193.0 L 174.0 192.0 L 178.5 190.5 L 184.5 188.5 L 190.0 186.5 L 194.5 185.5 L 197.5 184.0 L 199.5 183.0 L 200.0 181.5 L 200.0 178.0 L 200.0 173.0 L 199.5 166.0 L 199.0 161.5 " stroke="black" fill="none" stroke-width="7.0" stroke-linecap="round" stroke-linejoin="round" />
</svg>