<svg xmlns="http://www.w3.org/2000/svg" width="300" height="300" viewBox="0 0 300 300">
<path d="M 125.0 101.5 L 123.0 102.5 L 120.0 103.5 L 117.5 104.5 L 117.0 104.5 L 118.5 104.0 L 123.5 102.0 L 128.5 99.0 L 133.0 96.0 " stroke="black" fill="none" stroke-width="7.0" stroke-linecap="round" stroke-linejoin="round" />
<path d="M 137.0 78.0 L 136.0 78.5 L 135.5 80.5 L 135.5 87.5 L 135.5 98.5 L 135.0 108.0 L 135.0 115.5 L 135.0 118.0 " stroke="black" fill="none" stroke-width="7.0" stroke-linecap="round" stroke-linejoin="round" />
<path d="M 118.0 127.5 L 116.0 128.0 L 113.5 129.5 L 112.5 130.5 L 113.5 130.5 L 118.5 129.5 L 126.0 126.0 L 134.0 120.5 L 139.5 117.5 " stroke="black" fill="none" stroke-width="7.0" stroke-linecap="round" stroke-linejoin="round" />
<path d="M 161.5 94.5 L 160.5 95.0 L 158.0 95.0 L 157.5 95.0 L 159.5 94.5 L 165.0 91.5 L 170.5 87.0 L 173.0 85.0 " stroke="black" fill="none" stroke-width="7.0" stroke-linecap="round" stroke-linejoin="round" />
<path d="M 153.5 73.0 L 153.5 73.0 L 153.5 75.0 L 153.5 79.0 L 153.5 87.0 L 153.5 98.5 L 153.5 110.0 L 154.0 119.0 L 156.0 123.0 L 159.0 124.0 L 164.5 123.5 L 169.5 121.5 L 174.5 119.0 L 179.0 116.5 L 183.0 114.0 L 186.0 112.0 L 188.0 108.5 L 188.0 104.5 " stroke="black" fill="none" stroke-width="7.0" stroke-linecap="round" stroke-linejoin="round" />
<path d="M 129.0 139.5 L 129.0 139.0 L 128.5 138.5 L 128.5 139.0 L 129.0 145.0 L 129.5 157.0 L 129.5 172.5 L 128.0 185.0 L 126.5 191.0 L 125.5 192.0 " stroke="black" fill="none" stroke-width="7.0" stroke-linecap="round" stroke-linejoin="round" />
<path d="M 135.0 145.0 L 135.5 144.5 L 136.5 143.5 L 139.5 142.0 L 144.5 141.0 L 150.5 138.5 L 156.0 136.0 L 160.5 134.0 L 163.5 134.0 L 164.0 135.0 L 164.0 137.5 L 164.0 140.5 L 164.5 144.5 L 166.0 152.0 L 167.0 163.0 L 168.0 176.0 L 168.0 187.5 L 167.5 194.0 L 166.5 198.5 L 164.5 199.0 L 161.5 196.0 L 157.5 189.5 L 153.5 184.5 " stroke="black" fill="none" stroke-width="7.0" stroke-linecap="round" stroke-linejoin="round" />
<path d="M 141.5 159.5 L 140.0 160.5 L 138.0 161.0 L 137.5 161.5 L 140.0 161.5 L 145.5 159.0 L 151.5 155.5 L 156.5 152.0 L 157.5 152.0 " stroke="black" fill="none" stroke-width="7.0" stroke-linecap="round" stroke-linejoin="round" />
<path d="M 141.0 174.5 L 140.0 175.0 L 138.0 176.5 L 139.0 176.5 L 144.0 174.5 L 150.0 171.5 L 156.5 168.0 " stroke="black" fill="none" stroke-width="7.0" stroke-linecap="round" stroke-linejoin="round" />
</svg>