<svg xmlns="http://www.w3.org/2000/svg" width="300" height="300" viewBox="0 0 300 300">
<path d="M 113.5 106.5 L 113.0 106.5 L 112.0 107.5 L 111.5 107.5 L 114.0 107.5 L 120.5 106.0 L 129.5 101.0 L 138.5 95.5 L 144.5 91.5 L 145.5 90.5 " stroke="black" fill="none" stroke-width="7.0" stroke-linecap="round" stroke-linejoin="round" />
<path d="M 119.5 112.5 L 119.5 112.5 L 119.5 114.0 L 119.5 117.5 L 119.5 124.0 L 119.5 133.0 L 119.5 141.0 L 120.0 146.0 L 120.5 146.5 " stroke="black" fill="none" stroke-width="7.0" stroke-linecap="round" stroke-linejoin="round" />
<path d="M 139.5 101.0 L 140.0 101.0 L 140.5 100.5 L 141.0 102.0 L 142.0 108.0 L 143.0 120.5 L 144.0 137.5 L 144.0 155.5 L 144.0 171.0 L 143.5 181.5 L 143.0 189.0 L 142.5 193.0 L 141.0 194.5 L 139.5 194.5 L 139.0 193.5 " stroke="black" fill="none" stroke-width="7.0" stroke-linecap="round" stroke-linejoin="round" />
<path d="M 126.5 122.0 L 125.5 122.0 L 125.0 121.5 L 125.0 121.0 L 127.5 120.5 L 131.5 119.0 L 135.5 117.5 L 136.5 117.5 " stroke="black" fill="none" stroke-width="7.0" stroke-linecap="round" stroke-linejoin="round" />
<path d="M 123.5 133.5 L 122.5 134.5 L 122.0 135.0 L 123.0 135.0 L 126.5 133.5 L 130.5 130.5 L 135.0 128.5 " stroke="black" fill="none" stroke-width="7.0" stroke-linecap="round" stroke-linejoin="round" />
<path d="M 109.5 154.0 L 109.0 155.0 L 108.0 155.5 L 109.0 155.5 L 113.5 154.0 L 121.0 150.5 L 129.5 146.5 L 138.0 142.5 L 140.0 142.0 " stroke="black" fill="none" stroke-width="7.0" stroke-linecap="round" stroke-linejoin="round" />
<path d="M 127.5 161.0 L 127.5 159.5 L 127.5 158.5 L 127.0 158.5 L 124.5 162.0 L 120.0 167.5 L 118.5 169.0 " stroke="black" fill="none" stroke-width="7.0" stroke-linecap="round" stroke-linejoin="round" />
<path d="M 110.0 185.5 L 109.5 186.0 L 109.5 186.0 L 110.0 186.0 L 113.5 184.5 L 119.5 180.5 L 127.0 176.0 L 132.0 172.5 " stroke="black" fill="none" stroke-width="7.0" stroke-linecap="round" stroke-linejoin="round" />
<path d="M 124.5 171.0 L 124.5 171.5 L 123.5 172.5 L 123.5 175.0 L 124.0 180.5 L 124.5 187.0 L 124.5 193.0 " stroke="black" fill="none" stroke-width="7.0" stroke-linecap="round" stroke-linejoin="round" />
<path d="M 111.5 203.0 L 109.5 203.5 L 108.0 204.0 L 108.0 204.0 L 111.5 202.5 L 118.5 199.0 L 127.0 194.0 L 136.5 190.0 L 141.0 188.5 " stroke="black" fill="none" stroke-width="7.0" stroke-linecap="round" stroke-linejoin="round" />
<path d="M 163.0 107.0 L 162.0 107.5 L 160.5 107.5 L 160.0 108.0 L 162.0 108.0 L 167.5 107.0 L 174.5 104.5 L 183.5 100.5 L 190.0 98.0 " stroke="black" fill="none" stroke-width="7.0" stroke-linecap="round" stroke-linejoin="round" />
<path d="M 176.0 92.0 L 176.0 92.5 L 175.5 94.0 L 174.5 100.5 L 172.0 111.0 L 169.5 121.5 " stroke="black" fill="none" stroke-width="7.0" stroke-linecap="round" stroke-linejoin="round" />
<path d="M 152.5 128.5 L 152.5 129.0 L 152.5 130.0 L 152.5 131.5 L 153.0 135.0 L 155.0 139.0 L 156.5 142.0 L 157.5 142.5 " stroke="black" fill="none" stroke-width="7.0" stroke-linecap="round" stroke-linejoin="round" />
<path d="M 155.5 128.5 L 155.5 128.5 L 155.5 127.5 L 157.5 126.5 L 163.0 125.5 L 172.0 123.0 L 181.5 119.5 L 191.0 116.5 L 195.5 116.0 L 197.0 117.0 L 197.0 120.0 L 194.5 125.0 L 192.0 129.5 L 188.5 134.5 L 188.0 136.0 " stroke="black" fill="none" stroke-width="7.0" stroke-linecap="round" stroke-linejoin="round" />
<path d="M 168.5 128.5 L 168.5 129.5 L 168.5 131.0 L 168.5 134.5 L 168.5 138.5 L 168.5 141.0 " stroke="black" fill="none" stroke-width="7.0" stroke-linecap="round" stroke-linejoin="round" />
<path d="M 178.0 124.5 L 178.0 124.5 L 178.0 124.5 L 178.0 125.5 L 178.5 128.5 L 178.5 133.0 L 179.0 134.0 " stroke="black" fill="none" stroke-width="7.0" stroke-linecap="round" stroke-linejoin="round" />
<path d="M 161.0 147.5 L 160.5 147.5 L 160.0 147.0 L 160.0 146.5 L 163.5 145.5 L 169.0 144.5 L 175.5 142.5 L 183.0 141.0 L 187.0 140.5 " stroke="black" fill="none" stroke-width="7.0" stroke-linecap="round" stroke-linejoin="round" />
<path d="M 162.0 161.0 L 161.0 161.0 L 160.0 161.0 L 159.5 161.0 L 160.0 161.0 L 164.5 160.5 L 170.5 158.5 L 178.0 156.0 L 185.5 153.5 L 189.5 152.5 " stroke="black" fill="none" stroke-width="7.0" stroke-linecap="round" stroke-linejoin="round" />
<path d="M 159.0 172.0 L 159.0 172.0 L 158.5 172.5 L 158.0 174.0 L 157.0 179.5 L 154.5 186.5 L 152.0 193.0 L 150.5 196.0 " stroke="black" fill="none" stroke-width="7.0" stroke-linecap="round" stroke-linejoin="round" />
<path d="M 168.0 182.0 L 167.5 182.0 L 166.5 182.0 L 166.5 182.0 L 167.0 182.5 L 170.0 185.0 L 174.5 188.5 L 180.0 192.0 L 185.5 194.0 L 190.0 194.5 L 192.0 192.5 L 193.0 191.0 L 193.5 189.5 L 193.5 187.0 L 193.0 184.5 L 193.0 183.5 " stroke="black" fill="none" stroke-width="7.0" stroke-linecap="round" stroke-linejoin="round" />
<path d="M 175.5 166.5 L 175.5 166.5 L 176.0 166.5 L 177.5 166.5 L 180.5 168.5 L 183.0 170.0 " stroke="black" fill="none" stroke-width="7.0" stroke-linecap="round" stroke-linejoin="round" />
<path d="M 198.0 166.0 L 198.5 166.5 L 200.5 168.5 L 203.0 171.5 L 205.5 177.5 L 207.5 183.5 L 208.0 185.0 " stroke="black" fill="none" stroke-width="7.0" stroke-linecap="round" stroke-linejoin="round" />
</svg>