<svg xmlns="http://www.w3.org/2000/svg" width="300" height="300" viewBox="0 0 300 300">
<path d="M 123.0 91.5 L 121.0 92.0 L 119.5 92.0 L 119.0 92.0 L 119.5 92.0 L 123.5 91.0 L 129.0 89.5 L 135.5 87.0 L 143.5 84.5 L 148.0 82.5 L 149.5 82.0 " stroke="black" fill="none" stroke-width="7.0" stroke-linecap="round" stroke-linejoin="round" />
<path d="M 135.5 75.0 L 135.5 76.0 L 135.0 77.5 L 135.0 81.5 L 135.5 88.0 L 135.5 95.5 L 135.5 98.5 " stroke="black" fill="none" stroke-width="7.0" stroke-linecap="round" stroke-linejoin="round" />
<path d="M 127.0 104.5 L 126.0 105.0 L 124.5 105.5 L 124.0 106.0 L 124.5 106.0 L 127.5 106.0 L 132.5 104.0 L 138.5 102.0 L 144.0 100.0 L 146.0 99.5 " stroke="black" fill="none" stroke-width="7.0" stroke-linecap="round" stroke-linejoin="round" />
<path d="M 125.0 120.5 L 124.5 120.5 L 123.0 120.5 L 122.5 120.5 L 122.5 120.5 L 124.0 119.5 L 129.0 117.0 L 135.0 114.5 L 142.0 111.5 L 147.0 110.0 L 148.5 110.5 L 148.0 114.0 L 146.0 118.5 L 143.5 123.0 L 141.5 126.5 " stroke="black" fill="none" stroke-width="7.0" stroke-linecap="round" stroke-linejoin="round" />
<path d="M 132.5 119.5 L 132.5 119.5 L 131.5 118.5 L 131.5 118.5 L 131.5 119.0 L 132.5 121.5 L 133.0 124.0 L 133.0 125.0 " stroke="black" fill="none" stroke-width="7.0" stroke-linecap="round" stroke-linejoin="round" />
<path d="M 130.0 129.0 L 128.0 130.5 L 126.5 131.5 L 126.0 132.0 L 126.5 132.0 L 129.5 131.5 L 133.5 129.5 L 137.5 128.0 " stroke="black" fill="none" stroke-width="7.0" stroke-linecap="round" stroke-linejoin="round" />
<path d="M 118.5 121.5 L 118.5 121.5 L 118.5 121.5 L 118.0 122.5 L 118.5 127.5 L 119.0 137.5 L 117.0 147.0 L 114.0 154.0 L 113.0 156.0 " stroke="black" fill="none" stroke-width="7.0" stroke-linecap="round" stroke-linejoin="round" />
<path d="M 162.0 83.0 L 162.5 83.0 L 163.0 83.5 L 163.0 85.5 L 162.5 92.0 L 160.5 100.0 L 158.5 104.5 L 158.0 105.5 " stroke="black" fill="none" stroke-width="7.0" stroke-linecap="round" stroke-linejoin="round" />
<path d="M 165.5 86.5 L 166.0 86.5 L 167.5 85.0 L 169.0 84.5 L 170.5 84.5 L 171.5 86.5 L 172.0 90.0 L 172.0 93.5 L 172.0 96.5 L 172.0 99.0 L 173.5 99.5 L 176.5 99.0 L 180.0 96.0 L 184.0 93.0 " stroke="black" fill="none" stroke-width="7.0" stroke-linecap="round" stroke-linejoin="round" />
<path d="M 162.0 116.5 L 160.5 117.5 L 160.0 117.5 L 161.0 117.5 L 164.5 117.0 L 169.0 115.5 L 173.5 113.0 L 177.0 111.0 L 179.0 110.5 L 179.0 110.5 L 177.5 113.0 L 175.0 116.5 L 172.5 121.0 L 169.0 127.5 L 164.0 135.0 L 157.5 140.5 L 152.5 143.5 " stroke="black" fill="none" stroke-width="7.0" stroke-linecap="round" stroke-linejoin="round" />
<path d="M 156.0 121.0 L 156.0 121.0 L 156.0 122.0 L 159.0 124.5 L 166.0 128.5 L 173.5 132.0 L 179.5 134.5 L 184.5 136.5 L 185.5 138.0 " stroke="black" fill="none" stroke-width="7.0" stroke-linecap="round" stroke-linejoin="round" />
<path d="M 131.0 157.0 L 131.0 157.5 L 130.5 158.0 L 130.5 158.0 L 130.0 158.5 L 130.0 158.5 L 130.5 158.5 L 135.0 157.5 L 143.5 154.5 L 153.5 151.0 L 163.5 149.0 L 169.0 148.0 L 171.0 148.0 " stroke="black" fill="none" stroke-width="7.0" stroke-linecap="round" stroke-linejoin="round" />
<path d="M 137.5 164.0 L 137.5 163.5 L 137.5 163.5 L 137.5 165.0 L 137.0 170.5 L 137.0 180.0 L 137.0 188.5 L 137.0 192.5 " stroke="black" fill="none" stroke-width="7.0" stroke-linecap="round" stroke-linejoin="round" />
<path d="M 159.5 155.5 L 159.5 155.0 L 160.5 155.0 L 160.5 157.0 L 161.0 164.0 L 161.0 176.0 L 160.0 190.0 L 158.5 202.0 L 158.0 210.0 L 157.5 213.5 L 157.0 215.0 " stroke="black" fill="none" stroke-width="7.0" stroke-linecap="round" stroke-linejoin="round" />
<path d="M 143.0 171.0 L 142.5 171.0 L 141.5 171.0 L 141.5 171.0 L 144.5 171.0 L 148.5 169.5 L 152.5 167.5 L 154.5 166.5 " stroke="black" fill="none" stroke-width="7.0" stroke-linecap="round" stroke-linejoin="round" />
<path d="M 141.0 182.0 L 140.5 182.5 L 139.5 183.0 L 141.0 183.0 L 144.5 182.5 L 149.0 181.0 L 153.5 179.5 L 154.5 179.0 " stroke="black" fill="none" stroke-width="7.0" stroke-linecap="round" stroke-linejoin="round" />
<path d="M 113.0 203.0 L 111.5 203.0 L 110.5 203.5 L 110.0 203.5 L 110.5 203.5 L 115.0 203.5 L 122.5 202.5 L 133.0 200.5 L 149.5 197.0 L 165.0 193.5 L 177.0 191.5 L 186.0 191.0 L 191.0 191.0 L 192.5 191.0 " stroke="black" fill="none" stroke-width="7.0" stroke-linecap="round" stroke-linejoin="round" />
</svg>