<svg xmlns="http://www.w3.org/2000/svg" width="300" height="300" viewBox="0 0 300 300">
<path d="M 124.0 89.0 L 123.5 89.5 L 121.5 90.0 L 121.0 90.5 L 122.5 90.5 L 127.5 87.5 L 133.5 84.0 L 140.5 80.5 L 146.5 78.0 L 147.0 78.0 " stroke="black" fill="none" stroke-width="7.0" stroke-linecap="round" stroke-linejoin="round" />
<path d="M 126.5 93.5 L 126.5 93.5 L 126.0 96.0 L 126.0 100.0 L 125.5 106.0 L 125.5 114.5 L 125.5 121.0 L 126.0 123.5 L 126.5 124.0 " stroke="black" fill="none" stroke-width="7.0" stroke-linecap="round" stroke-linejoin="round" />
<path d="M 143.0 84.5 L 143.5 83.5 L 144.0 83.5 L 144.5 88.0 L 145.0 97.0 L 145.5 109.0 L 145.0 123.0 L 144.0 134.0 L 143.5 141.0 L 143.0 143.5 L 143.0 143.5 " stroke="black" fill="none" stroke-width="7.0" stroke-linecap="round" stroke-linejoin="round" />
<path d="M 129.5 103.5 L 129.5 103.5 L 128.5 103.5 L 128.0 104.0 L 129.0 104.0 L 132.0 103.0 L 135.5 101.5 L 138.5 100.5 " stroke="black" fill="none" stroke-width="7.0" stroke-linecap="round" stroke-linejoin="round" />
<path d="M 128.0 115.0 L 127.5 116.0 L 127.5 116.5 L 129.0 116.5 L 132.0 115.0 L 136.0 112.5 L 136.5 112.0 " stroke="black" fill="none" stroke-width="7.0" stroke-linecap="round" stroke-linejoin="round" />
<path d="M 121.0 132.0 L 119.0 133.5 L 116.5 135.0 L 116.5 135.5 L 120.0 134.0 L 126.0 129.5 L 132.5 125.0 L 141.0 120.5 " stroke="black" fill="none" stroke-width="7.0" stroke-linecap="round" stroke-linejoin="round" />
<path d="M 157.0 103.5 L 157.0 103.5 L 156.5 103.5 L 156.5 104.0 L 157.5 106.5 L 160.0 110.5 L 162.0 114.5 L 164.0 116.5 L 164.0 116.5 " stroke="black" fill="none" stroke-width="7.0" stroke-linecap="round" stroke-linejoin="round" />
<path d="M 159.5 102.5 L 159.5 102.0 L 160.0 101.0 L 162.5 99.5 L 168.0 97.0 L 173.0 95.0 L 176.5 94.5 L 179.0 95.0 L 179.0 97.5 L 178.5 101.0 L 176.0 105.5 L 173.0 110.0 L 169.5 114.5 L 166.5 117.5 L 164.5 119.0 L 164.0 119.5 L 165.5 119.0 L 169.5 116.5 L 173.0 114.5 L 174.0 114.0 " stroke="black" fill="none" stroke-width="7.0" stroke-linecap="round" stroke-linejoin="round" />
<path d="M 156.0 136.5 L 156.0 136.5 L 156.5 135.5 L 156.5 135.0 L 156.0 135.0 L 153.5 138.0 L 148.0 142.5 L 140.0 149.0 L 135.5 152.5 " stroke="black" fill="none" stroke-width="7.0" stroke-linecap="round" stroke-linejoin="round" />
<path d="M 133.0 171.5 L 132.0 172.0 L 130.5 172.5 L 130.0 173.0 L 130.0 173.5 L 133.0 173.0 L 140.0 170.5 L 148.5 166.0 L 157.5 160.5 L 164.0 157.0 L 167.5 156.0 L 167.5 156.5 " stroke="black" fill="none" stroke-width="7.0" stroke-linecap="round" stroke-linejoin="round" />
<path d="M 151.5 151.5 L 151.5 152.5 L 151.5 155.0 L 151.5 161.0 L 151.5 169.5 L 151.0 180.0 L 151.0 187.0 " stroke="black" fill="none" stroke-width="7.0" stroke-linecap="round" stroke-linejoin="round" />
<path d="M 124.0 197.0 L 123.0 197.0 L 121.5 197.0 L 120.5 197.0 L 121.0 197.0 L 124.5 196.5 L 130.5 194.5 L 140.0 192.0 L 153.0 189.0 L 164.5 186.0 L 172.5 184.5 L 176.0 185.0 L 178.0 186.5 " stroke="black" fill="none" stroke-width="7.0" stroke-linecap="round" stroke-linejoin="round" />
</svg>