<svg xmlns="http://www.w3.org/2000/svg" width="300" height="300" viewBox="0 0 300 300">
<path d="M 111.0 108.5 L 111.0 108.5 L 109.5 109.0 L 108.0 109.5 L 108.0 109.5 L 109.0 109.5 L 114.0 108.0 L 119.5 105.5 L 129.0 99.5 L 133.5 96.0 L 137.0 93.5 L 137.5 93.0 " stroke="black" fill="none" stroke-width="7.0" stroke-linecap="round" stroke-linejoin="round" />
<path d="M 116.0 111.5 L 115.5 112.5 L 115.0 116.5 L 115.0 123.0 L 115.0 132.5 L 115.0 142.5 L 115.0 149.5 L 116.0 151.0 L 116.5 151.5 " stroke="black" fill="none" stroke-width="7.0" stroke-linecap="round" stroke-linejoin="round" />
<path d="M 131.0 102.0 L 131.0 102.5 L 130.5 103.0 L 130.5 106.0 L 131.0 115.0 L 132.5 132.0 L 133.0 153.0 L 133.0 173.0 L 133.0 186.0 L 132.0 194.0 L 131.0 199.5 L 129.5 201.0 L 129.0 200.0 " stroke="black" fill="none" stroke-width="7.0" stroke-linecap="round" stroke-linejoin="round" />
<path d="M 121.0 125.5 L 120.0 125.5 L 119.0 125.0 L 119.0 125.0 L 120.5 124.5 L 124.0 123.0 L 127.0 121.5 L 128.0 121.0 " stroke="black" fill="none" stroke-width="7.0" stroke-linecap="round" stroke-linejoin="round" />
<path d="M 118.0 137.5 L 118.0 138.5 L 119.0 139.0 L 120.5 139.0 L 123.5 138.5 L 126.5 136.5 L 127.5 135.5 " stroke="black" fill="none" stroke-width="7.0" stroke-linecap="round" stroke-linejoin="round" />
<path d="M 102.5 169.5 L 101.5 170.0 L 101.0 170.0 L 103.5 169.0 L 107.5 166.0 L 118.5 157.5 L 129.0 149.5 " stroke="black" fill="none" stroke-width="7.0" stroke-linecap="round" stroke-linejoin="round" />
<path d="M 148.0 105.0 L 148.0 105.0 L 147.5 105.0 L 147.0 105.5 L 147.0 105.5 L 148.0 105.5 L 149.5 105.5 L 151.0 105.5 L 151.0 106.0 " stroke="black" fill="none" stroke-width="7.0" stroke-linecap="round" stroke-linejoin="round" />
<path d="M 141.5 122.5 L 140.0 123.5 L 140.5 124.0 L 143.0 123.5 L 147.5 121.5 L 152.5 118.0 L 157.5 114.0 L 161.0 112.0 " stroke="black" fill="none" stroke-width="7.0" stroke-linecap="round" stroke-linejoin="round" />
<path d="M 147.5 125.5 L 147.5 129.0 L 147.5 134.0 L 148.0 140.0 L 148.5 144.5 L 149.0 146.5 " stroke="black" fill="none" stroke-width="7.0" stroke-linecap="round" stroke-linejoin="round" />
<path d="M 160.0 122.0 L 160.0 120.5 L 160.5 119.5 L 160.5 120.0 L 160.0 124.5 L 158.5 132.0 L 157.0 140.0 L 156.5 141.5 " stroke="black" fill="none" stroke-width="7.0" stroke-linecap="round" stroke-linejoin="round" />
<path d="M 138.5 152.5 L 138.0 152.5 L 136.5 152.5 L 136.0 152.5 L 136.0 152.0 L 139.0 151.5 L 144.5 149.5 L 152.5 146.5 L 164.5 142.0 L 176.0 137.0 L 184.5 133.0 L 188.5 132.0 L 189.5 132.5 " stroke="black" fill="none" stroke-width="7.0" stroke-linecap="round" stroke-linejoin="round" />
<path d="M 144.5 166.5 L 144.5 166.5 L 144.0 166.0 L 144.0 167.0 L 145.0 172.0 L 146.5 181.0 L 147.0 190.0 L 148.0 194.0 L 148.5 194.5 " stroke="black" fill="none" stroke-width="7.0" stroke-linecap="round" stroke-linejoin="round" />
<path d="M 150.5 162.5 L 150.5 162.0 L 150.5 161.0 L 151.5 160.5 L 153.0 160.0 L 156.0 159.0 L 159.0 158.0 L 162.0 157.5 L 164.0 158.0 L 164.5 161.5 L 165.0 167.5 L 165.0 175.5 L 165.0 184.5 L 164.0 192.0 L 163.5 196.5 L 163.0 197.0 " stroke="black" fill="none" stroke-width="7.0" stroke-linecap="round" stroke-linejoin="round" />
<path d="M 152.5 179.5 L 152.0 179.5 L 150.0 179.5 L 149.0 179.5 L 148.5 179.5 L 149.5 179.5 L 152.5 179.0 L 156.0 177.5 " stroke="black" fill="none" stroke-width="7.0" stroke-linecap="round" stroke-linejoin="round" />
<path d="M 150.0 194.0 L 148.5 196.0 L 148.0 196.5 L 150.0 196.0 L 154.5 193.0 L 161.0 188.5 " stroke="black" fill="none" stroke-width="7.0" stroke-linecap="round" stroke-linejoin="round" />
<path d="M 175.5 103.5 L 175.5 103.0 L 175.5 102.5 L 175.5 102.5 L 175.5 107.0 L 177.5 118.5 L 180.5 138.0 L 184.5 160.5 L 188.5 177.5 L 191.5 189.5 L 194.5 198.0 L 196.5 203.0 L 198.0 204.5 L 198.5 204.0 L 198.5 199.5 L 197.5 191.0 L 196.5 184.0 " stroke="black" fill="none" stroke-width="7.0" stroke-linecap="round" stroke-linejoin="round" />
<path d="M 195.0 144.5 L 194.5 144.5 L 193.5 145.5 L 191.0 151.0 L 186.0 164.5 L 178.0 181.5 L 172.0 195.0 L 168.5 202.0 L 167.5 203.0 " stroke="black" fill="none" stroke-width="7.0" stroke-linecap="round" stroke-linejoin="round" />
<path d="M 194.0 107.0 L 194.0 107.0 L 193.5 108.5 L 195.0 116.0 L 198.0 126.0 L 199.5 130.0 " stroke="black" fill="none" stroke-width="7.0" stroke-linecap="round" stroke-linejoin="round" />
</svg>