<svg xmlns="http://www.w3.org/2000/svg" width="300" height="300" viewBox="0 0 300 300">
<path d="M 123.0 105.0 L 120.5 105.5 L 118.5 105.5 L 118.5 105.5 L 120.0 105.5 L 124.5 104.5 L 130.0 102.0 L 136.0 99.0 L 141.0 97.0 L 142.0 97.0 " stroke="black" fill="none" stroke-width="7.0" stroke-linecap="round" stroke-linejoin="round" />
<path d="M 132.0 105.5 L 131.5 107.0 L 131.5 110.0 L 131.5 115.5 L 131.5 120.5 L 131.5 125.0 " stroke="black" fill="none" stroke-width="7.0" stroke-linecap="round" stroke-linejoin="round" />
<path d="M 119.5 133.0 L 119.5 133.0 L 118.0 133.5 L 117.5 133.5 L 118.0 133.5 L 121.0 133.5 L 125.0 131.5 L 129.5 129.5 L 135.5 126.5 L 142.0 124.5 L 146.0 123.5 L 147.5 124.0 L 147.0 127.0 L 144.5 131.5 L 141.5 137.5 L 138.5 143.0 L 137.5 145.0 " stroke="black" fill="none" stroke-width="7.0" stroke-linecap="round" stroke-linejoin="round" />
<path d="M 122.0 154.0 L 121.0 154.0 L 119.0 154.5 L 119.0 154.5 L 120.0 154.5 L 123.5 153.5 L 128.0 151.5 L 133.0 149.0 L 139.0 146.5 L 140.5 146.0 " stroke="black" fill="none" stroke-width="7.0" stroke-linecap="round" stroke-linejoin="round" />
<path d="M 130.0 155.0 L 129.5 156.5 L 129.5 160.0 L 129.5 165.5 L 129.5 172.0 L 129.5 176.0 " stroke="black" fill="none" stroke-width="7.0" stroke-linecap="round" stroke-linejoin="round" />
<path d="M 110.0 123.0 L 110.0 123.0 L 109.5 124.0 L 110.0 129.0 L 111.0 140.0 L 112.0 153.0 L 112.0 165.5 L 111.5 174.0 L 111.0 180.0 L 110.5 184.0 L 110.5 185.5 L 111.0 186.5 L 113.0 186.5 L 117.0 186.0 L 123.5 184.0 L 131.0 181.0 L 140.0 178.0 L 148.5 177.0 L 150.0 177.0 " stroke="black" fill="none" stroke-width="7.0" stroke-linecap="round" stroke-linejoin="round" />
<path d="M 164.0 96.0 L 164.0 96.0 L 164.5 95.5 L 164.5 95.0 L 164.5 97.0 L 164.5 100.0 L 164.5 104.0 L 162.5 108.5 L 160.0 113.0 L 158.0 115.0 L 157.5 115.5 L 158.0 114.5 L 161.0 112.5 L 165.5 110.0 L 170.5 106.5 L 176.0 103.5 L 180.0 101.5 L 180.5 101.5 " stroke="black" fill="none" stroke-width="7.0" stroke-linecap="round" stroke-linejoin="round" />
<path d="M 158.5 126.5 L 158.5 127.0 L 158.5 128.0 L 159.5 129.5 L 162.0 132.5 L 165.0 136.0 L 167.5 138.5 " stroke="black" fill="none" stroke-width="7.0" stroke-linecap="round" stroke-linejoin="round" />
<path d="M 165.0 126.5 L 166.5 125.0 L 169.0 123.5 L 172.0 121.5 L 176.0 120.0 L 179.5 119.5 L 181.0 120.0 L 181.0 122.5 L 178.5 126.5 L 175.5 131.0 L 172.0 135.0 L 170.0 138.0 L 169.5 138.0 L 170.5 137.0 L 174.0 134.0 L 177.5 131.5 " stroke="black" fill="none" stroke-width="7.0" stroke-linecap="round" stroke-linejoin="round" />
<path d="M 150.5 159.5 L 150.5 160.0 L 150.5 161.0 L 150.5 164.0 L 152.0 169.5 L 153.5 176.0 L 155.0 180.5 L 156.0 181.5 " stroke="black" fill="none" stroke-width="7.0" stroke-linecap="round" stroke-linejoin="round" />
<path d="M 154.0 166.5 L 154.0 166.0 L 154.0 164.5 L 155.0 162.5 L 158.0 161.0 L 162.0 159.5 L 166.5 158.5 L 169.5 159.0 L 170.5 161.5 L 170.0 165.5 L 168.5 170.5 L 165.5 175.5 L 163.0 179.0 L 161.0 181.0 L 160.0 181.0 L 160.5 180.5 L 162.5 178.5 L 165.5 176.5 L 169.0 175.0 " stroke="black" fill="none" stroke-width="7.0" stroke-linecap="round" stroke-linejoin="round" />
<path d="M 178.5 155.5 L 178.5 155.5 L 178.5 155.5 L 178.5 155.5 L 179.5 158.0 L 180.5 163.0 L 181.5 168.0 L 182.5 171.5 L 182.5 171.5 " stroke="black" fill="none" stroke-width="7.0" stroke-linecap="round" stroke-linejoin="round" />
<path d="M 182.5 158.0 L 182.5 158.0 L 182.5 157.5 L 183.5 157.0 L 186.0 156.5 L 190.0 155.0 L 194.0 153.5 L 197.0 153.5 L 199.0 155.0 L 199.0 159.0 L 198.0 163.5 L 195.5 168.0 L 193.0 172.0 L 190.5 175.0 L 189.0 176.0 L 188.5 176.0 L 188.5 176.0 L 188.5 175.0 L 190.5 174.5 L 192.5 174.0 L 194.0 173.5 " stroke="black" fill="none" stroke-width="7.0" stroke-linecap="round" stroke-linejoin="round" />
</svg>