<svg xmlns="http://www.w3.org/2000/svg" width="300" height="300" viewBox="0 0 300 300">
<path d="M 133.5 107.0 L 133.0 108.0 L 132.0 108.0 L 131.5 108.5 L 133.5 108.0 L 138.0 107.0 L 148.0 103.5 L 156.0 100.5 L 162.5 98.0 L 166.5 97.0 L 167.0 97.0 " stroke="black" fill="none" stroke-width="7.0" stroke-linecap="round" stroke-linejoin="round" />
<path d="M 151.5 106.0 L 151.5 106.5 L 150.5 108.0 L 150.0 110.5 L 150.0 113.5 L 150.0 121.0 L 150.0 127.0 L 150.0 131.5 L 150.0 133.0 " stroke="black" fill="none" stroke-width="7.0" stroke-linecap="round" stroke-linejoin="round" />
<path d="M 133.5 138.0 L 131.0 138.5 L 130.0 139.0 L 130.0 139.0 L 132.0 138.5 L 136.5 137.0 L 141.0 135.0 L 149.5 131.5 L 156.5 128.5 L 161.5 126.5 L 164.5 126.5 L 165.5 127.5 L 165.0 130.0 L 163.0 134.0 L 160.5 138.5 L 157.5 142.5 L 156.5 144.0 " stroke="black" fill="none" stroke-width="7.0" stroke-linecap="round" stroke-linejoin="round" />
<path d="M 137.0 157.0 L 134.5 158.0 L 132.5 159.0 L 131.5 159.5 L 131.0 159.5 L 132.5 159.5 L 137.0 157.5 L 143.5 154.5 L 150.5 151.0 L 155.5 148.5 L 162.0 147.0 L 163.0 147.0 " stroke="black" fill="none" stroke-width="7.0" stroke-linecap="round" stroke-linejoin="round" />
<path d="M 148.5 157.0 L 148.0 158.5 L 147.5 161.5 L 147.5 167.5 L 147.5 176.0 L 147.5 184.0 " stroke="black" fill="none" stroke-width="7.0" stroke-linecap="round" stroke-linejoin="round" />
<path d="M 121.5 122.0 L 121.5 122.5 L 121.5 123.0 L 121.5 125.0 L 122.5 130.0 L 124.0 139.5 L 124.5 151.0 L 125.0 163.0 L 125.0 169.0 L 124.5 177.5 L 124.0 183.0 L 124.0 187.0 L 123.5 189.5 L 123.0 191.0 L 123.0 191.5 L 123.5 192.0 L 126.0 192.0 L 128.0 191.5 L 133.0 190.5 L 142.5 188.5 L 151.5 187.0 L 160.0 185.5 L 168.5 184.5 L 173.0 184.5 L 176.0 184.5 L 176.0 185.0 " stroke="black" fill="none" stroke-width="7.0" stroke-linecap="round" stroke-linejoin="round" />
</svg>