<svg xmlns="http://www.w3.org/2000/svg" width="300" height="300" viewBox="0 0 300 300">
<path d="M 151.0 90.0 L 151.0 89.5 L 151.0 88.5 L 151.0 88.0 L 150.5 90.5 L 148.0 95.0 L 144.0 101.5 L 137.5 108.5 L 131.5 113.5 L 129.0 116.0 L 128.5 116.5 L 128.5 116.5 L 129.0 117.0 L 129.5 119.0 L 129.5 123.5 L 130.0 133.0 L 130.5 146.0 L 130.5 159.5 L 130.5 171.0 L 130.5 179.0 L 129.5 184.0 L 129.0 185.5 L 129.0 183.0 L 129.0 180.0 " stroke="black" fill="none" stroke-width="7.0" stroke-linecap="round" stroke-linejoin="round" />
<path d="M 135.0 126.0 L 135.0 125.5 L 135.0 124.5 L 137.0 123.0 L 142.5 120.5 L 149.5 116.5 L 157.0 114.0 L 163.0 112.5 L 166.0 114.0 L 167.0 118.0 L 167.0 125.0 L 167.0 135.5 L 167.0 148.5 L 167.5 162.0 L 167.5 170.5 L 167.0 176.0 L 166.5 178.0 L 165.5 177.5 L 164.0 175.0 L 162.5 172.5 " stroke="black" fill="none" stroke-width="7.0" stroke-linecap="round" stroke-linejoin="round" />
<path d="M 140.0 146.5 L 138.0 146.5 L 137.5 146.5 L 139.5 146.5 L 145.0 146.5 L 150.5 145.0 L 155.5 143.5 L 157.5 143.0 " stroke="black" fill="none" stroke-width="7.0" stroke-linecap="round" stroke-linejoin="round" />
<path d="M 136.0 164.5 L 134.5 165.5 L 135.0 166.0 L 140.0 166.0 L 147.0 164.5 L 153.5 161.0 L 158.5 159.0 " stroke="black" fill="none" stroke-width="7.0" stroke-linecap="round" stroke-linejoin="round" />
<path d="M 132.5 184.5 L 130.0 186.0 L 129.5 186.0 L 132.0 185.5 L 138.0 184.0 L 146.0 181.5 L 154.5 178.5 L 158.0 177.5 " stroke="black" fill="none" stroke-width="7.0" stroke-linecap="round" stroke-linejoin="round" />
</svg>