<svg xmlns="http://www.w3.org/2000/svg" width="300" height="300" viewBox="0 0 300 300">
<path d="M 122.5 113.5 L 121.0 115.0 L 120.0 115.5 L 120.5 115.5 L 123.5 114.5 L 128.0 111.0 L 133.0 107.5 L 138.0 104.5 " stroke="black" fill="none" stroke-width="7.0" stroke-linecap="round" stroke-linejoin="round" />
<path d="M 129.0 114.0 L 128.5 115.5 L 128.0 118.0 L 127.0 122.0 L 125.5 128.0 L 123.5 136.5 L 121.0 143.5 L 118.5 148.0 L 117.0 150.0 L 117.0 150.5 L 118.0 149.5 L 122.0 147.5 L 126.0 144.5 L 130.5 141.5 L 135.0 138.5 L 138.5 136.0 L 141.0 133.0 L 141.0 131.5 " stroke="black" fill="none" stroke-width="7.0" stroke-linecap="round" stroke-linejoin="round" />
<path d="M 140.0 128.0 L 140.5 128.0 L 140.5 127.5 L 141.0 127.5 L 141.5 128.0 L 143.5 131.5 L 145.5 136.5 L 147.0 141.5 L 148.5 146.0 " stroke="black" fill="none" stroke-width="7.0" stroke-linecap="round" stroke-linejoin="round" />
<path d="M 117.0 175.0 L 115.0 175.5 L 113.0 176.0 L 112.0 177.0 L 111.5 177.5 L 113.0 178.0 L 118.0 176.0 L 124.5 172.0 L 131.0 167.0 L 137.0 162.0 L 140.5 158.0 L 140.5 157.5 " stroke="black" fill="none" stroke-width="7.0" stroke-linecap="round" stroke-linejoin="round" />
<path d="M 130.0 150.0 L 130.0 150.0 L 129.5 149.5 L 129.5 149.0 L 129.0 151.5 L 129.5 158.5 L 130.5 169.0 L 131.0 178.5 L 131.0 185.0 " stroke="black" fill="none" stroke-width="7.0" stroke-linecap="round" stroke-linejoin="round" />
<path d="M 120.5 196.0 L 119.5 197.0 L 117.0 198.5 L 115.5 199.0 L 114.5 199.5 L 114.5 199.5 L 117.0 199.5 L 122.5 196.5 L 129.0 191.5 L 137.5 185.5 L 146.5 180.5 L 150.5 178.0 " stroke="black" fill="none" stroke-width="7.0" stroke-linecap="round" stroke-linejoin="round" />
<path d="M 168.5 111.5 L 168.5 110.5 L 168.5 109.5 L 168.5 109.0 L 168.5 109.0 L 168.5 112.5 L 168.0 117.0 L 166.5 122.0 L 163.5 127.5 L 161.0 130.5 L 159.5 131.5 L 160.0 131.0 L 163.0 129.0 L 167.0 127.0 L 171.0 124.5 L 174.5 122.5 L 177.5 120.5 L 179.0 119.0 L 180.0 118.5 L 180.0 118.5 L 180.0 118.5 L 180.0 120.0 L 180.0 121.5 L 180.0 124.5 L 179.5 129.5 L 178.0 138.0 L 175.0 148.5 L 171.5 160.5 L 167.5 171.0 L 162.5 179.5 L 157.5 186.0 L 154.0 189.5 L 152.0 191.5 " stroke="black" fill="none" stroke-width="7.0" stroke-linecap="round" stroke-linejoin="round" />
<path d="M 158.0 147.0 L 158.0 147.0 L 157.5 147.0 L 157.5 148.0 L 161.0 153.0 L 168.5 162.5 L 177.5 175.0 L 186.0 185.0 L 192.0 191.0 L 195.0 194.5 L 196.0 196.0 " stroke="black" fill="none" stroke-width="7.0" stroke-linecap="round" stroke-linejoin="round" />
</svg>