<svg xmlns="http://www.w3.org/2000/svg" width="300" height="300" viewBox="0 0 300 300">
<path d="M 131.0 92.0 L 131.0 92.0 L 131.0 91.5 L 131.5 93.5 L 133.5 100.5 L 136.5 110.0 L 139.0 117.5 L 139.5 120.0 " stroke="black" fill="none" stroke-width="7.0" stroke-linecap="round" stroke-linejoin="round" />
<path d="M 117.0 112.0 L 116.0 112.0 L 115.5 112.0 L 117.0 112.0 L 122.0 112.0 L 130.0 110.5 L 143.5 106.0 L 156.0 102.0 L 167.0 99.5 L 173.5 98.0 L 177.0 97.0 L 178.0 96.0 " stroke="black" fill="none" stroke-width="7.0" stroke-linecap="round" stroke-linejoin="round" />
<path d="M 170.0 82.0 L 169.5 83.0 L 169.0 86.0 L 169.0 94.5 L 169.0 105.5 L 169.0 116.5 " stroke="black" fill="none" stroke-width="7.0" stroke-linecap="round" stroke-linejoin="round" />
<path d="M 121.5 153.0 L 119.5 154.0 L 118.0 154.5 L 118.0 155.0 L 120.5 154.5 L 126.5 152.0 L 135.5 148.0 L 148.0 142.5 L 158.5 137.5 L 165.5 134.5 L 168.5 133.0 L 168.5 133.0 " stroke="black" fill="none" stroke-width="7.0" stroke-linecap="round" stroke-linejoin="round" />
<path d="M 151.0 123.0 L 150.5 123.0 L 149.5 123.0 L 149.0 124.5 L 148.5 129.5 L 147.0 139.5 L 142.0 152.5 L 133.5 167.0 L 125.0 179.0 L 116.0 188.0 L 109.5 193.0 " stroke="black" fill="none" stroke-width="7.0" stroke-linecap="round" stroke-linejoin="round" />
<path d="M 130.5 169.5 L 131.0 172.5 L 132.5 177.5 L 135.5 184.0 L 139.0 188.0 L 142.0 189.5 L 143.5 189.5 " stroke="black" fill="none" stroke-width="7.0" stroke-linecap="round" stroke-linejoin="round" />
<path d="M 141.5 172.0 L 141.5 171.5 L 141.5 170.5 L 144.5 168.5 L 149.5 166.0 L 156.0 162.5 L 163.0 160.0 L 168.5 160.0 L 170.0 161.0 L 170.5 164.5 L 168.5 170.0 L 165.5 175.5 L 160.5 182.0 L 154.5 187.0 L 150.0 189.5 L 147.0 191.0 L 146.5 191.0 L 146.5 190.0 L 149.5 187.5 L 155.0 184.5 L 162.0 182.0 L 169.5 181.0 " stroke="black" fill="none" stroke-width="7.0" stroke-linecap="round" stroke-linejoin="round" />
</svg>