<svg xmlns="http://www.w3.org/2000/svg" width="300" height="300" viewBox="0 0 300 300">
<path d="M 148.0 99.0 L 148.0 98.5 L 148.0 97.5 L 148.0 98.0 L 148.5 102.0 L 149.5 109.5 L 150.5 120.5 L 151.0 128.5 L 151.0 132.0 L 151.5 132.0 " stroke="black" fill="none" stroke-width="7.0" stroke-linecap="round" stroke-linejoin="round" />
<path d="M 151.5 115.5 L 151.5 114.5 L 152.0 113.5 L 154.5 112.0 L 159.5 110.0 L 164.5 108.0 L 166.5 107.5 " stroke="black" fill="none" stroke-width="7.0" stroke-linecap="round" stroke-linejoin="round" />
<path d="M 150.0 131.5 L 149.0 132.0 L 148.0 133.0 L 148.5 133.5 L 151.5 132.0 L 156.5 128.5 L 162.5 125.5 L 168.0 123.5 L 169.5 123.5 L 170.0 126.0 L 168.5 131.5 L 167.5 138.0 L 167.0 144.5 L 166.5 150.5 L 166.0 154.5 L 165.0 157.0 L 162.5 156.5 L 158.5 153.0 L 157.5 151.5 " stroke="black" fill="none" stroke-width="7.0" stroke-linecap="round" stroke-linejoin="round" />
<path d="M 150.5 134.5 L 150.5 132.0 L 150.5 130.5 L 150.5 133.0 L 150.5 139.0 L 149.5 147.0 L 147.5 154.5 L 146.5 158.0 " stroke="black" fill="none" stroke-width="7.0" stroke-linecap="round" stroke-linejoin="round" />
<path d="M 131.5 108.0 L 132.0 108.0 L 132.5 106.0 L 133.0 104.5 L 133.0 104.5 L 133.0 107.0 L 131.5 112.0 L 129.0 117.5 L 126.5 122.0 L 124.5 125.5 L 123.5 126.5 L 123.5 127.0 L 124.0 127.0 L 124.5 128.0 L 125.5 130.5 L 126.0 136.5 L 126.0 144.0 L 126.5 151.5 L 127.0 158.0 L 127.0 161.0 L 127.5 161.0 L 127.5 159.0 " stroke="black" fill="none" stroke-width="7.0" stroke-linecap="round" stroke-linejoin="round" />
<path d="M 128.0 137.0 L 128.0 136.0 L 128.0 135.0 L 128.5 133.5 L 131.0 132.0 L 136.0 129.5 L 140.5 127.0 " stroke="black" fill="none" stroke-width="7.0" stroke-linecap="round" stroke-linejoin="round" />
<path d="M 131.0 144.5 L 130.0 145.5 L 129.0 146.5 L 129.5 146.5 L 133.5 144.0 L 140.0 139.0 L 148.5 133.0 " stroke="black" fill="none" stroke-width="7.0" stroke-linecap="round" stroke-linejoin="round" />
<path d="M 180.5 108.5 L 179.5 108.5 L 179.0 109.0 L 179.0 109.0 L 181.5 108.0 L 185.0 107.0 L 189.0 105.5 L 192.0 104.5 L 194.0 104.5 L 194.5 106.0 L 194.5 111.0 L 194.0 118.0 L 193.5 128.5 L 193.0 141.0 L 192.5 149.5 L 192.0 154.0 L 192.0 155.0 L 192.0 155.0 " stroke="black" fill="none" stroke-width="7.0" stroke-linecap="round" stroke-linejoin="round" />
<path d="M 178.0 131.5 L 178.0 131.5 L 176.5 131.0 L 176.0 130.5 L 176.5 130.0 L 179.0 130.0 L 182.5 129.0 L 185.0 128.5 " stroke="black" fill="none" stroke-width="7.0" stroke-linecap="round" stroke-linejoin="round" />
<path d="M 175.5 141.0 L 175.5 141.5 L 175.5 142.5 L 178.0 142.5 L 182.0 141.5 L 186.0 140.5 " stroke="black" fill="none" stroke-width="7.0" stroke-linecap="round" stroke-linejoin="round" />
<path d="M 108.0 171.5 L 106.5 172.5 L 105.0 172.5 L 104.0 173.0 L 104.0 173.0 L 105.5 172.0 L 111.0 170.5 L 121.5 168.5 L 138.0 165.5 L 158.0 161.5 L 176.5 157.0 L 191.5 154.0 L 200.0 153.5 L 207.0 153.5 L 210.0 153.5 " stroke="black" fill="none" stroke-width="7.0" stroke-linecap="round" stroke-linejoin="round" />
<path d="M 155.5 168.0 L 154.5 168.0 L 153.0 169.0 L 151.0 172.0 L 147.5 178.5 L 140.5 187.0 L 132.0 194.0 L 128.5 196.0 " stroke="black" fill="none" stroke-width="7.0" stroke-linecap="round" stroke-linejoin="round" />
<path d="M 162.5 165.0 L 168.0 168.5 L 173.5 174.5 L 179.0 182.0 L 184.0 188.0 L 188.5 191.5 " stroke="black" fill="none" stroke-width="7.0" stroke-linecap="round" stroke-linejoin="round" />
</svg>