<svg xmlns="http://www.w3.org/2000/svg" width="300" height="300" viewBox="0 0 300 300">
<path d="M 131.0 86.5 L 131.0 86.5 L 131.0 86.5 L 131.0 88.0 L 132.5 92.0 L 134.5 98.0 L 136.0 103.5 L 136.5 108.0 L 136.5 109.5 " stroke="black" fill="none" stroke-width="7.0" stroke-linecap="round" stroke-linejoin="round" />
<path d="M 123.5 105.5 L 122.0 106.0 L 121.0 106.0 L 121.0 106.0 L 123.5 106.0 L 128.5 104.5 L 136.0 102.5 L 147.0 98.5 L 156.0 94.5 L 163.5 91.5 L 168.5 89.5 L 170.5 88.0 L 170.5 87.0 " stroke="black" fill="none" stroke-width="7.0" stroke-linecap="round" stroke-linejoin="round" />
<path d="M 161.0 79.0 L 161.0 79.5 L 160.5 83.0 L 160.5 89.0 L 161.0 99.0 L 161.0 108.5 L 161.0 111.0 " stroke="black" fill="none" stroke-width="7.0" stroke-linecap="round" stroke-linejoin="round" />
<path d="M 148.5 119.5 L 148.5 119.0 L 148.5 118.0 L 149.0 117.5 L 149.0 117.5 L 148.5 120.0 L 146.0 124.5 L 141.0 131.0 L 133.0 138.5 L 126.5 144.5 L 120.5 147.0 L 117.5 147.5 " stroke="black" fill="none" stroke-width="7.0" stroke-linecap="round" stroke-linejoin="round" />
<path d="M 145.0 125.0 L 146.0 126.5 L 148.0 128.0 L 152.0 130.0 L 158.0 131.0 L 166.0 131.5 L 172.0 131.5 L 174.5 131.5 L 175.0 131.5 " stroke="black" fill="none" stroke-width="7.0" stroke-linecap="round" stroke-linejoin="round" />
<path d="M 137.0 149.0 L 136.5 148.5 L 136.5 148.0 L 136.5 148.5 L 137.5 153.0 L 138.5 162.5 L 138.5 175.5 L 137.0 185.0 L 136.5 188.0 " stroke="black" fill="none" stroke-width="7.0" stroke-linecap="round" stroke-linejoin="round" />
<path d="M 160.5 137.0 L 160.5 137.0 L 160.5 137.0 L 161.0 139.5 L 162.0 149.5 L 163.0 168.0 L 163.0 186.5 L 162.5 198.5 L 163.0 205.5 L 163.0 206.5 " stroke="black" fill="none" stroke-width="7.0" stroke-linecap="round" stroke-linejoin="round" />
</svg>