<svg xmlns="http://www.w3.org/2000/svg" width="300" height="300" viewBox="0 0 300 300">
<path d="M 150.0 91.5 L 150.0 90.0 L 150.0 89.0 L 150.0 90.0 L 148.0 95.5 L 144.0 103.5 L 136.0 115.0 L 127.0 125.5 L 118.5 132.5 L 111.5 136.0 L 109.5 136.5 " stroke="black" fill="none" stroke-width="7.0" stroke-linecap="round" stroke-linejoin="round" />
<path d="M 147.5 97.0 L 149.0 98.0 L 151.5 99.5 L 156.0 101.5 L 162.5 103.5 L 169.5 104.5 L 173.5 105.5 L 174.0 105.5 " stroke="black" fill="none" stroke-width="7.0" stroke-linecap="round" stroke-linejoin="round" />
<path d="M 133.5 135.0 L 133.0 135.5 L 132.5 136.0 L 132.5 136.5 L 136.0 136.0 L 143.0 133.0 L 150.0 128.5 L 156.0 126.0 " stroke="black" fill="none" stroke-width="7.0" stroke-linecap="round" stroke-linejoin="round" />
<path d="M 131.5 155.5 L 131.0 156.0 L 130.0 156.5 L 131.0 156.5 L 135.5 154.5 L 143.5 151.5 L 152.5 148.0 L 160.0 145.0 L 163.0 144.0 " stroke="black" fill="none" stroke-width="7.0" stroke-linecap="round" stroke-linejoin="round" />
<path d="M 150.0 133.5 L 150.0 136.0 L 150.0 140.5 L 150.0 149.0 L 149.5 160.5 L 149.0 165.5 " stroke="black" fill="none" stroke-width="7.0" stroke-linecap="round" stroke-linejoin="round" />
<path d="M 117.5 184.5 L 117.5 184.5 L 117.5 184.5 L 117.5 184.5 L 120.0 186.5 L 124.5 190.0 L 129.0 193.5 L 133.0 195.5 L 134.5 195.5 " stroke="black" fill="none" stroke-width="7.0" stroke-linecap="round" stroke-linejoin="round" />
<path d="M 131.0 182.0 L 131.0 181.5 L 132.0 180.5 L 135.5 179.0 L 144.5 175.5 L 154.0 171.0 L 163.0 167.5 L 169.5 167.0 L 171.5 168.0 L 172.0 171.5 L 171.0 176.5 L 168.0 182.5 L 162.5 188.0 L 156.0 192.0 L 150.5 194.5 L 146.5 195.5 L 144.5 195.5 L 144.0 195.5 L 145.0 195.0 L 149.0 193.5 L 155.0 191.5 L 163.5 190.0 L 166.0 189.5 " stroke="black" fill="none" stroke-width="7.0" stroke-linecap="round" stroke-linejoin="round" />
</svg>