<svg xmlns="http://www.w3.org/2000/svg" width="300" height="300" viewBox="0 0 300 300">
<path d="M 135.0 101.0 L 135.0 101.0 L 135.0 100.0 L 135.0 99.5 L 135.0 101.5 L 136.5 109.0 L 137.5 120.5 L 137.0 132.5 L 136.0 141.0 L 136.0 143.5 L 136.0 142.0 " stroke="black" fill="none" stroke-width="7.0" stroke-linecap="round" stroke-linejoin="round" />
<path d="M 140.0 101.5 L 140.5 100.0 L 140.5 99.0 L 141.5 98.0 L 143.5 97.0 L 147.0 95.5 L 151.5 94.0 L 156.0 92.0 L 160.0 91.5 L 162.5 91.5 L 163.5 93.5 L 164.5 97.0 L 165.5 102.5 L 166.5 111.5 L 167.0 124.0 L 167.0 137.0 L 166.5 146.0 L 166.0 151.0 L 165.5 152.5 L 164.0 152.5 L 162.5 149.5 " stroke="black" fill="none" stroke-width="7.0" stroke-linecap="round" stroke-linejoin="round" />
<path d="M 148.5 114.5 L 147.5 114.5 L 147.0 114.5 L 147.0 114.5 L 149.0 114.5 L 152.0 112.5 L 153.0 112.0 " stroke="black" fill="none" stroke-width="7.0" stroke-linecap="round" stroke-linejoin="round" />
<path d="M 145.0 129.5 L 145.5 130.5 L 146.5 132.5 L 147.5 136.0 L 148.5 139.0 L 149.0 141.0 L 149.5 141.5 " stroke="black" fill="none" stroke-width="7.0" stroke-linecap="round" stroke-linejoin="round" />
<path d="M 149.0 127.0 L 149.0 127.0 L 148.5 127.5 L 148.0 128.0 L 148.0 128.5 L 150.0 128.5 L 152.5 128.0 L 155.0 127.0 L 157.0 126.5 L 158.0 127.5 L 157.5 131.0 L 155.5 136.5 L 153.5 140.5 L 152.0 142.5 L 151.5 143.0 L 151.0 142.5 L 151.0 142.0 L 152.0 141.5 L 153.5 140.5 L 154.5 140.0 " stroke="black" fill="none" stroke-width="7.0" stroke-linecap="round" stroke-linejoin="round" />
<path d="M 123.5 98.5 L 123.5 97.5 L 123.5 96.0 L 123.5 95.5 L 123.0 96.0 L 121.5 99.0 L 119.0 103.0 L 116.5 107.0 L 114.0 110.0 L 112.5 112.5 L 112.5 113.0 L 113.5 113.5 L 115.5 114.0 L 117.0 116.5 L 118.0 121.5 L 118.5 129.5 L 118.5 140.0 L 118.0 148.0 L 117.5 151.5 L 117.5 151.5 " stroke="black" fill="none" stroke-width="7.0" stroke-linecap="round" stroke-linejoin="round" />
<path d="M 119.5 121.5 L 118.5 121.5 L 117.5 121.5 L 117.5 121.5 L 120.5 120.5 L 124.5 118.0 L 127.0 116.0 " stroke="black" fill="none" stroke-width="7.0" stroke-linecap="round" stroke-linejoin="round" />
<path d="M 120.5 129.5 L 118.0 132.5 L 118.5 133.5 L 121.5 132.5 L 126.0 129.0 L 131.0 125.0 " stroke="black" fill="none" stroke-width="7.0" stroke-linecap="round" stroke-linejoin="round" />
<path d="M 174.0 102.0 L 173.5 102.0 L 172.5 102.0 L 172.5 101.5 L 173.0 100.5 L 176.0 99.0 L 179.5 97.0 L 183.0 95.5 L 185.5 95.0 L 187.0 95.5 L 187.5 98.5 L 187.5 103.5 L 187.5 111.5 L 187.0 123.0 L 185.5 134.5 L 185.0 142.5 L 185.0 145.0 L 185.0 144.5 L 185.0 143.0 " stroke="black" fill="none" stroke-width="7.0" stroke-linecap="round" stroke-linejoin="round" />
<path d="M 175.5 120.0 L 174.0 120.0 L 173.0 119.5 L 173.5 119.5 L 175.5 118.5 L 179.5 117.0 L 181.0 116.5 " stroke="black" fill="none" stroke-width="7.0" stroke-linecap="round" stroke-linejoin="round" />
<path d="M 173.0 128.0 L 172.5 128.5 L 172.5 129.0 L 174.0 129.0 L 177.5 128.0 L 181.5 127.0 " stroke="black" fill="none" stroke-width="7.0" stroke-linecap="round" stroke-linejoin="round" />
<path d="M 104.5 160.0 L 104.5 160.0 L 103.5 159.0 L 103.0 158.0 L 102.5 157.5 L 102.0 157.5 L 101.5 157.5 L 102.0 158.5 L 105.0 159.0 L 111.0 159.0 L 123.5 157.0 L 140.0 153.0 L 156.0 149.5 L 169.5 148.0 L 179.0 147.0 L 186.0 147.0 L 189.5 147.5 L 189.5 148.0 " stroke="black" fill="none" stroke-width="7.0" stroke-linecap="round" stroke-linejoin="round" />
<path d="M 150.5 152.5 L 150.0 152.5 L 149.0 152.5 L 147.5 154.0 L 144.5 159.0 L 138.5 167.5 L 131.5 178.0 L 126.5 184.5 " stroke="black" fill="none" stroke-width="7.0" stroke-linecap="round" stroke-linejoin="round" />
<path d="M 162.0 153.0 L 162.0 152.5 L 162.0 150.0 L 162.0 149.5 L 164.5 152.5 L 168.5 161.0 L 172.5 172.5 L 175.0 183.0 L 176.5 189.0 " stroke="black" fill="none" stroke-width="7.0" stroke-linecap="round" stroke-linejoin="round" />
</svg>