<svg xmlns="http://www.w3.org/2000/svg" width="300" height="300" viewBox="0 0 300 300">
<path d="M 145.5 100.0 L 144.5 100.0 L 144.0 100.0 L 144.5 100.0 L 146.5 100.5 L 149.0 101.0 L 151.0 101.5 " stroke="black" fill="none" stroke-width="7.0" stroke-linecap="round" stroke-linejoin="round" />
<path d="M 133.5 122.5 L 133.5 123.0 L 132.0 124.0 L 132.0 124.0 L 135.0 123.5 L 141.0 121.5 L 148.0 117.5 L 154.5 113.0 L 159.5 108.5 L 162.0 106.0 L 163.0 105.5 L 163.0 105.5 L 163.0 106.5 L 163.0 108.5 L 163.5 113.0 L 164.0 119.5 L 164.0 128.5 L 164.0 139.5 L 163.5 147.5 L 162.5 151.0 L 162.0 151.5 L 161.0 150.5 " stroke="black" fill="none" stroke-width="7.0" stroke-linecap="round" stroke-linejoin="round" />
<path d="M 140.5 139.0 L 139.5 139.5 L 138.5 140.0 L 140.0 140.0 L 144.0 138.5 L 147.5 136.5 L 152.0 133.0 L 154.0 132.0 " stroke="black" fill="none" stroke-width="7.0" stroke-linecap="round" stroke-linejoin="round" />
<path d="M 139.5 156.0 L 139.0 156.5 L 137.5 158.0 L 139.0 158.0 L 143.5 156.5 L 149.0 153.5 L 154.5 150.0 L 156.0 149.5 " stroke="black" fill="none" stroke-width="7.0" stroke-linecap="round" stroke-linejoin="round" />
<path d="M 133.0 135.5 L 132.5 137.5 L 132.5 142.0 L 133.0 151.0 L 133.5 164.0 L 134.0 177.0 L 133.0 188.5 L 131.5 197.5 L 130.5 204.5 L 130.5 207.0 L 131.5 207.5 L 133.0 206.5 L 135.5 204.0 L 137.5 201.0 L 141.5 196.5 L 146.0 190.5 L 150.5 185.5 " stroke="black" fill="none" stroke-width="7.0" stroke-linecap="round" stroke-linejoin="round" />
<path d="M 171.0 163.0 L 171.0 163.0 L 170.5 162.5 L 170.0 162.5 L 168.5 164.5 L 165.5 168.0 L 161.0 172.0 L 158.5 173.5 " stroke="black" fill="none" stroke-width="7.0" stroke-linecap="round" stroke-linejoin="round" />
<path d="M 148.0 171.5 L 148.0 172.0 L 147.5 172.0 L 147.5 172.5 L 149.0 173.5 L 152.0 175.5 L 158.0 178.5 L 166.0 182.5 L 174.0 187.0 L 182.0 189.5 L 190.0 191.0 L 196.0 191.5 L 200.0 191.5 L 201.5 191.0 " stroke="black" fill="none" stroke-width="7.0" stroke-linecap="round" stroke-linejoin="round" />
</svg>