<svg xmlns="http://www.w3.org/2000/svg" width="300" height="300" viewBox="0 0 300 300">
<path d="M 137.5 81.5 L 137.0 80.5 L 136.5 80.0 L 138.0 82.5 L 140.0 89.5 L 142.0 98.5 L 142.5 105.5 L 142.5 107.5 " stroke="black" fill="none" stroke-width="7.0" stroke-linecap="round" stroke-linejoin="round" />
<path d="M 127.0 100.0 L 125.0 100.5 L 124.5 100.5 L 126.0 100.5 L 130.5 99.0 L 137.0 96.5 L 139.0 95.5 " stroke="black" fill="none" stroke-width="7.0" stroke-linecap="round" stroke-linejoin="round" />
<path d="M 157.5 73.0 L 157.5 75.0 L 158.5 79.0 L 160.0 87.0 L 161.5 97.0 L 162.5 103.5 L 163.5 105.5 L 163.5 105.5 " stroke="black" fill="none" stroke-width="7.0" stroke-linecap="round" stroke-linejoin="round" />
<path d="M 165.5 92.0 L 165.5 91.5 L 167.5 89.0 L 170.5 87.5 L 173.5 86.5 L 175.0 86.0 " stroke="black" fill="none" stroke-width="7.0" stroke-linecap="round" stroke-linejoin="round" />
<path d="M 144.0 114.0 L 144.0 113.0 L 144.5 111.0 L 144.5 110.5 L 143.5 114.5 L 140.0 121.0 L 135.0 129.5 L 128.5 140.5 L 124.5 147.0 L 123.5 148.0 " stroke="black" fill="none" stroke-width="7.0" stroke-linecap="round" stroke-linejoin="round" />
<path d="M 133.0 132.0 L 133.5 132.0 L 135.5 132.5 L 137.0 138.0 L 137.0 147.5 L 136.5 158.5 L 136.5 166.0 L 137.0 167.5 " stroke="black" fill="none" stroke-width="7.0" stroke-linecap="round" stroke-linejoin="round" />
<path d="M 154.5 116.0 L 153.0 116.5 L 152.5 117.0 L 154.0 117.5 L 157.0 118.0 L 161.0 118.5 L 161.5 118.5 " stroke="black" fill="none" stroke-width="7.0" stroke-linecap="round" stroke-linejoin="round" />
<path d="M 150.0 133.0 L 149.0 134.0 L 149.0 134.5 L 151.0 134.5 L 155.0 132.5 L 160.5 130.0 L 166.0 127.5 " stroke="black" fill="none" stroke-width="7.0" stroke-linecap="round" stroke-linejoin="round" />
<path d="M 151.0 145.5 L 150.0 147.0 L 150.0 147.5 L 152.5 146.5 L 158.0 143.5 L 164.5 140.5 " stroke="black" fill="none" stroke-width="7.0" stroke-linecap="round" stroke-linejoin="round" />
<path d="M 153.0 154.5 L 151.5 155.5 L 151.0 156.5 L 152.5 156.5 L 156.5 154.0 L 162.5 151.0 L 165.5 149.5 " stroke="black" fill="none" stroke-width="7.0" stroke-linecap="round" stroke-linejoin="round" />
<path d="M 159.0 133.5 L 159.0 135.0 L 158.5 138.0 L 159.0 144.5 L 159.0 152.0 L 159.0 160.0 L 158.5 162.5 " stroke="black" fill="none" stroke-width="7.0" stroke-linecap="round" stroke-linejoin="round" />
<path d="M 148.0 169.5 L 146.5 170.5 L 145.0 171.0 L 144.5 171.0 L 146.5 171.0 L 151.0 169.5 L 158.5 167.0 L 167.5 164.5 L 174.5 163.5 " stroke="black" fill="none" stroke-width="7.0" stroke-linecap="round" stroke-linejoin="round" />
<path d="M 137.5 181.5 L 137.5 181.5 L 137.5 181.5 L 137.0 181.5 L 137.0 181.0 L 136.5 181.0 L 135.0 182.0 L 132.5 184.5 L 128.5 188.0 L 125.0 191.0 L 123.0 192.5 L 122.5 193.0 L 122.5 193.0 L 123.5 193.0 L 125.0 195.0 L 125.5 200.0 L 126.5 206.5 L 126.5 212.0 L 127.0 215.0 L 127.0 216.5 L 127.0 216.5 " stroke="black" fill="none" stroke-width="7.0" stroke-linecap="round" stroke-linejoin="round" />
<path d="M 129.5 205.0 L 129.5 205.0 L 129.0 204.5 L 128.0 204.0 L 128.0 204.0 L 129.0 202.5 L 134.5 200.5 L 142.5 197.0 L 144.5 196.5 " stroke="black" fill="none" stroke-width="7.0" stroke-linecap="round" stroke-linejoin="round" />
<path d="M 162.5 180.0 L 162.0 180.0 L 162.0 179.5 L 162.0 179.5 L 163.0 179.0 L 166.0 179.0 L 170.0 178.0 L 173.5 177.0 L 176.5 176.5 L 178.0 177.0 L 178.5 179.0 L 179.0 182.5 L 179.0 188.5 L 178.5 195.5 L 178.0 204.0 L 177.0 209.5 L 176.0 212.5 L 175.5 214.0 L 175.0 213.5 " stroke="black" fill="none" stroke-width="7.0" stroke-linecap="round" stroke-linejoin="round" />
<path d="M 163.0 195.0 L 162.5 195.0 L 162.0 195.5 L 161.5 195.5 L 164.0 195.5 L 168.0 194.5 L 172.0 193.0 L 173.5 192.5 " stroke="black" fill="none" stroke-width="7.0" stroke-linecap="round" stroke-linejoin="round" />
<path d="M 131.5 219.5 L 131.0 220.0 L 130.0 220.5 L 129.5 221.0 L 130.0 221.0 L 133.5 221.5 L 141.0 221.0 L 150.5 219.0 L 161.0 217.0 L 170.5 215.0 L 174.0 214.5 " stroke="black" fill="none" stroke-width="7.0" stroke-linecap="round" stroke-linejoin="round" />
</svg>