<svg xmlns="http://www.w3.org/2000/svg" width="300" height="300" viewBox="0 0 300 300">
<path d="M 132.5 97.5 L 132.5 97.5 L 132.5 97.5 L 133.0 100.0 L 135.0 106.0 L 138.0 113.5 L 139.5 119.5 L 140.5 122.5 L 140.5 123.5 " stroke="black" fill="none" stroke-width="7.0" stroke-linecap="round" stroke-linejoin="round" />
<path d="M 122.5 116.0 L 122.0 116.0 L 120.0 116.0 L 119.0 116.0 L 120.5 116.0 L 125.0 115.5 L 132.5 113.0 L 145.0 107.5 L 157.0 102.5 L 166.0 99.0 L 171.0 98.0 L 171.5 97.0 L 171.5 97.0 " stroke="black" fill="none" stroke-width="7.0" stroke-linecap="round" stroke-linejoin="round" />
<path d="M 162.5 86.5 L 162.0 87.5 L 161.0 91.5 L 161.0 98.0 L 161.5 106.0 L 162.0 115.0 " stroke="black" fill="none" stroke-width="7.0" stroke-linecap="round" stroke-linejoin="round" />
<path d="M 127.0 145.0 L 126.5 145.0 L 126.5 145.0 L 126.5 147.0 L 128.5 151.0 L 131.0 156.0 L 133.0 160.0 L 134.5 161.5 L 135.0 161.5 " stroke="black" fill="none" stroke-width="7.0" stroke-linecap="round" stroke-linejoin="round" />
<path d="M 132.0 142.0 L 132.0 141.0 L 133.0 139.0 L 136.0 137.5 L 143.5 134.5 L 152.0 130.5 L 159.5 126.5 L 165.5 125.0 L 169.0 125.0 L 170.5 126.5 L 171.0 130.0 L 171.0 135.5 L 170.0 142.0 L 168.5 148.0 L 166.5 153.5 L 164.5 157.0 L 162.5 158.0 " stroke="black" fill="none" stroke-width="7.0" stroke-linecap="round" stroke-linejoin="round" />
<path d="M 141.5 148.0 L 140.5 148.0 L 139.0 148.0 L 139.0 148.0 L 142.0 147.5 L 147.0 146.5 L 152.0 144.5 L 157.0 142.5 L 159.5 142.0 " stroke="black" fill="none" stroke-width="7.0" stroke-linecap="round" stroke-linejoin="round" />
<path d="M 140.0 165.0 L 139.0 165.0 L 138.0 165.0 L 137.0 165.5 L 137.0 165.5 L 138.5 165.5 L 143.0 164.0 L 149.0 161.5 L 155.0 159.0 L 157.5 158.5 " stroke="black" fill="none" stroke-width="7.0" stroke-linecap="round" stroke-linejoin="round" />
<path d="M 124.0 190.5 L 123.0 191.0 L 121.5 191.5 L 120.0 192.0 L 119.5 192.0 L 119.5 192.0 L 122.5 191.5 L 127.0 190.0 L 134.0 187.0 L 145.5 182.5 L 158.0 176.0 L 167.5 171.5 L 172.5 170.0 L 173.5 168.5 " stroke="black" fill="none" stroke-width="7.0" stroke-linecap="round" stroke-linejoin="round" />
<path d="M 151.5 165.5 L 151.5 165.0 L 151.5 164.5 L 151.5 164.5 L 151.5 166.5 L 151.0 172.5 L 149.0 184.5 L 143.0 198.0 L 134.5 209.5 L 127.5 215.5 L 124.0 217.0 " stroke="black" fill="none" stroke-width="7.0" stroke-linecap="round" stroke-linejoin="round" />
<path d="M 152.5 181.5 L 152.5 181.5 L 151.5 181.0 L 151.0 180.5 L 151.5 181.5 L 154.5 185.0 L 160.5 191.0 L 168.5 199.5 L 174.0 207.0 L 178.0 212.5 L 181.5 216.0 L 182.5 217.0 " stroke="black" fill="none" stroke-width="7.0" stroke-linecap="round" stroke-linejoin="round" />
</svg>