<svg xmlns="http://www.w3.org/2000/svg" width="300" height="300" viewBox="0 0 300 300">
<path d="M 133.0 85.0 L 133.0 84.5 L 133.0 83.5 L 133.0 83.5 L 133.5 87.5 L 134.0 96.0 L 134.5 106.0 L 135.5 114.5 L 136.0 117.5 " stroke="black" fill="none" stroke-width="7.0" stroke-linecap="round" stroke-linejoin="round" />
<path d="M 118.5 101.5 L 118.0 101.5 L 116.0 102.0 L 116.0 102.5 L 121.0 102.5 L 128.5 101.5 L 139.5 99.5 L 153.0 96.5 L 165.0 93.0 L 172.5 91.0 L 174.5 90.5 L 175.0 90.5 L 175.0 91.0 " stroke="black" fill="none" stroke-width="7.0" stroke-linecap="round" stroke-linejoin="round" />
<path d="M 162.0 78.5 L 161.0 79.5 L 160.5 82.5 L 160.5 90.0 L 161.0 102.0 L 161.0 114.0 " stroke="black" fill="none" stroke-width="7.0" stroke-linecap="round" stroke-linejoin="round" />
<path d="M 119.0 135.0 L 118.5 135.0 L 117.5 135.0 L 117.0 135.0 L 119.0 138.0 L 123.0 143.5 L 127.5 151.0 L 130.0 156.5 L 131.5 158.5 L 131.5 158.5 " stroke="black" fill="none" stroke-width="7.0" stroke-linecap="round" stroke-linejoin="round" />
<path d="M 128.5 130.5 L 127.5 130.5 L 126.0 130.5 L 125.5 130.0 L 125.5 130.0 L 127.0 129.5 L 131.5 129.0 L 140.0 127.0 L 150.0 124.5 L 159.0 122.5 L 166.5 122.5 L 171.5 123.5 L 173.0 125.5 L 173.0 130.0 L 172.0 137.5 L 170.0 145.0 L 167.5 152.0 L 165.0 158.0 " stroke="black" fill="none" stroke-width="7.0" stroke-linecap="round" stroke-linejoin="round" />
<path d="M 135.0 143.5 L 134.0 143.5 L 133.0 143.5 L 132.5 144.0 L 133.0 144.0 L 137.0 144.0 L 144.0 143.0 L 151.0 140.5 L 158.0 138.5 L 162.0 137.0 L 163.0 137.0 " stroke="black" fill="none" stroke-width="7.0" stroke-linecap="round" stroke-linejoin="round" />
<path d="M 132.5 163.0 L 132.0 163.0 L 130.5 164.0 L 130.5 164.5 L 133.0 164.5 L 138.5 163.5 L 147.0 161.5 L 155.0 159.0 L 162.5 157.0 L 164.0 157.0 " stroke="black" fill="none" stroke-width="7.0" stroke-linecap="round" stroke-linejoin="round" />
<path d="M 113.5 191.0 L 111.5 191.5 L 110.0 191.5 L 110.0 192.0 L 111.5 192.0 L 116.0 191.0 L 123.5 189.5 L 134.0 187.5 L 149.0 184.0 L 163.0 180.0 L 172.5 178.0 L 176.5 177.5 L 178.5 177.5 L 178.5 178.5 " stroke="black" fill="none" stroke-width="7.0" stroke-linecap="round" stroke-linejoin="round" />
<path d="M 150.5 164.5 L 150.5 164.0 L 150.0 164.0 L 150.0 168.0 L 151.0 180.0 L 151.5 196.5 L 151.0 213.0 L 151.0 220.5 " stroke="black" fill="none" stroke-width="7.0" stroke-linecap="round" stroke-linejoin="round" />
</svg>