<svg xmlns="http://www.w3.org/2000/svg" width="300" height="300" viewBox="0 0 300 300">
<path d="M 135.5 83.5 L 135.5 83.5 L 135.0 84.0 L 135.5 87.0 L 138.0 94.0 L 140.5 101.0 L 141.0 105.5 L 141.5 108.0 " stroke="black" fill="none" stroke-width="7.0" stroke-linecap="round" stroke-linejoin="round" />
<path d="M 126.0 103.0 L 125.0 103.5 L 123.0 104.0 L 123.0 104.0 L 126.0 103.0 L 132.0 101.0 L 142.5 98.0 L 154.0 93.0 L 163.5 89.0 L 168.0 86.5 L 169.0 84.5 " stroke="black" fill="none" stroke-width="7.0" stroke-linecap="round" stroke-linejoin="round" />
<path d="M 160.5 74.5 L 160.5 79.5 L 161.5 87.0 L 162.5 98.0 L 163.0 105.5 " stroke="black" fill="none" stroke-width="7.0" stroke-linecap="round" stroke-linejoin="round" />
<path d="M 159.5 115.0 L 159.5 114.5 L 160.0 113.5 L 160.5 113.0 L 159.5 113.0 L 155.5 115.5 L 149.0 120.0 L 139.0 125.0 L 131.0 128.5 " stroke="black" fill="none" stroke-width="7.0" stroke-linecap="round" stroke-linejoin="round" />
<path d="M 128.5 136.5 L 128.5 136.5 L 128.5 137.0 L 129.5 138.0 L 133.0 139.5 L 139.0 140.5 L 140.5 141.0 " stroke="black" fill="none" stroke-width="7.0" stroke-linecap="round" stroke-linejoin="round" />
<path d="M 150.0 131.0 L 150.0 131.5 L 150.5 132.0 L 151.0 132.5 L 152.0 132.5 " stroke="black" fill="none" stroke-width="7.0" stroke-linecap="round" stroke-linejoin="round" />
<path d="M 165.0 124.5 L 165.0 124.5 L 166.0 124.5 L 167.0 124.0 L 167.5 125.0 L 166.0 128.5 L 161.0 135.5 L 159.5 137.5 " stroke="black" fill="none" stroke-width="7.0" stroke-linecap="round" stroke-linejoin="round" />
<path d="M 121.5 170.0 L 120.0 170.5 L 118.5 171.0 L 118.5 171.0 L 120.5 171.0 L 126.0 169.0 L 134.5 165.0 L 148.5 159.5 L 160.5 153.5 L 167.0 151.0 L 169.0 150.0 L 169.0 150.0 " stroke="black" fill="none" stroke-width="7.0" stroke-linecap="round" stroke-linejoin="round" />
<path d="M 152.0 145.5 L 152.0 147.0 L 151.5 151.5 L 151.5 160.5 L 151.5 172.5 L 151.5 185.5 L 151.5 193.0 L 151.0 197.0 L 150.5 198.0 L 149.5 195.0 L 149.0 192.0 " stroke="black" fill="none" stroke-width="7.0" stroke-linecap="round" stroke-linejoin="round" />
<path d="M 147.0 167.0 L 147.0 165.5 L 146.5 164.5 L 146.0 164.5 L 144.5 167.5 L 141.5 172.0 L 136.5 178.0 L 130.0 184.5 L 123.5 189.5 L 118.0 191.0 L 115.0 191.0 " stroke="black" fill="none" stroke-width="7.0" stroke-linecap="round" stroke-linejoin="round" />
<path d="M 148.5 164.0 L 149.0 165.0 L 153.0 168.5 L 159.5 174.0 L 168.5 180.0 L 174.5 185.0 L 179.5 189.0 L 185.0 191.0 L 185.5 191.5 " stroke="black" fill="none" stroke-width="7.0" stroke-linecap="round" stroke-linejoin="round" />
</svg>