<svg xmlns="http://www.w3.org/2000/svg" width="300" height="300" viewBox="0 0 300 300">
<path d="M 136.5 71.5 L 137.0 70.5 L 137.0 70.0 L 138.0 72.5 L 139.5 78.5 L 142.0 87.0 L 143.5 95.5 L 143.5 98.5 " stroke="black" fill="none" stroke-width="7.0" stroke-linecap="round" stroke-linejoin="round" />
<path d="M 128.5 92.0 L 128.0 92.0 L 126.0 92.5 L 124.5 92.5 L 124.5 92.5 L 125.5 92.5 L 130.0 91.0 L 138.0 88.0 L 149.5 84.0 L 162.5 80.0 L 172.0 77.5 L 176.5 76.0 L 179.0 75.0 " stroke="black" fill="none" stroke-width="7.0" stroke-linecap="round" stroke-linejoin="round" />
<path d="M 171.0 62.5 L 170.5 64.0 L 170.0 67.5 L 170.0 74.5 L 170.5 84.0 L 171.0 92.5 " stroke="black" fill="none" stroke-width="7.0" stroke-linecap="round" stroke-linejoin="round" />
<path d="M 147.5 109.5 L 147.0 109.5 L 146.5 109.5 L 146.5 110.0 L 147.0 111.0 L 149.0 111.5 L 150.0 112.0 " stroke="black" fill="none" stroke-width="7.0" stroke-linecap="round" stroke-linejoin="round" />
<path d="M 127.0 128.0 L 124.0 130.0 L 122.5 131.0 L 122.5 131.0 L 124.0 131.0 L 128.5 129.5 L 136.5 126.5 L 147.5 122.0 L 158.0 117.0 L 165.5 113.5 L 167.0 113.5 " stroke="black" fill="none" stroke-width="7.0" stroke-linecap="round" stroke-linejoin="round" />
<path d="M 139.5 125.0 L 139.5 126.0 L 138.5 127.5 L 138.0 130.5 L 137.5 136.0 L 137.5 142.5 L 137.5 148.5 L 137.0 151.5 L 137.0 154.0 L 138.0 154.5 L 140.0 154.5 L 147.5 152.0 L 154.5 148.5 L 162.0 145.5 L 168.5 144.0 L 169.0 144.0 " stroke="black" fill="none" stroke-width="7.0" stroke-linecap="round" stroke-linejoin="round" />
<path d="M 125.5 161.5 L 125.5 161.0 L 125.5 161.0 L 126.0 166.0 L 126.0 176.0 L 125.5 188.0 L 123.5 194.5 L 122.5 196.5 " stroke="black" fill="none" stroke-width="7.0" stroke-linecap="round" stroke-linejoin="round" />
<path d="M 150.5 163.5 L 150.5 163.0 L 150.0 162.5 L 150.0 162.5 L 150.0 166.0 L 150.5 174.5 L 150.5 187.0 L 150.5 195.5 L 150.5 196.5 " stroke="black" fill="none" stroke-width="7.0" stroke-linecap="round" stroke-linejoin="round" />
<path d="M 170.0 159.0 L 170.0 159.0 L 170.5 158.0 L 170.5 158.0 L 171.0 159.0 L 171.5 163.5 L 172.0 171.0 L 172.5 180.5 L 173.5 188.5 L 176.0 192.5 L 180.0 193.5 L 186.0 193.5 L 192.0 192.5 L 196.0 192.0 L 196.5 192.0 " stroke="black" fill="none" stroke-width="7.0" stroke-linecap="round" stroke-linejoin="round" />
</svg>