<svg xmlns="http://www.w3.org/2000/svg" width="300" height="300" viewBox="0 0 300 300">
<path d="M 134.5 84.5 L 134.5 87.0 L 134.5 91.5 L 136.5 99.5 L 137.5 107.5 L 138.0 113.5 L 138.5 116.5 " stroke="black" fill="none" stroke-width="7.0" stroke-linecap="round" stroke-linejoin="round" />
<path d="M 120.5 107.5 L 119.0 108.0 L 116.5 108.0 L 116.5 108.0 L 118.5 108.0 L 124.0 107.0 L 131.5 105.0 L 142.5 102.0 L 154.5 97.5 L 163.5 95.0 L 169.5 94.0 L 171.0 93.0 L 171.5 92.5 " stroke="black" fill="none" stroke-width="7.0" stroke-linecap="round" stroke-linejoin="round" />
<path d="M 160.5 84.5 L 160.0 87.0 L 160.0 92.0 L 160.0 100.0 L 160.0 108.0 L 160.0 112.5 " stroke="black" fill="none" stroke-width="7.0" stroke-linecap="round" stroke-linejoin="round" />
<path d="M 123.5 133.0 L 123.0 132.5 L 122.0 131.5 L 122.0 131.5 L 122.5 132.5 L 124.5 137.5 L 126.5 143.5 L 128.5 149.0 L 130.0 152.0 L 130.5 152.0 " stroke="black" fill="none" stroke-width="7.0" stroke-linecap="round" stroke-linejoin="round" />
<path d="M 127.0 134.0 L 127.5 133.0 L 128.5 131.5 L 131.0 129.5 L 137.5 127.0 L 146.5 124.0 L 153.0 121.0 L 157.5 119.0 L 161.5 118.0 L 163.5 118.5 L 164.5 120.0 L 164.5 124.0 L 164.0 129.5 L 162.5 136.0 L 160.5 141.5 L 158.5 145.0 L 157.5 146.0 " stroke="black" fill="none" stroke-width="7.0" stroke-linecap="round" stroke-linejoin="round" />
<path d="M 139.0 140.0 L 136.5 140.0 L 135.0 140.0 L 135.0 140.0 L 137.5 140.0 L 142.0 138.5 L 147.0 136.5 L 151.0 134.0 L 153.5 132.5 " stroke="black" fill="none" stroke-width="7.0" stroke-linecap="round" stroke-linejoin="round" />
<path d="M 134.5 150.5 L 133.5 151.0 L 132.0 152.0 L 133.0 152.5 L 137.5 152.5 L 144.5 149.5 L 151.5 146.5 L 157.0 144.0 L 158.0 143.5 " stroke="black" fill="none" stroke-width="7.0" stroke-linecap="round" stroke-linejoin="round" />
<path d="M 117.5 159.0 L 117.5 159.0 L 117.5 160.0 L 118.0 164.0 L 119.5 172.5 L 121.0 181.5 L 122.0 187.0 L 122.0 188.5 L 122.0 188.5 " stroke="black" fill="none" stroke-width="7.0" stroke-linecap="round" stroke-linejoin="round" />
<path d="M 113.0 172.0 L 113.0 172.0 L 112.0 172.0 L 112.0 171.5 L 113.0 171.0 L 117.5 169.5 L 125.0 167.5 L 134.0 164.0 L 145.0 160.5 L 153.5 157.0 L 160.0 155.0 L 166.5 154.0 L 170.5 154.0 L 173.0 155.5 L 174.5 158.0 L 176.5 162.0 L 177.0 167.5 L 177.5 175.0 L 177.0 183.0 L 176.0 189.0 L 174.5 192.5 L 172.5 194.5 L 169.5 194.5 L 165.5 192.0 " stroke="black" fill="none" stroke-width="7.0" stroke-linecap="round" stroke-linejoin="round" />
<path d="M 144.5 128.0 L 143.5 128.0 L 143.5 129.5 L 143.5 134.5 L 145.0 145.0 L 145.5 158.0 L 145.0 168.0 L 143.5 174.0 L 141.5 178.5 " stroke="black" fill="none" stroke-width="7.0" stroke-linecap="round" stroke-linejoin="round" />
<path d="M 134.5 182.0 L 134.0 181.5 L 133.0 181.5 L 132.5 181.0 L 132.5 181.0 L 135.5 181.0 L 141.5 180.0 L 148.0 177.5 L 154.0 174.0 L 158.5 172.0 L 160.0 172.0 " stroke="black" fill="none" stroke-width="7.0" stroke-linecap="round" stroke-linejoin="round" />
<path d="M 161.0 166.5 L 161.0 167.0 L 161.0 167.5 L 161.0 169.0 L 163.0 172.5 L 165.5 177.5 L 167.5 182.5 L 168.0 184.0 " stroke="black" fill="none" stroke-width="7.0" stroke-linecap="round" stroke-linejoin="round" />
</svg>