<svg xmlns="http://www.w3.org/2000/svg" width="300" height="300" viewBox="0 0 300 300">
<path d="M 132.5 71.5 L 131.5 70.5 L 131.0 70.5 L 131.5 73.5 L 133.0 79.5 L 134.0 89.0 L 134.5 97.0 L 134.5 100.5 L 134.5 100.5 " stroke="black" fill="none" stroke-width="7.0" stroke-linecap="round" stroke-linejoin="round" />
<path d="M 120.0 89.0 L 118.5 89.5 L 117.5 89.5 L 118.0 89.5 L 123.0 89.5 L 130.5 87.5 L 142.5 84.0 L 154.5 80.0 L 163.5 77.5 L 169.5 76.0 L 172.0 75.0 L 172.5 74.5 " stroke="black" fill="none" stroke-width="7.0" stroke-linecap="round" stroke-linejoin="round" />
<path d="M 166.5 61.5 L 165.0 64.0 L 165.0 69.0 L 165.5 78.5 L 165.5 89.0 L 165.0 98.0 " stroke="black" fill="none" stroke-width="7.0" stroke-linecap="round" stroke-linejoin="round" />
<path d="M 135.5 118.5 L 134.0 118.5 L 133.0 118.5 L 133.0 118.5 L 136.0 118.0 L 142.0 116.0 L 149.0 113.0 L 154.5 110.0 L 157.0 108.0 " stroke="black" fill="none" stroke-width="7.0" stroke-linecap="round" stroke-linejoin="round" />
<path d="M 148.5 101.0 L 148.5 102.0 L 148.5 103.5 L 148.5 107.5 L 149.0 114.0 L 149.0 120.5 L 149.0 123.0 " stroke="black" fill="none" stroke-width="7.0" stroke-linecap="round" stroke-linejoin="round" />
<path d="M 122.5 137.5 L 122.0 138.0 L 120.0 138.0 L 118.5 138.5 L 118.0 138.5 L 119.0 138.5 L 123.5 138.0 L 130.0 135.5 L 140.5 132.0 L 154.0 126.5 L 164.0 123.5 L 169.5 122.5 L 171.0 122.5 L 171.0 123.0 " stroke="black" fill="none" stroke-width="7.0" stroke-linecap="round" stroke-linejoin="round" />
<path d="M 150.0 132.5 L 149.5 132.5 L 149.0 133.5 L 148.0 135.5 L 147.0 138.0 L 145.0 142.0 L 142.0 147.0 L 137.5 152.0 L 133.0 156.0 L 130.5 158.5 L 129.5 159.5 L 129.5 159.5 L 131.5 158.5 L 135.0 156.5 L 140.5 153.5 L 147.0 150.5 L 153.5 147.0 L 160.0 145.5 L 164.5 144.0 L 166.0 143.5 " stroke="black" fill="none" stroke-width="7.0" stroke-linecap="round" stroke-linejoin="round" />
<path d="M 164.5 140.0 L 164.5 140.0 L 164.5 139.5 L 165.0 140.0 L 166.5 142.0 L 168.5 146.5 L 170.0 152.0 " stroke="black" fill="none" stroke-width="7.0" stroke-linecap="round" stroke-linejoin="round" />
<path d="M 116.0 174.0 L 116.0 174.0 L 116.0 174.5 L 117.0 176.5 L 119.5 180.0 L 122.5 183.5 L 124.5 186.5 L 125.0 186.5 " stroke="black" fill="none" stroke-width="7.0" stroke-linecap="round" stroke-linejoin="round" />
<path d="M 124.5 174.0 L 125.0 174.0 L 126.5 173.0 L 130.5 171.5 L 138.5 169.5 L 149.0 166.5 L 157.5 164.0 L 164.5 162.5 L 169.5 162.0 L 172.0 162.5 L 173.0 164.0 L 174.0 166.5 L 174.0 171.0 L 172.5 176.5 L 170.0 182.5 L 166.5 187.5 " stroke="black" fill="none" stroke-width="7.0" stroke-linecap="round" stroke-linejoin="round" />
<path d="M 141.5 170.5 L 141.5 170.5 L 141.0 170.5 L 140.5 171.0 L 140.5 174.0 L 140.5 179.5 L 141.0 185.0 L 141.0 186.0 " stroke="black" fill="none" stroke-width="7.0" stroke-linecap="round" stroke-linejoin="round" />
<path d="M 154.0 167.5 L 154.0 167.5 L 154.5 168.5 L 154.5 172.0 L 154.0 178.0 L 153.0 184.5 " stroke="black" fill="none" stroke-width="7.0" stroke-linecap="round" stroke-linejoin="round" />
<path d="M 109.0 198.0 L 107.5 198.5 L 106.5 198.5 L 106.5 198.5 L 108.0 198.5 L 113.5 198.5 L 123.5 198.0 L 137.0 195.5 L 153.0 192.0 L 165.0 191.0 L 174.5 191.0 L 180.0 192.0 L 184.5 192.5 L 186.0 193.5 " stroke="black" fill="none" stroke-width="7.0" stroke-linecap="round" stroke-linejoin="round" />
</svg>