<svg xmlns="http://www.w3.org/2000/svg" width="300" height="300" viewBox="0 0 300 300">
<path d="M 133.5 79.5 L 133.0 79.5 L 133.0 79.5 L 133.5 82.5 L 136.0 91.5 L 138.0 102.5 L 138.5 109.0 L 138.0 110.5 " stroke="black" fill="none" stroke-width="7.0" stroke-linecap="round" stroke-linejoin="round" />
<path d="M 121.0 103.0 L 118.5 103.5 L 118.0 103.5 L 119.0 103.5 L 123.5 103.5 L 129.5 101.0 L 140.0 97.5 L 153.5 92.5 L 165.5 87.0 L 173.0 84.0 L 175.0 83.5 " stroke="black" fill="none" stroke-width="7.0" stroke-linecap="round" stroke-linejoin="round" />
<path d="M 166.5 74.0 L 166.5 75.0 L 166.0 78.5 L 166.0 86.0 L 164.5 100.0 L 163.5 109.0 " stroke="black" fill="none" stroke-width="7.0" stroke-linecap="round" stroke-linejoin="round" />
<path d="M 111.5 133.5 L 110.5 133.5 L 110.5 133.5 L 111.5 133.5 L 115.0 133.5 L 119.5 132.5 L 120.5 132.5 " stroke="black" fill="none" stroke-width="7.0" stroke-linecap="round" stroke-linejoin="round" />
<path d="M 107.5 167.0 L 107.5 168.5 L 107.0 170.0 L 108.0 170.0 L 110.5 167.5 L 114.5 163.0 L 119.0 158.0 L 120.5 157.0 " stroke="black" fill="none" stroke-width="7.0" stroke-linecap="round" stroke-linejoin="round" />
<path d="M 108.0 204.5 L 106.5 208.0 L 105.5 212.5 L 105.5 213.5 L 107.5 211.5 L 111.5 203.0 L 118.5 190.5 L 125.5 178.5 " stroke="black" fill="none" stroke-width="7.0" stroke-linecap="round" stroke-linejoin="round" />
<path d="M 147.5 128.5 L 147.0 128.5 L 146.0 129.0 L 145.5 129.5 L 146.5 129.5 L 150.5 127.5 L 156.0 124.5 L 162.0 122.0 " stroke="black" fill="none" stroke-width="7.0" stroke-linecap="round" stroke-linejoin="round" />
<path d="M 137.5 143.0 L 137.5 143.0 L 137.5 143.0 L 137.5 144.0 L 138.0 147.5 L 139.0 155.5 L 139.5 163.5 L 140.0 168.0 L 140.5 168.5 " stroke="black" fill="none" stroke-width="7.0" stroke-linecap="round" stroke-linejoin="round" />
<path d="M 142.5 143.5 L 142.5 142.5 L 143.5 141.5 L 145.5 140.0 L 149.0 138.5 L 154.0 137.0 L 160.5 135.0 L 166.5 134.5 L 169.5 134.5 L 170.5 135.5 L 171.0 138.0 L 171.0 142.5 L 171.0 149.0 L 171.0 158.0 L 170.0 166.0 L 169.5 170.5 L 168.0 172.5 L 167.0 172.5 L 165.5 171.5 " stroke="black" fill="none" stroke-width="7.0" stroke-linecap="round" stroke-linejoin="round" />
<path d="M 150.0 150.5 L 149.0 151.0 L 147.5 151.5 L 147.5 151.5 L 148.5 151.5 L 152.0 150.5 L 157.5 147.5 L 161.5 146.0 " stroke="black" fill="none" stroke-width="7.0" stroke-linecap="round" stroke-linejoin="round" />
<path d="M 149.0 161.0 L 147.0 162.0 L 146.5 162.5 L 149.0 162.0 L 153.5 159.5 L 159.0 156.5 L 162.5 155.0 " stroke="black" fill="none" stroke-width="7.0" stroke-linecap="round" stroke-linejoin="round" />
<path d="M 152.5 119.0 L 152.5 118.0 L 152.0 117.5 L 152.0 120.0 L 152.0 129.5 L 152.5 146.5 L 152.5 164.0 L 152.5 173.0 " stroke="black" fill="none" stroke-width="7.0" stroke-linecap="round" stroke-linejoin="round" />
<path d="M 171.0 118.0 L 171.0 118.0 L 170.0 117.0 L 169.5 117.0 L 169.5 117.5 L 171.5 120.5 L 174.5 124.0 L 175.0 125.0 " stroke="black" fill="none" stroke-width="7.0" stroke-linecap="round" stroke-linejoin="round" />
<path d="M 137.0 193.5 L 136.0 194.0 L 134.0 194.0 L 133.0 194.0 L 132.5 194.0 L 134.0 194.0 L 138.0 193.5 L 145.0 192.0 L 154.0 189.0 L 165.5 185.0 L 173.5 181.5 L 177.0 180.5 L 177.0 180.5 " stroke="black" fill="none" stroke-width="7.0" stroke-linecap="round" stroke-linejoin="round" />
<path d="M 164.0 176.0 L 164.0 175.5 L 164.0 174.5 L 163.5 174.5 L 163.5 176.5 L 163.5 181.5 L 164.5 190.0 L 165.5 203.0 L 166.0 215.0 L 165.0 222.0 L 164.0 225.0 L 161.0 225.5 L 157.5 225.0 L 154.0 222.0 L 153.0 221.0 " stroke="black" fill="none" stroke-width="7.0" stroke-linecap="round" stroke-linejoin="round" />
<path d="M 142.5 208.5 L 142.0 208.5 L 141.5 209.0 L 142.5 209.5 L 146.5 209.5 L 152.0 209.0 L 155.5 207.5 " stroke="black" fill="none" stroke-width="7.0" stroke-linecap="round" stroke-linejoin="round" />
</svg>