<svg xmlns="http://www.w3.org/2000/svg" width="300" height="300" viewBox="0 0 300 300">
<path d="M 134.5 71.5 L 134.5 71.0 L 134.5 71.0 L 134.5 72.0 L 135.5 76.5 L 136.5 84.5 L 137.5 93.0 L 137.5 98.5 " stroke="black" fill="none" stroke-width="7.0" stroke-linecap="round" stroke-linejoin="round" />
<path d="M 123.5 92.0 L 121.5 92.5 L 120.0 92.5 L 119.0 92.5 L 119.5 92.0 L 123.0 91.0 L 128.5 89.0 L 138.0 86.5 L 150.5 83.0 L 161.0 81.0 L 170.0 79.5 L 174.0 78.5 L 174.5 77.5 L 174.5 77.0 " stroke="black" fill="none" stroke-width="7.0" stroke-linecap="round" stroke-linejoin="round" />
<path d="M 164.5 67.5 L 163.5 73.0 L 163.5 78.5 L 163.5 87.0 L 163.0 93.5 " stroke="black" fill="none" stroke-width="7.0" stroke-linecap="round" stroke-linejoin="round" />
<path d="M 122.0 113.0 L 121.0 113.5 L 119.0 113.5 L 119.0 113.5 L 121.5 113.0 L 127.5 111.0 L 136.5 108.0 L 150.0 104.5 L 161.5 101.5 L 169.5 100.5 L 172.5 100.0 L 172.5 100.0 L 172.5 100.0 " stroke="black" fill="none" stroke-width="7.0" stroke-linecap="round" stroke-linejoin="round" />
<path d="M 126.5 126.5 L 126.5 126.5 L 126.5 127.0 L 126.5 128.0 L 127.0 131.0 L 129.0 135.5 L 130.5 140.0 L 132.5 143.0 L 133.0 144.0 " stroke="black" fill="none" stroke-width="7.0" stroke-linecap="round" stroke-linejoin="round" />
<path d="M 129.5 128.0 L 130.0 127.5 L 130.5 126.5 L 134.0 124.5 L 141.5 122.0 L 150.0 119.0 L 157.0 116.5 L 162.5 115.0 L 166.0 115.0 L 167.0 116.0 L 167.0 120.0 L 166.5 125.5 L 165.0 132.5 L 162.5 138.5 L 160.0 143.0 " stroke="black" fill="none" stroke-width="7.0" stroke-linecap="round" stroke-linejoin="round" />
<path d="M 141.0 134.5 L 139.0 135.5 L 138.5 135.5 L 140.0 135.0 L 144.5 133.5 L 149.0 132.0 L 153.5 130.0 L 157.0 129.0 " stroke="black" fill="none" stroke-width="7.0" stroke-linecap="round" stroke-linejoin="round" />
<path d="M 147.0 123.0 L 146.5 124.5 L 146.5 126.5 L 146.5 130.5 L 147.0 136.0 L 147.5 141.0 L 147.5 142.0 " stroke="black" fill="none" stroke-width="7.0" stroke-linecap="round" stroke-linejoin="round" />
<path d="M 138.5 147.0 L 138.0 147.5 L 136.5 148.0 L 136.5 148.5 L 138.0 148.5 L 143.0 148.5 L 148.5 147.5 L 154.0 147.0 L 159.5 146.5 " stroke="black" fill="none" stroke-width="7.0" stroke-linecap="round" stroke-linejoin="round" />
<path d="M 114.5 165.0 L 114.5 165.0 L 114.0 165.0 L 113.5 165.0 L 113.5 165.0 L 116.0 165.0 L 122.0 164.5 L 132.0 164.0 L 147.0 163.0 L 159.0 160.5 L 169.5 159.0 L 174.5 158.5 L 176.0 159.0 " stroke="black" fill="none" stroke-width="7.0" stroke-linecap="round" stroke-linejoin="round" />
<path d="M 125.0 179.5 L 125.0 179.5 L 125.0 179.5 L 125.0 180.0 L 126.0 183.5 L 127.5 188.5 L 129.5 193.0 L 131.0 195.5 L 132.5 196.0 " stroke="black" fill="none" stroke-width="7.0" stroke-linecap="round" stroke-linejoin="round" />
<path d="M 135.5 178.0 L 135.0 178.0 L 134.0 178.0 L 133.5 178.0 L 133.0 177.0 L 134.0 176.0 L 137.5 174.5 L 144.0 173.5 L 149.5 172.5 L 158.5 172.5 L 164.0 172.5 L 167.0 173.0 L 168.5 175.0 L 169.0 178.5 L 167.5 183.5 L 166.0 188.5 L 164.0 193.0 L 162.5 195.0 " stroke="black" fill="none" stroke-width="7.0" stroke-linecap="round" stroke-linejoin="round" />
<path d="M 142.5 188.5 L 141.5 189.0 L 140.0 189.5 L 140.0 189.5 L 142.5 189.5 L 147.0 188.0 L 151.5 186.0 L 154.5 185.0 " stroke="black" fill="none" stroke-width="7.0" stroke-linecap="round" stroke-linejoin="round" />
<path d="M 148.0 180.0 L 148.0 180.5 L 147.5 181.5 L 147.5 184.0 L 147.5 187.0 L 148.0 193.0 L 148.0 196.5 " stroke="black" fill="none" stroke-width="7.0" stroke-linecap="round" stroke-linejoin="round" />
<path d="M 138.5 203.0 L 136.5 204.0 L 136.0 204.5 L 137.0 204.5 L 141.0 204.0 L 147.0 202.5 L 153.0 200.5 L 158.0 199.0 L 160.5 199.5 " stroke="black" fill="none" stroke-width="7.0" stroke-linecap="round" stroke-linejoin="round" />
<path d="M 108.0 221.5 L 107.5 221.5 L 107.0 221.0 L 107.0 220.5 L 107.0 220.5 L 110.5 220.5 L 120.5 220.0 L 135.5 219.0 L 153.0 217.0 L 169.0 214.5 L 180.5 213.5 L 190.5 214.0 L 194.5 215.0 " stroke="black" fill="none" stroke-width="7.0" stroke-linecap="round" stroke-linejoin="round" />
</svg>