<svg xmlns="http://www.w3.org/2000/svg" width="300" height="300" viewBox="0 0 300 300">
<path d="M 134.0 81.5 L 134.0 80.5 L 134.0 80.5 L 135.0 84.0 L 137.0 93.5 L 139.0 104.5 L 139.5 113.5 L 139.5 115.0 " stroke="black" fill="none" stroke-width="7.0" stroke-linecap="round" stroke-linejoin="round" />
<path d="M 119.0 104.5 L 117.5 105.0 L 115.5 105.0 L 115.5 105.0 L 117.0 105.0 L 122.5 104.5 L 131.0 102.0 L 144.0 98.0 L 161.0 91.5 L 174.5 86.5 L 181.0 84.0 L 185.5 82.0 L 187.0 80.5 " stroke="black" fill="none" stroke-width="7.0" stroke-linecap="round" stroke-linejoin="round" />
<path d="M 176.0 74.5 L 175.0 77.5 L 174.5 83.0 L 174.5 94.0 L 174.0 105.5 L 174.0 109.0 " stroke="black" fill="none" stroke-width="7.0" stroke-linecap="round" stroke-linejoin="round" />
<path d="M 129.0 136.5 L 128.5 137.0 L 127.0 137.0 L 127.0 137.0 L 128.5 136.5 L 134.5 134.5 L 144.5 131.5 L 153.0 128.0 L 166.0 123.0 L 169.5 121.0 L 170.0 120.5 " stroke="black" fill="none" stroke-width="7.0" stroke-linecap="round" stroke-linejoin="round" />
<path d="M 123.5 136.0 L 122.0 136.5 L 122.0 137.5 L 122.5 142.0 L 124.5 151.5 L 126.0 166.0 L 125.0 183.0 L 121.0 197.5 L 117.5 207.5 L 115.5 210.0 " stroke="black" fill="none" stroke-width="7.0" stroke-linecap="round" stroke-linejoin="round" />
<path d="M 101.5 152.5 L 101.0 152.5 L 101.0 153.0 L 101.0 155.0 L 102.0 159.5 L 103.0 164.5 L 103.0 167.5 L 103.0 168.5 L 103.5 168.5 L 105.0 167.0 L 108.0 163.5 L 111.0 161.0 L 114.5 158.5 L 116.0 158.0 " stroke="black" fill="none" stroke-width="7.0" stroke-linecap="round" stroke-linejoin="round" />
<path d="M 99.5 182.5 L 98.0 184.0 L 99.0 184.0 L 103.0 182.5 L 107.5 179.0 L 112.0 175.5 L 113.0 175.0 " stroke="black" fill="none" stroke-width="7.0" stroke-linecap="round" stroke-linejoin="round" />
<path d="M 107.5 180.5 L 107.5 182.5 L 106.5 187.0 L 106.5 193.5 L 106.0 201.5 L 105.0 207.0 L 105.0 208.0 " stroke="black" fill="none" stroke-width="7.0" stroke-linecap="round" stroke-linejoin="round" />
<path d="M 140.5 149.0 L 140.5 149.0 L 139.0 149.5 L 137.5 149.5 L 137.5 150.0 L 139.0 150.0 L 144.0 148.5 L 149.0 145.5 L 153.5 143.0 " stroke="black" fill="none" stroke-width="7.0" stroke-linecap="round" stroke-linejoin="round" />
<path d="M 149.0 149.0 L 149.0 149.5 L 149.0 150.5 L 149.0 152.5 L 149.0 155.0 L 148.5 160.0 L 148.0 164.0 L 148.0 165.0 " stroke="black" fill="none" stroke-width="7.0" stroke-linecap="round" stroke-linejoin="round" />
<path d="M 139.5 169.0 L 138.5 169.5 L 137.5 169.5 L 137.5 169.5 L 140.5 169.0 L 145.0 167.0 L 148.0 165.0 L 153.5 162.0 L 156.5 160.5 L 158.5 160.0 L 158.5 161.5 L 156.5 166.0 L 154.0 170.0 L 152.0 173.0 " stroke="black" fill="none" stroke-width="7.0" stroke-linecap="round" stroke-linejoin="round" />
<path d="M 141.5 181.5 L 140.0 181.5 L 138.5 181.5 L 138.0 181.5 L 138.5 181.5 L 142.0 180.5 L 147.5 178.5 L 152.5 176.5 L 155.0 175.5 " stroke="black" fill="none" stroke-width="7.0" stroke-linecap="round" stroke-linejoin="round" />
<path d="M 148.5 183.0 L 148.5 183.0 L 147.5 184.0 L 147.5 185.0 L 147.5 187.0 L 147.5 195.0 L 147.5 199.0 " stroke="black" fill="none" stroke-width="7.0" stroke-linecap="round" stroke-linejoin="round" />
<path d="M 133.5 152.0 L 133.5 152.0 L 133.5 152.0 L 133.5 152.0 L 133.5 152.0 L 133.5 154.5 L 133.5 157.0 L 133.5 162.0 L 134.0 169.0 L 134.0 178.0 L 134.5 182.5 L 134.5 188.5 L 134.5 191.5 L 134.5 195.5 L 134.5 197.5 L 134.5 200.5 L 135.0 202.0 L 135.5 202.5 L 136.0 202.5 L 137.0 202.5 L 138.0 202.5 L 140.0 202.5 L 143.0 201.5 L 147.0 200.5 L 151.5 199.5 L 156.0 199.0 L 159.5 199.0 " stroke="black" fill="none" stroke-width="7.0" stroke-linecap="round" stroke-linejoin="round" />
<path d="M 158.0 114.5 L 158.0 114.0 L 157.5 113.5 L 157.0 112.5 L 157.0 112.5 L 157.5 114.5 L 161.0 122.0 L 167.5 138.0 L 175.0 161.0 L 181.5 178.5 L 188.0 191.5 L 192.5 200.0 L 194.0 204.5 L 194.5 205.5 L 194.5 203.0 L 193.5 195.5 L 192.5 187.0 L 192.0 179.0 L 192.0 175.0 " stroke="black" fill="none" stroke-width="7.0" stroke-linecap="round" stroke-linejoin="round" />
<path d="M 186.0 148.5 L 186.0 147.5 L 185.5 146.5 L 184.5 146.5 L 183.0 147.5 L 180.0 153.5 L 173.0 169.5 L 164.5 190.5 L 154.5 207.5 L 151.5 211.5 " stroke="black" fill="none" stroke-width="7.0" stroke-linecap="round" stroke-linejoin="round" />
<path d="M 178.0 116.5 L 178.0 116.0 L 177.5 115.0 L 177.5 114.5 L 178.0 115.0 L 180.5 118.0 L 185.5 122.5 L 189.0 126.0 " stroke="black" fill="none" stroke-width="7.0" stroke-linecap="round" stroke-linejoin="round" />
</svg>