<svg xmlns="http://www.w3.org/2000/svg" width="300" height="300" viewBox="0 0 300 300">
<path d="M 128.0 85.5 L 128.0 85.5 L 128.5 84.5 L 129.0 84.5 L 130.0 90.5 L 131.0 100.0 L 131.5 109.5 L 131.5 114.5 L 131.5 114.5 " stroke="black" fill="none" stroke-width="7.0" stroke-linecap="round" stroke-linejoin="round" />
<path d="M 132.0 103.0 L 132.0 103.0 L 132.5 103.0 L 135.0 101.5 L 139.5 99.5 L 144.5 97.0 L 145.5 97.0 " stroke="black" fill="none" stroke-width="7.0" stroke-linecap="round" stroke-linejoin="round" />
<path d="M 116.0 129.0 L 115.5 129.0 L 116.0 128.5 L 121.0 126.0 L 129.0 121.0 L 139.0 115.0 L 147.5 111.0 L 151.5 109.5 L 152.5 110.0 L 151.5 114.0 L 148.0 120.5 L 147.0 122.0 " stroke="black" fill="none" stroke-width="7.0" stroke-linecap="round" stroke-linejoin="round" />
<path d="M 110.5 127.5 L 110.5 126.0 L 110.5 124.5 L 110.5 124.5 L 110.5 129.0 L 111.0 141.5 L 110.5 160.0 L 108.0 181.5 L 105.0 198.0 L 102.5 208.5 L 101.0 214.0 " stroke="black" fill="none" stroke-width="7.0" stroke-linecap="round" stroke-linejoin="round" />
<path d="M 125.0 139.5 L 124.0 140.5 L 123.0 141.0 L 123.0 141.0 L 125.5 140.5 L 129.0 137.5 L 133.0 134.5 L 134.0 133.5 " stroke="black" fill="none" stroke-width="7.0" stroke-linecap="round" stroke-linejoin="round" />
<path d="M 129.5 127.0 L 129.5 130.5 L 129.5 137.0 L 129.5 144.5 L 129.5 149.5 L 130.5 152.0 L 133.0 152.0 L 137.0 149.5 L 141.0 146.5 L 143.0 145.5 " stroke="black" fill="none" stroke-width="7.0" stroke-linecap="round" stroke-linejoin="round" />
<path d="M 128.0 162.5 L 128.0 162.5 L 128.0 162.5 L 128.0 163.0 L 128.0 164.5 L 127.0 168.5 L 123.0 176.0 L 118.0 184.0 L 115.0 187.0 " stroke="black" fill="none" stroke-width="7.0" stroke-linecap="round" stroke-linejoin="round" />
<path d="M 119.5 184.0 L 120.0 184.0 L 120.5 184.0 L 121.0 185.0 L 121.5 190.5 L 121.5 200.0 L 120.5 210.0 L 120.0 216.5 L 120.0 217.0 " stroke="black" fill="none" stroke-width="7.0" stroke-linecap="round" stroke-linejoin="round" />
<path d="M 138.0 162.0 L 137.0 162.0 L 135.5 162.0 L 135.5 162.0 L 136.5 162.5 L 138.5 163.0 L 140.5 163.0 L 141.0 163.5 " stroke="black" fill="none" stroke-width="7.0" stroke-linecap="round" stroke-linejoin="round" />
<path d="M 132.5 174.0 L 131.0 176.0 L 131.0 176.5 L 132.5 176.5 L 135.0 175.0 L 138.5 173.0 L 142.0 171.0 L 144.0 170.5 " stroke="black" fill="none" stroke-width="7.0" stroke-linecap="round" stroke-linejoin="round" />
<path d="M 133.0 186.5 L 132.0 188.0 L 131.5 189.0 L 133.0 189.0 L 136.0 187.5 L 140.0 185.0 L 143.5 183.5 " stroke="black" fill="none" stroke-width="7.0" stroke-linecap="round" stroke-linejoin="round" />
<path d="M 133.5 197.0 L 132.5 197.5 L 131.0 199.0 L 131.0 200.0 L 133.0 199.5 L 137.0 197.5 L 142.0 194.5 L 147.0 191.5 L 148.0 191.0 " stroke="black" fill="none" stroke-width="7.0" stroke-linecap="round" stroke-linejoin="round" />
<path d="M 139.0 180.0 L 139.0 183.5 L 139.0 188.5 L 139.0 195.5 L 139.0 203.5 L 137.5 209.5 L 137.0 210.5 " stroke="black" fill="none" stroke-width="7.0" stroke-linecap="round" stroke-linejoin="round" />
<path d="M 132.5 214.5 L 132.0 215.0 L 130.5 216.0 L 130.0 216.0 L 131.0 215.0 L 135.0 212.5 L 142.0 209.0 L 149.0 205.5 L 151.0 205.0 " stroke="black" fill="none" stroke-width="7.0" stroke-linecap="round" stroke-linejoin="round" />
<path d="M 165.0 118.5 L 163.0 119.0 L 161.5 119.5 L 161.5 120.0 L 164.0 120.0 L 168.5 118.5 L 173.0 116.0 L 177.0 114.0 L 178.5 113.0 " stroke="black" fill="none" stroke-width="7.0" stroke-linecap="round" stroke-linejoin="round" />
<path d="M 162.5 132.5 L 160.0 135.5 L 160.0 137.0 L 162.0 137.5 L 166.5 135.5 L 171.5 131.5 L 176.5 127.5 L 179.5 125.5 " stroke="black" fill="none" stroke-width="7.0" stroke-linecap="round" stroke-linejoin="round" />
<path d="M 171.5 133.5 L 171.0 134.0 L 170.5 136.0 L 169.5 139.5 L 168.5 145.5 L 166.0 153.0 L 162.5 161.0 L 160.0 165.0 L 159.5 166.0 L 160.5 165.5 L 164.5 163.0 L 169.5 159.5 L 174.0 155.5 L 178.0 152.5 L 182.5 150.5 L 186.0 151.5 L 187.5 157.0 L 188.0 165.0 L 187.0 174.5 L 185.5 185.0 L 183.5 194.5 L 180.0 202.5 L 176.5 207.5 L 172.0 209.0 L 168.0 207.5 L 165.5 203.0 " stroke="black" fill="none" stroke-width="7.0" stroke-linecap="round" stroke-linejoin="round" />
</svg>