<svg xmlns="http://www.w3.org/2000/svg" width="300" height="300" viewBox="0 0 300 300">
<path d="M 131.5 78.5 L 131.5 79.5 L 132.0 84.0 L 133.5 92.5 L 134.5 102.0 L 135.5 108.5 L 136.0 112.0 " stroke="black" fill="none" stroke-width="7.0" stroke-linecap="round" stroke-linejoin="round" />
<path d="M 119.0 100.5 L 118.5 101.0 L 116.5 102.0 L 116.0 102.0 L 118.0 102.0 L 124.0 101.0 L 132.0 99.5 L 144.0 96.0 L 156.5 92.0 L 167.5 88.5 L 172.5 86.5 L 174.5 86.0 L 174.5 86.0 " stroke="black" fill="none" stroke-width="7.0" stroke-linecap="round" stroke-linejoin="round" />
<path d="M 164.0 75.5 L 163.5 76.0 L 162.5 79.5 L 162.5 86.0 L 163.0 96.5 L 162.5 107.5 " stroke="black" fill="none" stroke-width="7.0" stroke-linecap="round" stroke-linejoin="round" />
<path d="M 117.0 126.0 L 117.0 126.0 L 117.0 125.5 L 117.0 125.0 L 117.0 125.5 L 117.0 129.0 L 118.5 138.5 L 119.5 155.5 L 119.5 176.5 L 117.5 195.5 L 116.5 210.5 L 116.5 219.5 L 117.5 224.5 L 117.5 225.0 " stroke="black" fill="none" stroke-width="7.0" stroke-linecap="round" stroke-linejoin="round" />
<path d="M 129.0 124.0 L 129.0 124.0 L 127.5 124.5 L 127.0 124.5 L 127.5 124.5 L 129.5 123.5 L 133.5 122.0 L 138.0 120.5 L 143.0 119.5 L 145.5 119.0 L 146.5 120.0 L 146.5 123.0 L 146.5 127.5 L 146.0 134.0 L 145.0 140.0 L 144.5 143.5 L 144.5 144.0 " stroke="black" fill="none" stroke-width="7.0" stroke-linecap="round" stroke-linejoin="round" />
<path d="M 130.0 136.0 L 128.5 136.5 L 127.0 137.0 L 126.5 137.0 L 128.0 137.0 L 131.0 136.0 L 135.0 134.0 L 137.0 133.5 " stroke="black" fill="none" stroke-width="7.0" stroke-linecap="round" stroke-linejoin="round" />
<path d="M 128.5 149.0 L 127.5 150.5 L 126.5 151.5 L 127.0 151.5 L 131.0 149.0 L 137.0 145.5 " stroke="black" fill="none" stroke-width="7.0" stroke-linecap="round" stroke-linejoin="round" />
<path d="M 158.0 120.5 L 158.0 120.0 L 158.0 119.5 L 158.0 122.0 L 158.0 128.5 L 158.0 137.5 L 158.0 142.5 L 159.0 142.5 L 159.5 141.5 " stroke="black" fill="none" stroke-width="7.0" stroke-linecap="round" stroke-linejoin="round" />
<path d="M 163.5 116.5 L 163.5 116.0 L 163.0 115.5 L 163.0 115.5 L 164.5 115.0 L 167.0 115.0 L 170.5 114.0 L 173.5 113.5 L 176.0 113.5 L 177.5 115.0 L 178.5 117.5 L 179.0 120.5 L 180.0 126.0 L 181.0 136.0 L 181.5 149.5 L 180.5 166.0 L 179.5 181.0 L 178.5 193.5 L 178.0 203.5 L 177.0 209.5 L 175.0 212.5 L 173.0 213.0 L 171.0 211.5 L 170.0 209.5 " stroke="black" fill="none" stroke-width="7.0" stroke-linecap="round" stroke-linejoin="round" />
<path d="M 167.0 129.0 L 165.5 129.5 L 163.5 130.0 L 162.5 130.5 L 162.5 130.5 L 165.5 129.5 L 169.5 127.5 L 173.0 126.0 L 173.5 126.0 " stroke="black" fill="none" stroke-width="7.0" stroke-linecap="round" stroke-linejoin="round" />
<path d="M 163.0 142.0 L 162.5 142.5 L 162.0 143.5 L 163.0 144.0 L 167.0 143.5 L 171.5 141.5 L 174.0 140.5 " stroke="black" fill="none" stroke-width="7.0" stroke-linecap="round" stroke-linejoin="round" />
<path d="M 139.0 156.5 L 138.0 156.5 L 137.5 156.5 L 138.0 156.5 L 141.0 156.0 L 146.5 154.0 L 152.0 151.0 L 156.0 149.5 " stroke="black" fill="none" stroke-width="7.0" stroke-linecap="round" stroke-linejoin="round" />
<path d="M 127.0 170.0 L 127.0 169.0 L 126.5 168.0 L 126.5 167.5 L 126.5 167.5 L 126.5 169.0 L 128.0 172.5 L 129.5 176.5 L 130.5 180.5 L 131.0 182.0 " stroke="black" fill="none" stroke-width="7.0" stroke-linecap="round" stroke-linejoin="round" />
<path d="M 129.0 170.5 L 129.0 170.5 L 129.5 170.5 L 130.0 170.0 L 133.0 168.5 L 139.5 166.5 L 148.5 163.5 L 156.0 161.0 L 162.5 159.5 L 167.5 159.0 L 169.5 159.5 L 170.0 161.5 L 169.5 165.0 L 167.5 169.5 L 165.0 174.0 L 163.0 178.0 " stroke="black" fill="none" stroke-width="7.0" stroke-linecap="round" stroke-linejoin="round" />
<path d="M 139.5 174.5 L 138.5 174.5 L 138.0 175.0 L 138.0 175.0 L 140.0 175.5 L 143.5 176.0 L 144.5 176.0 " stroke="black" fill="none" stroke-width="7.0" stroke-linecap="round" stroke-linejoin="round" />
<path d="M 155.5 168.5 L 155.5 168.0 L 155.5 167.5 L 155.5 167.5 L 155.0 168.5 L 153.5 172.0 " stroke="black" fill="none" stroke-width="7.0" stroke-linecap="round" stroke-linejoin="round" />
<path d="M 135.0 186.5 L 133.5 187.0 L 132.5 187.5 L 132.5 187.5 L 134.5 187.0 L 140.0 184.5 L 147.0 182.0 L 154.5 179.0 L 161.0 176.5 L 164.0 176.5 " stroke="black" fill="none" stroke-width="7.0" stroke-linecap="round" stroke-linejoin="round" />
<path d="M 148.5 144.5 L 148.5 144.5 L 148.5 143.5 L 148.0 143.0 L 148.0 143.0 L 148.0 146.0 L 148.0 152.5 L 148.0 163.5 L 148.0 179.0 L 148.0 194.5 L 147.0 206.0 L 146.5 214.0 L 146.5 218.5 L 147.0 219.0 " stroke="black" fill="none" stroke-width="7.0" stroke-linecap="round" stroke-linejoin="round" />
<path d="M 148.5 182.5 L 148.5 181.5 L 148.0 180.0 L 147.5 180.0 L 146.0 182.5 L 143.5 188.0 L 139.5 195.0 L 134.0 203.0 L 129.5 208.5 " stroke="black" fill="none" stroke-width="7.0" stroke-linecap="round" stroke-linejoin="round" />
<path d="M 148.0 185.0 L 148.5 185.0 L 149.5 184.5 L 152.0 186.0 L 157.5 190.5 L 164.5 196.0 L 170.5 200.0 L 173.5 202.0 " stroke="black" fill="none" stroke-width="7.0" stroke-linecap="round" stroke-linejoin="round" />
</svg>