<svg xmlns="http://www.w3.org/2000/svg" width="300" height="300" viewBox="0 0 300 300">
<path d="M 107.0 97.5 L 107.0 97.5 L 106.5 96.5 L 106.5 96.0 L 106.5 96.0 L 108.0 98.5 L 110.0 102.5 L 112.5 107.0 L 114.5 111.0 L 115.5 112.5 L 116.0 112.5 " stroke="black" fill="none" stroke-width="7.0" stroke-linecap="round" stroke-linejoin="round" />
<path d="M 112.5 98.5 L 112.5 97.5 L 112.5 95.5 L 113.5 94.0 L 115.5 93.5 L 119.5 92.0 L 124.5 90.5 L 129.0 89.0 L 132.0 88.0 L 134.0 88.5 L 134.0 91.0 L 133.5 95.0 L 131.0 100.5 L 128.5 106.5 L 125.0 112.0 L 122.5 116.0 L 121.5 117.0 L 122.0 116.5 L 124.5 115.0 L 128.0 113.0 L 130.5 111.0 L 132.0 111.0 " stroke="black" fill="none" stroke-width="7.0" stroke-linecap="round" stroke-linejoin="round" />
<path d="M 109.0 141.0 L 108.5 141.0 L 107.5 141.0 L 107.5 140.5 L 112.0 138.0 L 120.0 134.5 L 128.0 130.0 L 131.5 127.0 L 132.5 126.5 " stroke="black" fill="none" stroke-width="7.0" stroke-linecap="round" stroke-linejoin="round" />
<path d="M 123.0 137.0 L 123.0 136.0 L 123.0 135.0 L 123.5 135.0 L 123.5 136.0 L 123.0 140.0 L 121.0 146.0 L 118.5 153.5 L 115.5 160.5 L 114.5 164.0 L 115.0 164.0 L 118.0 162.5 L 122.5 159.5 L 127.5 156.0 L 132.0 153.5 L 135.0 152.0 L 137.0 152.0 L 137.5 154.5 L 137.5 159.0 L 137.5 166.0 L 136.5 174.5 L 135.5 183.5 L 134.0 191.5 L 131.5 196.5 L 128.5 199.0 L 124.0 199.0 L 119.5 194.5 L 116.0 187.5 " stroke="black" fill="none" stroke-width="7.0" stroke-linecap="round" stroke-linejoin="round" />
<path d="M 164.0 84.5 L 164.5 84.5 L 165.0 84.5 L 165.5 86.0 L 166.5 93.0 L 167.5 102.5 L 168.5 110.0 L 169.0 113.5 L 169.0 114.5 " stroke="black" fill="none" stroke-width="7.0" stroke-linecap="round" stroke-linejoin="round" />
<path d="M 169.0 103.0 L 169.5 102.5 L 169.5 102.0 L 171.0 101.0 L 174.0 99.0 L 177.5 97.5 L 180.0 96.5 L 180.5 96.5 " stroke="black" fill="none" stroke-width="7.0" stroke-linecap="round" stroke-linejoin="round" />
<path d="M 150.0 129.5 L 149.0 130.5 L 150.0 130.0 L 155.0 127.5 L 164.5 123.0 L 175.0 118.0 L 182.5 114.5 L 187.0 113.0 L 188.5 113.0 L 189.0 115.0 L 187.5 118.5 L 184.5 122.5 L 183.5 124.0 " stroke="black" fill="none" stroke-width="7.0" stroke-linecap="round" stroke-linejoin="round" />
<path d="M 150.0 127.5 L 150.0 127.5 L 150.0 129.0 L 150.5 134.0 L 151.0 145.0 L 151.5 161.0 L 150.5 176.0 L 149.5 187.5 L 148.5 192.5 L 148.5 193.0 " stroke="black" fill="none" stroke-width="7.0" stroke-linecap="round" stroke-linejoin="round" />
<path d="M 166.0 141.0 L 165.0 141.5 L 164.0 141.5 L 164.5 141.5 L 167.5 139.0 L 172.0 135.5 L 176.0 132.0 L 176.5 131.5 " stroke="black" fill="none" stroke-width="7.0" stroke-linecap="round" stroke-linejoin="round" />
<path d="M 170.0 126.0 L 170.0 128.0 L 169.5 134.0 L 169.5 142.0 L 170.0 148.0 L 171.0 151.0 L 173.5 151.5 L 176.5 149.0 L 180.0 146.0 L 181.0 145.0 " stroke="black" fill="none" stroke-width="7.0" stroke-linecap="round" stroke-linejoin="round" />
<path d="M 169.5 162.0 L 169.5 162.0 L 169.5 161.5 L 169.5 161.5 L 169.5 165.5 L 169.0 174.0 L 167.0 184.0 L 165.5 190.0 L 165.0 190.5 " stroke="black" fill="none" stroke-width="7.0" stroke-linecap="round" stroke-linejoin="round" />
<path d="M 183.0 156.5 L 183.0 156.5 L 183.0 156.5 L 183.0 156.5 L 183.0 159.0 L 183.0 164.5 L 183.0 172.5 L 183.0 179.5 L 183.0 184.5 L 182.5 186.5 L 184.0 187.0 L 186.5 188.0 L 189.5 188.5 L 192.5 189.0 L 194.5 189.5 L 196.5 189.5 L 199.0 189.5 L 201.5 189.5 L 204.0 189.0 L 206.5 188.5 L 208.5 187.0 L 210.5 184.5 L 211.0 180.5 L 211.0 172.5 L 210.0 161.5 L 209.5 150.5 " stroke="black" fill="none" stroke-width="7.0" stroke-linecap="round" stroke-linejoin="round" />
</svg>