<svg xmlns="http://www.w3.org/2000/svg" width="300" height="300" viewBox="0 0 300 300">
<path d="M 149.0 82.0 L 149.0 82.0 L 149.0 81.0 L 149.0 81.0 L 149.0 83.5 L 150.0 91.5 L 151.0 101.5 L 152.0 109.0 L 152.5 113.0 " stroke="black" fill="none" stroke-width="7.0" stroke-linecap="round" stroke-linejoin="round" />
<path d="M 154.5 98.0 L 154.5 98.0 L 154.5 97.5 L 156.5 97.0 L 160.5 96.0 L 166.0 94.5 L 167.5 94.0 " stroke="black" fill="none" stroke-width="7.0" stroke-linecap="round" stroke-linejoin="round" />
<path d="M 129.0 124.5 L 128.5 125.0 L 127.5 125.5 L 126.5 126.0 L 126.5 126.0 L 128.0 125.5 L 133.5 124.0 L 143.0 120.5 L 154.5 116.0 L 167.0 111.0 L 173.5 108.5 L 174.5 108.5 L 174.5 111.5 L 172.0 117.5 L 169.5 121.5 " stroke="black" fill="none" stroke-width="7.0" stroke-linecap="round" stroke-linejoin="round" />
<path d="M 123.5 129.5 L 123.0 129.5 L 122.0 129.0 L 122.0 130.0 L 122.0 136.0 L 123.0 149.0 L 123.0 168.0 L 119.5 187.5 L 115.5 201.5 L 113.0 209.5 L 112.0 211.5 " stroke="black" fill="none" stroke-width="7.0" stroke-linecap="round" stroke-linejoin="round" />
<path d="M 137.0 142.0 L 137.0 142.0 L 137.0 141.5 L 138.0 141.0 L 140.0 140.0 L 145.0 138.5 L 151.0 135.5 L 156.5 132.5 " stroke="black" fill="none" stroke-width="7.0" stroke-linecap="round" stroke-linejoin="round" />
<path d="M 148.0 124.5 L 147.5 126.5 L 147.5 130.0 L 147.5 137.5 L 147.5 146.5 L 148.5 152.5 L 150.0 155.0 L 153.5 154.0 L 158.0 150.5 L 161.0 148.5 " stroke="black" fill="none" stroke-width="7.0" stroke-linecap="round" stroke-linejoin="round" />
<path d="M 133.0 171.0 L 133.0 171.0 L 133.0 172.5 L 133.0 175.0 L 133.0 180.0 L 132.5 185.5 L 132.0 189.0 L 131.5 190.0 L 131.5 190.0 L 132.5 189.0 L 135.0 187.0 L 138.5 184.5 L 142.5 182.0 L 146.0 180.5 L 147.0 180.5 " stroke="black" fill="none" stroke-width="7.0" stroke-linecap="round" stroke-linejoin="round" />
<path d="M 147.0 168.5 L 147.0 168.5 L 147.0 169.0 L 147.0 173.0 L 147.0 183.5 L 146.5 196.5 L 146.0 207.5 L 146.5 211.5 " stroke="black" fill="none" stroke-width="7.0" stroke-linecap="round" stroke-linejoin="round" />
<path d="M 171.0 169.5 L 171.0 169.5 L 171.0 170.0 L 171.0 170.5 L 171.0 171.0 L 171.0 172.0 L 171.0 174.5 L 171.5 177.0 L 171.5 179.5 L 171.5 182.0 L 171.5 183.0 L 171.0 184.0 L 169.5 184.5 L 167.0 184.5 L 164.0 184.5 L 161.0 185.0 L 160.5 185.0 " stroke="black" fill="none" stroke-width="7.0" stroke-linecap="round" stroke-linejoin="round" />
<path d="M 157.5 163.5 L 157.5 163.5 L 156.5 163.0 L 156.5 164.0 L 156.5 170.0 L 157.0 182.0 L 157.0 194.5 L 157.0 204.5 L 157.5 207.5 " stroke="black" fill="none" stroke-width="7.0" stroke-linecap="round" stroke-linejoin="round" />
<path d="M 126.5 212.5 L 125.0 213.0 L 124.0 213.5 L 124.0 214.0 L 124.5 214.5 L 127.5 214.5 L 133.0 214.0 L 143.0 211.5 L 155.0 209.0 L 167.0 207.0 L 176.0 206.0 L 183.5 206.0 L 189.0 205.5 " stroke="black" fill="none" stroke-width="7.0" stroke-linecap="round" stroke-linejoin="round" />
</svg>