<svg xmlns="http://www.w3.org/2000/svg" width="300" height="300" viewBox="0 0 300 300">
<path d="M 149.0 78.0 L 149.0 78.0 L 149.0 78.0 L 149.0 80.0 L 149.5 87.5 L 150.5 95.0 L 150.5 99.0 L 151.0 100.5 L 151.0 100.5 " stroke="black" fill="none" stroke-width="7.0" stroke-linecap="round" stroke-linejoin="round" />
<path d="M 151.0 88.5 L 151.0 88.5 L 151.5 89.0 L 152.5 89.0 L 155.5 88.5 L 159.0 87.0 L 162.0 85.5 L 163.0 85.0 " stroke="black" fill="none" stroke-width="7.0" stroke-linecap="round" stroke-linejoin="round" />
<path d="M 130.0 110.0 L 129.0 111.0 L 128.5 111.0 L 128.5 111.0 L 130.0 111.0 L 134.0 110.0 L 144.0 106.5 L 154.0 102.5 L 164.0 99.0 L 171.0 97.5 L 173.5 97.5 L 173.5 99.0 L 173.0 102.5 L 171.0 107.0 L 170.5 108.0 " stroke="black" fill="none" stroke-width="7.0" stroke-linecap="round" stroke-linejoin="round" />
<path d="M 123.5 114.0 L 123.5 113.5 L 123.0 113.0 L 123.0 113.0 L 123.5 117.0 L 124.0 123.0 L 124.5 138.5 L 120.5 163.0 L 115.0 178.0 L 111.0 187.5 L 108.5 193.0 L 108.0 194.5 " stroke="black" fill="none" stroke-width="7.0" stroke-linecap="round" stroke-linejoin="round" />
<path d="M 141.5 125.5 L 140.5 126.0 L 140.0 126.0 L 140.5 126.0 L 144.0 124.0 L 147.5 122.0 L 151.0 120.0 L 153.5 118.0 " stroke="black" fill="none" stroke-width="7.0" stroke-linecap="round" stroke-linejoin="round" />
<path d="M 147.5 111.5 L 147.5 113.5 L 147.5 118.0 L 147.5 123.5 L 148.0 128.5 L 149.0 132.0 L 150.5 133.0 L 152.5 132.0 L 155.5 130.0 L 158.0 128.5 L 158.5 128.0 " stroke="black" fill="none" stroke-width="7.0" stroke-linecap="round" stroke-linejoin="round" />
<path d="M 139.0 149.0 L 139.0 149.0 L 138.5 149.0 L 138.0 149.0 L 138.0 149.5 L 139.0 150.5 L 140.5 152.0 L 142.5 153.5 L 144.0 155.0 " stroke="black" fill="none" stroke-width="7.0" stroke-linecap="round" stroke-linejoin="round" />
<path d="M 143.0 146.5 L 143.0 146.5 L 143.0 146.5 L 143.0 145.5 L 144.0 145.0 L 146.0 144.5 L 149.5 143.5 L 154.0 141.5 L 157.5 141.0 L 159.0 141.0 L 159.5 142.0 L 159.0 144.0 L 157.0 146.5 L 154.5 149.0 L 154.0 149.5 " stroke="black" fill="none" stroke-width="7.0" stroke-linecap="round" stroke-linejoin="round" />
<path d="M 149.0 153.5 L 148.5 154.5 L 147.5 155.0 L 147.5 155.0 L 148.5 155.0 L 151.0 153.5 L 153.0 152.5 L 154.5 152.0 " stroke="black" fill="none" stroke-width="7.0" stroke-linecap="round" stroke-linejoin="round" />
<path d="M 136.5 161.5 L 136.5 161.5 L 136.5 162.0 L 136.5 163.0 L 136.0 164.5 L 135.5 167.0 L 134.5 169.5 L 134.0 170.5 L 134.0 171.0 L 135.0 171.0 L 138.0 169.5 L 142.5 167.5 L 147.5 165.5 L 153.0 163.0 L 157.0 161.5 L 161.5 160.0 L 166.0 159.0 L 167.0 159.5 L 167.0 161.0 L 164.0 164.5 L 160.5 167.5 " stroke="black" fill="none" stroke-width="7.0" stroke-linecap="round" stroke-linejoin="round" />
<path d="M 128.5 185.0 L 127.5 185.5 L 126.5 186.0 L 126.5 186.0 L 126.5 186.0 L 129.5 186.0 L 136.5 183.5 L 147.5 179.0 L 159.0 173.5 L 167.5 170.5 L 171.5 169.0 L 172.5 168.5 L 172.0 168.5 " stroke="black" fill="none" stroke-width="7.0" stroke-linecap="round" stroke-linejoin="round" />
<path d="M 151.0 165.0 L 151.0 165.5 L 149.5 167.5 L 149.0 169.5 L 148.0 174.0 L 146.0 181.0 L 141.0 188.5 L 134.5 194.0 L 129.5 198.5 " stroke="black" fill="none" stroke-width="7.0" stroke-linecap="round" stroke-linejoin="round" />
<path d="M 148.5 182.5 L 149.5 183.0 L 152.5 184.5 L 156.5 187.0 L 161.0 191.0 L 165.5 195.0 L 168.5 198.5 L 169.0 199.0 " stroke="black" fill="none" stroke-width="7.0" stroke-linecap="round" stroke-linejoin="round" />
</svg>