<svg xmlns="http://www.w3.org/2000/svg" width="300" height="300" viewBox="0 0 300 300">
<path d="M 146.0 100.5 L 145.0 100.5 L 144.5 100.5 L 144.5 101.5 L 146.0 102.5 L 148.5 104.0 L 149.0 105.0 " stroke="black" fill="none" stroke-width="7.0" stroke-linecap="round" stroke-linejoin="round" />
<path d="M 122.5 127.5 L 121.5 128.0 L 118.5 129.5 L 118.0 129.5 L 119.0 130.0 L 123.0 129.5 L 130.0 127.0 L 144.0 121.0 L 154.5 115.5 L 167.5 107.5 L 172.0 104.0 L 172.5 103.0 L 171.5 103.5 L 169.0 105.5 " stroke="black" fill="none" stroke-width="7.0" stroke-linecap="round" stroke-linejoin="round" />
<path d="M 152.5 119.5 L 151.0 121.0 L 150.0 124.0 L 148.0 129.0 L 144.0 138.5 L 136.5 150.0 L 128.0 162.0 L 120.5 172.0 L 114.0 178.0 L 108.5 183.0 L 107.0 185.0 " stroke="black" fill="none" stroke-width="7.0" stroke-linecap="round" stroke-linejoin="round" />
<path d="M 139.0 155.5 L 139.0 157.5 L 138.0 164.0 L 137.0 172.0 L 136.0 179.5 L 134.0 190.0 L 133.0 194.5 L 133.0 195.5 L 133.0 195.5 L 135.0 192.5 L 139.5 187.5 L 145.0 181.5 L 150.5 175.0 L 154.5 170.0 " stroke="black" fill="none" stroke-width="7.0" stroke-linecap="round" stroke-linejoin="round" />
<path d="M 174.5 144.0 L 174.5 144.0 L 174.0 144.0 L 173.5 145.0 L 172.0 147.0 L 168.5 151.0 L 162.0 154.5 " stroke="black" fill="none" stroke-width="7.0" stroke-linecap="round" stroke-linejoin="round" />
<path d="M 150.5 149.5 L 150.5 150.0 L 150.5 150.5 L 151.0 151.5 L 153.0 153.5 L 159.5 157.5 L 170.0 164.0 L 179.0 172.0 L 187.5 178.5 L 193.5 184.0 L 197.0 187.5 L 198.0 189.0 " stroke="black" fill="none" stroke-width="7.0" stroke-linecap="round" stroke-linejoin="round" />
</svg>