<svg xmlns="http://www.w3.org/2000/svg" width="300" height="300" viewBox="0 0 300 300">
<path d="M 151.0 79.0 L 151.0 78.5 L 150.5 78.0 L 150.5 81.0 L 151.0 87.0 L 151.5 99.5 L 151.5 107.5 L 151.5 111.0 " stroke="black" fill="none" stroke-width="7.0" stroke-linecap="round" stroke-linejoin="round" />
<path d="M 130.5 98.5 L 130.0 98.5 L 129.0 98.5 L 129.5 98.5 L 133.5 99.0 L 140.0 98.5 " stroke="black" fill="none" stroke-width="7.0" stroke-linecap="round" stroke-linejoin="round" />
<path d="M 167.0 86.5 L 167.0 87.0 L 166.5 89.0 L 165.5 91.0 L 162.0 95.0 L 157.0 99.0 L 155.5 100.5 " stroke="black" fill="none" stroke-width="7.0" stroke-linecap="round" stroke-linejoin="round" />
<path d="M 108.0 120.5 L 108.0 121.0 L 107.5 121.5 L 108.0 123.0 L 110.0 126.5 L 113.5 129.5 L 117.0 131.5 L 117.5 131.5 " stroke="black" fill="none" stroke-width="7.0" stroke-linecap="round" stroke-linejoin="round" />
<path d="M 116.0 123.0 L 116.5 123.0 L 117.0 122.5 L 121.0 121.0 L 129.0 118.5 L 142.0 115.0 L 155.5 110.5 L 167.5 107.5 L 175.0 106.0 L 180.5 105.5 L 184.0 106.0 L 184.0 108.5 L 180.5 114.5 L 176.5 121.0 L 175.0 122.5 " stroke="black" fill="none" stroke-width="7.0" stroke-linecap="round" stroke-linejoin="round" />
<path d="M 130.5 139.0 L 130.5 139.0 L 130.5 139.5 L 131.0 141.0 L 134.5 142.5 L 138.0 144.0 L 140.0 145.0 " stroke="black" fill="none" stroke-width="7.0" stroke-linecap="round" stroke-linejoin="round" />
<path d="M 133.5 138.0 L 133.5 138.0 L 133.5 137.5 L 134.0 136.5 L 137.0 135.5 L 142.5 133.5 L 148.5 130.5 L 153.0 128.5 L 155.5 128.5 L 156.0 129.0 L 155.5 131.5 L 153.5 135.0 L 150.5 139.0 L 147.0 143.5 L 143.0 146.5 L 141.0 147.5 L 142.0 147.5 L 146.0 145.0 L 150.5 142.5 L 153.5 141.0 " stroke="black" fill="none" stroke-width="7.0" stroke-linecap="round" stroke-linejoin="round" />
<path d="M 148.0 145.0 L 148.0 145.5 L 147.5 145.5 L 147.0 147.0 L 144.5 150.0 L 137.5 158.0 L 129.0 168.0 L 122.5 176.0 L 117.5 181.0 L 115.5 182.5 " stroke="black" fill="none" stroke-width="7.0" stroke-linecap="round" stroke-linejoin="round" />
<path d="M 129.0 167.5 L 129.0 167.5 L 129.5 168.0 L 129.5 170.5 L 130.0 176.0 L 130.0 184.0 L 129.5 190.5 L 128.5 193.5 L 128.5 194.0 L 129.0 193.5 L 131.5 190.5 L 136.0 186.0 L 142.5 180.5 L 149.5 174.5 L 153.0 170.5 " stroke="black" fill="none" stroke-width="7.0" stroke-linecap="round" stroke-linejoin="round" />
<path d="M 164.0 156.5 L 164.0 156.0 L 164.0 155.5 L 163.5 155.5 L 162.5 156.0 L 160.0 158.5 L 156.5 162.0 L 153.5 164.5 " stroke="black" fill="none" stroke-width="7.0" stroke-linecap="round" stroke-linejoin="round" />
<path d="M 145.0 163.0 L 144.5 163.0 L 143.5 163.5 L 143.0 164.0 L 143.0 165.0 L 145.0 167.0 L 149.0 169.5 L 155.0 172.0 L 164.5 176.5 L 173.5 181.5 L 180.0 185.5 L 187.0 188.5 L 192.0 190.5 L 194.5 192.0 L 195.5 192.5 " stroke="black" fill="none" stroke-width="7.0" stroke-linecap="round" stroke-linejoin="round" />
</svg>