<svg xmlns="http://www.w3.org/2000/svg" width="300" height="300" viewBox="0 0 300 300">
<path d="M 137.5 105.0 L 137.0 105.5 L 136.5 107.5 L 134.5 112.5 L 130.0 120.5 L 125.5 128.0 L 121.0 133.5 " stroke="black" fill="none" stroke-width="7.0" stroke-linecap="round" stroke-linejoin="round" />
<path d="M 147.0 114.5 L 147.0 115.0 L 146.0 117.5 L 144.5 121.0 L 140.5 127.5 L 134.0 137.0 L 127.0 147.0 L 120.5 157.0 L 115.0 162.5 " stroke="black" fill="none" stroke-width="7.0" stroke-linecap="round" stroke-linejoin="round" />
<path d="M 126.5 149.5 L 126.5 149.5 L 126.5 149.5 L 127.0 152.5 L 127.5 161.5 L 128.0 174.5 L 127.0 187.0 L 126.5 193.5 " stroke="black" fill="none" stroke-width="7.0" stroke-linecap="round" stroke-linejoin="round" />
<path d="M 162.5 116.0 L 161.0 117.0 L 159.5 118.0 L 159.5 118.5 L 163.0 118.0 L 168.0 115.5 L 173.0 112.0 L 177.0 108.5 " stroke="black" fill="none" stroke-width="7.0" stroke-linecap="round" stroke-linejoin="round" />
<path d="M 147.0 141.5 L 146.5 141.5 L 144.5 142.5 L 143.0 143.5 L 142.0 144.0 L 141.5 144.0 L 141.5 144.0 L 143.5 144.0 L 147.5 143.0 L 154.0 140.5 L 164.0 135.5 L 175.0 129.0 L 183.0 124.5 L 187.5 122.5 L 189.5 122.0 " stroke="black" fill="none" stroke-width="7.0" stroke-linecap="round" stroke-linejoin="round" />
<path d="M 175.0 134.0 L 175.0 134.0 L 174.0 135.5 L 174.0 137.5 L 174.0 141.0 L 175.0 148.0 L 175.5 159.0 L 175.5 171.5 L 175.0 183.0 L 174.0 190.5 L 173.0 195.5 L 171.0 197.0 L 168.5 195.5 L 164.0 190.0 L 159.5 182.0 L 158.5 180.0 " stroke="black" fill="none" stroke-width="7.0" stroke-linecap="round" stroke-linejoin="round" />
</svg>