<svg xmlns="http://www.w3.org/2000/svg" width="300" height="300" viewBox="0 0 300 300">
<path d="M 126.5 92.5 L 126.0 92.5 L 125.0 92.5 L 124.5 93.0 L 125.0 93.5 L 127.5 94.5 L 129.5 94.5 L 130.0 95.0 " stroke="black" fill="none" stroke-width="7.0" stroke-linecap="round" stroke-linejoin="round" />
<path d="M 115.5 115.5 L 115.0 116.0 L 112.5 118.5 L 112.5 119.5 L 115.0 119.0 L 120.0 116.5 L 126.5 113.0 L 133.0 108.0 L 139.0 104.0 L 143.0 101.5 L 144.0 101.0 L 143.5 101.5 L 141.5 104.0 L 139.5 107.0 L 137.5 110.5 L 135.0 116.0 L 130.5 125.0 L 125.0 138.0 L 117.0 152.0 L 108.0 165.0 L 102.0 174.5 L 96.5 181.5 L 92.5 185.0 L 92.5 186.0 " stroke="black" fill="none" stroke-width="7.0" stroke-linecap="round" stroke-linejoin="round" />
<path d="M 121.5 150.0 L 122.0 149.0 L 122.5 149.5 L 123.5 154.5 L 123.5 164.5 L 123.0 178.5 L 122.0 191.5 L 121.0 199.0 L 120.5 201.5 " stroke="black" fill="none" stroke-width="7.0" stroke-linecap="round" stroke-linejoin="round" />
<path d="M 143.5 137.5 L 143.5 136.5 L 143.5 135.5 L 143.0 136.0 L 140.0 139.5 L 136.0 144.0 L 131.0 148.5 L 127.5 151.0 L 126.0 151.5 L 126.0 151.5 L 127.0 151.5 L 128.5 153.0 L 131.5 156.5 L 135.5 160.5 L 141.0 164.0 L 147.0 166.0 L 149.5 166.5 " stroke="black" fill="none" stroke-width="7.0" stroke-linecap="round" stroke-linejoin="round" />
<path d="M 153.5 128.0 L 153.5 128.0 L 153.0 129.5 L 154.5 138.5 L 155.0 155.5 L 152.5 173.0 L 149.0 188.5 L 145.0 196.5 L 143.0 198.0 L 142.5 197.0 " stroke="black" fill="none" stroke-width="7.0" stroke-linecap="round" stroke-linejoin="round" />
<path d="M 161.5 140.0 L 161.0 140.0 L 161.0 139.5 L 162.5 138.0 L 166.5 134.0 L 172.0 129.0 L 177.5 124.0 L 183.0 120.5 L 186.0 119.0 L 188.0 119.0 L 188.5 120.5 L 188.0 124.5 L 186.5 129.0 L 184.5 134.0 L 182.0 137.5 " stroke="black" fill="none" stroke-width="7.0" stroke-linecap="round" stroke-linejoin="round" />
<path d="M 173.0 103.5 L 172.5 104.0 L 171.5 105.5 L 171.5 110.0 L 171.5 120.0 L 172.0 132.5 L 170.5 144.5 L 168.0 154.0 L 165.0 160.0 L 163.0 161.0 L 162.5 161.0 L 162.5 161.0 L 164.5 160.0 L 167.0 158.5 L 170.0 157.0 L 173.5 155.0 L 177.0 153.0 L 179.5 151.5 L 181.0 151.5 L 181.5 155.0 L 179.5 160.0 L 177.0 166.0 L 174.5 172.0 L 171.5 180.0 L 168.0 187.0 L 163.0 191.5 L 159.0 193.0 L 157.5 192.0 " stroke="black" fill="none" stroke-width="7.0" stroke-linecap="round" stroke-linejoin="round" />
<path d="M 159.0 163.0 L 159.0 163.0 L 159.5 163.0 L 161.5 164.5 L 167.5 170.5 L 174.5 180.0 L 182.0 189.5 L 189.0 197.0 L 193.0 202.5 L 195.0 205.0 " stroke="black" fill="none" stroke-width="7.0" stroke-linecap="round" stroke-linejoin="round" />
</svg>