<svg xmlns="http://www.w3.org/2000/svg" width="300" height="300" viewBox="0 0 300 300">
<path d="M 137.5 107.5 L 135.5 107.5 L 135.0 107.5 L 135.0 107.5 L 138.0 106.5 L 143.5 104.0 L 150.0 101.0 L 156.5 97.0 L 160.5 95.0 L 161.0 95.0 " stroke="black" fill="none" stroke-width="7.0" stroke-linecap="round" stroke-linejoin="round" />
<path d="M 136.5 124.0 L 135.5 125.0 L 134.5 126.0 L 135.5 126.5 L 140.0 125.0 L 146.0 121.5 L 153.0 117.0 L 159.0 112.5 L 160.0 112.0 " stroke="black" fill="none" stroke-width="7.0" stroke-linecap="round" stroke-linejoin="round" />
<path d="M 149.5 83.0 L 149.5 85.5 L 149.5 93.0 L 149.5 104.5 L 149.5 117.5 L 148.5 130.0 L 148.0 140.0 " stroke="black" fill="none" stroke-width="7.0" stroke-linecap="round" stroke-linejoin="round" />
<path d="M 122.5 150.5 L 120.0 152.0 L 118.0 152.0 L 118.0 152.0 L 121.0 151.5 L 126.5 149.5 L 134.0 146.5 L 145.5 142.0 L 159.0 137.0 L 169.5 133.5 L 174.0 132.0 " stroke="black" fill="none" stroke-width="7.0" stroke-linecap="round" stroke-linejoin="round" />
<path d="M 148.5 146.0 L 148.5 146.0 L 148.5 145.0 L 149.0 144.0 L 149.0 144.0 L 149.0 145.0 L 146.5 150.0 L 140.5 158.5 L 130.5 169.5 L 122.5 178.5 L 117.5 183.0 " stroke="black" fill="none" stroke-width="7.0" stroke-linecap="round" stroke-linejoin="round" />
<path d="M 131.0 169.0 L 131.0 169.0 L 131.0 169.5 L 131.0 172.5 L 130.5 181.5 L 129.0 193.0 L 128.5 201.0 L 128.0 204.5 L 128.5 204.5 L 130.5 202.5 L 133.0 198.0 L 137.5 192.0 L 143.0 186.0 L 150.0 179.0 L 151.5 177.5 " stroke="black" fill="none" stroke-width="7.0" stroke-linecap="round" stroke-linejoin="round" />
<path d="M 170.0 155.5 L 170.5 153.5 L 171.0 152.5 L 171.5 152.0 L 170.5 154.0 L 167.0 158.5 L 162.0 163.5 L 155.0 168.0 L 154.0 169.0 " stroke="black" fill="none" stroke-width="7.0" stroke-linecap="round" stroke-linejoin="round" />
<path d="M 148.0 164.0 L 147.5 164.0 L 147.0 163.5 L 147.0 163.5 L 147.5 164.0 L 150.0 166.5 L 155.5 170.5 L 164.5 176.5 L 174.0 183.0 L 182.5 187.0 L 191.0 190.0 L 195.5 191.5 L 197.5 192.5 " stroke="black" fill="none" stroke-width="7.0" stroke-linecap="round" stroke-linejoin="round" />
</svg>