<svg xmlns="http://www.w3.org/2000/svg" width="300" height="300" viewBox="0 0 300 300">
<path d="M 120.5 132.0 L 118.5 133.0 L 117.5 133.0 L 118.5 133.0 L 122.5 131.0 L 127.5 127.5 L 132.5 123.5 L 134.5 121.5 " stroke="black" fill="none" stroke-width="7.0" stroke-linecap="round" stroke-linejoin="round" />
<path d="M 111.0 158.0 L 108.5 160.5 L 108.5 160.5 L 110.5 158.5 L 118.5 152.5 L 127.5 146.0 L 136.5 140.5 L 143.0 137.5 " stroke="black" fill="none" stroke-width="7.0" stroke-linecap="round" stroke-linejoin="round" />
<path d="M 130.0 102.0 L 130.0 102.0 L 129.5 102.0 L 129.0 104.5 L 129.0 114.0 L 129.0 130.5 L 126.5 149.5 L 121.0 167.5 L 114.5 180.0 L 110.0 187.5 L 108.0 190.5 " stroke="black" fill="none" stroke-width="7.0" stroke-linecap="round" stroke-linejoin="round" />
<path d="M 126.5 153.0 L 128.5 154.5 L 132.5 159.5 L 137.5 168.0 L 142.0 176.0 L 147.0 182.5 L 148.0 184.0 " stroke="black" fill="none" stroke-width="7.0" stroke-linecap="round" stroke-linejoin="round" />
<path d="M 153.0 117.5 L 152.5 117.0 L 152.5 115.5 L 152.0 115.5 L 152.5 121.0 L 154.0 132.5 L 154.5 143.0 L 154.5 155.5 L 154.5 158.5 L 154.5 156.5 L 154.5 154.0 " stroke="black" fill="none" stroke-width="7.0" stroke-linecap="round" stroke-linejoin="round" />
<path d="M 156.5 114.5 L 157.0 112.5 L 158.5 110.5 L 161.0 108.0 L 165.5 106.0 L 170.5 103.5 L 174.0 102.5 L 176.5 102.0 L 177.5 105.0 L 178.5 112.0 L 178.5 122.0 L 177.5 134.0 L 177.5 143.5 L 177.5 149.5 L 178.0 152.5 L 178.0 152.5 L 177.5 152.0 L 177.0 150.5 " stroke="black" fill="none" stroke-width="7.0" stroke-linecap="round" stroke-linejoin="round" />
<path d="M 164.0 133.5 L 163.0 133.5 L 160.5 134.0 L 159.5 134.5 L 160.0 134.5 L 162.5 134.5 L 168.0 132.5 L 172.0 130.5 " stroke="black" fill="none" stroke-width="7.0" stroke-linecap="round" stroke-linejoin="round" />
<path d="M 161.5 145.5 L 161.0 146.5 L 159.5 148.0 L 160.5 148.5 L 164.0 149.0 L 168.0 147.0 L 172.0 145.5 " stroke="black" fill="none" stroke-width="7.0" stroke-linecap="round" stroke-linejoin="round" />
<path d="M 159.0 163.0 L 157.5 164.0 L 158.0 164.5 L 161.0 164.0 L 165.5 161.5 L 170.0 159.0 L 173.0 157.0 L 174.0 156.5 L 173.5 157.5 L 171.0 160.5 L 167.0 166.0 L 163.0 171.5 L 158.5 178.5 L 153.5 186.5 L 149.5 193.5 L 148.0 196.5 L 147.0 198.0 " stroke="black" fill="none" stroke-width="7.0" stroke-linecap="round" stroke-linejoin="round" />
<path d="M 165.5 166.0 L 167.0 166.0 L 168.5 167.0 L 169.5 172.0 L 169.5 179.5 L 171.0 186.0 L 173.0 189.5 L 175.0 191.0 L 178.0 191.0 L 181.5 191.0 L 185.0 191.0 L 188.5 191.0 L 192.0 190.0 L 194.5 189.0 L 196.5 187.5 L 198.0 186.5 L 199.0 184.5 L 199.5 182.0 L 199.5 177.0 L 199.5 168.0 L 198.5 158.0 " stroke="black" fill="none" stroke-width="7.0" stroke-linecap="round" stroke-linejoin="round" />
</svg>