<svg xmlns="http://www.w3.org/2000/svg" width="300" height="300" viewBox="0 0 300 300">
<path d="M 120.5 85.0 L 120.0 83.5 L 119.5 82.0 L 119.5 83.5 L 121.0 90.0 L 122.5 98.0 L 123.5 106.0 L 123.5 111.5 L 123.0 113.5 " stroke="black" fill="none" stroke-width="7.0" stroke-linecap="round" stroke-linejoin="round" />
<path d="M 108.5 102.0 L 108.5 102.5 L 107.5 102.5 L 108.0 102.5 L 111.5 101.0 L 118.0 98.5 " stroke="black" fill="none" stroke-width="7.0" stroke-linecap="round" stroke-linejoin="round" />
<path d="M 134.5 79.0 L 134.5 82.0 L 135.5 87.5 L 136.5 96.0 L 137.5 102.5 L 137.5 105.0 L 137.5 105.0 " stroke="black" fill="none" stroke-width="7.0" stroke-linecap="round" stroke-linejoin="round" />
<path d="M 140.5 94.0 L 141.0 94.0 L 143.5 92.0 L 146.0 91.0 L 147.5 91.0 " stroke="black" fill="none" stroke-width="7.0" stroke-linecap="round" stroke-linejoin="round" />
<path d="M 104.0 129.0 L 104.0 129.0 L 104.0 129.5 L 105.5 132.5 L 108.0 136.5 L 111.0 140.0 L 112.0 140.5 " stroke="black" fill="none" stroke-width="7.0" stroke-linecap="round" stroke-linejoin="round" />
<path d="M 110.0 130.0 L 110.0 130.0 L 110.0 129.0 L 113.0 127.0 L 118.0 124.5 L 123.0 124.0 L 125.0 125.5 L 124.0 130.5 L 120.0 136.0 L 116.0 140.5 L 113.5 142.5 L 113.5 142.5 L 115.5 141.0 L 120.0 137.5 L 124.5 133.5 " stroke="black" fill="none" stroke-width="7.0" stroke-linecap="round" stroke-linejoin="round" />
<path d="M 131.5 119.5 L 132.0 120.0 L 133.0 122.0 L 134.5 125.0 L 136.0 128.5 L 137.0 130.5 L 137.5 131.0 L 137.5 131.0 " stroke="black" fill="none" stroke-width="7.0" stroke-linecap="round" stroke-linejoin="round" />
<path d="M 134.5 120.5 L 134.5 120.0 L 135.0 118.5 L 136.0 117.0 L 139.5 115.5 L 144.0 114.5 L 147.5 114.5 L 148.5 116.0 L 148.5 119.5 L 146.0 124.0 L 143.0 128.0 L 140.0 131.0 L 139.0 132.0 L 139.5 132.0 L 143.5 129.5 L 147.5 127.5 L 148.5 127.5 " stroke="black" fill="none" stroke-width="7.0" stroke-linecap="round" stroke-linejoin="round" />
<path d="M 125.5 139.0 L 125.5 139.0 L 125.0 140.0 L 123.5 143.5 L 119.0 152.0 L 112.0 163.5 L 106.0 173.5 L 101.5 181.0 L 99.0 183.5 " stroke="black" fill="none" stroke-width="7.0" stroke-linecap="round" stroke-linejoin="round" />
<path d="M 114.5 165.0 L 115.5 165.0 L 116.5 166.0 L 117.0 173.0 L 116.5 185.0 L 115.5 195.5 L 115.5 202.5 L 115.5 204.0 " stroke="black" fill="none" stroke-width="7.0" stroke-linecap="round" stroke-linejoin="round" />
<path d="M 130.0 146.0 L 130.0 146.5 L 129.5 147.0 L 130.5 147.5 L 133.0 148.0 L 135.0 148.0 " stroke="black" fill="none" stroke-width="7.0" stroke-linecap="round" stroke-linejoin="round" />
<path d="M 127.0 164.5 L 126.5 165.5 L 126.5 165.5 L 129.5 163.0 L 134.5 159.0 L 140.0 155.5 L 142.0 154.5 " stroke="black" fill="none" stroke-width="7.0" stroke-linecap="round" stroke-linejoin="round" />
<path d="M 129.0 174.0 L 128.5 174.5 L 127.5 176.0 L 128.0 176.5 L 130.5 175.5 L 134.5 172.5 L 138.5 170.0 " stroke="black" fill="none" stroke-width="7.0" stroke-linecap="round" stroke-linejoin="round" />
<path d="M 129.5 185.5 L 128.5 187.0 L 127.5 188.0 L 128.0 187.5 L 131.5 184.5 L 136.5 180.5 L 141.5 177.5 " stroke="black" fill="none" stroke-width="7.0" stroke-linecap="round" stroke-linejoin="round" />
<path d="M 137.0 166.0 L 137.0 167.5 L 137.0 171.0 L 137.0 178.5 L 137.0 187.0 L 135.5 193.0 L 135.0 194.5 " stroke="black" fill="none" stroke-width="7.0" stroke-linecap="round" stroke-linejoin="round" />
<path d="M 128.5 201.5 L 127.0 202.5 L 125.5 203.0 L 125.5 203.0 L 127.5 201.5 L 132.5 197.5 L 140.5 193.5 L 148.0 191.0 " stroke="black" fill="none" stroke-width="7.0" stroke-linecap="round" stroke-linejoin="round" />
<path d="M 161.0 106.0 L 161.0 106.0 L 161.0 106.5 L 161.5 114.0 L 162.5 128.0 L 162.5 140.5 L 162.5 147.0 L 163.0 148.0 L 163.5 147.0 " stroke="black" fill="none" stroke-width="7.0" stroke-linecap="round" stroke-linejoin="round" />
<path d="M 165.0 104.0 L 165.5 103.5 L 166.0 101.0 L 167.5 98.5 L 170.5 96.0 L 174.0 93.0 L 178.5 90.0 L 183.0 89.0 L 185.0 91.0 L 186.5 96.0 L 187.0 103.5 L 187.5 113.0 L 188.0 124.5 L 188.5 133.5 L 188.5 139.0 L 188.5 141.0 L 188.0 140.5 L 187.5 140.0 " stroke="black" fill="none" stroke-width="7.0" stroke-linecap="round" stroke-linejoin="round" />
<path d="M 168.5 124.0 L 168.0 124.0 L 167.0 123.0 L 167.0 123.0 L 169.5 122.5 L 173.0 122.0 L 177.5 121.0 L 180.0 121.0 " stroke="black" fill="none" stroke-width="7.0" stroke-linecap="round" stroke-linejoin="round" />
<path d="M 168.0 137.5 L 168.0 137.5 L 167.0 139.0 L 168.0 139.0 L 171.0 138.0 L 175.0 135.5 L 177.5 134.0 " stroke="black" fill="none" stroke-width="7.0" stroke-linecap="round" stroke-linejoin="round" />
<path d="M 166.5 152.5 L 165.5 154.0 L 165.0 154.5 L 167.0 154.0 L 171.0 151.5 L 174.5 149.5 L 178.5 147.5 L 182.0 146.0 L 183.0 146.0 L 182.0 148.0 L 179.5 150.5 L 176.5 154.5 L 173.5 159.5 L 170.0 166.0 L 165.5 173.5 L 160.0 181.0 L 156.5 186.5 L 156.0 187.5 " stroke="black" fill="none" stroke-width="7.0" stroke-linecap="round" stroke-linejoin="round" />
<path d="M 174.5 156.0 L 174.5 156.0 L 175.0 156.0 L 175.5 158.5 L 175.5 165.0 L 175.5 173.5 L 177.5 180.0 L 180.5 183.5 L 184.5 184.0 L 189.0 183.5 L 192.5 182.0 L 196.0 181.0 L 199.0 179.5 L 202.0 178.0 L 204.5 176.0 L 206.5 173.5 L 208.0 169.5 L 208.0 163.5 L 208.0 153.5 L 207.0 146.5 " stroke="black" fill="none" stroke-width="7.0" stroke-linecap="round" stroke-linejoin="round" />
</svg>