<svg xmlns="http://www.w3.org/2000/svg" width="300" height="300" viewBox="0 0 300 300">
<path d="M 135.0 114.5 L 134.0 114.5 L 133.0 114.5 L 135.5 114.5 L 142.5 113.5 L 150.5 109.5 L 158.5 105.0 L 162.0 103.5 " stroke="black" fill="none" stroke-width="7.0" stroke-linecap="round" stroke-linejoin="round" />
<path d="M 116.0 151.0 L 116.5 157.5 L 119.0 165.5 L 122.5 173.0 L 124.5 177.0 L 125.0 178.0 L 125.5 178.0 " stroke="black" fill="none" stroke-width="7.0" stroke-linecap="round" stroke-linejoin="round" />
<path d="M 124.0 152.0 L 124.5 150.5 L 127.0 148.0 L 132.5 144.5 L 144.0 141.0 L 156.0 135.5 L 167.0 131.0 L 174.5 129.5 L 178.0 133.0 L 180.0 138.5 L 180.0 146.5 L 177.0 156.5 L 175.0 163.0 L 171.0 172.5 L 168.5 176.5 L 168.0 177.0 " stroke="black" fill="none" stroke-width="7.0" stroke-linecap="round" stroke-linejoin="round" />
<path d="M 140.5 124.0 L 140.5 124.0 L 140.5 126.0 L 140.5 134.5 L 141.0 147.0 L 141.5 157.5 L 142.5 164.0 L 144.0 165.0 " stroke="black" fill="none" stroke-width="7.0" stroke-linecap="round" stroke-linejoin="round" />
<path d="M 156.5 116.0 L 156.5 116.0 L 156.5 117.5 L 156.5 123.0 L 157.5 135.0 L 158.0 147.5 L 158.0 158.0 L 157.0 166.0 L 156.5 167.5 " stroke="black" fill="none" stroke-width="7.0" stroke-linecap="round" stroke-linejoin="round" />
<path d="M 133.5 179.0 L 132.5 179.5 L 130.0 181.0 L 130.0 181.0 L 133.0 180.5 L 140.0 178.5 L 148.0 176.0 L 157.5 174.5 L 166.5 174.5 L 170.5 175.5 " stroke="black" fill="none" stroke-width="7.0" stroke-linecap="round" stroke-linejoin="round" />
</svg>