<svg xmlns="http://www.w3.org/2000/svg" width="300" height="300" viewBox="0 0 300 300">
<path d="M 146.0 91.5 L 145.0 91.5 L 144.0 91.5 L 145.0 93.0 L 147.5 96.0 L 150.0 99.0 L 151.0 101.0 " stroke="black" fill="none" stroke-width="7.0" stroke-linecap="round" stroke-linejoin="round" />
<path d="M 116.0 121.5 L 115.5 121.5 L 114.5 122.0 L 114.5 122.0 L 119.5 121.5 L 127.0 119.5 L 139.5 115.5 L 153.0 110.5 L 163.0 106.5 L 168.5 104.5 L 169.5 104.5 L 169.5 105.0 " stroke="black" fill="none" stroke-width="7.0" stroke-linecap="round" stroke-linejoin="round" />
<path d="M 132.5 138.0 L 132.5 138.0 L 132.0 138.5 L 134.5 138.5 L 140.5 137.5 L 148.5 134.5 L 155.0 131.0 L 157.5 130.0 " stroke="black" fill="none" stroke-width="7.0" stroke-linecap="round" stroke-linejoin="round" />
<path d="M 130.0 158.5 L 129.0 159.0 L 129.5 159.0 L 134.0 158.5 L 141.0 156.5 L 149.0 153.0 L 153.0 151.5 L 153.5 151.5 " stroke="black" fill="none" stroke-width="7.0" stroke-linecap="round" stroke-linejoin="round" />
<path d="M 118.5 177.0 L 118.5 177.5 L 118.5 179.0 L 119.0 182.0 L 122.0 187.0 L 125.0 192.5 L 127.0 196.0 L 127.5 197.0 " stroke="black" fill="none" stroke-width="7.0" stroke-linecap="round" stroke-linejoin="round" />
<path d="M 129.5 182.0 L 129.5 182.0 L 129.5 182.0 L 129.5 182.5 L 130.5 182.5 L 135.5 181.5 L 143.0 179.0 L 152.0 175.0 L 160.0 172.0 L 166.5 170.5 L 170.0 170.5 L 171.5 171.5 L 171.5 174.5 L 170.0 180.0 L 167.5 187.0 L 164.5 192.0 L 164.0 193.5 " stroke="black" fill="none" stroke-width="7.0" stroke-linecap="round" stroke-linejoin="round" />
<path d="M 134.0 203.0 L 133.0 203.0 L 131.0 203.0 L 131.0 203.0 L 135.0 202.5 L 143.5 200.0 L 152.5 196.0 L 162.0 193.5 L 169.5 193.0 " stroke="black" fill="none" stroke-width="7.0" stroke-linecap="round" stroke-linejoin="round" />
</svg>