<svg xmlns="http://www.w3.org/2000/svg" width="300" height="300" viewBox="0 0 300 300">
<path d="M 119.0 87.5 L 118.5 88.0 L 117.0 88.0 L 117.5 88.5 L 119.5 88.5 L 122.0 89.0 L 123.0 89.0 " stroke="black" fill="none" stroke-width="7.0" stroke-linecap="round" stroke-linejoin="round" />
<path d="M 107.5 108.0 L 107.0 108.5 L 105.5 110.5 L 104.5 112.0 L 105.5 112.5 L 109.5 111.5 L 117.0 108.0 L 126.0 104.0 L 132.0 100.5 L 135.0 98.5 L 135.5 98.5 " stroke="black" fill="none" stroke-width="7.0" stroke-linecap="round" stroke-linejoin="round" />
<path d="M 112.0 126.5 L 111.5 127.0 L 111.5 127.5 L 115.5 127.5 L 120.5 125.5 L 125.5 123.0 L 128.5 122.0 " stroke="black" fill="none" stroke-width="7.0" stroke-linecap="round" stroke-linejoin="round" />
<path d="M 109.0 148.0 L 109.0 149.0 L 108.5 151.0 L 109.5 151.5 L 114.0 149.5 L 120.5 145.5 L 127.0 141.5 L 130.0 140.0 L 130.0 140.0 " stroke="black" fill="none" stroke-width="7.0" stroke-linecap="round" stroke-linejoin="round" />
<path d="M 108.5 169.0 L 108.5 173.0 L 109.5 178.0 L 112.0 183.0 L 115.0 187.0 L 117.5 188.5 L 118.0 188.5 " stroke="black" fill="none" stroke-width="7.0" stroke-linecap="round" stroke-linejoin="round" />
<path d="M 114.0 175.0 L 114.0 174.0 L 115.0 172.5 L 118.5 171.0 L 124.0 168.5 L 129.0 166.5 L 132.5 165.5 L 133.5 166.0 L 133.5 170.0 L 131.0 175.5 L 128.0 181.5 L 124.5 186.0 L 123.0 188.0 L 122.5 188.0 L 125.0 186.0 L 129.0 182.5 L 133.0 179.5 " stroke="black" fill="none" stroke-width="7.0" stroke-linecap="round" stroke-linejoin="round" />
<path d="M 153.0 102.5 L 153.0 101.5 L 152.5 100.5 L 152.5 99.5 L 152.0 99.0 L 152.0 98.5 L 152.5 101.0 L 154.0 108.5 L 156.0 122.0 L 156.0 141.0 L 153.0 158.5 L 149.0 173.0 L 145.5 184.0 L 142.5 188.0 " stroke="black" fill="none" stroke-width="7.0" stroke-linecap="round" stroke-linejoin="round" />
<path d="M 161.0 99.0 L 160.0 99.0 L 159.5 98.5 L 160.0 97.5 L 163.0 96.5 L 167.0 95.0 L 171.0 94.0 L 175.0 92.5 L 179.5 91.5 L 184.5 90.0 L 188.5 89.5 L 191.5 89.0 L 193.5 89.0 L 194.5 91.0 L 195.0 93.5 L 195.0 97.0 L 195.5 102.5 L 195.5 110.5 L 196.5 121.5 L 197.0 134.0 L 198.0 147.5 L 198.5 160.5 L 198.5 171.5 L 198.5 181.0 L 198.5 189.0 L 197.0 193.5 L 195.5 196.0 L 193.0 196.0 L 190.5 192.5 L 188.0 186.5 L 186.5 183.0 " stroke="black" fill="none" stroke-width="7.0" stroke-linecap="round" stroke-linejoin="round" />
<path d="M 169.5 120.0 L 169.5 120.0 L 168.5 120.0 L 167.0 119.5 L 166.5 119.5 L 166.5 119.5 L 168.5 119.0 L 171.5 117.5 L 175.5 116.0 L 178.0 114.5 " stroke="black" fill="none" stroke-width="7.0" stroke-linecap="round" stroke-linejoin="round" />
<path d="M 173.5 107.5 L 173.5 107.5 L 173.5 108.5 L 173.0 109.5 L 173.0 112.5 L 173.5 117.5 L 173.5 123.0 L 173.5 128.5 " stroke="black" fill="none" stroke-width="7.0" stroke-linecap="round" stroke-linejoin="round" />
<path d="M 162.5 138.0 L 161.5 138.0 L 160.5 138.0 L 159.5 138.0 L 159.5 138.0 L 160.5 137.5 L 165.0 136.5 L 171.5 134.0 L 179.0 131.0 L 187.0 128.5 L 191.5 128.0 L 192.0 128.5 " stroke="black" fill="none" stroke-width="7.0" stroke-linecap="round" stroke-linejoin="round" />
<path d="M 162.5 153.5 L 162.5 155.0 L 162.0 157.0 L 163.0 159.5 L 164.5 162.0 L 166.5 165.0 L 168.0 167.0 L 169.0 168.0 L 169.5 168.0 " stroke="black" fill="none" stroke-width="7.0" stroke-linecap="round" stroke-linejoin="round" />
<path d="M 168.0 155.0 L 168.0 154.5 L 168.0 154.0 L 169.0 153.0 L 171.5 152.0 L 175.5 150.5 L 180.5 150.0 L 183.5 150.0 L 184.0 152.0 L 183.0 156.5 L 180.0 161.5 L 176.5 166.0 L 173.5 169.5 L 172.0 171.0 L 171.5 171.0 L 172.0 171.0 L 174.0 170.0 L 177.0 168.5 L 179.5 167.0 " stroke="black" fill="none" stroke-width="7.0" stroke-linecap="round" stroke-linejoin="round" />
</svg>