<svg xmlns="http://www.w3.org/2000/svg" width="300" height="300" viewBox="0 0 300 300">
<path d="M 122.5 97.0 L 121.0 97.5 L 120.5 98.0 L 121.0 98.0 L 124.0 98.5 L 127.0 99.0 L 129.0 99.0 " stroke="black" fill="none" stroke-width="7.0" stroke-linecap="round" stroke-linejoin="round" />
<path d="M 117.5 119.5 L 115.0 121.0 L 115.0 122.0 L 117.5 122.0 L 122.5 120.5 L 128.0 117.5 L 133.0 114.5 L 136.0 113.0 " stroke="black" fill="none" stroke-width="7.0" stroke-linecap="round" stroke-linejoin="round" />
<path d="M 118.5 138.5 L 115.5 141.0 L 115.5 142.0 L 118.5 142.5 L 123.5 140.5 L 128.5 136.5 L 133.5 132.5 L 135.0 131.5 " stroke="black" fill="none" stroke-width="7.0" stroke-linecap="round" stroke-linejoin="round" />
<path d="M 117.5 160.5 L 116.0 162.0 L 117.0 162.0 L 121.5 160.5 L 127.0 156.5 L 132.0 152.0 L 135.0 150.0 " stroke="black" fill="none" stroke-width="7.0" stroke-linecap="round" stroke-linejoin="round" />
<path d="M 114.0 179.5 L 114.0 182.0 L 115.0 185.5 L 117.5 188.5 L 121.0 191.0 L 124.0 192.0 L 125.0 192.0 " stroke="black" fill="none" stroke-width="7.0" stroke-linecap="round" stroke-linejoin="round" />
<path d="M 121.0 179.5 L 121.5 178.5 L 122.5 177.0 L 126.0 175.5 L 130.5 172.5 L 136.0 170.5 L 140.0 170.5 L 140.5 175.0 L 138.0 182.0 L 133.5 189.0 L 128.5 194.5 L 125.5 198.0 L 124.5 198.5 L 126.0 196.5 L 129.5 193.0 L 134.5 189.0 L 138.0 187.5 " stroke="black" fill="none" stroke-width="7.0" stroke-linecap="round" stroke-linejoin="round" />
<path d="M 158.5 117.0 L 157.0 118.0 L 155.5 118.5 L 155.5 118.5 L 159.0 117.0 L 165.0 113.5 L 171.5 109.0 L 177.0 105.0 L 180.5 102.5 " stroke="black" fill="none" stroke-width="7.0" stroke-linecap="round" stroke-linejoin="round" />
<path d="M 171.0 89.5 L 171.0 90.5 L 171.0 94.5 L 171.0 102.0 L 171.5 111.0 L 172.0 119.5 L 172.0 125.5 " stroke="black" fill="none" stroke-width="7.0" stroke-linecap="round" stroke-linejoin="round" />
<path d="M 162.0 136.0 L 160.5 136.5 L 158.0 137.0 L 156.5 138.0 L 156.0 138.0 L 159.0 138.5 L 164.5 137.0 L 171.0 133.5 L 177.0 129.5 L 182.0 126.5 L 183.5 126.0 " stroke="black" fill="none" stroke-width="7.0" stroke-linecap="round" stroke-linejoin="round" />
<path d="M 149.5 162.0 L 147.5 163.5 L 145.5 165.5 L 144.5 166.5 L 144.5 167.0 L 147.0 167.0 L 151.5 164.5 L 159.0 161.0 L 169.5 156.0 L 179.0 150.0 L 186.0 146.5 L 188.5 145.5 " stroke="black" fill="none" stroke-width="7.0" stroke-linecap="round" stroke-linejoin="round" />
<path d="M 177.0 135.5 L 176.0 137.0 L 175.0 139.5 L 175.0 145.0 L 175.5 154.5 L 176.0 168.0 L 176.5 181.0 L 176.5 190.5 L 176.5 196.0 L 175.5 198.5 L 173.5 199.0 L 170.0 197.0 L 166.0 191.5 L 163.0 187.0 " stroke="black" fill="none" stroke-width="7.0" stroke-linecap="round" stroke-linejoin="round" />
<path d="M 153.5 174.5 L 152.5 175.0 L 152.5 175.0 L 155.5 175.0 L 161.0 174.5 L 167.5 173.0 L 169.0 172.5 " stroke="black" fill="none" stroke-width="7.0" stroke-linecap="round" stroke-linejoin="round" />
</svg>