<svg xmlns="http://www.w3.org/2000/svg" width="300" height="300" viewBox="0 0 300 300">
<path d="M 125.5 102.5 L 125.0 102.5 L 124.5 102.5 L 125.0 102.5 L 127.0 103.5 L 128.5 104.0 L 129.0 104.5 " stroke="black" fill="none" stroke-width="7.0" stroke-linecap="round" stroke-linejoin="round" />
<path d="M 113.5 130.0 L 113.0 131.5 L 114.0 131.5 L 118.0 130.5 L 124.0 127.5 L 130.0 123.5 L 134.0 120.5 L 135.5 119.5 " stroke="black" fill="none" stroke-width="7.0" stroke-linecap="round" stroke-linejoin="round" />
<path d="M 116.0 147.0 L 115.5 147.5 L 115.0 148.5 L 121.5 146.5 L 126.5 143.5 L 131.0 140.5 L 132.5 139.5 " stroke="black" fill="none" stroke-width="7.0" stroke-linecap="round" stroke-linejoin="round" />
<path d="M 114.5 165.0 L 113.5 166.0 L 113.5 166.5 L 116.5 166.0 L 121.0 164.0 L 125.5 161.5 L 128.5 160.0 L 129.0 160.0 " stroke="black" fill="none" stroke-width="7.0" stroke-linecap="round" stroke-linejoin="round" />
<path d="M 108.0 185.0 L 108.0 185.5 L 108.0 188.0 L 108.0 191.0 L 109.5 195.0 L 112.0 198.5 L 114.5 200.0 L 115.5 200.0 " stroke="black" fill="none" stroke-width="7.0" stroke-linecap="round" stroke-linejoin="round" />
<path d="M 114.5 189.0 L 114.5 188.0 L 115.0 185.5 L 117.5 183.5 L 122.5 181.0 L 128.0 179.0 L 131.5 179.0 L 133.5 181.0 L 133.5 185.5 L 131.5 190.5 L 128.5 196.0 L 124.5 200.0 L 121.5 202.0 L 120.5 202.0 L 123.0 199.5 L 127.5 196.5 L 133.5 192.5 " stroke="black" fill="none" stroke-width="7.0" stroke-linecap="round" stroke-linejoin="round" />
<path d="M 154.5 126.0 L 154.5 126.5 L 153.0 127.0 L 151.5 127.5 L 151.5 127.5 L 153.5 127.5 L 159.0 125.0 L 167.0 120.5 L 173.5 116.0 L 176.0 113.5 L 176.0 113.5 " stroke="black" fill="none" stroke-width="7.0" stroke-linecap="round" stroke-linejoin="round" />
<path d="M 149.0 127.5 L 148.0 129.0 L 147.5 132.0 L 147.5 139.5 L 147.5 153.0 L 146.5 170.0 L 144.0 184.0 L 140.5 192.0 L 138.0 196.5 L 137.0 197.0 " stroke="black" fill="none" stroke-width="7.0" stroke-linecap="round" stroke-linejoin="round" />
<path d="M 148.0 167.5 L 148.5 166.5 L 149.5 164.0 L 151.0 162.0 L 153.5 160.5 L 156.5 159.0 L 160.0 158.0 L 162.5 159.0 L 163.5 163.5 L 162.0 171.0 L 159.0 178.0 L 155.0 183.5 L 152.5 185.5 L 151.5 184.0 " stroke="black" fill="none" stroke-width="7.0" stroke-linecap="round" stroke-linejoin="round" />
<path d="M 163.0 100.0 L 163.0 100.5 L 162.5 101.5 L 162.5 104.0 L 165.5 111.5 L 170.0 125.5 L 175.0 145.0 L 180.5 162.0 L 187.0 178.0 L 191.5 190.0 L 194.0 198.0 L 196.0 203.0 L 197.5 204.0 L 198.5 201.5 L 198.5 193.5 L 198.0 182.5 L 198.0 176.5 " stroke="black" fill="none" stroke-width="7.0" stroke-linecap="round" stroke-linejoin="round" />
<path d="M 189.5 144.0 L 189.5 144.0 L 189.0 144.0 L 188.5 145.0 L 186.5 151.0 L 181.0 165.0 L 173.5 181.5 L 166.0 196.0 L 158.5 206.5 L 155.5 209.5 " stroke="black" fill="none" stroke-width="7.0" stroke-linecap="round" stroke-linejoin="round" />
<path d="M 181.0 98.0 L 181.0 97.5 L 181.0 96.5 L 182.0 96.5 L 185.0 99.0 L 189.0 104.0 L 192.0 108.5 " stroke="black" fill="none" stroke-width="7.0" stroke-linecap="round" stroke-linejoin="round" />
</svg>