<svg xmlns="http://www.w3.org/2000/svg" width="300" height="300" viewBox="0 0 300 300">
<path d="M 127.5 96.0 L 126.0 97.0 L 126.0 97.0 L 127.0 98.0 L 129.0 98.5 L 131.0 99.0 " stroke="black" fill="none" stroke-width="7.0" stroke-linecap="round" stroke-linejoin="round" />
<path d="M 116.5 123.5 L 116.0 124.0 L 115.0 124.5 L 117.0 124.5 L 122.0 122.5 L 127.5 119.0 L 134.0 114.5 L 138.0 112.5 " stroke="black" fill="none" stroke-width="7.0" stroke-linecap="round" stroke-linejoin="round" />
<path d="M 120.5 139.0 L 119.5 140.5 L 120.0 140.5 L 123.5 139.0 L 128.0 135.5 L 133.5 131.5 L 134.5 131.0 " stroke="black" fill="none" stroke-width="7.0" stroke-linecap="round" stroke-linejoin="round" />
<path d="M 117.0 156.5 L 117.0 156.5 L 116.5 157.0 L 119.5 156.5 L 122.0 155.0 L 130.0 149.0 L 134.0 147.0 " stroke="black" fill="none" stroke-width="7.0" stroke-linecap="round" stroke-linejoin="round" />
<path d="M 113.0 175.0 L 113.0 176.5 L 114.5 181.5 L 117.0 185.0 L 119.5 188.0 L 121.0 189.0 " stroke="black" fill="none" stroke-width="7.0" stroke-linecap="round" stroke-linejoin="round" />
<path d="M 119.5 178.0 L 120.0 177.0 L 121.5 175.0 L 125.0 172.0 L 129.5 168.5 L 134.0 166.0 L 137.0 166.0 L 137.5 170.0 L 135.5 176.5 L 132.0 183.5 L 128.0 188.5 L 125.5 191.5 L 125.0 191.5 L 126.5 189.0 L 130.0 186.0 L 133.5 184.0 " stroke="black" fill="none" stroke-width="7.0" stroke-linecap="round" stroke-linejoin="round" />
<path d="M 162.0 97.5 L 161.5 98.0 L 160.0 98.0 L 160.0 98.5 L 163.0 98.5 L 167.0 97.5 L 167.5 97.5 " stroke="black" fill="none" stroke-width="7.0" stroke-linecap="round" stroke-linejoin="round" />
<path d="M 156.0 115.0 L 156.0 115.0 L 156.0 115.5 L 158.5 114.0 L 163.0 110.5 L 168.5 107.0 L 173.0 104.0 L 174.5 103.5 L 174.5 103.5 L 174.5 104.0 L 174.0 105.5 L 173.0 108.0 L 173.0 112.0 L 173.0 117.5 L 173.0 126.5 L 173.5 140.0 L 174.0 154.5 L 174.5 169.0 L 175.0 180.5 L 175.5 187.5 L 175.0 191.5 L 173.5 192.5 L 170.5 191.0 L 166.5 187.0 L 162.5 182.5 " stroke="black" fill="none" stroke-width="7.0" stroke-linecap="round" stroke-linejoin="round" />
<path d="M 150.5 139.0 L 150.0 139.0 L 149.5 139.0 L 150.0 139.0 L 152.0 137.5 L 155.5 135.0 L 158.5 132.5 L 160.5 131.5 L 161.0 132.5 L 159.5 136.0 L 158.0 141.0 L 156.5 146.5 L 155.5 153.5 L 153.0 163.0 L 149.0 173.5 L 144.0 183.0 L 138.0 189.0 L 136.5 190.0 " stroke="black" fill="none" stroke-width="7.0" stroke-linecap="round" stroke-linejoin="round" />
<path d="M 192.0 117.5 L 192.0 117.5 L 192.0 116.5 L 192.0 116.5 L 192.0 117.0 L 191.5 119.0 L 189.5 122.5 L 187.0 127.0 L 183.0 131.0 L 179.5 133.5 L 178.5 135.0 L 178.5 135.0 L 179.0 135.0 L 180.0 135.0 L 180.5 135.5 L 181.5 138.0 L 184.0 142.5 L 188.5 148.5 L 194.0 156.5 L 199.5 163.5 L 204.5 168.0 L 210.5 171.0 L 215.5 173.0 L 216.5 173.5 " stroke="black" fill="none" stroke-width="7.0" stroke-linecap="round" stroke-linejoin="round" />
</svg>