<svg xmlns="http://www.w3.org/2000/svg" width="300" height="300" viewBox="0 0 300 300">
<path d="M 124.0 97.5 L 123.5 97.5 L 123.5 97.5 L 124.0 98.5 L 126.0 99.5 L 129.0 100.0 L 131.0 101.0 L 131.5 101.5 " stroke="black" fill="none" stroke-width="7.0" stroke-linecap="round" stroke-linejoin="round" />
<path d="M 116.0 121.0 L 115.5 121.5 L 113.0 123.0 L 113.0 123.5 L 114.5 123.5 L 119.5 121.5 L 125.5 118.5 L 132.0 114.5 L 137.0 111.0 L 137.5 111.0 " stroke="black" fill="none" stroke-width="7.0" stroke-linecap="round" stroke-linejoin="round" />
<path d="M 118.5 136.0 L 117.0 138.0 L 118.5 138.0 L 122.5 137.5 L 127.5 135.0 L 132.0 131.5 L 135.5 129.5 " stroke="black" fill="none" stroke-width="7.0" stroke-linecap="round" stroke-linejoin="round" />
<path d="M 116.5 153.5 L 116.0 154.5 L 116.5 155.0 L 118.5 155.0 L 124.5 152.5 L 130.0 149.5 L 133.5 148.0 L 134.0 147.5 " stroke="black" fill="none" stroke-width="7.0" stroke-linecap="round" stroke-linejoin="round" />
<path d="M 111.0 171.5 L 111.5 174.5 L 113.5 178.5 L 117.0 183.0 L 120.5 186.5 L 124.0 188.5 " stroke="black" fill="none" stroke-width="7.0" stroke-linecap="round" stroke-linejoin="round" />
<path d="M 118.5 173.0 L 119.5 172.5 L 122.0 171.5 L 126.0 169.5 L 131.0 168.0 L 135.5 167.0 L 138.0 168.5 L 138.0 172.0 L 135.0 177.0 L 131.0 182.5 L 127.5 186.0 L 125.0 187.5 L 125.0 187.5 L 126.0 186.5 L 129.0 184.5 L 133.0 182.0 L 137.0 180.0 " stroke="black" fill="none" stroke-width="7.0" stroke-linecap="round" stroke-linejoin="round" />
<path d="M 156.0 117.0 L 156.0 117.0 L 155.5 116.5 L 155.0 116.0 L 155.0 115.5 L 155.5 117.5 L 157.0 124.0 L 158.0 136.0 L 157.0 151.5 L 154.5 164.5 L 152.0 170.0 L 150.0 172.0 " stroke="black" fill="none" stroke-width="7.0" stroke-linecap="round" stroke-linejoin="round" />
<path d="M 174.0 128.0 L 174.0 128.0 L 174.0 127.5 L 173.5 127.5 L 173.5 132.5 L 173.5 143.0 L 173.5 154.0 L 173.5 159.5 L 173.5 161.0 " stroke="black" fill="none" stroke-width="7.0" stroke-linecap="round" stroke-linejoin="round" />
<path d="M 190.5 95.5 L 190.5 95.5 L 190.0 95.0 L 190.0 95.0 L 190.0 97.5 L 190.0 106.0 L 190.5 123.0 L 191.0 145.0 L 190.5 164.5 L 190.0 178.0 L 190.0 188.0 L 190.5 194.0 L 190.5 194.5 " stroke="black" fill="none" stroke-width="7.0" stroke-linecap="round" stroke-linejoin="round" />
</svg>