<svg xmlns="http://www.w3.org/2000/svg" width="300" height="300" viewBox="0 0 300 300">
<path d="M 122.5 97.5 L 122.0 97.5 L 121.0 98.0 L 120.5 98.0 L 122.5 98.0 L 125.0 98.0 L 129.5 98.0 L 132.0 98.0 L 133.0 98.0 " stroke="black" fill="none" stroke-width="7.0" stroke-linecap="round" stroke-linejoin="round" />
<path d="M 118.5 118.5 L 116.5 120.5 L 116.0 121.5 L 117.5 122.5 L 121.0 122.0 L 126.5 120.0 L 131.5 117.5 L 135.0 115.5 L 137.0 115.0 " stroke="black" fill="none" stroke-width="7.0" stroke-linecap="round" stroke-linejoin="round" />
<path d="M 115.5 140.5 L 114.5 141.5 L 114.0 142.5 L 115.5 142.5 L 120.5 141.5 L 126.0 139.0 L 131.0 136.0 L 134.0 134.5 " stroke="black" fill="none" stroke-width="7.0" stroke-linecap="round" stroke-linejoin="round" />
<path d="M 116.0 157.0 L 114.5 158.5 L 114.5 159.5 L 116.5 160.0 L 122.0 159.0 L 128.0 156.0 L 133.0 153.5 " stroke="black" fill="none" stroke-width="7.0" stroke-linecap="round" stroke-linejoin="round" />
<path d="M 106.5 184.0 L 106.5 184.0 L 106.5 184.5 L 106.5 186.0 L 108.5 189.0 L 111.5 192.5 L 115.0 195.0 L 116.5 195.5 " stroke="black" fill="none" stroke-width="7.0" stroke-linecap="round" stroke-linejoin="round" />
<path d="M 114.5 183.0 L 114.5 182.5 L 115.5 181.5 L 118.5 180.5 L 125.0 178.5 L 131.5 175.5 L 136.5 174.0 L 139.0 175.0 L 138.5 179.0 L 135.0 183.5 L 130.5 189.0 L 126.0 194.0 L 122.0 197.0 L 119.5 198.5 L 119.5 198.5 L 122.0 197.0 L 126.5 194.5 L 131.5 192.5 L 137.5 190.5 " stroke="black" fill="none" stroke-width="7.0" stroke-linecap="round" stroke-linejoin="round" />
<path d="M 158.0 113.5 L 156.5 113.5 L 155.5 114.0 L 155.5 114.0 L 159.0 114.0 L 165.5 111.5 L 171.5 108.0 L 176.0 106.0 " stroke="black" fill="none" stroke-width="7.0" stroke-linecap="round" stroke-linejoin="round" />
<path d="M 166.0 89.5 L 166.0 90.0 L 165.5 93.0 L 165.5 99.0 L 166.0 109.0 L 166.5 120.0 L 167.0 127.5 L 167.0 130.0 " stroke="black" fill="none" stroke-width="7.0" stroke-linecap="round" stroke-linejoin="round" />
<path d="M 142.5 138.0 L 140.5 138.5 L 139.5 138.5 L 140.5 138.5 L 145.0 138.0 L 151.0 136.0 L 160.0 133.5 L 172.5 129.0 L 183.0 126.0 L 191.0 124.0 " stroke="black" fill="none" stroke-width="7.0" stroke-linecap="round" stroke-linejoin="round" />
<path d="M 189.0 112.0 L 188.0 112.0 L 185.5 112.5 L 182.5 115.0 L 178.5 120.5 L 172.5 129.0 L 163.0 141.5 L 150.5 154.0 L 142.5 164.0 L 137.5 168.0 " stroke="black" fill="none" stroke-width="7.0" stroke-linecap="round" stroke-linejoin="round" />
<path d="M 157.0 157.5 L 156.5 158.0 L 155.5 159.0 L 155.5 162.0 L 155.5 168.0 L 156.0 176.5 L 157.0 184.0 L 159.0 187.0 L 159.5 187.0 " stroke="black" fill="none" stroke-width="7.0" stroke-linecap="round" stroke-linejoin="round" />
<path d="M 161.5 159.5 L 162.0 157.5 L 163.5 154.5 L 167.0 152.5 L 171.0 151.0 L 176.0 150.0 L 181.0 149.0 L 184.5 150.0 L 186.5 155.5 L 186.5 163.0 L 186.0 171.0 L 183.5 179.5 L 181.5 185.5 L 180.0 187.0 L 178.5 187.0 L 177.5 187.0 " stroke="black" fill="none" stroke-width="7.0" stroke-linecap="round" stroke-linejoin="round" />
<path d="M 164.5 171.5 L 163.0 171.0 L 163.0 170.5 L 165.5 170.0 L 169.5 169.0 L 173.5 168.0 L 176.5 167.5 " stroke="black" fill="none" stroke-width="7.0" stroke-linecap="round" stroke-linejoin="round" />
<path d="M 165.0 185.5 L 162.5 187.0 L 161.5 188.0 L 163.0 188.5 L 167.5 188.5 L 172.5 187.0 L 176.0 186.0 " stroke="black" fill="none" stroke-width="7.0" stroke-linecap="round" stroke-linejoin="round" />
</svg>