<svg xmlns="http://www.w3.org/2000/svg" width="300" height="300" viewBox="0 0 300 300">
<path d="M 124.5 96.5 L 123.0 95.5 L 122.0 94.0 L 122.0 94.0 L 123.5 95.5 L 126.0 98.0 L 127.5 100.0 L 128.5 101.5 " stroke="black" fill="none" stroke-width="7.0" stroke-linecap="round" stroke-linejoin="round" />
<path d="M 106.5 121.0 L 106.0 121.0 L 106.0 121.0 L 108.0 121.0 L 114.5 119.5 L 125.0 115.5 L 134.5 111.0 L 141.0 108.0 L 144.0 107.0 L 144.0 107.5 " stroke="black" fill="none" stroke-width="7.0" stroke-linecap="round" stroke-linejoin="round" />
<path d="M 114.5 137.5 L 113.5 138.5 L 113.5 139.0 L 116.5 139.0 L 122.5 138.0 L 128.0 135.0 L 133.0 132.0 L 136.0 129.5 " stroke="black" fill="none" stroke-width="7.0" stroke-linecap="round" stroke-linejoin="round" />
<path d="M 116.5 151.5 L 116.5 152.0 L 115.5 153.0 L 117.5 153.5 L 122.0 153.0 L 127.0 151.0 L 130.5 149.0 L 132.5 148.5 " stroke="black" fill="none" stroke-width="7.0" stroke-linecap="round" stroke-linejoin="round" />
<path d="M 109.0 173.0 L 109.5 176.0 L 111.5 180.0 L 114.0 184.5 L 117.0 188.5 L 119.5 191.0 L 120.0 191.0 " stroke="black" fill="none" stroke-width="7.0" stroke-linecap="round" stroke-linejoin="round" />
<path d="M 116.5 177.5 L 117.0 177.0 L 118.5 175.0 L 122.0 173.5 L 127.0 171.5 L 132.5 169.5 L 136.0 169.0 L 137.5 171.0 L 137.0 176.0 L 133.5 181.5 L 129.5 186.5 L 125.5 190.0 L 123.0 192.0 L 122.0 192.0 L 124.0 190.0 L 127.5 187.5 L 132.5 184.5 L 133.5 184.0 " stroke="black" fill="none" stroke-width="7.0" stroke-linecap="round" stroke-linejoin="round" />
<path d="M 156.5 109.5 L 155.5 109.5 L 155.0 109.5 L 155.5 110.5 L 158.5 112.0 L 163.0 112.5 L 164.0 112.5 " stroke="black" fill="none" stroke-width="7.0" stroke-linecap="round" stroke-linejoin="round" />
<path d="M 183.0 101.5 L 183.5 101.5 L 183.5 101.5 L 183.5 102.0 L 182.0 106.0 L 179.5 109.5 " stroke="black" fill="none" stroke-width="7.0" stroke-linecap="round" stroke-linejoin="round" />
<path d="M 172.5 86.5 L 172.5 86.5 L 172.5 86.5 L 173.0 87.5 L 173.0 93.5 L 172.5 102.5 L 171.0 113.5 L 167.0 123.0 L 161.5 130.0 L 155.5 135.5 L 153.0 137.0 " stroke="black" fill="none" stroke-width="7.0" stroke-linecap="round" stroke-linejoin="round" />
<path d="M 170.5 122.0 L 170.5 122.0 L 171.0 123.0 L 172.5 124.5 L 174.5 127.0 L 178.0 130.0 L 183.0 133.0 L 188.0 135.5 " stroke="black" fill="none" stroke-width="7.0" stroke-linecap="round" stroke-linejoin="round" />
<path d="M 154.5 160.5 L 154.0 160.5 L 152.5 160.5 L 151.5 160.5 L 151.5 160.5 L 153.5 160.5 L 157.5 160.5 " stroke="black" fill="none" stroke-width="7.0" stroke-linecap="round" stroke-linejoin="round" />
<path d="M 183.5 152.5 L 184.0 152.5 L 185.5 152.0 L 186.0 151.5 L 184.5 153.5 L 181.5 157.0 L 179.0 159.5 " stroke="black" fill="none" stroke-width="7.0" stroke-linecap="round" stroke-linejoin="round" />
<path d="M 171.0 138.5 L 171.0 138.5 L 170.5 138.5 L 170.5 138.5 L 170.5 140.5 L 170.5 145.5 L 170.5 155.5 L 168.0 168.0 L 162.0 179.5 L 155.0 187.5 L 150.0 191.0 " stroke="black" fill="none" stroke-width="7.0" stroke-linecap="round" stroke-linejoin="round" />
<path d="M 169.0 175.5 L 169.0 175.5 L 169.0 175.5 L 169.5 176.0 L 172.5 178.5 L 177.5 183.0 L 185.0 188.0 L 191.0 191.0 L 194.0 192.5 " stroke="black" fill="none" stroke-width="7.0" stroke-linecap="round" stroke-linejoin="round" />
</svg>