<svg xmlns="http://www.w3.org/2000/svg" width="300" height="300" viewBox="0 0 300 300">
<path d="M 128.0 89.5 L 127.5 90.0 L 127.0 90.5 L 127.5 91.5 L 129.5 92.0 L 130.5 93.0 " stroke="black" fill="none" stroke-width="7.0" stroke-linecap="round" stroke-linejoin="round" />
<path d="M 116.0 111.5 L 114.5 113.0 L 114.5 114.5 L 117.5 114.5 L 122.5 114.0 L 126.5 112.0 L 132.5 107.5 L 136.0 105.0 L 137.5 104.0 " stroke="black" fill="none" stroke-width="7.0" stroke-linecap="round" stroke-linejoin="round" />
<path d="M 118.0 130.0 L 118.0 131.0 L 119.0 131.5 L 123.0 131.5 L 127.5 128.5 L 132.0 125.5 L 134.5 123.5 L 135.0 123.5 " stroke="black" fill="none" stroke-width="7.0" stroke-linecap="round" stroke-linejoin="round" />
<path d="M 116.5 146.5 L 116.5 148.0 L 117.5 148.0 L 121.0 147.0 L 125.5 145.0 L 129.5 142.5 L 131.5 141.5 " stroke="black" fill="none" stroke-width="7.0" stroke-linecap="round" stroke-linejoin="round" />
<path d="M 112.0 167.5 L 111.5 171.0 L 111.5 174.0 L 113.5 180.0 L 115.5 183.5 L 118.0 186.0 L 119.5 186.5 " stroke="black" fill="none" stroke-width="7.0" stroke-linecap="round" stroke-linejoin="round" />
<path d="M 117.0 176.0 L 116.5 175.0 L 117.5 173.0 L 121.5 170.5 L 126.0 168.0 L 130.5 165.5 L 133.5 165.0 L 134.5 166.0 L 134.5 169.5 L 131.5 176.5 L 128.5 182.0 L 126.0 186.0 L 125.0 187.0 L 125.5 186.5 L 128.5 184.0 L 133.0 180.5 L 137.0 178.0 " stroke="black" fill="none" stroke-width="7.0" stroke-linecap="round" stroke-linejoin="round" />
<path d="M 163.0 85.5 L 163.0 85.5 L 162.5 85.5 L 162.5 86.0 L 164.0 86.5 L 165.5 87.0 L 167.5 87.5 L 168.0 88.0 " stroke="black" fill="none" stroke-width="7.0" stroke-linecap="round" stroke-linejoin="round" />
<path d="M 149.5 103.5 L 147.5 105.0 L 146.5 105.5 L 146.5 105.5 L 147.5 105.5 L 150.5 104.5 L 155.5 102.5 L 161.5 101.0 L 172.0 97.5 L 177.5 95.5 L 179.0 95.0 L 178.5 96.0 L 178.0 96.5 " stroke="black" fill="none" stroke-width="7.0" stroke-linecap="round" stroke-linejoin="round" />
<path d="M 147.0 118.5 L 147.0 119.5 L 147.0 121.0 L 148.0 123.0 L 149.5 124.5 L 151.0 126.0 L 152.0 127.0 " stroke="black" fill="none" stroke-width="7.0" stroke-linecap="round" stroke-linejoin="round" />
<path d="M 150.5 118.0 L 150.5 117.5 L 150.5 117.0 L 151.5 116.5 L 153.5 116.0 L 155.5 116.0 L 157.5 116.0 L 159.0 117.5 L 159.0 119.5 L 158.0 122.0 L 156.5 124.0 L 155.0 125.0 L 154.5 125.5 L 155.0 125.5 L 156.5 124.0 L 159.5 122.0 " stroke="black" fill="none" stroke-width="7.0" stroke-linecap="round" stroke-linejoin="round" />
<path d="M 169.5 112.5 L 169.5 112.5 L 169.0 112.0 L 169.0 112.5 L 169.5 113.5 L 170.5 115.5 L 171.5 117.0 L 172.0 117.5 " stroke="black" fill="none" stroke-width="7.0" stroke-linecap="round" stroke-linejoin="round" />
<path d="M 171.0 110.5 L 171.0 110.0 L 171.0 109.5 L 171.0 109.0 L 171.5 108.5 L 173.0 108.0 L 174.0 107.5 L 176.5 107.0 L 178.5 107.0 L 179.5 108.5 L 180.0 110.5 L 179.5 113.0 L 178.0 115.5 L 176.0 117.5 L 174.5 119.0 L 173.5 119.5 L 173.5 119.5 L 176.0 118.5 L 177.5 117.5 " stroke="black" fill="none" stroke-width="7.0" stroke-linecap="round" stroke-linejoin="round" />
<path d="M 151.5 143.0 L 150.5 143.5 L 150.0 143.5 L 150.0 143.5 L 152.5 143.0 L 158.0 140.5 L 166.0 137.0 L 173.0 132.0 L 176.0 129.0 L 178.0 128.0 " stroke="black" fill="none" stroke-width="7.0" stroke-linecap="round" stroke-linejoin="round" />
<path d="M 152.5 154.0 L 152.0 154.5 L 150.5 156.0 L 150.5 157.0 L 151.5 157.0 L 155.5 154.5 L 161.5 151.0 L 168.5 147.0 L 174.0 143.5 L 176.5 141.5 L 177.0 141.5 " stroke="black" fill="none" stroke-width="7.0" stroke-linecap="round" stroke-linejoin="round" />
<path d="M 157.5 130.0 L 157.0 130.5 L 156.0 133.0 L 156.0 139.0 L 156.5 147.0 L 157.0 154.5 L 158.0 159.0 L 160.0 160.0 " stroke="black" fill="none" stroke-width="7.0" stroke-linecap="round" stroke-linejoin="round" />
<path d="M 170.0 125.0 L 170.0 125.5 L 170.0 128.0 L 169.5 134.0 L 169.5 142.5 L 169.5 150.0 L 169.5 157.0 L 169.5 158.5 " stroke="black" fill="none" stroke-width="7.0" stroke-linecap="round" stroke-linejoin="round" />
<path d="M 153.0 166.5 L 152.5 167.0 L 151.5 167.5 L 152.0 167.5 L 155.5 167.0 L 161.0 165.0 L 167.5 161.5 L 172.5 158.5 L 173.5 157.5 " stroke="black" fill="none" stroke-width="7.0" stroke-linecap="round" stroke-linejoin="round" />
<path d="M 163.5 164.5 L 162.5 165.0 L 160.5 167.5 L 156.5 171.5 L 152.0 178.0 L 147.5 185.5 L 143.5 191.0 L 139.5 194.5 L 138.0 196.5 " stroke="black" fill="none" stroke-width="7.0" stroke-linecap="round" stroke-linejoin="round" />
<path d="M 152.0 179.0 L 152.5 179.0 L 153.5 179.0 L 153.5 181.5 L 153.5 186.5 L 152.0 191.5 L 151.0 195.0 L 151.0 196.5 L 151.0 196.5 L 152.5 194.5 L 155.0 191.5 L 158.5 188.0 L 163.0 185.0 L 165.0 183.0 " stroke="black" fill="none" stroke-width="7.0" stroke-linecap="round" stroke-linejoin="round" />
<path d="M 175.0 169.0 L 175.0 169.0 L 175.0 168.5 L 175.0 168.5 L 175.0 168.5 L 174.0 169.5 L 172.0 171.0 L 170.0 173.0 L 167.5 174.5 L 165.0 175.0 L 163.5 175.5 L 163.0 175.5 L 163.0 175.5 L 164.5 176.0 L 166.5 177.5 L 169.5 179.5 L 174.0 181.5 L 180.5 184.0 L 188.5 186.0 L 194.5 188.0 L 198.5 190.0 L 201.5 191.0 L 203.0 191.5 " stroke="black" fill="none" stroke-width="7.0" stroke-linecap="round" stroke-linejoin="round" />
</svg>