<svg xmlns="http://www.w3.org/2000/svg" width="300" height="300" viewBox="0 0 300 300">
<path d="M 122.0 101.0 L 122.0 101.0 L 121.5 101.0 L 121.5 101.5 L 121.5 103.0 L 122.5 107.0 L 123.5 112.5 L 123.5 117.5 L 123.5 121.0 L 123.5 123.0 L 123.5 123.5 L 124.0 123.5 L 125.5 123.5 L 128.0 123.0 L 132.0 121.5 L 137.5 120.5 L 144.5 119.0 L 151.5 118.0 L 158.0 117.0 L 164.5 117.0 L 168.0 117.0 " stroke="black" fill="none" stroke-width="7.0" stroke-linecap="round" stroke-linejoin="round" />
<path d="M 173.0 96.0 L 173.0 95.5 L 173.0 95.5 L 173.0 97.5 L 173.0 103.5 L 173.0 109.5 L 173.0 117.0 " stroke="black" fill="none" stroke-width="7.0" stroke-linecap="round" stroke-linejoin="round" />
<path d="M 147.5 65.5 L 146.5 63.5 L 146.5 63.0 L 146.0 64.5 L 146.5 71.5 L 147.0 82.5 L 147.5 97.5 L 147.5 110.0 L 147.5 116.0 " stroke="black" fill="none" stroke-width="7.0" stroke-linecap="round" stroke-linejoin="round" />
<path d="M 126.0 142.0 L 125.0 142.5 L 124.0 143.0 L 122.5 143.0 L 122.5 143.5 L 122.5 143.5 L 124.5 143.0 L 128.5 141.5 L 135.0 140.0 L 144.5 137.5 L 153.0 135.5 L 159.0 134.5 L 163.0 134.5 L 164.0 134.5 " stroke="black" fill="none" stroke-width="7.0" stroke-linecap="round" stroke-linejoin="round" />
<path d="M 122.5 162.0 L 122.0 163.0 L 121.5 164.0 L 122.0 166.0 L 124.0 169.0 L 126.0 172.5 L 128.5 175.0 L 130.0 177.0 " stroke="black" fill="none" stroke-width="7.0" stroke-linecap="round" stroke-linejoin="round" />
<path d="M 130.5 160.5 L 130.0 160.5 L 129.5 160.0 L 129.5 159.5 L 129.5 159.5 L 132.0 159.0 L 137.0 158.0 L 144.5 155.5 L 153.5 153.0 L 161.0 150.5 L 166.5 150.0 L 169.0 149.5 L 169.5 151.0 L 169.5 153.5 L 167.5 158.0 L 165.0 163.5 L 162.0 167.5 L 160.0 170.0 " stroke="black" fill="none" stroke-width="7.0" stroke-linecap="round" stroke-linejoin="round" />
<path d="M 134.0 176.0 L 131.0 176.5 L 129.0 177.0 L 128.5 177.5 L 129.0 177.5 L 133.0 177.5 L 139.5 175.5 L 147.5 173.0 L 154.5 170.5 L 160.5 169.0 L 163.0 169.0 " stroke="black" fill="none" stroke-width="7.0" stroke-linecap="round" stroke-linejoin="round" />
<path d="M 138.0 181.5 L 137.5 180.5 L 137.0 179.5 L 137.0 180.0 L 138.0 183.5 L 139.5 188.5 L 141.0 194.5 L 143.0 199.0 L 143.0 200.0 " stroke="black" fill="none" stroke-width="7.0" stroke-linecap="round" stroke-linejoin="round" />
<path d="M 155.0 173.5 L 155.0 173.5 L 155.0 173.5 L 155.0 174.5 L 155.0 179.0 L 154.0 187.0 L 152.5 196.0 L 152.0 197.5 " stroke="black" fill="none" stroke-width="7.0" stroke-linecap="round" stroke-linejoin="round" />
<path d="M 105.0 207.0 L 105.0 207.0 L 104.0 207.0 L 104.0 206.5 L 104.0 206.5 L 106.5 206.0 L 112.5 205.5 L 123.5 204.5 L 138.0 202.0 L 154.0 199.0 L 169.5 196.5 L 181.5 195.5 L 191.5 196.0 L 195.5 197.5 " stroke="black" fill="none" stroke-width="7.0" stroke-linecap="round" stroke-linejoin="round" />
</svg>