<svg xmlns="http://www.w3.org/2000/svg" width="300" height="300" viewBox="0 0 300 300">
<path d="M 114.0 108.0 L 114.0 107.5 L 114.0 107.0 L 113.5 107.5 L 114.0 113.5 L 114.5 125.0 L 115.0 143.0 L 115.0 160.0 L 115.0 173.0 L 115.0 180.0 L 115.5 182.0 L 115.5 182.0 " stroke="black" fill="none" stroke-width="7.0" stroke-linecap="round" stroke-linejoin="round" />
<path d="M 120.0 109.0 L 120.0 108.0 L 121.0 105.5 L 123.0 104.0 L 126.0 102.5 L 129.0 101.0 L 132.0 100.5 L 134.0 100.0 L 135.5 101.0 L 136.0 104.5 L 137.0 111.0 L 137.5 121.0 L 137.5 136.5 L 137.0 152.0 L 137.0 162.0 L 137.0 165.0 L 137.0 165.5 L 137.5 163.5 L 137.5 162.0 " stroke="black" fill="none" stroke-width="7.0" stroke-linecap="round" stroke-linejoin="round" />
<path d="M 123.0 138.5 L 121.0 138.5 L 119.0 139.0 L 119.0 139.0 L 121.0 139.0 L 125.0 137.5 L 129.5 135.0 L 131.5 134.0 " stroke="black" fill="none" stroke-width="7.0" stroke-linecap="round" stroke-linejoin="round" />
<path d="M 121.0 152.5 L 120.5 153.5 L 120.5 154.0 L 122.5 154.5 L 125.5 153.5 L 129.0 152.5 L 130.5 152.0 " stroke="black" fill="none" stroke-width="7.0" stroke-linecap="round" stroke-linejoin="round" />
<path d="M 118.0 178.0 L 117.0 179.0 L 116.0 180.0 L 118.0 180.5 L 122.5 178.5 L 127.5 175.0 L 132.0 171.0 L 135.0 168.5 L 135.5 168.5 L 133.5 171.5 L 129.5 176.5 L 126.0 182.5 L 122.0 189.0 L 118.5 195.0 L 115.5 200.0 L 114.0 203.0 " stroke="black" fill="none" stroke-width="7.0" stroke-linecap="round" stroke-linejoin="round" />
<path d="M 128.5 182.0 L 131.5 182.5 L 135.5 186.0 L 139.5 192.0 L 143.5 198.0 L 144.5 199.0 " stroke="black" fill="none" stroke-width="7.0" stroke-linecap="round" stroke-linejoin="round" />
<path d="M 149.5 113.5 L 149.5 113.5 L 148.5 114.0 L 148.5 113.0 L 152.5 110.0 L 159.0 105.5 L 167.5 101.0 L 169.0 100.0 " stroke="black" fill="none" stroke-width="7.0" stroke-linecap="round" stroke-linejoin="round" />
<path d="M 154.0 83.5 L 154.0 85.5 L 154.0 89.5 L 156.5 97.5 L 162.0 108.5 L 168.0 119.5 L 172.0 127.0 L 175.5 132.5 L 178.0 136.0 L 180.0 137.0 L 180.0 137.5 L 180.0 135.0 L 180.0 134.5 " stroke="black" fill="none" stroke-width="7.0" stroke-linecap="round" stroke-linejoin="round" />
<path d="M 176.5 111.5 L 176.5 111.5 L 175.5 110.0 L 174.5 110.5 L 173.0 114.0 L 170.0 120.5 L 164.5 129.5 L 157.0 139.0 L 150.5 144.0 " stroke="black" fill="none" stroke-width="7.0" stroke-linecap="round" stroke-linejoin="round" />
<path d="M 167.5 81.5 L 167.5 82.5 L 167.5 85.0 L 170.0 88.5 L 174.5 93.5 L 176.0 94.5 " stroke="black" fill="none" stroke-width="7.0" stroke-linecap="round" stroke-linejoin="round" />
<path d="M 148.0 171.0 L 146.0 172.0 L 144.5 173.0 L 144.0 173.0 L 146.5 172.5 L 151.5 169.5 L 159.0 165.5 L 167.5 160.5 L 172.5 158.0 " stroke="black" fill="none" stroke-width="7.0" stroke-linecap="round" stroke-linejoin="round" />
<path d="M 155.0 147.5 L 155.5 153.0 L 158.0 161.5 L 163.0 172.5 L 168.0 184.5 L 172.0 193.5 L 176.0 199.5 L 180.0 203.0 L 183.5 204.0 L 185.5 203.0 L 185.5 200.0 L 184.5 195.5 L 184.0 194.0 " stroke="black" fill="none" stroke-width="7.0" stroke-linecap="round" stroke-linejoin="round" />
<path d="M 179.5 171.5 L 179.0 171.5 L 177.5 172.0 L 175.5 174.0 L 173.5 179.5 L 169.5 187.0 L 162.5 195.5 L 154.5 203.0 " stroke="black" fill="none" stroke-width="7.0" stroke-linecap="round" stroke-linejoin="round" />
<path d="M 168.0 146.0 L 168.0 146.5 L 168.0 147.5 L 169.5 150.0 L 173.0 156.0 L 176.0 160.0 " stroke="black" fill="none" stroke-width="7.0" stroke-linecap="round" stroke-linejoin="round" />
</svg>