<svg xmlns="http://www.w3.org/2000/svg" width="300" height="300" viewBox="0 0 300 300">
<path d="M 125.5 105.0 L 125.5 105.0 L 125.0 104.5 L 125.0 104.5 L 126.5 106.0 L 129.5 109.5 L 133.0 113.5 L 136.0 116.0 L 137.0 116.0 " stroke="black" fill="none" stroke-width="7.0" stroke-linecap="round" stroke-linejoin="round" />
<path d="M 131.0 104.5 L 131.0 104.5 L 131.0 104.5 L 131.0 104.5 L 133.0 104.0 L 140.5 101.5 L 150.5 98.0 L 159.5 95.0 L 165.5 93.5 L 169.0 93.5 L 169.5 95.5 L 168.0 98.5 L 164.5 102.5 L 159.5 107.0 L 158.0 108.0 " stroke="black" fill="none" stroke-width="7.0" stroke-linecap="round" stroke-linejoin="round" />
<path d="M 146.0 117.0 L 143.5 118.0 L 140.0 119.0 L 139.0 119.0 L 140.5 118.5 L 145.0 116.0 L 150.5 113.0 L 157.0 110.0 L 160.0 109.0 " stroke="black" fill="none" stroke-width="7.0" stroke-linecap="round" stroke-linejoin="round" />
<path d="M 149.5 75.5 L 149.5 75.0 L 149.0 75.0 L 149.0 79.5 L 149.0 93.5 L 149.0 110.5 L 149.0 125.5 L 148.5 131.0 " stroke="black" fill="none" stroke-width="7.0" stroke-linecap="round" stroke-linejoin="round" />
<path d="M 116.5 142.5 L 115.0 142.5 L 113.5 142.5 L 113.0 142.0 L 114.5 141.5 L 121.0 141.0 L 129.5 139.0 L 143.5 135.5 L 158.5 129.5 L 171.5 126.5 L 177.0 126.0 L 181.0 125.5 L 181.0 125.5 " stroke="black" fill="none" stroke-width="7.0" stroke-linecap="round" stroke-linejoin="round" />
<path d="M 131.0 150.0 L 131.0 150.0 L 131.0 150.0 L 131.0 152.0 L 132.0 161.0 L 133.0 173.5 L 134.0 184.5 L 135.0 188.0 L 135.5 188.5 " stroke="black" fill="none" stroke-width="7.0" stroke-linecap="round" stroke-linejoin="round" />
<path d="M 134.5 155.5 L 135.5 153.5 L 138.0 150.0 L 142.0 147.5 L 148.0 145.5 L 154.0 143.5 L 159.0 142.0 L 164.0 142.0 L 166.5 145.0 L 167.0 150.5 L 167.5 158.5 L 166.5 168.0 L 165.5 176.5 L 164.5 183.5 L 164.0 186.0 L 162.5 186.0 " stroke="black" fill="none" stroke-width="7.0" stroke-linecap="round" stroke-linejoin="round" />
<path d="M 145.0 165.5 L 143.0 165.0 L 142.0 164.5 L 143.0 164.5 L 146.5 164.0 L 151.0 163.0 L 155.0 161.5 L 156.0 161.0 " stroke="black" fill="none" stroke-width="7.0" stroke-linecap="round" stroke-linejoin="round" />
<path d="M 142.5 176.0 L 142.0 177.0 L 142.0 177.5 L 144.5 177.5 L 148.5 175.5 L 153.0 173.0 L 155.0 172.0 " stroke="black" fill="none" stroke-width="7.0" stroke-linecap="round" stroke-linejoin="round" />
<path d="M 139.0 189.0 L 137.5 190.5 L 138.0 191.0 L 141.5 191.0 L 147.0 189.0 L 152.5 186.0 L 157.0 183.5 L 159.5 182.5 L 158.5 183.5 L 155.0 186.5 L 151.5 190.0 L 147.5 194.5 L 143.5 199.0 L 137.5 205.0 L 132.0 210.0 L 129.0 212.5 " stroke="black" fill="none" stroke-width="7.0" stroke-linecap="round" stroke-linejoin="round" />
<path d="M 152.0 192.5 L 156.5 194.0 L 162.5 199.0 L 167.5 206.5 L 171.0 212.5 L 174.0 217.5 " stroke="black" fill="none" stroke-width="7.0" stroke-linecap="round" stroke-linejoin="round" />
</svg>