<svg xmlns="http://www.w3.org/2000/svg" width="300" height="300" viewBox="0 0 300 300">
<path d="M 147.5 82.5 L 147.5 82.5 L 146.5 82.0 L 146.0 82.0 L 145.5 82.0 L 147.0 83.5 L 149.0 85.5 " stroke="black" fill="none" stroke-width="7.0" stroke-linecap="round" stroke-linejoin="round" />
<path d="M 111.5 101.0 L 111.0 101.0 L 110.0 101.5 L 110.0 103.0 L 111.5 105.0 L 113.5 108.0 L 116.0 110.5 L 118.0 112.5 " stroke="black" fill="none" stroke-width="7.0" stroke-linecap="round" stroke-linejoin="round" />
<path d="M 115.0 103.0 L 115.5 103.0 L 116.0 102.5 L 118.5 101.5 L 124.5 100.0 L 133.5 97.5 L 145.5 94.5 L 156.0 91.0 L 167.0 87.5 L 174.0 85.5 L 178.5 85.0 L 181.5 85.5 L 182.0 88.0 L 181.0 92.5 L 177.5 98.5 L 175.5 101.0 " stroke="black" fill="none" stroke-width="7.0" stroke-linecap="round" stroke-linejoin="round" />
<path d="M 140.0 112.5 L 138.5 113.0 L 137.5 113.5 L 138.0 113.5 L 142.0 113.0 L 148.0 110.5 L 153.0 107.5 L 157.0 106.0 " stroke="black" fill="none" stroke-width="7.0" stroke-linecap="round" stroke-linejoin="round" />
<path d="M 139.0 123.5 L 138.0 125.0 L 136.0 127.5 L 133.0 132.5 L 130.5 138.0 L 128.5 141.5 L 128.5 142.0 " stroke="black" fill="none" stroke-width="7.0" stroke-linecap="round" stroke-linejoin="round" />
<path d="M 149.5 118.5 L 149.5 118.5 L 149.5 120.0 L 149.5 122.5 L 149.5 128.0 L 149.5 134.0 L 149.5 135.0 " stroke="black" fill="none" stroke-width="7.0" stroke-linecap="round" stroke-linejoin="round" />
<path d="M 163.0 120.5 L 163.0 120.5 L 163.0 120.0 L 162.5 120.0 L 161.0 121.0 L 157.0 125.5 L 150.5 135.5 L 139.5 148.0 L 128.0 160.0 L 120.5 168.0 L 115.0 172.0 L 114.0 172.5 " stroke="black" fill="none" stroke-width="7.0" stroke-linecap="round" stroke-linejoin="round" />
<path d="M 138.5 151.5 L 138.5 151.0 L 138.5 150.5 L 138.5 153.0 L 138.5 159.0 L 138.0 168.0 L 137.5 176.0 L 138.0 179.5 L 138.5 180.0 " stroke="black" fill="none" stroke-width="7.0" stroke-linecap="round" stroke-linejoin="round" />
<path d="M 145.0 149.0 L 146.5 147.5 L 148.5 146.0 L 151.5 144.5 L 156.0 142.5 L 161.5 140.5 L 166.0 139.0 L 168.0 139.0 L 168.5 141.5 L 168.5 146.0 L 168.0 152.0 L 167.0 160.5 L 166.5 168.5 L 166.5 173.0 L 166.5 175.5 L 165.5 175.5 L 165.5 175.5 " stroke="black" fill="none" stroke-width="7.0" stroke-linecap="round" stroke-linejoin="round" />
<path d="M 146.0 160.5 L 145.0 160.5 L 144.5 160.5 L 144.5 160.5 L 146.5 160.0 L 150.5 159.0 L 155.0 157.0 L 159.5 155.5 L 161.5 155.0 " stroke="black" fill="none" stroke-width="7.0" stroke-linecap="round" stroke-linejoin="round" />
<path d="M 147.0 168.5 L 146.5 169.0 L 146.0 170.0 L 146.0 170.5 L 148.5 170.5 L 151.5 169.0 L 155.0 167.5 L 157.5 166.5 " stroke="black" fill="none" stroke-width="7.0" stroke-linecap="round" stroke-linejoin="round" />
<path d="M 140.5 184.5 L 140.5 185.0 L 139.0 185.5 L 138.0 186.0 L 139.0 186.5 L 143.0 185.5 L 148.5 183.0 L 154.0 180.5 L 159.5 177.5 L 160.5 177.0 " stroke="black" fill="none" stroke-width="7.0" stroke-linecap="round" stroke-linejoin="round" />
<path d="M 153.0 181.0 L 152.5 182.0 L 151.0 183.5 L 149.5 186.5 L 146.0 191.0 L 141.0 197.5 L 135.5 203.0 L 131.0 206.5 L 129.5 207.0 " stroke="black" fill="none" stroke-width="7.0" stroke-linecap="round" stroke-linejoin="round" />
<path d="M 152.5 180.5 L 152.5 181.5 L 154.0 183.0 L 157.0 187.5 L 163.0 195.0 L 168.5 202.0 L 172.0 206.5 L 172.5 208.5 " stroke="black" fill="none" stroke-width="7.0" stroke-linecap="round" stroke-linejoin="round" />
</svg>