<svg xmlns="http://www.w3.org/2000/svg" width="300" height="300" viewBox="0 0 300 300">
<path d="M 124.5 117.0 L 124.0 117.0 L 123.0 117.0 L 122.5 117.0 L 123.5 116.5 L 127.0 115.5 L 131.0 114.0 L 135.0 112.0 L 137.5 111.5 " stroke="black" fill="none" stroke-width="7.0" stroke-linecap="round" stroke-linejoin="round" />
<path d="M 107.5 135.0 L 107.5 135.5 L 107.5 137.5 L 109.5 140.0 L 112.5 143.5 L 116.0 147.0 L 119.0 149.0 L 121.0 149.5 " stroke="black" fill="none" stroke-width="7.0" stroke-linecap="round" stroke-linejoin="round" />
<path d="M 114.5 140.5 L 114.5 140.5 L 114.5 140.0 L 114.5 139.5 L 118.5 138.5 L 125.0 136.5 L 132.0 133.0 L 139.5 129.5 L 145.0 128.5 L 147.0 129.5 L 147.5 132.5 L 146.0 136.5 L 143.0 140.5 L 139.0 144.0 L 134.0 146.5 " stroke="black" fill="none" stroke-width="7.0" stroke-linecap="round" stroke-linejoin="round" />
<path d="M 128.0 149.0 L 127.0 150.0 L 123.5 152.5 L 121.0 153.5 L 120.5 154.0 L 122.5 153.0 L 126.5 150.0 L 131.5 147.0 L 137.5 144.5 L 143.5 142.5 " stroke="black" fill="none" stroke-width="7.0" stroke-linecap="round" stroke-linejoin="round" />
<path d="M 127.0 98.5 L 126.5 99.5 L 126.5 102.5 L 127.0 113.0 L 128.5 131.0 L 129.5 151.0 L 130.0 171.5 L 130.5 186.5 L 130.5 194.5 L 129.5 199.5 L 129.0 200.0 " stroke="black" fill="none" stroke-width="7.0" stroke-linecap="round" stroke-linejoin="round" />
<path d="M 128.5 158.0 L 128.5 157.5 L 128.5 157.0 L 128.5 158.0 L 127.0 161.5 L 124.0 166.5 L 119.5 173.5 L 114.5 179.0 L 113.0 180.0 " stroke="black" fill="none" stroke-width="7.0" stroke-linecap="round" stroke-linejoin="round" />
<path d="M 127.5 155.5 L 128.0 155.5 L 130.5 157.0 L 135.0 160.5 L 141.5 166.5 L 147.0 173.0 L 151.0 178.5 L 151.5 179.5 " stroke="black" fill="none" stroke-width="7.0" stroke-linecap="round" stroke-linejoin="round" />
<path d="M 161.5 108.5 L 160.5 109.5 L 159.0 110.5 L 158.5 111.0 L 158.5 111.0 L 161.0 110.0 L 165.0 107.5 L 169.0 105.0 L 173.0 103.0 L 176.5 101.5 L 178.5 101.5 L 180.0 102.5 L 180.5 105.5 L 180.5 109.5 L 180.0 114.5 L 178.5 119.5 L 176.5 122.5 L 175.5 123.5 " stroke="black" fill="none" stroke-width="7.0" stroke-linecap="round" stroke-linejoin="round" />
<path d="M 168.0 110.0 L 168.0 109.0 L 168.0 108.0 L 167.5 109.0 L 166.0 113.5 L 163.5 120.0 L 159.5 127.0 L 159.0 129.0 " stroke="black" fill="none" stroke-width="7.0" stroke-linecap="round" stroke-linejoin="round" />
<path d="M 153.5 143.5 L 153.5 143.5 L 153.5 143.0 L 153.5 143.0 L 153.5 144.5 L 153.5 151.0 L 153.5 160.5 L 153.5 177.0 L 153.5 184.5 L 154.0 187.0 L 154.0 187.0 " stroke="black" fill="none" stroke-width="7.0" stroke-linecap="round" stroke-linejoin="round" />
<path d="M 158.5 146.5 L 158.5 146.5 L 159.0 146.0 L 159.5 145.5 L 162.0 144.0 L 167.0 141.5 L 171.0 139.5 L 175.5 138.0 L 176.5 138.0 L 177.0 140.0 L 177.5 143.0 L 178.0 149.0 L 178.0 157.5 L 178.0 167.0 L 178.0 174.5 L 178.0 179.5 L 177.5 182.0 L 177.0 182.0 " stroke="black" fill="none" stroke-width="7.0" stroke-linecap="round" stroke-linejoin="round" />
<path d="M 161.0 161.5 L 158.5 161.5 L 157.0 162.0 L 157.5 162.0 L 159.0 162.0 L 164.0 162.0 L 169.0 160.5 L 171.5 159.5 L 173.5 158.5 " stroke="black" fill="none" stroke-width="7.0" stroke-linecap="round" stroke-linejoin="round" />
<path d="M 160.0 171.5 L 160.0 172.0 L 160.0 173.0 L 161.5 173.0 L 163.5 173.0 L 167.5 171.5 L 170.5 170.5 L 171.0 170.0 " stroke="black" fill="none" stroke-width="7.0" stroke-linecap="round" stroke-linejoin="round" />
<path d="M 156.0 187.5 L 155.5 188.0 L 155.0 188.5 L 156.0 188.5 L 159.5 188.0 L 164.5 186.0 L 168.5 184.5 L 171.5 183.5 L 172.0 183.0 L 170.5 184.5 L 168.0 188.0 L 164.5 191.5 L 160.5 196.0 L 158.0 199.5 L 153.5 205.0 L 151.5 207.5 L 150.5 207.5 " stroke="black" fill="none" stroke-width="7.0" stroke-linecap="round" stroke-linejoin="round" />
<path d="M 167.5 192.0 L 169.5 193.0 L 172.5 195.0 L 176.0 199.5 L 179.0 205.0 L 182.5 208.5 " stroke="black" fill="none" stroke-width="7.0" stroke-linecap="round" stroke-linejoin="round" />
</svg>