<svg xmlns="http://www.w3.org/2000/svg" width="300" height="300" viewBox="0 0 300 300">
<path d="M 147.5 88.0 L 147.5 87.5 L 147.5 86.5 L 147.5 85.5 L 148.0 87.0 L 149.5 93.0 L 150.0 103.0 L 150.0 114.0 L 150.0 121.0 L 150.0 123.5 L 150.0 123.5 " stroke="black" fill="none" stroke-width="7.0" stroke-linecap="round" stroke-linejoin="round" />
<path d="M 152.0 110.0 L 152.0 109.0 L 152.5 107.5 L 154.0 106.0 L 158.0 103.5 L 164.0 101.5 L 167.5 100.0 " stroke="black" fill="none" stroke-width="7.0" stroke-linecap="round" stroke-linejoin="round" />
<path d="M 132.0 136.5 L 132.0 136.5 L 132.0 135.5 L 132.0 134.5 L 132.0 134.5 L 132.5 137.0 L 134.0 143.5 L 135.0 154.0 L 136.0 166.5 L 136.0 174.5 L 136.0 177.5 L 136.5 177.0 L 136.5 173.5 " stroke="black" fill="none" stroke-width="7.0" stroke-linecap="round" stroke-linejoin="round" />
<path d="M 139.5 135.0 L 139.5 133.0 L 141.0 131.5 L 143.5 130.5 L 148.0 129.5 L 153.0 127.5 L 159.5 125.5 L 165.5 123.5 L 168.5 123.5 L 169.5 124.5 L 169.5 128.0 L 170.0 134.0 L 170.0 142.5 L 169.5 152.0 L 169.0 160.5 L 168.5 166.0 L 168.5 168.0 L 168.5 168.0 " stroke="black" fill="none" stroke-width="7.0" stroke-linecap="round" stroke-linejoin="round" />
<path d="M 146.5 149.5 L 145.5 149.5 L 144.5 149.5 L 144.5 149.0 L 145.0 149.0 L 147.0 148.0 L 150.0 146.5 L 154.0 145.0 L 156.5 144.5 " stroke="black" fill="none" stroke-width="7.0" stroke-linecap="round" stroke-linejoin="round" />
<path d="M 146.0 161.5 L 145.5 162.5 L 145.5 163.0 L 147.0 163.0 L 150.0 162.0 L 154.0 160.5 L 157.0 159.5 " stroke="black" fill="none" stroke-width="7.0" stroke-linecap="round" stroke-linejoin="round" />
<path d="M 140.0 177.0 L 138.5 178.0 L 137.5 178.5 L 136.0 178.5 L 136.0 179.0 L 135.5 179.0 L 138.0 178.5 L 142.0 177.5 L 147.5 175.5 L 154.5 173.0 L 161.0 170.0 L 164.0 169.5 " stroke="black" fill="none" stroke-width="7.0" stroke-linecap="round" stroke-linejoin="round" />
<path d="M 151.5 177.5 L 151.5 176.5 L 152.0 175.0 L 152.0 174.0 L 152.0 174.0 L 151.5 175.5 L 150.0 179.0 L 146.0 185.0 L 140.5 191.5 L 133.5 198.0 L 130.5 201.0 " stroke="black" fill="none" stroke-width="7.0" stroke-linecap="round" stroke-linejoin="round" />
<path d="M 152.0 176.5 L 152.5 176.5 L 152.5 177.0 L 154.5 179.5 L 159.0 185.0 L 165.0 192.0 L 170.5 199.0 L 173.0 204.5 L 173.5 205.5 " stroke="black" fill="none" stroke-width="7.0" stroke-linecap="round" stroke-linejoin="round" />
</svg>