<svg xmlns="http://www.w3.org/2000/svg" width="300" height="300" viewBox="0 0 300 300">
<path d="M 129.0 105.5 L 127.5 107.0 L 126.5 107.5 L 127.5 107.5 L 130.5 105.5 L 134.5 103.0 L 139.0 101.5 " stroke="black" fill="none" stroke-width="7.0" stroke-linecap="round" stroke-linejoin="round" />
<path d="M 124.5 123.5 L 122.0 125.5 L 121.5 126.5 L 124.0 126.0 L 128.5 123.0 L 134.5 119.0 L 138.5 116.5 " stroke="black" fill="none" stroke-width="7.0" stroke-linecap="round" stroke-linejoin="round" />
<path d="M 155.0 80.5 L 155.5 80.0 L 155.5 79.0 L 156.0 79.0 L 156.0 83.0 L 155.5 89.0 L 153.5 95.0 L 152.0 98.5 L 152.0 98.5 L 152.0 97.5 L 154.0 95.0 L 157.5 92.5 L 162.5 89.0 L 168.0 85.5 L 172.0 84.0 L 174.0 84.0 L 174.0 86.5 L 173.0 90.0 L 172.0 92.0 " stroke="black" fill="none" stroke-width="7.0" stroke-linecap="round" stroke-linejoin="round" />
<path d="M 160.5 97.0 L 160.5 96.0 L 160.5 95.5 L 160.5 95.5 L 161.0 98.0 L 160.5 103.5 L 157.5 112.5 L 153.0 121.5 L 149.0 126.5 L 147.0 127.5 L 147.0 127.5 " stroke="black" fill="none" stroke-width="7.0" stroke-linecap="round" stroke-linejoin="round" />
<path d="M 158.0 112.5 L 159.0 112.5 L 162.0 112.0 L 166.5 112.5 L 170.0 115.5 L 173.0 119.0 L 175.5 122.5 L 175.5 123.0 " stroke="black" fill="none" stroke-width="7.0" stroke-linecap="round" stroke-linejoin="round" />
<path d="M 131.5 144.0 L 131.5 143.0 L 131.0 142.0 L 131.0 141.5 L 131.0 142.5 L 132.0 149.0 L 132.5 159.5 L 132.5 170.5 L 132.5 177.0 L 132.5 178.5 L 133.0 176.5 " stroke="black" fill="none" stroke-width="7.0" stroke-linecap="round" stroke-linejoin="round" />
<path d="M 137.0 143.5 L 137.5 142.5 L 138.5 141.5 L 141.5 140.5 L 146.5 139.5 L 153.0 137.0 L 159.0 134.0 L 164.5 132.5 L 167.0 132.5 L 167.5 135.0 L 167.5 140.0 L 167.5 146.5 L 167.0 155.5 L 166.5 164.5 L 166.5 170.5 L 166.0 173.0 L 164.5 173.5 L 164.0 173.5 " stroke="black" fill="none" stroke-width="7.0" stroke-linecap="round" stroke-linejoin="round" />
<path d="M 143.5 156.0 L 143.0 156.0 L 140.5 155.5 L 140.0 155.0 L 140.5 155.0 L 144.0 155.0 L 148.5 155.0 L 153.0 154.0 L 157.0 152.5 L 159.5 152.0 " stroke="black" fill="none" stroke-width="7.0" stroke-linecap="round" stroke-linejoin="round" />
<path d="M 145.0 164.0 L 144.0 164.5 L 142.0 166.0 L 142.0 166.5 L 144.5 166.5 L 148.0 166.0 L 152.0 164.5 L 155.5 163.0 L 156.0 163.0 " stroke="black" fill="none" stroke-width="7.0" stroke-linecap="round" stroke-linejoin="round" />
<path d="M 140.5 178.5 L 138.5 179.5 L 137.0 181.0 L 137.0 182.5 L 140.0 182.5 L 145.5 181.0 L 150.5 178.5 L 155.5 175.5 L 159.0 173.5 L 160.0 173.0 L 157.5 175.5 L 153.5 179.0 L 150.0 183.0 L 145.5 188.0 L 139.0 193.5 L 132.5 199.0 L 129.0 201.5 L 128.5 202.0 " stroke="black" fill="none" stroke-width="7.0" stroke-linecap="round" stroke-linejoin="round" />
<path d="M 151.0 183.5 L 151.5 183.5 L 155.5 185.0 L 162.0 189.0 L 168.0 195.0 L 172.0 201.0 L 175.0 206.5 " stroke="black" fill="none" stroke-width="7.0" stroke-linecap="round" stroke-linejoin="round" />
</svg>