<svg xmlns="http://www.w3.org/2000/svg" width="300" height="300" viewBox="0 0 300 300">
<path d="M 125.0 94.0 L 124.0 94.0 L 122.0 94.5 L 120.5 95.0 L 119.0 95.5 L 119.5 95.5 L 123.0 95.0 L 128.0 92.0 L 134.0 88.5 L 141.0 85.0 L 146.5 82.5 L 147.0 82.0 " stroke="black" fill="none" stroke-width="7.0" stroke-linecap="round" stroke-linejoin="round" />
<path d="M 133.0 93.5 L 133.0 94.0 L 132.5 95.0 L 132.0 97.5 L 132.0 100.0 L 132.0 104.5 L 132.0 107.5 " stroke="black" fill="none" stroke-width="7.0" stroke-linecap="round" stroke-linejoin="round" />
<path d="M 122.5 110.5 L 122.0 111.0 L 120.0 112.0 L 118.5 112.5 L 118.5 112.5 L 121.0 112.5 L 125.0 110.5 L 129.5 108.0 L 134.0 105.5 L 139.5 103.5 L 144.0 102.0 L 146.0 102.5 L 146.0 104.0 L 144.0 106.5 L 142.0 109.5 L 139.5 113.0 L 137.0 116.0 " stroke="black" fill="none" stroke-width="7.0" stroke-linecap="round" stroke-linejoin="round" />
<path d="M 127.0 123.5 L 125.0 124.0 L 124.0 124.5 L 124.0 125.0 L 125.5 124.5 L 129.0 122.5 L 134.0 120.0 L 138.5 117.5 L 141.5 116.5 " stroke="black" fill="none" stroke-width="7.0" stroke-linecap="round" stroke-linejoin="round" />
<path d="M 131.0 123.0 L 131.0 125.5 L 131.0 129.5 L 131.0 136.0 L 130.5 141.0 " stroke="black" fill="none" stroke-width="7.0" stroke-linecap="round" stroke-linejoin="round" />
<path d="M 112.0 105.0 L 112.0 105.5 L 112.0 107.0 L 112.0 111.5 L 113.5 119.5 L 114.5 129.0 L 115.0 137.5 L 115.5 143.0 L 115.5 144.5 L 116.0 145.5 L 116.5 145.5 L 118.0 145.5 L 121.5 144.0 L 126.5 141.5 L 132.5 139.5 L 140.0 137.5 L 146.0 137.0 " stroke="black" fill="none" stroke-width="7.0" stroke-linecap="round" stroke-linejoin="round" />
<path d="M 159.0 101.0 L 158.0 101.0 L 157.0 101.0 L 156.5 101.0 L 157.5 101.0 L 161.5 99.5 L 166.5 97.0 L 170.5 95.0 L 172.5 94.5 L 173.0 95.5 L 172.5 99.0 L 170.0 104.5 L 167.0 113.0 L 162.5 122.0 L 158.0 128.5 L 155.0 132.5 L 153.0 133.5 L 153.0 133.5 " stroke="black" fill="none" stroke-width="7.0" stroke-linecap="round" stroke-linejoin="round" />
<path d="M 152.0 111.0 L 152.0 111.0 L 153.0 111.5 L 157.5 115.0 L 165.5 120.5 L 173.0 125.5 L 178.5 129.5 L 184.0 133.0 " stroke="black" fill="none" stroke-width="7.0" stroke-linecap="round" stroke-linejoin="round" />
<path d="M 131.0 153.0 L 131.0 153.0 L 130.5 153.0 L 130.5 154.0 L 131.5 159.5 L 132.5 168.5 L 133.0 177.0 L 133.5 183.0 L 134.0 184.0 L 134.0 184.0 " stroke="black" fill="none" stroke-width="7.0" stroke-linecap="round" stroke-linejoin="round" />
<path d="M 136.0 153.5 L 137.0 151.5 L 139.0 149.0 L 143.0 147.5 L 148.5 146.0 L 154.5 143.5 L 160.5 141.5 L 165.5 141.0 L 168.0 141.5 L 169.0 144.5 L 169.0 149.0 L 169.0 155.5 L 168.5 163.5 L 168.5 170.5 L 168.5 175.5 L 168.5 178.5 L 168.0 179.0 " stroke="black" fill="none" stroke-width="7.0" stroke-linecap="round" stroke-linejoin="round" />
<path d="M 144.5 164.5 L 144.0 164.0 L 142.5 164.0 L 142.5 164.0 L 144.0 164.0 L 147.0 163.5 L 151.5 162.0 L 155.5 160.0 L 157.5 159.5 " stroke="black" fill="none" stroke-width="7.0" stroke-linecap="round" stroke-linejoin="round" />
<path d="M 144.5 175.0 L 144.5 176.5 L 144.5 177.0 L 146.5 177.0 L 150.0 175.5 L 154.0 172.5 L 156.5 171.0 " stroke="black" fill="none" stroke-width="7.0" stroke-linecap="round" stroke-linejoin="round" />
<path d="M 140.5 188.0 L 139.5 188.5 L 138.5 189.0 L 139.5 189.5 L 143.5 189.0 L 148.0 187.0 L 154.0 184.5 L 160.0 181.5 L 163.5 180.5 L 163.5 181.0 L 163.0 181.5 " stroke="black" fill="none" stroke-width="7.0" stroke-linecap="round" stroke-linejoin="round" />
<path d="M 154.0 188.0 L 153.0 189.0 L 150.5 191.0 L 148.5 193.0 L 146.0 196.5 L 141.0 201.0 L 136.0 205.5 L 132.5 208.5 " stroke="black" fill="none" stroke-width="7.0" stroke-linecap="round" stroke-linejoin="round" />
<path d="M 154.5 194.5 L 156.0 195.5 L 160.0 198.5 L 164.0 204.0 L 168.0 209.0 L 170.5 214.0 " stroke="black" fill="none" stroke-width="7.0" stroke-linecap="round" stroke-linejoin="round" />
</svg>