<svg xmlns="http://www.w3.org/2000/svg" width="300" height="300" viewBox="0 0 300 300">
<path d="M 145.5 96.5 L 145.5 96.0 L 145.5 95.5 L 145.0 95.5 L 144.0 97.5 L 141.0 103.5 L 135.0 113.5 L 127.0 125.0 L 118.5 133.5 L 113.0 138.0 " stroke="black" fill="none" stroke-width="7.0" stroke-linecap="round" stroke-linejoin="round" />
<path d="M 162.5 104.0 L 162.5 104.0 L 162.0 104.0 L 163.0 104.5 L 166.5 107.0 L 171.0 111.0 L 176.5 115.5 L 183.0 119.5 L 188.5 122.0 L 191.0 123.5 " stroke="black" fill="none" stroke-width="7.0" stroke-linecap="round" stroke-linejoin="round" />
<path d="M 153.5 120.0 L 153.0 120.0 L 152.5 120.0 L 151.5 121.5 L 149.5 126.5 L 143.5 136.5 L 133.0 148.0 L 123.5 158.5 L 114.0 165.5 L 107.5 169.0 L 107.0 169.0 " stroke="black" fill="none" stroke-width="7.0" stroke-linecap="round" stroke-linejoin="round" />
<path d="M 147.5 136.0 L 148.5 136.0 L 151.0 136.5 L 155.5 138.5 L 163.5 141.5 L 172.5 144.5 L 179.5 147.0 L 186.0 150.0 L 191.0 152.5 L 193.0 154.0 " stroke="black" fill="none" stroke-width="7.0" stroke-linecap="round" stroke-linejoin="round" />
<path d="M 127.5 170.5 L 127.0 171.5 L 127.0 173.0 L 127.5 176.0 L 129.0 181.0 L 131.5 186.0 L 134.0 189.5 L 134.5 190.0 " stroke="black" fill="none" stroke-width="7.0" stroke-linecap="round" stroke-linejoin="round" />
<path d="M 132.5 172.5 L 132.5 172.0 L 133.5 171.5 L 136.5 170.5 L 144.0 168.5 L 152.5 166.0 L 158.5 164.5 L 164.0 164.5 L 167.0 166.0 L 167.5 169.0 L 166.5 173.0 L 163.0 178.5 L 158.5 183.5 L 153.0 188.0 L 148.5 190.0 L 145.0 191.0 L 142.0 191.0 L 140.0 191.0 L 140.0 190.5 L 144.0 188.5 L 150.0 186.0 L 156.5 184.0 L 164.5 183.0 L 166.5 183.0 " stroke="black" fill="none" stroke-width="7.0" stroke-linecap="round" stroke-linejoin="round" />
</svg>