<svg xmlns="http://www.w3.org/2000/svg" width="300" height="300" viewBox="0 0 300 300">
<path d="M 124.0 83.0 L 124.0 83.0 L 124.0 82.5 L 124.0 82.0 L 124.0 82.0 L 124.5 84.5 L 125.0 88.5 L 125.0 93.0 L 124.0 96.5 L 122.0 98.5 L 121.0 99.0 L 121.0 99.0 L 122.5 98.5 L 125.5 96.5 L 129.0 93.5 L 133.0 90.5 L 136.0 88.5 " stroke="black" fill="none" stroke-width="7.0" stroke-linecap="round" stroke-linejoin="round" />
<path d="M 111.5 117.5 L 109.5 118.5 L 108.0 119.0 L 108.0 119.5 L 109.0 119.5 L 113.0 118.0 L 119.5 115.0 L 127.5 110.0 L 137.5 104.5 L 146.0 100.5 L 147.5 100.0 " stroke="black" fill="none" stroke-width="7.0" stroke-linecap="round" stroke-linejoin="round" />
<path d="M 134.0 75.5 L 134.0 78.0 L 134.0 83.0 L 134.0 90.5 L 133.5 104.5 L 133.0 106.5 " stroke="black" fill="none" stroke-width="7.0" stroke-linecap="round" stroke-linejoin="round" />
<path d="M 132.0 111.0 L 132.0 111.0 L 131.5 112.0 L 130.5 114.5 L 129.0 119.5 L 126.5 126.5 L 123.0 134.0 L 118.5 139.5 L 116.5 140.5 " stroke="black" fill="none" stroke-width="7.0" stroke-linecap="round" stroke-linejoin="round" />
<path d="M 130.5 116.0 L 131.0 116.0 L 132.0 116.0 L 133.0 119.5 L 134.0 126.0 L 135.5 133.0 L 137.0 137.5 L 139.5 138.5 L 142.5 136.5 L 145.5 130.5 L 148.0 123.5 L 150.5 116.0 " stroke="black" fill="none" stroke-width="7.0" stroke-linecap="round" stroke-linejoin="round" />
<path d="M 159.5 81.0 L 159.5 81.0 L 159.5 81.5 L 159.5 83.0 L 159.0 87.5 L 157.5 92.5 L 156.0 96.0 L 155.5 97.5 L 155.5 97.0 L 158.5 95.0 L 163.0 91.5 L 168.0 87.5 L 172.0 84.0 L 174.5 82.5 " stroke="black" fill="none" stroke-width="7.0" stroke-linecap="round" stroke-linejoin="round" />
<path d="M 154.0 110.5 L 153.0 111.5 L 151.5 112.5 L 151.5 113.0 L 154.0 111.5 L 159.0 108.0 L 166.5 103.5 L 174.0 99.0 L 180.0 96.5 " stroke="black" fill="none" stroke-width="7.0" stroke-linecap="round" stroke-linejoin="round" />
<path d="M 170.5 76.5 L 170.5 79.5 L 170.0 85.0 L 169.5 95.0 L 168.0 105.5 L 166.0 114.0 " stroke="black" fill="none" stroke-width="7.0" stroke-linecap="round" stroke-linejoin="round" />
<path d="M 167.5 106.5 L 167.5 106.5 L 168.0 106.5 L 168.0 108.5 L 166.5 112.5 L 161.0 122.5 L 156.5 130.5 L 153.0 136.5 L 152.0 139.5 L 152.0 139.5 " stroke="black" fill="none" stroke-width="7.0" stroke-linecap="round" stroke-linejoin="round" />
<path d="M 166.0 114.0 L 167.0 112.5 L 168.5 111.0 L 169.5 112.0 L 170.0 116.5 L 170.5 121.0 L 171.0 125.0 L 172.0 128.5 L 173.5 130.0 L 177.0 130.0 L 180.5 129.0 L 184.0 127.0 L 187.5 125.0 L 190.0 123.5 L 191.5 122.0 L 193.0 118.5 L 193.0 114.0 L 191.5 107.5 " stroke="black" fill="none" stroke-width="7.0" stroke-linecap="round" stroke-linejoin="round" />
<path d="M 129.5 155.5 L 129.5 155.0 L 129.0 154.5 L 129.0 154.0 L 129.5 157.0 L 130.0 164.5 L 130.5 175.5 L 130.5 184.5 L 130.5 188.5 L 130.5 188.5 L 131.0 187.0 " stroke="black" fill="none" stroke-width="7.0" stroke-linecap="round" stroke-linejoin="round" />
<path d="M 138.0 153.5 L 138.0 152.5 L 138.0 151.5 L 138.0 150.5 L 139.0 150.0 L 142.5 148.5 L 148.0 146.5 L 154.0 144.5 L 159.5 143.5 L 163.5 143.0 L 166.0 143.5 L 167.0 145.5 L 167.5 150.0 L 167.5 157.5 L 167.5 165.5 L 167.5 173.0 L 167.0 178.0 L 166.5 180.0 L 165.0 181.0 " stroke="black" fill="none" stroke-width="7.0" stroke-linecap="round" stroke-linejoin="round" />
<path d="M 145.0 165.5 L 143.5 166.0 L 142.5 166.0 L 142.0 166.0 L 144.0 166.0 L 147.5 164.5 L 151.0 162.0 L 154.5 160.5 L 155.0 160.0 " stroke="black" fill="none" stroke-width="7.0" stroke-linecap="round" stroke-linejoin="round" />
<path d="M 141.0 178.5 L 140.5 179.5 L 140.5 180.0 L 142.5 179.5 L 146.0 177.5 L 150.0 175.0 L 152.0 173.5 " stroke="black" fill="none" stroke-width="7.0" stroke-linecap="round" stroke-linejoin="round" />
<path d="M 134.5 192.0 L 134.0 193.0 L 133.0 193.5 L 134.0 194.0 L 138.0 193.5 L 143.5 190.5 L 150.5 186.5 L 156.5 182.5 L 160.0 181.0 L 161.0 182.0 L 158.5 185.0 L 155.0 188.0 L 151.5 190.0 L 148.5 193.0 L 146.0 195.5 L 142.5 199.0 L 137.5 204.0 L 132.5 209.0 L 129.0 212.5 L 128.0 214.0 L 128.0 214.0 " stroke="black" fill="none" stroke-width="7.0" stroke-linecap="round" stroke-linejoin="round" />
<path d="M 154.0 188.5 L 153.5 188.0 L 152.5 187.0 L 153.0 187.0 L 157.0 192.0 L 163.0 201.5 L 169.5 211.0 L 173.0 216.5 " stroke="black" fill="none" stroke-width="7.0" stroke-linecap="round" stroke-linejoin="round" />
</svg>