<svg xmlns="http://www.w3.org/2000/svg" width="300" height="300" viewBox="0 0 300 300">
<path d="M 152.5 80.0 L 152.5 80.0 L 152.5 79.5 L 152.5 79.5 L 151.0 82.5 L 147.5 89.5 L 142.0 97.0 L 136.0 102.5 " stroke="black" fill="none" stroke-width="7.0" stroke-linecap="round" stroke-linejoin="round" />
<path d="M 132.5 104.5 L 132.5 104.5 L 132.0 104.5 L 132.0 104.0 L 132.0 104.0 L 132.0 106.5 L 132.5 113.5 L 133.0 126.5 L 133.0 139.0 L 133.5 145.5 L 134.0 146.5 L 134.5 145.0 " stroke="black" fill="none" stroke-width="7.0" stroke-linecap="round" stroke-linejoin="round" />
<path d="M 137.0 107.5 L 137.5 106.5 L 138.5 106.0 L 140.5 105.5 L 145.0 104.5 L 150.5 103.0 L 156.5 100.0 L 162.0 98.0 L 165.0 97.0 L 166.0 97.5 L 166.0 100.5 L 165.5 106.0 L 165.5 114.5 L 165.5 127.5 L 165.5 143.0 L 165.5 159.5 L 164.5 171.5 L 163.0 179.0 L 161.0 183.5 L 159.0 184.5 L 157.0 183.0 L 155.0 179.0 L 153.5 174.5 " stroke="black" fill="none" stroke-width="7.0" stroke-linecap="round" stroke-linejoin="round" />
<path d="M 141.5 123.5 L 141.0 123.5 L 139.0 124.0 L 138.5 124.0 L 140.5 124.0 L 145.0 123.0 L 150.0 120.5 L 153.5 118.0 " stroke="black" fill="none" stroke-width="7.0" stroke-linecap="round" stroke-linejoin="round" />
<path d="M 141.0 133.0 L 140.0 134.0 L 139.5 135.5 L 142.0 135.5 L 147.0 134.5 L 152.0 131.0 L 156.0 128.5 L 157.5 127.5 " stroke="black" fill="none" stroke-width="7.0" stroke-linecap="round" stroke-linejoin="round" />
<path d="M 130.0 151.0 L 128.5 152.0 L 126.5 153.5 L 126.0 154.0 L 128.0 153.5 L 133.0 150.5 L 141.5 146.5 L 152.0 141.0 L 162.5 136.5 L 169.0 133.5 " stroke="black" fill="none" stroke-width="7.0" stroke-linecap="round" stroke-linejoin="round" />
<path d="M 184.0 115.5 L 184.0 116.0 L 183.0 116.5 L 181.5 118.5 L 178.5 122.0 L 173.5 129.0 L 165.0 141.0 L 151.5 155.0 L 139.0 168.5 L 127.5 178.5 L 121.5 185.0 " stroke="black" fill="none" stroke-width="7.0" stroke-linecap="round" stroke-linejoin="round" />
</svg>