<svg xmlns="http://www.w3.org/2000/svg" width="300" height="300" viewBox="0 0 300 300">
<path d="M 139.0 109.0 L 137.0 109.5 L 136.0 109.5 L 137.5 108.5 L 143.5 106.5 L 149.0 104.0 L 157.0 100.5 L 165.0 97.0 L 167.0 96.0 " stroke="black" fill="none" stroke-width="7.0" stroke-linecap="round" stroke-linejoin="round" />
<path d="M 129.5 113.5 L 129.0 115.5 L 129.0 118.5 L 129.0 126.5 L 129.0 136.5 L 127.5 158.5 L 123.0 177.0 L 117.0 190.5 L 112.5 197.5 " stroke="black" fill="none" stroke-width="7.0" stroke-linecap="round" stroke-linejoin="round" />
<path d="M 144.5 130.0 L 143.5 130.5 L 141.5 130.5 L 141.5 130.5 L 144.5 130.5 L 149.0 128.0 L 155.5 124.0 L 162.5 120.0 L 167.5 118.0 L 167.5 118.5 L 167.5 119.0 " stroke="black" fill="none" stroke-width="7.0" stroke-linecap="round" stroke-linejoin="round" />
<path d="M 138.5 146.5 L 135.0 149.0 L 134.5 149.5 L 136.5 149.0 L 143.0 146.5 L 148.5 143.5 L 158.0 137.5 L 163.0 135.0 L 165.0 134.5 " stroke="black" fill="none" stroke-width="7.0" stroke-linecap="round" stroke-linejoin="round" />
<path d="M 136.5 147.5 L 135.5 152.5 L 135.5 160.5 L 136.0 171.0 L 136.0 182.0 L 135.0 189.5 L 134.0 193.5 L 133.5 195.0 L 133.0 195.5 L 134.0 195.0 L 135.5 193.5 L 139.5 189.5 L 146.5 184.5 L 153.0 180.0 L 157.5 175.5 " stroke="black" fill="none" stroke-width="7.0" stroke-linecap="round" stroke-linejoin="round" />
<path d="M 175.0 152.0 L 174.5 152.0 L 174.0 152.5 L 173.5 153.0 L 172.0 154.5 L 169.5 157.5 L 164.0 162.0 L 158.5 164.5 L 155.5 165.5 " stroke="black" fill="none" stroke-width="7.0" stroke-linecap="round" stroke-linejoin="round" />
<path d="M 152.5 165.0 L 152.0 164.5 L 151.0 164.0 L 150.5 163.5 L 150.0 163.5 L 150.0 163.0 L 150.0 163.0 L 151.0 163.0 L 154.5 164.0 L 160.5 165.5 L 168.5 168.5 L 177.0 173.0 L 187.5 177.5 L 196.0 180.5 L 201.5 181.5 L 206.0 181.5 L 207.0 181.0 " stroke="black" fill="none" stroke-width="7.0" stroke-linecap="round" stroke-linejoin="round" />
</svg>