<svg xmlns="http://www.w3.org/2000/svg" width="300" height="300" viewBox="0 0 300 300">
<path d="M 136.5 78.0 L 136.5 78.0 L 136.5 78.0 L 136.0 78.0 L 135.0 78.5 L 132.0 81.5 L 127.0 87.0 L 118.5 96.0 L 115.5 98.5 " stroke="black" fill="none" stroke-width="7.0" stroke-linecap="round" stroke-linejoin="round" />
<path d="M 112.0 110.5 L 112.0 110.5 L 112.0 110.5 L 112.0 110.5 L 113.5 111.0 L 117.0 111.0 L 120.0 111.0 " stroke="black" fill="none" stroke-width="7.0" stroke-linecap="round" stroke-linejoin="round" />
<path d="M 129.5 99.0 L 129.5 99.0 L 129.5 98.5 L 130.0 98.5 L 130.5 98.5 L 131.5 99.0 L 132.0 99.5 " stroke="black" fill="none" stroke-width="7.0" stroke-linecap="round" stroke-linejoin="round" />
<path d="M 143.5 93.5 L 143.5 93.5 L 143.5 93.5 L 142.5 94.0 L 142.0 96.0 L 140.0 100.0 L 139.5 101.5 " stroke="black" fill="none" stroke-width="7.0" stroke-linecap="round" stroke-linejoin="round" />
<path d="M 123.5 121.5 L 123.5 121.5 L 123.0 121.5 L 123.0 121.5 L 124.0 121.0 L 126.0 120.0 L 129.5 118.5 L 133.5 117.0 L 137.5 116.0 L 140.0 115.5 L 140.5 116.0 L 140.0 118.0 L 138.5 121.0 L 136.0 125.0 L 133.5 128.5 L 132.5 129.5 " stroke="black" fill="none" stroke-width="7.0" stroke-linecap="round" stroke-linejoin="round" />
<path d="M 125.0 134.5 L 125.0 134.5 L 124.5 133.5 L 125.0 133.5 L 127.5 133.5 L 131.5 134.0 L 136.5 135.0 L 138.0 135.5 " stroke="black" fill="none" stroke-width="7.0" stroke-linecap="round" stroke-linejoin="round" />
<path d="M 115.5 150.5 L 115.5 150.0 L 115.5 149.0 L 116.0 149.0 L 117.0 151.5 L 118.5 158.5 L 119.0 170.5 L 118.0 186.5 L 115.0 199.5 L 112.5 206.5 L 110.5 208.0 L 110.0 208.0 " stroke="black" fill="none" stroke-width="7.0" stroke-linecap="round" stroke-linejoin="round" />
<path d="M 126.5 149.5 L 126.5 149.0 L 126.5 148.0 L 126.5 147.5 L 128.5 146.5 L 131.5 145.0 L 137.0 143.0 L 143.5 141.0 L 147.5 140.0 L 149.5 139.5 L 149.5 140.0 L 149.5 142.0 L 150.0 145.0 L 150.5 151.0 L 151.0 161.5 L 151.0 175.0 L 151.0 189.0 L 150.5 199.0 L 150.0 206.0 L 149.0 209.0 L 147.5 209.5 L 146.0 207.5 L 144.0 203.0 " stroke="black" fill="none" stroke-width="7.0" stroke-linecap="round" stroke-linejoin="round" />
<path d="M 132.5 152.0 L 132.5 151.0 L 132.0 150.0 L 132.0 150.0 L 132.0 150.5 L 131.5 153.5 L 130.5 158.0 L 129.5 162.0 L 129.0 164.5 L 129.0 166.0 L 129.0 166.0 L 131.0 165.0 L 133.5 163.5 L 136.0 162.5 L 138.5 161.5 " stroke="black" fill="none" stroke-width="7.0" stroke-linecap="round" stroke-linejoin="round" />
<path d="M 141.0 156.0 L 141.0 156.5 L 141.0 158.0 L 142.0 160.0 L 143.5 162.0 L 144.0 163.5 " stroke="black" fill="none" stroke-width="7.0" stroke-linecap="round" stroke-linejoin="round" />
<path d="M 130.5 176.5 L 130.0 176.5 L 129.5 177.0 L 130.0 177.0 L 131.5 177.0 L 135.0 175.0 L 138.5 173.5 L 141.5 172.5 L 142.5 172.0 L 142.5 174.5 L 140.5 178.0 L 137.5 182.5 L 134.5 187.5 L 131.5 192.5 L 129.0 197.0 L 128.0 198.5 " stroke="black" fill="none" stroke-width="7.0" stroke-linecap="round" stroke-linejoin="round" />
<path d="M 125.5 183.5 L 125.5 183.5 L 126.0 184.0 L 128.0 185.5 L 131.5 188.5 L 137.0 192.5 L 141.5 195.0 " stroke="black" fill="none" stroke-width="7.0" stroke-linecap="round" stroke-linejoin="round" />
<path d="M 172.5 87.0 L 172.0 87.0 L 171.5 86.5 L 171.5 86.0 L 172.0 86.5 L 174.5 87.5 L 176.5 88.0 L 179.0 88.5 " stroke="black" fill="none" stroke-width="7.0" stroke-linecap="round" stroke-linejoin="round" />
<path d="M 162.5 107.5 L 160.0 109.0 L 159.5 110.0 L 161.0 110.5 L 165.0 110.0 L 171.0 107.0 L 177.0 102.5 L 183.5 98.0 L 188.0 95.0 L 188.0 95.0 " stroke="black" fill="none" stroke-width="7.0" stroke-linecap="round" stroke-linejoin="round" />
<path d="M 168.5 114.0 L 168.5 114.5 L 168.5 117.0 L 169.0 121.0 L 170.0 125.5 L 171.0 128.5 L 172.5 130.5 " stroke="black" fill="none" stroke-width="7.0" stroke-linecap="round" stroke-linejoin="round" />
<path d="M 182.0 110.0 L 182.0 110.0 L 182.0 110.0 L 181.5 112.0 L 179.5 116.5 L 177.0 122.5 L 176.0 124.0 " stroke="black" fill="none" stroke-width="7.0" stroke-linecap="round" stroke-linejoin="round" />
<path d="M 158.0 140.5 L 156.5 141.0 L 156.0 141.0 L 157.5 141.0 L 161.5 139.0 L 168.0 136.0 L 175.5 131.5 L 183.5 126.5 L 188.5 124.0 L 189.5 124.5 " stroke="black" fill="none" stroke-width="7.0" stroke-linecap="round" stroke-linejoin="round" />
<path d="M 161.5 162.0 L 161.0 162.0 L 159.5 162.5 L 159.0 162.5 L 159.5 162.5 L 163.0 162.0 L 169.0 159.5 L 176.0 155.5 L 184.5 151.0 L 190.5 149.0 L 191.5 148.5 " stroke="black" fill="none" stroke-width="7.0" stroke-linecap="round" stroke-linejoin="round" />
<path d="M 177.5 134.5 L 177.5 134.5 L 177.0 135.0 L 177.0 140.0 L 178.0 154.5 L 177.5 174.0 L 175.5 190.5 L 175.0 199.0 L 175.0 200.5 " stroke="black" fill="none" stroke-width="7.0" stroke-linecap="round" stroke-linejoin="round" />
</svg>