<svg xmlns="http://www.w3.org/2000/svg" width="300" height="300" viewBox="0 0 300 300">
<path d="M 149.0 107.5 L 149.0 107.0 L 148.5 106.0 L 148.5 106.0 L 148.5 111.5 L 149.5 123.5 L 150.5 143.0 L 150.5 163.0 L 150.0 178.0 L 149.5 187.0 L 149.5 189.5 L 149.5 189.5 " stroke="black" fill="none" stroke-width="7.0" stroke-linecap="round" stroke-linejoin="round" />
<path d="M 154.0 111.5 L 153.5 112.0 L 153.0 112.0 L 153.0 112.0 L 155.0 111.0 L 159.0 108.5 L 163.5 106.5 L 168.5 104.0 L 172.0 103.0 L 173.0 102.5 L 173.0 104.0 L 172.0 107.5 L 170.0 112.5 L 167.5 118.0 L 166.0 120.5 " stroke="black" fill="none" stroke-width="7.0" stroke-linecap="round" stroke-linejoin="round" />
<path d="M 155.5 128.5 L 154.0 129.5 L 152.5 130.5 L 151.5 131.0 L 152.0 131.0 L 155.0 130.0 L 159.5 127.5 L 165.0 125.0 L 169.5 123.5 L 170.0 123.5 " stroke="black" fill="none" stroke-width="7.0" stroke-linecap="round" stroke-linejoin="round" />
<path d="M 156.0 147.0 L 154.5 147.0 L 153.5 147.5 L 153.5 148.0 L 155.0 148.0 L 159.5 147.0 L 164.5 144.5 L 168.5 142.0 L 170.0 141.5 " stroke="black" fill="none" stroke-width="7.0" stroke-linecap="round" stroke-linejoin="round" />
<path d="M 153.5 164.0 L 152.0 167.0 L 151.5 168.0 L 153.0 167.5 L 157.5 165.0 L 164.0 161.0 L 171.0 156.0 L 172.0 155.0 " stroke="black" fill="none" stroke-width="7.0" stroke-linecap="round" stroke-linejoin="round" />
<path d="M 185.0 113.0 L 184.0 113.0 L 183.0 113.0 L 182.5 113.0 L 183.5 113.0 L 187.0 111.5 L 191.5 109.0 L 195.5 106.5 L 198.5 105.5 L 200.5 105.5 L 201.0 107.0 L 200.0 111.0 L 197.5 117.0 L 196.0 121.0 " stroke="black" fill="none" stroke-width="7.0" stroke-linecap="round" stroke-linejoin="round" />
<path d="M 185.5 131.5 L 184.0 132.0 L 181.0 133.0 L 181.0 133.5 L 182.0 134.0 L 186.0 132.5 L 190.5 130.0 L 194.5 127.0 L 197.5 125.5 " stroke="black" fill="none" stroke-width="7.0" stroke-linecap="round" stroke-linejoin="round" />
<path d="M 182.5 151.0 L 181.5 151.0 L 180.0 151.0 L 179.0 150.5 L 179.5 150.5 L 183.0 149.5 L 188.5 147.5 L 194.0 145.0 L 198.5 142.5 L 201.5 141.5 L 202.0 141.5 L 201.0 144.0 L 198.5 148.5 L 195.0 155.5 L 191.5 163.5 L 186.5 172.0 L 182.0 178.5 L 178.5 181.0 L 176.5 181.5 L 176.0 181.5 " stroke="black" fill="none" stroke-width="7.0" stroke-linecap="round" stroke-linejoin="round" />
<path d="M 179.5 154.5 L 180.0 154.5 L 181.0 154.5 L 184.0 158.5 L 189.5 167.0 L 195.0 175.5 L 199.5 182.5 L 203.5 186.0 L 205.0 187.0 " stroke="black" fill="none" stroke-width="7.0" stroke-linecap="round" stroke-linejoin="round" />
<path d="M 127.0 127.5 L 126.5 128.0 L 126.0 129.5 L 126.0 130.5 L 127.5 131.0 L 129.5 131.0 L 131.0 131.0 " stroke="black" fill="none" stroke-width="7.0" stroke-linecap="round" stroke-linejoin="round" />
<path d="M 126.0 149.0 L 126.0 149.5 L 125.5 150.5 L 125.5 151.5 L 126.5 152.0 L 128.0 152.5 L 129.5 153.5 L 130.0 156.5 L 130.0 160.5 L 128.5 165.0 L 127.5 169.0 L 126.0 171.0 L 125.5 172.5 L 125.5 173.5 L 125.5 174.0 L 126.0 175.0 L 127.0 175.5 L 128.0 176.5 L 129.5 178.0 L 130.0 180.0 L 130.5 183.5 L 129.0 188.0 L 126.5 192.0 L 123.5 194.5 L 119.5 196.5 L 115.0 198.0 L 111.5 199.0 L 110.0 199.5 L 110.0 199.5 L 110.0 199.5 L 112.0 198.5 L 114.5 197.0 L 118.5 195.5 L 123.0 194.5 L 128.0 194.0 L 135.5 193.5 L 145.5 193.5 L 155.0 194.5 L 165.5 195.5 L 175.5 196.5 L 185.5 196.5 L 196.0 196.5 L 204.5 195.5 L 212.5 193.5 L 216.5 191.0 L 219.5 187.5 L 220.0 187.0 " stroke="black" fill="none" stroke-width="7.0" stroke-linecap="round" stroke-linejoin="round" />
</svg>