<svg xmlns="http://www.w3.org/2000/svg" width="300" height="300" viewBox="0 0 300 300">
<path d="M 159.5 113.5 L 159.5 113.5 L 159.5 114.0 L 159.5 118.0 L 159.5 127.5 L 157.0 140.0 L 154.0 147.5 L 152.5 149.5 L 151.5 149.0 " stroke="black" fill="none" stroke-width="7.0" stroke-linecap="round" stroke-linejoin="round" />
<path d="M 156.5 139.0 L 157.0 138.0 L 159.0 137.0 L 164.0 135.0 L 170.0 132.0 L 175.5 128.0 L 180.5 125.0 L 181.0 124.5 " stroke="black" fill="none" stroke-width="7.0" stroke-linecap="round" stroke-linejoin="round" />
<path d="M 148.0 163.0 L 146.0 164.0 L 144.5 164.5 L 144.0 164.5 L 145.0 164.5 L 149.0 163.0 L 156.5 160.0 L 166.5 156.0 L 178.0 151.0 L 188.0 148.0 L 193.0 146.5 L 194.5 146.0 " stroke="black" fill="none" stroke-width="7.0" stroke-linecap="round" stroke-linejoin="round" />
<path d="M 176.0 105.0 L 176.0 107.0 L 175.5 114.5 L 175.0 126.0 L 173.5 140.0 L 173.0 147.0 " stroke="black" fill="none" stroke-width="7.0" stroke-linecap="round" stroke-linejoin="round" />
<path d="M 153.5 175.5 L 152.5 175.5 L 151.0 175.5 L 151.0 176.0 L 152.0 179.0 L 155.0 185.0 L 158.5 191.5 L 161.5 196.0 L 161.5 196.5 " stroke="black" fill="none" stroke-width="7.0" stroke-linecap="round" stroke-linejoin="round" />
<path d="M 161.0 178.0 L 161.0 177.5 L 161.5 176.5 L 163.0 175.5 L 166.5 174.0 L 172.0 172.0 L 177.0 169.5 L 181.0 169.0 L 183.0 169.5 L 183.0 172.0 L 181.5 177.0 L 178.5 182.5 L 175.0 187.5 L 171.5 191.0 L 168.0 193.0 L 165.5 193.5 L 165.0 193.5 L 166.0 193.0 L 169.5 191.5 L 174.5 189.0 L 178.0 187.5 " stroke="black" fill="none" stroke-width="7.0" stroke-linecap="round" stroke-linejoin="round" />
<path d="M 128.5 142.5 L 128.0 142.5 L 127.0 143.0 L 127.5 143.0 L 130.0 143.5 L 132.5 144.0 " stroke="black" fill="none" stroke-width="7.0" stroke-linecap="round" stroke-linejoin="round" />
<path d="M 127.5 163.0 L 127.5 163.0 L 128.0 164.5 L 129.0 165.5 L 130.5 166.0 L 132.0 166.5 L 133.0 167.5 L 133.0 170.5 L 132.0 175.0 L 130.0 179.0 L 128.5 181.5 L 128.0 183.0 L 128.0 183.5 L 129.5 184.0 L 131.0 185.0 L 132.5 186.5 L 133.0 188.5 L 133.5 192.0 L 133.0 196.0 L 131.5 200.5 L 129.5 204.5 L 127.0 207.5 L 124.5 209.0 L 122.5 209.5 L 121.5 209.5 L 121.5 208.5 L 122.5 207.5 L 125.0 206.5 L 128.0 206.0 L 132.5 205.5 L 140.5 205.0 L 151.0 204.5 L 162.5 203.5 L 174.5 203.5 L 185.5 203.5 L 195.0 203.0 L 202.5 201.5 L 209.5 199.0 " stroke="black" fill="none" stroke-width="7.0" stroke-linecap="round" stroke-linejoin="round" />
</svg>