<svg xmlns="http://www.w3.org/2000/svg" width="300" height="300" viewBox="0 0 300 300">
<path d="M 163.0 104.0 L 162.0 104.5 L 161.0 104.5 L 160.5 105.0 L 161.5 105.0 L 166.0 104.0 L 171.5 102.5 L 177.5 100.5 L 183.0 98.5 L 186.0 97.5 L 186.5 97.5 " stroke="black" fill="none" stroke-width="7.0" stroke-linecap="round" stroke-linejoin="round" />
<path d="M 150.0 133.0 L 150.0 133.0 L 149.5 133.0 L 149.0 134.5 L 149.0 139.5 L 150.5 150.5 L 151.5 164.5 L 151.5 175.0 L 152.0 182.5 L 153.0 185.5 L 153.5 186.0 L 153.5 186.0 " stroke="black" fill="none" stroke-width="7.0" stroke-linecap="round" stroke-linejoin="round" />
<path d="M 153.0 135.5 L 152.5 135.5 L 151.5 135.5 L 151.5 135.5 L 151.0 135.5 L 151.5 134.5 L 153.5 133.5 L 157.5 132.5 L 164.5 130.5 L 172.5 128.0 L 180.5 126.0 L 188.5 124.5 L 194.5 123.5 L 197.0 123.0 L 199.5 123.0 L 202.5 123.5 L 204.5 125.0 L 206.0 127.0 L 207.0 130.0 L 207.5 135.0 L 208.0 142.0 L 208.5 150.0 L 209.5 159.5 L 209.5 169.0 L 209.5 177.5 L 208.0 185.0 L 205.0 190.5 L 202.0 194.0 L 198.5 194.5 L 195.0 192.5 L 192.0 187.5 " stroke="black" fill="none" stroke-width="7.0" stroke-linecap="round" stroke-linejoin="round" />
<path d="M 172.5 107.0 L 172.5 106.5 L 172.5 106.5 L 172.5 108.5 L 174.5 119.0 L 177.0 138.0 L 178.5 159.0 L 178.0 174.5 L 178.0 183.0 L 178.0 186.0 " stroke="black" fill="none" stroke-width="7.0" stroke-linecap="round" stroke-linejoin="round" />
<path d="M 164.5 114.0 L 164.5 113.0 L 164.0 112.5 L 163.0 114.0 L 160.0 118.5 L 158.0 122.5 L 155.0 127.5 " stroke="black" fill="none" stroke-width="7.0" stroke-linecap="round" stroke-linejoin="round" />
<path d="M 186.5 109.0 L 187.0 109.5 L 189.0 111.0 L 192.0 113.0 L 194.0 115.5 L 195.0 117.0 " stroke="black" fill="none" stroke-width="7.0" stroke-linecap="round" stroke-linejoin="round" />
<path d="M 167.5 140.5 L 167.5 140.5 L 167.5 140.5 L 167.5 140.5 L 166.5 142.5 L 163.5 147.0 L 160.0 152.5 L 159.0 153.5 " stroke="black" fill="none" stroke-width="7.0" stroke-linecap="round" stroke-linejoin="round" />
<path d="M 158.5 146.0 L 159.0 146.0 L 160.0 146.5 L 162.5 147.0 L 166.5 148.0 L 170.0 149.0 L 171.0 149.0 " stroke="black" fill="none" stroke-width="7.0" stroke-linecap="round" stroke-linejoin="round" />
<path d="M 168.5 159.5 L 166.5 162.5 L 165.0 166.0 L 162.5 170.5 L 159.5 175.0 L 158.5 176.0 " stroke="black" fill="none" stroke-width="7.0" stroke-linecap="round" stroke-linejoin="round" />
<path d="M 158.5 165.0 L 159.0 165.0 L 160.0 165.0 L 162.5 165.5 L 166.5 167.5 L 169.5 170.0 L 173.0 173.5 " stroke="black" fill="none" stroke-width="7.0" stroke-linecap="round" stroke-linejoin="round" />
<path d="M 192.0 138.0 L 192.0 137.0 L 192.0 136.5 L 192.0 137.0 L 191.0 139.5 L 189.0 144.5 L 185.0 152.5 L 183.5 153.5 " stroke="black" fill="none" stroke-width="7.0" stroke-linecap="round" stroke-linejoin="round" />
<path d="M 182.5 143.0 L 182.5 144.0 L 184.5 144.5 L 188.0 146.5 L 192.5 147.5 L 195.5 148.0 " stroke="black" fill="none" stroke-width="7.0" stroke-linecap="round" stroke-linejoin="round" />
<path d="M 195.0 158.5 L 194.0 160.5 L 193.0 163.5 L 192.0 166.5 L 189.5 172.5 L 187.0 177.0 L 185.5 178.5 " stroke="black" fill="none" stroke-width="7.0" stroke-linecap="round" stroke-linejoin="round" />
<path d="M 187.0 163.5 L 188.5 164.0 L 190.5 165.0 L 195.0 169.0 L 198.0 173.5 L 200.0 176.5 " stroke="black" fill="none" stroke-width="7.0" stroke-linecap="round" stroke-linejoin="round" />
<path d="M 131.0 136.5 L 130.0 137.0 L 129.5 137.0 L 129.5 137.5 L 131.0 137.5 L 133.0 137.5 " stroke="black" fill="none" stroke-width="7.0" stroke-linecap="round" stroke-linejoin="round" />
<path d="M 127.5 155.0 L 127.0 155.5 L 126.0 156.0 L 126.0 156.5 L 126.5 156.5 L 128.5 156.0 L 130.0 156.0 L 131.0 156.0 L 132.0 157.5 L 132.0 160.5 L 131.0 163.5 L 129.5 166.0 L 128.5 168.5 L 127.5 170.5 L 127.5 172.0 L 127.5 173.0 L 127.5 174.0 L 128.5 174.5 L 129.5 175.5 L 130.5 177.5 L 131.0 180.0 L 131.0 183.5 L 130.0 187.5 L 128.5 191.0 L 126.5 194.0 L 123.0 197.0 L 119.0 199.0 L 115.0 200.0 L 112.5 200.0 L 112.0 200.0 L 112.0 199.0 L 112.5 198.5 L 114.5 198.0 L 118.0 197.5 L 122.5 197.0 L 127.5 197.0 L 135.0 197.0 L 146.0 197.0 L 156.0 197.0 L 168.5 197.0 L 179.0 197.0 L 189.5 197.0 L 197.5 197.0 L 206.5 197.0 L 214.5 195.5 L 219.0 193.5 " stroke="black" fill="none" stroke-width="7.0" stroke-linecap="round" stroke-linejoin="round" />
</svg>