<svg xmlns="http://www.w3.org/2000/svg" width="300" height="300" viewBox="0 0 300 300">
<path d="M 122.5 118.0 L 120.0 118.5 L 118.5 119.0 L 118.5 119.0 L 122.5 117.5 L 127.5 114.5 L 133.5 111.0 L 140.5 107.5 L 142.0 107.0 " stroke="black" fill="none" stroke-width="7.0" stroke-linecap="round" stroke-linejoin="round" />
<path d="M 131.5 88.5 L 131.5 91.5 L 131.5 97.5 L 131.5 108.5 L 131.5 121.0 L 131.5 130.0 L 131.0 136.5 L 130.5 138.0 " stroke="black" fill="none" stroke-width="7.0" stroke-linecap="round" stroke-linejoin="round" />
<path d="M 106.5 145.5 L 103.0 146.0 L 102.5 146.0 L 103.0 145.5 L 106.5 144.5 L 114.0 142.5 L 125.0 138.5 L 137.0 134.0 L 148.0 130.0 L 149.5 129.5 " stroke="black" fill="none" stroke-width="7.0" stroke-linecap="round" stroke-linejoin="round" />
<path d="M 150.0 115.5 L 149.5 115.5 L 148.0 116.0 L 145.5 118.5 L 140.5 125.5 L 131.0 139.0 L 119.5 155.5 L 106.5 170.5 L 100.0 180.0 L 97.5 183.0 " stroke="black" fill="none" stroke-width="7.0" stroke-linecap="round" stroke-linejoin="round" />
<path d="M 121.0 159.0 L 121.0 159.5 L 121.0 160.5 L 122.0 165.0 L 122.0 174.0 L 121.5 184.5 L 121.5 191.0 L 122.5 192.5 " stroke="black" fill="none" stroke-width="7.0" stroke-linecap="round" stroke-linejoin="round" />
<path d="M 125.5 160.5 L 125.5 157.5 L 127.0 155.0 L 130.5 153.0 L 135.5 150.5 L 141.0 149.0 L 145.0 150.0 L 147.0 155.5 L 147.0 163.5 L 145.5 171.5 L 144.0 180.5 L 142.5 187.0 L 142.0 189.5 L 142.0 190.0 L 141.5 189.0 " stroke="black" fill="none" stroke-width="7.0" stroke-linecap="round" stroke-linejoin="round" />
<path d="M 127.0 173.5 L 125.0 174.0 L 125.0 174.0 L 126.5 174.0 L 130.0 173.5 L 134.5 171.5 L 137.5 169.5 " stroke="black" fill="none" stroke-width="7.0" stroke-linecap="round" stroke-linejoin="round" />
<path d="M 125.5 189.0 L 124.5 189.5 L 122.5 191.5 L 123.5 192.5 L 127.0 192.5 L 132.0 190.0 L 139.5 186.5 " stroke="black" fill="none" stroke-width="7.0" stroke-linecap="round" stroke-linejoin="round" />
<path d="M 163.0 108.5 L 162.0 109.0 L 160.0 109.0 L 160.0 109.5 L 162.5 108.5 L 166.5 107.0 L 171.0 105.5 L 174.5 105.0 L 177.0 105.0 L 177.5 106.5 L 176.5 110.0 L 174.5 114.0 L 173.0 117.5 L 172.5 120.0 L 172.5 122.5 L 173.5 125.5 L 175.0 129.5 L 176.5 134.0 L 177.5 139.5 L 177.5 143.0 L 175.5 146.0 L 173.0 147.0 L 170.0 147.0 L 167.0 144.5 L 163.5 140.0 L 161.0 134.5 " stroke="black" fill="none" stroke-width="7.0" stroke-linecap="round" stroke-linejoin="round" />
<path d="M 159.5 120.0 L 159.5 119.5 L 159.5 119.0 L 159.5 119.5 L 160.0 124.5 L 162.0 136.0 L 163.0 153.0 L 162.5 173.5 L 161.5 189.0 L 160.5 198.0 L 160.5 202.5 " stroke="black" fill="none" stroke-width="7.0" stroke-linecap="round" stroke-linejoin="round" />
</svg>