<svg xmlns="http://www.w3.org/2000/svg" width="300" height="300" viewBox="0 0 300 300">
<path d="M 163.0 103.5 L 162.0 104.0 L 162.0 104.0 L 165.0 104.0 L 170.5 102.5 L 176.5 100.5 L 181.0 99.0 " stroke="black" fill="none" stroke-width="7.0" stroke-linecap="round" stroke-linejoin="round" />
<path d="M 152.5 124.5 L 152.5 126.5 L 153.0 130.0 L 154.5 135.5 L 157.0 140.0 L 159.5 142.0 L 161.0 142.5 " stroke="black" fill="none" stroke-width="7.0" stroke-linecap="round" stroke-linejoin="round" />
<path d="M 160.5 123.5 L 160.5 123.0 L 161.5 121.5 L 164.0 120.0 L 169.0 117.5 L 175.5 114.5 L 183.0 111.5 L 190.0 109.0 L 193.0 109.0 L 194.0 111.0 L 194.0 116.5 L 192.5 123.0 L 190.5 130.0 L 188.5 136.0 L 187.0 139.5 L 185.5 140.5 " stroke="black" fill="none" stroke-width="7.0" stroke-linecap="round" stroke-linejoin="round" />
<path d="M 166.0 133.5 L 165.5 133.5 L 164.0 132.5 L 164.0 132.0 L 165.5 131.5 L 169.5 130.5 L 174.5 129.0 L 180.5 126.5 L 184.5 125.5 " stroke="black" fill="none" stroke-width="7.0" stroke-linecap="round" stroke-linejoin="round" />
<path d="M 165.0 144.5 L 164.5 144.5 L 162.5 145.5 L 162.5 145.5 L 166.0 145.5 L 171.5 144.0 L 177.5 142.0 L 184.0 140.5 L 185.0 140.5 " stroke="black" fill="none" stroke-width="7.0" stroke-linecap="round" stroke-linejoin="round" />
<path d="M 149.5 165.0 L 147.0 166.0 L 146.0 166.5 L 146.5 166.5 L 149.5 166.5 L 156.0 164.5 L 166.5 161.5 L 178.0 157.5 L 190.5 153.0 L 196.0 151.5 L 198.0 151.5 " stroke="black" fill="none" stroke-width="7.0" stroke-linecap="round" stroke-linejoin="round" />
<path d="M 173.5 73.0 L 173.5 72.5 L 172.5 72.0 L 172.5 75.5 L 172.5 89.0 L 173.0 112.0 L 173.0 137.5 L 171.5 160.0 L 171.0 175.0 L 171.5 184.0 L 172.0 186.5 " stroke="black" fill="none" stroke-width="7.0" stroke-linecap="round" stroke-linejoin="round" />
<path d="M 132.5 125.5 L 131.0 126.5 L 131.0 127.0 L 133.5 127.0 L 136.5 126.5 " stroke="black" fill="none" stroke-width="7.0" stroke-linecap="round" stroke-linejoin="round" />
<path d="M 130.5 142.5 L 130.5 144.0 L 130.5 145.0 L 130.5 145.5 L 132.5 145.5 L 135.5 145.5 L 137.5 146.0 L 138.0 148.0 L 136.5 151.5 L 134.0 155.5 L 131.5 158.5 L 131.0 160.0 L 131.0 160.0 L 132.0 160.5 L 133.0 161.5 L 134.0 163.0 L 135.0 165.5 L 136.0 168.0 L 136.5 171.0 L 136.5 174.0 L 134.5 178.5 L 132.0 183.0 L 128.5 186.5 L 125.5 188.5 L 123.0 189.0 L 121.5 188.5 L 121.5 187.5 L 122.0 186.5 L 123.0 186.0 L 125.0 185.5 L 127.5 185.5 L 132.0 185.5 L 139.5 185.5 L 150.0 185.5 L 161.5 185.5 L 172.5 186.5 L 180.5 188.0 L 189.0 189.0 L 195.5 189.0 L 200.5 186.5 " stroke="black" fill="none" stroke-width="7.0" stroke-linecap="round" stroke-linejoin="round" />
</svg>