<svg xmlns="http://www.w3.org/2000/svg" width="300" height="300" viewBox="0 0 300 300">
<path d="M 169.0 96.5 L 169.0 96.5 L 169.0 96.5 L 168.5 97.5 L 166.5 102.0 L 163.0 109.5 L 158.5 117.0 L 155.5 120.5 " stroke="black" fill="none" stroke-width="7.0" stroke-linecap="round" stroke-linejoin="round" />
<path d="M 159.5 116.0 L 160.0 115.5 L 164.0 113.0 L 168.0 111.0 L 172.0 109.5 L 175.5 108.5 L 179.0 108.0 L 181.0 108.0 L 182.0 110.0 L 180.5 114.0 L 177.0 119.5 L 174.0 124.0 " stroke="black" fill="none" stroke-width="7.0" stroke-linecap="round" stroke-linejoin="round" />
<path d="M 146.5 143.0 L 146.5 143.0 L 146.5 143.0 L 147.0 143.5 L 148.5 145.5 L 151.5 148.5 L 154.0 151.0 L 156.0 152.5 L 157.0 152.5 " stroke="black" fill="none" stroke-width="7.0" stroke-linecap="round" stroke-linejoin="round" />
<path d="M 154.0 142.0 L 154.0 141.5 L 154.5 140.5 L 157.0 139.0 L 163.0 137.0 L 171.0 133.0 L 178.5 129.0 L 184.0 127.0 L 188.0 127.0 L 189.5 128.0 L 189.5 130.5 L 188.0 133.5 L 185.5 137.5 L 182.0 141.5 L 180.5 142.5 " stroke="black" fill="none" stroke-width="7.0" stroke-linecap="round" stroke-linejoin="round" />
<path d="M 164.5 154.0 L 162.0 155.5 L 158.5 156.5 L 158.5 156.5 L 160.0 156.0 L 165.0 153.0 L 170.5 150.0 L 176.5 147.0 L 182.5 145.0 L 185.0 144.0 " stroke="black" fill="none" stroke-width="7.0" stroke-linecap="round" stroke-linejoin="round" />
<path d="M 169.5 135.5 L 169.5 135.5 L 169.0 135.5 L 169.0 138.0 L 169.0 144.5 L 168.0 154.0 L 164.5 166.0 L 158.0 177.5 L 152.5 187.0 L 149.0 192.5 L 148.0 194.5 " stroke="black" fill="none" stroke-width="7.0" stroke-linecap="round" stroke-linejoin="round" />
<path d="M 165.0 161.0 L 166.5 160.5 L 168.5 160.5 L 170.5 163.5 L 171.5 169.0 L 172.5 174.5 L 174.5 179.0 L 177.5 181.5 L 181.5 182.5 L 186.5 182.5 L 191.0 182.5 L 194.5 182.0 L 197.0 181.0 L 198.0 180.5 L 198.5 180.0 L 199.0 178.0 L 199.0 174.0 L 198.0 168.5 " stroke="black" fill="none" stroke-width="7.0" stroke-linecap="round" stroke-linejoin="round" />
<path d="M 181.0 159.0 L 181.0 159.0 L 181.0 159.0 L 181.0 159.5 L 184.0 164.0 L 186.5 167.0 " stroke="black" fill="none" stroke-width="7.0" stroke-linecap="round" stroke-linejoin="round" />
<path d="M 131.5 140.5 L 131.5 141.5 L 131.5 142.0 L 132.0 142.5 L 133.5 142.5 " stroke="black" fill="none" stroke-width="7.0" stroke-linecap="round" stroke-linejoin="round" />
<path d="M 129.5 157.0 L 129.5 157.0 L 129.5 157.5 L 130.0 158.0 L 131.0 158.5 L 133.0 159.0 L 134.5 159.5 L 135.0 161.0 L 135.0 164.0 L 133.5 167.5 L 132.0 170.5 L 130.5 173.5 L 129.5 175.5 L 129.5 177.0 L 129.5 178.0 L 130.5 178.0 L 131.5 178.0 L 133.0 179.0 L 134.0 181.0 L 134.5 184.5 L 133.5 188.5 L 131.5 192.0 L 128.5 194.5 L 126.0 196.0 L 123.5 197.0 L 121.5 197.5 L 121.0 197.5 L 121.0 197.0 L 122.0 196.5 L 124.0 196.0 L 126.0 195.5 L 129.0 195.5 L 134.0 195.5 L 143.0 195.0 L 153.5 194.5 L 164.0 194.5 L 173.0 195.0 L 180.0 195.0 L 188.5 195.0 L 195.0 193.5 L 198.0 192.0 " stroke="black" fill="none" stroke-width="7.0" stroke-linecap="round" stroke-linejoin="round" />
</svg>