<svg xmlns="http://www.w3.org/2000/svg" width="300" height="300" viewBox="0 0 300 300">
<path d="M 161.5 102.0 L 161.5 102.0 L 161.0 101.0 L 160.5 100.5 L 160.5 100.5 L 162.0 101.5 L 165.0 104.0 L 168.5 107.0 L 170.0 108.5 " stroke="black" fill="none" stroke-width="7.0" stroke-linecap="round" stroke-linejoin="round" />
<path d="M 181.0 91.5 L 181.0 91.5 L 181.0 92.0 L 181.0 93.5 L 180.5 97.0 L 178.0 102.5 L 175.0 108.5 L 174.5 110.0 " stroke="black" fill="none" stroke-width="7.0" stroke-linecap="round" stroke-linejoin="round" />
<path d="M 149.0 124.5 L 148.5 124.5 L 147.5 124.5 L 146.5 124.5 L 146.0 124.5 L 147.0 124.5 L 151.5 123.0 L 162.0 119.5 L 174.5 115.0 L 184.5 111.5 L 190.0 110.0 L 191.0 110.0 " stroke="black" fill="none" stroke-width="7.0" stroke-linecap="round" stroke-linejoin="round" />
<path d="M 173.5 119.5 L 173.5 119.5 L 173.0 119.5 L 172.0 119.5 L 171.0 121.0 L 169.0 124.0 L 166.0 128.5 L 161.0 134.0 L 156.0 138.5 L 153.0 140.5 L 152.5 140.5 " stroke="black" fill="none" stroke-width="7.0" stroke-linecap="round" stroke-linejoin="round" />
<path d="M 151.0 142.0 L 151.0 142.0 L 151.0 142.0 L 151.5 142.0 L 151.5 145.5 L 152.0 156.5 L 152.0 167.5 L 151.5 182.0 L 151.5 186.0 L 152.0 186.0 " stroke="black" fill="none" stroke-width="7.0" stroke-linecap="round" stroke-linejoin="round" />
<path d="M 157.0 145.5 L 157.0 145.5 L 157.0 145.0 L 157.0 144.5 L 158.5 143.5 L 161.0 143.0 L 168.5 140.5 L 174.0 138.5 L 179.5 137.0 L 183.5 136.0 L 185.5 136.0 L 188.0 139.0 L 188.5 144.0 L 188.5 151.5 L 188.0 161.5 L 187.0 170.0 L 187.0 175.5 L 186.0 179.0 L 185.0 179.5 L 184.5 179.5 " stroke="black" fill="none" stroke-width="7.0" stroke-linecap="round" stroke-linejoin="round" />
<path d="M 163.5 159.0 L 163.0 159.0 L 160.5 159.0 L 159.5 159.0 L 160.5 159.0 L 164.0 158.0 L 169.5 156.0 L 174.0 154.0 L 178.5 152.0 L 180.0 151.5 L 180.0 151.5 " stroke="black" fill="none" stroke-width="7.0" stroke-linecap="round" stroke-linejoin="round" />
<path d="M 162.0 169.5 L 160.5 171.0 L 160.5 171.5 L 163.5 171.5 L 168.0 170.0 L 172.0 167.5 L 175.5 166.0 " stroke="black" fill="none" stroke-width="7.0" stroke-linecap="round" stroke-linejoin="round" />
<path d="M 160.5 182.5 L 160.0 183.0 L 158.5 184.0 L 158.0 184.5 L 162.0 185.0 L 168.0 184.0 L 174.5 182.5 L 181.0 181.0 " stroke="black" fill="none" stroke-width="7.0" stroke-linecap="round" stroke-linejoin="round" />
<path d="M 128.5 128.5 L 128.5 128.5 L 128.0 129.0 L 127.5 129.5 L 128.0 129.5 L 129.5 129.5 L 131.5 129.5 L 132.5 129.5 " stroke="black" fill="none" stroke-width="7.0" stroke-linecap="round" stroke-linejoin="round" />
<path d="M 128.0 146.5 L 128.0 147.5 L 128.5 148.0 L 130.0 148.0 L 132.0 148.0 L 133.5 148.5 L 134.0 150.0 L 134.0 153.0 L 132.5 157.0 L 130.5 160.5 L 129.0 163.5 L 128.5 165.0 L 128.5 166.0 L 128.5 166.0 L 129.5 166.5 L 131.0 167.0 L 132.5 168.0 L 134.0 170.5 L 134.5 174.0 L 134.5 179.0 L 132.5 183.5 L 130.0 188.5 L 127.0 193.0 L 123.5 196.0 L 118.5 198.0 L 114.0 199.0 L 111.0 199.0 L 109.5 199.0 L 109.5 198.5 L 109.5 198.5 L 110.0 198.0 L 112.0 197.5 L 115.5 197.5 L 121.0 197.5 L 128.0 197.5 L 139.0 197.5 L 152.5 198.0 L 165.5 198.0 L 176.5 198.0 L 188.0 197.0 L 198.0 195.0 L 207.0 193.0 L 214.5 190.0 " stroke="black" fill="none" stroke-width="7.0" stroke-linecap="round" stroke-linejoin="round" />
</svg>