<svg xmlns="http://www.w3.org/2000/svg" width="300" height="300" viewBox="0 0 300 300">
<path d="M 159.0 113.0 L 159.0 113.0 L 158.0 113.0 L 159.0 112.5 L 163.5 111.0 L 169.5 108.0 L 176.0 104.5 L 181.0 102.0 L 184.0 101.5 L 184.5 102.0 L 184.5 105.5 L 183.5 113.0 L 182.5 122.0 L 182.0 130.0 L 181.5 136.5 L 181.5 139.0 " stroke="black" fill="none" stroke-width="7.0" stroke-linecap="round" stroke-linejoin="round" />
<path d="M 164.5 132.5 L 162.0 132.5 L 160.5 132.5 L 161.5 132.5 L 165.0 131.0 L 170.5 128.5 L 175.5 125.5 L 177.0 125.0 " stroke="black" fill="none" stroke-width="7.0" stroke-linecap="round" stroke-linejoin="round" />
<path d="M 161.5 146.0 L 159.0 147.5 L 157.5 148.5 L 160.0 148.5 L 165.5 146.0 L 171.5 142.5 L 177.5 138.5 L 179.0 137.5 " stroke="black" fill="none" stroke-width="7.0" stroke-linecap="round" stroke-linejoin="round" />
<path d="M 154.5 117.5 L 154.5 118.5 L 153.5 120.5 L 153.5 126.0 L 155.0 140.0 L 155.5 156.0 L 155.5 171.0 L 154.5 183.0 L 154.5 190.0 L 154.0 193.5 L 154.0 194.0 L 155.0 193.5 L 158.0 190.5 L 162.0 186.0 L 167.5 179.5 L 173.5 172.0 " stroke="black" fill="none" stroke-width="7.0" stroke-linecap="round" stroke-linejoin="round" />
<path d="M 186.5 152.0 L 186.0 150.5 L 185.5 149.5 L 184.0 150.0 L 181.5 153.0 L 178.0 157.5 L 174.5 161.0 L 172.0 163.0 " stroke="black" fill="none" stroke-width="7.0" stroke-linecap="round" stroke-linejoin="round" />
<path d="M 168.0 161.5 L 167.5 161.5 L 165.5 161.5 L 164.5 161.0 L 164.0 161.0 L 165.5 162.0 L 169.5 164.0 L 175.5 166.0 L 184.0 169.0 L 193.0 172.5 L 199.0 175.0 L 203.0 176.5 L 206.0 176.5 " stroke="black" fill="none" stroke-width="7.0" stroke-linecap="round" stroke-linejoin="round" />
<path d="M 130.0 140.5 L 129.0 141.5 L 128.5 142.0 L 129.5 142.0 L 132.5 142.0 L 136.0 142.0 " stroke="black" fill="none" stroke-width="7.0" stroke-linecap="round" stroke-linejoin="round" />
<path d="M 130.0 157.0 L 130.0 157.0 L 130.5 157.5 L 131.5 157.5 L 132.5 158.5 L 134.0 160.0 L 135.5 161.5 L 135.5 163.5 L 134.5 166.5 L 132.0 170.0 L 130.0 173.5 L 129.0 176.0 L 129.0 177.0 L 130.0 177.0 L 132.0 177.0 L 133.5 178.5 L 135.0 181.0 L 135.5 184.5 L 134.5 188.5 L 132.5 192.0 L 129.5 195.5 L 126.0 199.0 L 122.0 202.0 L 117.5 204.5 L 114.5 206.0 L 113.5 206.0 L 113.5 205.0 L 116.0 204.0 L 120.5 202.0 L 126.0 200.0 L 131.5 199.0 L 140.5 197.5 L 152.0 197.0 L 163.5 196.0 L 174.5 194.5 L 185.0 192.5 L 194.5 191.0 L 201.5 189.5 L 205.5 188.0 " stroke="black" fill="none" stroke-width="7.0" stroke-linecap="round" stroke-linejoin="round" />
</svg>