<svg xmlns="http://www.w3.org/2000/svg" width="300" height="300" viewBox="0 0 300 300">
<path d="M 120.0 110.0 L 119.0 110.0 L 118.0 109.5 L 119.5 109.5 L 122.5 110.5 L 126.0 111.5 L 127.5 112.5 " stroke="black" fill="none" stroke-width="7.0" stroke-linecap="round" stroke-linejoin="round" />
<path d="M 106.0 132.5 L 103.5 135.0 L 102.5 136.0 L 102.5 136.5 L 105.5 137.0 L 112.0 135.0 L 122.5 130.0 L 132.5 124.0 L 139.5 120.5 L 141.5 120.0 " stroke="black" fill="none" stroke-width="7.0" stroke-linecap="round" stroke-linejoin="round" />
<path d="M 113.5 138.0 L 112.5 139.5 L 112.5 143.5 L 112.5 151.0 L 113.0 160.0 L 113.0 166.5 L 113.0 169.5 L 114.0 170.5 L 116.0 170.5 L 121.5 168.0 L 128.0 163.5 L 135.0 158.5 L 143.5 153.5 " stroke="black" fill="none" stroke-width="7.0" stroke-linecap="round" stroke-linejoin="round" />
<path d="M 159.0 102.0 L 158.5 102.0 L 157.5 102.5 L 157.0 103.0 L 157.0 103.0 L 160.0 102.5 L 164.0 101.5 L 168.5 100.5 L 172.0 100.0 L 174.0 100.5 L 174.5 102.5 L 173.5 106.0 L 171.0 110.0 L 169.0 113.5 L 167.5 116.0 L 167.5 118.0 L 168.5 119.5 L 170.0 122.0 L 172.0 125.0 L 174.0 129.0 L 174.5 133.5 L 174.5 138.5 L 174.0 142.0 L 172.0 143.5 L 169.0 144.0 L 165.5 142.0 L 161.5 138.0 L 157.5 131.5 " stroke="black" fill="none" stroke-width="7.0" stroke-linecap="round" stroke-linejoin="round" />
<path d="M 152.0 115.0 L 151.5 112.0 L 151.5 110.5 L 151.5 111.5 L 152.5 117.0 L 154.0 125.5 L 154.5 140.0 L 154.5 160.0 L 153.5 179.0 L 153.0 193.0 L 152.0 203.0 L 152.0 204.5 " stroke="black" fill="none" stroke-width="7.0" stroke-linecap="round" stroke-linejoin="round" />
</svg>