<svg xmlns="http://www.w3.org/2000/svg" width="300" height="300" viewBox="0 0 300 300">
<path d="M 156.5 111.5 L 156.5 111.0 L 156.5 110.5 L 156.5 111.5 L 158.0 116.5 L 159.0 124.0 L 159.5 130.5 L 160.0 134.0 L 160.5 134.0 L 160.5 133.5 " stroke="black" fill="none" stroke-width="7.0" stroke-linecap="round" stroke-linejoin="round" />
<path d="M 162.0 106.0 L 162.5 105.0 L 163.5 103.0 L 166.0 101.5 L 169.5 100.0 L 174.5 98.0 L 180.0 96.0 L 185.5 95.5 L 189.0 96.0 L 190.5 100.0 L 191.0 105.5 L 191.0 114.5 L 189.5 123.5 L 188.0 130.0 L 187.0 133.0 L 186.5 132.5 " stroke="black" fill="none" stroke-width="7.0" stroke-linecap="round" stroke-linejoin="round" />
<path d="M 174.5 117.5 L 174.5 117.5 L 173.0 117.5 L 172.5 117.5 L 173.5 117.0 L 177.0 115.5 L 181.5 114.0 L 185.0 112.5 " stroke="black" fill="none" stroke-width="7.0" stroke-linecap="round" stroke-linejoin="round" />
<path d="M 173.5 116.0 L 173.5 116.0 L 173.0 117.5 L 173.0 120.0 L 173.5 124.0 L 174.0 128.5 L 174.5 130.0 " stroke="black" fill="none" stroke-width="7.0" stroke-linecap="round" stroke-linejoin="round" />
<path d="M 149.0 146.5 L 149.0 146.5 L 148.5 146.5 L 148.5 147.0 L 149.0 152.0 L 151.0 161.5 L 152.0 171.5 L 152.5 178.5 L 153.0 181.5 L 153.5 181.0 L 153.5 180.0 " stroke="black" fill="none" stroke-width="7.0" stroke-linecap="round" stroke-linejoin="round" />
<path d="M 154.5 146.5 L 154.5 146.0 L 155.5 144.5 L 158.0 144.0 L 163.5 143.0 L 171.0 141.0 L 180.0 138.5 L 188.0 136.0 L 193.5 135.5 L 197.0 135.0 L 198.5 135.5 L 200.0 137.5 L 201.0 142.0 L 201.0 148.5 L 200.5 158.0 L 199.0 168.5 L 198.0 176.5 L 197.0 182.5 L 195.5 186.0 L 193.5 186.5 L 191.0 185.5 L 188.0 182.5 " stroke="black" fill="none" stroke-width="7.0" stroke-linecap="round" stroke-linejoin="round" />
<path d="M 164.5 157.5 L 164.0 158.0 L 164.0 160.0 L 164.5 162.5 L 166.5 165.5 L 168.5 167.5 L 168.5 168.0 " stroke="black" fill="none" stroke-width="7.0" stroke-linecap="round" stroke-linejoin="round" />
<path d="M 166.5 156.5 L 166.5 156.0 L 166.5 155.0 L 167.5 153.5 L 170.5 152.0 L 175.0 150.5 L 179.0 150.0 L 182.0 150.0 L 182.0 153.5 L 179.0 158.5 L 175.0 163.0 L 171.5 166.5 L 169.5 168.0 L 169.5 168.0 L 172.0 167.0 L 175.5 165.5 L 178.5 164.5 " stroke="black" fill="none" stroke-width="7.0" stroke-linecap="round" stroke-linejoin="round" />
<path d="M 127.0 127.0 L 126.5 127.5 L 125.5 128.5 L 125.5 128.5 L 126.0 128.5 L 128.0 128.5 L 129.0 128.0 " stroke="black" fill="none" stroke-width="7.0" stroke-linecap="round" stroke-linejoin="round" />
<path d="M 124.0 147.0 L 123.5 147.5 L 123.5 148.0 L 123.5 148.0 L 125.5 148.0 L 127.5 147.0 L 130.0 146.5 L 131.5 147.0 L 132.0 149.0 L 131.5 152.5 L 130.0 156.5 L 128.5 160.0 L 128.0 162.5 L 127.5 164.5 L 127.5 165.5 L 128.0 166.5 L 129.0 167.5 L 130.5 168.0 L 131.5 169.0 L 132.5 171.5 L 133.0 174.5 L 132.5 179.0 L 131.5 183.0 L 129.5 186.5 L 127.0 189.5 L 124.0 192.0 L 120.5 193.5 L 116.5 194.5 L 114.5 195.0 L 114.0 194.5 L 114.0 193.5 L 115.5 192.0 L 117.0 191.0 L 119.0 190.5 L 121.0 190.0 L 124.5 189.0 L 129.0 189.0 L 136.0 189.0 L 145.5 191.0 L 153.5 192.5 L 163.0 194.5 L 173.0 195.5 L 183.0 195.5 L 194.0 193.5 L 203.5 190.0 L 213.0 187.0 " stroke="black" fill="none" stroke-width="7.0" stroke-linecap="round" stroke-linejoin="round" />
</svg>