<svg xmlns="http://www.w3.org/2000/svg" width="300" height="300" viewBox="0 0 300 300">
<path d="M 161.0 108.0 L 160.5 108.5 L 159.0 109.5 L 159.5 109.5 L 164.0 108.0 L 170.0 105.0 L 175.5 101.0 L 180.0 98.5 " stroke="black" fill="none" stroke-width="7.0" stroke-linecap="round" stroke-linejoin="round" />
<path d="M 173.5 104.0 L 173.0 104.5 L 172.0 105.5 L 171.5 108.0 L 170.0 114.0 L 165.0 124.0 L 157.5 136.0 L 150.5 146.5 L 145.5 152.5 L 142.0 155.5 L 141.0 155.5 " stroke="black" fill="none" stroke-width="7.0" stroke-linecap="round" stroke-linejoin="round" />
<path d="M 161.5 129.0 L 165.5 126.0 L 171.5 122.5 L 175.0 122.0 L 179.0 124.0 L 182.0 129.5 L 184.5 137.5 L 185.5 147.0 L 186.0 158.5 L 184.5 168.5 L 181.5 177.5 L 177.5 184.0 L 174.0 186.5 L 170.5 187.5 L 168.0 185.5 " stroke="black" fill="none" stroke-width="7.0" stroke-linecap="round" stroke-linejoin="round" />
<path d="M 173.0 134.0 L 173.0 134.0 L 173.0 133.5 L 173.0 133.5 L 172.5 134.5 L 170.5 139.5 L 166.0 147.0 L 159.0 157.0 L 154.0 163.0 " stroke="black" fill="none" stroke-width="7.0" stroke-linecap="round" stroke-linejoin="round" />
<path d="M 180.0 143.5 L 180.0 144.0 L 178.5 146.0 L 176.0 150.0 L 172.0 157.5 L 166.5 166.5 L 159.5 174.5 L 155.0 179.0 " stroke="black" fill="none" stroke-width="7.0" stroke-linecap="round" stroke-linejoin="round" />
<path d="M 197.0 129.5 L 197.0 129.5 L 197.0 129.5 L 196.0 130.5 L 195.0 133.0 L 192.5 137.0 L 189.5 140.5 L 188.0 142.5 L 187.0 143.0 L 187.0 143.0 L 188.0 143.5 L 190.0 146.5 L 192.5 150.5 L 195.5 156.5 L 199.5 162.5 L 204.0 166.5 L 208.5 168.5 L 211.5 169.0 " stroke="black" fill="none" stroke-width="7.0" stroke-linecap="round" stroke-linejoin="round" />
<path d="M 131.0 123.0 L 131.0 123.5 L 130.0 124.0 L 130.0 124.5 L 131.0 125.0 L 133.0 125.0 L 134.5 125.0 " stroke="black" fill="none" stroke-width="7.0" stroke-linecap="round" stroke-linejoin="round" />
<path d="M 126.5 143.0 L 126.5 143.5 L 126.5 144.0 L 126.5 144.0 L 128.0 144.0 L 130.5 143.5 L 132.5 143.0 L 134.5 143.5 L 134.5 145.5 L 133.0 150.0 L 130.5 154.5 L 128.0 158.5 L 127.5 160.5 L 127.0 161.5 L 127.5 162.0 L 128.5 162.5 L 130.0 162.5 L 131.0 163.5 L 132.0 165.5 L 132.5 168.0 L 132.5 172.0 L 130.5 177.5 L 128.0 182.5 L 124.5 187.0 L 120.0 189.5 L 115.0 192.0 L 112.0 193.5 L 111.0 193.5 L 111.0 193.0 L 111.0 192.0 L 112.5 191.5 L 114.5 190.5 L 117.0 190.0 L 121.0 189.5 L 126.5 189.0 L 135.5 188.5 L 146.5 189.0 L 156.0 190.0 L 166.0 191.5 L 175.5 192.0 L 187.0 192.0 L 198.0 190.5 L 208.5 188.0 L 217.5 185.0 L 219.0 184.0 " stroke="black" fill="none" stroke-width="7.0" stroke-linecap="round" stroke-linejoin="round" />
</svg>