<svg xmlns="http://www.w3.org/2000/svg" width="300" height="300" viewBox="0 0 300 300">
<path d="M 154.5 91.0 L 154.5 90.5 L 154.5 90.0 L 154.5 89.0 L 154.5 89.0 L 152.5 92.5 L 149.0 99.0 L 142.0 107.5 L 131.5 116.5 L 123.0 122.5 L 116.0 125.0 L 113.5 125.0 " stroke="black" fill="none" stroke-width="7.0" stroke-linecap="round" stroke-linejoin="round" />
<path d="M 148.5 98.5 L 149.0 99.0 L 150.5 100.0 L 153.5 102.5 L 160.5 105.5 L 168.5 107.5 L 174.5 109.0 L 178.0 110.5 L 180.5 113.0 L 180.5 113.5 " stroke="black" fill="none" stroke-width="7.0" stroke-linecap="round" stroke-linejoin="round" />
<path d="M 134.5 131.5 L 133.5 132.0 L 132.5 132.5 L 132.5 132.5 L 136.0 132.5 L 142.0 131.5 L 148.5 129.5 L 154.5 126.5 L 158.5 125.0 L 159.5 124.5 " stroke="black" fill="none" stroke-width="7.0" stroke-linecap="round" stroke-linejoin="round" />
<path d="M 134.0 152.5 L 133.5 153.5 L 131.5 155.5 L 132.5 155.5 L 136.5 155.0 L 143.5 151.5 L 150.5 148.0 L 156.0 145.5 L 158.5 145.5 L 158.5 145.5 " stroke="black" fill="none" stroke-width="7.0" stroke-linecap="round" stroke-linejoin="round" />
<path d="M 150.5 137.0 L 150.0 139.0 L 149.5 143.0 L 149.0 150.0 L 149.0 161.0 L 149.0 170.5 L 149.0 177.5 L 149.0 179.0 " stroke="black" fill="none" stroke-width="7.0" stroke-linecap="round" stroke-linejoin="round" />
<path d="M 133.0 167.5 L 133.0 167.5 L 132.0 168.0 L 133.0 168.0 L 137.5 168.0 L 141.0 168.0 " stroke="black" fill="none" stroke-width="7.0" stroke-linecap="round" stroke-linejoin="round" />
<path d="M 163.5 159.0 L 163.0 159.5 L 162.0 160.5 L 161.0 162.5 L 158.5 165.5 L 156.0 169.5 L 152.0 174.5 " stroke="black" fill="none" stroke-width="7.0" stroke-linecap="round" stroke-linejoin="round" />
<path d="M 111.0 192.0 L 109.0 192.5 L 107.5 192.5 L 108.0 192.5 L 111.0 192.5 L 118.0 191.5 L 127.5 189.5 L 142.5 186.0 L 157.5 184.0 L 170.5 183.5 L 178.0 185.0 L 184.0 186.0 L 187.0 187.0 " stroke="black" fill="none" stroke-width="7.0" stroke-linecap="round" stroke-linejoin="round" />
</svg>