<svg xmlns="http://www.w3.org/2000/svg" width="300" height="300" viewBox="0 0 300 300">
<path d="M 126.5 88.5 L 126.5 88.5 L 126.5 88.5 L 126.5 88.5 L 127.0 89.5 L 129.0 92.5 L 132.5 98.0 L 134.5 101.0 L 137.0 102.5 L 137.0 102.5 " stroke="black" fill="none" stroke-width="7.0" stroke-linecap="round" stroke-linejoin="round" />
<path d="M 131.0 83.0 L 131.0 82.0 L 131.5 81.0 L 134.5 80.0 L 139.0 78.5 L 149.5 75.0 L 156.0 73.0 L 161.0 72.5 L 163.5 73.0 L 165.0 76.0 L 165.0 80.5 L 163.0 87.0 L 160.0 93.5 L 157.5 98.5 L 156.0 101.0 L 155.5 101.5 " stroke="black" fill="none" stroke-width="7.0" stroke-linecap="round" stroke-linejoin="round" />
<path d="M 143.5 94.0 L 141.5 94.0 L 139.0 94.5 L 138.5 94.5 L 139.5 94.5 L 143.5 93.0 L 148.0 91.0 L 152.0 89.5 L 153.5 89.5 " stroke="black" fill="none" stroke-width="7.0" stroke-linecap="round" stroke-linejoin="round" />
<path d="M 139.5 104.0 L 137.5 105.5 L 136.5 106.5 L 138.0 107.0 L 142.5 106.5 L 147.5 104.5 L 151.0 103.0 " stroke="black" fill="none" stroke-width="7.0" stroke-linecap="round" stroke-linejoin="round" />
<path d="M 120.5 121.0 L 119.5 121.0 L 118.0 121.5 L 117.5 121.5 L 117.0 121.5 L 118.0 121.5 L 121.0 121.5 L 127.0 121.5 L 136.0 119.5 L 148.0 116.5 L 159.5 113.5 L 168.5 112.0 L 172.0 112.0 L 173.0 112.0 " stroke="black" fill="none" stroke-width="7.0" stroke-linecap="round" stroke-linejoin="round" />
<path d="M 127.5 138.0 L 127.5 138.0 L 126.5 138.0 L 126.5 138.5 L 126.5 141.0 L 128.0 144.5 L 130.0 148.5 L 132.0 151.5 L 132.5 152.5 " stroke="black" fill="none" stroke-width="7.0" stroke-linecap="round" stroke-linejoin="round" />
<path d="M 131.5 137.5 L 131.5 136.5 L 132.0 135.0 L 134.0 133.5 L 140.0 132.0 L 148.0 129.0 L 155.5 125.5 L 161.0 124.0 L 164.5 124.0 L 166.0 125.5 L 166.0 128.5 L 165.0 133.5 L 163.0 139.0 L 161.0 143.0 L 158.0 146.0 " stroke="black" fill="none" stroke-width="7.0" stroke-linecap="round" stroke-linejoin="round" />
<path d="M 139.5 141.5 L 139.0 141.5 L 137.5 142.0 L 137.0 142.0 L 139.0 142.0 L 143.5 141.0 L 148.0 139.0 L 152.5 137.0 L 155.5 136.5 L 155.5 136.5 " stroke="black" fill="none" stroke-width="7.0" stroke-linecap="round" stroke-linejoin="round" />
<path d="M 138.0 152.5 L 137.5 153.0 L 135.0 154.5 L 135.0 156.0 L 137.0 156.0 L 141.5 155.0 L 148.0 151.5 L 153.0 148.5 L 156.5 146.5 " stroke="black" fill="none" stroke-width="7.0" stroke-linecap="round" stroke-linejoin="round" />
<path d="M 133.0 168.5 L 131.0 169.5 L 129.5 170.0 L 129.0 171.0 L 129.5 172.0 L 133.5 172.0 L 140.0 169.0 L 148.0 165.0 L 155.5 160.0 L 161.5 157.5 L 162.5 157.0 " stroke="black" fill="none" stroke-width="7.0" stroke-linecap="round" stroke-linejoin="round" />
<path d="M 148.0 137.0 L 148.0 138.5 L 147.5 142.0 L 148.0 149.0 L 148.5 159.5 L 148.5 171.0 L 148.0 180.5 L 148.0 182.5 " stroke="black" fill="none" stroke-width="7.0" stroke-linecap="round" stroke-linejoin="round" />
<path d="M 119.5 192.0 L 117.5 192.5 L 115.5 192.5 L 115.5 193.0 L 117.0 193.0 L 122.0 193.0 L 129.5 191.5 L 140.0 189.0 L 153.5 186.0 L 166.0 183.5 L 174.0 183.5 L 177.5 185.0 L 178.5 185.5 " stroke="black" fill="none" stroke-width="7.0" stroke-linecap="round" stroke-linejoin="round" />
</svg>