<svg xmlns="http://www.w3.org/2000/svg" width="300" height="300" viewBox="0 0 300 300">
<path d="M 115.5 100.5 L 115.5 100.5 L 115.5 100.5 L 115.0 100.0 L 115.0 100.5 L 115.0 104.5 L 117.0 117.5 L 118.5 134.5 L 119.0 168.5 L 118.0 189.5 L 117.0 203.5 L 117.0 210.0 L 117.5 210.5 " stroke="black" fill="none" stroke-width="7.0" stroke-linecap="round" stroke-linejoin="round" />
<path d="M 127.0 101.5 L 126.5 101.5 L 125.5 101.0 L 125.0 100.5 L 125.0 99.5 L 127.5 97.5 L 131.5 95.0 L 135.0 93.5 L 139.5 91.0 L 141.5 90.5 L 142.5 92.0 L 143.5 97.0 L 144.5 104.5 L 144.5 113.5 L 144.5 120.5 L 144.5 123.5 " stroke="black" fill="none" stroke-width="7.0" stroke-linecap="round" stroke-linejoin="round" />
<path d="M 125.5 114.0 L 124.5 114.0 L 122.0 114.5 L 121.0 114.5 L 122.5 114.5 L 126.0 113.5 L 130.0 111.5 L 137.0 107.5 L 139.5 107.0 " stroke="black" fill="none" stroke-width="7.0" stroke-linecap="round" stroke-linejoin="round" />
<path d="M 127.5 129.5 L 126.0 132.0 L 125.0 132.5 L 126.5 131.5 L 131.5 127.5 L 136.5 124.5 L 138.5 123.5 " stroke="black" fill="none" stroke-width="7.0" stroke-linecap="round" stroke-linejoin="round" />
<path d="M 163.0 94.5 L 163.0 94.0 L 163.0 93.0 L 163.0 93.0 L 163.5 98.5 L 164.0 108.0 L 164.0 119.0 L 164.0 124.0 L 164.5 123.5 L 165.5 120.5 " stroke="black" fill="none" stroke-width="7.0" stroke-linecap="round" stroke-linejoin="round" />
<path d="M 165.5 96.5 L 166.0 94.5 L 167.0 91.5 L 169.0 89.5 L 172.0 87.0 L 175.5 84.0 L 180.0 82.0 L 184.0 81.0 L 186.5 80.5 L 188.0 82.0 L 189.0 86.0 L 190.5 93.0 L 191.5 103.5 L 192.5 121.0 L 193.5 142.0 L 194.0 160.5 L 194.0 175.0 L 194.0 187.0 L 193.0 195.5 L 191.5 202.0 L 189.0 205.5 L 186.0 206.0 L 182.0 202.0 L 180.0 197.5 " stroke="black" fill="none" stroke-width="7.0" stroke-linecap="round" stroke-linejoin="round" />
<path d="M 168.5 111.5 L 168.5 111.5 L 167.5 111.0 L 167.0 110.0 L 167.0 109.5 L 171.0 107.0 L 175.5 104.0 L 179.5 101.5 L 181.5 101.0 " stroke="black" fill="none" stroke-width="7.0" stroke-linecap="round" stroke-linejoin="round" />
<path d="M 168.0 122.0 L 167.0 123.5 L 167.0 124.0 L 170.0 123.0 L 174.0 120.5 L 178.5 118.5 L 181.5 117.5 " stroke="black" fill="none" stroke-width="7.0" stroke-linecap="round" stroke-linejoin="round" />
<path d="M 137.0 153.0 L 137.0 153.0 L 136.0 153.0 L 136.0 153.0 L 137.5 152.0 L 143.0 149.0 L 151.0 143.5 L 159.0 138.5 L 162.0 137.0 L 162.0 137.0 " stroke="black" fill="none" stroke-width="7.0" stroke-linecap="round" stroke-linejoin="round" />
<path d="M 141.0 165.5 L 140.0 167.0 L 139.5 168.0 L 141.5 168.0 L 147.5 165.0 L 154.0 160.0 L 160.0 155.5 L 161.5 154.5 " stroke="black" fill="none" stroke-width="7.0" stroke-linecap="round" stroke-linejoin="round" />
<path d="M 152.5 149.5 L 152.5 151.5 L 152.5 156.0 L 152.5 163.0 L 152.5 171.0 L 152.5 179.0 L 152.5 181.5 " stroke="black" fill="none" stroke-width="7.0" stroke-linecap="round" stroke-linejoin="round" />
<path d="M 132.0 190.0 L 132.0 190.5 L 130.5 191.0 L 130.5 191.0 L 132.5 190.5 L 141.5 188.0 L 152.5 185.0 L 167.5 182.0 L 175.5 181.5 L 179.5 183.0 " stroke="black" fill="none" stroke-width="7.0" stroke-linecap="round" stroke-linejoin="round" />
</svg>