<svg xmlns="http://www.w3.org/2000/svg" width="300" height="300" viewBox="0 0 300 300">
<path d="M 117.5 101.0 L 117.0 100.5 L 116.0 99.0 L 115.5 97.5 L 115.5 96.5 L 115.0 96.5 L 115.0 97.0 L 114.5 100.5 L 115.0 108.5 L 115.5 123.5 L 116.0 144.5 L 116.0 164.0 L 115.0 175.5 L 114.0 187.5 L 113.5 191.5 L 113.0 192.0 L 113.0 191.5 " stroke="black" fill="none" stroke-width="7.0" stroke-linecap="round" stroke-linejoin="round" />
<path d="M 124.0 101.5 L 123.0 101.5 L 122.5 101.5 L 122.5 101.0 L 123.0 99.5 L 125.5 98.5 L 127.5 97.5 L 130.5 96.5 L 135.0 94.5 L 138.0 93.5 L 140.5 93.0 L 142.0 95.0 L 142.5 100.0 L 142.5 107.5 L 141.5 116.0 L 141.0 121.5 L 140.5 123.5 L 139.5 123.5 L 138.0 122.5 " stroke="black" fill="none" stroke-width="7.0" stroke-linecap="round" stroke-linejoin="round" />
<path d="M 129.0 115.0 L 128.5 115.0 L 126.5 114.5 L 125.0 114.5 L 124.5 114.5 L 125.0 115.0 L 127.5 115.0 L 131.0 113.5 L 134.5 112.5 L 136.0 112.0 " stroke="black" fill="none" stroke-width="7.0" stroke-linecap="round" stroke-linejoin="round" />
<path d="M 127.0 127.5 L 126.5 128.0 L 125.0 130.0 L 125.5 130.5 L 128.0 129.0 L 132.5 126.5 L 137.5 124.5 " stroke="black" fill="none" stroke-width="7.0" stroke-linecap="round" stroke-linejoin="round" />
<path d="M 156.5 98.5 L 156.5 99.0 L 156.5 101.0 L 157.0 107.0 L 157.0 116.0 L 157.5 122.0 L 157.5 123.5 " stroke="black" fill="none" stroke-width="7.0" stroke-linecap="round" stroke-linejoin="round" />
<path d="M 161.0 99.0 L 161.0 98.5 L 163.0 96.5 L 165.5 93.5 L 169.0 91.0 L 172.0 89.5 L 175.5 88.0 L 178.0 87.5 L 180.0 87.0 L 181.5 88.0 L 182.0 91.5 L 182.5 96.5 L 183.0 103.5 L 184.0 115.5 L 185.0 131.0 L 185.5 148.5 L 185.5 164.0 L 184.5 173.5 L 183.5 182.0 L 182.0 186.5 L 180.0 187.0 L 176.5 186.0 L 173.0 181.5 L 171.5 178.5 " stroke="black" fill="none" stroke-width="7.0" stroke-linecap="round" stroke-linejoin="round" />
<path d="M 167.0 106.0 L 165.0 106.5 L 164.0 107.0 L 164.5 107.0 L 167.5 107.0 L 171.5 105.5 L 175.0 104.0 L 177.0 103.5 " stroke="black" fill="none" stroke-width="7.0" stroke-linecap="round" stroke-linejoin="round" />
<path d="M 165.0 119.5 L 163.0 121.0 L 163.5 121.0 L 166.5 121.0 L 171.0 120.0 L 175.5 118.5 L 177.0 118.5 " stroke="black" fill="none" stroke-width="7.0" stroke-linecap="round" stroke-linejoin="round" />
<path d="M 129.5 141.5 L 129.0 141.5 L 128.5 141.5 L 128.5 142.0 L 129.5 142.5 L 131.0 143.0 " stroke="black" fill="none" stroke-width="7.0" stroke-linecap="round" stroke-linejoin="round" />
<path d="M 140.5 132.5 L 140.5 132.5 L 139.5 133.5 L 139.5 135.5 L 138.5 138.5 L 137.0 142.5 L 134.5 147.0 L 133.5 148.0 " stroke="black" fill="none" stroke-width="7.0" stroke-linecap="round" stroke-linejoin="round" />
<path d="M 128.0 153.0 L 126.5 155.5 L 125.5 156.0 L 125.5 156.0 L 128.0 154.5 L 132.5 151.5 L 137.5 148.5 L 142.5 146.5 L 144.5 146.0 L 144.5 146.5 " stroke="black" fill="none" stroke-width="7.0" stroke-linecap="round" stroke-linejoin="round" />
<path d="M 126.0 164.5 L 125.5 166.5 L 125.5 168.5 L 125.5 170.5 L 126.5 172.0 L 127.5 173.0 L 128.5 174.0 L 130.0 174.5 L 132.0 174.5 L 135.0 173.0 L 139.5 170.5 L 144.0 168.0 L 144.5 167.5 " stroke="black" fill="none" stroke-width="7.0" stroke-linecap="round" stroke-linejoin="round" />
<path d="M 147.0 159.5 L 146.5 160.0 L 146.5 160.5 L 146.5 162.5 L 146.5 165.5 L 146.5 168.5 " stroke="black" fill="none" stroke-width="7.0" stroke-linecap="round" stroke-linejoin="round" />
<path d="M 136.0 152.0 L 136.0 152.5 L 135.5 154.5 L 135.5 159.5 L 135.5 168.5 L 135.0 180.5 L 133.0 191.0 L 132.5 192.5 " stroke="black" fill="none" stroke-width="7.0" stroke-linecap="round" stroke-linejoin="round" />
<path d="M 155.0 132.0 L 155.0 132.5 L 155.0 133.5 L 155.0 136.0 L 155.0 139.5 L 155.0 143.0 L 155.0 145.5 L 155.0 146.5 L 156.5 146.0 L 159.0 143.0 L 162.5 140.0 L 166.5 137.0 L 169.5 135.5 L 171.0 135.5 L 171.0 137.0 L 170.5 139.5 L 169.0 143.0 " stroke="black" fill="none" stroke-width="7.0" stroke-linecap="round" stroke-linejoin="round" />
<path d="M 161.5 146.0 L 161.0 146.5 L 160.5 147.5 L 160.5 150.0 L 160.0 155.0 L 158.0 163.0 L 155.0 171.5 L 151.5 178.5 L 148.5 182.5 L 148.5 182.5 " stroke="black" fill="none" stroke-width="7.0" stroke-linecap="round" stroke-linejoin="round" />
<path d="M 156.5 166.0 L 157.0 166.0 L 159.5 165.0 L 163.5 165.5 L 168.5 168.0 L 172.5 171.0 L 175.0 174.0 L 175.5 175.0 " stroke="black" fill="none" stroke-width="7.0" stroke-linecap="round" stroke-linejoin="round" />
</svg>