<svg xmlns="http://www.w3.org/2000/svg" width="300" height="300" viewBox="0 0 300 300">
<path d="M 141.5 100.0 L 140.0 101.0 L 137.5 101.5 L 136.5 102.0 L 138.0 102.0 L 143.5 101.0 L 150.0 98.0 L 156.5 94.0 L 162.5 90.5 L 165.5 88.5 L 165.5 88.5 " stroke="black" fill="none" stroke-width="7.0" stroke-linecap="round" stroke-linejoin="round" />
<path d="M 136.5 102.5 L 136.0 105.0 L 136.5 109.0 L 138.0 117.5 L 139.5 128.5 L 139.5 141.0 L 139.5 150.5 L 139.0 155.5 L 139.0 156.5 L 139.0 156.0 " stroke="black" fill="none" stroke-width="7.0" stroke-linecap="round" stroke-linejoin="round" />
<path d="M 145.0 127.0 L 145.0 126.5 L 144.5 126.0 L 144.5 125.5 L 146.0 124.5 L 149.5 123.0 L 155.0 119.5 L 161.0 116.5 L 162.5 115.5 " stroke="black" fill="none" stroke-width="7.0" stroke-linecap="round" stroke-linejoin="round" />
<path d="M 146.5 137.0 L 146.0 137.5 L 145.0 139.0 L 145.0 140.0 L 148.0 140.0 L 152.5 138.0 L 158.0 134.5 L 163.5 132.0 L 164.0 131.5 " stroke="black" fill="none" stroke-width="7.0" stroke-linecap="round" stroke-linejoin="round" />
<path d="M 124.5 165.5 L 122.5 166.0 L 122.5 166.0 L 125.0 166.5 L 130.5 165.0 L 139.5 162.0 L 151.5 156.5 L 163.0 151.0 L 169.0 148.5 L 170.5 148.0 " stroke="black" fill="none" stroke-width="7.0" stroke-linecap="round" stroke-linejoin="round" />
<path d="M 139.0 167.5 L 139.0 168.5 L 138.5 172.0 L 138.5 178.0 L 138.0 185.5 L 137.5 192.5 L 137.5 198.0 L 137.0 201.0 L 137.0 202.5 L 137.0 202.5 L 137.0 201.5 L 139.5 199.0 L 143.5 194.5 L 148.5 189.0 L 153.0 184.5 " stroke="black" fill="none" stroke-width="7.0" stroke-linecap="round" stroke-linejoin="round" />
<path d="M 172.5 161.0 L 172.5 161.0 L 172.0 161.0 L 171.0 162.0 L 169.0 163.5 L 166.0 166.0 L 161.0 168.5 L 156.0 170.5 L 152.5 171.5 L 151.0 171.5 L 150.5 171.0 L 150.5 170.5 L 150.5 170.0 L 151.0 170.0 L 151.5 170.0 L 153.0 171.0 L 156.5 172.5 L 162.0 175.0 L 169.5 177.5 L 177.5 180.5 L 184.0 183.5 L 190.5 186.5 L 194.5 188.5 L 196.5 189.5 " stroke="black" fill="none" stroke-width="7.0" stroke-linecap="round" stroke-linejoin="round" />
</svg>