<svg xmlns="http://www.w3.org/2000/svg" width="300" height="300" viewBox="0 0 300 300">
<path d="M 142.0 89.5 L 142.0 89.5 L 140.5 89.5 L 140.0 90.0 L 139.5 90.0 L 140.5 90.0 L 144.0 90.0 L 149.0 89.0 L 153.5 87.5 L 157.0 86.5 L 158.5 86.0 L 159.0 86.0 " stroke="black" fill="none" stroke-width="7.0" stroke-linecap="round" stroke-linejoin="round" />
<path d="M 109.0 116.0 L 109.0 116.0 L 108.5 116.0 L 108.0 116.5 L 108.5 118.5 L 110.5 121.5 L 113.0 125.0 L 115.0 128.0 L 116.5 129.0 " stroke="black" fill="none" stroke-width="7.0" stroke-linecap="round" stroke-linejoin="round" />
<path d="M 113.5 117.5 L 113.5 117.5 L 114.0 116.5 L 114.5 116.0 L 117.0 115.0 L 122.5 114.0 L 131.0 112.5 L 142.0 110.0 L 153.5 107.0 L 163.0 104.5 L 172.0 103.0 L 177.0 102.5 L 180.5 102.0 L 183.0 102.0 L 183.5 104.0 L 182.5 108.0 L 179.5 114.0 L 175.5 120.0 L 174.0 122.5 " stroke="black" fill="none" stroke-width="7.0" stroke-linecap="round" stroke-linejoin="round" />
<path d="M 149.0 93.0 L 148.5 93.0 L 148.0 93.0 L 147.5 94.0 L 147.5 99.0 L 148.5 110.5 L 149.0 124.0 L 149.0 133.0 L 148.5 138.0 L 148.0 138.5 " stroke="black" fill="none" stroke-width="7.0" stroke-linecap="round" stroke-linejoin="round" />
<path d="M 131.0 122.0 L 130.5 122.5 L 129.5 123.0 L 130.0 123.5 L 131.5 124.0 L 133.0 124.0 L 134.0 125.0 L 134.0 127.0 L 133.0 129.0 L 131.5 131.5 L 130.0 132.5 L 129.5 133.5 L 129.5 133.5 L 131.5 132.0 L 135.5 129.5 L 136.5 129.0 " stroke="black" fill="none" stroke-width="7.0" stroke-linecap="round" stroke-linejoin="round" />
<path d="M 161.0 113.0 L 161.0 113.0 L 161.5 113.0 L 161.5 113.5 L 161.5 114.5 L 160.5 116.0 L 159.0 118.0 L 157.0 120.5 L 155.5 122.0 L 155.0 123.5 L 155.0 124.5 L 157.5 125.5 L 160.5 126.5 L 164.0 127.5 L 167.0 129.0 " stroke="black" fill="none" stroke-width="7.0" stroke-linecap="round" stroke-linejoin="round" />
<path d="M 140.5 151.5 L 140.0 151.5 L 138.0 151.5 L 137.0 151.5 L 136.5 151.5 L 139.0 151.5 L 143.5 150.0 L 149.0 148.0 L 153.5 146.0 L 156.0 145.0 L 157.0 144.5 " stroke="black" fill="none" stroke-width="7.0" stroke-linecap="round" stroke-linejoin="round" />
<path d="M 120.0 170.0 L 119.5 170.0 L 118.5 170.0 L 117.5 169.5 L 117.0 169.5 L 117.0 169.0 L 117.0 168.5 L 118.0 168.5 L 122.5 168.5 L 130.0 167.0 L 142.5 165.0 L 154.5 162.0 L 164.0 160.0 L 171.0 157.5 L 174.0 155.5 L 175.0 154.0 " stroke="black" fill="none" stroke-width="7.0" stroke-linecap="round" stroke-linejoin="round" />
<path d="M 149.5 167.5 L 150.0 167.5 L 150.5 167.0 L 150.5 166.5 L 150.5 166.0 L 150.5 166.0 L 150.0 167.0 L 148.5 169.5 L 146.0 174.0 L 141.5 181.5 L 135.5 189.5 L 131.5 194.5 L 129.5 197.5 L 129.0 199.0 L 129.0 200.0 L 129.0 200.0 L 129.0 200.0 L 131.0 199.5 L 133.5 197.5 L 138.0 195.5 L 144.5 192.5 L 151.5 189.0 L 157.0 186.5 L 161.0 185.0 L 164.0 184.0 " stroke="black" fill="none" stroke-width="7.0" stroke-linecap="round" stroke-linejoin="round" />
<path d="M 164.0 174.5 L 164.0 175.0 L 164.0 176.0 L 164.5 178.0 L 166.0 181.5 L 168.5 187.5 L 171.0 194.0 L 172.0 199.5 L 172.5 203.0 " stroke="black" fill="none" stroke-width="7.0" stroke-linecap="round" stroke-linejoin="round" />
</svg>