<svg xmlns="http://www.w3.org/2000/svg" width="300" height="300" viewBox="0 0 300 300">
<path d="M 127.5 98.5 L 127.0 99.0 L 126.0 99.0 L 125.0 99.0 L 124.5 99.5 L 125.0 99.5 L 127.0 99.0 L 130.0 98.5 L 133.0 98.0 L 135.5 98.0 L 137.0 99.0 L 137.0 101.5 L 136.0 105.5 L 134.5 110.0 L 133.5 113.5 L 133.0 116.5 L 133.0 119.0 L 134.0 121.0 L 135.5 124.0 L 137.0 127.0 L 138.0 130.5 L 138.5 135.0 L 138.0 139.0 L 136.0 142.0 L 133.5 143.5 L 131.0 143.5 L 128.5 141.5 L 126.0 137.0 L 124.0 131.0 L 122.0 126.0 L 120.5 123.0 L 120.0 123.0 L 120.0 124.5 L 120.5 127.0 L 121.5 132.0 L 123.0 141.5 L 124.0 156.0 L 123.5 173.0 L 122.0 187.0 L 121.0 195.5 L 121.0 201.0 " stroke="black" fill="none" stroke-width="7.0" stroke-linecap="round" stroke-linejoin="round" />
<path d="M 151.0 114.0 L 151.0 114.0 L 151.0 114.5 L 151.0 115.5 L 151.5 117.5 L 152.5 121.5 L 154.5 126.0 L 155.5 129.0 L 156.0 131.0 L 156.5 131.0 " stroke="black" fill="none" stroke-width="7.0" stroke-linecap="round" stroke-linejoin="round" />
<path d="M 153.5 110.0 L 153.5 108.5 L 153.0 107.0 L 153.5 105.0 L 156.5 102.5 L 162.0 100.5 L 169.0 99.0 L 174.5 98.0 L 178.0 97.5 L 181.5 97.5 L 184.0 99.5 L 185.5 104.5 L 186.0 112.0 L 184.0 121.5 L 181.5 128.0 L 178.5 132.0 L 176.0 133.5 L 175.5 133.5 " stroke="black" fill="none" stroke-width="7.0" stroke-linecap="round" stroke-linejoin="round" />
<path d="M 164.5 121.5 L 163.0 121.5 L 161.5 121.5 L 161.5 121.5 L 162.5 122.0 L 165.5 122.0 L 169.5 121.0 L 172.5 120.0 L 175.0 118.5 L 176.0 118.0 L 176.5 118.0 " stroke="black" fill="none" stroke-width="7.0" stroke-linecap="round" stroke-linejoin="round" />
<path d="M 160.0 136.0 L 160.0 136.5 L 159.0 138.0 L 161.0 138.5 L 165.5 138.0 L 170.5 136.5 L 174.5 135.5 L 176.0 135.0 " stroke="black" fill="none" stroke-width="7.0" stroke-linecap="round" stroke-linejoin="round" />
<path d="M 148.0 157.0 L 146.5 157.5 L 145.5 158.5 L 145.5 158.5 L 147.5 158.5 L 153.0 157.5 L 162.5 153.5 L 172.5 149.0 L 179.5 145.0 L 182.5 144.0 L 183.0 144.0 " stroke="black" fill="none" stroke-width="7.0" stroke-linecap="round" stroke-linejoin="round" />
<path d="M 166.5 153.0 L 164.5 154.0 L 162.0 156.5 L 158.5 160.5 L 154.5 166.0 L 150.0 172.0 L 146.0 177.5 L 143.0 181.5 L 141.5 182.5 " stroke="black" fill="none" stroke-width="7.0" stroke-linecap="round" stroke-linejoin="round" />
<path d="M 153.5 170.5 L 155.0 169.5 L 159.5 167.0 L 165.5 164.5 L 171.5 162.0 L 177.0 160.5 L 183.5 159.5 L 189.0 159.5 L 192.5 161.0 L 194.5 164.5 L 195.0 170.0 L 194.5 177.5 L 193.5 185.5 L 191.5 191.5 L 188.5 196.5 L 185.0 199.5 L 180.0 200.0 L 175.5 197.5 L 173.5 195.0 " stroke="black" fill="none" stroke-width="7.0" stroke-linecap="round" stroke-linejoin="round" />
<path d="M 165.0 168.5 L 164.5 168.5 L 163.5 169.0 L 162.0 171.5 L 159.5 177.5 L 156.5 185.0 L 153.5 190.5 L 152.5 191.5 " stroke="black" fill="none" stroke-width="7.0" stroke-linecap="round" stroke-linejoin="round" />
<path d="M 173.5 166.5 L 174.0 166.5 L 174.5 166.0 L 174.5 166.0 L 174.5 169.0 L 173.0 177.5 L 168.5 189.0 L 165.0 196.5 " stroke="black" fill="none" stroke-width="7.0" stroke-linecap="round" stroke-linejoin="round" />
</svg>