<svg xmlns="http://www.w3.org/2000/svg" width="300" height="300" viewBox="0 0 300 300">
<path d="M 126.5 99.5 L 126.5 99.5 L 125.5 99.5 L 125.5 99.5 L 125.5 99.0 L 127.0 98.5 L 130.0 97.0 L 133.0 96.5 L 136.0 96.5 L 138.0 98.0 L 138.0 101.0 L 136.0 105.0 L 133.5 109.0 L 131.5 113.0 L 131.0 116.0 L 131.0 117.5 L 132.0 120.0 L 133.5 122.5 L 135.5 126.5 L 136.5 131.5 L 136.5 137.0 L 135.0 141.0 L 133.0 143.5 L 130.5 143.5 L 128.0 142.5 L 125.5 139.5 L 122.5 134.5 L 121.0 131.0 " stroke="black" fill="none" stroke-width="7.0" stroke-linecap="round" stroke-linejoin="round" />
<path d="M 115.5 117.0 L 115.0 116.0 L 114.5 116.0 L 115.5 119.5 L 117.5 128.0 L 119.0 143.5 L 119.5 158.0 L 116.5 179.5 L 114.5 190.5 L 114.0 197.0 L 114.0 198.0 " stroke="black" fill="none" stroke-width="7.0" stroke-linecap="round" stroke-linejoin="round" />
<path d="M 161.5 94.0 L 161.5 95.0 L 161.5 98.0 L 158.5 105.5 L 154.0 117.5 L 150.5 126.0 L 148.5 129.0 L 148.0 129.0 " stroke="black" fill="none" stroke-width="7.0" stroke-linecap="round" stroke-linejoin="round" />
<path d="M 154.0 118.0 L 154.5 117.5 L 157.5 115.0 L 162.0 111.5 L 167.5 108.0 L 172.0 105.0 L 175.5 103.0 L 178.5 102.0 L 181.5 102.0 L 184.0 103.5 L 185.0 107.0 L 185.5 113.5 L 186.0 122.0 L 186.0 133.0 L 186.5 146.5 L 186.0 160.0 L 185.0 171.5 L 184.5 182.0 L 184.0 190.0 L 183.5 194.5 L 182.0 197.5 L 180.0 198.5 L 177.0 196.5 L 174.0 191.5 " stroke="black" fill="none" stroke-width="7.0" stroke-linecap="round" stroke-linejoin="round" />
<path d="M 154.0 136.0 L 153.5 135.0 L 153.5 134.5 L 153.5 134.0 L 153.5 134.5 L 153.5 136.0 L 153.5 139.0 L 153.0 141.5 L 152.0 143.5 L 151.0 144.5 L 150.5 145.5 L 150.5 145.5 L 152.0 144.5 L 155.5 143.0 L 159.5 140.5 L 163.0 138.5 L 165.5 138.0 " stroke="black" fill="none" stroke-width="7.0" stroke-linecap="round" stroke-linejoin="round" />
<path d="M 147.0 159.0 L 145.5 160.0 L 144.5 161.0 L 144.5 161.5 L 146.0 161.0 L 149.0 160.0 L 153.5 158.0 L 158.5 155.0 L 164.0 152.5 L 168.0 150.5 L 169.5 149.5 " stroke="black" fill="none" stroke-width="7.0" stroke-linecap="round" stroke-linejoin="round" />
<path d="M 160.0 145.0 L 160.0 146.5 L 160.0 148.0 L 160.0 151.5 L 159.5 158.0 L 159.5 165.5 L 158.5 171.5 " stroke="black" fill="none" stroke-width="7.0" stroke-linecap="round" stroke-linejoin="round" />
<path d="M 144.5 175.0 L 144.0 176.0 L 144.0 177.5 L 143.5 180.0 L 143.5 182.0 L 143.5 184.0 L 143.5 185.0 L 143.5 185.5 L 143.5 185.5 L 145.0 185.5 L 147.0 183.5 L 150.0 181.5 L 154.0 179.0 L 159.0 176.5 L 164.5 174.5 L 168.5 174.0 L 171.0 173.5 L 172.0 173.0 " stroke="black" fill="none" stroke-width="7.0" stroke-linecap="round" stroke-linejoin="round" />
<path d="M 171.0 164.5 L 171.0 164.5 L 171.0 164.5 L 171.0 166.0 L 171.0 170.0 L 171.5 175.0 L 172.0 176.0 " stroke="black" fill="none" stroke-width="7.0" stroke-linecap="round" stroke-linejoin="round" />
</svg>