<svg xmlns="http://www.w3.org/2000/svg" width="300" height="300" viewBox="0 0 300 300">
<path d="M 123.0 96.5 L 122.5 96.5 L 122.5 96.5 L 122.5 97.0 L 125.5 98.0 L 128.0 99.0 L 129.5 100.0 " stroke="black" fill="none" stroke-width="7.0" stroke-linecap="round" stroke-linejoin="round" />
<path d="M 113.5 114.5 L 113.0 115.0 L 111.0 116.0 L 111.0 116.5 L 113.5 116.5 L 119.5 115.5 L 127.5 111.5 L 136.0 106.0 L 143.0 102.0 L 145.5 101.0 " stroke="black" fill="none" stroke-width="7.0" stroke-linecap="round" stroke-linejoin="round" />
<path d="M 135.0 109.0 L 134.5 109.5 L 133.5 111.0 L 132.5 115.0 L 130.5 121.5 L 127.0 130.0 L 123.0 139.0 L 118.5 144.0 " stroke="black" fill="none" stroke-width="7.0" stroke-linecap="round" stroke-linejoin="round" />
<path d="M 122.5 127.5 L 123.0 127.5 L 125.5 128.0 L 129.0 129.5 L 133.0 132.5 L 137.0 135.0 L 138.0 137.0 " stroke="black" fill="none" stroke-width="7.0" stroke-linecap="round" stroke-linejoin="round" />
<path d="M 108.0 139.0 L 108.0 139.5 L 108.0 142.0 L 108.0 146.5 L 108.5 152.0 L 108.5 156.5 L 108.0 159.0 L 107.5 159.5 L 107.5 159.5 L 110.0 157.5 L 114.5 154.0 L 121.5 150.0 L 128.5 146.5 L 135.0 144.5 L 140.5 143.5 L 142.0 143.0 " stroke="black" fill="none" stroke-width="7.0" stroke-linecap="round" stroke-linejoin="round" />
<path d="M 145.0 126.0 L 144.0 127.0 L 144.0 129.5 L 144.0 135.5 L 144.0 144.0 " stroke="black" fill="none" stroke-width="7.0" stroke-linecap="round" stroke-linejoin="round" />
<path d="M 107.5 169.5 L 107.5 169.5 L 107.0 167.5 L 107.0 167.0 L 107.0 169.5 L 108.0 178.0 L 109.0 189.5 L 110.0 198.5 L 111.0 202.5 L 111.0 202.5 " stroke="black" fill="none" stroke-width="7.0" stroke-linecap="round" stroke-linejoin="round" />
<path d="M 96.5 183.5 L 96.0 184.0 L 96.0 184.0 L 97.5 183.5 L 102.0 182.0 L 108.5 178.5 L 118.0 173.5 L 128.0 168.5 L 135.0 164.5 L 141.0 162.0 L 145.0 160.5 L 147.5 160.0 L 149.0 162.5 L 150.0 166.0 L 150.5 171.5 L 151.0 179.0 L 150.5 186.5 L 149.0 192.5 L 146.0 197.5 L 142.5 200.0 L 138.5 199.0 L 138.0 198.0 " stroke="black" fill="none" stroke-width="7.0" stroke-linecap="round" stroke-linejoin="round" />
<path d="M 125.0 151.0 L 125.0 152.5 L 125.0 156.0 L 126.0 163.5 L 126.5 173.5 L 126.0 184.0 L 125.5 188.0 " stroke="black" fill="none" stroke-width="7.0" stroke-linecap="round" stroke-linejoin="round" />
<path d="M 117.5 194.5 L 117.0 194.5 L 115.5 195.0 L 114.5 195.5 L 114.5 195.5 L 116.0 195.0 L 119.5 193.5 L 125.0 190.5 L 131.5 187.0 L 137.0 183.0 L 140.5 180.0 L 141.0 179.5 " stroke="black" fill="none" stroke-width="7.0" stroke-linecap="round" stroke-linejoin="round" />
<path d="M 140.0 175.0 L 140.0 175.0 L 140.0 175.0 L 141.0 176.0 L 143.0 180.0 L 145.5 186.0 " stroke="black" fill="none" stroke-width="7.0" stroke-linecap="round" stroke-linejoin="round" />
<path d="M 172.5 100.0 L 172.5 99.0 L 172.5 97.5 L 172.5 97.0 L 172.5 97.5 L 171.0 102.5 L 167.5 112.0 L 161.0 125.5 L 153.0 139.5 L 149.0 145.5 L 148.0 147.0 " stroke="black" fill="none" stroke-width="7.0" stroke-linecap="round" stroke-linejoin="round" />
<path d="M 158.5 133.5 L 158.5 133.5 L 159.0 133.5 L 159.5 134.5 L 160.0 141.5 L 160.5 150.5 L 161.5 170.5 L 162.0 186.0 L 161.5 196.5 L 161.5 206.5 L 161.5 209.5 " stroke="black" fill="none" stroke-width="7.0" stroke-linecap="round" stroke-linejoin="round" />
<path d="M 184.0 105.5 L 182.0 106.5 L 182.0 107.0 L 184.5 109.0 L 187.5 110.5 L 190.0 112.0 L 190.0 112.5 " stroke="black" fill="none" stroke-width="7.0" stroke-linecap="round" stroke-linejoin="round" />
<path d="M 175.5 127.0 L 174.0 129.0 L 173.5 130.0 L 175.0 130.5 L 179.0 130.0 L 185.0 127.0 L 190.5 123.5 L 193.5 121.5 " stroke="black" fill="none" stroke-width="7.0" stroke-linecap="round" stroke-linejoin="round" />
<path d="M 175.0 145.5 L 174.5 146.0 L 174.0 147.0 L 176.0 147.0 L 181.0 144.0 L 187.5 140.0 L 192.0 137.5 " stroke="black" fill="none" stroke-width="7.0" stroke-linecap="round" stroke-linejoin="round" />
<path d="M 175.5 161.0 L 174.5 162.0 L 172.5 164.0 L 173.0 164.5 L 176.5 163.0 L 183.0 159.5 L 190.5 154.5 L 196.5 150.0 " stroke="black" fill="none" stroke-width="7.0" stroke-linecap="round" stroke-linejoin="round" />
<path d="M 189.5 129.0 L 189.0 132.0 L 189.0 138.5 L 189.0 149.5 L 188.5 160.5 L 188.0 170.5 L 187.5 174.0 " stroke="black" fill="none" stroke-width="7.0" stroke-linecap="round" stroke-linejoin="round" />
<path d="M 165.5 188.0 L 164.0 188.5 L 163.0 188.5 L 165.5 188.5 L 172.0 186.5 L 182.0 182.5 L 195.5 178.0 L 206.0 176.5 L 212.0 176.5 " stroke="black" fill="none" stroke-width="7.0" stroke-linecap="round" stroke-linejoin="round" />
</svg>