<svg xmlns="http://www.w3.org/2000/svg" width="300" height="300" viewBox="0 0 300 300">
<path d="M 122.0 104.5 L 121.0 105.0 L 120.0 105.5 L 120.0 105.5 L 121.5 105.0 L 124.0 103.5 L 127.5 102.5 L 129.5 102.0 L 131.0 102.5 L 131.5 106.5 L 130.0 111.5 L 128.0 116.5 L 126.5 120.0 L 126.5 122.0 L 126.5 123.5 L 126.5 125.0 L 127.0 127.0 L 128.0 129.5 L 129.5 133.5 L 131.0 138.5 L 132.5 143.5 L 131.0 153.0 L 128.5 156.5 L 125.5 157.0 L 122.5 155.5 L 119.0 150.5 L 117.5 147.5 " stroke="black" fill="none" stroke-width="7.0" stroke-linecap="round" stroke-linejoin="round" />
<path d="M 111.5 119.5 L 111.5 119.5 L 111.0 120.0 L 111.0 123.0 L 112.5 133.5 L 114.0 150.0 L 114.0 168.5 L 113.0 186.0 L 112.0 198.5 L 112.0 207.0 L 112.0 209.0 " stroke="black" fill="none" stroke-width="7.0" stroke-linecap="round" stroke-linejoin="round" />
<path d="M 158.5 110.5 L 158.5 111.0 L 157.0 111.5 L 157.0 111.5 L 161.0 110.0 L 167.0 107.0 L 174.0 102.5 L 181.5 97.5 L 185.5 95.5 " stroke="black" fill="none" stroke-width="7.0" stroke-linecap="round" stroke-linejoin="round" />
<path d="M 171.0 87.5 L 170.0 90.5 L 170.0 95.5 L 169.0 104.5 L 167.0 116.0 L 162.0 127.0 L 156.0 135.0 L 152.5 139.5 L 151.0 140.5 " stroke="black" fill="none" stroke-width="7.0" stroke-linecap="round" stroke-linejoin="round" />
<path d="M 168.0 122.0 L 166.5 122.5 L 164.5 123.0 L 164.0 123.5 L 164.5 124.0 L 168.0 124.0 L 173.0 122.0 L 178.0 119.0 L 182.5 116.5 " stroke="black" fill="none" stroke-width="7.0" stroke-linecap="round" stroke-linejoin="round" />
<path d="M 177.0 120.5 L 177.0 121.5 L 177.0 122.5 L 177.0 125.0 L 177.0 130.0 L 177.0 135.0 " stroke="black" fill="none" stroke-width="7.0" stroke-linecap="round" stroke-linejoin="round" />
<path d="M 159.0 144.0 L 159.0 144.0 L 157.0 145.0 L 156.5 145.0 L 157.5 145.0 L 162.5 144.0 L 170.0 141.5 L 178.5 137.5 L 189.5 133.0 L 195.0 131.0 " stroke="black" fill="none" stroke-width="7.0" stroke-linecap="round" stroke-linejoin="round" />
<path d="M 163.5 157.5 L 163.5 157.5 L 163.5 157.5 L 163.5 160.0 L 163.5 169.5 L 163.0 184.5 L 160.5 196.5 L 158.5 204.0 L 158.0 204.5 L 158.0 204.5 " stroke="black" fill="none" stroke-width="7.0" stroke-linecap="round" stroke-linejoin="round" />
<path d="M 167.0 160.0 L 167.5 159.5 L 168.5 158.5 L 171.0 157.5 L 174.0 155.5 L 177.5 153.0 L 181.5 151.0 L 184.0 150.5 L 185.0 151.5 L 185.0 154.5 L 185.0 159.0 L 185.5 165.5 L 186.0 175.0 L 186.5 186.5 L 186.5 197.5 L 185.5 205.5 L 185.5 209.0 L 185.0 209.5 L 183.5 206.5 L 181.5 200.5 L 181.0 198.5 " stroke="black" fill="none" stroke-width="7.0" stroke-linecap="round" stroke-linejoin="round" />
<path d="M 170.0 172.0 L 168.5 173.5 L 168.0 173.5 L 169.0 173.5 L 172.0 171.5 L 176.0 169.5 " stroke="black" fill="none" stroke-width="7.0" stroke-linecap="round" stroke-linejoin="round" />
<path d="M 169.5 184.0 L 168.5 185.5 L 168.0 186.0 L 169.0 186.5 L 172.0 185.0 L 177.0 181.5 L 178.5 180.5 " stroke="black" fill="none" stroke-width="7.0" stroke-linecap="round" stroke-linejoin="round" />
<path d="M 141.5 160.0 L 141.5 160.0 L 140.0 160.5 L 140.0 161.0 L 142.0 161.0 L 145.0 161.0 L 147.0 160.5 " stroke="black" fill="none" stroke-width="7.0" stroke-linecap="round" stroke-linejoin="round" />
<path d="M 139.0 174.5 L 138.5 175.5 L 138.5 176.5 L 139.5 177.0 L 141.5 177.0 L 144.0 176.0 L 146.5 176.0 L 147.0 177.0 L 146.5 180.5 L 143.5 185.5 L 140.5 189.0 L 138.5 191.0 L 138.0 191.0 L 139.5 190.5 L 141.0 190.5 L 142.5 191.0 L 143.5 192.5 L 144.0 195.5 L 144.0 200.0 L 142.5 204.5 L 139.0 208.5 L 135.0 211.5 L 130.5 213.5 L 126.5 215.5 L 124.0 216.5 L 123.0 216.5 L 123.0 215.5 L 123.5 214.5 L 125.5 213.5 L 127.5 213.0 L 131.0 213.0 L 137.5 213.0 L 147.5 212.5 L 159.5 212.0 L 171.0 212.0 L 180.5 212.0 L 191.0 211.5 L 198.5 210.0 L 207.5 207.5 L 209.5 206.5 " stroke="black" fill="none" stroke-width="7.0" stroke-linecap="round" stroke-linejoin="round" />
</svg>