<svg xmlns="http://www.w3.org/2000/svg" width="300" height="300" viewBox="0 0 300 300">
<path d="M 109.0 106.0 L 109.0 106.0 L 108.0 106.5 L 107.5 106.5 L 108.0 106.5 L 112.5 106.5 L 121.0 103.0 L 131.0 98.5 L 139.5 94.5 L 144.5 92.0 L 145.0 91.0 " stroke="black" fill="none" stroke-width="7.0" stroke-linecap="round" stroke-linejoin="round" />
<path d="M 118.0 92.5 L 118.0 94.5 L 118.5 99.5 L 118.5 107.0 L 118.5 115.0 L 119.0 119.0 L 119.5 119.5 " stroke="black" fill="none" stroke-width="7.0" stroke-linecap="round" stroke-linejoin="round" />
<path d="M 132.5 80.0 L 133.0 80.0 L 133.5 81.0 L 134.0 86.0 L 134.0 96.5 L 134.0 106.5 L 133.5 112.5 L 133.0 115.0 " stroke="black" fill="none" stroke-width="7.0" stroke-linecap="round" stroke-linejoin="round" />
<path d="M 127.0 118.0 L 125.0 119.0 L 124.0 119.0 L 124.5 119.0 L 127.0 118.0 L 130.5 116.0 L 132.5 115.5 " stroke="black" fill="none" stroke-width="7.0" stroke-linecap="round" stroke-linejoin="round" />
<path d="M 109.5 138.0 L 109.5 138.5 L 109.5 139.0 L 110.5 139.5 L 112.5 141.0 L 115.0 143.5 L 117.5 146.0 L 118.5 147.0 L 118.5 147.0 " stroke="black" fill="none" stroke-width="7.0" stroke-linecap="round" stroke-linejoin="round" />
<path d="M 114.0 138.5 L 114.5 138.0 L 115.0 137.5 L 117.5 136.5 L 122.5 134.0 L 128.5 130.5 L 133.0 128.5 L 136.0 127.5 L 137.0 129.0 L 137.0 133.0 L 135.0 137.5 L 132.0 141.5 L 128.5 144.0 L 125.5 146.0 L 122.5 147.5 L 121.0 148.0 L 120.5 148.0 L 123.0 147.5 L 126.0 145.5 L 130.0 143.5 L 132.0 142.5 " stroke="black" fill="none" stroke-width="7.0" stroke-linecap="round" stroke-linejoin="round" />
<path d="M 113.5 160.5 L 113.0 160.5 L 111.5 162.0 L 111.0 162.5 L 112.0 162.5 L 115.5 162.0 L 121.0 159.0 L 127.0 155.0 L 132.5 150.5 L 135.5 149.0 L 136.5 149.0 " stroke="black" fill="none" stroke-width="7.0" stroke-linecap="round" stroke-linejoin="round" />
<path d="M 112.0 172.5 L 110.5 174.0 L 109.0 175.0 L 108.5 176.0 L 110.0 176.0 L 114.5 174.0 L 121.5 170.0 L 129.5 165.0 L 137.0 160.0 L 143.0 157.5 L 143.5 157.0 " stroke="black" fill="none" stroke-width="7.0" stroke-linecap="round" stroke-linejoin="round" />
<path d="M 125.5 125.0 L 125.0 124.5 L 124.5 124.0 L 124.5 124.0 L 125.0 127.0 L 126.0 135.5 L 126.5 147.5 L 124.0 163.5 L 117.0 179.0 L 110.5 189.5 L 106.5 195.0 L 105.0 196.5 " stroke="black" fill="none" stroke-width="7.0" stroke-linecap="round" stroke-linejoin="round" />
<path d="M 128.5 167.5 L 130.5 168.5 L 133.0 171.5 L 137.5 177.5 L 143.0 184.0 L 148.0 188.0 L 150.5 190.0 " stroke="black" fill="none" stroke-width="7.0" stroke-linecap="round" stroke-linejoin="round" />
<path d="M 160.5 95.5 L 161.0 95.0 L 162.0 93.0 L 163.0 92.0 L 164.0 92.5 L 164.0 96.0 L 162.5 102.5 L 158.5 111.0 L 153.0 122.0 L 148.0 131.0 " stroke="black" fill="none" stroke-width="7.0" stroke-linecap="round" stroke-linejoin="round" />
<path d="M 152.0 127.0 L 152.0 127.0 L 152.5 127.0 L 153.0 129.0 L 154.0 135.0 L 155.0 146.5 L 155.0 162.0 L 155.0 175.5 L 155.0 186.5 L 155.0 192.0 " stroke="black" fill="none" stroke-width="7.0" stroke-linecap="round" stroke-linejoin="round" />
<path d="M 172.0 105.0 L 172.0 105.5 L 171.5 105.5 L 171.5 105.5 L 172.5 105.5 L 174.5 106.0 L 175.0 106.0 " stroke="black" fill="none" stroke-width="7.0" stroke-linecap="round" stroke-linejoin="round" />
<path d="M 168.0 122.5 L 167.5 123.0 L 166.5 124.5 L 166.5 125.0 L 169.0 124.5 L 172.0 122.5 L 176.0 119.5 L 179.5 117.5 L 180.5 117.0 " stroke="black" fill="none" stroke-width="7.0" stroke-linecap="round" stroke-linejoin="round" />
<path d="M 166.5 140.0 L 166.0 141.0 L 166.0 141.5 L 169.0 141.0 L 173.0 137.5 L 177.5 133.5 L 181.5 131.0 " stroke="black" fill="none" stroke-width="7.0" stroke-linecap="round" stroke-linejoin="round" />
<path d="M 167.5 155.0 L 165.5 157.5 L 165.5 158.0 L 168.5 157.0 L 172.0 153.0 L 177.0 149.0 L 182.5 145.5 " stroke="black" fill="none" stroke-width="7.0" stroke-linecap="round" stroke-linejoin="round" />
<path d="M 175.5 132.0 L 175.5 133.0 L 175.0 136.0 L 175.0 142.0 L 175.0 150.5 L 175.0 161.0 L 175.0 169.5 L 174.0 174.0 " stroke="black" fill="none" stroke-width="7.0" stroke-linecap="round" stroke-linejoin="round" />
<path d="M 165.5 180.5 L 164.5 180.5 L 162.5 181.0 L 162.0 181.0 L 163.0 180.5 L 167.0 179.0 L 173.5 176.0 L 183.0 172.5 L 192.5 171.0 L 196.0 171.0 " stroke="black" fill="none" stroke-width="7.0" stroke-linecap="round" stroke-linejoin="round" />
</svg>