<svg xmlns="http://www.w3.org/2000/svg" width="300" height="300" viewBox="0 0 300 300">
<path d="M 120.5 107.0 L 119.5 108.0 L 118.0 108.0 L 117.0 108.0 L 117.5 108.0 L 119.5 107.5 L 123.5 106.0 L 128.0 104.0 L 132.5 102.5 L 136.5 101.0 L 137.0 104.0 L 134.5 108.0 L 132.0 113.0 L 130.0 117.0 L 129.5 120.0 L 129.5 122.0 L 131.0 124.0 L 132.5 127.0 L 134.5 132.0 L 135.5 138.0 L 136.0 143.5 L 136.0 148.5 L 134.5 152.0 L 131.5 154.5 L 128.0 155.0 L 124.5 153.0 L 120.5 148.5 L 117.5 142.5 " stroke="black" fill="none" stroke-width="7.0" stroke-linecap="round" stroke-linejoin="round" />
<path d="M 112.5 120.5 L 112.5 120.0 L 112.0 120.0 L 112.0 120.0 L 113.5 125.5 L 116.0 139.5 L 117.5 159.5 L 117.5 176.0 L 116.5 189.0 L 115.5 196.5 L 115.0 198.0 " stroke="black" fill="none" stroke-width="7.0" stroke-linecap="round" stroke-linejoin="round" />
<path d="M 165.5 89.5 L 166.0 88.0 L 166.5 87.5 L 166.5 89.5 L 164.0 95.5 L 159.0 104.0 L 152.5 114.0 L 148.0 121.0 L 146.0 122.0 L 146.0 122.0 " stroke="black" fill="none" stroke-width="7.0" stroke-linecap="round" stroke-linejoin="round" />
<path d="M 163.5 101.0 L 165.5 101.0 L 168.0 101.0 L 171.0 101.0 L 174.0 101.5 L 176.0 101.5 " stroke="black" fill="none" stroke-width="7.0" stroke-linecap="round" stroke-linejoin="round" />
<path d="M 159.0 121.0 L 158.0 122.0 L 158.0 122.5 L 161.0 122.0 L 166.0 120.0 L 170.5 117.0 L 174.5 114.5 " stroke="black" fill="none" stroke-width="7.0" stroke-linecap="round" stroke-linejoin="round" />
<path d="M 156.5 134.5 L 156.5 134.5 L 155.5 136.0 L 156.0 136.5 L 158.5 136.0 L 162.5 134.5 L 167.5 131.5 L 171.5 129.5 L 173.5 128.5 L 173.5 130.5 L 171.0 137.0 L 167.0 144.0 L 166.0 145.5 " stroke="black" fill="none" stroke-width="7.0" stroke-linecap="round" stroke-linejoin="round" />
<path d="M 150.0 156.0 L 149.5 156.0 L 148.0 156.0 L 147.5 156.0 L 147.0 156.0 L 149.5 156.0 L 155.0 153.5 L 163.5 150.0 L 172.0 146.0 L 175.5 145.0 L 175.0 146.0 L 174.5 147.0 " stroke="black" fill="none" stroke-width="7.0" stroke-linecap="round" stroke-linejoin="round" />
<path d="M 147.0 169.5 L 146.5 170.0 L 144.5 171.5 L 143.5 172.0 L 144.0 172.5 L 147.0 172.0 L 152.0 170.0 L 158.5 167.0 L 166.5 163.0 L 173.5 159.5 L 176.0 158.5 " stroke="black" fill="none" stroke-width="7.0" stroke-linecap="round" stroke-linejoin="round" />
<path d="M 161.0 169.0 L 160.5 169.5 L 158.5 171.0 L 157.5 173.5 L 156.0 178.0 L 154.0 182.5 L 152.0 187.5 L 149.5 192.0 L 147.0 195.5 L 145.0 197.0 L 145.0 197.5 L 145.0 197.5 L 147.0 195.5 L 150.5 193.0 L 154.5 190.5 L 159.5 188.5 L 166.5 186.5 L 172.0 185.0 L 175.0 184.0 " stroke="black" fill="none" stroke-width="7.0" stroke-linecap="round" stroke-linejoin="round" />
<path d="M 175.5 176.0 L 176.0 176.0 L 176.0 176.0 L 177.5 178.5 L 180.0 185.5 L 181.5 195.0 L 182.5 204.0 " stroke="black" fill="none" stroke-width="7.0" stroke-linecap="round" stroke-linejoin="round" />
</svg>