<svg xmlns="http://www.w3.org/2000/svg" width="300" height="300" viewBox="0 0 300 300">
<path d="M 117.0 114.0 L 114.5 115.5 L 113.5 116.0 L 114.5 116.0 L 119.5 114.5 L 126.0 111.0 L 133.0 106.5 L 138.5 103.5 L 140.0 102.5 " stroke="black" fill="none" stroke-width="7.0" stroke-linecap="round" stroke-linejoin="round" />
<path d="M 116.5 125.5 L 116.0 126.5 L 115.5 129.0 L 115.5 134.0 L 114.5 141.5 L 113.0 147.0 L 112.0 150.5 L 111.0 152.0 L 110.5 152.5 L 111.0 152.5 L 113.0 151.5 L 117.0 149.5 L 122.0 146.0 L 128.5 141.5 L 134.5 137.0 L 141.0 133.5 L 143.5 132.0 " stroke="black" fill="none" stroke-width="7.0" stroke-linecap="round" stroke-linejoin="round" />
<path d="M 133.5 113.0 L 133.5 115.0 L 133.5 120.0 L 133.5 132.0 L 134.5 149.5 L 134.5 169.0 L 134.5 184.5 L 133.5 193.0 L 132.5 198.5 L 130.5 200.0 L 128.5 197.5 L 126.0 191.0 L 124.5 185.0 " stroke="black" fill="none" stroke-width="7.0" stroke-linecap="round" stroke-linejoin="round" />
<path d="M 135.0 139.0 L 135.0 139.0 L 135.0 137.5 L 134.0 137.0 L 132.5 141.0 L 129.5 149.0 L 124.0 162.5 L 114.5 177.5 L 106.0 188.5 L 103.0 191.5 " stroke="black" fill="none" stroke-width="7.0" stroke-linecap="round" stroke-linejoin="round" />
<path d="M 162.5 103.0 L 163.0 101.5 L 163.5 101.0 L 163.5 102.5 L 161.0 109.0 L 155.5 121.0 L 149.0 136.5 L 142.5 148.0 L 138.5 152.5 " stroke="black" fill="none" stroke-width="7.0" stroke-linecap="round" stroke-linejoin="round" />
<path d="M 150.0 137.0 L 151.0 136.0 L 151.5 136.0 L 152.0 140.5 L 152.0 149.5 L 152.0 165.0 L 151.5 183.0 L 151.0 195.5 L 150.5 203.5 L 150.5 206.0 " stroke="black" fill="none" stroke-width="7.0" stroke-linecap="round" stroke-linejoin="round" />
<path d="M 169.5 113.0 L 167.5 114.0 L 167.0 114.5 L 167.5 116.0 L 170.0 116.5 L 172.5 116.5 L 173.5 117.5 " stroke="black" fill="none" stroke-width="7.0" stroke-linecap="round" stroke-linejoin="round" />
<path d="M 161.5 134.0 L 161.0 134.5 L 159.5 136.0 L 160.5 136.0 L 164.0 134.5 L 168.5 131.0 L 173.0 127.5 L 176.5 124.5 L 178.0 123.5 " stroke="black" fill="none" stroke-width="7.0" stroke-linecap="round" stroke-linejoin="round" />
<path d="M 162.5 149.5 L 161.5 150.5 L 161.0 151.0 L 163.5 151.0 L 168.5 148.5 L 173.0 144.5 L 177.0 141.0 L 178.0 140.5 " stroke="black" fill="none" stroke-width="7.0" stroke-linecap="round" stroke-linejoin="round" />
<path d="M 162.5 165.0 L 161.0 166.5 L 160.5 167.5 L 162.5 166.5 L 167.5 163.5 L 172.0 159.5 L 177.0 155.0 L 178.0 154.0 " stroke="black" fill="none" stroke-width="7.0" stroke-linecap="round" stroke-linejoin="round" />
<path d="M 173.0 131.5 L 172.5 134.0 L 172.0 139.5 L 172.0 149.0 L 172.0 160.5 L 171.5 170.0 L 171.5 176.0 L 171.5 177.5 " stroke="black" fill="none" stroke-width="7.0" stroke-linecap="round" stroke-linejoin="round" />
<path d="M 154.5 184.5 L 153.0 185.0 L 152.0 185.5 L 152.0 185.5 L 154.0 185.0 L 160.0 183.0 L 168.5 179.5 L 180.0 175.5 L 191.0 174.0 L 196.5 174.5 " stroke="black" fill="none" stroke-width="7.0" stroke-linecap="round" stroke-linejoin="round" />
</svg>