<svg xmlns="http://www.w3.org/2000/svg" width="300" height="300" viewBox="0 0 300 300">
<path d="M 123.0 100.0 L 122.0 100.0 L 120.5 100.0 L 120.0 100.0 L 119.5 100.0 L 121.0 100.0 L 123.0 100.0 L 127.5 99.0 L 131.0 98.0 L 134.0 98.0 L 135.5 99.0 L 135.0 102.5 L 132.5 107.5 L 129.5 113.5 L 127.5 118.5 L 127.0 121.0 L 127.0 123.0 L 128.5 124.5 L 130.0 126.5 L 132.0 130.5 L 133.5 137.0 L 135.0 148.0 L 134.0 152.0 L 132.0 154.5 L 129.5 155.5 L 126.0 154.5 L 122.0 151.5 L 119.5 148.5 " stroke="black" fill="none" stroke-width="7.0" stroke-linecap="round" stroke-linejoin="round" />
<path d="M 110.0 115.5 L 110.0 115.5 L 110.0 115.5 L 110.0 118.0 L 110.5 124.5 L 113.5 147.0 L 114.5 168.5 L 113.5 186.5 L 112.5 199.0 L 112.0 207.0 L 112.0 210.0 L 112.0 210.5 " stroke="black" fill="none" stroke-width="7.0" stroke-linecap="round" stroke-linejoin="round" />
<path d="M 172.0 89.0 L 172.5 89.0 L 172.5 89.0 L 173.0 89.5 L 173.0 90.0 L 169.5 93.5 L 161.5 99.0 L 151.5 105.0 " stroke="black" fill="none" stroke-width="7.0" stroke-linecap="round" stroke-linejoin="round" />
<path d="M 147.0 117.5 L 147.0 117.5 L 146.5 117.5 L 147.0 117.0 L 149.0 118.0 L 151.5 120.0 L 155.0 122.0 L 155.5 122.5 " stroke="black" fill="none" stroke-width="7.0" stroke-linecap="round" stroke-linejoin="round" />
<path d="M 160.0 110.0 L 160.0 110.0 L 160.0 110.5 L 160.5 111.5 L 162.5 113.5 L 164.5 114.5 " stroke="black" fill="none" stroke-width="7.0" stroke-linecap="round" stroke-linejoin="round" />
<path d="M 177.0 105.0 L 177.0 105.5 L 177.0 106.0 L 177.0 108.0 L 176.0 113.0 " stroke="black" fill="none" stroke-width="7.0" stroke-linecap="round" stroke-linejoin="round" />
<path d="M 148.5 139.5 L 147.0 139.5 L 146.0 139.5 L 146.0 139.5 L 149.0 139.0 L 154.0 136.0 L 161.5 132.0 L 168.5 129.0 L 171.0 128.0 " stroke="black" fill="none" stroke-width="7.0" stroke-linecap="round" stroke-linejoin="round" />
<path d="M 162.0 133.0 L 161.5 134.0 L 161.5 136.5 L 161.5 140.5 L 161.5 145.5 " stroke="black" fill="none" stroke-width="7.0" stroke-linecap="round" stroke-linejoin="round" />
<path d="M 148.5 152.0 L 148.0 152.0 L 146.0 152.5 L 145.5 152.5 L 145.5 152.5 L 148.0 152.0 L 153.0 150.5 L 160.0 148.5 L 169.0 145.5 L 175.0 143.0 L 177.0 142.5 " stroke="black" fill="none" stroke-width="7.0" stroke-linecap="round" stroke-linejoin="round" />
<path d="M 145.5 166.0 L 144.5 166.0 L 144.5 166.0 L 144.5 166.0 L 146.5 165.5 L 150.5 164.0 L 157.5 161.0 L 167.5 157.5 L 173.5 154.5 L 176.0 154.0 L 176.0 155.5 L 175.0 160.0 L 173.5 166.0 L 172.0 171.5 L 172.0 175.5 " stroke="black" fill="none" stroke-width="7.0" stroke-linecap="round" stroke-linejoin="round" />
<path d="M 133.0 178.5 L 132.5 179.0 L 131.0 179.0 L 131.0 179.0 L 133.0 179.0 L 139.0 177.5 L 147.5 174.5 L 158.0 171.5 L 169.5 168.0 L 177.0 166.5 L 181.0 166.0 L 183.0 165.5 L 183.0 166.5 L 182.5 167.0 " stroke="black" fill="none" stroke-width="7.0" stroke-linecap="round" stroke-linejoin="round" />
<path d="M 144.5 187.5 L 144.0 187.5 L 141.5 187.5 L 141.0 187.5 L 142.0 187.5 L 145.5 187.0 L 151.5 184.5 L 159.5 182.0 L 169.0 179.5 L 172.0 179.5 " stroke="black" fill="none" stroke-width="7.0" stroke-linecap="round" stroke-linejoin="round" />
<path d="M 134.5 194.5 L 134.5 194.5 L 134.5 195.5 L 134.0 197.5 L 133.0 201.5 L 130.5 207.5 L 128.5 212.5 L 128.0 213.0 " stroke="black" fill="none" stroke-width="7.0" stroke-linecap="round" stroke-linejoin="round" />
<path d="M 144.0 204.5 L 144.0 204.5 L 144.0 204.0 L 145.0 204.5 L 148.5 206.5 L 153.5 209.5 L 161.5 212.5 L 169.5 214.0 L 174.5 214.0 L 177.5 213.0 L 179.5 211.5 L 180.0 208.5 L 180.0 204.5 L 179.0 199.5 " stroke="black" fill="none" stroke-width="7.0" stroke-linecap="round" stroke-linejoin="round" />
<path d="M 160.5 195.5 L 160.5 195.5 L 160.0 195.5 L 160.5 196.5 L 164.0 198.0 L 167.5 199.5 " stroke="black" fill="none" stroke-width="7.0" stroke-linecap="round" stroke-linejoin="round" />
<path d="M 187.5 187.5 L 188.5 188.0 L 190.5 190.0 L 194.0 194.5 L 197.0 200.0 L 198.5 202.5 " stroke="black" fill="none" stroke-width="7.0" stroke-linecap="round" stroke-linejoin="round" />
</svg>