<svg xmlns="http://www.w3.org/2000/svg" width="300" height="300" viewBox="0 0 300 300">
<path d="M 137.0 107.5 L 134.5 108.0 L 133.5 108.0 L 133.5 108.0 L 135.0 108.0 L 141.0 108.0 L 147.5 106.0 L 153.5 104.0 L 158.0 103.0 L 159.0 103.0 " stroke="black" fill="none" stroke-width="7.0" stroke-linecap="round" stroke-linejoin="round" />
<path d="M 111.0 138.5 L 111.0 139.0 L 111.0 141.0 L 112.5 147.5 L 114.5 158.5 L 115.5 169.5 L 116.0 177.0 L 116.5 181.0 L 117.0 182.0 L 117.5 181.5 " stroke="black" fill="none" stroke-width="7.0" stroke-linecap="round" stroke-linejoin="round" />
<path d="M 121.0 146.5 L 122.0 145.0 L 123.5 143.0 L 126.5 141.5 L 131.5 140.0 L 139.0 138.0 L 149.0 135.0 L 157.0 132.0 L 164.5 130.5 L 170.0 130.0 L 173.5 131.5 L 175.5 134.0 L 177.5 138.0 L 179.5 144.5 L 180.5 153.0 L 181.0 163.5 L 180.5 173.0 L 179.5 181.0 L 177.5 187.5 L 175.5 191.0 L 173.0 192.0 L 170.0 190.5 L 169.0 189.5 " stroke="black" fill="none" stroke-width="7.0" stroke-linecap="round" stroke-linejoin="round" />
<path d="M 147.0 116.0 L 146.0 115.0 L 145.5 114.5 L 145.5 116.5 L 146.5 125.0 L 148.5 142.5 L 149.5 162.5 L 149.5 177.5 L 149.5 186.0 L 149.0 189.0 L 149.0 189.5 " stroke="black" fill="none" stroke-width="7.0" stroke-linecap="round" stroke-linejoin="round" />
<path d="M 133.0 157.5 L 132.5 158.0 L 131.0 158.0 L 130.5 158.0 L 131.0 158.0 L 133.0 158.0 L 134.5 158.0 L 135.0 159.5 " stroke="black" fill="none" stroke-width="7.0" stroke-linecap="round" stroke-linejoin="round" />
<path d="M 130.0 168.5 L 129.5 170.0 L 129.5 170.5 L 129.5 171.0 L 131.0 170.0 L 134.5 168.0 L 139.0 165.0 L 143.0 163.0 " stroke="black" fill="none" stroke-width="7.0" stroke-linecap="round" stroke-linejoin="round" />
<path d="M 167.5 145.5 L 167.5 145.5 L 167.5 145.5 L 167.0 145.5 L 167.0 146.0 L 166.5 148.0 L 165.0 151.0 " stroke="black" fill="none" stroke-width="7.0" stroke-linecap="round" stroke-linejoin="round" />
<path d="M 161.0 158.5 L 161.0 159.0 L 160.0 161.0 L 160.0 162.5 L 162.5 164.0 L 166.5 166.0 L 171.0 168.0 L 174.0 170.0 L 175.5 171.0 " stroke="black" fill="none" stroke-width="7.0" stroke-linecap="round" stroke-linejoin="round" />
</svg>