<svg xmlns="http://www.w3.org/2000/svg" width="300" height="300" viewBox="0 0 300 300">
<path d="M 111.0 117.5 L 110.0 118.0 L 107.5 119.0 L 106.0 120.0 L 105.5 121.0 L 106.5 121.0 L 111.0 119.5 L 119.5 115.5 L 129.0 109.0 L 139.0 103.0 L 145.0 100.0 L 147.5 99.0 L 147.5 99.0 " stroke="black" fill="none" stroke-width="7.0" stroke-linecap="round" stroke-linejoin="round" />
<path d="M 116.5 94.0 L 116.0 94.5 L 115.5 97.0 L 116.5 104.5 L 118.0 117.5 L 118.5 128.0 L 119.5 134.0 L 120.5 135.0 " stroke="black" fill="none" stroke-width="7.0" stroke-linecap="round" stroke-linejoin="round" />
<path d="M 132.0 86.0 L 132.0 86.0 L 132.5 87.0 L 133.0 91.0 L 133.5 100.5 L 134.5 112.5 L 134.5 122.5 L 134.5 128.5 " stroke="black" fill="none" stroke-width="7.0" stroke-linecap="round" stroke-linejoin="round" />
<path d="M 124.0 138.5 L 123.5 139.0 L 122.0 139.5 L 122.5 140.0 L 125.5 139.0 L 130.0 136.0 L 134.0 134.0 " stroke="black" fill="none" stroke-width="7.0" stroke-linecap="round" stroke-linejoin="round" />
<path d="M 111.5 158.0 L 111.5 158.0 L 111.0 158.5 L 111.0 159.0 L 112.0 161.0 L 115.5 163.5 L 119.0 166.0 L 122.0 167.0 " stroke="black" fill="none" stroke-width="7.0" stroke-linecap="round" stroke-linejoin="round" />
<path d="M 117.0 159.5 L 117.0 159.5 L 117.0 158.5 L 118.5 157.0 L 122.0 155.5 L 128.0 152.0 L 134.5 148.0 L 140.0 145.0 L 143.5 144.0 L 144.0 145.5 L 143.0 148.5 L 140.5 152.5 L 136.5 157.0 " stroke="black" fill="none" stroke-width="7.0" stroke-linecap="round" stroke-linejoin="round" />
<path d="M 126.0 165.5 L 123.5 167.5 L 121.5 168.5 L 121.5 168.5 L 124.0 168.0 L 128.0 165.5 L 132.5 162.0 L 137.5 159.5 L 141.0 158.0 L 141.5 158.0 " stroke="black" fill="none" stroke-width="7.0" stroke-linecap="round" stroke-linejoin="round" />
<path d="M 108.0 190.5 L 107.0 192.0 L 105.5 194.0 L 106.0 194.5 L 109.0 193.0 L 116.5 188.5 L 127.5 181.5 L 139.0 173.5 L 148.5 168.0 L 152.0 167.0 L 152.5 167.0 " stroke="black" fill="none" stroke-width="7.0" stroke-linecap="round" stroke-linejoin="round" />
<path d="M 127.0 141.0 L 126.5 140.0 L 126.0 138.0 L 126.0 137.0 L 126.5 140.0 L 128.0 150.5 L 129.5 170.5 L 130.5 194.5 L 130.5 207.0 L 130.5 210.0 " stroke="black" fill="none" stroke-width="7.0" stroke-linecap="round" stroke-linejoin="round" />
<path d="M 164.5 98.5 L 164.5 98.0 L 164.5 96.5 L 164.5 96.0 L 164.5 99.0 L 163.0 105.5 L 160.5 114.5 L 157.5 123.5 L 156.5 126.5 " stroke="black" fill="none" stroke-width="7.0" stroke-linecap="round" stroke-linejoin="round" />
<path d="M 159.0 119.5 L 161.0 117.5 L 164.5 115.0 L 168.5 113.0 L 172.0 111.5 L 175.0 110.0 L 178.0 109.5 L 180.5 109.5 L 183.0 111.0 L 185.0 113.0 L 186.0 116.5 L 187.0 123.0 L 188.0 133.0 L 189.0 146.5 L 189.0 161.5 L 189.0 174.0 L 188.5 184.5 L 187.5 193.0 L 185.5 199.5 L 183.0 203.0 L 180.0 204.0 L 176.5 201.0 L 174.0 194.5 L 173.0 192.5 " stroke="black" fill="none" stroke-width="7.0" stroke-linecap="round" stroke-linejoin="round" />
<path d="M 157.5 145.5 L 156.5 146.5 L 156.0 146.5 L 157.0 147.0 L 159.5 147.5 L 160.0 147.5 " stroke="black" fill="none" stroke-width="7.0" stroke-linecap="round" stroke-linejoin="round" />
<path d="M 171.5 139.0 L 171.5 139.5 L 171.5 140.5 L 171.0 142.0 L 170.5 144.5 L 169.0 148.5 L 166.0 154.5 L 163.5 157.5 " stroke="black" fill="none" stroke-width="7.0" stroke-linecap="round" stroke-linejoin="round" />
<path d="M 152.5 162.5 L 151.0 164.0 L 150.0 164.5 L 150.0 164.5 L 152.5 164.5 L 158.5 161.5 L 166.5 156.5 L 174.0 151.0 L 178.0 147.5 L 178.0 146.5 " stroke="black" fill="none" stroke-width="7.0" stroke-linecap="round" stroke-linejoin="round" />
<path d="M 161.0 129.0 L 161.0 129.5 L 161.0 131.0 L 161.5 137.5 L 163.5 152.0 L 165.0 169.5 L 165.0 182.0 L 165.0 189.0 L 165.0 191.5 " stroke="black" fill="none" stroke-width="7.0" stroke-linecap="round" stroke-linejoin="round" />
<path d="M 164.5 161.5 L 164.5 161.5 L 164.5 160.0 L 164.0 160.0 L 162.0 161.5 L 159.0 166.5 L 155.0 172.5 L 151.0 179.5 L 148.5 183.0 L 148.5 183.0 " stroke="black" fill="none" stroke-width="7.0" stroke-linecap="round" stroke-linejoin="round" />
<path d="M 164.0 162.0 L 166.0 162.5 L 169.5 164.5 L 173.5 169.0 L 177.0 174.5 L 180.5 179.0 L 182.5 181.0 " stroke="black" fill="none" stroke-width="7.0" stroke-linecap="round" stroke-linejoin="round" />
</svg>