<svg xmlns="http://www.w3.org/2000/svg" width="300" height="300" viewBox="0 0 300 300">
<path d="M 138.0 91.0 L 135.5 91.5 L 134.5 91.5 L 134.5 91.5 L 138.0 91.0 L 144.5 89.5 L 151.0 87.0 L 155.5 85.5 L 158.5 85.0 L 159.0 86.0 L 158.5 86.5 " stroke="black" fill="none" stroke-width="7.0" stroke-linecap="round" stroke-linejoin="round" />
<path d="M 107.5 110.5 L 107.5 111.0 L 107.0 112.0 L 107.0 114.0 L 108.5 117.5 L 111.5 122.0 L 114.5 125.5 L 116.5 128.0 L 117.5 128.0 " stroke="black" fill="none" stroke-width="7.0" stroke-linecap="round" stroke-linejoin="round" />
<path d="M 114.5 117.0 L 114.5 117.0 L 114.5 116.5 L 115.5 115.0 L 119.5 113.5 L 126.0 112.0 L 135.5 110.0 L 147.5 108.0 L 157.5 105.5 L 168.5 103.0 L 175.0 101.0 L 179.5 101.0 L 182.0 101.0 L 183.0 103.0 L 182.5 106.5 L 179.5 112.5 L 176.0 119.5 L 173.5 123.5 " stroke="black" fill="none" stroke-width="7.0" stroke-linecap="round" stroke-linejoin="round" />
<path d="M 149.5 91.0 L 149.5 91.0 L 149.0 91.0 L 148.5 92.5 L 148.5 100.0 L 150.0 112.0 L 150.0 124.0 L 150.0 132.0 L 150.0 136.5 L 150.0 137.5 " stroke="black" fill="none" stroke-width="7.0" stroke-linecap="round" stroke-linejoin="round" />
<path d="M 131.0 123.0 L 130.5 123.5 L 129.5 124.0 L 130.0 124.0 L 131.5 124.0 L 133.5 124.0 " stroke="black" fill="none" stroke-width="7.0" stroke-linecap="round" stroke-linejoin="round" />
<path d="M 131.5 130.0 L 131.0 130.5 L 129.5 132.0 L 129.0 132.5 L 129.0 132.5 L 131.0 132.0 L 134.5 130.0 L 137.0 128.5 " stroke="black" fill="none" stroke-width="7.0" stroke-linecap="round" stroke-linejoin="round" />
<path d="M 160.5 111.5 L 161.0 111.0 L 162.5 110.5 L 163.5 111.0 L 163.0 113.5 L 161.0 116.0 L 160.5 116.5 " stroke="black" fill="none" stroke-width="7.0" stroke-linecap="round" stroke-linejoin="round" />
<path d="M 155.0 122.0 L 155.0 122.5 L 155.0 123.5 L 156.0 124.0 L 158.5 125.0 L 162.5 126.0 L 164.0 127.0 " stroke="black" fill="none" stroke-width="7.0" stroke-linecap="round" stroke-linejoin="round" />
<path d="M 120.0 155.0 L 119.5 155.0 L 118.5 155.5 L 118.0 156.5 L 120.0 158.5 L 122.5 160.5 L 125.0 162.5 L 126.5 163.5 " stroke="black" fill="none" stroke-width="7.0" stroke-linecap="round" stroke-linejoin="round" />
<path d="M 123.5 153.5 L 123.5 153.0 L 124.0 152.5 L 125.5 151.5 L 128.0 150.5 L 132.5 148.5 L 138.0 146.5 L 142.5 145.5 L 144.5 145.5 L 144.0 148.0 L 141.5 152.5 L 138.0 157.0 L 134.0 161.0 L 130.5 163.5 L 129.5 164.5 L 129.5 164.5 L 131.0 163.5 L 133.5 162.0 L 136.5 160.0 L 138.0 159.5 L 138.5 159.5 L 138.0 162.0 L 136.0 166.5 L 135.5 172.0 L 135.5 179.0 L 136.5 185.5 L 137.5 187.5 " stroke="black" fill="none" stroke-width="7.0" stroke-linecap="round" stroke-linejoin="round" />
<path d="M 138.5 180.5 L 140.5 178.5 L 143.5 176.0 L 146.0 174.5 L 147.5 173.0 " stroke="black" fill="none" stroke-width="7.0" stroke-linecap="round" stroke-linejoin="round" />
<path d="M 125.5 178.0 L 125.5 178.5 L 125.0 181.5 L 125.0 185.5 L 125.0 191.5 L 124.5 198.0 L 123.5 200.5 " stroke="black" fill="none" stroke-width="7.0" stroke-linecap="round" stroke-linejoin="round" />
<path d="M 118.5 205.0 L 118.5 205.0 L 117.5 205.5 L 117.5 205.5 L 121.5 204.5 L 127.5 201.5 L 135.5 196.5 L 145.0 192.5 L 151.0 189.5 " stroke="black" fill="none" stroke-width="7.0" stroke-linecap="round" stroke-linejoin="round" />
<path d="M 167.5 139.5 L 167.5 138.5 L 167.5 138.0 L 167.5 138.5 L 166.5 142.0 L 165.0 146.5 L 163.0 150.5 L 161.5 152.5 L 160.5 154.0 L 161.5 153.5 L 165.0 151.5 L 169.0 149.0 L 173.0 146.5 L 175.5 145.5 L 176.5 145.0 L 176.5 146.5 L 175.0 150.0 L 173.0 154.5 L 170.5 160.5 L 166.5 167.5 L 161.0 174.5 L 155.0 181.0 L 151.0 184.5 L 149.5 185.0 " stroke="black" fill="none" stroke-width="7.0" stroke-linecap="round" stroke-linejoin="round" />
<path d="M 156.5 164.5 L 156.5 164.5 L 159.0 164.0 L 163.0 164.0 L 168.5 166.0 L 174.0 168.0 L 179.5 169.5 L 184.0 171.0 L 186.5 172.0 L 186.5 173.0 " stroke="black" fill="none" stroke-width="7.0" stroke-linecap="round" stroke-linejoin="round" />
<path d="M 160.5 187.0 L 160.0 187.0 L 159.5 186.5 L 159.5 186.5 L 159.5 188.5 L 160.5 191.5 L 161.5 195.5 L 162.5 198.5 L 163.0 199.5 " stroke="black" fill="none" stroke-width="7.0" stroke-linecap="round" stroke-linejoin="round" />
<path d="M 163.0 188.0 L 162.5 187.0 L 162.0 185.5 L 162.0 184.5 L 164.0 184.0 L 167.5 183.0 L 171.0 182.5 L 175.0 182.0 L 177.5 181.5 L 178.5 183.5 L 178.5 187.0 L 177.0 190.5 L 175.5 194.0 L 173.0 197.5 L 171.0 200.0 L 168.0 202.0 L 166.0 203.0 L 166.0 203.0 L 167.0 202.5 L 170.5 201.0 L 174.5 199.0 L 177.0 198.0 " stroke="black" fill="none" stroke-width="7.0" stroke-linecap="round" stroke-linejoin="round" />
</svg>