<svg xmlns="http://www.w3.org/2000/svg" width="300" height="300" viewBox="0 0 300 300">
<path d="M 135.5 89.5 L 135.0 89.5 L 134.0 90.0 L 134.0 90.5 L 135.0 90.5 L 139.5 89.5 L 146.5 87.0 L 153.5 84.0 L 158.5 82.0 L 160.0 81.5 " stroke="black" fill="none" stroke-width="7.0" stroke-linecap="round" stroke-linejoin="round" />
<path d="M 111.5 115.5 L 111.5 115.5 L 111.5 115.5 L 111.5 116.5 L 113.5 118.5 L 116.0 121.0 L 118.5 123.5 L 119.5 124.5 " stroke="black" fill="none" stroke-width="7.0" stroke-linecap="round" stroke-linejoin="round" />
<path d="M 115.5 115.5 L 116.0 115.0 L 117.0 114.0 L 120.5 113.0 L 127.5 111.0 L 138.0 107.5 L 150.5 103.0 L 161.0 99.5 L 170.5 97.5 L 176.0 97.0 L 180.5 97.5 L 183.0 99.5 L 183.5 103.0 L 182.0 107.5 L 178.5 113.5 L 175.0 119.0 L 173.5 120.5 " stroke="black" fill="none" stroke-width="7.0" stroke-linecap="round" stroke-linejoin="round" />
<path d="M 149.0 90.5 L 149.0 90.5 L 148.0 91.5 L 148.0 95.5 L 149.0 104.5 L 149.5 116.5 L 150.0 125.0 L 150.0 129.5 L 150.0 130.0 " stroke="black" fill="none" stroke-width="7.0" stroke-linecap="round" stroke-linejoin="round" />
<path d="M 135.0 118.0 L 133.5 118.5 L 132.5 118.5 L 132.0 118.5 L 133.0 119.0 L 135.0 119.0 L 136.5 119.0 " stroke="black" fill="none" stroke-width="7.0" stroke-linecap="round" stroke-linejoin="round" />
<path d="M 132.0 127.5 L 132.0 127.5 L 131.5 128.0 L 131.5 128.5 L 132.0 128.5 L 134.5 128.0 L 138.0 127.0 " stroke="black" fill="none" stroke-width="7.0" stroke-linecap="round" stroke-linejoin="round" />
<path d="M 163.5 108.5 L 163.5 108.5 L 163.5 108.5 L 163.0 108.5 L 162.5 110.0 L 160.5 113.5 " stroke="black" fill="none" stroke-width="7.0" stroke-linecap="round" stroke-linejoin="round" />
<path d="M 158.0 122.0 L 158.0 122.0 L 156.5 122.0 L 155.5 121.5 L 155.5 121.5 L 158.0 122.5 L 161.5 123.5 L 164.5 124.5 " stroke="black" fill="none" stroke-width="7.0" stroke-linecap="round" stroke-linejoin="round" />
<path d="M 122.5 161.0 L 120.0 162.5 L 118.0 163.0 L 118.0 163.5 L 120.5 163.0 L 125.5 160.0 L 131.0 156.0 L 137.0 151.0 L 142.0 146.5 L 143.5 144.5 " stroke="black" fill="none" stroke-width="7.0" stroke-linecap="round" stroke-linejoin="round" />
<path d="M 133.0 137.0 L 132.5 138.0 L 132.0 141.0 L 132.0 149.0 L 133.0 164.0 L 133.5 181.0 L 133.5 192.5 L 133.0 197.5 L 132.0 198.5 L 131.0 195.0 L 130.5 193.5 " stroke="black" fill="none" stroke-width="7.0" stroke-linecap="round" stroke-linejoin="round" />
<path d="M 128.0 164.5 L 128.0 162.0 L 128.0 159.5 L 128.0 159.5 L 127.0 162.5 L 125.5 168.0 L 122.5 175.0 L 118.5 182.5 L 115.0 187.0 L 113.0 188.5 " stroke="black" fill="none" stroke-width="7.0" stroke-linecap="round" stroke-linejoin="round" />
<path d="M 128.5 164.5 L 129.0 164.5 L 131.5 167.0 L 134.5 172.0 L 139.5 179.5 L 144.5 184.5 L 147.5 185.5 " stroke="black" fill="none" stroke-width="7.0" stroke-linecap="round" stroke-linejoin="round" />
<path d="M 148.5 147.5 L 148.5 147.5 L 148.5 148.5 L 149.0 155.5 L 150.0 168.0 L 150.0 182.0 L 150.0 190.0 L 150.0 193.0 L 150.5 193.0 " stroke="black" fill="none" stroke-width="7.0" stroke-linecap="round" stroke-linejoin="round" />
<path d="M 153.5 145.0 L 153.5 145.0 L 153.0 145.0 L 153.0 145.0 L 155.0 144.0 L 158.5 142.5 L 162.5 141.0 L 165.5 140.0 L 169.5 139.5 L 171.0 140.0 L 171.5 141.5 L 172.0 144.5 L 172.0 149.0 L 172.5 157.5 L 172.5 168.5 L 172.5 180.5 L 172.5 191.0 L 172.0 197.5 L 170.5 200.5 L 169.5 200.5 L 168.5 196.0 " stroke="black" fill="none" stroke-width="7.0" stroke-linecap="round" stroke-linejoin="round" />
<path d="M 156.5 166.5 L 156.0 166.5 L 154.0 166.0 L 153.5 165.5 L 153.0 165.0 L 155.0 164.5 L 158.5 163.5 L 162.0 162.5 L 164.5 162.0 L 165.0 162.0 " stroke="black" fill="none" stroke-width="7.0" stroke-linecap="round" stroke-linejoin="round" />
<path d="M 154.5 177.0 L 154.0 178.5 L 154.0 180.0 L 155.5 180.5 L 158.5 180.0 L 162.0 179.0 L 165.5 178.0 L 166.5 178.0 " stroke="black" fill="none" stroke-width="7.0" stroke-linecap="round" stroke-linejoin="round" />
<path d="M 151.5 196.5 L 151.0 198.0 L 150.5 198.5 L 152.0 199.0 L 156.5 198.5 L 162.0 197.0 L 168.5 196.5 " stroke="black" fill="none" stroke-width="7.0" stroke-linecap="round" stroke-linejoin="round" />
</svg>