<svg xmlns="http://www.w3.org/2000/svg" width="300" height="300" viewBox="0 0 300 300">
<path d="M 133.0 79.0 L 132.0 79.0 L 131.0 79.0 L 129.5 79.0 L 129.5 79.0 L 130.0 79.0 L 134.0 79.0 L 141.0 78.5 L 150.0 77.5 L 159.5 75.5 L 167.0 75.0 L 170.0 75.5 " stroke="black" fill="none" stroke-width="7.0" stroke-linecap="round" stroke-linejoin="round" />
<path d="M 104.5 100.5 L 104.0 100.5 L 103.5 100.5 L 103.5 101.5 L 104.5 104.5 L 106.5 109.0 L 108.0 113.5 L 109.0 115.5 " stroke="black" fill="none" stroke-width="7.0" stroke-linecap="round" stroke-linejoin="round" />
<path d="M 108.0 102.0 L 108.0 102.0 L 108.0 101.5 L 108.5 101.0 L 111.5 100.5 L 119.0 99.5 L 129.0 98.0 L 140.0 95.0 L 151.5 92.5 L 160.0 90.5 L 170.0 89.0 L 177.0 88.0 L 182.5 88.0 L 187.5 89.5 L 189.5 92.5 L 190.0 96.5 L 187.5 101.5 L 184.0 107.0 L 179.5 112.0 L 176.0 115.0 " stroke="black" fill="none" stroke-width="7.0" stroke-linecap="round" stroke-linejoin="round" />
<path d="M 148.0 81.0 L 148.0 80.0 L 148.0 79.5 L 148.0 79.5 L 148.0 85.5 L 148.0 97.5 L 148.0 111.0 L 147.5 121.0 L 147.5 123.0 " stroke="black" fill="none" stroke-width="7.0" stroke-linecap="round" stroke-linejoin="round" />
<path d="M 128.0 109.0 L 127.5 109.5 L 126.5 109.5 L 126.5 109.5 L 126.5 109.5 L 128.5 109.0 L 131.0 108.5 L 132.0 108.5 " stroke="black" fill="none" stroke-width="7.0" stroke-linecap="round" stroke-linejoin="round" />
<path d="M 127.5 119.0 L 126.5 120.0 L 126.0 120.5 L 126.5 120.5 L 129.5 119.5 L 133.5 117.0 L 136.0 115.5 " stroke="black" fill="none" stroke-width="7.0" stroke-linecap="round" stroke-linejoin="round" />
<path d="M 162.0 98.0 L 162.0 98.0 L 162.5 98.0 L 162.5 99.0 L 160.5 102.0 L 160.0 102.5 " stroke="black" fill="none" stroke-width="7.0" stroke-linecap="round" stroke-linejoin="round" />
<path d="M 154.0 110.0 L 154.0 111.0 L 155.0 112.5 L 157.5 114.0 L 162.0 115.5 L 165.5 116.5 " stroke="black" fill="none" stroke-width="7.0" stroke-linecap="round" stroke-linejoin="round" />
<path d="M 106.0 140.0 L 106.0 140.0 L 105.5 140.5 L 105.5 141.5 L 106.5 143.0 L 108.0 145.5 L 109.0 148.0 L 109.5 149.5 " stroke="black" fill="none" stroke-width="7.0" stroke-linecap="round" stroke-linejoin="round" />
<path d="M 109.5 140.5 L 109.5 140.5 L 109.5 140.5 L 110.5 140.0 L 114.0 138.5 L 119.5 136.5 L 124.5 135.5 L 126.5 136.5 L 126.0 140.0 L 123.5 143.5 L 120.5 147.0 L 117.5 149.5 L 115.5 151.0 L 115.0 151.0 L 117.5 149.5 L 121.0 147.5 L 123.0 146.5 " stroke="black" fill="none" stroke-width="7.0" stroke-linecap="round" stroke-linejoin="round" />
<path d="M 137.0 138.5 L 138.0 141.0 L 139.5 143.0 L 141.0 145.0 L 141.5 146.0 " stroke="black" fill="none" stroke-width="7.0" stroke-linecap="round" stroke-linejoin="round" />
<path d="M 139.5 136.0 L 140.0 135.5 L 141.0 134.5 L 143.0 133.5 L 145.5 132.5 L 148.0 132.0 L 149.5 133.5 L 150.0 137.0 L 149.0 140.5 L 147.0 144.5 L 145.0 147.0 L 144.0 148.0 L 144.0 147.5 L 146.0 146.0 L 147.5 144.5 " stroke="black" fill="none" stroke-width="7.0" stroke-linecap="round" stroke-linejoin="round" />
<path d="M 162.0 131.0 L 162.5 131.5 L 163.5 133.5 L 164.5 137.0 L 165.5 140.0 L 166.5 141.5 L 166.5 141.5 " stroke="black" fill="none" stroke-width="7.0" stroke-linecap="round" stroke-linejoin="round" />
<path d="M 165.5 129.5 L 165.5 129.5 L 165.5 129.0 L 166.5 128.0 L 168.5 127.5 L 171.5 127.5 L 173.5 127.5 L 175.0 130.0 L 175.0 133.5 L 174.0 137.0 L 171.5 140.5 L 170.0 142.5 L 169.5 143.0 L 169.5 143.0 L 172.0 142.0 L 175.5 140.5 " stroke="black" fill="none" stroke-width="7.0" stroke-linecap="round" stroke-linejoin="round" />
<path d="M 124.0 163.5 L 122.0 163.5 L 120.5 163.5 L 119.0 163.5 L 118.5 164.0 L 118.5 164.5 L 122.0 165.0 L 128.0 165.0 L 136.0 163.5 L 147.5 160.5 L 157.5 157.5 L 165.0 156.0 L 168.0 156.5 L 168.5 158.0 " stroke="black" fill="none" stroke-width="7.0" stroke-linecap="round" stroke-linejoin="round" />
<path d="M 127.5 169.5 L 127.5 169.5 L 126.5 170.5 L 126.0 172.0 L 125.0 176.0 L 123.0 182.0 L 120.5 187.5 L 117.5 192.0 L 116.0 192.5 " stroke="black" fill="none" stroke-width="7.0" stroke-linecap="round" stroke-linejoin="round" />
<path d="M 128.5 179.5 L 130.5 180.5 L 132.5 181.5 L 135.5 183.5 L 140.5 184.5 L 145.0 184.5 " stroke="black" fill="none" stroke-width="7.0" stroke-linecap="round" stroke-linejoin="round" />
<path d="M 162.5 165.5 L 162.0 166.0 L 161.0 167.0 L 159.0 170.0 L 156.0 177.0 L 153.0 183.0 L 152.5 184.0 " stroke="black" fill="none" stroke-width="7.0" stroke-linecap="round" stroke-linejoin="round" />
<path d="M 158.0 176.5 L 160.5 176.0 L 164.0 175.5 L 168.0 175.5 L 171.0 176.5 L 171.5 177.0 " stroke="black" fill="none" stroke-width="7.0" stroke-linecap="round" stroke-linejoin="round" />
<path d="M 146.0 165.0 L 146.0 165.5 L 145.5 167.5 L 145.5 173.0 L 147.0 182.5 L 147.5 192.0 L 148.0 196.0 " stroke="black" fill="none" stroke-width="7.0" stroke-linecap="round" stroke-linejoin="round" />
<path d="M 108.0 208.5 L 107.5 208.5 L 106.5 209.0 L 106.0 209.0 L 106.5 209.0 L 111.0 209.0 L 121.5 207.5 L 134.5 204.5 L 150.5 201.5 L 164.0 199.5 L 173.5 199.5 L 179.0 200.5 L 184.0 203.0 L 185.0 203.5 " stroke="black" fill="none" stroke-width="7.0" stroke-linecap="round" stroke-linejoin="round" />
</svg>