<svg xmlns="http://www.w3.org/2000/svg" width="300" height="300" viewBox="0 0 300 300">
<path d="M 135.0 103.5 L 135.0 103.0 L 134.5 101.5 L 134.5 100.5 L 134.5 100.5 L 135.5 102.5 L 137.5 110.0 L 140.0 122.0 L 141.0 142.5 L 139.5 165.0 L 136.5 181.5 L 133.5 192.0 L 130.5 199.5 L 128.0 202.0 L 127.5 202.0 " stroke="black" fill="none" stroke-width="7.0" stroke-linecap="round" stroke-linejoin="round" />
<path d="M 124.5 131.5 L 124.0 132.0 L 122.5 132.5 L 122.0 132.5 L 123.0 132.5 L 126.0 131.0 L 129.5 128.5 L 133.5 126.0 L 135.0 125.0 " stroke="black" fill="none" stroke-width="7.0" stroke-linecap="round" stroke-linejoin="round" />
<path d="M 119.5 148.5 L 118.0 150.5 L 118.5 151.0 L 122.0 151.0 L 126.0 149.0 L 130.5 146.0 L 134.0 143.5 L 135.0 143.0 " stroke="black" fill="none" stroke-width="7.0" stroke-linecap="round" stroke-linejoin="round" />
<path d="M 113.0 174.0 L 110.5 176.5 L 110.0 177.5 L 113.5 177.0 L 121.0 172.5 L 129.5 165.5 L 138.0 159.5 " stroke="black" fill="none" stroke-width="7.0" stroke-linecap="round" stroke-linejoin="round" />
<path d="M 158.5 97.5 L 158.5 97.0 L 158.0 97.0 L 158.0 97.5 L 158.0 101.5 L 159.0 112.5 L 159.5 132.0 L 159.5 155.5 L 158.0 176.0 L 157.5 192.5 L 157.5 204.5 L 158.5 208.0 " stroke="black" fill="none" stroke-width="7.0" stroke-linecap="round" stroke-linejoin="round" />
<path d="M 165.5 124.5 L 164.5 124.5 L 163.0 124.0 L 162.5 124.0 L 163.0 123.5 L 166.0 123.5 L 170.0 122.5 L 174.5 121.0 L 178.5 119.5 L 181.0 118.5 " stroke="black" fill="none" stroke-width="7.0" stroke-linecap="round" stroke-linejoin="round" />
<path d="M 164.5 140.5 L 164.0 141.5 L 163.5 142.5 L 164.5 142.5 L 168.0 142.5 L 172.5 140.0 L 177.0 137.5 L 181.0 135.5 " stroke="black" fill="none" stroke-width="7.0" stroke-linecap="round" stroke-linejoin="round" />
<path d="M 160.0 166.5 L 158.0 166.5 L 157.0 166.5 L 157.0 166.5 L 160.5 166.5 L 167.0 165.0 L 174.5 163.5 L 183.0 161.5 L 188.5 160.5 " stroke="black" fill="none" stroke-width="7.0" stroke-linecap="round" stroke-linejoin="round" />
</svg>