<svg xmlns="http://www.w3.org/2000/svg" width="300" height="300" viewBox="0 0 300 300">
<path d="M 144.5 81.5 L 143.5 82.0 L 142.5 82.0 L 142.5 82.5 L 145.0 84.0 L 148.5 85.0 L 152.0 86.0 L 154.5 87.0 " stroke="black" fill="none" stroke-width="7.0" stroke-linecap="round" stroke-linejoin="round" />
<path d="M 128.5 105.5 L 127.0 106.5 L 125.5 107.0 L 125.0 107.5 L 125.5 107.5 L 129.0 107.5 L 136.0 104.5 L 147.0 99.5 L 159.0 93.0 L 168.5 88.0 L 170.5 87.0 L 170.5 87.0 " stroke="black" fill="none" stroke-width="7.0" stroke-linecap="round" stroke-linejoin="round" />
<path d="M 121.0 115.5 L 120.5 115.0 L 120.0 114.5 L 120.0 114.5 L 120.0 116.5 L 121.0 122.5 L 122.5 135.0 L 121.5 153.5 L 116.0 173.0 L 111.0 186.5 L 108.0 194.0 L 107.0 197.0 " stroke="black" fill="none" stroke-width="7.0" stroke-linecap="round" stroke-linejoin="round" />
<path d="M 133.0 131.5 L 131.0 132.5 L 131.0 133.0 L 134.0 132.5 L 139.5 129.5 L 146.0 125.5 L 150.0 122.5 " stroke="black" fill="none" stroke-width="7.0" stroke-linecap="round" stroke-linejoin="round" />
<path d="M 142.5 111.0 L 142.5 111.5 L 142.5 115.0 L 143.0 121.0 L 144.5 130.5 L 144.5 142.0 L 144.5 152.0 L 143.5 158.0 L 142.5 159.5 L 141.0 158.5 L 139.5 155.0 " stroke="black" fill="none" stroke-width="7.0" stroke-linecap="round" stroke-linejoin="round" />
<path d="M 137.0 135.5 L 137.0 135.0 L 137.0 134.0 L 137.0 136.0 L 135.5 140.5 L 132.5 146.5 L 130.0 151.5 L 128.5 153.0 " stroke="black" fill="none" stroke-width="7.0" stroke-linecap="round" stroke-linejoin="round" />
<path d="M 143.0 134.5 L 144.5 135.5 L 147.5 138.5 L 150.0 142.5 L 152.5 146.5 L 156.0 148.5 L 157.5 148.5 " stroke="black" fill="none" stroke-width="7.0" stroke-linecap="round" stroke-linejoin="round" />
<path d="M 159.0 125.0 L 158.0 126.0 L 158.0 126.0 L 160.5 126.0 L 165.5 124.0 L 171.0 121.5 L 175.0 118.5 L 177.5 116.0 " stroke="black" fill="none" stroke-width="7.0" stroke-linecap="round" stroke-linejoin="round" />
<path d="M 170.5 105.0 L 170.5 107.5 L 170.5 113.0 L 171.0 122.0 L 171.5 133.5 L 172.0 144.5 L 172.0 150.5 L 171.5 152.0 L 171.0 152.0 " stroke="black" fill="none" stroke-width="7.0" stroke-linecap="round" stroke-linejoin="round" />
<path d="M 170.5 125.5 L 170.5 125.0 L 170.0 123.5 L 169.5 124.5 L 168.0 128.5 L 165.0 135.5 L 161.5 142.0 L 158.0 146.0 L 157.0 146.5 " stroke="black" fill="none" stroke-width="7.0" stroke-linecap="round" stroke-linejoin="round" />
<path d="M 171.0 127.5 L 172.5 127.5 L 175.5 128.5 L 179.5 132.5 L 183.5 136.5 L 187.0 139.0 " stroke="black" fill="none" stroke-width="7.0" stroke-linecap="round" stroke-linejoin="round" />
<path d="M 147.5 162.0 L 147.5 161.0 L 147.5 160.5 L 148.0 162.5 L 148.5 169.5 L 148.5 180.5 L 147.0 192.5 L 143.5 202.5 L 140.0 207.0 L 137.0 208.0 L 136.5 208.0 " stroke="black" fill="none" stroke-width="7.0" stroke-linecap="round" stroke-linejoin="round" />
<path d="M 134.5 173.5 L 133.0 174.0 L 132.0 174.0 L 132.5 174.0 L 136.0 173.0 L 141.0 170.5 L 145.0 168.5 L 146.5 168.0 " stroke="black" fill="none" stroke-width="7.0" stroke-linecap="round" stroke-linejoin="round" />
<path d="M 132.0 186.5 L 131.0 187.0 L 130.5 187.5 L 133.0 186.5 L 138.0 183.5 L 143.5 179.5 L 145.0 178.5 " stroke="black" fill="none" stroke-width="7.0" stroke-linecap="round" stroke-linejoin="round" />
<path d="M 135.0 194.5 L 132.5 196.5 L 133.0 197.0 L 136.0 195.5 L 142.0 191.0 L 147.0 187.5 " stroke="black" fill="none" stroke-width="7.0" stroke-linecap="round" stroke-linejoin="round" />
<path d="M 161.5 161.0 L 161.5 160.5 L 161.0 159.5 L 161.0 159.0 L 161.0 159.0 L 161.5 160.5 L 162.5 167.5 L 163.5 180.0 L 163.0 196.0 L 162.0 207.0 L 162.0 211.5 L 163.0 211.5 L 163.5 211.5 " stroke="black" fill="none" stroke-width="7.0" stroke-linecap="round" stroke-linejoin="round" />
<path d="M 169.0 170.5 L 167.5 171.0 L 167.0 171.5 L 167.0 171.5 L 169.5 171.5 L 172.5 169.5 L 176.0 167.5 L 177.0 167.0 " stroke="black" fill="none" stroke-width="7.0" stroke-linecap="round" stroke-linejoin="round" />
<path d="M 169.0 181.0 L 168.5 181.5 L 168.0 182.5 L 169.0 182.5 L 171.5 181.5 L 175.0 179.5 L 177.5 178.0 " stroke="black" fill="none" stroke-width="7.0" stroke-linecap="round" stroke-linejoin="round" />
<path d="M 169.0 194.5 L 168.5 195.5 L 168.0 196.0 L 170.5 195.5 L 175.0 192.5 L 181.5 189.0 " stroke="black" fill="none" stroke-width="7.0" stroke-linecap="round" stroke-linejoin="round" />
</svg>