<svg xmlns="http://www.w3.org/2000/svg" width="300" height="300" viewBox="0 0 300 300">
<path d="M 135.5 107.0 L 134.0 107.5 L 131.5 108.0 L 132.0 108.0 L 136.5 107.0 L 145.0 104.5 L 152.5 101.5 L 159.5 98.5 L 160.5 98.0 " stroke="black" fill="none" stroke-width="7.0" stroke-linecap="round" stroke-linejoin="round" />
<path d="M 151.0 105.0 L 150.5 105.5 L 149.0 107.0 L 147.5 110.0 L 144.5 115.5 L 139.0 122.5 L 135.0 126.0 " stroke="black" fill="none" stroke-width="7.0" stroke-linecap="round" stroke-linejoin="round" />
<path d="M 115.5 136.0 L 115.0 135.5 L 115.0 135.0 L 115.0 135.0 L 115.0 138.5 L 116.5 147.5 L 118.5 162.0 L 119.5 175.0 L 120.5 182.5 L 121.5 183.0 L 122.0 180.0 " stroke="black" fill="none" stroke-width="7.0" stroke-linecap="round" stroke-linejoin="round" />
<path d="M 123.5 138.0 L 124.0 137.0 L 126.0 133.0 L 129.0 130.0 L 134.0 128.5 L 143.0 126.5 L 153.0 124.0 L 161.0 122.0 L 168.5 121.0 L 172.5 124.0 L 173.5 131.0 L 173.5 141.0 L 172.5 152.0 L 171.5 163.5 L 170.0 173.0 L 168.0 180.0 L 166.0 182.5 L 163.0 182.0 L 161.0 180.5 " stroke="black" fill="none" stroke-width="7.0" stroke-linecap="round" stroke-linejoin="round" />
<path d="M 136.5 137.5 L 136.5 137.5 L 135.5 137.0 L 136.0 140.0 L 137.0 149.5 L 138.0 163.0 L 138.0 172.5 L 138.0 176.5 L 138.5 177.0 " stroke="black" fill="none" stroke-width="7.0" stroke-linecap="round" stroke-linejoin="round" />
<path d="M 152.0 127.5 L 152.0 127.5 L 152.5 130.5 L 153.5 141.5 L 154.0 156.0 L 154.0 168.0 L 154.0 174.0 L 154.0 177.0 L 154.0 177.0 " stroke="black" fill="none" stroke-width="7.0" stroke-linecap="round" stroke-linejoin="round" />
<path d="M 141.5 150.5 L 140.0 150.5 L 140.5 150.5 L 142.0 150.5 L 148.0 149.0 L 152.0 147.5 " stroke="black" fill="none" stroke-width="7.0" stroke-linecap="round" stroke-linejoin="round" />
<path d="M 142.5 162.0 L 142.0 163.0 L 142.0 163.5 L 143.5 164.0 L 146.5 164.0 L 150.0 163.0 L 151.5 162.5 " stroke="black" fill="none" stroke-width="7.0" stroke-linecap="round" stroke-linejoin="round" />
<path d="M 128.5 184.0 L 127.0 186.0 L 127.5 186.0 L 131.0 186.0 L 138.0 183.5 L 147.5 181.0 L 155.0 179.5 L 156.5 179.5 " stroke="black" fill="none" stroke-width="7.0" stroke-linecap="round" stroke-linejoin="round" />
</svg>