<svg xmlns="http://www.w3.org/2000/svg" width="300" height="300" viewBox="0 0 300 300">
<path d="M 116.0 105.5 L 114.5 106.0 L 113.0 107.0 L 112.0 107.5 L 111.5 107.5 L 114.0 107.5 L 119.0 106.0 L 125.0 103.5 L 131.0 100.0 L 136.5 97.5 L 137.0 97.0 " stroke="black" fill="none" stroke-width="7.0" stroke-linecap="round" stroke-linejoin="round" />
<path d="M 118.0 119.5 L 115.5 121.0 L 115.0 121.0 L 117.5 120.5 L 122.0 118.0 L 127.0 115.0 L 131.5 112.0 L 134.0 110.5 " stroke="black" fill="none" stroke-width="7.0" stroke-linecap="round" stroke-linejoin="round" />
<path d="M 125.0 88.5 L 124.0 90.0 L 124.0 93.5 L 125.0 101.5 L 126.0 113.0 L 126.5 123.5 L 126.5 130.0 " stroke="black" fill="none" stroke-width="7.0" stroke-linecap="round" stroke-linejoin="round" />
<path d="M 105.0 140.5 L 104.5 141.0 L 103.0 141.5 L 103.0 141.5 L 105.5 141.5 L 111.0 140.0 L 120.5 137.0 L 131.5 132.5 L 142.0 129.5 L 148.5 129.0 L 149.0 129.0 " stroke="black" fill="none" stroke-width="7.0" stroke-linecap="round" stroke-linejoin="round" />
<path d="M 111.0 153.0 L 110.5 152.0 L 110.0 151.0 L 110.0 150.5 L 110.0 150.0 L 110.5 152.0 L 111.5 159.0 L 112.0 169.5 L 110.5 182.5 L 108.5 192.0 L 107.0 195.0 L 106.0 195.5 " stroke="black" fill="none" stroke-width="7.0" stroke-linecap="round" stroke-linejoin="round" />
<path d="M 117.0 152.0 L 117.0 152.0 L 117.0 151.5 L 117.0 150.5 L 118.5 149.5 L 120.5 148.5 L 126.0 146.5 L 130.0 144.5 L 133.0 143.0 L 135.0 142.5 L 135.5 142.5 L 135.5 143.0 L 135.5 145.0 L 135.5 148.0 L 135.5 151.0 L 137.0 159.5 L 138.0 167.0 L 139.0 182.5 L 139.5 192.5 L 139.5 200.0 L 139.5 204.5 L 138.5 206.0 L 137.0 205.5 L 135.0 203.5 L 133.5 201.5 " stroke="black" fill="none" stroke-width="7.0" stroke-linecap="round" stroke-linejoin="round" />
<path d="M 121.0 164.5 L 119.5 165.0 L 118.5 165.5 L 118.0 165.5 L 120.0 165.5 L 124.0 165.0 L 127.5 163.5 L 130.0 162.0 " stroke="black" fill="none" stroke-width="7.0" stroke-linecap="round" stroke-linejoin="round" />
<path d="M 119.5 176.0 L 117.5 178.0 L 117.0 178.5 L 120.5 179.0 L 125.0 177.0 L 130.5 174.0 L 132.5 173.0 " stroke="black" fill="none" stroke-width="7.0" stroke-linecap="round" stroke-linejoin="round" />
<path d="M 175.0 87.0 L 175.0 87.0 L 175.0 86.5 L 175.0 87.0 L 173.5 89.0 L 168.0 95.5 L 161.0 101.5 L 159.0 103.0 " stroke="black" fill="none" stroke-width="7.0" stroke-linecap="round" stroke-linejoin="round" />
<path d="M 154.5 113.5 L 154.5 113.5 L 153.5 113.0 L 153.5 113.0 L 154.5 113.5 L 157.5 114.5 L 159.5 115.5 L 161.5 116.0 " stroke="black" fill="none" stroke-width="7.0" stroke-linecap="round" stroke-linejoin="round" />
<path d="M 169.0 106.0 L 169.0 106.0 L 169.0 106.0 L 169.0 106.5 L 170.0 108.0 L 171.5 109.5 " stroke="black" fill="none" stroke-width="7.0" stroke-linecap="round" stroke-linejoin="round" />
<path d="M 187.5 92.5 L 187.0 93.0 L 186.0 95.0 L 183.5 101.0 L 181.0 108.0 " stroke="black" fill="none" stroke-width="7.0" stroke-linecap="round" stroke-linejoin="round" />
<path d="M 161.5 133.5 L 161.0 133.5 L 160.5 133.5 L 160.0 134.0 L 160.0 134.0 L 162.5 134.0 L 167.0 132.5 L 172.0 130.0 L 177.0 127.5 L 181.5 125.5 L 183.5 124.5 L 184.5 125.5 L 184.5 129.0 L 183.5 135.0 L 183.0 141.5 L 183.0 146.5 L 183.0 150.5 " stroke="black" fill="none" stroke-width="7.0" stroke-linecap="round" stroke-linejoin="round" />
<path d="M 152.5 148.0 L 151.5 148.5 L 150.0 149.0 L 149.5 149.5 L 149.5 149.5 L 152.5 149.0 L 159.0 147.0 L 168.5 144.5 L 178.5 141.5 L 188.0 139.0 L 194.0 137.5 L 196.0 137.0 L 196.5 137.0 " stroke="black" fill="none" stroke-width="7.0" stroke-linecap="round" stroke-linejoin="round" />
<path d="M 149.0 162.5 L 148.5 163.0 L 147.0 164.5 L 146.5 165.5 L 147.5 165.5 L 152.0 164.5 L 160.0 161.5 L 170.5 157.0 L 180.0 152.5 L 187.0 150.5 L 188.0 150.5 " stroke="black" fill="none" stroke-width="7.0" stroke-linecap="round" stroke-linejoin="round" />
<path d="M 169.0 137.0 L 169.0 137.0 L 168.5 137.5 L 168.5 141.0 L 169.0 151.0 L 169.5 166.0 L 169.5 180.0 L 168.5 189.0 L 167.0 193.5 L 164.5 194.5 L 161.0 193.0 L 158.0 188.5 " stroke="black" fill="none" stroke-width="7.0" stroke-linecap="round" stroke-linejoin="round" />
</svg>