<svg xmlns="http://www.w3.org/2000/svg" width="300" height="300" viewBox="0 0 300 300">
<path d="M 117.5 105.5 L 116.5 106.5 L 114.0 107.0 L 112.5 108.0 L 112.5 108.0 L 113.0 108.0 L 116.0 107.5 L 121.0 107.0 L 127.0 106.0 L 134.5 104.0 L 144.5 101.0 L 153.0 98.0 L 158.5 96.0 L 162.0 95.0 L 164.0 95.0 L 165.0 94.5 L 165.0 94.5 L 165.0 94.5 L 165.0 94.5 L 165.0 95.5 L 165.0 97.0 L 164.5 99.0 L 164.0 102.5 L 164.0 107.5 L 166.5 114.5 L 169.5 119.5 L 173.0 123.0 L 176.0 124.5 L 178.5 125.0 L 180.5 125.0 L 181.0 124.0 " stroke="black" fill="none" stroke-width="7.0" stroke-linecap="round" stroke-linejoin="round" />
<path d="M 179.0 97.0 L 179.0 97.0 L 179.0 96.5 L 179.0 97.0 L 177.0 99.5 L 175.0 101.5 L 172.5 104.0 L 170.5 105.5 L 170.0 107.0 L 171.0 108.0 L 174.0 108.5 L 178.0 109.0 L 181.5 110.0 " stroke="black" fill="none" stroke-width="7.0" stroke-linecap="round" stroke-linejoin="round" />
<path d="M 133.5 124.0 L 134.0 124.0 L 134.5 122.0 L 135.0 121.0 L 135.5 120.5 L 135.0 121.0 L 133.0 124.0 L 129.0 129.0 L 122.5 136.0 L 114.0 143.0 L 109.5 145.5 " stroke="black" fill="none" stroke-width="7.0" stroke-linecap="round" stroke-linejoin="round" />
<path d="M 125.5 139.5 L 125.5 139.0 L 125.5 138.5 L 125.5 138.5 L 126.0 140.5 L 126.5 149.0 L 126.5 163.0 L 124.5 179.0 L 121.0 189.0 L 117.5 194.0 L 116.0 194.0 " stroke="black" fill="none" stroke-width="7.0" stroke-linecap="round" stroke-linejoin="round" />
<path d="M 113.0 171.5 L 112.5 171.0 L 112.0 171.0 L 111.5 170.5 L 112.0 170.5 L 115.5 170.5 L 121.5 168.5 L 129.5 165.0 L 141.0 159.0 L 151.5 153.0 L 158.5 148.5 L 163.5 146.5 L 167.0 145.5 L 168.5 144.5 L 169.0 143.5 L 169.5 143.0 L 169.5 143.5 L 169.0 145.5 L 168.0 149.0 L 166.5 154.5 L 165.5 160.5 L 165.0 167.5 L 165.5 174.0 L 168.5 179.5 L 171.5 183.5 L 175.0 185.0 L 178.5 186.0 L 181.5 186.0 L 183.0 186.0 L 184.0 186.0 L 184.0 185.0 L 184.0 183.0 " stroke="black" fill="none" stroke-width="7.0" stroke-linecap="round" stroke-linejoin="round" />
<path d="M 184.5 156.5 L 184.0 156.0 L 183.0 156.0 L 182.5 156.5 L 180.5 158.5 L 178.5 161.0 L 175.5 163.0 L 173.5 165.0 L 173.0 166.0 L 174.0 166.5 L 177.0 167.0 L 181.0 167.5 L 185.0 168.0 L 188.0 169.0 " stroke="black" fill="none" stroke-width="7.0" stroke-linecap="round" stroke-linejoin="round" />
<path d="M 150.5 112.5 L 150.5 111.5 L 149.5 110.0 L 149.5 110.0 L 149.5 115.0 L 150.0 128.0 L 150.5 149.5 L 150.0 175.0 L 148.5 193.0 L 148.5 201.5 L 148.5 205.0 " stroke="black" fill="none" stroke-width="7.0" stroke-linecap="round" stroke-linejoin="round" />
</svg>