<svg xmlns="http://www.w3.org/2000/svg" width="300" height="300" viewBox="0 0 300 300">
<path d="M 118.5 114.0 L 116.5 115.0 L 115.0 115.5 L 115.5 115.5 L 119.5 114.5 L 125.5 111.5 L 130.0 108.5 L 137.0 103.5 " stroke="black" fill="none" stroke-width="7.0" stroke-linecap="round" stroke-linejoin="round" />
<path d="M 132.5 88.0 L 132.5 89.0 L 132.0 91.5 L 130.5 100.0 L 127.0 114.0 L 123.5 125.5 " stroke="black" fill="none" stroke-width="7.0" stroke-linecap="round" stroke-linejoin="round" />
<path d="M 110.0 139.0 L 110.0 139.0 L 109.5 138.0 L 109.5 138.0 L 109.5 140.0 L 110.5 147.0 L 111.5 159.0 L 111.5 170.5 L 111.5 179.5 L 111.5 181.5 L 111.5 180.5 " stroke="black" fill="none" stroke-width="7.0" stroke-linecap="round" stroke-linejoin="round" />
<path d="M 117.5 132.0 L 117.5 131.0 L 118.5 129.5 L 121.0 127.5 L 125.0 126.0 L 129.5 124.0 L 133.5 122.0 L 136.5 122.0 L 138.0 123.5 L 138.5 129.5 L 138.5 140.0 L 138.5 151.5 L 138.5 163.0 L 139.0 170.0 L 139.0 173.0 L 139.0 174.0 L 137.5 173.0 L 137.0 172.0 " stroke="black" fill="none" stroke-width="7.0" stroke-linecap="round" stroke-linejoin="round" />
<path d="M 117.5 144.0 L 116.5 144.5 L 116.0 144.5 L 116.5 144.5 L 120.5 144.5 L 125.5 142.5 L 129.5 140.5 " stroke="black" fill="none" stroke-width="7.0" stroke-linecap="round" stroke-linejoin="round" />
<path d="M 117.5 156.0 L 117.5 156.5 L 117.0 157.0 L 117.5 157.5 L 120.0 157.0 L 123.5 155.0 L 127.0 153.0 L 129.0 152.0 " stroke="black" fill="none" stroke-width="7.0" stroke-linecap="round" stroke-linejoin="round" />
<path d="M 118.0 165.0 L 117.5 166.0 L 116.5 166.5 L 117.0 167.0 L 120.5 167.0 L 125.0 166.0 L 129.5 165.0 " stroke="black" fill="none" stroke-width="7.0" stroke-linecap="round" stroke-linejoin="round" />
<path d="M 101.0 188.5 L 100.5 188.5 L 98.0 189.5 L 97.5 190.0 L 99.0 190.5 L 104.5 190.5 L 112.5 188.0 L 124.0 183.0 L 135.0 177.5 L 142.5 174.5 L 146.5 173.0 L 147.0 173.0 " stroke="black" fill="none" stroke-width="7.0" stroke-linecap="round" stroke-linejoin="round" />
<path d="M 127.5 180.5 L 127.0 181.0 L 125.0 182.5 L 123.5 184.5 L 121.0 189.0 L 116.5 195.5 L 111.0 203.5 L 107.5 208.0 L 107.0 209.0 " stroke="black" fill="none" stroke-width="7.0" stroke-linecap="round" stroke-linejoin="round" />
<path d="M 128.5 184.5 L 130.5 187.0 L 134.5 191.5 L 138.5 199.5 L 142.5 206.5 L 145.0 209.5 " stroke="black" fill="none" stroke-width="7.0" stroke-linecap="round" stroke-linejoin="round" />
<path d="M 159.0 105.0 L 158.5 105.0 L 156.5 106.0 L 156.0 106.0 L 157.5 106.0 L 162.5 104.0 L 168.5 101.0 L 173.0 98.5 " stroke="black" fill="none" stroke-width="7.0" stroke-linecap="round" stroke-linejoin="round" />
<path d="M 168.5 104.5 L 167.0 106.0 L 165.5 109.0 L 164.0 113.5 L 161.0 119.0 L 157.5 123.5 L 154.5 126.0 L 152.5 128.0 L 151.5 129.5 L 151.5 129.5 L 152.0 130.5 L 152.5 132.0 L 152.5 135.5 L 153.0 142.0 L 153.5 151.0 L 154.0 160.0 L 154.5 166.0 L 154.5 168.0 L 154.5 168.0 L 155.0 167.0 " stroke="black" fill="none" stroke-width="7.0" stroke-linecap="round" stroke-linejoin="round" />
<path d="M 156.0 133.5 L 156.0 133.0 L 156.5 130.5 L 158.0 128.0 L 161.5 125.5 L 167.5 123.0 L 173.0 120.0 L 177.5 119.0 L 180.0 120.0 L 180.5 125.5 L 180.5 134.5 L 180.0 145.5 L 180.0 156.5 L 180.0 164.5 L 180.5 168.5 L 180.5 169.0 L 179.0 167.5 L 178.5 167.0 " stroke="black" fill="none" stroke-width="7.0" stroke-linecap="round" stroke-linejoin="round" />
<path d="M 161.0 145.5 L 159.0 145.5 L 158.0 145.5 L 159.0 145.0 L 163.0 144.5 L 168.0 142.5 L 172.5 141.0 " stroke="black" fill="none" stroke-width="7.0" stroke-linecap="round" stroke-linejoin="round" />
<path d="M 162.5 155.0 L 161.0 156.0 L 161.5 156.0 L 164.5 155.5 L 168.0 154.0 L 171.0 152.5 L 171.5 152.5 " stroke="black" fill="none" stroke-width="7.0" stroke-linecap="round" stroke-linejoin="round" />
<path d="M 157.5 171.0 L 156.5 172.0 L 155.5 173.0 L 157.0 174.0 L 161.0 173.5 L 166.0 171.5 L 170.5 169.0 L 173.5 167.5 L 174.5 167.0 L 173.5 169.0 L 171.0 172.5 L 167.5 177.0 L 164.5 181.5 L 160.5 187.0 L 156.0 194.0 L 152.0 200.5 L 150.0 204.0 L 150.0 204.0 " stroke="black" fill="none" stroke-width="7.0" stroke-linecap="round" stroke-linejoin="round" />
<path d="M 168.0 179.0 L 168.5 179.0 L 171.0 180.5 L 174.5 186.0 L 179.0 194.5 L 184.0 203.0 L 188.0 208.5 " stroke="black" fill="none" stroke-width="7.0" stroke-linecap="round" stroke-linejoin="round" />
</svg>