<svg xmlns="http://www.w3.org/2000/svg" width="300" height="300" viewBox="0 0 300 300">
<path d="M 150.0 76.5 L 150.5 75.5 L 150.5 75.0 L 150.5 74.5 L 150.0 74.5 L 149.0 77.0 L 146.5 82.0 L 139.5 92.0 L 129.0 104.5 L 120.0 114.0 L 111.5 119.0 L 109.5 119.5 " stroke="black" fill="none" stroke-width="7.0" stroke-linecap="round" stroke-linejoin="round" />
<path d="M 147.0 81.0 L 148.5 82.0 L 151.0 83.5 L 154.5 86.0 L 161.5 87.5 L 169.5 88.5 L 174.0 89.0 L 176.0 90.5 L 176.0 91.5 " stroke="black" fill="none" stroke-width="7.0" stroke-linecap="round" stroke-linejoin="round" />
<path d="M 141.5 109.0 L 140.0 110.0 L 139.5 110.5 L 141.5 111.0 L 146.0 110.0 L 151.0 107.5 L 156.5 104.5 L 160.5 103.5 L 160.5 103.0 " stroke="black" fill="none" stroke-width="7.0" stroke-linecap="round" stroke-linejoin="round" />
<path d="M 137.5 125.5 L 137.5 126.5 L 139.5 126.5 L 144.5 125.0 L 151.0 121.5 L 157.0 118.0 L 161.0 116.5 L 162.5 117.0 L 162.5 121.0 L 161.0 127.0 L 159.0 135.0 L 158.5 141.5 L 158.5 145.5 L 158.5 147.5 " stroke="black" fill="none" stroke-width="7.0" stroke-linecap="round" stroke-linejoin="round" />
<path d="M 140.5 141.5 L 138.0 142.0 L 137.0 142.0 L 137.0 142.0 L 140.5 141.5 L 145.0 140.0 L 150.0 137.5 L 152.0 136.0 " stroke="black" fill="none" stroke-width="7.0" stroke-linecap="round" stroke-linejoin="round" />
<path d="M 136.0 155.5 L 135.5 156.0 L 134.5 157.5 L 136.5 158.5 L 142.0 157.5 L 148.5 153.0 L 154.0 148.5 L 155.0 147.5 " stroke="black" fill="none" stroke-width="7.0" stroke-linecap="round" stroke-linejoin="round" />
<path d="M 130.5 138.5 L 130.5 139.0 L 131.0 147.5 L 131.5 158.5 L 132.0 170.5 L 131.5 182.0 L 130.5 191.0 L 129.5 196.5 L 129.0 201.5 L 128.5 204.0 L 128.5 204.0 L 130.5 201.5 L 133.5 197.0 L 138.0 192.0 L 143.5 187.0 L 149.0 182.5 " stroke="black" fill="none" stroke-width="7.0" stroke-linecap="round" stroke-linejoin="round" />
<path d="M 167.5 162.0 L 167.5 161.5 L 167.5 161.0 L 167.0 161.0 L 165.0 163.5 L 162.0 166.5 L 157.5 170.0 L 152.5 173.0 " stroke="black" fill="none" stroke-width="7.0" stroke-linecap="round" stroke-linejoin="round" />
<path d="M 145.5 171.5 L 144.5 171.5 L 144.0 171.5 L 143.5 171.0 L 144.0 171.0 L 146.5 171.5 L 150.5 173.5 L 158.0 176.5 L 168.5 180.0 L 177.0 183.0 L 184.0 185.5 L 190.5 187.0 L 194.0 188.0 L 196.0 188.0 " stroke="black" fill="none" stroke-width="7.0" stroke-linecap="round" stroke-linejoin="round" />
</svg>