<svg xmlns="http://www.w3.org/2000/svg" width="300" height="300" viewBox="0 0 300 300">
<path d="M 135.5 79.5 L 135.0 79.5 L 134.0 79.0 L 134.0 79.0 L 137.0 80.0 L 142.5 81.0 L 145.0 81.0 " stroke="black" fill="none" stroke-width="7.0" stroke-linecap="round" stroke-linejoin="round" />
<path d="M 156.5 69.5 L 156.5 69.0 L 156.5 69.0 L 155.5 69.0 L 154.5 72.0 L 152.5 76.0 L 149.0 82.0 L 147.0 85.0 " stroke="black" fill="none" stroke-width="7.0" stroke-linecap="round" stroke-linejoin="round" />
<path d="M 128.0 98.0 L 127.5 98.0 L 126.5 98.5 L 126.0 98.5 L 129.0 98.5 L 136.0 96.0 L 146.0 91.5 L 153.5 87.0 L 157.5 85.0 L 158.0 85.5 " stroke="black" fill="none" stroke-width="7.0" stroke-linecap="round" stroke-linejoin="round" />
<path d="M 133.0 110.0 L 131.5 111.5 L 130.0 113.0 L 130.5 113.0 L 134.5 111.5 L 142.0 107.5 L 149.5 104.0 L 155.0 101.0 L 157.0 100.0 L 157.0 100.0 " stroke="black" fill="none" stroke-width="7.0" stroke-linecap="round" stroke-linejoin="round" />
<path d="M 147.5 93.0 L 147.5 95.5 L 147.5 99.0 L 147.5 105.5 L 147.5 113.0 L 147.0 120.0 L 146.5 121.0 " stroke="black" fill="none" stroke-width="7.0" stroke-linecap="round" stroke-linejoin="round" />
<path d="M 131.0 129.5 L 129.5 130.5 L 128.0 130.5 L 128.5 130.5 L 131.5 129.5 L 138.5 127.0 L 147.0 124.5 L 155.5 122.0 L 162.5 121.0 L 163.5 121.0 " stroke="black" fill="none" stroke-width="7.0" stroke-linecap="round" stroke-linejoin="round" />
<path d="M 119.0 148.5 L 117.0 149.0 L 115.0 149.0 L 114.5 149.0 L 117.5 148.5 L 124.0 147.0 L 132.0 144.5 L 145.0 140.5 L 156.5 135.5 L 164.5 131.5 L 169.5 129.0 L 170.5 127.5 " stroke="black" fill="none" stroke-width="7.0" stroke-linecap="round" stroke-linejoin="round" />
<path d="M 147.0 124.5 L 145.5 125.5 L 144.5 127.5 L 143.5 132.5 L 141.0 140.0 L 136.0 149.5 L 128.5 161.0 L 122.0 170.0 L 114.0 176.0 L 108.5 179.5 L 108.0 179.5 " stroke="black" fill="none" stroke-width="7.0" stroke-linecap="round" stroke-linejoin="round" />
<path d="M 150.5 141.0 L 152.5 142.0 L 156.0 144.0 L 161.0 146.5 L 167.0 149.0 L 171.0 151.0 L 173.0 152.5 " stroke="black" fill="none" stroke-width="7.0" stroke-linecap="round" stroke-linejoin="round" />
<path d="M 138.5 161.0 L 138.5 161.0 L 137.5 161.5 L 138.0 161.5 L 141.5 160.5 L 147.0 157.5 L 151.5 154.5 L 154.5 152.5 L 154.5 152.5 " stroke="black" fill="none" stroke-width="7.0" stroke-linecap="round" stroke-linejoin="round" />
<path d="M 134.0 172.5 L 134.5 172.5 L 135.5 172.5 L 139.0 171.5 L 145.5 167.5 L 151.5 163.5 L 156.0 161.0 L 158.0 161.0 L 159.0 163.5 L 159.5 168.5 L 159.0 174.0 L 157.5 180.5 L 156.5 185.0 L 155.0 188.0 " stroke="black" fill="none" stroke-width="7.0" stroke-linecap="round" stroke-linejoin="round" />
<path d="M 139.5 183.5 L 138.5 183.5 L 136.5 184.0 L 136.5 184.0 L 139.0 183.0 L 143.0 181.5 L 148.0 178.5 L 152.0 176.0 " stroke="black" fill="none" stroke-width="7.0" stroke-linecap="round" stroke-linejoin="round" />
<path d="M 136.0 196.5 L 135.5 196.5 L 134.5 197.0 L 133.5 197.0 L 133.5 197.0 L 135.5 197.0 L 140.0 195.0 L 145.5 193.0 L 150.0 191.0 " stroke="black" fill="none" stroke-width="7.0" stroke-linecap="round" stroke-linejoin="round" />
<path d="M 132.0 176.5 L 132.0 176.5 L 132.0 177.5 L 131.5 180.5 L 131.5 186.5 L 131.5 197.0 L 130.5 208.5 L 129.5 216.5 L 128.5 222.0 L 127.5 224.5 L 127.5 224.5 L 127.5 224.5 L 128.0 223.5 L 130.0 221.5 L 132.5 219.0 L 136.5 215.5 L 142.5 212.0 L 146.5 209.5 " stroke="black" fill="none" stroke-width="7.0" stroke-linecap="round" stroke-linejoin="round" />
<path d="M 166.0 196.5 L 166.0 196.5 L 165.5 197.0 L 165.0 197.0 L 164.5 198.0 L 163.0 199.5 L 160.5 201.0 L 157.0 202.5 L 155.0 203.0 " stroke="black" fill="none" stroke-width="7.0" stroke-linecap="round" stroke-linejoin="round" />
<path d="M 149.0 200.0 L 148.0 200.0 L 147.5 200.0 L 147.0 200.0 L 147.0 200.5 L 148.0 202.0 L 151.5 205.0 L 157.0 208.5 L 165.5 212.5 L 172.5 215.0 L 176.5 216.5 L 179.0 217.5 " stroke="black" fill="none" stroke-width="7.0" stroke-linecap="round" stroke-linejoin="round" />
</svg>