<svg xmlns="http://www.w3.org/2000/svg" width="300" height="300" viewBox="0 0 300 300">
<path d="M 136.5 99.0 L 135.0 99.0 L 135.0 99.5 L 137.0 100.5 L 141.5 102.0 L 146.5 103.5 " stroke="black" fill="none" stroke-width="7.0" stroke-linecap="round" stroke-linejoin="round" />
<path d="M 160.5 92.5 L 160.5 92.5 L 160.5 92.5 L 160.0 93.0 L 158.0 95.5 L 155.0 100.5 L 152.0 104.5 " stroke="black" fill="none" stroke-width="7.0" stroke-linecap="round" stroke-linejoin="round" />
<path d="M 121.5 122.0 L 119.5 122.0 L 118.0 122.0 L 118.0 122.0 L 120.5 121.5 L 125.5 120.5 L 133.5 118.5 L 145.0 114.0 L 157.0 108.5 L 166.5 105.0 L 170.0 104.0 L 171.0 104.0 " stroke="black" fill="none" stroke-width="7.0" stroke-linecap="round" stroke-linejoin="round" />
<path d="M 152.0 114.0 L 151.0 114.0 L 150.0 115.0 L 149.0 117.0 L 147.5 121.0 L 144.0 127.0 L 139.0 133.0 L 136.0 136.0 " stroke="black" fill="none" stroke-width="7.0" stroke-linecap="round" stroke-linejoin="round" />
<path d="M 129.5 142.0 L 129.5 142.0 L 129.0 142.0 L 128.5 142.5 L 128.5 143.5 L 128.5 146.5 L 128.5 153.5 L 128.5 162.5 L 129.0 171.5 L 129.5 180.0 L 130.0 184.0 L 130.5 185.0 L 131.0 184.5 " stroke="black" fill="none" stroke-width="7.0" stroke-linecap="round" stroke-linejoin="round" />
<path d="M 133.0 149.0 L 133.0 148.5 L 133.5 146.5 L 135.0 144.5 L 139.0 142.0 L 145.0 139.5 L 151.5 136.5 L 157.0 133.5 L 161.5 132.5 L 165.5 132.0 L 167.5 135.0 L 168.5 141.0 L 169.0 148.5 L 169.5 160.5 L 169.5 172.5 L 169.0 184.0 L 168.5 191.0 L 167.5 194.5 L 166.0 195.5 L 163.0 194.5 L 160.5 192.0 " stroke="black" fill="none" stroke-width="7.0" stroke-linecap="round" stroke-linejoin="round" />
<path d="M 140.5 161.0 L 140.0 161.0 L 138.5 161.0 L 138.0 161.0 L 140.0 161.0 L 144.5 159.5 L 149.5 156.5 L 153.5 154.0 L 155.0 153.0 " stroke="black" fill="none" stroke-width="7.0" stroke-linecap="round" stroke-linejoin="round" />
<path d="M 141.5 171.0 L 141.0 171.5 L 140.5 172.0 L 141.0 172.5 L 144.5 172.5 L 148.5 171.0 L 152.5 169.0 L 155.0 168.0 " stroke="black" fill="none" stroke-width="7.0" stroke-linecap="round" stroke-linejoin="round" />
<path d="M 132.5 190.0 L 131.5 191.0 L 130.5 191.5 L 130.5 192.0 L 134.5 192.0 L 141.5 191.5 L 150.0 189.5 L 157.5 188.0 L 161.0 187.5 " stroke="black" fill="none" stroke-width="7.0" stroke-linecap="round" stroke-linejoin="round" />
</svg>