<svg xmlns="http://www.w3.org/2000/svg" width="300" height="300" viewBox="0 0 300 300">
<path d="M 119.5 92.5 L 117.0 93.5 L 115.0 93.5 L 114.5 93.5 L 116.5 93.5 L 122.5 92.5 L 129.0 90.5 L 137.0 87.5 L 144.5 84.5 L 148.0 82.5 L 148.5 81.5 " stroke="black" fill="none" stroke-width="7.0" stroke-linecap="round" stroke-linejoin="round" />
<path d="M 133.0 74.0 L 133.0 74.5 L 132.5 76.0 L 132.5 80.0 L 133.0 87.5 L 133.0 95.5 L 133.0 97.0 " stroke="black" fill="none" stroke-width="7.0" stroke-linecap="round" stroke-linejoin="round" />
<path d="M 125.0 104.5 L 123.0 105.0 L 122.5 105.5 L 123.0 105.5 L 126.5 104.0 L 131.0 102.0 L 136.5 100.0 L 142.0 98.5 L 142.5 98.5 " stroke="black" fill="none" stroke-width="7.0" stroke-linecap="round" stroke-linejoin="round" />
<path d="M 122.0 117.0 L 121.0 117.5 L 121.0 117.5 L 123.0 117.5 L 127.0 115.5 L 133.0 112.5 L 140.0 108.5 L 146.0 106.5 L 147.0 107.5 L 146.5 112.0 L 144.0 117.5 L 141.5 121.5 L 140.0 124.0 " stroke="black" fill="none" stroke-width="7.0" stroke-linecap="round" stroke-linejoin="round" />
<path d="M 130.5 118.5 L 130.0 117.5 L 129.5 117.5 L 129.5 117.5 L 130.0 119.5 L 130.5 122.5 L 130.5 123.0 " stroke="black" fill="none" stroke-width="7.0" stroke-linecap="round" stroke-linejoin="round" />
<path d="M 126.0 130.5 L 125.5 130.5 L 124.0 131.5 L 124.0 131.5 L 125.5 131.0 L 128.5 129.0 L 133.0 126.5 L 137.0 124.5 " stroke="black" fill="none" stroke-width="7.0" stroke-linecap="round" stroke-linejoin="round" />
<path d="M 119.0 119.5 L 119.0 120.0 L 119.0 121.5 L 119.0 124.0 L 119.5 130.0 L 119.0 138.5 L 116.5 146.5 L 112.5 152.5 " stroke="black" fill="none" stroke-width="7.0" stroke-linecap="round" stroke-linejoin="round" />
<path d="M 159.0 78.5 L 159.0 78.5 L 159.0 78.5 L 159.5 80.0 L 159.5 85.5 L 158.0 94.0 L 156.0 100.5 L 155.5 101.5 " stroke="black" fill="none" stroke-width="7.0" stroke-linecap="round" stroke-linejoin="round" />
<path d="M 161.0 85.0 L 162.0 84.5 L 164.0 83.0 L 167.0 82.5 L 169.5 82.5 L 171.5 83.0 L 172.0 85.0 L 172.0 89.5 L 172.0 93.5 L 171.5 95.5 L 172.0 96.5 L 174.5 95.0 L 177.0 93.0 L 179.5 92.0 " stroke="black" fill="none" stroke-width="7.0" stroke-linecap="round" stroke-linejoin="round" />
<path d="M 158.0 114.5 L 157.5 114.5 L 156.5 115.0 L 157.0 115.0 L 160.0 114.0 L 165.0 112.0 L 170.0 109.0 L 173.5 107.5 L 174.5 108.5 L 173.0 113.5 L 169.5 119.5 L 164.5 127.0 L 158.5 134.0 L 153.5 140.5 L 150.5 142.5 L 150.0 142.5 " stroke="black" fill="none" stroke-width="7.0" stroke-linecap="round" stroke-linejoin="round" />
<path d="M 152.5 120.5 L 154.0 121.5 L 156.5 122.5 L 161.5 125.5 L 168.5 129.0 L 174.5 132.5 L 177.5 135.0 " stroke="black" fill="none" stroke-width="7.0" stroke-linecap="round" stroke-linejoin="round" />
<path d="M 155.5 148.5 L 155.5 148.5 L 156.0 147.5 L 156.5 146.5 L 156.5 146.0 L 156.5 145.5 L 154.0 148.0 L 150.0 152.0 L 143.5 157.5 L 137.5 161.0 " stroke="black" fill="none" stroke-width="7.0" stroke-linecap="round" stroke-linejoin="round" />
<path d="M 118.0 177.0 L 117.5 177.5 L 116.5 178.0 L 115.5 178.0 L 115.5 178.5 L 117.0 178.5 L 121.5 178.5 L 128.5 176.5 L 139.5 172.5 L 153.0 166.5 L 165.5 161.0 L 173.0 157.5 L 175.0 156.5 " stroke="black" fill="none" stroke-width="7.0" stroke-linecap="round" stroke-linejoin="round" />
<path d="M 149.5 158.0 L 149.0 158.5 L 148.5 160.0 L 148.5 164.0 L 149.5 172.5 L 150.0 183.0 L 150.0 191.5 L 149.5 194.5 L 149.0 194.5 L 148.0 192.0 L 147.5 188.5 " stroke="black" fill="none" stroke-width="7.0" stroke-linecap="round" stroke-linejoin="round" />
<path d="M 145.0 174.5 L 144.5 172.5 L 144.0 170.5 L 144.0 170.5 L 143.0 172.5 L 141.5 177.0 L 138.5 182.0 L 134.5 186.5 L 129.5 189.5 L 126.0 191.0 L 125.0 191.0 L 125.0 190.5 " stroke="black" fill="none" stroke-width="7.0" stroke-linecap="round" stroke-linejoin="round" />
<path d="M 144.0 176.0 L 148.5 176.0 L 153.0 175.5 L 159.0 176.5 L 165.0 178.0 L 169.5 179.0 L 171.0 180.5 " stroke="black" fill="none" stroke-width="7.0" stroke-linecap="round" stroke-linejoin="round" />
<path d="M 127.0 205.0 L 127.0 205.0 L 127.0 205.5 L 127.0 207.0 L 128.0 210.5 L 129.5 216.0 L 131.0 222.0 L 132.0 224.5 L 132.5 224.5 " stroke="black" fill="none" stroke-width="7.0" stroke-linecap="round" stroke-linejoin="round" />
<path d="M 138.5 203.0 L 137.5 203.0 L 137.5 203.5 L 138.0 203.0 L 141.5 202.0 L 146.5 199.5 L 151.5 197.0 L 157.5 194.0 L 163.5 192.5 L 167.0 193.0 L 168.5 195.0 L 168.5 200.0 L 167.5 207.0 L 165.5 213.5 L 163.5 219.5 L 162.5 222.5 L 162.5 223.5 " stroke="black" fill="none" stroke-width="7.0" stroke-linecap="round" stroke-linejoin="round" />
<path d="M 143.0 212.5 L 141.5 213.5 L 140.0 214.0 L 140.0 214.5 L 143.0 214.5 L 148.0 213.5 L 152.5 211.5 L 155.5 210.0 " stroke="black" fill="none" stroke-width="7.0" stroke-linecap="round" stroke-linejoin="round" />
<path d="M 137.5 227.5 L 135.0 229.5 L 135.0 229.5 L 138.0 229.5 L 144.0 229.0 L 151.0 227.0 L 158.0 226.0 " stroke="black" fill="none" stroke-width="7.0" stroke-linecap="round" stroke-linejoin="round" />
</svg>