<svg xmlns="http://www.w3.org/2000/svg" width="300" height="300" viewBox="0 0 300 300">
<path d="M 123.0 98.5 L 121.0 99.0 L 120.5 99.0 L 120.5 99.5 L 124.0 99.5 L 128.5 97.5 L 134.0 94.0 L 139.0 90.5 L 141.5 89.0 " stroke="black" fill="none" stroke-width="7.0" stroke-linecap="round" stroke-linejoin="round" />
<path d="M 111.0 104.5 L 111.0 109.5 L 112.0 118.0 L 114.0 129.0 L 114.5 141.0 L 114.5 149.0 L 115.0 153.5 L 115.0 155.0 " stroke="black" fill="none" stroke-width="7.0" stroke-linecap="round" stroke-linejoin="round" />
<path d="M 116.5 126.0 L 116.5 125.5 L 118.0 125.0 L 122.0 122.5 L 128.5 118.5 L 135.5 113.0 L 140.0 109.0 " stroke="black" fill="none" stroke-width="7.0" stroke-linecap="round" stroke-linejoin="round" />
<path d="M 120.0 136.0 L 118.5 138.0 L 119.0 138.5 L 122.5 138.0 L 127.5 134.5 L 133.5 128.0 L 140.5 122.0 L 143.0 120.0 " stroke="black" fill="none" stroke-width="7.0" stroke-linecap="round" stroke-linejoin="round" />
<path d="M 130.0 104.0 L 130.0 107.5 L 130.0 114.0 L 130.5 123.5 L 130.5 134.0 L 130.0 143.5 L 129.0 146.5 " stroke="black" fill="none" stroke-width="7.0" stroke-linecap="round" stroke-linejoin="round" />
<path d="M 122.5 156.5 L 122.0 157.0 L 121.5 157.5 L 122.5 157.0 L 126.0 155.0 L 131.5 151.0 L 140.0 146.0 L 148.0 141.5 L 152.0 139.5 L 153.0 139.0 L 153.5 140.5 L 153.5 145.0 L 153.5 152.0 L 153.5 161.5 L 152.5 171.0 L 151.5 180.5 L 150.0 188.0 L 148.0 193.0 L 144.5 195.5 L 140.5 195.5 L 135.5 193.0 L 134.0 192.0 " stroke="black" fill="none" stroke-width="7.0" stroke-linecap="round" stroke-linejoin="round" />
<path d="M 97.5 172.5 L 97.5 173.0 L 97.0 173.5 L 97.5 176.0 L 100.5 180.0 L 103.5 184.5 L 106.0 186.5 " stroke="black" fill="none" stroke-width="7.0" stroke-linecap="round" stroke-linejoin="round" />
<path d="M 110.0 170.5 L 110.0 171.0 L 110.5 172.5 L 112.0 175.0 L 115.0 178.0 L 118.5 181.0 L 119.0 181.0 " stroke="black" fill="none" stroke-width="7.0" stroke-linecap="round" stroke-linejoin="round" />
<path d="M 125.0 165.5 L 125.5 166.0 L 126.0 167.0 L 127.5 169.5 L 129.0 173.5 L 130.5 177.0 L 131.0 178.0 " stroke="black" fill="none" stroke-width="7.0" stroke-linecap="round" stroke-linejoin="round" />
<path d="M 135.5 162.0 L 136.5 162.0 L 139.0 163.0 L 142.0 167.5 L 144.5 173.5 L 145.0 175.0 " stroke="black" fill="none" stroke-width="7.0" stroke-linecap="round" stroke-linejoin="round" />
<path d="M 170.5 91.5 L 170.5 92.5 L 170.0 94.5 L 169.0 101.0 L 165.5 114.0 L 161.0 126.0 L 157.5 132.5 L 157.0 133.5 " stroke="black" fill="none" stroke-width="7.0" stroke-linecap="round" stroke-linejoin="round" />
<path d="M 168.5 118.0 L 170.5 116.5 L 174.0 114.0 L 178.0 111.5 L 183.0 109.5 L 188.0 108.5 L 191.5 108.5 L 193.5 110.0 L 194.5 114.0 L 195.0 120.5 L 195.5 128.5 L 196.0 140.0 L 196.0 152.0 L 195.0 165.0 L 193.5 177.0 L 191.5 186.0 L 190.0 190.5 L 187.5 191.5 L 183.5 191.0 L 178.0 188.5 L 173.0 185.5 " stroke="black" fill="none" stroke-width="7.0" stroke-linecap="round" stroke-linejoin="round" />
<path d="M 167.0 148.0 L 167.0 148.0 L 167.0 148.0 L 166.5 149.0 L 166.5 150.5 L 167.5 154.5 L 169.0 158.0 L 169.5 160.5 " stroke="black" fill="none" stroke-width="7.0" stroke-linecap="round" stroke-linejoin="round" />
<path d="M 168.0 146.0 L 168.0 145.5 L 168.5 144.5 L 169.5 143.0 L 172.0 141.5 L 175.0 140.0 L 177.5 139.0 L 179.5 140.0 L 180.5 143.0 L 179.5 147.5 L 177.5 153.0 L 175.0 158.0 L 173.0 161.5 L 172.5 162.0 L 172.5 161.5 L 174.5 159.5 L 177.0 157.5 L 178.0 157.0 " stroke="black" fill="none" stroke-width="7.0" stroke-linecap="round" stroke-linejoin="round" />
</svg>