<svg xmlns="http://www.w3.org/2000/svg" width="300" height="300" viewBox="0 0 300 300">
<path d="M 131.5 95.5 L 131.5 94.5 L 131.5 94.0 L 131.0 93.5 L 131.0 95.5 L 130.0 102.5 L 126.5 118.0 L 117.0 139.0 L 107.5 153.5 L 104.0 160.0 L 103.5 161.0 " stroke="black" fill="none" stroke-width="7.0" stroke-linecap="round" stroke-linejoin="round" />
<path d="M 130.5 105.0 L 131.0 105.0 L 132.0 105.0 L 133.5 105.5 L 137.0 107.0 L 141.0 107.5 L 143.5 108.0 " stroke="black" fill="none" stroke-width="7.0" stroke-linecap="round" stroke-linejoin="round" />
<path d="M 126.0 129.5 L 125.0 131.0 L 125.0 131.5 L 127.0 130.0 L 131.0 126.5 L 136.0 123.0 L 139.0 121.5 " stroke="black" fill="none" stroke-width="7.0" stroke-linecap="round" stroke-linejoin="round" />
<path d="M 124.5 146.0 L 124.5 146.5 L 124.0 147.5 L 126.0 147.5 L 129.5 144.5 L 135.5 140.0 L 140.0 137.5 L 145.0 135.5 L 146.0 136.5 L 145.5 140.0 L 144.0 148.0 L 143.0 156.5 L 142.5 163.5 L 142.5 164.5 " stroke="black" fill="none" stroke-width="7.0" stroke-linecap="round" stroke-linejoin="round" />
<path d="M 127.5 161.0 L 126.0 161.0 L 124.5 161.5 L 124.0 161.5 L 125.5 160.5 L 129.5 158.0 L 134.5 155.0 L 137.0 153.5 " stroke="black" fill="none" stroke-width="7.0" stroke-linecap="round" stroke-linejoin="round" />
<path d="M 126.0 171.5 L 124.5 174.0 L 124.5 174.0 L 127.5 172.5 L 131.5 169.0 L 135.5 166.5 L 139.0 165.0 " stroke="black" fill="none" stroke-width="7.0" stroke-linecap="round" stroke-linejoin="round" />
<path d="M 122.5 154.5 L 123.0 157.5 L 123.0 162.0 L 123.0 170.5 L 123.0 182.5 L 121.5 192.0 L 120.0 196.5 L 119.5 198.5 L 119.5 200.0 L 120.5 199.5 L 122.5 198.0 L 126.5 193.5 L 130.0 190.5 L 134.0 187.5 L 138.0 185.0 " stroke="black" fill="none" stroke-width="7.0" stroke-linecap="round" stroke-linejoin="round" />
<path d="M 141.0 181.0 L 141.0 181.0 L 141.5 181.5 L 143.0 183.0 L 144.5 187.5 L 146.0 195.5 L 146.5 200.0 " stroke="black" fill="none" stroke-width="7.0" stroke-linecap="round" stroke-linejoin="round" />
<path d="M 171.0 102.0 L 171.0 101.0 L 171.5 100.0 L 172.0 99.0 L 172.0 99.0 L 171.5 103.5 L 168.5 112.0 L 163.5 120.5 L 155.0 130.0 L 149.5 135.0 L 148.5 135.0 " stroke="black" fill="none" stroke-width="7.0" stroke-linecap="round" stroke-linejoin="round" />
<path d="M 168.0 111.0 L 168.5 111.5 L 170.0 112.0 L 172.5 112.0 L 176.0 112.0 L 180.5 110.0 L 183.5 109.0 " stroke="black" fill="none" stroke-width="7.0" stroke-linecap="round" stroke-linejoin="round" />
<path d="M 158.0 138.0 L 156.5 140.0 L 156.5 140.5 L 160.0 139.5 L 166.0 136.5 L 172.0 132.0 L 176.5 128.0 L 177.5 127.0 " stroke="black" fill="none" stroke-width="7.0" stroke-linecap="round" stroke-linejoin="round" />
<path d="M 151.5 160.5 L 150.5 161.5 L 149.0 162.0 L 148.5 162.0 L 148.5 162.0 L 151.0 161.0 L 155.0 159.5 L 167.5 153.5 L 176.0 149.0 L 187.5 144.0 L 193.5 142.0 " stroke="black" fill="none" stroke-width="7.0" stroke-linecap="round" stroke-linejoin="round" />
<path d="M 175.5 139.0 L 175.5 139.0 L 175.0 139.5 L 174.5 141.5 L 175.0 148.5 L 176.5 161.0 L 178.5 175.5 L 178.5 185.5 L 177.5 195.0 L 176.0 198.5 L 174.0 198.5 L 171.5 195.0 L 168.5 188.0 L 167.0 182.5 " stroke="black" fill="none" stroke-width="7.0" stroke-linecap="round" stroke-linejoin="round" />
<path d="M 164.5 166.0 L 164.5 165.5 L 164.5 163.5 L 164.0 162.0 L 163.5 162.0 L 161.5 167.5 L 158.0 175.5 L 151.5 188.5 L 149.0 192.5 " stroke="black" fill="none" stroke-width="7.0" stroke-linecap="round" stroke-linejoin="round" />
<path d="M 184.0 161.5 L 186.0 162.5 L 189.5 165.0 L 194.5 171.0 L 197.5 177.5 L 201.0 185.5 L 203.0 191.5 " stroke="black" fill="none" stroke-width="7.0" stroke-linecap="round" stroke-linejoin="round" />
</svg>