<svg xmlns="http://www.w3.org/2000/svg" width="300" height="300" viewBox="0 0 300 300">
<path d="M 124.0 79.0 L 123.5 77.5 L 123.5 76.5 L 124.0 78.0 L 126.0 83.5 L 127.5 90.5 L 128.5 98.5 L 129.0 102.5 L 129.0 103.5 " stroke="black" fill="none" stroke-width="7.0" stroke-linecap="round" stroke-linejoin="round" />
<path d="M 112.0 95.0 L 111.0 95.0 L 108.5 95.5 L 108.0 95.5 L 108.5 95.5 L 111.5 94.5 L 117.0 92.0 L 124.0 88.5 " stroke="black" fill="none" stroke-width="7.0" stroke-linecap="round" stroke-linejoin="round" />
<path d="M 138.5 69.0 L 138.5 69.5 L 138.5 71.5 L 139.5 77.5 L 141.0 85.5 L 142.0 94.0 L 142.5 99.0 L 142.5 99.5 L 143.0 97.5 " stroke="black" fill="none" stroke-width="7.0" stroke-linecap="round" stroke-linejoin="round" />
<path d="M 145.5 86.0 L 146.0 85.5 L 147.0 84.0 L 149.0 83.0 L 151.0 82.5 L 151.0 82.0 " stroke="black" fill="none" stroke-width="7.0" stroke-linecap="round" stroke-linejoin="round" />
<path d="M 122.0 110.5 L 122.0 111.0 L 120.5 114.0 L 118.5 118.5 L 115.5 124.5 L 112.5 130.0 L 110.5 132.5 L 110.5 132.5 " stroke="black" fill="none" stroke-width="7.0" stroke-linecap="round" stroke-linejoin="round" />
<path d="M 120.0 120.0 L 120.5 119.5 L 124.5 116.5 L 128.5 114.5 L 133.0 112.0 L 139.5 109.0 L 145.5 107.0 L 149.5 106.5 L 151.0 107.5 L 151.0 110.0 L 151.0 115.0 L 151.0 120.5 L 151.0 126.5 L 151.0 133.5 L 150.5 140.5 L 149.5 144.5 L 148.0 146.5 L 146.0 146.5 L 143.5 144.5 " stroke="black" fill="none" stroke-width="7.0" stroke-linecap="round" stroke-linejoin="round" />
<path d="M 127.5 128.0 L 127.0 128.0 L 127.0 128.0 L 127.0 128.5 L 127.5 131.5 L 129.5 134.5 L 130.5 136.5 L 130.5 136.5 " stroke="black" fill="none" stroke-width="7.0" stroke-linecap="round" stroke-linejoin="round" />
<path d="M 129.5 127.0 L 129.5 127.0 L 129.5 126.5 L 130.5 125.5 L 132.0 124.5 L 134.5 124.0 L 136.0 125.0 L 136.5 128.5 L 135.0 133.5 L 132.5 137.5 L 131.0 139.0 L 131.0 139.0 L 134.5 135.5 L 137.0 133.5 " stroke="black" fill="none" stroke-width="7.0" stroke-linecap="round" stroke-linejoin="round" />
<path d="M 166.5 79.0 L 166.5 79.0 L 166.5 78.5 L 166.5 78.5 L 166.0 81.5 L 164.5 87.5 L 162.5 93.5 L 160.5 97.0 L 159.5 98.0 L 159.5 97.5 L 162.0 95.5 L 166.5 92.5 L 171.5 88.5 L 176.0 85.0 L 179.0 82.0 " stroke="black" fill="none" stroke-width="7.0" stroke-linecap="round" stroke-linejoin="round" />
<path d="M 176.0 87.5 L 176.0 88.0 L 176.0 90.0 L 176.0 93.0 L 175.5 97.5 L 174.0 105.5 L 170.5 116.0 L 166.5 126.0 L 161.0 132.0 L 157.5 134.5 L 156.5 134.5 " stroke="black" fill="none" stroke-width="7.0" stroke-linecap="round" stroke-linejoin="round" />
<path d="M 160.0 105.5 L 161.0 105.0 L 163.0 105.0 L 167.5 111.0 L 173.5 121.0 L 179.0 127.5 L 185.0 131.0 L 189.0 133.0 " stroke="black" fill="none" stroke-width="7.0" stroke-linecap="round" stroke-linejoin="round" />
<path d="M 133.5 152.0 L 132.5 152.5 L 131.5 153.0 L 132.0 153.0 L 137.0 153.0 L 145.5 151.5 L 155.5 148.0 L 165.5 144.5 L 172.0 142.5 L 172.5 142.5 " stroke="black" fill="none" stroke-width="7.0" stroke-linecap="round" stroke-linejoin="round" />
<path d="M 128.5 155.0 L 128.5 155.0 L 128.0 156.5 L 128.0 160.0 L 128.0 168.0 L 128.0 179.0 L 128.0 187.5 L 128.5 190.5 L 129.0 190.5 L 129.5 190.0 " stroke="black" fill="none" stroke-width="7.0" stroke-linecap="round" stroke-linejoin="round" />
<path d="M 131.0 169.5 L 131.0 168.5 L 131.5 167.5 L 133.5 167.0 L 139.5 165.5 L 148.0 162.5 L 154.5 159.0 L 159.0 157.0 " stroke="black" fill="none" stroke-width="7.0" stroke-linecap="round" stroke-linejoin="round" />
<path d="M 135.0 178.0 L 134.0 178.5 L 131.0 179.0 L 131.0 179.0 L 134.0 178.5 L 140.5 175.5 L 147.5 172.5 L 155.0 168.5 L 161.5 165.5 " stroke="black" fill="none" stroke-width="7.0" stroke-linecap="round" stroke-linejoin="round" />
<path d="M 149.0 152.5 L 148.0 157.5 L 148.0 164.5 L 147.5 174.0 L 146.5 183.5 L 145.5 188.0 L 145.0 189.0 " stroke="black" fill="none" stroke-width="7.0" stroke-linecap="round" stroke-linejoin="round" />
<path d="M 137.0 190.5 L 135.5 191.0 L 134.5 191.0 L 135.0 191.0 L 139.0 190.0 L 145.5 187.5 L 153.5 183.5 L 164.5 178.0 L 173.0 175.0 L 176.5 174.0 L 178.5 176.0 L 179.0 180.5 L 178.5 185.5 L 178.0 191.5 L 176.5 198.5 L 175.5 206.5 L 173.5 213.5 L 170.5 219.0 L 167.0 220.5 L 162.0 219.0 L 160.5 218.0 " stroke="black" fill="none" stroke-width="7.0" stroke-linecap="round" stroke-linejoin="round" />
<path d="M 107.5 203.5 L 107.5 203.5 L 107.5 204.0 L 109.5 206.0 L 113.5 209.5 L 117.5 212.5 L 118.5 213.0 " stroke="black" fill="none" stroke-width="7.0" stroke-linecap="round" stroke-linejoin="round" />
<path d="M 128.0 203.0 L 128.5 203.5 L 128.5 203.5 L 129.0 204.5 L 130.5 206.5 L 133.0 208.0 L 135.5 209.5 " stroke="black" fill="none" stroke-width="7.0" stroke-linecap="round" stroke-linejoin="round" />
<path d="M 146.0 201.0 L 146.5 201.5 L 146.5 201.5 L 147.0 202.5 L 148.5 203.5 L 150.0 204.5 L 151.0 205.0 " stroke="black" fill="none" stroke-width="7.0" stroke-linecap="round" stroke-linejoin="round" />
<path d="M 160.5 196.5 L 162.0 197.5 L 164.5 199.5 L 166.5 203.5 L 167.5 206.5 " stroke="black" fill="none" stroke-width="7.0" stroke-linecap="round" stroke-linejoin="round" />
</svg>