<svg xmlns="http://www.w3.org/2000/svg" width="300" height="300" viewBox="0 0 300 300">
<path d="M 114.0 109.5 L 113.5 108.5 L 113.0 107.5 L 113.0 107.5 L 113.0 109.0 L 114.5 115.0 L 116.5 126.5 L 117.0 146.0 L 115.0 165.0 L 110.5 181.5 L 107.0 192.0 L 105.0 197.0 L 104.5 197.5 " stroke="black" fill="none" stroke-width="7.0" stroke-linecap="round" stroke-linejoin="round" />
<path d="M 121.5 103.5 L 121.5 102.5 L 122.0 101.0 L 123.0 100.0 L 125.0 98.0 L 127.5 96.0 L 130.5 94.0 L 132.5 92.5 L 133.5 92.0 L 134.5 91.5 L 135.0 91.5 L 135.5 92.5 L 136.0 94.5 L 136.5 98.0 L 137.0 103.5 L 138.0 114.5 L 139.5 131.0 L 140.5 149.0 L 141.5 167.5 L 142.0 182.0 L 142.5 192.0 L 142.0 199.5 L 140.5 204.5 L 138.0 206.0 L 135.0 206.0 L 132.0 201.5 L 130.0 196.0 " stroke="black" fill="none" stroke-width="7.0" stroke-linecap="round" stroke-linejoin="round" />
<path d="M 126.0 141.0 L 125.0 141.5 L 124.5 142.0 L 125.0 142.0 L 127.5 141.5 L 131.0 139.5 L 132.5 139.0 " stroke="black" fill="none" stroke-width="7.0" stroke-linecap="round" stroke-linejoin="round" />
<path d="M 125.0 154.5 L 123.5 156.5 L 122.5 158.5 L 124.0 158.5 L 127.5 157.5 L 132.5 154.5 L 135.5 152.5 " stroke="black" fill="none" stroke-width="7.0" stroke-linecap="round" stroke-linejoin="round" />
<path d="M 155.0 107.0 L 155.5 107.0 L 155.5 106.5 L 156.0 106.5 L 157.0 106.5 L 160.0 107.5 L 164.0 108.5 " stroke="black" fill="none" stroke-width="7.0" stroke-linecap="round" stroke-linejoin="round" />
<path d="M 177.0 98.5 L 178.5 97.5 L 179.5 97.0 L 180.0 96.5 L 180.5 98.5 L 178.5 101.5 L 176.0 105.5 L 173.0 109.5 " stroke="black" fill="none" stroke-width="7.0" stroke-linecap="round" stroke-linejoin="round" />
<path d="M 153.5 123.0 L 153.5 123.0 L 153.0 123.5 L 152.0 123.5 L 151.5 124.0 L 151.5 124.0 L 152.0 124.0 L 155.0 123.5 L 161.5 121.5 L 171.0 117.5 L 176.5 114.5 L 184.0 110.5 L 185.5 110.0 L 185.5 110.0 " stroke="black" fill="none" stroke-width="7.0" stroke-linecap="round" stroke-linejoin="round" />
<path d="M 148.0 138.0 L 146.5 138.5 L 144.5 139.5 L 144.5 139.5 L 146.0 139.5 L 149.5 138.5 L 156.0 135.5 L 165.0 131.5 L 175.0 126.5 L 182.5 123.0 L 187.0 122.0 L 189.0 121.0 L 189.5 121.0 " stroke="black" fill="none" stroke-width="7.0" stroke-linecap="round" stroke-linejoin="round" />
<path d="M 168.5 84.0 L 168.0 84.0 L 167.5 84.0 L 167.5 86.0 L 168.5 92.5 L 169.0 103.5 L 168.5 117.0 L 163.5 129.5 L 156.0 140.5 L 149.5 149.0 L 143.5 154.5 L 139.0 157.0 " stroke="black" fill="none" stroke-width="7.0" stroke-linecap="round" stroke-linejoin="round" />
<path d="M 171.0 131.5 L 171.5 131.5 L 173.5 132.0 L 176.5 133.0 L 179.5 134.0 L 186.0 136.0 L 191.5 137.0 L 195.0 137.5 L 196.5 138.0 " stroke="black" fill="none" stroke-width="7.0" stroke-linecap="round" stroke-linejoin="round" />
<path d="M 161.5 149.5 L 161.0 149.5 L 160.0 149.5 L 159.5 149.5 L 159.5 149.5 L 162.0 149.0 L 166.5 147.5 L 171.0 146.0 L 176.0 144.0 L 179.0 142.5 L 180.0 142.5 " stroke="black" fill="none" stroke-width="7.0" stroke-linecap="round" stroke-linejoin="round" />
<path d="M 158.5 148.5 L 158.0 148.5 L 157.5 148.0 L 157.5 147.5 L 157.5 149.5 L 158.5 155.5 L 160.0 164.5 L 160.5 174.0 L 161.0 179.0 L 161.0 182.5 " stroke="black" fill="none" stroke-width="7.0" stroke-linecap="round" stroke-linejoin="round" />
<path d="M 162.5 162.5 L 162.0 162.5 L 162.0 162.0 L 162.0 161.5 L 165.0 160.5 L 169.0 158.5 L 173.0 156.5 L 176.0 154.0 L 178.0 152.5 L 178.5 152.5 " stroke="black" fill="none" stroke-width="7.0" stroke-linecap="round" stroke-linejoin="round" />
<path d="M 166.5 169.0 L 165.0 170.0 L 164.0 171.0 L 164.5 171.0 L 167.5 170.5 L 171.0 168.0 L 175.0 164.5 L 180.0 161.0 L 181.5 159.5 " stroke="black" fill="none" stroke-width="7.0" stroke-linecap="round" stroke-linejoin="round" />
<path d="M 174.5 149.0 L 174.5 149.5 L 174.0 150.5 L 173.5 152.5 L 173.5 157.0 L 173.5 164.5 L 173.0 172.5 L 172.0 178.5 L 171.5 180.0 " stroke="black" fill="none" stroke-width="7.0" stroke-linecap="round" stroke-linejoin="round" />
<path d="M 167.5 184.5 L 166.5 185.0 L 165.0 185.0 L 165.0 185.0 L 166.5 184.0 L 169.5 182.5 L 173.0 180.5 L 178.5 178.0 L 186.0 174.0 L 192.0 171.0 L 195.0 169.0 L 196.0 168.5 L 196.5 169.5 L 197.0 172.0 L 197.5 176.0 L 197.5 182.0 L 197.5 188.5 L 196.0 196.0 L 194.5 202.0 L 193.0 205.5 L 190.5 206.5 L 187.5 205.5 L 183.0 203.0 " stroke="black" fill="none" stroke-width="7.0" stroke-linecap="round" stroke-linejoin="round" />
<path d="M 151.5 196.0 L 151.5 197.0 L 151.5 198.5 L 152.5 201.0 L 154.5 203.5 L 157.0 205.5 L 157.5 205.5 " stroke="black" fill="none" stroke-width="7.0" stroke-linecap="round" stroke-linejoin="round" />
<path d="M 163.5 193.5 L 163.5 193.5 L 163.5 193.5 L 164.0 193.5 L 165.5 194.5 L 167.5 195.5 L 169.5 196.5 " stroke="black" fill="none" stroke-width="7.0" stroke-linecap="round" stroke-linejoin="round" />
<path d="M 175.0 190.0 L 175.0 190.0 L 175.0 190.0 L 175.0 190.5 L 175.5 191.5 L 176.5 193.0 L 178.5 194.5 L 179.0 194.5 " stroke="black" fill="none" stroke-width="7.0" stroke-linecap="round" stroke-linejoin="round" />
<path d="M 185.0 186.5 L 185.0 186.5 L 186.0 186.5 L 187.0 187.0 L 189.0 189.0 L 190.5 192.5 " stroke="black" fill="none" stroke-width="7.0" stroke-linecap="round" stroke-linejoin="round" />
</svg>