<svg xmlns="http://www.w3.org/2000/svg" width="300" height="300" viewBox="0 0 300 300">
<path d="M 113.0 99.0 L 113.0 98.5 L 112.5 96.5 L 112.0 95.5 L 112.0 95.5 L 112.5 98.0 L 113.5 103.5 L 114.5 110.5 L 115.5 116.5 L 116.5 120.0 L 116.5 120.5 " stroke="black" fill="none" stroke-width="7.0" stroke-linecap="round" stroke-linejoin="round" />
<path d="M 116.0 99.5 L 116.5 99.0 L 117.0 97.0 L 118.5 95.0 L 122.0 93.0 L 127.0 90.5 L 132.0 87.5 L 137.0 85.5 L 141.5 85.0 L 144.0 85.5 L 144.5 89.5 L 144.5 96.0 L 143.0 103.0 L 141.5 109.5 L 140.5 114.5 L 139.5 116.5 L 139.5 116.5 " stroke="black" fill="none" stroke-width="7.0" stroke-linecap="round" stroke-linejoin="round" />
<path d="M 131.5 107.0 L 131.5 107.5 L 131.0 107.5 L 131.5 107.5 L 137.5 104.0 L 138.0 103.5 " stroke="black" fill="none" stroke-width="7.0" stroke-linecap="round" stroke-linejoin="round" />
<path d="M 128.5 107.0 L 128.5 108.0 L 128.0 110.5 L 128.0 113.5 L 128.0 117.0 L 128.0 118.5 " stroke="black" fill="none" stroke-width="7.0" stroke-linecap="round" stroke-linejoin="round" />
<path d="M 99.5 128.0 L 99.5 128.0 L 99.5 129.0 L 99.5 130.5 L 101.5 134.5 L 104.5 139.0 L 107.0 142.0 L 108.0 143.0 " stroke="black" fill="none" stroke-width="7.0" stroke-linecap="round" stroke-linejoin="round" />
<path d="M 106.5 132.5 L 106.5 132.0 L 106.5 131.0 L 109.0 129.5 L 114.5 127.0 L 124.5 124.5 L 133.0 121.0 L 141.0 118.0 L 147.5 116.5 L 150.0 116.5 L 150.5 118.0 L 149.0 121.0 L 146.5 124.0 L 144.0 127.0 " stroke="black" fill="none" stroke-width="7.0" stroke-linecap="round" stroke-linejoin="round" />
<path d="M 115.5 147.0 L 115.0 147.0 L 114.5 147.0 L 114.5 150.5 L 115.5 159.0 L 116.0 170.0 L 115.5 180.0 L 115.0 186.5 L 114.5 189.0 L 114.5 189.0 " stroke="black" fill="none" stroke-width="7.0" stroke-linecap="round" stroke-linejoin="round" />
<path d="M 119.5 152.5 L 119.5 151.5 L 120.5 149.0 L 123.0 146.5 L 126.0 144.5 L 130.0 141.5 L 134.5 138.5 L 138.0 136.5 L 140.0 136.0 L 141.0 138.0 L 141.5 142.5 L 142.0 148.5 L 143.0 157.0 L 144.5 168.0 L 145.0 181.0 L 145.0 191.5 L 145.0 196.5 L 144.5 199.5 L 142.5 200.0 L 139.0 199.5 L 135.0 195.5 L 132.0 191.0 " stroke="black" fill="none" stroke-width="7.0" stroke-linecap="round" stroke-linejoin="round" />
<path d="M 121.5 163.5 L 121.0 164.0 L 120.5 164.0 L 121.0 164.0 L 124.0 163.0 L 128.0 161.0 L 131.5 159.5 L 132.0 159.0 " stroke="black" fill="none" stroke-width="7.0" stroke-linecap="round" stroke-linejoin="round" />
<path d="M 124.0 172.0 L 121.0 174.5 L 121.0 175.0 L 123.0 175.0 L 127.0 173.5 L 131.5 171.0 L 134.5 169.5 " stroke="black" fill="none" stroke-width="7.0" stroke-linecap="round" stroke-linejoin="round" />
<path d="M 153.0 101.5 L 153.0 103.0 L 153.0 104.5 L 155.5 109.0 L 159.0 114.0 L 162.0 117.5 L 163.5 118.0 L 164.0 118.0 " stroke="black" fill="none" stroke-width="7.0" stroke-linecap="round" stroke-linejoin="round" />
<path d="M 157.5 101.0 L 158.0 100.5 L 159.0 99.0 L 163.0 97.5 L 169.0 96.0 L 175.5 93.5 L 184.0 90.0 L 191.5 88.0 L 194.5 88.5 L 195.5 92.0 L 195.0 97.5 L 193.5 103.5 L 191.5 110.0 L 188.5 115.0 L 187.5 117.0 " stroke="black" fill="none" stroke-width="7.0" stroke-linecap="round" stroke-linejoin="round" />
<path d="M 169.0 108.0 L 167.0 108.5 L 166.0 108.5 L 167.5 108.5 L 171.0 107.0 L 176.0 105.5 L 182.5 103.0 L 188.0 101.0 " stroke="black" fill="none" stroke-width="7.0" stroke-linecap="round" stroke-linejoin="round" />
<path d="M 168.5 81.0 L 168.5 83.5 L 168.5 89.0 L 168.5 98.5 L 169.0 108.5 L 170.0 114.5 L 170.5 116.0 " stroke="black" fill="none" stroke-width="7.0" stroke-linecap="round" stroke-linejoin="round" />
<path d="M 182.5 70.0 L 182.5 70.5 L 182.5 73.0 L 182.5 78.0 L 182.5 88.5 L 182.5 100.5 L 182.5 108.5 L 182.5 109.5 " stroke="black" fill="none" stroke-width="7.0" stroke-linecap="round" stroke-linejoin="round" />
<path d="M 169.5 118.5 L 168.5 120.0 L 168.0 120.5 L 169.5 121.0 L 173.0 120.5 L 177.5 118.5 L 182.5 117.0 L 185.5 116.5 " stroke="black" fill="none" stroke-width="7.0" stroke-linecap="round" stroke-linejoin="round" />
<path d="M 166.5 134.5 L 165.0 135.5 L 164.5 136.0 L 165.0 136.5 L 167.5 136.5 L 171.5 134.0 L 176.5 131.5 L 182.0 128.5 L 185.5 127.0 L 186.0 127.0 " stroke="black" fill="none" stroke-width="7.0" stroke-linecap="round" stroke-linejoin="round" />
<path d="M 158.0 148.0 L 158.0 150.0 L 158.5 152.0 L 161.0 154.0 L 164.5 155.5 L 168.0 156.5 L 170.0 157.5 " stroke="black" fill="none" stroke-width="7.0" stroke-linecap="round" stroke-linejoin="round" />
<path d="M 166.0 149.5 L 166.0 149.5 L 166.5 149.0 L 168.5 148.0 L 173.0 146.0 L 179.0 143.5 L 184.5 141.5 L 187.5 141.5 L 186.5 144.0 L 183.5 147.5 L 178.5 151.5 L 174.0 156.0 L 170.5 159.5 L 169.5 161.0 L 170.0 160.5 L 172.0 159.0 L 175.0 156.0 L 179.0 152.5 L 183.5 150.0 L 185.5 149.0 " stroke="black" fill="none" stroke-width="7.0" stroke-linecap="round" stroke-linejoin="round" />
<path d="M 170.0 163.5 L 170.0 164.5 L 169.5 167.5 L 169.5 171.0 L 170.0 175.0 L 171.0 178.0 L 172.0 179.5 " stroke="black" fill="none" stroke-width="7.0" stroke-linecap="round" stroke-linejoin="round" />
<path d="M 181.0 162.5 L 180.5 162.5 L 179.5 164.0 L 178.5 166.5 L 177.0 171.0 L 175.0 176.5 L 174.0 179.0 " stroke="black" fill="none" stroke-width="7.0" stroke-linecap="round" stroke-linejoin="round" />
<path d="M 153.0 188.5 L 151.5 189.0 L 150.0 189.5 L 150.0 189.5 L 153.0 189.0 L 159.5 187.0 L 169.0 184.5 L 182.5 181.5 L 195.5 180.5 L 202.5 181.0 L 206.5 183.0 " stroke="black" fill="none" stroke-width="7.0" stroke-linecap="round" stroke-linejoin="round" />
</svg>