<svg xmlns="http://www.w3.org/2000/svg" width="300" height="300" viewBox="0 0 300 300">
<path d="M 127.5 83.0 L 127.0 83.5 L 125.0 84.0 L 124.5 84.5 L 124.5 84.5 L 127.0 83.5 L 131.0 81.0 L 135.0 78.0 L 137.0 77.5 " stroke="black" fill="none" stroke-width="7.0" stroke-linecap="round" stroke-linejoin="round" />
<path d="M 120.5 85.0 L 120.5 85.5 L 120.5 90.0 L 121.0 95.5 L 121.5 103.0 L 122.0 111.0 L 122.5 117.5 L 122.5 120.5 L 122.5 122.5 L 122.0 122.5 " stroke="black" fill="none" stroke-width="7.0" stroke-linecap="round" stroke-linejoin="round" />
<path d="M 124.5 103.5 L 124.5 103.0 L 124.5 102.0 L 125.5 100.5 L 128.0 98.5 L 132.5 95.5 L 137.0 93.0 L 139.5 91.5 L 139.5 91.5 " stroke="black" fill="none" stroke-width="7.0" stroke-linecap="round" stroke-linejoin="round" />
<path d="M 127.0 107.0 L 126.0 108.5 L 125.0 110.0 L 125.5 111.0 L 127.5 111.0 L 131.5 108.5 L 136.0 106.0 L 139.5 104.0 " stroke="black" fill="none" stroke-width="7.0" stroke-linecap="round" stroke-linejoin="round" />
<path d="M 108.5 134.0 L 106.5 136.0 L 106.0 137.0 L 106.0 137.0 L 109.0 136.0 L 115.0 132.0 L 123.5 127.0 L 132.0 121.0 L 137.5 117.0 L 139.5 116.5 L 139.5 116.5 " stroke="black" fill="none" stroke-width="7.0" stroke-linecap="round" stroke-linejoin="round" />
<path d="M 128.5 125.0 L 128.0 126.5 L 127.5 128.5 L 126.5 132.5 L 124.5 138.0 L 121.5 144.0 L 118.5 147.5 L 116.5 149.0 L 116.0 149.0 L 117.0 149.0 L 120.0 148.0 L 124.0 146.0 L 128.5 143.5 L 133.0 140.5 L 137.5 138.0 L 139.5 136.5 " stroke="black" fill="none" stroke-width="7.0" stroke-linecap="round" stroke-linejoin="round" />
<path d="M 139.0 129.5 L 139.0 129.5 L 139.5 130.5 L 141.5 134.0 L 143.5 140.5 L 145.0 148.0 L 145.0 151.0 " stroke="black" fill="none" stroke-width="7.0" stroke-linecap="round" stroke-linejoin="round" />
<path d="M 165.5 82.5 L 165.5 82.5 L 164.5 84.0 L 163.5 87.0 L 160.5 93.5 L 156.0 101.0 L 152.0 107.5 L 151.0 110.0 " stroke="black" fill="none" stroke-width="7.0" stroke-linecap="round" stroke-linejoin="round" />
<path d="M 172.0 93.5 L 172.0 94.0 L 172.0 95.5 L 171.0 98.5 L 167.5 104.0 L 161.5 112.5 L 156.0 119.0 L 154.5 120.5 " stroke="black" fill="none" stroke-width="7.0" stroke-linecap="round" stroke-linejoin="round" />
<path d="M 177.5 106.0 L 177.5 107.0 L 177.5 109.0 L 175.5 115.0 L 171.0 123.5 L 165.0 132.0 L 161.5 136.0 " stroke="black" fill="none" stroke-width="7.0" stroke-linecap="round" stroke-linejoin="round" />
<path d="M 127.0 168.5 L 125.0 169.5 L 123.0 170.5 L 122.5 171.5 L 123.5 172.0 L 129.0 170.0 L 139.5 165.5 L 151.0 159.5 L 160.5 154.5 L 165.0 152.0 L 165.5 151.0 " stroke="black" fill="none" stroke-width="7.0" stroke-linecap="round" stroke-linejoin="round" />
<path d="M 149.0 149.0 L 148.5 149.5 L 146.5 151.5 L 144.5 156.0 L 141.0 164.0 L 135.0 175.0 L 128.5 187.0 L 122.5 196.5 L 116.0 203.0 L 114.5 204.0 " stroke="black" fill="none" stroke-width="7.0" stroke-linecap="round" stroke-linejoin="round" />
<path d="M 160.0 171.0 L 160.0 171.0 L 160.0 169.5 L 160.5 169.0 L 160.5 169.5 L 159.0 172.0 L 156.0 177.0 L 151.5 184.5 L 145.0 193.0 L 136.5 200.0 L 132.0 202.5 " stroke="black" fill="none" stroke-width="7.0" stroke-linecap="round" stroke-linejoin="round" />
<path d="M 137.0 181.0 L 137.0 181.0 L 137.0 182.0 L 140.0 185.5 L 147.0 191.0 L 155.0 197.5 L 163.0 203.0 L 169.5 206.5 L 173.0 207.5 L 174.0 208.0 " stroke="black" fill="none" stroke-width="7.0" stroke-linecap="round" stroke-linejoin="round" />
<path d="M 165.5 145.5 L 165.0 145.0 L 165.0 144.5 L 165.5 144.5 L 168.5 147.5 L 172.5 152.5 L 177.5 158.5 L 181.5 162.0 " stroke="black" fill="none" stroke-width="7.0" stroke-linecap="round" stroke-linejoin="round" />
</svg>