<svg xmlns="http://www.w3.org/2000/svg" width="300" height="300" viewBox="0 0 300 300">
<path d="M 116.5 85.0 L 116.0 85.0 L 114.0 85.0 L 114.0 85.5 L 116.0 85.5 L 122.0 84.0 L 128.0 80.5 L 134.5 75.0 L 137.0 72.5 " stroke="black" fill="none" stroke-width="7.0" stroke-linecap="round" stroke-linejoin="round" />
<path d="M 125.5 59.5 L 125.5 59.5 L 126.0 61.5 L 127.0 71.0 L 128.0 86.5 L 128.5 102.0 L 128.5 110.5 L 127.5 115.5 L 127.0 116.0 L 126.5 113.0 L 125.5 108.5 " stroke="black" fill="none" stroke-width="7.0" stroke-linecap="round" stroke-linejoin="round" />
<path d="M 124.5 86.0 L 124.5 85.0 L 124.5 83.0 L 124.5 83.0 L 124.0 87.0 L 121.5 93.0 L 117.5 99.5 L 113.0 105.5 L 109.5 108.0 L 109.0 108.5 " stroke="black" fill="none" stroke-width="7.0" stroke-linecap="round" stroke-linejoin="round" />
<path d="M 124.5 85.0 L 126.0 86.0 L 129.0 89.5 L 133.0 95.0 L 137.5 100.0 L 142.5 103.0 " stroke="black" fill="none" stroke-width="7.0" stroke-linecap="round" stroke-linejoin="round" />
<path d="M 150.0 69.0 L 150.5 68.5 L 150.5 68.5 L 151.0 69.0 L 151.0 71.0 L 151.0 74.0 L 149.5 77.0 L 149.0 79.0 L 148.5 80.0 L 149.5 79.5 L 152.5 77.5 L 156.0 75.0 L 158.0 73.5 " stroke="black" fill="none" stroke-width="7.0" stroke-linecap="round" stroke-linejoin="round" />
<path d="M 147.0 94.0 L 146.5 94.5 L 145.5 94.5 L 146.5 94.5 L 150.0 92.5 L 154.5 89.5 L 160.0 86.0 L 163.5 85.0 " stroke="black" fill="none" stroke-width="7.0" stroke-linecap="round" stroke-linejoin="round" />
<path d="M 156.0 79.0 L 156.0 80.0 L 156.5 82.5 L 156.5 88.0 L 157.0 97.0 L 156.5 104.0 L 155.5 108.0 " stroke="black" fill="none" stroke-width="7.0" stroke-linecap="round" stroke-linejoin="round" />
<path d="M 146.0 105.5 L 145.5 107.0 L 145.5 108.5 L 145.5 111.0 L 145.5 114.0 L 145.5 116.5 L 145.5 118.0 L 146.5 118.5 L 148.0 118.5 L 151.0 116.5 L 155.0 113.0 L 160.0 110.0 L 164.5 108.0 L 165.5 107.5 " stroke="black" fill="none" stroke-width="7.0" stroke-linecap="round" stroke-linejoin="round" />
<path d="M 167.5 102.0 L 167.5 102.5 L 167.5 103.5 L 167.5 106.0 L 167.5 112.0 " stroke="black" fill="none" stroke-width="7.0" stroke-linecap="round" stroke-linejoin="round" />
<path d="M 177.0 80.0 L 176.5 80.0 L 175.5 80.5 L 176.0 80.5 L 180.5 79.0 L 187.0 75.5 L 193.5 71.5 L 194.5 70.5 " stroke="black" fill="none" stroke-width="7.0" stroke-linecap="round" stroke-linejoin="round" />
<path d="M 187.5 62.5 L 187.5 64.0 L 187.5 71.0 L 187.5 81.0 L 187.5 93.5 L 187.5 104.0 L 187.5 109.0 L 187.5 110.0 L 187.5 108.0 L 187.0 106.0 " stroke="black" fill="none" stroke-width="7.0" stroke-linecap="round" stroke-linejoin="round" />
<path d="M 184.0 84.0 L 184.0 81.5 L 184.0 80.5 L 183.5 83.5 L 181.5 90.0 L 178.0 97.5 L 175.5 102.5 L 174.5 104.0 " stroke="black" fill="none" stroke-width="7.0" stroke-linecap="round" stroke-linejoin="round" />
<path d="M 189.5 83.5 L 190.0 84.0 L 192.5 86.0 L 196.0 89.0 L 200.0 92.5 L 201.0 93.0 " stroke="black" fill="none" stroke-width="7.0" stroke-linecap="round" stroke-linejoin="round" />
<path d="M 95.5 134.0 L 94.5 134.0 L 94.5 134.0 L 95.5 135.0 L 98.0 137.5 L 100.5 140.5 L 102.5 142.5 L 103.0 142.5 " stroke="black" fill="none" stroke-width="7.0" stroke-linecap="round" stroke-linejoin="round" />
<path d="M 101.5 130.5 L 101.5 130.5 L 101.5 130.0 L 101.5 129.5 L 103.0 129.0 L 106.5 128.5 L 113.5 127.5 L 124.5 126.5 L 133.5 125.0 L 144.0 124.5 L 153.5 124.0 L 163.0 123.5 L 174.0 122.0 L 183.5 120.5 L 192.5 119.5 L 198.0 119.5 L 203.5 119.5 L 207.5 119.5 L 209.5 121.0 L 209.5 123.5 L 206.5 128.5 L 203.5 134.0 " stroke="black" fill="none" stroke-width="7.0" stroke-linecap="round" stroke-linejoin="round" />
<path d="M 135.5 138.5 L 136.0 138.0 L 136.0 137.0 L 136.5 137.0 L 135.5 139.0 L 133.0 144.5 L 128.5 153.0 L 123.5 163.0 L 117.5 170.0 " stroke="black" fill="none" stroke-width="7.0" stroke-linecap="round" stroke-linejoin="round" />
<path d="M 119.5 143.0 L 119.5 143.0 L 119.0 142.5 L 120.0 142.5 L 124.0 145.0 L 130.5 151.0 L 137.5 159.0 L 143.5 165.5 L 146.0 168.0 " stroke="black" fill="none" stroke-width="7.0" stroke-linecap="round" stroke-linejoin="round" />
<path d="M 127.5 137.0 L 127.5 137.0 L 127.5 137.0 " stroke="black" fill="none" stroke-width="7.0" stroke-linecap="round" stroke-linejoin="round" />
<path d="M 112.5 156.5 L 112.5 156.5 L 112.5 156.5 L 112.5 156.0 L 113.0 156.0 " stroke="black" fill="none" stroke-width="7.0" stroke-linecap="round" stroke-linejoin="round" />
<path d="M 129.5 169.0 L 129.5 169.5 L 129.5 170.0 " stroke="black" fill="none" stroke-width="7.0" stroke-linecap="round" stroke-linejoin="round" />
<path d="M 145.0 147.0 L 145.0 147.5 L 145.5 148.0 " stroke="black" fill="none" stroke-width="7.0" stroke-linecap="round" stroke-linejoin="round" />
<path d="M 106.5 164.0 L 106.0 164.5 L 106.0 165.5 L 105.5 166.5 L 105.5 169.0 L 105.5 172.0 L 106.0 176.0 L 106.5 180.0 L 106.5 183.0 L 107.0 184.0 L 108.0 184.0 L 110.5 182.5 L 114.5 180.0 L 120.5 178.0 L 127.0 176.5 L 132.5 175.0 L 138.0 174.5 L 144.0 175.0 L 145.0 175.0 " stroke="black" fill="none" stroke-width="7.0" stroke-linecap="round" stroke-linejoin="round" />
<path d="M 153.5 149.0 L 153.5 148.0 L 153.5 147.5 L 153.5 149.0 L 153.0 156.5 L 152.5 166.5 L 151.5 174.5 " stroke="black" fill="none" stroke-width="7.0" stroke-linecap="round" stroke-linejoin="round" />
<path d="M 118.0 205.5 L 116.0 206.0 L 115.5 206.0 L 117.5 205.0 L 123.0 203.0 L 128.5 199.0 L 135.0 194.5 L 138.5 192.5 " stroke="black" fill="none" stroke-width="7.0" stroke-linecap="round" stroke-linejoin="round" />
<path d="M 117.0 187.0 L 117.0 188.0 L 116.5 190.0 L 117.0 196.0 L 118.0 206.5 L 118.5 215.5 L 117.5 223.5 L 116.0 228.0 L 115.0 229.5 L 115.5 230.0 L 118.5 229.5 L 123.0 227.0 L 128.5 221.5 L 135.5 215.0 L 143.5 210.0 L 146.0 208.5 " stroke="black" fill="none" stroke-width="7.0" stroke-linecap="round" stroke-linejoin="round" />
<path d="M 175.0 140.5 L 175.5 140.0 L 176.0 139.5 L 175.5 142.0 L 173.5 148.5 L 169.0 159.0 L 164.0 168.5 L 161.0 172.5 " stroke="black" fill="none" stroke-width="7.0" stroke-linecap="round" stroke-linejoin="round" />
<path d="M 185.5 157.0 L 185.5 159.0 L 185.0 161.5 L 181.5 166.5 L 176.5 175.0 L 171.5 184.0 L 167.5 191.0 L 166.5 192.5 " stroke="black" fill="none" stroke-width="7.0" stroke-linecap="round" stroke-linejoin="round" />
<path d="M 191.5 178.5 L 190.5 182.0 L 188.0 187.0 L 183.0 195.0 L 176.0 205.5 L 169.5 215.0 L 162.0 224.5 L 158.0 228.0 " stroke="black" fill="none" stroke-width="7.0" stroke-linecap="round" stroke-linejoin="round" />
</svg>