<svg xmlns="http://www.w3.org/2000/svg" width="300" height="300" viewBox="0 0 300 300">
<path d="M 151.5 78.5 L 152.0 77.0 L 152.5 75.5 L 153.5 75.0 L 153.5 75.5 L 152.5 78.5 L 150.0 82.5 L 147.0 87.0 L 142.5 91.5 L 138.5 94.5 L 134.0 97.5 L 133.0 98.5 L 132.5 100.0 L 132.5 100.5 L 132.5 101.0 L 133.0 103.0 L 133.0 108.0 L 133.5 117.5 L 133.5 129.0 L 133.5 141.5 L 133.5 149.0 L 134.0 154.0 L 134.5 156.0 L 134.5 156.0 L 134.5 155.0 " stroke="black" fill="none" stroke-width="7.0" stroke-linecap="round" stroke-linejoin="round" />
<path d="M 138.0 102.5 L 137.5 101.5 L 137.0 100.5 L 137.0 99.5 L 139.0 98.5 L 143.5 97.5 L 148.0 96.0 L 153.5 94.5 L 158.5 92.5 L 163.0 91.0 L 165.5 90.5 L 167.0 92.0 L 167.0 96.5 L 166.0 102.0 L 164.5 108.0 L 163.5 113.5 L 162.0 117.5 L 161.0 119.5 " stroke="black" fill="none" stroke-width="7.0" stroke-linecap="round" stroke-linejoin="round" />
<path d="M 142.0 115.5 L 139.0 115.5 L 137.0 116.0 L 136.5 116.0 L 138.5 115.5 L 143.5 114.5 L 149.0 112.5 L 153.5 110.0 L 157.5 108.0 L 159.0 107.5 L 159.0 107.5 " stroke="black" fill="none" stroke-width="7.0" stroke-linecap="round" stroke-linejoin="round" />
<path d="M 141.0 126.5 L 140.0 127.5 L 139.0 128.5 L 141.5 128.5 L 146.0 127.0 L 151.0 124.5 L 155.5 122.5 L 157.5 122.0 " stroke="black" fill="none" stroke-width="7.0" stroke-linecap="round" stroke-linejoin="round" />
<path d="M 138.0 144.5 L 136.5 145.5 L 136.5 145.5 L 139.0 146.0 L 144.5 145.0 L 150.5 142.5 L 156.5 139.5 L 159.5 137.5 L 161.0 137.0 L 160.5 137.0 " stroke="black" fill="none" stroke-width="7.0" stroke-linecap="round" stroke-linejoin="round" />
<path d="M 134.0 161.5 L 133.0 162.5 L 132.5 163.0 L 134.5 163.0 L 139.0 162.5 L 146.0 160.0 L 154.0 156.5 L 162.0 153.0 L 169.5 151.0 L 173.0 149.5 L 174.5 149.5 L 176.0 150.0 L 177.0 152.0 L 177.5 155.5 L 177.5 161.0 L 178.0 168.0 L 178.0 176.0 L 177.0 184.5 L 175.0 191.5 L 172.5 195.0 L 170.0 197.5 L 166.0 197.5 L 161.0 195.0 L 154.5 190.0 " stroke="black" fill="none" stroke-width="7.0" stroke-linecap="round" stroke-linejoin="round" />
<path d="M 113.0 180.5 L 113.0 181.0 L 113.0 182.0 L 114.5 183.5 L 118.0 186.5 L 121.5 189.0 L 123.0 190.0 " stroke="black" fill="none" stroke-width="7.0" stroke-linecap="round" stroke-linejoin="round" />
<path d="M 128.0 175.5 L 128.0 175.5 L 128.5 175.5 L 130.5 177.0 L 133.0 179.0 L 136.0 181.0 L 139.0 182.5 " stroke="black" fill="none" stroke-width="7.0" stroke-linecap="round" stroke-linejoin="round" />
<path d="M 148.5 171.0 L 148.5 171.0 L 148.5 171.5 L 148.5 172.5 L 150.0 175.0 L 152.5 177.5 " stroke="black" fill="none" stroke-width="7.0" stroke-linecap="round" stroke-linejoin="round" />
<path d="M 161.0 164.0 L 161.5 164.0 L 161.5 164.0 L 162.5 165.0 L 165.5 170.0 L 168.5 178.0 L 170.5 184.5 L 171.0 186.0 " stroke="black" fill="none" stroke-width="7.0" stroke-linecap="round" stroke-linejoin="round" />
</svg>