<svg xmlns="http://www.w3.org/2000/svg" width="300" height="300" viewBox="0 0 300 300">
<path d="M 121.0 98.5 L 121.0 98.5 L 121.0 98.0 L 121.0 98.0 L 121.0 97.5 L 121.0 97.0 L 121.0 96.5 L 121.0 96.5 L 121.0 96.5 L 121.0 98.5 L 122.0 103.5 L 123.0 113.0 L 123.0 124.5 L 122.5 137.5 L 120.5 151.5 L 116.0 168.0 L 112.0 183.5 L 108.0 196.0 L 105.0 206.0 L 102.0 211.0 L 101.5 212.0 " stroke="black" fill="none" stroke-width="7.0" stroke-linecap="round" stroke-linejoin="round" />
<path d="M 127.0 97.0 L 126.5 97.0 L 125.5 97.0 L 125.0 97.5 L 124.5 98.0 L 124.0 98.5 L 124.5 98.5 L 126.5 98.5 L 130.0 98.5 L 135.0 97.0 L 143.0 94.5 L 151.0 91.5 L 157.0 88.5 L 163.0 86.5 L 167.5 85.0 L 170.5 84.0 L 172.5 82.5 L 173.5 82.0 L 174.5 82.0 L 175.0 82.0 L 175.0 82.0 L 175.0 83.5 L 175.0 85.0 L 174.5 87.0 L 173.5 90.5 L 172.5 96.0 L 172.0 103.0 L 172.0 114.0 L 173.0 126.5 L 174.5 140.0 L 176.5 152.5 L 179.5 165.5 L 183.0 177.0 L 187.0 189.0 L 191.0 199.0 L 194.0 207.5 L 196.5 214.0 L 199.5 218.5 L 202.0 221.5 L 204.0 223.0 L 205.5 223.5 L 206.5 220.5 L 207.0 214.0 L 207.5 204.0 L 207.5 193.0 " stroke="black" fill="none" stroke-width="7.0" stroke-linecap="round" stroke-linejoin="round" />
<path d="M 137.0 111.0 L 137.0 111.5 L 135.5 112.5 L 135.5 112.5 L 137.5 113.0 L 142.5 111.5 L 148.5 108.5 L 153.5 104.5 L 155.5 103.0 " stroke="black" fill="none" stroke-width="7.0" stroke-linecap="round" stroke-linejoin="round" />
<path d="M 149.0 115.0 L 149.5 114.5 L 149.5 114.0 L 149.5 114.0 L 149.5 114.5 L 148.0 116.5 L 146.5 119.0 L 144.5 122.0 L 141.5 125.5 L 138.5 128.0 L 137.0 129.0 L 137.0 129.5 L 137.0 129.5 L 137.5 130.5 L 138.0 132.5 L 138.5 136.0 L 138.5 141.5 L 138.5 149.5 L 138.0 158.5 L 137.5 166.5 L 137.5 171.5 L 137.0 173.0 L 137.0 173.0 " stroke="black" fill="none" stroke-width="7.0" stroke-linecap="round" stroke-linejoin="round" />
<path d="M 143.5 134.0 L 143.5 132.5 L 143.0 131.0 L 143.5 129.5 L 144.5 129.5 L 146.0 129.0 L 148.5 129.0 L 151.0 128.0 L 154.0 126.5 L 156.5 125.5 L 158.0 125.0 L 158.5 125.5 L 159.0 127.5 L 159.0 131.0 L 159.0 136.0 L 158.5 141.0 L 158.0 145.0 L 157.5 147.0 L 157.0 147.0 " stroke="black" fill="none" stroke-width="7.0" stroke-linecap="round" stroke-linejoin="round" />
<path d="M 145.0 142.0 L 145.0 142.0 L 143.5 142.5 L 143.0 142.5 L 143.5 142.5 L 145.5 142.5 L 148.5 141.5 L 151.5 140.0 L 154.0 138.5 L 154.5 138.0 " stroke="black" fill="none" stroke-width="7.0" stroke-linecap="round" stroke-linejoin="round" />
<path d="M 145.5 152.0 L 145.0 152.5 L 144.0 153.0 L 144.0 153.5 L 145.0 153.5 L 147.0 152.0 L 150.0 150.0 L 152.5 149.0 L 154.0 148.5 " stroke="black" fill="none" stroke-width="7.0" stroke-linecap="round" stroke-linejoin="round" />
<path d="M 145.0 164.5 L 144.5 165.0 L 144.5 165.0 L 145.0 165.0 L 147.5 165.0 L 151.0 163.5 L 154.0 161.5 L 155.5 160.5 " stroke="black" fill="none" stroke-width="7.0" stroke-linecap="round" stroke-linejoin="round" />
<path d="M 139.0 178.0 L 137.0 179.5 L 136.0 180.5 L 136.0 180.5 L 136.5 180.5 L 139.0 179.5 L 142.0 178.5 L 146.0 177.5 L 150.5 176.5 L 155.0 174.5 L 160.5 172.5 L 166.5 171.5 L 169.5 171.0 L 171.0 171.0 L 171.5 173.0 L 171.5 176.0 L 171.5 180.5 L 171.5 185.5 L 172.0 191.0 L 172.5 198.0 L 172.5 205.0 L 172.0 210.5 L 171.0 213.5 L 168.5 215.0 L 165.5 215.0 L 161.0 213.0 L 157.5 209.5 " stroke="black" fill="none" stroke-width="7.0" stroke-linecap="round" stroke-linejoin="round" />
<path d="M 124.5 194.5 L 124.0 194.5 L 124.0 195.0 L 124.0 196.5 L 125.0 198.5 L 126.5 201.0 L 128.5 203.0 " stroke="black" fill="none" stroke-width="7.0" stroke-linecap="round" stroke-linejoin="round" />
<path d="M 134.0 193.5 L 134.5 193.5 L 135.5 194.0 L 137.0 195.0 L 139.5 196.5 L 142.0 197.5 " stroke="black" fill="none" stroke-width="7.0" stroke-linecap="round" stroke-linejoin="round" />
<path d="M 148.5 191.0 L 149.0 191.0 L 150.0 191.0 L 151.0 192.5 L 152.5 194.0 L 154.5 196.0 L 155.5 196.5 " stroke="black" fill="none" stroke-width="7.0" stroke-linecap="round" stroke-linejoin="round" />
<path d="M 162.5 189.0 L 162.5 189.5 L 163.5 190.0 L 165.5 191.5 L 167.5 193.5 L 168.5 194.5 " stroke="black" fill="none" stroke-width="7.0" stroke-linecap="round" stroke-linejoin="round" />
</svg>