<svg xmlns="http://www.w3.org/2000/svg" width="300" height="300" viewBox="0 0 300 300">
<path d="M 107.5 146.0 L 107.0 144.5 L 106.5 143.0 L 107.0 142.5 L 108.5 144.0 L 110.5 148.5 L 112.5 154.0 L 114.0 158.5 L 114.5 160.0 " stroke="black" fill="none" stroke-width="7.0" stroke-linecap="round" stroke-linejoin="round" />
<path d="M 111.5 143.0 L 111.5 141.5 L 112.0 140.0 L 115.5 138.0 L 121.0 136.0 L 127.5 134.0 L 131.5 132.5 L 134.0 132.5 L 135.5 134.0 L 135.5 138.0 L 134.5 144.0 L 131.5 150.5 L 127.5 157.5 L 124.0 162.5 L 121.0 164.0 L 119.0 164.0 L 119.5 163.5 L 122.5 162.0 L 126.5 160.5 L 131.0 159.0 " stroke="black" fill="none" stroke-width="7.0" stroke-linecap="round" stroke-linejoin="round" />
<path d="M 166.5 90.0 L 167.0 89.5 L 167.5 88.5 L 168.0 88.0 L 167.5 89.5 L 165.0 92.5 L 162.0 97.0 L 158.0 101.0 L 154.0 104.5 L 151.5 106.5 L 151.0 106.5 L 151.0 106.5 L 151.0 106.5 L 151.0 108.5 L 151.0 112.5 L 151.0 120.0 L 151.0 130.0 L 150.5 142.5 L 149.5 153.5 L 149.0 162.5 L 148.5 167.0 L 148.5 168.5 L 148.5 167.5 " stroke="black" fill="none" stroke-width="7.0" stroke-linecap="round" stroke-linejoin="round" />
<path d="M 154.0 115.5 L 154.0 115.0 L 154.0 113.5 L 155.0 112.0 L 158.5 110.5 L 164.0 109.0 L 169.5 107.0 L 173.5 105.5 L 176.0 105.0 L 177.5 105.0 L 178.0 108.0 L 178.0 113.0 L 177.5 119.5 L 175.5 125.5 L 174.5 129.5 L 174.0 130.0 " stroke="black" fill="none" stroke-width="7.0" stroke-linecap="round" stroke-linejoin="round" />
<path d="M 157.0 125.5 L 155.0 126.0 L 153.5 126.0 L 153.5 126.5 L 155.0 126.5 L 159.5 126.5 L 165.0 124.5 L 170.0 122.5 L 173.0 121.0 L 174.0 120.5 " stroke="black" fill="none" stroke-width="7.0" stroke-linecap="round" stroke-linejoin="round" />
<path d="M 155.5 139.0 L 154.5 141.0 L 155.0 141.0 L 158.5 141.0 L 163.5 138.5 L 168.5 136.0 L 172.0 134.0 L 173.0 134.0 L 173.0 134.5 " stroke="black" fill="none" stroke-width="7.0" stroke-linecap="round" stroke-linejoin="round" />
<path d="M 155.0 152.0 L 153.5 153.5 L 153.5 154.5 L 155.5 154.5 L 160.5 153.0 L 167.0 149.5 L 172.5 146.5 L 175.5 145.5 L 176.0 145.5 L 174.5 147.0 " stroke="black" fill="none" stroke-width="7.0" stroke-linecap="round" stroke-linejoin="round" />
<path d="M 153.5 167.0 L 151.5 168.5 L 151.0 169.5 L 152.5 169.5 L 157.0 168.0 L 164.0 165.0 L 171.5 161.5 L 178.0 158.5 L 183.5 157.5 L 188.0 157.0 L 191.0 159.0 L 192.0 163.0 L 192.0 168.5 L 192.0 176.0 L 192.0 184.5 L 191.5 191.0 L 190.0 196.0 L 188.0 199.5 L 185.5 201.0 L 181.0 200.0 L 176.0 196.0 L 173.5 193.5 " stroke="black" fill="none" stroke-width="7.0" stroke-linecap="round" stroke-linejoin="round" />
<path d="M 130.0 183.5 L 130.0 184.5 L 130.5 186.0 L 132.0 188.0 L 134.5 191.5 L 137.5 194.0 L 138.0 194.5 " stroke="black" fill="none" stroke-width="7.0" stroke-linecap="round" stroke-linejoin="round" />
<path d="M 150.5 180.5 L 150.0 181.0 L 149.5 181.5 L 149.5 182.0 L 150.5 183.5 L 152.0 185.5 L 152.5 186.5 " stroke="black" fill="none" stroke-width="7.0" stroke-linecap="round" stroke-linejoin="round" />
<path d="M 164.5 175.5 L 165.0 175.5 L 166.0 176.0 L 167.0 178.0 L 168.0 181.5 L 169.0 185.0 L 169.5 187.0 " stroke="black" fill="none" stroke-width="7.0" stroke-linecap="round" stroke-linejoin="round" />
<path d="M 175.0 172.0 L 176.0 172.5 L 177.0 173.5 L 179.0 177.0 L 181.0 182.5 L 181.5 184.5 " stroke="black" fill="none" stroke-width="7.0" stroke-linecap="round" stroke-linejoin="round" />
</svg>