<svg xmlns="http://www.w3.org/2000/svg" width="300" height="300" viewBox="0 0 300 300">
<path d="M 126.5 90.5 L 126.5 88.5 L 127.0 86.5 L 127.5 86.0 L 127.5 87.5 L 126.0 93.0 L 124.0 100.5 L 121.0 108.5 L 117.5 115.5 L 117.0 116.5 " stroke="black" fill="none" stroke-width="7.0" stroke-linecap="round" stroke-linejoin="round" />
<path d="M 122.0 108.0 L 123.5 106.5 L 125.5 105.5 L 128.0 104.5 L 130.5 103.5 L 133.0 102.0 L 137.5 101.0 L 139.5 101.0 L 140.0 102.5 L 139.0 106.0 L 136.0 111.5 L 132.5 118.0 L 131.5 119.5 " stroke="black" fill="none" stroke-width="7.0" stroke-linecap="round" stroke-linejoin="round" />
<path d="M 108.5 141.0 L 108.5 141.0 L 108.5 141.5 L 108.5 142.5 L 109.0 146.0 L 110.5 152.5 L 113.0 160.5 L 114.5 166.0 L 115.5 168.5 L 116.0 168.5 " stroke="black" fill="none" stroke-width="7.0" stroke-linecap="round" stroke-linejoin="round" />
<path d="M 113.5 143.0 L 113.5 142.5 L 114.0 139.5 L 116.5 137.0 L 121.5 134.5 L 127.0 131.0 L 132.5 127.5 L 138.0 125.0 L 142.5 124.5 L 145.0 125.0 L 146.0 129.5 L 146.0 137.0 L 144.5 145.0 L 142.0 152.5 L 140.0 159.0 L 138.0 162.0 L 136.5 162.5 " stroke="black" fill="none" stroke-width="7.0" stroke-linecap="round" stroke-linejoin="round" />
<path d="M 125.5 151.5 L 124.0 151.5 L 123.0 151.5 L 123.5 151.0 L 126.5 149.0 L 130.5 146.5 L 134.0 144.0 L 135.5 143.0 " stroke="black" fill="none" stroke-width="7.0" stroke-linecap="round" stroke-linejoin="round" />
<path d="M 127.5 134.0 L 127.5 136.0 L 127.5 139.0 L 127.5 144.5 L 127.0 151.0 L 126.5 154.5 " stroke="black" fill="none" stroke-width="7.0" stroke-linecap="round" stroke-linejoin="round" />
<path d="M 121.5 166.5 L 121.0 167.5 L 120.0 168.0 L 120.5 168.0 L 124.0 166.0 L 128.0 163.5 L 132.0 161.0 L 136.0 160.0 L 136.5 160.0 " stroke="black" fill="none" stroke-width="7.0" stroke-linecap="round" stroke-linejoin="round" />
<path d="M 104.0 187.0 L 103.5 187.0 L 103.5 187.0 L 103.5 188.5 L 104.5 190.5 L 106.0 194.0 L 108.0 197.0 L 108.0 197.5 " stroke="black" fill="none" stroke-width="7.0" stroke-linecap="round" stroke-linejoin="round" />
<path d="M 115.0 183.0 L 115.5 184.5 L 116.5 186.0 L 118.0 188.0 L 120.0 190.5 L 122.0 192.0 " stroke="black" fill="none" stroke-width="7.0" stroke-linecap="round" stroke-linejoin="round" />
<path d="M 127.5 179.5 L 128.0 180.0 L 128.5 181.0 L 129.5 183.5 L 131.0 187.0 L 132.0 190.0 L 132.5 191.0 " stroke="black" fill="none" stroke-width="7.0" stroke-linecap="round" stroke-linejoin="round" />
<path d="M 139.5 173.5 L 139.5 173.5 L 141.5 174.5 L 144.0 177.5 L 146.0 183.5 L 147.0 191.0 L 147.0 196.0 " stroke="black" fill="none" stroke-width="7.0" stroke-linecap="round" stroke-linejoin="round" />
<path d="M 164.5 99.5 L 164.0 99.5 L 163.0 99.5 L 162.5 99.5 L 163.0 99.5 L 166.0 99.5 L 169.5 99.0 L 170.0 98.5 " stroke="black" fill="none" stroke-width="7.0" stroke-linecap="round" stroke-linejoin="round" />
<path d="M 180.0 91.5 L 180.5 91.5 L 180.5 91.5 L 181.0 91.5 L 181.0 92.5 L 179.5 95.0 L 176.5 98.5 L 174.5 100.5 " stroke="black" fill="none" stroke-width="7.0" stroke-linecap="round" stroke-linejoin="round" />
<path d="M 153.5 113.5 L 151.5 114.5 L 150.5 114.5 L 150.5 114.5 L 153.0 113.5 L 158.5 111.5 L 166.5 108.5 L 175.5 104.5 L 182.5 102.5 L 186.5 101.0 " stroke="black" fill="none" stroke-width="7.0" stroke-linecap="round" stroke-linejoin="round" />
<path d="M 171.0 72.0 L 171.0 72.5 L 170.5 74.0 L 170.5 80.0 L 171.0 96.0 L 171.5 113.5 L 171.5 125.0 L 171.5 131.0 L 171.5 133.5 L 171.5 133.5 " stroke="black" fill="none" stroke-width="7.0" stroke-linecap="round" stroke-linejoin="round" />
<path d="M 170.0 110.0 L 170.0 109.5 L 170.0 109.0 L 170.0 108.5 L 168.5 111.5 L 165.5 117.0 L 160.5 123.0 L 155.5 127.5 L 153.5 128.5 " stroke="black" fill="none" stroke-width="7.0" stroke-linecap="round" stroke-linejoin="round" />
<path d="M 171.0 111.5 L 173.0 112.0 L 176.5 114.5 L 181.0 118.0 L 185.5 122.0 L 189.5 126.0 L 191.0 128.5 " stroke="black" fill="none" stroke-width="7.0" stroke-linecap="round" stroke-linejoin="round" />
<path d="M 164.0 143.5 L 164.0 143.5 L 164.0 143.0 L 164.5 142.5 L 164.5 142.5 L 164.0 144.0 L 162.0 147.5 L 159.0 152.5 L 155.5 157.5 L 153.5 160.0 L 153.0 160.5 " stroke="black" fill="none" stroke-width="7.0" stroke-linecap="round" stroke-linejoin="round" />
<path d="M 157.5 155.5 L 160.0 153.5 L 162.0 152.0 L 164.5 151.0 L 167.0 150.5 L 169.0 150.0 L 170.5 150.0 L 171.5 151.0 L 172.0 153.5 L 171.5 157.0 L 170.5 162.0 L 168.0 167.5 L 164.5 174.0 L 160.0 181.5 L 155.0 187.0 L 151.0 190.0 L 149.5 190.5 " stroke="black" fill="none" stroke-width="7.0" stroke-linecap="round" stroke-linejoin="round" />
<path d="M 157.0 166.0 L 157.0 166.0 L 157.5 166.5 L 158.5 168.0 L 161.5 170.0 L 164.0 171.5 " stroke="black" fill="none" stroke-width="7.0" stroke-linecap="round" stroke-linejoin="round" />
<path d="M 182.5 153.5 L 182.5 154.0 L 181.0 154.5 L 180.0 154.5 L 179.5 154.5 L 180.0 154.5 L 183.0 153.5 L 187.5 152.5 L 191.5 151.0 L 194.5 150.0 L 196.0 149.0 " stroke="black" fill="none" stroke-width="7.0" stroke-linecap="round" stroke-linejoin="round" />
<path d="M 181.0 157.5 L 181.0 158.0 L 180.5 159.5 L 180.0 161.5 L 180.0 164.5 L 179.5 169.5 L 179.0 174.0 L 178.5 177.5 L 178.5 179.0 L 179.5 179.0 L 183.0 178.0 L 188.0 175.0 L 193.0 172.5 L 196.5 170.5 L 198.0 169.0 " stroke="black" fill="none" stroke-width="7.0" stroke-linecap="round" stroke-linejoin="round" />
<path d="M 192.5 137.5 L 192.5 137.5 L 192.0 136.5 L 192.0 136.5 L 191.5 141.5 L 191.5 154.0 L 190.5 173.0 L 188.5 189.5 L 187.0 199.0 L 186.5 203.0 " stroke="black" fill="none" stroke-width="7.0" stroke-linecap="round" stroke-linejoin="round" />
</svg>