<svg xmlns="http://www.w3.org/2000/svg" width="300" height="300" viewBox="0 0 300 300">
<path d="M 113.5 65.0 L 113.0 65.0 L 112.0 65.0 L 112.0 65.0 L 113.0 65.0 L 116.5 64.5 L 121.5 64.0 L 125.5 63.0 L 128.5 62.0 L 128.5 62.0 " stroke="black" fill="none" stroke-width="7.0" stroke-linecap="round" stroke-linejoin="round" />
<path d="M 103.0 84.5 L 103.0 85.0 L 102.5 86.5 L 102.5 89.5 L 103.5 93.5 L 104.5 99.5 L 106.0 103.5 L 106.5 105.0 L 107.0 105.5 " stroke="black" fill="none" stroke-width="7.0" stroke-linecap="round" stroke-linejoin="round" />
<path d="M 108.0 85.5 L 108.5 84.5 L 110.0 83.5 L 113.0 82.0 L 118.5 80.5 L 124.5 78.5 L 129.5 76.5 L 132.5 75.5 L 134.0 75.5 L 135.5 77.5 L 136.0 81.0 L 136.0 86.0 L 135.5 93.0 L 134.0 100.0 L 132.5 104.5 L 131.5 107.0 L 130.0 107.0 L 130.0 107.0 " stroke="black" fill="none" stroke-width="7.0" stroke-linecap="round" stroke-linejoin="round" />
<path d="M 120.5 93.0 L 119.5 93.0 L 118.5 93.5 L 119.5 94.0 L 122.0 94.0 L 125.0 94.0 " stroke="black" fill="none" stroke-width="7.0" stroke-linecap="round" stroke-linejoin="round" />
<path d="M 160.0 67.5 L 158.5 67.5 L 157.5 67.5 L 157.0 67.5 L 160.0 66.0 L 165.5 64.0 L 170.0 62.0 L 173.0 61.0 L 173.5 61.0 L 173.5 61.5 " stroke="black" fill="none" stroke-width="7.0" stroke-linecap="round" stroke-linejoin="round" />
<path d="M 153.5 84.5 L 153.5 84.5 L 153.5 84.5 L 153.5 84.5 L 153.5 84.5 L 153.5 86.5 L 154.5 92.0 L 155.5 98.5 L 156.0 103.5 L 156.0 104.5 " stroke="black" fill="none" stroke-width="7.0" stroke-linecap="round" stroke-linejoin="round" />
<path d="M 157.5 85.0 L 158.0 84.0 L 159.5 83.0 L 161.5 82.5 L 165.5 81.5 L 170.0 80.0 L 174.0 78.5 L 177.0 77.5 L 179.5 77.5 L 181.0 78.5 L 182.0 81.5 L 182.5 87.0 L 182.0 95.0 L 180.0 101.5 L 178.5 106.0 L 177.5 108.0 L 176.5 108.0 L 176.0 107.5 " stroke="black" fill="none" stroke-width="7.0" stroke-linecap="round" stroke-linejoin="round" />
<path d="M 169.0 93.5 L 168.0 93.5 L 167.5 93.5 L 167.5 93.5 L 169.5 93.5 L 172.0 94.5 " stroke="black" fill="none" stroke-width="7.0" stroke-linecap="round" stroke-linejoin="round" />
<path d="M 146.0 111.5 L 145.5 111.0 L 145.0 110.5 L 145.0 110.0 L 145.0 110.0 L 147.0 111.5 L 148.5 112.5 L 150.0 114.0 L 150.0 115.0 " stroke="black" fill="none" stroke-width="7.0" stroke-linecap="round" stroke-linejoin="round" />
<path d="M 129.5 128.5 L 127.0 130.5 L 125.0 131.5 L 125.0 132.0 L 126.5 131.5 L 130.5 130.0 L 139.5 127.0 L 150.0 122.5 L 161.0 118.5 L 168.0 116.0 L 169.5 115.5 L 169.0 115.5 L 166.5 117.0 " stroke="black" fill="none" stroke-width="7.0" stroke-linecap="round" stroke-linejoin="round" />
<path d="M 116.5 131.0 L 115.5 132.0 L 115.5 134.0 L 118.0 139.5 L 120.0 148.0 L 119.5 160.5 L 115.5 174.0 L 111.0 185.5 L 107.5 193.0 L 105.5 196.5 L 105.5 197.5 " stroke="black" fill="none" stroke-width="7.0" stroke-linecap="round" stroke-linejoin="round" />
<path d="M 129.0 147.5 L 127.0 148.5 L 126.5 149.0 L 127.0 149.0 L 130.0 148.5 L 136.0 146.0 L 145.5 142.5 L 154.5 138.0 L 164.0 133.5 L 170.0 130.5 L 172.5 129.5 L 173.5 129.5 L 173.5 131.5 L 173.0 136.0 L 171.0 141.5 L 169.5 145.5 " stroke="black" fill="none" stroke-width="7.0" stroke-linecap="round" stroke-linejoin="round" />
<path d="M 142.0 129.0 L 141.0 129.0 L 140.5 129.5 L 140.5 134.0 L 140.5 142.5 L 141.5 150.0 L 143.0 153.5 L 143.5 153.5 " stroke="black" fill="none" stroke-width="7.0" stroke-linecap="round" stroke-linejoin="round" />
<path d="M 151.5 126.5 L 151.5 127.0 L 151.5 128.0 L 151.5 131.5 L 152.0 138.0 L 152.0 145.5 L 151.5 147.0 " stroke="black" fill="none" stroke-width="7.0" stroke-linecap="round" stroke-linejoin="round" />
<path d="M 141.5 161.0 L 139.0 162.0 L 137.0 163.0 L 137.0 163.0 L 139.0 163.0 L 144.5 161.0 L 150.5 157.5 L 156.5 153.0 L 162.0 149.5 L 163.5 149.5 L 162.0 152.0 " stroke="black" fill="none" stroke-width="7.0" stroke-linecap="round" stroke-linejoin="round" />
<path d="M 130.0 185.0 L 128.5 186.0 L 127.5 186.5 L 127.5 186.5 L 130.5 185.5 L 136.0 182.0 L 143.0 177.5 L 149.0 172.5 L 151.0 170.5 " stroke="black" fill="none" stroke-width="7.0" stroke-linecap="round" stroke-linejoin="round" />
<path d="M 130.5 168.5 L 130.0 170.0 L 129.5 173.0 L 129.0 179.0 L 128.5 188.0 L 127.0 197.5 L 125.5 204.0 L 125.5 207.5 L 126.5 208.0 L 130.0 206.5 L 136.0 203.0 L 145.5 197.5 L 153.0 192.0 L 158.0 188.0 " stroke="black" fill="none" stroke-width="7.0" stroke-linecap="round" stroke-linejoin="round" />
<path d="M 164.0 179.5 L 161.5 180.0 L 161.0 180.0 L 163.0 178.0 L 167.0 175.5 L 171.5 172.0 L 175.5 168.5 L 176.0 167.5 " stroke="black" fill="none" stroke-width="7.0" stroke-linecap="round" stroke-linejoin="round" />
<path d="M 164.0 158.5 L 163.0 161.5 L 163.0 166.5 L 163.0 172.5 L 163.0 181.0 L 163.0 189.0 L 163.0 195.5 L 163.5 200.0 L 165.5 203.5 L 168.0 204.0 L 171.0 204.0 L 175.0 202.0 L 180.0 199.5 L 186.0 197.0 L 191.0 195.0 L 194.5 194.0 L 197.5 193.0 L 200.0 192.5 L 203.0 191.0 L 205.0 189.0 L 206.5 185.5 L 207.5 179.5 L 207.5 169.5 L 207.0 166.0 " stroke="black" fill="none" stroke-width="7.0" stroke-linecap="round" stroke-linejoin="round" />
</svg>