<svg xmlns="http://www.w3.org/2000/svg" width="300" height="300" viewBox="0 0 300 300">
<path d="M 118.5 98.5 L 118.5 98.5 L 117.5 98.5 L 117.0 99.0 L 117.0 99.0 L 119.0 98.5 L 123.5 98.0 L 130.5 96.5 L 143.0 94.5 L 156.0 92.5 L 167.5 90.0 L 174.5 88.0 L 176.0 87.5 L 176.5 86.5 " stroke="black" fill="none" stroke-width="7.0" stroke-linecap="round" stroke-linejoin="round" />
<path d="M 135.0 80.5 L 134.5 80.5 L 134.0 81.5 L 134.0 86.0 L 134.5 96.5 L 135.5 107.5 L 136.5 114.5 " stroke="black" fill="none" stroke-width="7.0" stroke-linecap="round" stroke-linejoin="round" />
<path d="M 161.0 72.5 L 161.0 72.5 L 161.0 73.0 L 161.0 76.5 L 161.0 86.5 L 161.0 100.5 L 160.5 109.5 L 160.0 111.5 " stroke="black" fill="none" stroke-width="7.0" stroke-linecap="round" stroke-linejoin="round" />
<path d="M 139.0 117.5 L 139.0 117.5 L 137.0 118.0 L 137.5 118.0 L 142.0 118.0 L 148.0 117.0 L 154.0 115.5 L 155.5 115.5 " stroke="black" fill="none" stroke-width="7.0" stroke-linecap="round" stroke-linejoin="round" />
<path d="M 108.5 137.5 L 108.0 137.5 L 107.0 137.5 L 106.5 137.5 L 106.5 137.5 L 111.0 136.0 L 121.0 134.0 L 136.5 129.5 L 153.5 126.5 L 164.5 125.0 L 176.0 124.5 L 178.5 124.5 L 178.5 124.5 " stroke="black" fill="none" stroke-width="7.0" stroke-linecap="round" stroke-linejoin="round" />
<path d="M 125.0 146.0 L 124.5 146.5 L 124.5 147.0 L 125.0 150.0 L 127.0 159.0 L 129.5 167.0 L 131.5 171.5 L 132.5 172.5 " stroke="black" fill="none" stroke-width="7.0" stroke-linecap="round" stroke-linejoin="round" />
<path d="M 129.5 149.5 L 129.5 149.0 L 130.0 148.0 L 132.0 146.5 L 137.5 145.0 L 147.0 142.5 L 155.0 141.0 L 161.0 140.0 L 168.0 140.0 L 172.0 143.0 L 172.0 147.5 L 171.0 155.5 L 168.0 164.5 L 165.0 172.0 L 162.5 176.0 " stroke="black" fill="none" stroke-width="7.0" stroke-linecap="round" stroke-linejoin="round" />
<path d="M 139.5 163.5 L 136.5 163.5 L 135.5 163.5 L 137.0 163.5 L 142.0 162.5 L 147.0 161.0 L 155.0 158.0 L 160.5 155.5 " stroke="black" fill="none" stroke-width="7.0" stroke-linecap="round" stroke-linejoin="round" />
<path d="M 148.5 145.0 L 148.0 146.5 L 148.0 149.0 L 148.5 155.5 L 149.0 164.0 L 149.5 170.5 L 149.0 172.0 " stroke="black" fill="none" stroke-width="7.0" stroke-linecap="round" stroke-linejoin="round" />
<path d="M 137.5 179.0 L 136.5 179.5 L 134.5 180.5 L 134.0 181.0 L 137.0 181.0 L 143.5 179.0 L 151.0 176.5 L 159.0 173.5 L 165.0 172.0 " stroke="black" fill="none" stroke-width="7.0" stroke-linecap="round" stroke-linejoin="round" />
<path d="M 151.0 175.5 L 151.0 175.5 L 150.0 176.5 L 148.5 179.0 L 146.0 183.0 L 139.5 189.5 L 131.5 196.5 L 126.5 201.0 L 125.0 202.5 L 125.0 202.5 " stroke="black" fill="none" stroke-width="7.0" stroke-linecap="round" stroke-linejoin="round" />
<path d="M 150.5 181.0 L 152.0 182.0 L 156.5 185.0 L 164.5 191.0 L 171.0 198.0 L 174.5 204.0 L 176.0 206.5 " stroke="black" fill="none" stroke-width="7.0" stroke-linecap="round" stroke-linejoin="round" />
</svg>