<svg xmlns="http://www.w3.org/2000/svg" width="300" height="300" viewBox="0 0 300 300">
<path d="M 125.5 93.5 L 125.5 92.5 L 125.5 91.0 L 125.5 90.0 L 125.5 90.5 L 126.0 93.0 L 126.5 101.5 L 127.0 110.5 L 127.0 118.0 L 127.0 120.0 L 127.5 120.0 " stroke="black" fill="none" stroke-width="7.0" stroke-linecap="round" stroke-linejoin="round" />
<path d="M 129.0 109.0 L 129.0 109.0 L 130.0 108.0 L 131.5 106.5 L 135.0 104.5 L 139.5 102.5 L 141.0 101.5 " stroke="black" fill="none" stroke-width="7.0" stroke-linecap="round" stroke-linejoin="round" />
<path d="M 106.0 137.5 L 106.0 137.0 L 105.5 136.0 L 105.0 135.5 L 105.0 137.5 L 105.5 145.0 L 106.0 161.0 L 106.0 181.0 L 105.5 195.0 L 105.0 201.0 L 105.0 203.0 L 106.0 200.0 " stroke="black" fill="none" stroke-width="7.0" stroke-linecap="round" stroke-linejoin="round" />
<path d="M 112.0 140.0 L 112.0 139.0 L 112.0 136.5 L 113.5 134.5 L 116.5 132.5 L 121.5 131.0 L 127.5 129.5 L 132.0 127.5 L 136.0 126.0 L 140.5 125.5 L 143.0 125.5 L 144.5 127.0 L 146.0 131.0 L 147.0 139.0 L 147.5 151.0 L 147.5 168.0 L 147.5 185.5 L 147.5 199.5 L 146.5 209.5 L 145.0 214.0 L 143.5 215.5 L 141.0 213.5 " stroke="black" fill="none" stroke-width="7.0" stroke-linecap="round" stroke-linejoin="round" />
<path d="M 133.0 144.0 L 132.5 144.5 L 132.0 145.5 L 131.5 148.0 L 130.0 155.0 L 127.0 165.0 L 122.5 174.5 L 117.0 180.5 L 114.5 182.5 " stroke="black" fill="none" stroke-width="7.0" stroke-linecap="round" stroke-linejoin="round" />
<path d="M 116.5 158.5 L 117.0 158.0 L 118.5 157.5 L 122.0 159.5 L 126.5 163.0 L 132.5 171.0 L 136.0 177.5 L 137.5 181.5 L 137.5 182.5 L 137.5 182.5 " stroke="black" fill="none" stroke-width="7.0" stroke-linecap="round" stroke-linejoin="round" />
<path d="M 121.5 143.5 L 121.0 145.0 L 121.0 146.0 L 122.0 146.5 L 122.0 147.0 " stroke="black" fill="none" stroke-width="7.0" stroke-linecap="round" stroke-linejoin="round" />
<path d="M 109.0 166.0 L 109.0 166.0 L 109.0 166.5 L 109.0 167.0 L 111.5 167.5 L 115.0 167.5 " stroke="black" fill="none" stroke-width="7.0" stroke-linecap="round" stroke-linejoin="round" />
<path d="M 121.5 188.5 L 121.5 189.0 L 122.0 191.0 L 123.0 193.0 L 125.0 194.5 L 126.5 195.0 " stroke="black" fill="none" stroke-width="7.0" stroke-linecap="round" stroke-linejoin="round" />
<path d="M 137.0 161.0 L 137.0 161.0 L 137.0 161.0 L 138.0 161.5 L 141.0 163.0 L 142.0 164.0 " stroke="black" fill="none" stroke-width="7.0" stroke-linecap="round" stroke-linejoin="round" />
<path d="M 108.0 209.5 L 107.5 210.0 L 107.0 210.0 L 109.0 210.0 L 114.5 210.0 L 123.5 208.5 L 132.5 206.0 L 134.0 206.0 " stroke="black" fill="none" stroke-width="7.0" stroke-linecap="round" stroke-linejoin="round" />
<path d="M 168.5 117.0 L 168.0 117.0 L 167.0 117.5 L 166.0 117.5 L 166.5 117.5 L 170.0 115.5 L 176.5 112.0 L 186.5 107.0 L 193.5 103.5 L 195.5 102.0 L 194.5 102.0 " stroke="black" fill="none" stroke-width="7.0" stroke-linecap="round" stroke-linejoin="round" />
<path d="M 164.0 118.0 L 163.5 119.0 L 163.0 122.0 L 163.0 130.0 L 163.5 145.0 L 162.0 162.0 L 158.0 178.0 L 154.5 190.5 L 152.5 196.0 L 152.0 198.0 " stroke="black" fill="none" stroke-width="7.0" stroke-linecap="round" stroke-linejoin="round" />
<path d="M 170.5 145.5 L 170.5 145.5 L 170.5 145.0 L 171.5 143.5 L 174.5 141.5 L 178.5 138.5 L 180.5 137.5 " stroke="black" fill="none" stroke-width="7.0" stroke-linecap="round" stroke-linejoin="round" />
<path d="M 168.5 161.5 L 169.0 163.5 L 170.0 167.5 L 171.0 171.5 L 171.0 173.0 L 171.0 173.0 " stroke="black" fill="none" stroke-width="7.0" stroke-linecap="round" stroke-linejoin="round" />
<path d="M 172.0 161.5 L 171.5 161.5 L 171.0 161.5 L 171.5 161.5 L 173.5 160.0 L 176.0 158.5 L 179.0 157.0 L 181.0 156.5 L 181.5 158.0 L 180.5 162.0 L 178.5 166.5 L 176.5 171.5 L 175.0 174.5 L 174.5 175.5 L 174.0 175.5 L 174.5 175.0 L 176.0 173.0 L 179.0 170.0 L 181.5 168.0 " stroke="black" fill="none" stroke-width="7.0" stroke-linecap="round" stroke-linejoin="round" />
<path d="M 179.0 85.0 L 178.0 86.5 L 178.0 89.5 L 179.0 99.0 L 184.0 118.5 L 190.5 146.5 L 195.5 170.5 L 200.0 186.5 L 204.0 195.5 L 206.5 201.0 L 207.5 202.5 L 207.0 201.0 L 204.5 196.0 L 202.0 189.0 L 200.5 182.0 " stroke="black" fill="none" stroke-width="7.0" stroke-linecap="round" stroke-linejoin="round" />
<path d="M 205.0 138.0 L 205.0 138.0 L 203.5 139.0 L 201.5 141.5 L 198.5 148.0 L 193.5 162.5 L 185.0 181.0 L 175.5 195.5 L 169.5 205.0 L 169.0 206.0 " stroke="black" fill="none" stroke-width="7.0" stroke-linecap="round" stroke-linejoin="round" />
<path d="M 196.5 84.0 L 196.0 85.5 L 196.5 88.5 L 199.5 95.5 L 205.0 103.5 L 206.0 105.0 " stroke="black" fill="none" stroke-width="7.0" stroke-linecap="round" stroke-linejoin="round" />
</svg>