<svg xmlns="http://www.w3.org/2000/svg" width="300" height="300" viewBox="0 0 300 300">
<path d="M 133.5 85.5 L 133.5 85.5 L 133.5 85.5 L 133.0 85.5 L 131.5 87.5 L 129.5 90.5 L 124.0 97.5 " stroke="black" fill="none" stroke-width="7.0" stroke-linecap="round" stroke-linejoin="round" />
<path d="M 111.0 120.0 L 110.5 120.5 L 109.5 121.0 L 109.5 121.0 L 111.0 121.0 L 116.0 119.5 L 123.5 115.5 L 132.0 109.0 L 139.0 104.5 L 141.5 102.5 L 142.0 102.0 " stroke="black" fill="none" stroke-width="7.0" stroke-linecap="round" stroke-linejoin="round" />
<path d="M 129.5 101.0 L 129.5 102.5 L 130.0 108.0 L 130.0 118.0 L 130.5 126.5 L 130.5 138.0 L 129.5 142.5 L 129.0 145.5 L 127.5 146.0 L 127.0 144.5 " stroke="black" fill="none" stroke-width="7.0" stroke-linecap="round" stroke-linejoin="round" />
<path d="M 127.0 117.5 L 127.0 116.5 L 127.0 114.5 L 127.0 114.5 L 126.0 116.5 L 124.0 120.5 L 121.0 126.0 L 116.5 131.0 L 112.0 135.5 L 109.5 137.0 " stroke="black" fill="none" stroke-width="7.0" stroke-linecap="round" stroke-linejoin="round" />
<path d="M 127.5 116.5 L 128.0 116.5 L 131.0 118.5 L 135.0 122.5 L 141.5 127.5 L 147.5 131.5 L 151.0 133.5 " stroke="black" fill="none" stroke-width="7.0" stroke-linecap="round" stroke-linejoin="round" />
<path d="M 161.0 87.0 L 161.0 87.0 L 161.0 88.0 L 159.5 91.5 L 157.5 98.5 L 154.0 106.0 L 151.5 111.0 L 151.0 112.0 " stroke="black" fill="none" stroke-width="7.0" stroke-linecap="round" stroke-linejoin="round" />
<path d="M 153.5 106.5 L 153.5 106.0 L 155.5 104.0 L 159.0 102.0 L 163.5 101.0 L 168.5 100.0 L 172.5 98.5 L 175.5 98.0 L 177.5 98.0 L 179.5 100.0 L 180.0 103.5 L 180.0 109.0 L 179.0 117.0 L 177.5 125.0 L 176.0 131.5 L 174.5 136.5 L 173.0 139.0 L 171.0 139.5 L 169.5 137.0 L 168.5 136.5 " stroke="black" fill="none" stroke-width="7.0" stroke-linecap="round" stroke-linejoin="round" />
<path d="M 168.0 105.5 L 168.0 106.0 L 167.5 107.0 L 166.0 111.5 L 162.0 120.5 L 157.0 130.0 L 152.0 139.0 " stroke="black" fill="none" stroke-width="7.0" stroke-linecap="round" stroke-linejoin="round" />
<path d="M 149.5 145.5 L 149.5 145.0 L 149.5 144.5 L 149.5 144.5 L 149.0 145.5 L 146.0 150.5 L 140.0 158.5 L 131.0 167.0 L 122.5 174.5 L 114.5 179.0 L 112.0 179.5 " stroke="black" fill="none" stroke-width="7.0" stroke-linecap="round" stroke-linejoin="round" />
<path d="M 147.5 153.5 L 149.5 155.0 L 154.0 156.0 L 161.0 157.0 L 169.0 157.5 L 174.5 157.5 L 178.0 157.5 L 179.0 158.5 " stroke="black" fill="none" stroke-width="7.0" stroke-linecap="round" stroke-linejoin="round" />
<path d="M 149.0 164.0 L 148.5 164.0 L 147.5 165.0 L 147.5 167.5 L 148.5 174.5 L 150.0 185.0 L 150.5 196.0 L 150.5 205.5 L 150.5 210.5 L 149.0 213.0 L 147.5 213.5 L 145.5 212.0 L 142.5 207.0 L 138.5 200.0 " stroke="black" fill="none" stroke-width="7.0" stroke-linecap="round" stroke-linejoin="round" />
<path d="M 126.5 185.5 L 126.0 186.5 L 126.0 187.0 L 127.5 187.0 L 129.5 187.0 " stroke="black" fill="none" stroke-width="7.0" stroke-linecap="round" stroke-linejoin="round" />
<path d="M 122.5 205.0 L 121.0 206.5 L 120.5 206.5 L 122.0 206.0 L 126.0 201.5 L 131.0 195.0 L 136.0 189.0 " stroke="black" fill="none" stroke-width="7.0" stroke-linecap="round" stroke-linejoin="round" />
<path d="M 169.0 173.0 L 169.0 173.0 L 169.0 173.0 L 168.5 173.5 L 166.5 176.0 L 163.0 180.0 " stroke="black" fill="none" stroke-width="7.0" stroke-linecap="round" stroke-linejoin="round" />
<path d="M 156.0 187.0 L 156.0 187.5 L 155.5 188.0 L 156.0 188.5 L 158.0 190.0 L 162.5 192.0 L 168.5 195.0 L 174.0 198.5 L 179.5 201.5 L 184.0 204.0 L 188.0 204.5 " stroke="black" fill="none" stroke-width="7.0" stroke-linecap="round" stroke-linejoin="round" />
</svg>