<svg xmlns="http://www.w3.org/2000/svg" width="300" height="300" viewBox="0 0 300 300">
<path d="M 124.0 85.0 L 123.5 85.5 L 123.0 85.5 L 123.0 86.5 L 124.0 87.5 L 126.5 88.5 L 128.0 89.5 L 129.0 90.0 " stroke="black" fill="none" stroke-width="7.0" stroke-linecap="round" stroke-linejoin="round" />
<path d="M 111.5 103.5 L 111.0 104.0 L 108.5 105.5 L 107.0 107.0 L 106.5 108.0 L 106.5 108.0 L 109.0 108.0 L 115.0 106.0 L 123.0 102.5 L 130.0 98.5 L 135.5 94.5 L 138.0 92.5 L 137.0 93.0 " stroke="black" fill="none" stroke-width="7.0" stroke-linecap="round" stroke-linejoin="round" />
<path d="M 116.0 107.0 L 116.0 107.5 L 115.5 109.0 L 116.0 111.0 L 117.5 114.0 L 121.0 116.5 L 124.0 117.5 " stroke="black" fill="none" stroke-width="7.0" stroke-linecap="round" stroke-linejoin="round" />
<path d="M 131.5 104.0 L 131.5 104.0 L 132.0 103.5 L 132.0 103.5 L 131.5 107.0 L 129.5 111.5 L 126.5 117.0 L 124.5 119.5 " stroke="black" fill="none" stroke-width="7.0" stroke-linecap="round" stroke-linejoin="round" />
<path d="M 107.5 130.5 L 105.5 131.5 L 104.0 133.0 L 103.5 133.5 L 104.0 134.0 L 107.5 132.5 L 115.0 128.5 L 125.0 124.0 L 135.0 119.0 L 142.0 116.0 L 144.0 116.0 " stroke="black" fill="none" stroke-width="7.0" stroke-linecap="round" stroke-linejoin="round" />
<path d="M 113.5 145.5 L 113.5 144.5 L 113.5 143.5 L 114.0 144.5 L 115.0 150.5 L 115.5 161.5 L 115.0 171.5 L 113.0 183.0 L 111.0 189.0 L 110.0 189.5 L 110.0 189.0 " stroke="black" fill="none" stroke-width="7.0" stroke-linecap="round" stroke-linejoin="round" />
<path d="M 122.0 141.5 L 122.5 141.0 L 123.5 139.5 L 125.5 138.5 L 128.0 137.0 L 131.0 135.0 L 134.0 133.0 L 136.0 132.5 L 137.0 133.5 L 137.5 135.5 L 137.5 140.5 L 138.0 147.5 L 138.5 158.5 L 139.0 171.5 L 139.5 183.5 L 139.5 191.0 L 139.5 192.5 L 139.0 195.0 L 137.5 196.5 L 136.0 195.5 L 133.5 190.5 L 131.0 184.0 L 129.5 177.0 " stroke="black" fill="none" stroke-width="7.0" stroke-linecap="round" stroke-linejoin="round" />
<path d="M 125.5 157.5 L 124.5 156.5 L 124.0 155.5 L 124.0 155.0 L 125.5 154.5 L 127.5 154.0 L 130.0 153.0 " stroke="black" fill="none" stroke-width="7.0" stroke-linecap="round" stroke-linejoin="round" />
<path d="M 126.5 165.0 L 125.0 167.0 L 123.0 169.0 L 123.0 169.5 L 124.5 169.5 L 127.5 167.0 L 132.0 164.0 L 133.0 163.0 " stroke="black" fill="none" stroke-width="7.0" stroke-linecap="round" stroke-linejoin="round" />
<path d="M 159.5 105.0 L 159.5 105.5 L 159.0 105.5 L 159.5 105.5 L 163.5 103.5 L 168.5 100.5 L 173.0 97.5 L 174.0 96.5 " stroke="black" fill="none" stroke-width="7.0" stroke-linecap="round" stroke-linejoin="round" />
<path d="M 155.5 93.5 L 155.5 93.5 L 155.5 93.5 L 155.5 93.5 L 155.5 95.0 L 155.5 99.0 L 156.0 104.0 L 156.0 109.5 L 155.5 114.5 L 155.5 116.5 L 155.5 117.5 L 156.0 117.5 L 158.0 116.5 L 161.0 115.5 L 164.5 114.5 L 165.5 114.5 L 168.0 114.0 L 171.5 113.0 L 173.5 112.0 L 174.5 112.0 L 175.0 113.0 L 174.0 116.0 L 172.5 119.5 L 171.0 122.5 " stroke="black" fill="none" stroke-width="7.0" stroke-linecap="round" stroke-linejoin="round" />
<path d="M 161.5 129.0 L 159.5 130.0 L 158.5 130.5 L 158.5 130.5 L 161.0 130.0 L 164.5 128.0 L 168.0 126.0 L 171.0 125.0 L 171.5 124.5 " stroke="black" fill="none" stroke-width="7.0" stroke-linecap="round" stroke-linejoin="round" />
<path d="M 150.5 133.5 L 150.5 133.5 L 150.5 134.5 L 150.5 137.0 L 150.5 142.5 L 150.5 150.5 L 150.5 160.0 L 151.0 168.5 L 151.5 174.5 L 152.5 181.0 L 154.0 185.5 L 156.5 188.0 L 160.0 189.0 L 164.5 190.0 L 169.0 190.0 L 173.0 189.5 L 176.0 189.0 L 179.0 188.0 L 181.5 187.0 L 184.5 185.0 L 186.5 182.5 L 188.5 179.0 L 189.0 173.5 L 188.5 165.5 L 187.5 161.0 " stroke="black" fill="none" stroke-width="7.0" stroke-linecap="round" stroke-linejoin="round" />
<path d="M 158.5 146.0 L 158.0 146.5 L 156.0 146.5 L 155.5 146.5 L 157.5 146.5 L 161.5 145.5 L 166.5 144.0 L 170.0 142.5 L 171.5 142.0 " stroke="black" fill="none" stroke-width="7.0" stroke-linecap="round" stroke-linejoin="round" />
<path d="M 156.0 159.0 L 156.0 159.5 L 155.5 161.0 L 156.5 161.0 L 160.5 160.5 L 165.5 158.0 L 170.0 155.0 L 171.5 153.0 " stroke="black" fill="none" stroke-width="7.0" stroke-linecap="round" stroke-linejoin="round" />
<path d="M 154.5 171.0 L 153.5 172.0 L 154.0 172.5 L 158.5 172.0 L 165.5 169.5 L 172.5 166.5 L 176.5 164.5 " stroke="black" fill="none" stroke-width="7.0" stroke-linecap="round" stroke-linejoin="round" />
</svg>