<svg xmlns="http://www.w3.org/2000/svg" width="300" height="300" viewBox="0 0 300 300">
<path d="M 147.0 93.5 L 146.5 93.5 L 146.5 93.5 L 147.0 93.5 L 149.0 95.5 L 151.5 97.5 L 153.5 99.5 L 153.5 100.0 " stroke="black" fill="none" stroke-width="7.0" stroke-linecap="round" stroke-linejoin="round" />
<path d="M 114.5 115.5 L 113.5 116.0 L 113.0 116.5 L 113.0 118.0 L 115.0 121.0 L 118.0 124.5 L 120.5 127.5 L 121.5 128.5 " stroke="black" fill="none" stroke-width="7.0" stroke-linecap="round" stroke-linejoin="round" />
<path d="M 119.5 118.5 L 119.5 118.0 L 119.5 117.5 L 120.5 116.5 L 124.0 116.0 L 130.5 114.5 L 141.5 112.5 L 153.5 109.5 L 165.0 106.0 L 174.0 103.0 L 179.5 102.0 L 184.5 102.0 L 186.5 102.5 L 186.5 105.0 L 184.0 108.5 L 178.0 116.5 L 174.5 122.0 " stroke="black" fill="none" stroke-width="7.0" stroke-linecap="round" stroke-linejoin="round" />
<path d="M 142.5 134.5 L 141.5 134.5 L 140.0 135.0 L 140.0 135.0 L 142.0 135.5 L 146.0 135.5 L 150.0 135.0 L 154.0 134.5 L 157.5 134.0 L 158.5 134.5 L 158.0 137.0 L 156.0 140.0 L 154.0 144.0 L 152.5 148.0 L 151.5 151.5 L 151.5 155.5 L 152.5 160.0 L 153.5 166.0 L 154.5 173.0 L 154.5 180.5 L 154.5 187.5 L 154.0 193.5 L 152.5 197.5 L 150.5 200.0 L 147.5 200.5 L 143.0 198.0 L 137.0 191.5 L 132.0 183.0 " stroke="black" fill="none" stroke-width="7.0" stroke-linecap="round" stroke-linejoin="round" />
<path d="M 113.0 168.5 L 111.0 169.5 L 109.5 169.5 L 109.5 169.5 L 112.0 169.5 L 119.5 169.5 L 129.0 168.5 L 144.5 166.0 L 162.0 163.0 L 176.5 162.0 L 187.0 162.0 L 193.5 161.5 L 195.0 161.5 " stroke="black" fill="none" stroke-width="7.0" stroke-linecap="round" stroke-linejoin="round" />
</svg>